<?xml version="1.0" standalone="no"?>
<!DOCTYPE svg PUBLIC "-//W3C//DTD SVG 1.1//EN" "http://www.w3.org/Graphics/SVG/1.1/DTD/svg11.dtd" >
<svg xmlns="http://www.w3.org/2000/svg">
<metadata>
Created by FontPrep 20130207 at Sat Jul  4 18:38:50 2015
 By Sammy C
(c) 2014 Apple Inc. All rights reserved.
</metadata>
<defs>
<font id="a4159e0a5e6b74bdd5dfbd55449fa56d" horiz-adv-x='1024' >
  <font-face 
    font-family="SanFranciscoDisplay-Thin"
    font-weight="200"
    font-stretch="normal"
    units-per-em="2048"
    panose-1="0 0 0 0 0 0 0 0 0 0"
    ascent="1638"
    descent="-410"
    x-height="1035"
    cap-height="1360"
    bbox="-474 -482 2048 1981.05"
    underline-thickness="50"
    underline-position="-25"
    unicode-range="U+0020-FB02"
  />
<missing-glyph horiz-adv-x="1293" 
d="M632 1018q56 0 88 -30q33 -30 33 -74q-1 -44 -21 -72t-86 -74t-91 -97q-26 -51 -22 -140h166v15q0 48 19 76t90 78t101 101q30 50 30 116q0 113 -81 181q-82 68 -220 69q-138 0 -220 -76t-79 -203h169q0 58 34 94t90 36zM501 314q-1 -48 33 -78t88 -30t88 30t33 78
q1 48 -33 78t-88 29q-54 0 -88 -30q-33 -29 -33 -77zM120 0v1365h1053v-1365h-1053z" />
    <glyph glyph-name=".notdef" horiz-adv-x="1293" 
d="M632 1018q56 0 88 -30q33 -30 33 -74q-1 -44 -21 -72t-86 -74t-91 -97q-26 -51 -22 -140h166v15q0 48 19 76t90 78t101 101q30 50 30 116q0 113 -81 181q-82 68 -220 69q-138 0 -220 -76t-79 -203h169q0 58 34 94t90 36zM501 314q-1 -48 33 -78t88 -30t88 30t33 78
q1 48 -33 78t-88 29q-54 0 -88 -30q-33 -29 -33 -77zM120 0v1365h1053v-1365h-1053z" />
    <glyph glyph-name=".null" 
 />
    <glyph glyph-name="nonmarkingreturn" 
 />
    <glyph glyph-name="space" unicode=" " horiz-adv-x="422" 
 />
    <glyph glyph-name="exclam" unicode="!" horiz-adv-x="487" 
d="M200 1360h87l-8 -987h-71zM166 62q0 32 22 56q22 22 54 22t56 -22q23 -22 23 -56q0 -32 -23 -54q-24 -22 -56 -23q-32 1 -54 23t-22 54z" />
    <glyph glyph-name="quotedbl" unicode="&#x22;" horiz-adv-x="608" 
d="M380 1360h96l-17 -431h-62zM133 1360h95l-17 -431h-62z" />
    <glyph glyph-name="numbersign" unicode="#" horiz-adv-x="1195" 
d="M472 881l-78 -392h353l79 392h-354zM1145 881h-248l-78 -392h234l-14 -70h-235l-87 -419h-71l86 419h-354l-86 -419h-72l86 419h-234l14 70h236l78 392h-222l13 70h224l84 413h73l-86 -413h354l85 413h72l-85 -413h247z" />
    <glyph glyph-name="dollar" unicode="$" horiz-adv-x="1048" 
d="M570 -143h-73v133q-219 6 -327 115t-108 241h84q2 -110 94 -192t257 -90v606l-89 24q-309 81 -309 339q0 149 108 241t290 99v133h73v-134q175 -10 280 -100t108 -222h-81q-1 93 -81 166t-226 83v-566l50 -12q186 -49 272 -135t86 -238q0 -154 -111 -250t-297 -106v-135z
M895 346q0 120 -72 189q-72 68 -236 112q-10 5 -17 5v-588q148 10 236 86t89 196zM182 1041q0 -199 256 -272q4 -1 30 -9t29 -8v547q-143 -7 -229 -77t-86 -181z" />
    <glyph glyph-name="percent" unicode="%" horiz-adv-x="1434" 
d="M243 0h-83l1028 1360h83zM876 305v37q0 140 70 226t170 87q102 -1 172 -87t70 -227v-37q0 -142 -70 -228t-171 -86t-171 86t-70 229zM945 339v-31q-1 -116 49 -184t123 -69q73 1 123 69t49 184v31q0 115 -49 183q-48 68 -122 68t-124 -68t-49 -183zM76 1037v36
q0 141 70 227t172 87q102 0 170 -86q70 -86 70 -228v-37q0 -142 -70 -228t-171 -86t-171 86t-70 229zM145 1071v-31q-1 -116 49 -184t124 -69q74 0 122 68q49 68 49 184v31q0 116 -49 184q-48 68 -122 68t-124 -68t-49 -183z" />
    <glyph glyph-name="ampersand" unicode="&#x26;" horiz-adv-x="1268" 
d="M789 1086q0 90 -64 151q-64 62 -167 62t-171 -60t-68 -143q0 -82 42 -146t145 -169q154 75 218 145t65 160zM164 343q0 -127 100 -211t230 -84t241 47t185 133l-434 467q-12 -8 -84 -44q-238 -125 -238 -308zM1146 756q0 -344 -123 -520l223 -236h-111l-162 174
q-91 -99 -215 -150t-243 -51q-121 -1 -217 41t-157 128t-61 200q0 225 278 367l38 19t38 20q-106 108 -152 182t-46 158q0 128 94 206t231 78t224 -84t87 -196q0 -114 -76 -198t-239 -164l410 -439q41 63 69 171t30 177q2 68 2 117h78z" />
    <glyph glyph-name="quotesingle" unicode="'" horiz-adv-x="361" 
d="M133 1360h95l-17 -431h-62z" />
    <glyph glyph-name="parenleft" unicode="(" horiz-adv-x="570" 
d="M235 566q0 -124 18 -242q31 -203 92 -342q61 -138 129 -245h-71q-176 228 -231 586q-18 118 -18 243t18 239q31 198 96 327q64 129 141 230h66q-171 -221 -222 -555q-18 -117 -18 -241z" />
    <glyph glyph-name="parenright" unicode=")" horiz-adv-x="569" 
d="M96 -263q238 387 238 790q0 347 -92 568q-72 172 -147 267h65q134 -173 194 -365q61 -191 61 -445q0 -293 -83 -500q-83 -206 -166 -315h-70z" />
    <glyph glyph-name="asterisk" unicode="*" horiz-adv-x="840" 
d="M452 698h-62l6 284l-249 -145l-31 55l256 133l-256 147l31 53l249 -159l-6 298h62l-7 -298l248 159l31 -53l-256 -147l256 -133l-31 -55l-248 145z" />
    <glyph glyph-name="plus" unicode="+" horiz-adv-x="1048" 
d="M560 516v-482h-72v482h-437v72h437v465h72v-465h438v-72h-438z" />
    <glyph glyph-name="comma" unicode="," horiz-adv-x="350" 
d="M127 -292h-66l88 400h94z" />
    <glyph glyph-name="hyphen" unicode="-" horiz-adv-x="763" 
d="M696 525h-630v73h630v-73z" />
    <glyph glyph-name="period" unicode="." horiz-adv-x="429" 
d="M138 61q0 33 22 55t54 22t55 -22t23 -55q0 -32 -23 -54t-55 -22t-54 22t-22 54z" />
    <glyph glyph-name="slash" unicode="/" horiz-adv-x="628" 
d="M104 -315h-69l494 1750h70z" />
    <glyph glyph-name="zero" unicode="0" horiz-adv-x="1097" 
d="M111 625v108q0 314 114 486t316 172t316 -172t114 -486v-108q0 -313 -114 -485t-316 -171q-202 -1 -316 171t-114 485zM194 736v-113q0 -277 93 -429t254 -152t254 152t93 429v113q0 279 -93 430t-254 151t-254 -151t-93 -430z" />
    <glyph glyph-name="one" unicode="1" horiz-adv-x="759" 
d="M522 0h-81v1266h-4q-12 -6 -165 -105t-172 -112v86q22 16 174 115t170 108h78v-1358z" />
    <glyph glyph-name="two" unicode="2" horiz-adv-x="1085" 
d="M216 1020h-81v4q-1 142 99 250q48 52 128 85q79 32 177 32q187 0 293 -103t106 -240t-59 -228q-59 -92 -145 -193l-479 -552v-2h714v-73h-827v64l537 617q133 155 160 251q14 50 14 104q1 116 -83 199t-232 83t-235 -87q-86 -87 -87 -207v-4z" />
    <glyph glyph-name="three" unicode="3" horiz-adv-x="1097" 
d="M385 665v74h121q158 -1 248 85t90 210t-87 204q-86 80 -233 80q-184 0 -268 -136q-43 -69 -45 -147h-82q-1 97 57 187q107 169 340 169q184 0 292 -98q108 -99 110 -245t-86 -238t-198 -103v-2q132 -11 235 -95q114 -93 114 -268q0 -96 -61 -186t-166 -138
q-105 -50 -222 -50q-223 0 -332 113t-111 259h81q4 -117 94 -207q90 -91 256 -91t272 90t106 226q0 137 -110 222q-109 85 -279 85h-136z" />
    <glyph glyph-name="four" unicode="4" horiz-adv-x="1106" 
d="M173 405h574v882h-4q-51 -77 -299 -457t-271 -422v-3zM824 1360v-955h198v-74h-198v-331h-77v331h-662v73q25 45 321 499t297 457h121z" />
    <glyph glyph-name="five" unicode="5" horiz-adv-x="1113" 
d="M560 42q152 0 258 110t107 271q-1 162 -103 270t-262 108q-122 0 -210 -58t-123 -127h-77l91 744h672v-73h-604l-75 -570h2q44 75 172 127q76 31 160 31q192 0 316 -128t125 -322q0 -194 -129 -325t-325 -131q-244 0 -363 168q-65 92 -67 191h83q6 -100 88 -188
q40 -44 109 -70q69 -28 155 -28z" />
    <glyph glyph-name="six" unicode="6" horiz-adv-x="1077" 
d="M197 423q-1 -161 103 -271t262 -110t260 102q103 102 103 265q0 115 -53 205q-52 90 -134 134q-82 45 -174 45q-145 -1 -256 -105t-111 -265zM592 1301q-179 0 -298 -172q-118 -172 -120 -533h2q30 111 138 191t264 80q158 1 290 -117q62 -56 100 -143t39 -190
q-1 -201 -127 -325t-324 -123q-198 0 -329 148q-130 148 -130 460q0 595 302 751q89 46 184 46q177 0 277 -104t115 -231h-80q-11 103 -91 183t-212 79z" />
    <glyph glyph-name="seven" unicode="7" horiz-adv-x="1048" 
d="M108 1360h817v-78l-586 -1282h-89l593 1282v4h-735v74z" />
    <glyph glyph-name="eight" unicode="8" horiz-adv-x="1117" 
d="M558 -31q-200 0 -328 110t-129 286q1 176 145 284q75 56 156 69v6q-115 26 -182 115t-67 199q0 156 113 254q112 98 292 98t293 -98t113 -254q0 -154 -120 -250q-61 -48 -129 -64v-6q101 -17 194 -100q47 -42 77 -109t30 -147q0 -173 -130 -283q-128 -110 -328 -110z
M558 752q138 0 232 79q92 79 92 204t-91 204t-232 79t-233 -79t-91 -204t93 -204t230 -79zM558 41q164 -1 270 91t105 233t-105 230t-270 89t-270 -89q-105 -89 -105 -230t106 -233q105 -92 269 -91z" />
    <glyph glyph-name="nine" unicode="9" horiz-adv-x="1077" 
d="M868 930q0 162 -96 275t-252 113t-258 -106q-100 -106 -100 -275t102 -271t252 -102q148 0 250 102t102 264zM890 756h-2q-37 -105 -127 -185q-91 -80 -258 -80q-167 -1 -293 115q-60 56 -96 143t-35 193q1 196 125 322t320 126t320 -155t124 -526q0 -731 -473 -731
q-182 0 -283 109t-112 237h80q14 -128 118 -211q80 -62 220 -62q174 0 273 164t99 541z" />
    <glyph glyph-name="colon" unicode=":" horiz-adv-x="418" 
d="M132 80q0 32 22 54t54 22t54 -22q23 -22 23 -54t-23 -54q-22 -22 -54 -23q-32 1 -54 23t-22 54zM132 816q0 32 22 54t54 22t54 -22q23 -22 23 -54t-23 -54q-22 -22 -54 -23q-32 1 -54 23t-22 54z" />
    <glyph glyph-name="semicolon" unicode=";" horiz-adv-x="428" 
d="M145 -259h-66l81 367h94zM118 816q0 32 22 54t54 22t54 -22t23 -54q-1 -32 -23 -54t-54 -23q-32 1 -54 23t-22 54z" />
    <glyph glyph-name="less" unicode="&#x3c;" horiz-adv-x="1048" 
d="M125 467v79l780 538v-88l-703 -481v-10l703 -448v-88z" />
    <glyph glyph-name="equal" unicode="=" horiz-adv-x="1048" 
d="M933 689h-820v71h820v-71zM933 332h-820v71h820v-71z" />
    <glyph glyph-name="greater" unicode="&#x3e;" horiz-adv-x="1048" 
d="M930 546v-79l-781 -498v88l704 448v10l-704 481v88z" />
    <glyph glyph-name="question" unicode="?" horiz-adv-x="879" 
d="M438 1392q168 0 274 -85t105 -233q1 -104 -51 -179t-150 -149t-130 -132q-30 -56 -30 -132v-89h-82v100q0 90 41 157q41 68 139 142t138 135t41 144q1 119 -83 183t-208 65q-79 1 -140 -25q-62 -26 -94 -67q-64 -81 -68 -168h-78q6 147 107 240t269 93zM341 62
q1 32 23 56q22 22 54 22t55 -22t23 -56q0 -32 -23 -54t-55 -23q-32 1 -54 23t-23 54z" />
    <glyph glyph-name="at" unicode="@" horiz-adv-x="1638" 
d="M615 489q0 -127 55 -189t136 -63q81 0 142 52q62 52 62 174v121q0 96 -52 164t-145 68q-92 0 -145 -64t-53 -179v-84zM1242 171q-90 -1 -150 43t-68 113h-5q-18 -63 -77 -110q-59 -46 -159 -46t-171 80t-71 230v96q0 137 67 220t197 83t189 -106q12 -22 16 -41h5v131h69
v-472q0 -122 108 -152q27 -8 57 -8q94 0 159 90t65 275v38q0 247 -163 423q-78 84 -199 133t-268 49h-7q-192 0 -340 -84t-232 -246t-83 -378v-35q0 -160 51 -289t140 -211q183 -169 463 -169h9q174 0 298 44v-65q-108 -43 -298 -43h-9q-316 0 -519 186q-98 90 -153 229
t-55 312v48q0 173 54 317t149 242q201 206 525 207h7q381 0 581 -283q118 -166 118 -383v-53q0 -198 -86 -306t-214 -109z" />
    <glyph glyph-name="A" unicode="A" horiz-adv-x="1149" 
d="M576 1259h-5l-258 -731h519zM129 0h-85l488 1360h85l488 -1360h-88l-160 458h-567z" />
    <glyph glyph-name="B" unicode="B" horiz-adv-x="1208" 
d="M272 661v-586h361q181 1 283 75t102 218t-101 218t-258 75h-387zM272 1285v-549h338q144 0 238 71t94 205t-86 204t-238 69h-346zM190 0v1360h441q183 0 289 -88t106 -245q0 -194 -158 -284q-38 -22 -76 -31v-5q134 -14 222 -100t88 -248q0 -163 -118 -261t-330 -98h-464
z" />
    <glyph glyph-name="C" unicode="C" horiz-adv-x="1245" 
d="M217 803v-248q0 -220 106 -365q106 -146 327 -146q178 0 286 98t109 239h80v-3q1 -160 -123 -282q-130 -128 -364 -127q-120 0 -220 45q-100 44 -161 126q-122 163 -122 423v231q0 259 128 428t382 169q113 0 205 -38t149 -99q117 -127 117 -278v-3h-80q0 123 -100 229
q-108 114 -298 114q-98 0 -182 -40q-82 -40 -134 -110q-104 -144 -105 -363z" />
    <glyph glyph-name="D" unicode="D" horiz-adv-x="1294" 
d="M272 1285v-1210h284q268 1 396 159t129 446q0 385 -226 529q-119 76 -299 76h-284zM190 1360h366q460 0 574 -402q34 -122 34 -262t-20 -242q-43 -214 -186 -334t-402 -120h-366v1360z" />
    <glyph glyph-name="E" unicode="E" horiz-adv-x="1073" 
d="M966 75v-75h-776v1360h776v-76h-694v-550h660v-75h-660v-584h694z" />
    <glyph glyph-name="F" unicode="F" horiz-adv-x="1004" 
d="M272 0h-82v1360h765v-76h-683v-563h627v-76h-627v-645z" />
    <glyph glyph-name="G" unicode="G" horiz-adv-x="1263" 
d="M217 801v-228q0 -241 111 -385q112 -144 308 -144t305 94t109 259v186h-407v75h485v-261q0 -192 -128 -310t-349 -118q-260 0 -388 169t-128 435v228q0 270 139 430t373 160t353 -117t123 -267h-79q-4 114 -104 212q-100 97 -293 97t-311 -138t-119 -377z" />
    <glyph glyph-name="H" unicode="H" horiz-adv-x="1334" 
d="M1143 0h-82v676h-789v-676h-82v1360h82v-609h789v609h82v-1360z" />
    <glyph glyph-name="I" unicode="I" horiz-adv-x="493" 
d="M287 0h-81v1360h81v-1360z" />
    <glyph glyph-name="J" unicode="J" horiz-adv-x="907" 
d="M37 295h81q0 -85 63 -162q63 -78 193 -78q130 -1 204 75t75 226v1004h82v-1000q0 -188 -96 -284t-260 -96q-89 0 -158 30t-107 76q-76 94 -77 209z" />
    <glyph glyph-name="K" unicode="K" horiz-adv-x="1109" 
d="M272 0h-82v1360h82v-730h3l681 730h104l-558 -604l590 -756h-106l-544 700l-170 -179v-521z" />
    <glyph glyph-name="L" unicode="L" horiz-adv-x="1013" 
d="M955 75v-75h-765v1360h82v-1285h683z" />
    <glyph glyph-name="M" unicode="M" horiz-adv-x="1575" 
d="M267 0h-75v1360h81l512 -1160h4l514 1160h80v-1360h-75v1177h-4l-478 -1072h-77l-478 1072h-4v-1177z" />
    <glyph glyph-name="N" unicode="N" horiz-adv-x="1334" 
d="M272 0h-82v1360h85l782 -1216h4v1216h82v-1360h-84l-783 1216h-4v-1216z" />
    <glyph glyph-name="O" unicode="O" horiz-adv-x="1309" 
d="M135 556v244q0 271 138 431t382 160q243 -1 381 -161t138 -432v-242q0 -271 -138 -429t-382 -158q-245 0 -382 158t-137 429zM216 806v-256q0 -230 118 -368t320 -138t321 138q118 138 118 368v256q0 230 -119 370t-320 140q-202 0 -320 -140t-118 -370z" />
    <glyph glyph-name="P" unicode="P" horiz-adv-x="1126" 
d="M272 1285v-651h327q177 0 273 82t96 240t-90 243q-90 86 -252 86h-354zM190 1360h439q199 0 311 -108t112 -293q0 -187 -111 -293t-312 -106h-357v-560h-82v1360z" />
    <glyph glyph-name="Q" unicode="Q" horiz-adv-x="1310" 
d="M1093 562v245q-1 233 -119 371t-320 138t-320 -139t-118 -370v-245q0 -232 118 -370t320 -139q120 0 210 49l-180 245h98l146 -201q165 134 165 416zM1174 568q0 -334 -199 -488l182 -248h-93l-152 206q-111 -60 -258 -60q-245 0 -382 159t-137 431v233q0 272 137 431
t382 159q244 0 382 -159t138 -431v-233z" />
    <glyph glyph-name="R" unicode="R" horiz-adv-x="1187" 
d="M272 667h351q158 1 250 83t92 226q1 144 -91 227t-249 83h-353v-619zM637 1360q191 0 301 -106t110 -267t-80 -253t-209 -124l312 -610h-95l-302 594h-402v-594h-82v1360h447z" />
    <glyph glyph-name="S" unicode="S" horiz-adv-x="1141" 
d="M100 345h83q4 -105 89 -197q44 -46 122 -75t179 -29q169 0 273 84t105 208q0 126 -76 190t-241 107l-178 48q-311 83 -311 345q0 166 120 266t315 100q196 0 312 -98t118 -246h-84q-4 101 -87 185t-252 84t-263 -79q-94 -80 -95 -200q0 -120 65 -183t199 -99l172 -47
q184 -51 277 -127t93 -243q0 -166 -131 -268t-340 -102q-276 -1 -399 177q-65 94 -65 199z" />
    <glyph glyph-name="T" unicode="T" horiz-adv-x="1025" 
d="M554 0h-81v1285h-459v75h997v-75h-457v-1285z" />
    <glyph glyph-name="U" unicode="U" horiz-adv-x="1310" 
d="M250 1360v-891q0 -195 106 -309t300 -114q192 0 298 114t105 309v891h83v-891q0 -229 -130 -365t-357 -135q-227 0 -357 136t-130 365v890h82z" />
    <glyph glyph-name="V" unicode="V" horiz-adv-x="1163" 
d="M622 0h-90l-494 1360h91l448 -1258h4l453 1258h90z" />
    <glyph glyph-name="W" unicode="W" horiz-adv-x="1672" 
d="M483 0h-87l-361 1360h92l313 -1233h4l348 1233h88l348 -1233h4l313 1233h92l-362 -1360h-86l-351 1226h-5z" />
    <glyph glyph-name="X" unicode="X" horiz-adv-x="1122" 
d="M1079 1360l-469 -683l464 -677h-99l-414 611h-5l-415 -611h-95l465 680l-465 680h98l417 -613h5l417 613h96z" />
    <glyph glyph-name="Y" unicode="Y" horiz-adv-x="1060" 
d="M571 0h-81v607l-470 753h96l411 -668h6l413 668h94l-469 -751v-609z" />
    <glyph glyph-name="Z" unicode="Z" horiz-adv-x="1152" 
d="M96 0v65l850 1217v4h-823v74h924v-65l-849 -1217v-5h853v-73h-955z" />
    <glyph glyph-name="bracketleft" unicode="[" horiz-adv-x="580" 
d="M154 1360h343v-63h-266v-1457h279v-63h-356v1583z" />
    <glyph glyph-name="backslash" unicode="\" horiz-adv-x="628" 
d="M593 -315h-69l-496 1750h70z" />
    <glyph glyph-name="bracketright" unicode="]" horiz-adv-x="580" 
d="M83 1360h343v-1583h-356v63h279v1457h-266v63z" />
    <glyph glyph-name="asciicircum" unicode="^" horiz-adv-x="749" 
d="M664 794h-75l-213 488h-4l-213 -488h-74l249 570h80z" />
    <glyph glyph-name="underscore" unicode="_" horiz-adv-x="851" 
d="M873 -193h-896v70h896v-70z" />
    <glyph glyph-name="grave" unicode="`" horiz-adv-x="805" 
d="M505 1209h-64l-255 293h90z" />
    <glyph glyph-name="a" unicode="a" horiz-adv-x="1015" 
d="M461 55q125 0 218 83t93 212v157h-315q-134 0 -201 -58t-67 -162q-1 -104 73 -168t199 -64zM104 286q0 137 90 215t261 78h317v151q0 126 -72 187t-201 61t-195 -54t-75 -127h-80q6 107 98 181t256 74q163 0 257 -80t94 -230v-742h-80v169h-4q-23 -57 -80 -103
q-106 -84 -253 -84t-240 84t-93 220z" />
    <glyph glyph-name="b" unicode="b" horiz-adv-x="1106" 
d="M576 56q144 0 238 98q92 98 92 285v158q0 179 -90 281t-240 101q-149 0 -237 -112t-88 -263v-170q1 -162 91 -270t234 -108zM249 199v-199h-79v1435h81v-599h4q55 150 216 199q56 17 122 17q175 0 285 -120t110 -321v-185q0 -216 -116 -330t-278 -114q-153 0 -234 70
t-107 147h-4z" />
    <glyph glyph-name="c" unicode="c" horiz-adv-x="1019" 
d="M120 443v156q0 211 112 332t294 121t281 -98q98 -98 105 -216h-80q-12 97 -92 169t-221 72q-141 -1 -229 -105t-89 -288v-136q0 -186 89 -289t245 -103q197 0 272 142q20 38 28 79h79q-10 -110 -104 -204q-94 -93 -282 -93t-298 121t-110 340z" />
    <glyph glyph-name="d" unicode="d" horiz-adv-x="1107" 
d="M527 978q-145 0 -237 -100t-91 -286v-153q-1 -177 89 -280t239 -103t239 110t89 271v158q1 167 -91 275t-237 108zM855 839v596h80v-1435h-78v202h-4q-14 -50 -52 -93q-39 -43 -75 -68q-86 -59 -213 -59q-177 0 -286 120t-109 321v188q0 208 113 325t298 117t287 -145
q24 -34 35 -69h4z" />
    <glyph glyph-name="e" unicode="e" horiz-adv-x="1046" 
d="M203 581h643v4q0 184 -87 289t-235 105t-234 -105q-87 -105 -87 -289v-4zM122 457v105q0 234 108 362t294 128q188 0 296 -128t107 -361v-53h-724v-53q0 -189 88 -295t233 -106t220 63t85 142h83q-10 -98 -102 -188q-92 -91 -281 -91q-191 0 -299 126t-108 349z" />
    <glyph glyph-name="f" unicode="f" horiz-adv-x="629" 
d="M219 0v964h-174v71h174v130q0 141 65 203t206 62q56 0 103 -10v-69q-35 7 -119 7t-128 -42q-46 -42 -46 -146v-135h281v-71h-281v-964h-81z" />
    <glyph glyph-name="g" unicode="g" horiz-adv-x="1094" 
d="M526 979q-144 0 -236 -99q-94 -99 -94 -283v-117q0 -175 92 -275t234 -100q102 -1 179 53q151 105 151 316v126q0 162 -91 270t-235 109zM534 -287q146 1 232 77t86 203v255h-4q-29 -92 -121 -155q-92 -62 -214 -62q-173 1 -285 119t-113 315v150q0 211 118 324t284 113
q165 0 263 -104q48 -50 70 -109h4v196h78v-1039q0 -165 -109 -261t-299 -96q-264 -1 -352 179q-24 48 -26 98h83q7 -79 83 -141t222 -62z" />
    <glyph glyph-name="h" unicode="h" horiz-adv-x="1114" 
d="M171 0v1435h80v-592h4q27 85 113 147t233 62q148 0 249 -102t101 -277v-673h-81v661q0 139 -77 227t-222 89t-233 -101t-87 -250v-626h-80z" />
    <glyph glyph-name="i" unicode="i" horiz-adv-x="458" 
d="M158 1322q0 30 20 52q20 20 51 20q30 0 51 -20t21 -52q0 -30 -21 -50t-51 -21q-31 1 -51 21t-20 50zM189 0v1035h80v-1035h-80z" />
    <glyph glyph-name="j" unicode="j" horiz-adv-x="458" 
d="M269 1035v-1104q-1 -143 -55 -207t-166 -63q-45 0 -75 8v71q33 -7 65 -7q81 1 116 45t35 151v1106h80zM158 1322q0 30 20 52q20 20 51 20q30 0 51 -20t21 -52q0 -30 -21 -50t-51 -21q-31 1 -51 21t-20 50z" />
    <glyph glyph-name="k" unicode="k" horiz-adv-x="994" 
d="M251 0h-80v1435h80v-915h5l554 529h102l-457 -442l475 -607h-101l-434 554l-144 -131v-423z" />
    <glyph glyph-name="l" unicode="l" horiz-adv-x="447" 
d="M183 0v1435h81v-1435h-81z" />
    <glyph glyph-name="m" unicode="m" horiz-adv-x="1665" 
d="M167 0v1035h80v-170h5q21 66 70 108q89 79 216 79q128 0 206 -60t102 -151h5q19 70 97 141q78 70 223 70q146 0 238 -90t92 -254v-708h-80v689q0 139 -72 213q-73 74 -199 75q-126 -1 -201 -89t-75 -212v-676h-80v682q0 141 -70 218t-199 77q-128 1 -203 -89t-75 -227
v-661h-80z" />
    <glyph glyph-name="n" unicode="n" horiz-adv-x="1101" 
d="M167 0v1035h80v-192h4q29 85 115 147t232 62t245 -98q100 -98 100 -270v-684h-81v664q0 141 -76 227t-221 86q-146 0 -232 -101t-86 -249v-627h-80z" />
    <glyph glyph-name="o" unicode="o" horiz-adv-x="1085" 
d="M542 979q-156 -1 -248 -107t-93 -295v-123q0 -188 92 -293t249 -105t249 104t92 294v123q-1 188 -93 295t-248 107zM541 1052q190 0 307 -124t117 -340v-145q-1 -217 -117 -339t-306 -122t-306 122t-116 339v145q0 218 116 341t305 123z" />
    <glyph glyph-name="p" unicode="p" horiz-adv-x="1103" 
d="M902 440v159q0 178 -90 279t-238 101q-146 1 -236 -109t-90 -265v-169q0 -162 92 -271t232 -109t235 95t95 289zM248 195v-531h-81v1371h79v-199h4q19 63 75 116q106 100 272 100q167 0 277 -119t110 -320v-190q0 -209 -114 -325t-297 -116t-285 144q-24 34 -36 69h-4z
" />
    <glyph glyph-name="q" unicode="q" horiz-adv-x="1087" 
d="M199 595v-160q1 -175 91 -277t240 -102t237 113t87 262v168q0 167 -92 273t-233 106q-142 0 -236 -96t-94 -287zM745 982q80 -70 107 -143h4v196h79v-1371h-81v533h-4q-32 -93 -123 -154q-90 -61 -215 -61q-174 0 -284 120t-110 319v192q0 211 116 325t273 114
q158 0 238 -70z" />
    <glyph glyph-name="r" unicode="r" horiz-adv-x="667" 
d="M171 0v1035h81v-191h4q19 76 90 142q70 65 206 65q36 0 85 -7v-78q-36 9 -92 9q-129 -1 -211 -87t-82 -249v-639h-81z" />
    <glyph glyph-name="s" unicode="s" horiz-adv-x="956" 
d="M129 772q0 132 97 206t250 74q255 0 331 -184q19 -46 19 -93h-79q0 67 -62 136q-62 70 -193 70t-206 -53q-75 -54 -75 -146q1 -92 67 -138t223 -85t196 -61q86 -45 118 -95t32 -135q0 -86 -53 -154q-102 -132 -326 -132q-270 0 -352 184q-22 48 -22 100h80q4 -75 72 -143
q68 -69 210 -69q143 0 226 56t83 152t-63 138q-63 41 -129 59q-65 18 -119 31t-102 29q-113 38 -168 96t-55 157z" />
    <glyph glyph-name="t" unicode="t" horiz-adv-x="664" 
d="M223 1035v252h81v-252h277v-71h-277v-733q0 -92 44 -128t128 -36q82 0 118 6v-68q-42 -7 -105 -7q-151 0 -209 54t-57 193v719h-194v71h194z" />
    <glyph glyph-name="u" unicode="u" horiz-adv-x="1100" 
d="M933 1035v-1035h-81v192h-4q-30 -86 -116 -148t-232 -62t-244 90q-99 90 -99 263v700h81v-685q0 -137 78 -215t218 -78q142 0 230 105t88 252v621h81z" />
    <glyph glyph-name="v" unicode="v" horiz-adv-x="923" 
d="M419 0l-382 1035h90l331 -938h5l336 938h87l-384 -1035h-83z" />
    <glyph glyph-name="w" unicode="w" horiz-adv-x="1400" 
d="M1361 1035l-284 -1035h-82l-292 919h-4l-290 -919h-83l-288 1035h91l237 -919h5l289 919h82l290 -919h6l238 919h85z" />
    <glyph glyph-name="x" unicode="x" horiz-adv-x="967" 
d="M796 0l-312 454h-5l-314 -454h-92l363 520l-356 515h97l304 -445h5l307 445h93l-357 -510l364 -525h-97z" />
    <glyph glyph-name="y" unicode="y" horiz-adv-x="921" 
d="M196 -341q-47 0 -94 9v73q40 -9 104 -9q126 0 183 159l34 96l-387 1048h89l337 -951h5l332 951h86l-416 -1152q-44 -115 -104 -169t-169 -55z" />
    <glyph glyph-name="z" unicode="z" horiz-adv-x="968" 
d="M126 0v62l623 898v5h-624v70h725v-65l-623 -895v-5h624v-70h-725z" />
    <glyph glyph-name="braceleft" unicode="{" horiz-adv-x="676" 
d="M338 371v-377q0 -110 59 -162t178 -51h61v-71h-36q-176 0 -258 66t-82 238v319q0 111 -34 157t-131 47v115q97 0 131 48t34 158v270q0 174 85 234t255 60h36v-70h-61q-123 0 -180 -51t-57 -162v-318q0 -104 -38 -156t-120 -60v-19q82 -7 120 -59t38 -156z" />
    <glyph glyph-name="bar" unicode="|" horiz-adv-x="420" 
d="M244 -308h-68v1743h68v-1743z" />
    <glyph glyph-name="braceright" unicode="}" horiz-adv-x="676" 
d="M338 821v318q0 111 -57 162t-180 51h-61v70h36q171 0 255 -60q85 -60 85 -234v-270q0 -110 34 -158t131 -48v-115q-97 0 -131 -47t-34 -157v-319q0 -172 -82 -238t-258 -66h-36v71h61q119 -1 178 51t59 162v377q0 103 38 155t120 60v19q-82 8 -120 60t-38 156z" />
    <glyph glyph-name="asciitilde" unicode="~" horiz-adv-x="1124" 
d="M754 516q-56 0 -106 30t-107 84q-57 53 -76 69q-56 47 -121 47q-66 0 -106 -56t-43 -152h-76q1 124 63 204t171 79q60 0 109 -29q49 -28 102 -78t76 -69q64 -53 123 -53t97 36q68 63 73 183h77q0 -138 -86 -228q-64 -67 -170 -67z" />
    <glyph glyph-name="nonbreakingspace" unicode="&#xa0;" horiz-adv-x="422" 
 />
    <glyph glyph-name="exclamdown" unicode="&#xa1;" horiz-adv-x="487" 
d="M321 978q-1 -32 -23 -56q-22 -23 -54 -23t-56 23q-23 24 -23 56t23 54q24 22 56 22t54 -22t23 -54zM286 -320h-86l7 987h71z" />
    <glyph glyph-name="cent" unicode="&#xa2;" horiz-adv-x="1048" 
d="M571 -91h-74v235q-175 12 -275 129t-100 322v171q0 200 103 316t272 128v244h74v-243q161 -10 249 -107q88 -96 94 -205h-79q-14 95 -91 167t-219 72t-232 -102t-90 -283v-151q0 -184 90 -284t248 -100q195 0 269 142q19 36 28 78h78q-10 -104 -94 -195t-251 -99v-235z
" />
    <glyph glyph-name="sterling" unicode="&#xa3;" horiz-adv-x="1048" 
d="M962 74v-74h-884v77q92 0 120 18q56 36 78 92t22 157v324h-243v72h243v335q0 153 90 235t242 81t242 -83t97 -197h-80q-5 81 -72 143t-188 63t-185 -65t-64 -185v-327h329v-72h-329v-331q0 -210 -94 -253v-10h676z" />
    <glyph glyph-name="currency" unicode="&#xa4;" horiz-adv-x="1048" 
d="M259 657q0 -111 77 -189t188 -78q110 0 188 78t78 189t-78 189t-188 78q-111 0 -188 -78t-77 -189zM524 321q-118 0 -209 75l-188 -189l-51 51l188 188q-73 90 -73 210t72 209l-187 187l51 51l186 -187q92 76 211 76t210 -75l186 186l51 -51l-186 -186q73 -89 73 -210
t-74 -211l187 -187l-51 -51l-187 188q-91 -74 -209 -74z" />
    <glyph glyph-name="yen" unicode="&#xa5;" horiz-adv-x="1048" 
d="M832 334h-269v-334h-81v334h-269v68h269v186h-269v68h239l-440 704h96l411 -668h7l413 668h93l-439 -704h239v-68h-269v-186h269v-68z" />
    <glyph glyph-name="brokenbar" unicode="&#xa6;" horiz-adv-x="373" 
d="M229 -309h-75v685h75v-685zM229 783h-75v654h75v-654z" />
    <glyph glyph-name="section" unicode="&#xa7;" horiz-adv-x="1013" 
d="M796 562q0 145 -204 201q-143 36 -181 51q-67 -14 -131 -76t-63 -148q0 -86 58 -132q58 -47 185 -80q4 -1 92 -24t93 -24q57 28 104 88t47 144zM808 58q0 96 -74 146t-195 78q-119 28 -165 43q-121 37 -179 96t-58 163q-1 140 131 224q30 20 63 32v5q-95 48 -134 108
q-39 61 -39 146q0 130 98 211t250 81t247 -81q94 -81 94 -216h-79q-1 102 -78 162q-78 60 -194 60t-186 -62t-70 -161q0 -98 79 -148q79 -51 183 -79t144 -40q116 -37 174 -96t58 -154q0 -96 -48 -164t-113 -105v-5q173 -72 173 -232q0 -138 -107 -230t-280 -93t-275 83
t-101 224h77q4 -105 84 -169t218 -64q138 1 220 71t82 166z" />
    <glyph glyph-name="dieresis" unicode="&#xa8;" horiz-adv-x="805" 
d="M475 1309q0 28 20 48t48 20q28 1 48 -19t20 -49t-20 -49t-48 -20t-48 20t-20 49zM185 1309q0 28 20 48q19 20 47 20q28 1 48 -19t20 -49t-20 -49t-48 -20t-47 20q-20 20 -20 49z" />
    <glyph glyph-name="copyright" unicode="&#xa9;" horiz-adv-x="1650" 
d="M804 -59q-182 0 -343 91q-162 91 -250 250t-88 358v105q0 141 53 265t145 214q93 90 225 144q132 53 284 53q152 1 285 -53t225 -145t145 -215t53 -263v-105q0 -149 -52 -278t-142 -222q-92 -93 -225 -146t-315 -53zM195 636q0 -178 79 -321q78 -143 224 -225t332 -82
t333 82q146 82 225 225t79 321v109q0 123 -47 235q-48 112 -130 194t-202 132q-120 48 -281 48t-307 -82t-226 -222q-80 -139 -79 -305v-109zM531 637v99q0 154 81 235q82 81 214 81t202 -62t80 -140h-78q-11 53 -58 93t-136 40q-231 0 -231 -252v-96q0 -123 61 -185
q60 -62 160 -62q184 0 209 120h78q-11 -78 -84 -134t-205 -57q-132 0 -212 81t-81 239z" />
    <glyph glyph-name="ordfeminine" unicode="&#xaa;" horiz-adv-x="610" 
d="M289 1046q-125 0 -125 -101q0 -48 36 -76t94 -28t102 38t44 96v71h-151zM439 872q-47 -90 -173 -90q-72 0 -122 44q-48 44 -48 118t50 116q50 41 140 41h154v65q0 115 -131 115q-57 1 -87 -21t-38 -54h-66q4 62 56 98t140 37q88 -1 140 -43q54 -42 54 -129v-378h-66v81
h-3z" />
    <glyph glyph-name="guillemotleft" unicode="&#xab;" horiz-adv-x="1185" 
d="M124 565l367 404h100l-361 -403v-6l361 -405h-109l-358 402v8zM531 565l366 404h100l-361 -403v-6l361 -405h-109l-357 402v8z" />
    <glyph glyph-name="logicalnot" unicode="&#xac;" horiz-adv-x="1048" 
d="M929 156h-77v357h-744v72h821v-429z" />
    <glyph glyph-name="registered" unicode="&#xae;" horiz-adv-x="1168" 
d="M477 653h-59v518h197q73 0 119 -43q46 -44 45 -106q0 -122 -106 -152q9 -14 27 -46l44 -82q28 -50 51 -89h-67l-116 208h-135v-208zM477 1120v-207h123q54 1 86 27t33 76q0 50 -31 76q-31 28 -85 28h-126zM586 477q184 0 301 114q116 114 116 290v59q0 166 -117 278
t-298 112q-180 0 -298 -113t-118 -277v-59q0 -177 115 -291t299 -113zM588 418q-210 0 -344 132t-134 335v50q0 192 136 322t341 130q205 -1 341 -131t136 -321v-50q0 -203 -133 -335t-343 -132z" />
    <glyph glyph-name="macron" unicode="&#xaf;" horiz-adv-x="805" 
d="M682 1294h-554v58h554v-58z" />
    <glyph glyph-name="degree" unicode="&#xb0;" horiz-adv-x="476" 
d="M237 1059q51 1 87 37t37 88q-1 52 -37 88t-87 36t-88 -36t-37 -88q0 -51 37 -88t88 -37zM236 997q-78 1 -132 55t-54 131t54 131t132 55q76 -1 130 -55t55 -131q0 -77 -54 -131t-131 -55z" />
    <glyph glyph-name="plusminus" unicode="&#xb1;" horiz-adv-x="1085" 
d="M990 151h-894v75h894v-75zM577 690v-324h-71v324h-411v75h411v305h71v-305h411v-75h-411z" />
    <glyph glyph-name="twosuperior" unicode="&#xb2;" horiz-adv-x="647" 
d="M173 1198h-68v4q0 76 53 130t149 55q96 0 152 -51t56 -114t-26 -107t-82 -103l-208 -217v-3h328v-60h-421v46l258 277q80 83 80 143t-37 94t-101 34t-98 -36q-35 -36 -35 -88v-4z" />
    <glyph glyph-name="threesuperior" unicode="&#xb3;" horiz-adv-x="623" 
d="M225 1035v58h65q64 1 102 35t38 85t-37 83t-97 32t-98 -30q-36 -30 -38 -69h-65q1 62 55 110t146 48t147 -47q56 -47 56 -112q0 -66 -40 -108t-91 -51v-2q62 -8 108 -48t46 -116q0 -77 -64 -129t-161 -52t-155 47t-60 115h64q3 -44 45 -74q41 -30 109 -30t111 36t43 92
t-44 92q-44 35 -114 35h-71z" />
    <glyph glyph-name="acute" unicode="&#xb4;" horiz-adv-x="805" 
d="M308 1209h-65l230 293h90z" />
    <glyph glyph-name="paragraph" unicode="&#xb6;" horiz-adv-x="1160" 
d="M868 -210v1575h81v-1575h-81zM695 -210h-82v747h-20q-111 1 -194 43q-84 42 -131 87t-78 119t-31 167q0 95 31 171q54 134 186 194q102 48 218 47h101v-1575z" />
    <glyph glyph-name="periodcentered" unicode="&#xb7;" horiz-adv-x="461" 
d="M146 682q0 32 22 54t54 23q32 -1 55 -23t23 -54t-23 -54t-55 -22t-54 22t-22 54z" />
    <glyph glyph-name="cedilla" unicode="&#xb8;" horiz-adv-x="805" 
d="M307 -198v48l65 152h67l-58 -141q88 0 147 -38q59 -39 59 -119t-66 -124q-65 -44 -147 -44q-82 -1 -136 15v63q46 -15 114 -15t113 26t45 78q0 99 -153 99h-50z" />
    <glyph glyph-name="onesuperior" unicode="&#xb9;" horiz-adv-x="523" 
d="M353 732h-69v554h-3l-163 -110v68l166 116h69v-628z" />
    <glyph glyph-name="ordmasculine" unicode="&#xba;" horiz-adv-x="596" 
d="M298 1341q100 1 165 -63t65 -175v-82q0 -113 -64 -176t-166 -63t-166 63t-64 176v82q0 110 64 174q66 64 166 64zM298 1282q-72 0 -117 -50t-45 -136v-69q0 -86 44 -135t118 -49q74 1 118 49t43 135v69q-1 86 -45 136t-116 50z" />
    <glyph glyph-name="guillemotright" unicode="&#xbb;" horiz-adv-x="1175" 
d="M601 565v-8l-358 -402h-109l361 405v6l-361 403h100zM1007 565v-8l-358 -402h-108l360 405v6l-360 403h99z" />
    <glyph glyph-name="onequarter" unicode="&#xbc;" horiz-adv-x="1366" 
d="M144 0h-83l1028 1360h83zM245 732h-69v554h-3l-163 -110v68l166 116h69v-628zM1145 652v-451h93v-58h-93v-143h-64v143h-334v57q21 36 298 452h100zM819 201h262v392h-4q-180 -261 -258 -389v-3z" />
    <glyph glyph-name="onehalf" unicode="&#xbd;" horiz-adv-x="1411" 
d="M144 0h-83l1028 1360h83zM245 732h-69v554h-3l-163 -110v68l166 116h69v-628zM935 463h-68v4q-1 77 53 131t150 54t152 -51t57 -114q-1 -63 -27 -107t-82 -104l-209 -218v-3h330v-61h-423v47l259 278q80 84 80 144t-37 94q-36 34 -100 34t-100 -36t-35 -88v-4z" />
    <glyph glyph-name="threequarters" unicode="&#xbe;" horiz-adv-x="1352" 
d="M201 0h-83l1028 1360h83zM136 1030v58h65q63 0 102 34t39 86t-38 84t-98 32t-96 -30t-39 -70h-66q2 63 56 111t146 48t148 -47q56 -46 56 -112t-40 -108t-92 -52v-2q63 -8 109 -48t46 -116t-64 -130q-64 -52 -162 -52t-156 47t-60 115h65q3 -44 45 -74t110 -30t110 36
q44 36 44 92t-44 92t-115 36h-71zM1244 652v-451h93v-58h-93v-143h-65v143h-334v57q30 53 158 244q129 191 141 208h100zM918 201h261v392h-3q-172 -244 -258 -388v-4z" />
    <glyph glyph-name="questiondown" unicode="&#xbf;" horiz-adv-x="879" 
d="M441 -356q-167 0 -273 84t-106 233q0 103 52 179t150 150t128 131q30 56 31 133v88h82v-99q0 -90 -41 -157q-41 -66 -124 -130q-82 -64 -118 -102q-76 -81 -76 -195q0 -115 84 -179t207 -64q79 0 140 26t93 66q64 81 69 168h78q-6 -146 -107 -239t-269 -93zM538 973
q0 -33 -22 -55t-54 -23q-32 0 -56 23q-23 24 -23 56t23 54q24 22 56 22t54 -22t22 -55z" />
    <glyph glyph-name="Agrave" unicode="&#xc0;" horiz-adv-x="1149" 
d="M674 1514h-88l-316 237h105zM576 1259h-5l-258 -731h519zM129 0h-85l488 1360h85l488 -1360h-88l-160 458h-567z" />
    <glyph glyph-name="Aacute" unicode="&#xc1;" horiz-adv-x="1149" 
d="M471 1512l299 237h104l-316 -237h-87zM576 1259h-5l-258 -731h519zM129 0h-85l488 1360h85l488 -1360h-88l-160 458h-567z" />
    <glyph glyph-name="Acircumflex" unicode="&#xc2;" horiz-adv-x="1149" 
d="M283 1502l277 212h42l272 -212h-94l-197 153h-5l-198 -153h-97zM576 1259h-5l-258 -731h519zM129 0h-85l488 1360h85l488 -1360h-88l-160 458h-567z" />
    <glyph glyph-name="Atilde" unicode="&#xc3;" horiz-adv-x="1149" 
d="M438 1636q-88 0 -88 -129h-58q0 87 38 136t96 49q56 0 88 -20t65 -60t54 -54t57 -14t65 38q28 38 29 99h58q0 -81 -44 -135t-102 -55q-58 0 -90 17q-30 17 -64 55q-28 37 -51 55t-53 18zM576 1259h-5l-258 -731h519zM129 0h-85l488 1360h85l488 -1360h-88l-160 458h-567z
" />
    <glyph glyph-name="Adieresis" unicode="&#xc4;" horiz-adv-x="1149" 
d="M670 1572q0 24 17 40q17 17 41 17t40 -17q16 -16 17 -40q-1 -24 -17 -42t-40 -18t-41 18t-17 42zM381 1572q0 24 17 40q18 17 42 17t40 -17q16 -16 17 -40q-1 -24 -17 -42t-40 -18t-42 18q-17 18 -17 42zM576 1259h-5l-258 -731h519zM129 0h-85l488 1360h85l488 -1360
h-88l-160 458h-567z" />
    <glyph glyph-name="Aring" unicode="&#xc5;" horiz-adv-x="1150" 
d="M401 1500q1 64 51 114t122 50t122 -50t49 -114t-33 -109t-84 -62l477 -1329h-88l-160 458h-567l-160 -458h-86l477 1329q-53 15 -87 61t-33 110zM833 528l-256 731h-6l-257 -731h519zM457 1494q-1 -48 35 -84q36 -35 84 -35t82 35q34 36 35 84q-1 48 -35 83t-82 35
t-84 -35q-35 -35 -35 -83z" />
    <glyph glyph-name="AE" unicode="&#xc6;" horiz-adv-x="1823" 
d="M942 486h-543l-290 -486h-89l809 1360h886v-76h-691v-550h657v-75h-657v-584h691v-75h-773v486zM942 556v728h-68l-434 -728h502z" />
    <glyph glyph-name="Ccedilla" unicode="&#xc7;" horiz-adv-x="1245" 
d="M612 -409q68 0 113 26t45 78q0 100 -152 100h-51v48l55 127q-250 8 -368 174q-119 166 -119 419v231q0 259 128 428t382 169q113 0 205 -38t149 -99q117 -127 117 -278v-3h-80q0 123 -100 229q-108 114 -298 114q-98 0 -182 -40q-82 -40 -134 -110q-104 -143 -105 -363
v-248q0 -220 106 -365q106 -146 327 -146q178 0 286 98t109 239h80v-3q1 -102 -49 -190t-151 -149t-236 -69l-48 -117q88 0 147 -38q59 -39 59 -119t-66 -123t-147 -45t-135 16v63q45 -16 113 -16z" />
    <glyph glyph-name="Egrave" unicode="&#xc8;" horiz-adv-x="1073" 
d="M966 75v-75h-776v1360h776v-76h-694v-550h660v-75h-660v-584h694zM675 1514h-88l-316 237h105z" />
    <glyph glyph-name="Eacute" unicode="&#xc9;" horiz-adv-x="1073" 
d="M966 75v-75h-776v1360h776v-76h-694v-550h660v-75h-660v-584h694zM472 1512l299 237h104l-316 -237h-87z" />
    <glyph glyph-name="Ecircumflex" unicode="&#xca;" horiz-adv-x="1073" 
d="M966 75v-75h-776v1360h776v-76h-694v-550h660v-75h-660v-584h694zM284 1502l277 212h42l272 -212h-94l-197 153h-5l-198 -153h-97z" />
    <glyph glyph-name="Edieresis" unicode="&#xcb;" horiz-adv-x="1073" 
d="M966 75v-75h-776v1360h776v-76h-694v-550h660v-75h-660v-584h694zM670 1572q0 24 17 40q17 17 41 17t40 -17q16 -16 17 -40q-1 -24 -17 -42t-40 -18t-41 18t-17 42zM381 1572q0 24 17 40q18 17 42 17t40 -17q16 -16 17 -40q-1 -24 -17 -42t-40 -18t-42 18q-17 18 -17 42z
" />
    <glyph glyph-name="Igrave" unicode="&#xcc;" horiz-adv-x="493" 
d="M345 1514h-88l-316 237h105zM287 0h-81v1360h81v-1360z" />
    <glyph glyph-name="Iacute" unicode="&#xcd;" horiz-adv-x="493" 
d="M142 1512l299 237h104l-316 -237h-87zM287 0h-81v1360h81v-1360z" />
    <glyph glyph-name="Icircumflex" unicode="&#xce;" horiz-adv-x="493" 
d="M-46 1502l277 212h42l272 -212h-94l-197 153h-5l-198 -153h-97zM287 0h-81v1360h81v-1360z" />
    <glyph glyph-name="Idieresis" unicode="&#xcf;" horiz-adv-x="493" 
d="M341 1572q0 24 17 40q17 17 41 17q25 0 41 -17q16 -16 16 -40t-16 -42t-41 -18q-24 0 -41 18t-17 42zM52 1572q0 24 17 40q17 17 41 17t42 -17q16 -16 16 -40t-16 -42t-42 -18q-24 0 -41 18t-17 42zM287 0h-81v1360h81v-1360z" />
    <glyph glyph-name="Eth" unicode="&#xd0;" horiz-adv-x="1353" 
d="M331 75h283q270 1 398 159t128 443t-127 446q-127 162 -399 162h-283v-551h360v-74h-360v-585zM249 0v660h-159v74h159v626h365q460 0 574 -402q34 -122 35 -262q-1 -140 -21 -242q-43 -215 -186 -335q-144 -119 -402 -119h-365z" />
    <glyph glyph-name="Ntilde" unicode="&#xd1;" horiz-adv-x="1334" 
d="M272 0h-82v1360h85l782 -1216h4v1216h82v-1360h-84l-783 1216h-4v-1216zM530 1636q-88 0 -88 -129h-58q0 87 38 136t96 49q56 0 88 -20t65 -60t54 -54t57 -14t65 38q28 38 29 99h58q0 -81 -44 -135t-102 -55q-58 0 -90 17q-30 17 -64 55q-28 37 -51 55t-53 18z" />
    <glyph glyph-name="Ograve" unicode="&#xd2;" horiz-adv-x="1309" 
d="M135 556v244q0 271 138 431t382 160q243 -1 381 -161t138 -432v-242q0 -271 -138 -429t-382 -158q-245 0 -382 158t-137 429zM216 806v-256q0 -230 118 -368t320 -138t321 138q118 138 118 368v256q0 230 -119 370t-320 140q-202 0 -320 -140t-118 -370zM753 1514h-88
l-316 237h105z" />
    <glyph glyph-name="Oacute" unicode="&#xd3;" horiz-adv-x="1309" 
d="M135 556v244q0 271 138 431t382 160q243 -1 381 -161t138 -432v-242q0 -271 -138 -429t-382 -158q-245 0 -382 158t-137 429zM216 806v-256q0 -230 118 -368t320 -138t321 138q118 138 118 368v256q0 230 -119 370t-320 140q-202 0 -320 -140t-118 -370zM550 1512
l299 237h104l-316 -237h-87z" />
    <glyph glyph-name="Ocircumflex" unicode="&#xd4;" horiz-adv-x="1309" 
d="M135 556v244q0 271 138 431t382 160q243 -1 381 -161t138 -432v-242q0 -271 -138 -429t-382 -158q-245 0 -382 158t-137 429zM216 806v-256q0 -230 118 -368t320 -138t321 138q118 138 118 368v256q0 230 -119 370t-320 140q-202 0 -320 -140t-118 -370zM362 1502
l277 212h42l272 -212h-94l-197 153h-5l-198 -153h-97z" />
    <glyph glyph-name="Otilde" unicode="&#xd5;" horiz-adv-x="1309" 
d="M517 1636q-88 0 -88 -129h-58q1 87 39 136t95 49t89 -20t64 -60q33 -40 54 -54q22 -14 58 -14t64 38t29 99h58q0 -81 -44 -135q-45 -54 -103 -55q-58 0 -88 17t-65 55q-28 37 -51 55t-53 18zM135 556v244q0 271 138 431t382 160q243 -1 381 -161t138 -432v-242
q0 -271 -138 -429t-382 -158q-245 0 -382 158t-137 429zM216 806v-256q0 -230 118 -368t320 -138t321 138q118 138 118 368v256q0 230 -119 370t-320 140q-202 0 -320 -140t-118 -370z" />
    <glyph glyph-name="Odieresis" unicode="&#xd6;" horiz-adv-x="1309" 
d="M135 556v244q0 271 138 431t382 160q243 -1 381 -161t138 -432v-242q0 -271 -138 -429t-382 -158q-245 0 -382 158t-137 429zM216 806v-256q0 -230 118 -368t320 -138t321 138q118 138 118 368v256q0 230 -119 370t-320 140q-202 0 -320 -140t-118 -370zM749 1572
q0 24 17 40q17 17 41 17q25 0 41 -17q16 -16 16 -40t-16 -42t-41 -18q-24 0 -41 18t-17 42zM460 1572q0 24 17 40q17 17 41 17t42 -17q16 -16 16 -40t-16 -42t-42 -18q-24 0 -41 18t-17 42z" />
    <glyph glyph-name="multiply" unicode="&#xd7;" horiz-adv-x="1048" 
d="M849 108l-324 326l-326 -326l-51 51l326 325l-326 326l51 51l326 -326l325 326l50 -51l-325 -326l325 -325z" />
    <glyph glyph-name="Oslash" unicode="&#xd8;" horiz-adv-x="1309" 
d="M654 44q204 0 322 137t117 369v256q0 161 -60 281l-732 -862q119 -181 353 -181zM216 550q0 -150 52 -265l731 860q-120 171 -333 171q-214 0 -332 -139t-118 -371v-256zM642 -31q-258 0 -395 192l-112 -133l-50 41l126 147q-76 141 -76 341v242q-1 272 137 432t390 160
t391 -181l118 139l52 -36l-133 -157q84 -147 84 -357v-242q0 -271 -138 -429q-136 -158 -394 -159z" />
    <glyph glyph-name="Ugrave" unicode="&#xd9;" horiz-adv-x="1310" 
d="M250 1360v-891q0 -195 106 -309t300 -114q192 0 298 114t105 309v891h83v-891q0 -229 -130 -365t-357 -135q-227 0 -357 136t-130 365v890h82zM754 1514h-88l-316 237h105z" />
    <glyph glyph-name="Uacute" unicode="&#xda;" horiz-adv-x="1310" 
d="M250 1360v-891q0 -195 106 -309t300 -114q192 0 298 114t105 309v891h83v-891q0 -229 -130 -365t-357 -135q-227 0 -357 136t-130 365v890h82zM551 1512l299 237h104l-316 -237h-87z" />
    <glyph glyph-name="Ucircumflex" unicode="&#xdb;" horiz-adv-x="1310" 
d="M250 1360v-891q0 -195 106 -309t300 -114q192 0 298 114t105 309v891h83v-891q0 -229 -130 -365t-357 -135q-227 0 -357 136t-130 365v890h82zM363 1502l277 212h42l272 -212h-94l-197 153h-5l-198 -153h-97z" />
    <glyph glyph-name="Udieresis" unicode="&#xdc;" horiz-adv-x="1310" 
d="M250 1360v-891q0 -195 106 -309t300 -114q192 0 298 114t105 309v891h83v-891q0 -229 -130 -365t-357 -135q-227 0 -357 136t-130 365v890h82zM749 1572q0 24 17 40q17 17 41 17q25 0 41 -17q16 -16 16 -40t-16 -42t-41 -18q-24 0 -41 18t-17 42zM460 1572q0 24 17 40
q17 17 41 17t42 -17q16 -16 16 -40t-16 -42t-42 -18q-24 0 -41 18t-17 42z" />
    <glyph glyph-name="Yacute" unicode="&#xdd;" horiz-adv-x="1060" 
d="M426 1512l299 237h104l-316 -237h-87zM571 0h-81v607l-470 753h96l411 -668h6l413 668h94l-469 -751v-609z" />
    <glyph glyph-name="Thorn" unicode="&#xde;" horiz-adv-x="1131" 
d="M272 1020v-585h323q171 0 262 69t91 224q0 292 -342 292h-334zM190 1360h82v-265h337q195 0 309 -94t114 -273t-114 -273t-309 -94h-337v-361h-82v1360z" />
    <glyph glyph-name="germandbls" unicode="&#xdf;" horiz-adv-x="1149" 
d="M266 0h-82v1069q0 167 96 261t276 95t280 -91t100 -232t-80 -234t-175 -113v-5q140 -4 254 -92q125 -97 125 -278q0 -92 -40 -171t-106 -127q-134 -99 -302 -100q-92 0 -170 16v76q68 -18 154 -18t148 21t115 60q51 39 83 103t32 141q0 145 -113 233t-304 88h-93v84h85
q123 0 213 90t90 214t-82 192t-219 68t-211 -75t-74 -210v-1065z" />
    <glyph glyph-name="agrave" unicode="&#xe0;" horiz-adv-x="1015" 
d="M603 1211h-64l-255 293h90zM461 55q125 0 218 83t93 212v157h-315q-134 0 -201 -58t-67 -162q-1 -104 73 -168t199 -64zM104 286q0 137 90 215t261 78h317v151q0 126 -72 187t-201 61t-195 -54t-75 -127h-80q6 107 98 181t256 74q163 0 257 -80t94 -230v-742h-80v169h-4
q-23 -57 -80 -103q-106 -84 -253 -84t-240 84t-93 220z" />
    <glyph glyph-name="aacute" unicode="&#xe1;" horiz-adv-x="1015" 
d="M518 1211h-65l230 293h90zM461 55q125 0 218 83t93 212v157h-315q-134 0 -201 -58t-67 -162q-1 -104 73 -168t199 -64zM104 286q0 137 90 215t261 78h317v151q0 126 -72 187t-201 61t-195 -54t-75 -127h-80q6 107 98 181t256 74q163 0 257 -80t94 -230v-742h-80v169h-4
q-23 -57 -80 -103q-106 -84 -253 -84t-240 84t-93 220z" />
    <glyph glyph-name="acircumflex" unicode="&#xe2;" horiz-adv-x="1015" 
d="M247 1232l231 325h64l224 -325h-75l-180 270h-4l-186 -270h-74zM461 55q125 0 218 83t93 212v157h-315q-134 0 -201 -58t-67 -162q-1 -104 73 -168t199 -64zM104 286q0 137 90 215t261 78h317v151q0 126 -72 187t-201 61t-195 -54t-75 -127h-80q6 107 98 181t256 74
q163 0 257 -80t94 -230v-742h-80v169h-4q-23 -57 -80 -103q-106 -84 -253 -84t-240 84t-93 220z" />
    <glyph glyph-name="atilde" unicode="&#xe3;" horiz-adv-x="1015" 
d="M351 1364q-99 0 -99 -147h-65q0 100 43 155q44 55 108 55q64 -1 100 -23t71 -67q36 -45 61 -61q24 -16 66 -15q42 -1 74 43t32 112h64q0 -92 -49 -154t-115 -62t-102 20t-68 60q-34 42 -61 63t-60 21zM461 55q125 0 218 83t93 212v157h-315q-134 0 -201 -58t-67 -162
q-1 -104 73 -168t199 -64zM104 286q0 137 90 215t261 78h317v151q0 126 -72 187t-201 61t-195 -54t-75 -127h-80q6 107 98 181t256 74q163 0 257 -80t94 -230v-742h-80v169h-4q-23 -57 -80 -103q-106 -84 -253 -84t-240 84t-93 220z" />
    <glyph glyph-name="adieresis" unicode="&#xe4;" horiz-adv-x="1015" 
d="M586 1292q0 28 20 48t48 20t48 -20t20 -48q0 -29 -20 -49t-48 -20q-28 1 -48 21t-20 48zM296 1292q0 28 20 48t48 20t48 -20t19 -48q0 -28 -20 -49q-19 -20 -47 -20q-28 1 -48 21t-20 48zM461 55q125 0 218 83t93 212v157h-315q-134 0 -201 -58t-67 -162q-1 -104 73 -168
t199 -64zM104 286q0 137 90 215t261 78h317v151q0 126 -72 187t-201 61t-195 -54t-75 -127h-80q6 107 98 181t256 74q163 0 257 -80t94 -230v-742h-80v169h-4q-23 -57 -80 -103q-106 -84 -253 -84t-240 84t-93 220z" />
    <glyph glyph-name="aring" unicode="&#xe5;" horiz-adv-x="1015" 
d="M389 1358q0 -48 35 -84q36 -35 84 -35t82 35q34 36 35 84q-1 48 -35 82t-82 35q-48 -1 -84 -35q-35 -34 -35 -82zM506 1185q-72 0 -122 50t-51 122q1 72 51 121t122 49t122 -49t50 -121t-50 -122t-122 -50zM461 55q125 0 218 83t93 212v157h-315q-134 0 -201 -58
t-67 -162q-1 -104 73 -168t199 -64zM104 286q0 137 90 215t261 78h317v151q0 126 -72 187t-201 61t-195 -54t-75 -127h-80q6 107 98 181t256 74q163 0 257 -80t94 -230v-742h-80v169h-4q-23 -57 -80 -103q-106 -84 -253 -84t-240 84t-93 220z" />
    <glyph glyph-name="ae" unicode="&#xe6;" horiz-adv-x="1697" 
d="M462 55q124 0 218 83t93 212v159h-315q-135 0 -204 -59t-69 -162t76 -168q77 -65 201 -65zM1176 979q-146 0 -234 -104t-88 -285v-13h637v10q0 185 -84 289q-85 104 -231 103zM1188 -18q-149 0 -247 72t-125 190h-7q-24 -110 -121 -186t-248 -76q-152 0 -244 84t-92 224
t92 216t261 75h316v146q-1 123 -81 187t-200 64t-186 -52t-78 -117h-80q8 103 101 173t252 70t257 -93q51 -48 71 -114h6q41 101 133 154t208 53q182 0 289 -124t107 -356v-63h-718v-66q0 -183 90 -285t232 -102t219 61q78 61 90 136h83q-12 -95 -100 -177q-44 -42 -118 -68
t-162 -26z" />
    <glyph glyph-name="ccedilla" unicode="&#xe7;" horiz-adv-x="1019" 
d="M490 -396q70 0 115 26t45 78q0 99 -150 99h-51v48l57 128q-180 8 -283 128t-103 332v156q0 211 112 332t294 121t281 -98q98 -98 105 -216h-80q-12 97 -92 169t-221 72q-141 -1 -229 -105t-89 -288v-136q0 -186 89 -289t245 -103q197 0 272 142q20 38 28 79h79
q-8 -102 -91 -192q-83 -91 -249 -103l-51 -118q88 0 146 -38t58 -118t-66 -124q-67 -44 -151 -45t-132 16v62q42 -15 112 -15z" />
    <glyph glyph-name="egrave" unicode="&#xe8;" horiz-adv-x="1046" 
d="M203 581h643v4q0 184 -87 289t-235 105t-234 -105q-87 -105 -87 -289v-4zM122 457v105q0 234 108 362t294 128q188 0 296 -128t107 -361v-53h-724v-53q0 -189 88 -295t233 -106t220 63t85 142h83q-10 -98 -102 -188q-92 -91 -281 -91q-191 0 -299 126t-108 349zM619 1211
h-64l-255 293h90z" />
    <glyph glyph-name="eacute" unicode="&#xe9;" horiz-adv-x="1046" 
d="M203 581h643v4q0 184 -87 289t-235 105t-234 -105q-87 -105 -87 -289v-4zM122 457v105q0 234 108 362t294 128q188 0 296 -128t107 -361v-53h-724v-53q0 -189 88 -295t233 -106t220 63t85 142h83q-10 -98 -102 -188q-92 -91 -281 -91q-191 0 -299 126t-108 349zM534 1211
h-65l230 293h90z" />
    <glyph glyph-name="ecircumflex" unicode="&#xea;" horiz-adv-x="1046" 
d="M203 581h643v4q0 184 -87 289t-235 105t-234 -105q-87 -105 -87 -289v-4zM122 457v105q0 234 108 362t294 128q188 0 296 -128t107 -361v-53h-724v-53q0 -189 88 -295t233 -106t220 63t85 142h83q-10 -98 -102 -188q-92 -91 -281 -91q-191 0 -299 126t-108 349zM263 1232
l231 325h64l224 -325h-75l-180 270h-4l-186 -270h-74z" />
    <glyph glyph-name="edieresis" unicode="&#xeb;" horiz-adv-x="1046" 
d="M602 1292q0 28 20 48t48 20t48 -20t20 -48q0 -29 -20 -49t-48 -20q-28 1 -48 21t-20 48zM312 1292q0 28 20 48t48 20t48 -20t19 -48q0 -28 -20 -49q-19 -20 -47 -20q-28 1 -48 21t-20 48zM203 581h643v4q0 184 -87 289t-235 105t-234 -105q-87 -105 -87 -289v-4zM122 457
v105q0 234 108 362t294 128q188 0 296 -128t107 -361v-53h-724v-53q0 -189 88 -295t233 -106t220 63t85 142h83q-10 -98 -102 -188q-92 -91 -281 -91q-191 0 -299 126t-108 349z" />
    <glyph glyph-name="igrave" unicode="&#xec;" horiz-adv-x="425" 
d="M172 0v1035h80v-1035h-80zM308 1211h-64l-255 293h90z" />
    <glyph glyph-name="iacute" unicode="&#xed;" horiz-adv-x="425" 
d="M172 0v1035h80v-1035h-80zM223 1211h-65l230 293h90z" />
    <glyph glyph-name="icircumflex" unicode="&#xee;" horiz-adv-x="425" 
d="M172 0v1035h80v-1035h-80zM-48 1232l231 325h64l224 -325h-75l-180 270h-4l-186 -270h-74z" />
    <glyph glyph-name="idieresis" unicode="&#xef;" horiz-adv-x="425" 
d="M291 1292q0 28 20 48t48 20t48 -20t20 -48q0 -29 -20 -49t-48 -20q-28 1 -48 21t-20 48zM1 1292q0 28 20 48q19 20 47 20t48 -20t20 -48t-20 -49q-20 -20 -48 -20q-28 1 -47 21q-20 20 -20 48zM172 0v1035h80v-1035h-80z" />
    <glyph glyph-name="eth" unicode="&#xf0;" horiz-adv-x="1085" 
d="M540 926q-148 0 -244 -103q-95 -103 -95 -289v-89q0 -185 94 -287t247 -102t247 101t94 288v154q1 139 -97 233t-246 94zM542 -18q-184 0 -304 118q-118 118 -118 334v111q0 215 118 335t304 120q120 0 208 -54t129 -134h5l-6 53q-26 241 -159 394l-285 -102l-16 57
l258 93q-87 90 -210 151l46 54q138 -68 242 -178l239 86l16 -55l-215 -77q171 -223 171 -590v-264q1 -216 -119 -334t-304 -118z" />
    <glyph glyph-name="ntilde" unicode="&#xf1;" horiz-adv-x="1101" 
d="M167 0v1035h80v-192h4q29 85 115 147t232 62t245 -98q100 -98 100 -270v-684h-81v664q0 141 -76 227t-221 86q-146 0 -232 -101t-86 -249v-627h-80zM394 1364q-99 0 -99 -147h-65q0 100 43 155t107 55q64 -1 100 -23t72 -67t61 -61t67 -15q42 -1 72 43q32 44 33 112h64
q0 -92 -49 -154t-115 -62q-65 0 -101 20t-70 60q-34 42 -60 63q-27 21 -60 21z" />
    <glyph glyph-name="ograve" unicode="&#xf2;" horiz-adv-x="1085" 
d="M542 979q-156 -1 -248 -107t-93 -295v-123q0 -188 92 -293t249 -105t249 104t92 294v123q-1 188 -93 295t-248 107zM541 1052q190 0 307 -124t117 -340v-145q-1 -217 -117 -339t-306 -122t-306 122t-116 339v145q0 218 116 341t305 123zM638 1211h-64l-255 293h90z" />
    <glyph glyph-name="oacute" unicode="&#xf3;" horiz-adv-x="1085" 
d="M542 979q-156 -1 -248 -107t-93 -295v-123q0 -188 92 -293t249 -105t249 104t92 294v123q-1 188 -93 295t-248 107zM541 1052q190 0 307 -124t117 -340v-145q-1 -217 -117 -339t-306 -122t-306 122t-116 339v145q0 218 116 341t305 123zM553 1211h-65l230 293h90z" />
    <glyph glyph-name="ocircumflex" unicode="&#xf4;" horiz-adv-x="1085" 
d="M542 979q-156 -1 -248 -107t-93 -295v-123q0 -188 92 -293t249 -105t249 104t92 294v123q-1 188 -93 295t-248 107zM541 1052q190 0 307 -124t117 -340v-145q-1 -217 -117 -339t-306 -122t-306 122t-116 339v145q0 218 116 341t305 123zM282 1232l231 325h64l224 -325
h-75l-180 270h-4l-186 -270h-74z" />
    <glyph glyph-name="otilde" unicode="&#xf5;" horiz-adv-x="1085" 
d="M542 979q-156 -1 -248 -107t-93 -295v-123q0 -188 92 -293t249 -105t249 104t92 294v123q-1 188 -93 295t-248 107zM541 1052q190 0 307 -124t117 -340v-145q-1 -217 -117 -339t-306 -122t-306 122t-116 339v145q0 218 116 341t305 123zM386 1364q-99 0 -99 -147h-65
q0 100 43 155t107 55q64 -1 100 -23t72 -67t61 -61t67 -15q42 -1 72 43q32 44 33 112h64q0 -92 -49 -154t-115 -62q-65 0 -101 20t-70 60q-34 42 -60 63q-27 21 -60 21z" />
    <glyph glyph-name="odieresis" unicode="&#xf6;" horiz-adv-x="1085" 
d="M542 979q-156 -1 -248 -107t-93 -295v-123q0 -188 92 -293t249 -105t249 104t92 294v123q-1 188 -93 295t-248 107zM541 1052q190 0 307 -124t117 -340v-145q-1 -217 -117 -339t-306 -122t-306 122t-116 339v145q0 218 116 341t305 123zM621 1292q0 28 20 48t48 20
t48 -20t20 -48q0 -29 -20 -49t-48 -20q-28 1 -48 21t-20 48zM331 1292q0 28 20 48q19 20 47 20t48 -20t20 -48t-20 -49q-20 -20 -48 -20q-28 1 -47 21q-20 20 -20 48z" />
    <glyph glyph-name="divide" unicode="&#xf7;" horiz-adv-x="1085" 
d="M465 180q-1 34 23 58t58 24t58 -24t25 -58q0 -34 -24 -58q-25 -24 -59 -24t-58 24t-23 58zM460 906q0 34 24 58t58 24t58 -24t24 -58t-24 -58t-58 -24t-58 24t-24 58zM989 504h-893v75h893v-75z" />
    <glyph glyph-name="oslash" unicode="&#xf8;" horiz-adv-x="1085" 
d="M540 -18q-186 0 -300 123l-106 -125l-49 39l113 134q-78 115 -78 281v163q0 215 118 335t307 120q188 0 304 -134l126 145l48 -39l-133 -153q75 -115 75 -274v-163q1 -216 -119 -334t-306 -118zM200 437q0 -131 50 -220l551 643q-93 120 -251 120t-254 -104t-96 -290
v-149zM538 55q158 -1 252 101t94 289v149q0 124 -45 212l-550 -642q91 -109 249 -109z" />
    <glyph glyph-name="ugrave" unicode="&#xf9;" horiz-adv-x="1100" 
d="M933 1035v-1035h-81v192h-4q-30 -86 -116 -148t-232 -62t-244 90q-99 90 -99 263v700h81v-685q0 -137 78 -215t218 -78q142 0 230 105t88 252v621h81zM646 1211h-64l-255 293h90z" />
    <glyph glyph-name="uacute" unicode="&#xfa;" horiz-adv-x="1100" 
d="M933 1035v-1035h-81v192h-4q-30 -86 -116 -148t-232 -62t-244 90q-99 90 -99 263v700h81v-685q0 -137 78 -215t218 -78q142 0 230 105t88 252v621h81zM561 1211h-65l230 293h90z" />
    <glyph glyph-name="ucircumflex" unicode="&#xfb;" horiz-adv-x="1100" 
d="M933 1035v-1035h-81v192h-4q-30 -86 -116 -148t-232 -62t-244 90q-99 90 -99 263v700h81v-685q0 -137 78 -215t218 -78q142 0 230 105t88 252v621h81zM290 1232l231 325h64l224 -325h-75l-180 270h-4l-186 -270h-74z" />
    <glyph glyph-name="udieresis" unicode="&#xfc;" horiz-adv-x="1100" 
d="M629 1292q0 28 20 48t48 20t48 -20t20 -48q0 -29 -20 -49t-48 -20q-28 1 -48 21t-20 48zM339 1292q0 28 20 48q19 20 47 20t48 -20t20 -48t-20 -49q-20 -20 -48 -20q-28 1 -47 21q-20 20 -20 48zM933 1035v-1035h-81v192h-4q-30 -86 -116 -148t-232 -62t-244 90
q-99 90 -99 263v700h81v-685q0 -137 78 -215t218 -78q142 0 230 105t88 252v621h81z" />
    <glyph glyph-name="yacute" unicode="&#xfd;" horiz-adv-x="921" 
d="M471 1211h-65l230 293h90zM196 -341q-47 0 -94 9v73q40 -9 104 -9q126 0 183 159l34 96l-387 1048h89l337 -951h5l332 951h86l-416 -1152q-44 -115 -104 -169t-169 -55z" />
    <glyph glyph-name="thorn" unicode="&#xfe;" horiz-adv-x="1103" 
d="M572 56q146 0 238 100t92 281v158q0 187 -94 285t-236 99q-144 -1 -234 -107t-90 -268v-181q0 -151 89 -259t235 -108zM248 199v-534h-81v1770h78l1 -604h5q25 77 108 149t239 72t271 -115t115 -324v-192q0 -199 -112 -319t-285 -120t-273 114q-45 52 -61 103h-5z" />
    <glyph glyph-name="ydieresis" unicode="&#xff;" horiz-adv-x="921" 
d="M539 1292q0 28 20 48t48 20t48 -20t20 -48q0 -29 -20 -49t-48 -20q-28 1 -48 21t-20 48zM249 1292q0 28 20 48q19 20 47 20t48 -20t20 -48t-20 -49q-20 -20 -48 -20q-28 1 -47 21q-20 20 -20 48zM196 -341q-47 0 -94 9v73q40 -9 104 -9q126 0 183 159l34 96l-387 1048h89
l337 -951h5l332 951h86l-416 -1152q-44 -115 -104 -169t-169 -55z" />
    <glyph glyph-name="Amacron" unicode="&#x100;" horiz-adv-x="1149" 
d="M844 1528h-538v56h538v-56zM576 1259h-5l-258 -731h519zM129 0h-85l488 1360h85l488 -1360h-88l-160 458h-567z" />
    <glyph glyph-name="amacron" unicode="&#x101;" horiz-adv-x="1015" 
d="M778 1246h-554v58h554v-58zM461 55q125 0 218 83t93 212v157h-315q-134 0 -201 -58t-67 -162q-1 -104 73 -168t199 -64zM104 286q0 137 90 215t261 78h317v151q0 126 -72 187t-201 61t-195 -54t-75 -127h-80q6 107 98 181t256 74q163 0 257 -80t94 -230v-742h-80v169h-4
q-23 -57 -80 -103q-106 -84 -253 -84t-240 84t-93 220z" />
    <glyph glyph-name="Abreve" unicode="&#x102;" horiz-adv-x="1149" 
d="M300 1715h67q0 -76 56 -121t152 -45q97 1 149 45t52 121h68q0 -97 -68 -163t-202 -66q-132 0 -203 66t-71 163zM576 1259h-5l-258 -731h519zM129 0h-85l488 1360h85l488 -1360h-88l-160 458h-567z" />
    <glyph glyph-name="abreve" unicode="&#x103;" horiz-adv-x="1015" 
d="M233 1434h68q-1 -80 53 -130t148 -51q94 0 144 50t50 131h67q0 -138 -115 -206q-61 -36 -146 -36q-127 0 -198 72t-71 170zM461 55q125 0 218 83t93 212v157h-315q-134 0 -201 -58t-67 -162q-1 -104 73 -168t199 -64zM104 286q0 137 90 215t261 78h317v151q0 126 -72 187
t-201 61t-195 -54t-75 -127h-80q6 107 98 181t256 74q163 0 257 -80t94 -230v-742h-80v169h-4q-23 -57 -80 -103q-106 -84 -253 -84t-240 84t-93 220z" />
    <glyph glyph-name="Aogonek" unicode="&#x104;" horiz-adv-x="1150" 
d="M577 1259h-6l-257 -731h519zM1036 -308q46 0 86 14v-59q-38 -21 -107 -21t-117 42t-48 123q0 126 160 232l-153 435h-567l-160 -458h-86l488 1360h86l486 -1357q-70 -33 -122 -85t-53 -110q-1 -56 29 -86q32 -30 78 -30z" />
    <glyph glyph-name="aogonek" unicode="&#x105;" horiz-adv-x="1015" 
d="M790 -359q-66 0 -116 42t-51 118q0 77 40 129t111 102v137h-4q-23 -57 -80 -103q-106 -84 -253 -84t-240 84t-93 220q0 137 90 215t261 78h317v151q0 126 -72 187t-201 61t-195 -54t-75 -127h-80q6 107 98 181t256 74q163 0 257 -80t94 -230v-735q-155 -83 -155 -191
q0 -50 30 -78q29 -28 79 -28t84 12v-64q-36 -17 -102 -17zM461 55q125 0 218 83t93 212v157h-315q-134 0 -201 -58t-67 -162q-1 -104 73 -168t199 -64z" />
    <glyph glyph-name="Cacute" unicode="&#x106;" horiz-adv-x="1245" 
d="M217 803v-248q0 -220 106 -365q106 -146 327 -146q178 0 286 98t109 239h80v-3q1 -160 -123 -282q-130 -128 -364 -127q-120 0 -220 45q-100 44 -161 126q-122 163 -122 423v231q0 259 128 428t382 169q113 0 205 -38t149 -99q117 -127 117 -278v-3h-80q0 123 -100 229
q-108 114 -298 114q-98 0 -182 -40q-82 -40 -134 -110q-104 -144 -105 -363zM540 1512l299 237h104l-316 -237h-87z" />
    <glyph glyph-name="cacute" unicode="&#x107;" horiz-adv-x="1019" 
d="M532 1211h-65l230 293h90zM120 443v156q0 211 112 332t294 121t281 -98q98 -98 105 -216h-80q-12 97 -92 169t-221 72q-141 -1 -229 -105t-89 -288v-136q0 -186 89 -289t245 -103q197 0 272 142q20 38 28 79h79q-10 -110 -104 -204q-94 -93 -282 -93t-298 121t-110 340z
" />
    <glyph glyph-name="Ccircumflex" unicode="&#x108;" horiz-adv-x="1245" 
d="M352 1502l277 212h42l272 -212h-94l-197 153h-5l-198 -153h-97zM217 803v-248q0 -220 106 -365q106 -146 327 -146q178 0 286 98t109 239h80v-3q1 -160 -123 -282q-130 -128 -364 -127q-120 0 -220 45q-100 44 -161 126q-122 163 -122 423v231q0 259 128 428t382 169
q113 0 205 -38t149 -99q117 -127 117 -278v-3h-80q0 123 -100 229q-108 114 -298 114q-98 0 -182 -40q-82 -40 -134 -110q-104 -144 -105 -363z" />
    <glyph glyph-name="ccircumflex" unicode="&#x109;" horiz-adv-x="1019" 
d="M120 443v156q0 211 112 332t294 121t281 -98q98 -98 105 -216h-80q-12 97 -92 169t-221 72q-141 -1 -229 -105t-89 -288v-136q0 -186 89 -289t245 -103q197 0 272 142q20 38 28 79h79q-10 -110 -104 -204q-94 -93 -282 -93t-298 121t-110 340zM261 1232l231 325h64
l224 -325h-75l-180 270h-4l-186 -270h-74z" />
    <glyph glyph-name="Cdotaccent" unicode="&#x10a;" horiz-adv-x="1245" 
d="M573 1643q1 30 21 51t50 21q30 -1 51 -21t21 -50t-21 -51q-21 -20 -51 -20t-50 20t-21 50zM217 803v-248q0 -220 106 -365q106 -146 327 -146q178 0 286 98t109 239h80v-3q1 -160 -123 -282q-130 -128 -364 -127q-120 0 -220 45q-100 44 -161 126q-122 163 -122 423v231
q0 259 128 428t382 169q113 0 205 -38t149 -99q117 -127 117 -278v-3h-80q0 123 -100 229q-108 114 -298 114q-98 0 -182 -40q-82 -40 -134 -110q-104 -144 -105 -363z" />
    <glyph glyph-name="cdotaccent" unicode="&#x10b;" horiz-adv-x="1019" 
d="M450 1318q0 30 20 51t51 21q30 0 51 -20t21 -52q0 -30 -21 -50t-51 -20q-31 0 -51 20t-20 50zM120 443v156q0 211 112 332t294 121t281 -98q98 -98 105 -216h-80q-12 97 -92 169t-221 72q-141 -1 -229 -105t-89 -288v-136q0 -186 89 -289t245 -103q197 0 272 142
q20 38 28 79h79q-10 -110 -104 -204q-94 -93 -282 -93t-298 121t-110 340z" />
    <glyph glyph-name="Ccaron" unicode="&#x10c;" horiz-adv-x="1245" 
d="M351 1694h86l209 -164h5l208 164h84l-260 -207h-66zM217 803v-248q0 -220 106 -365q106 -146 327 -146q178 0 286 98t109 239h80v-3q1 -160 -123 -282q-130 -128 -364 -127q-120 0 -220 45q-100 44 -161 126q-122 163 -122 423v231q0 259 128 428t382 169q113 0 205 -38
t149 -99q117 -127 117 -278v-3h-80q0 123 -100 229q-108 114 -298 114q-98 0 -182 -40q-82 -40 -134 -110q-104 -144 -105 -363z" />
    <glyph glyph-name="ccaron" unicode="&#x10d;" horiz-adv-x="1019" 
d="M120 443v156q0 211 112 332t294 121t281 -98q98 -98 105 -216h-80q-12 97 -92 169t-221 72q-141 -1 -229 -105t-89 -288v-136q0 -186 89 -289t245 -103q197 0 272 142q20 38 28 79h79q-10 -110 -104 -204q-94 -93 -282 -93t-298 121t-110 340zM260 1538h73l186 -270h5
l180 270h75l-224 -325h-64z" />
    <glyph glyph-name="Dcaron" unicode="&#x10e;" horiz-adv-x="1294" 
d="M272 1285v-1210h284q268 1 396 159t129 446q0 385 -226 529q-119 76 -299 76h-284zM190 1360h366q460 0 574 -402q34 -122 34 -262t-20 -242q-43 -214 -186 -334t-402 -120h-366v1360zM342 1694h86l209 -164h5l208 164h84l-260 -207h-66z" />
    <glyph glyph-name="dcaron" unicode="&#x10f;" horiz-adv-x="1223" 
d="M527 978q-145 0 -237 -100t-91 -286v-153q-1 -177 89 -280t239 -103t239 110t89 271v158q1 167 -91 275t-237 108zM855 839v596h80v-1435h-78v202h-4q-14 -50 -52 -93q-39 -43 -75 -68q-86 -59 -213 -59q-177 0 -286 120t-109 321v188q0 208 113 325t298 117t287 -145
q24 -34 35 -69h4zM1147 1436h81l-26 -488h-55v488z" />
    <glyph glyph-name="Dcroat" unicode="&#x110;" horiz-adv-x="1353" 
d="M331 75h283q270 1 398 159t128 443t-127 446q-127 162 -399 162h-283v-551h360v-74h-360v-585zM249 0v660h-159v74h159v626h365q460 0 574 -402q34 -122 35 -262q-1 -140 -21 -242q-43 -215 -186 -335q-144 -119 -402 -119h-365z" />
    <glyph glyph-name="dcroat" unicode="&#x111;" horiz-adv-x="1107" 
d="M119 419v198q0 198 112 317t301 119q189 -1 288 -157q21 -34 30 -62h5v396h-248v71h248v147h81v-147h129v-71h-129v-1230h-79v202h-5q-23 -75 -106 -147q-82 -73 -231 -73q-161 0 -279 112q-117 112 -117 325zM526 978q-143 0 -235 -100t-92 -276v-165q1 -185 95 -283
t237 -98t233 106t91 269v182q1 209 -151 313q-76 52 -178 52z" />
    <glyph glyph-name="Emacron" unicode="&#x112;" horiz-adv-x="1073" 
d="M845 1528h-538v56h538v-56zM966 75v-75h-776v1360h776v-76h-694v-550h660v-75h-660v-584h694z" />
    <glyph glyph-name="emacron" unicode="&#x113;" horiz-adv-x="1046" 
d="M794 1246h-554v58h554v-58zM203 581h643v4q0 184 -87 289t-235 105t-234 -105q-87 -105 -87 -289v-4zM122 457v105q0 234 108 362t294 128q188 0 296 -128t107 -361v-53h-724v-53q0 -189 88 -295t233 -106t220 63t85 142h83q-10 -98 -102 -188q-92 -91 -281 -91
q-191 0 -299 126t-108 349z" />
    <glyph glyph-name="Ebreve" unicode="&#x114;" horiz-adv-x="1073" 
d="M301 1715h67q0 -76 56 -121t152 -45q96 1 148 45t53 121h68q-1 -97 -69 -163t-200 -66t-204 66q-71 66 -71 163zM966 75v-75h-776v1360h776v-76h-694v-550h660v-75h-660v-584h694z" />
    <glyph glyph-name="ebreve" unicode="&#x115;" horiz-adv-x="1046" 
d="M249 1434h68q-1 -80 53 -130t148 -51q94 0 144 50t50 131h67q0 -138 -115 -206q-61 -36 -146 -36q-127 0 -198 72t-71 170zM203 581h643v4q0 184 -87 289t-235 105t-234 -105q-87 -105 -87 -289v-4zM122 457v105q0 234 108 362t294 128q188 0 296 -128t107 -361v-53h-724
v-53q0 -189 88 -295t233 -106t220 63t85 142h83q-10 -98 -102 -188q-92 -91 -281 -91q-191 0 -299 126t-108 349z" />
    <glyph glyph-name="Edotaccent" unicode="&#x116;" horiz-adv-x="1073" 
d="M966 75v-75h-776v1360h776v-76h-694v-550h660v-75h-660v-584h694zM505 1643q1 30 21 51t50 21q30 -1 51 -21t21 -50t-21 -51q-21 -20 -51 -20t-50 20t-21 50z" />
    <glyph glyph-name="edotaccent" unicode="&#x117;" horiz-adv-x="1046" 
d="M203 581h643v4q0 184 -87 289t-235 105t-234 -105q-87 -105 -87 -289v-4zM122 457v105q0 234 108 362t294 128q188 0 296 -128t107 -361v-53h-724v-53q0 -189 88 -295t233 -106t220 63t85 142h83q-10 -98 -102 -188q-92 -91 -281 -91q-191 0 -299 126t-108 349zM452 1318
q0 30 20 51t51 21q30 0 51 -20t21 -52q0 -30 -21 -50t-51 -20q-31 0 -51 20t-20 50z" />
    <glyph glyph-name="Eogonek" unicode="&#x118;" horiz-adv-x="1073" 
d="M862 -374q-66 0 -114 42q-49 42 -49 123q0 127 128 209h-637v1360h776v-76h-694v-550h660v-75h-660v-584h694v-71q-91 -30 -141 -82t-50 -112t30 -89t77 -29t84 14v-62q-38 -18 -104 -18z" />
    <glyph glyph-name="eogonek" unicode="&#x119;" horiz-adv-x="1046" 
d="M203 581h643v4q0 184 -87 289t-235 105t-234 -105q-87 -105 -87 -289v-4zM536 -18q-198 0 -306 126t-108 349v105q0 234 108 362t294 128q188 0 296 -128t107 -361v-53h-724v-53q0 -189 88 -295t233 -106t220 63t85 142h83q-11 -98 -105 -194t-109 -124q-34 -68 -34 -120
q0 -51 37 -83t87 -32t91 14v-61q-35 -20 -109 -20t-128 45t-53 125q0 80 51 146q18 23 53 60l-4 5q-55 -40 -153 -40z" />
    <glyph glyph-name="Ecaron" unicode="&#x11a;" horiz-adv-x="1073" 
d="M966 75v-75h-776v1360h776v-76h-694v-550h660v-75h-660v-584h694zM283 1694h86l209 -164h5l208 164h84l-260 -207h-66z" />
    <glyph glyph-name="ecaron" unicode="&#x11b;" horiz-adv-x="1046" 
d="M203 581h643v4q0 184 -87 289t-235 105t-234 -105q-87 -105 -87 -289v-4zM122 457v105q0 234 108 362t294 128q188 0 296 -128t107 -361v-53h-724v-53q0 -189 88 -295t233 -106t220 63t85 142h83q-10 -98 -102 -188q-92 -91 -281 -91q-191 0 -299 126t-108 349zM262 1538
h73l186 -270h5l180 270h75l-224 -325h-64z" />
    <glyph glyph-name="Gcircumflex" unicode="&#x11c;" horiz-adv-x="1263" 
d="M217 801v-228q0 -241 111 -385q112 -144 308 -144t305 94t109 259v186h-407v75h485v-261q0 -192 -128 -310t-349 -118q-260 0 -388 169t-128 435v228q0 270 139 430t373 160t353 -117t123 -267h-79q-4 114 -104 212q-100 97 -293 97t-311 -138t-119 -377zM344 1502
l277 212h42l272 -212h-94l-197 153h-5l-198 -153h-97z" />
    <glyph glyph-name="gcircumflex" unicode="&#x11d;" horiz-adv-x="1094" 
d="M526 979q-144 0 -236 -99q-94 -99 -94 -283v-117q0 -175 92 -275t234 -100q102 -1 179 53q151 105 151 316v126q0 162 -91 270t-235 109zM534 -287q146 1 232 77t86 203v255h-4q-29 -92 -121 -155q-92 -62 -214 -62q-173 1 -285 119t-113 315v150q0 211 118 324t284 113
q165 0 263 -104q48 -50 70 -109h4v196h78v-1039q0 -165 -109 -261t-299 -96q-264 -1 -352 179q-24 48 -26 98h83q7 -79 83 -141t222 -62zM287 1232l231 325h64l224 -325h-75l-180 270h-4l-186 -270h-74z" />
    <glyph glyph-name="Gbreve" unicode="&#x11e;" horiz-adv-x="1263" 
d="M361 1715h67q0 -76 56 -121t152 -45q96 1 148 45t53 121h68q-1 -97 -69 -163t-200 -66t-204 66q-71 66 -71 163zM217 801v-228q0 -241 111 -385q112 -144 308 -144t305 94t109 259v186h-407v75h485v-261q0 -192 -128 -310t-349 -118q-260 0 -388 169t-128 435v228
q0 270 139 430t373 160t353 -117t123 -267h-79q-4 114 -104 212q-100 97 -293 97t-311 -138t-119 -377z" />
    <glyph glyph-name="gbreve" unicode="&#x11f;" horiz-adv-x="1094" 
d="M526 979q-144 0 -236 -99q-94 -99 -94 -283v-117q0 -175 92 -275t234 -100q102 -1 179 53q151 105 151 316v126q0 162 -91 270t-235 109zM534 -287q146 1 232 77t86 203v255h-4q-29 -92 -121 -155q-92 -62 -214 -62q-173 1 -285 119t-113 315v150q0 211 118 324t284 113
q165 0 263 -104q48 -50 70 -109h4v196h78v-1039q0 -165 -109 -261t-299 -96q-264 -1 -352 179q-24 48 -26 98h83q7 -79 83 -141t222 -62zM273 1434h68q-1 -80 53 -130t148 -51q94 0 144 50t50 131h67q0 -138 -115 -206q-61 -36 -146 -36q-127 0 -198 72t-71 170z" />
    <glyph glyph-name="Gdotaccent" unicode="&#x120;" horiz-adv-x="1263" 
d="M217 801v-228q0 -241 111 -385q112 -144 308 -144t305 94t109 259v186h-407v75h485v-261q0 -192 -128 -310t-349 -118q-260 0 -388 169t-128 435v228q0 270 139 430t373 160t353 -117t123 -267h-79q-4 114 -104 212q-100 97 -293 97t-311 -138t-119 -377zM565 1643
q1 30 21 51t50 21q30 -1 51 -21t21 -50t-21 -51q-21 -20 -51 -20t-50 20t-21 50z" />
    <glyph glyph-name="gdotaccent" unicode="&#x121;" horiz-adv-x="1094" 
d="M526 979q-144 0 -236 -99q-94 -99 -94 -283v-117q0 -175 92 -275t234 -100q102 -1 179 53q151 105 151 316v126q0 162 -91 270t-235 109zM534 -287q146 1 232 77t86 203v255h-4q-29 -92 -121 -155q-92 -62 -214 -62q-173 1 -285 119t-113 315v150q0 211 118 324t284 113
q165 0 263 -104q48 -50 70 -109h4v196h78v-1039q0 -165 -109 -261t-299 -96q-264 -1 -352 179q-24 48 -26 98h83q7 -79 83 -141t222 -62zM476 1318q0 30 20 51t51 21q30 0 51 -20t21 -52q0 -30 -21 -50t-51 -20q-31 0 -51 20t-20 50z" />
    <glyph glyph-name="Gcommaaccent" unicode="&#x122;" horiz-adv-x="1263" 
d="M217 801v-228q0 -241 111 -385q112 -144 308 -144t305 94t109 259v186h-407v75h485v-261q0 -192 -128 -310t-349 -118q-260 0 -388 169t-128 435v228q0 270 139 430t373 160t353 -117t123 -267h-79q-4 114 -104 212q-100 97 -293 97t-311 -138t-119 -377zM574 -481h-60
l85 335h89z" />
    <glyph glyph-name="gcommaaccent" unicode="&#x123;" horiz-adv-x="1094" 
d="M526 979q-144 0 -236 -99q-94 -99 -94 -283v-117q0 -175 92 -275t234 -100q102 -1 179 53q151 105 151 316v126q0 162 -91 270t-235 109zM534 -287q146 1 232 77t86 203v255h-4q-29 -92 -121 -155q-92 -62 -214 -62q-173 1 -285 119t-113 315v150q0 211 118 324t284 113
q165 0 263 -104q48 -50 70 -109h4v196h78v-1039q0 -165 -109 -261t-299 -96q-264 -1 -352 179q-24 48 -26 98h83q7 -79 83 -141t222 -62zM606 1569h60l-85 -335h-89z" />
    <glyph glyph-name="Hcircumflex" unicode="&#x124;" horiz-adv-x="1334" 
d="M375 1502l277 212h42l272 -212h-94l-197 153h-5l-198 -153h-97zM1143 0h-82v676h-789v-676h-82v1360h82v-609h789v609h82v-1360z" />
    <glyph glyph-name="hcircumflex" unicode="&#x125;" horiz-adv-x="1114" 
d="M-50 1633l231 325h64l224 -325h-75l-180 270h-4l-186 -270h-74zM171 0v1435h80v-592h4q27 85 113 147t233 62q148 0 249 -102t101 -277v-673h-81v661q0 139 -77 227t-222 89t-233 -101t-87 -250v-626h-80z" />
    <glyph glyph-name="Hbar" unicode="&#x126;" horiz-adv-x="1334" 
d="M272 669v-669h-82v1021h-134v68h134v271h82v-271h789v271h82v-271h141v-68h-141v-1021h-82v669h-789zM272 743h789v278h-789v-278z" />
    <glyph glyph-name="hbar" unicode="&#x127;" horiz-adv-x="1114" 
d="M251 617v-617h-80v1233h-129v68h129v134h80v-134h242v-68h-242v-404h5q25 83 108 153q84 70 237 70t251 -96t99 -267v-689h-81v672q0 136 -76 222t-196 85q-120 0 -197 -52q-150 -101 -150 -310z" />
    <glyph glyph-name="Itilde" unicode="&#x128;" horiz-adv-x="493" 
d="M109 1636q-88 0 -88 -129h-58q1 87 39 136t95 49t89 -20t64 -60q33 -40 54 -54q22 -14 58 -14t64 38t29 99h58q0 -81 -44 -135q-45 -54 -103 -55q-58 0 -88 17t-65 55q-28 37 -51 55t-53 18zM287 0h-81v1360h81v-1360z" />
    <glyph glyph-name="itilde" unicode="&#x129;" horiz-adv-x="425" 
d="M56 1364q-99 0 -99 -147h-65q0 100 43 155t107 55q64 -1 100 -23t72 -67t61 -61t67 -15q42 -1 72 43q32 44 33 112h64q0 -92 -49 -154t-115 -62q-65 0 -101 20t-70 60q-34 42 -60 63q-27 21 -60 21zM172 0v1035h80v-1035h-80z" />
    <glyph glyph-name="Imacron" unicode="&#x12a;" horiz-adv-x="493" 
d="M515 1528h-538v56h538v-56zM287 0h-81v1360h81v-1360z" />
    <glyph glyph-name="imacron" unicode="&#x12b;" horiz-adv-x="425" 
d="M483 1246h-554v58h554v-58zM172 0v1035h80v-1035h-80z" />
    <glyph glyph-name="Ibreve" unicode="&#x12c;" horiz-adv-x="493" 
d="M-29 1715h67q0 -76 56 -121t152 -45q96 1 148 45t53 121h68q-1 -97 -69 -163t-200 -66t-204 66q-71 66 -71 163zM287 0h-81v1360h81v-1360z" />
    <glyph glyph-name="ibreve" unicode="&#x12d;" horiz-adv-x="425" 
d="M-62 1434h68q0 -80 54 -130t146 -51q94 0 144 50t51 131h67q0 -138 -115 -206q-61 -36 -146 -36q-127 0 -198 72t-71 170zM172 0v1035h80v-1035h-80z" />
    <glyph glyph-name="Iogonek" unicode="&#x12e;" horiz-adv-x="493" 
d="M222 -374q-70 0 -117 42q-46 42 -46 123q0 130 147 233v1336h81v-1360q-152 -84 -152 -199q1 -51 31 -80t77 -29t85 14v-59q-36 -21 -106 -21z" />
    <glyph glyph-name="iogonek" unicode="&#x12f;" horiz-adv-x="458" 
d="M155 1340q0 32 21 54q20 22 52 22t54 -22t22 -54t-22 -52q-22 -21 -54 -21t-52 21q-21 20 -21 52zM204 -359q-72 0 -117 42q-46 42 -46 123q0 131 148 232v997h80v-1021q-152 -82 -152 -199q1 -51 31 -79t78 -29q48 0 84 13v-59q-34 -20 -106 -20z" />
    <glyph glyph-name="Idotaccent" unicode="&#x130;" horiz-adv-x="493" 
d="M175 1643q1 30 21 51t50 21q30 -1 51 -21t21 -50t-21 -51q-21 -20 -51 -20t-50 20t-21 50zM287 0h-81v1360h81v-1360z" />
    <glyph glyph-name="dotlessi" unicode="&#x131;" horiz-adv-x="425" 
d="M172 0v1035h80v-1035h-80z" />
    <glyph glyph-name="Jcircumflex" unicode="&#x134;" horiz-adv-x="907" 
d="M402 1502l277 212h42l272 -212h-94l-197 153h-5l-198 -153h-97zM37 295h81q0 -85 63 -162q63 -78 193 -78q130 -1 204 75t75 226v1004h82v-1000q0 -188 -96 -284t-260 -96q-89 0 -158 30t-107 76q-76 94 -77 209z" />
    <glyph glyph-name="jcircumflex" unicode="&#x135;" horiz-adv-x="458" 
d="M-28 1219l231 325h64l224 -325h-75l-180 270h-4l-186 -270h-74zM269 1035v-1104q-1 -143 -55 -207t-166 -63q-45 0 -75 8v71q33 -7 65 -7q81 1 116 45t35 151v1106h80z" />
    <glyph glyph-name="Kcommaaccent" unicode="&#x136;" horiz-adv-x="1109" 
d="M493 -481h-60l85 335h89zM272 0h-82v1360h82v-730h3l681 730h104l-558 -604l590 -756h-106l-544 700l-170 -179v-521z" />
    <glyph glyph-name="kcommaaccent" unicode="&#x137;" horiz-adv-x="994" 
d="M441 -481h-60l85 335h89zM251 0h-80v1435h80v-915h5l554 529h102l-457 -442l475 -607h-101l-434 554l-144 -131v-423z" />
    <glyph glyph-name="Lacute" unicode="&#x139;" horiz-adv-x="1013" 
d="M955 75v-75h-765v1360h82v-1285h683zM127 1512l299 237h104l-316 -237h-87z" />
    <glyph glyph-name="lacute" unicode="&#x13a;" horiz-adv-x="447" 
d="M183 0v1435h81v-1435h-81zM235 1612h-65l230 293h90z" />
    <glyph glyph-name="Lcommaaccent" unicode="&#x13b;" horiz-adv-x="1013" 
d="M955 75v-75h-765v1360h82v-1285h683zM461 -481h-60l85 335h89z" />
    <glyph glyph-name="lcommaaccent" unicode="&#x13c;" horiz-adv-x="447" 
d="M183 0v1435h81v-1435h-81zM162 -481h-60l85 335h89z" />
    <glyph glyph-name="Lcaron" unicode="&#x13d;" horiz-adv-x="1013" 
d="M955 75v-75h-765v1360h82v-1285h683zM600 1436h83l-27 -488h-56v488z" />
    <glyph glyph-name="lcaron" unicode="&#x13e;" horiz-adv-x="553" 
d="M183 0v1435h81v-1435h-81zM485 1436h81l-26 -488h-55v488z" />
    <glyph glyph-name="Lslash" unicode="&#x141;" horiz-adv-x="1015" 
d="M957 0h-764v585l-150 -88v81l150 88v694h82v-646l445 263v-84l-445 -261v-557h682v-75z" />
    <glyph glyph-name="lslash" unicode="&#x142;" horiz-adv-x="462" 
d="M272 0h-81v669l-186 -144v87l186 143v680h81v-620l192 149v-86l-192 -149v-729z" />
    <glyph glyph-name="Nacute" unicode="&#x143;" horiz-adv-x="1334" 
d="M272 0h-82v1360h85l782 -1216h4v1216h82v-1360h-84l-783 1216h-4v-1216zM563 1512l299 237h104l-316 -237h-87z" />
    <glyph glyph-name="nacute" unicode="&#x144;" horiz-adv-x="1101" 
d="M167 0v1035h80v-192h4q29 85 115 147t232 62t245 -98q100 -98 100 -270v-684h-81v664q0 141 -76 227t-221 86q-146 0 -232 -101t-86 -249v-627h-80zM561 1211h-65l230 293h90z" />
    <glyph glyph-name="Ncommaaccent" unicode="&#x145;" horiz-adv-x="1334" 
d="M272 0h-82v1360h85l782 -1216h4v1216h82v-1360h-84l-783 1216h-4v-1216zM605 -481h-60l85 335h89z" />
    <glyph glyph-name="ncommaaccent" unicode="&#x146;" horiz-adv-x="1101" 
d="M167 0v1035h80v-192h4q29 85 115 147t232 62t245 -98q100 -98 100 -270v-684h-81v664q0 141 -76 227t-221 86q-146 0 -232 -101t-86 -249v-627h-80zM488 -481h-60l85 335h89z" />
    <glyph glyph-name="Ncaron" unicode="&#x147;" horiz-adv-x="1334" 
d="M272 0h-82v1360h85l782 -1216h4v1216h82v-1360h-84l-783 1216h-4v-1216zM374 1694h86l209 -164h5l208 164h84l-260 -207h-66z" />
    <glyph glyph-name="ncaron" unicode="&#x148;" horiz-adv-x="1101" 
d="M167 0v1035h80v-192h4q29 85 115 147t232 62t245 -98q100 -98 100 -270v-684h-81v664q0 141 -76 227t-221 86q-146 0 -232 -101t-86 -249v-627h-80zM289 1538h73l186 -270h5l180 270h75l-224 -325h-64z" />
    <glyph glyph-name="Omacron" unicode="&#x14c;" horiz-adv-x="1309" 
d="M923 1528h-538v56h538v-56zM135 556v244q0 271 138 431t382 160q243 -1 381 -161t138 -432v-242q0 -271 -138 -429t-382 -158q-245 0 -382 158t-137 429zM216 806v-256q0 -230 118 -368t320 -138t321 138q118 138 118 368v256q0 230 -119 370t-320 140q-202 0 -320 -140
t-118 -370z" />
    <glyph glyph-name="omacron" unicode="&#x14d;" horiz-adv-x="1085" 
d="M542 979q-156 -1 -248 -107t-93 -295v-123q0 -188 92 -293t249 -105t249 104t92 294v123q-1 188 -93 295t-248 107zM541 1052q190 0 307 -124t117 -340v-145q-1 -217 -117 -339t-306 -122t-306 122t-116 339v145q0 218 116 341t305 123zM813 1246h-554v58h554v-58z" />
    <glyph glyph-name="Obreve" unicode="&#x14e;" horiz-adv-x="1309" 
d="M379 1715h67q0 -76 56 -121t152 -45q96 1 148 45t53 121h68q-1 -97 -69 -163t-200 -66t-204 66q-71 66 -71 163zM135 556v244q0 271 138 431t382 160q243 -1 381 -161t138 -432v-242q0 -271 -138 -429t-382 -158q-245 0 -382 158t-137 429zM216 806v-256q0 -230 118 -368
t320 -138t321 138q118 138 118 368v256q0 230 -119 370t-320 140q-202 0 -320 -140t-118 -370z" />
    <glyph glyph-name="obreve" unicode="&#x14f;" horiz-adv-x="1085" 
d="M542 979q-156 -1 -248 -107t-93 -295v-123q0 -188 92 -293t249 -105t249 104t92 294v123q-1 188 -93 295t-248 107zM541 1052q190 0 307 -124t117 -340v-145q-1 -217 -117 -339t-306 -122t-306 122t-116 339v145q0 218 116 341t305 123zM268 1434h68q0 -80 54 -130
t146 -51q94 0 144 50t51 131h67q0 -138 -115 -206q-61 -36 -146 -36q-127 0 -198 72t-71 170z" />
    <glyph glyph-name="Ohungarumlaut" unicode="&#x150;" horiz-adv-x="1309" 
d="M135 556v244q0 271 138 431t382 160q243 -1 381 -161t138 -432v-242q0 -271 -138 -429t-382 -158q-245 0 -382 158t-137 429zM216 806v-256q0 -230 118 -368t320 -138t321 138q118 138 118 368v256q0 230 -119 370t-320 140q-202 0 -320 -140t-118 -370zM714 1514
l304 240h100l-315 -240h-89zM446 1514l303 240h100l-315 -240h-88z" />
    <glyph glyph-name="ohungarumlaut" unicode="&#x151;" horiz-adv-x="1085" 
d="M542 979q-156 -1 -248 -107t-93 -295v-123q0 -188 92 -293t249 -105t249 104t92 294v123q-1 188 -93 295t-248 107zM541 1052q190 0 307 -124t117 -340v-145q-1 -217 -117 -339t-306 -122t-306 122t-116 339v145q0 218 116 341t305 123zM665 1211h-61l236 302h85z
M447 1211h-61l237 302h84z" />
    <glyph glyph-name="OE" unicode="&#x152;" horiz-adv-x="1975" 
d="M647 -31q-244 -1 -378 157t-134 430v244q0 272 135 432t378 159q150 -1 262 -67t163 -178h6v214h774v-76h-692v-550h657v-75h-657v-584h692v-75h-774v222h-6q-59 -121 -167 -187t-259 -66zM216 806v-256q0 -232 114 -369t314 -137q198 0 316 130t119 337v343
q0 200 -117 331t-316 131q-198 0 -314 -139t-116 -371z" />
    <glyph glyph-name="oe" unicode="&#x153;" horiz-adv-x="1809" 
d="M965 577h639v8q0 185 -85 289t-232 105q-147 -1 -235 -105t-87 -289v-8zM542 979q-150 0 -246 -103q-95 -103 -95 -290v-141q0 -185 94 -287t247 -102t247 101t94 288v141q1 185 -95 289t-246 104zM542 -18q-186 0 -304 118t-118 334v163q0 215 118 335t304 120
q130 0 231 -64t149 -184h6q44 120 138 184t221 64q183 0 291 -124t107 -356v-63h-720v-59q0 -186 89 -290t245 -104q191 0 272 130q21 34 27 67h84q-10 -92 -107 -182q-97 -89 -299 -89q-112 0 -208 64t-140 179h-6q-46 -117 -148 -180t-232 -63z" />
    <glyph glyph-name="Racute" unicode="&#x154;" horiz-adv-x="1187" 
d="M272 667h351q158 1 250 83t92 226q1 144 -91 227t-249 83h-353v-619zM637 1360q191 0 301 -106t110 -267t-80 -253t-209 -124l312 -610h-95l-302 594h-402v-594h-82v1360h447zM480 1512l299 237h104l-316 -237h-87z" />
    <glyph glyph-name="racute" unicode="&#x155;" horiz-adv-x="667" 
d="M171 0v1035h81v-191h4q19 76 90 142q70 65 206 65q36 0 85 -7v-78q-36 9 -92 9q-129 -1 -211 -87t-82 -249v-639h-81zM362 1211h-65l230 293h90z" />
    <glyph glyph-name="Rcommaaccent" unicode="&#x156;" horiz-adv-x="1187" 
d="M522 -481h-60l85 335h89zM272 667h351q158 1 250 83t92 226q1 144 -91 227t-249 83h-353v-619zM637 1360q191 0 301 -106t110 -267t-80 -253t-209 -124l312 -610h-95l-302 594h-402v-594h-82v1360h447z" />
    <glyph glyph-name="rcommaaccent" unicode="&#x157;" horiz-adv-x="667" 
d="M150 -481h-60l85 335h89zM171 0v1035h81v-191h4q19 76 90 142q70 65 206 65q36 0 85 -7v-78q-36 9 -92 9q-129 -1 -211 -87t-82 -249v-639h-81z" />
    <glyph glyph-name="Rcaron" unicode="&#x158;" horiz-adv-x="1187" 
d="M291 1694h86l209 -164h5l208 164h84l-260 -207h-66zM272 667h351q158 1 250 83t92 226q1 144 -91 227t-249 83h-353v-619zM637 1360q191 0 301 -106t110 -267t-80 -253t-209 -124l312 -610h-95l-302 594h-402v-594h-82v1360h447z" />
    <glyph glyph-name="rcaron" unicode="&#x159;" horiz-adv-x="667" 
d="M171 0v1035h81v-191h4q19 76 90 142q70 65 206 65q36 0 85 -7v-78q-36 9 -92 9q-129 -1 -211 -87t-82 -249v-639h-81zM90 1538h73l186 -270h5l180 270h75l-224 -325h-64z" />
    <glyph glyph-name="Sacute" unicode="&#x15a;" horiz-adv-x="1141" 
d="M100 345h83q4 -105 89 -197q44 -46 122 -75t179 -29q169 0 273 84t105 208q0 126 -76 190t-241 107l-178 48q-311 83 -311 345q0 166 120 266t315 100q196 0 312 -98t118 -246h-84q-4 101 -87 185t-252 84t-263 -79q-94 -80 -95 -200q0 -120 65 -183t199 -99l172 -47
q184 -51 277 -127t93 -243q0 -166 -131 -268t-340 -102q-276 -1 -399 177q-65 94 -65 199zM466 1512l299 237h104l-316 -237h-87z" />
    <glyph glyph-name="sacute" unicode="&#x15b;" horiz-adv-x="956" 
d="M489 1211h-65l230 293h90zM129 772q0 132 97 206t250 74q255 0 331 -184q19 -46 19 -93h-79q0 67 -62 136q-62 70 -193 70t-206 -53q-75 -54 -75 -146q1 -92 67 -138t223 -85t196 -61q86 -45 118 -95t32 -135q0 -86 -53 -154q-102 -132 -326 -132q-270 0 -352 184
q-22 48 -22 100h80q4 -75 72 -143q68 -69 210 -69q143 0 226 56t83 152t-63 138q-63 41 -129 59q-65 18 -119 31t-102 29q-113 38 -168 96t-55 157z" />
    <glyph glyph-name="Scircumflex" unicode="&#x15c;" horiz-adv-x="1141" 
d="M278 1502l277 212h42l272 -212h-94l-197 153h-5l-198 -153h-97zM100 345h83q4 -105 89 -197q44 -46 122 -75t179 -29q169 0 273 84t105 208q0 126 -76 190t-241 107l-178 48q-311 83 -311 345q0 166 120 266t315 100q196 0 312 -98t118 -246h-84q-4 101 -87 185t-252 84
t-263 -79q-94 -80 -95 -200q0 -120 65 -183t199 -99l172 -47q184 -51 277 -127t93 -243q0 -166 -131 -268t-340 -102q-276 -1 -399 177q-65 94 -65 199z" />
    <glyph glyph-name="scircumflex" unicode="&#x15d;" horiz-adv-x="956" 
d="M129 772q0 132 97 206t250 74q255 0 331 -184q19 -46 19 -93h-79q0 67 -62 136q-62 70 -193 70t-206 -53q-75 -54 -75 -146q1 -92 67 -138t223 -85t196 -61q86 -45 118 -95t32 -135q0 -86 -53 -154q-102 -132 -326 -132q-270 0 -352 184q-22 48 -22 100h80q4 -75 72 -143
q68 -69 210 -69q143 0 226 56t83 152t-63 138q-63 41 -129 59q-65 18 -119 31t-102 29q-113 38 -168 96t-55 157zM218 1232l231 325h64l224 -325h-75l-180 270h-4l-186 -270h-74z" />
    <glyph glyph-name="Scedilla" unicode="&#x15e;" horiz-adv-x="1141" 
d="M542 -396q68 0 113 26t45 78q0 99 -150 99h-51v48l51 114q-268 6 -387 180q-63 93 -63 196h83q4 -105 89 -197q44 -46 122 -75t179 -29q169 0 273 84t105 208q0 126 -76 190t-241 107l-178 48q-311 83 -311 345q0 166 120 266t315 100q196 0 312 -98t118 -246h-84
q-4 101 -87 185t-252 84t-263 -79q-94 -80 -95 -200q0 -120 65 -183t199 -99l172 -47q184 -51 277 -127t93 -237q-1 -161 -115 -261t-302 -114l-45 -104q88 0 146 -38t58 -118t-66 -124q-65 -44 -149 -45t-134 16v62q46 -15 114 -15z" />
    <glyph glyph-name="scedilla" unicode="&#x15f;" horiz-adv-x="956" 
d="M436 -395q68 1 112 27t45 78q0 99 -153 99h-50v48l55 126q-257 8 -331 187q-20 47 -20 96h80q4 -75 72 -143q68 -69 210 -69q143 0 226 56t83 152t-63 138q-63 41 -129 59q-65 18 -119 31t-102 29q-113 38 -168 96t-55 157q0 132 97 206t250 74q255 0 331 -184
q19 -46 19 -93h-79q0 67 -62 136q-62 70 -193 70t-206 -53q-75 -54 -75 -146q1 -92 67 -138t223 -85t196 -61q86 -45 118 -95t32 -125q1 -132 -93 -208t-242 -87l-48 -116q88 0 147 -38q59 -39 59 -119t-66 -123t-148 -44t-135 15v63q47 -16 115 -16z" />
    <glyph glyph-name="Scaron" unicode="&#x160;" horiz-adv-x="1141" 
d="M277 1694h86l209 -164h5l208 164h84l-260 -207h-66zM100 345h83q4 -105 89 -197q44 -46 122 -75t179 -29q169 0 273 84t105 208q0 126 -76 190t-241 107l-178 48q-311 83 -311 345q0 166 120 266t315 100q196 0 312 -98t118 -246h-84q-4 101 -87 185t-252 84t-263 -79
q-94 -80 -95 -200q0 -120 65 -183t199 -99l172 -47q184 -51 277 -127t93 -243q0 -166 -131 -268t-340 -102q-276 -1 -399 177q-65 94 -65 199z" />
    <glyph glyph-name="scaron" unicode="&#x161;" horiz-adv-x="956" 
d="M129 772q0 132 97 206t250 74q255 0 331 -184q19 -46 19 -93h-79q0 67 -62 136q-62 70 -193 70t-206 -53q-75 -54 -75 -146q1 -92 67 -138t223 -85t196 -61q86 -45 118 -95t32 -135q0 -86 -53 -154q-102 -132 -326 -132q-270 0 -352 184q-22 48 -22 100h80q4 -75 72 -143
q68 -69 210 -69q143 0 226 56t83 152t-63 138q-63 41 -129 59q-65 18 -119 31t-102 29q-113 38 -168 96t-55 157zM217 1538h73l186 -270h5l180 270h75l-224 -325h-64z" />
    <glyph glyph-name="Tcedilla" unicode="&#x162;" horiz-adv-x="1025" 
d="M466 -401q70 0 114 26t45 78q0 99 -152 99h-51v48l65 150h-14v1285h-459v75h997v-75h-457v-1285l-58 -139q88 0 148 -38q60 -39 59 -119t-67 -124t-148 -44q-82 -1 -134 15v63q42 -15 112 -15z" />
    <glyph glyph-name="tcedilla" unicode="&#x163;" horiz-adv-x="669" 
d="M348 -387q70 1 114 27q45 26 45 77q0 99 -153 99h-50v48l62 147q-78 19 -110 73t-33 161v719h-194v71h194v252h81v-252h277v-71h-277v-733q0 -92 44 -128t128 -36q82 0 118 6v-68q-42 -7 -85 -7t-79 2l-53 -125q87 0 147 -38q60 -39 60 -119t-66 -124t-149 -44
q-83 -1 -134 15v63q43 -15 113 -15z" />
    <glyph glyph-name="Tcaron" unicode="&#x164;" horiz-adv-x="1025" 
d="M554 0h-81v1285h-459v75h997v-75h-457v-1285zM219 1694h86l209 -164h5l208 164h84l-260 -207h-66z" />
    <glyph glyph-name="tcaron" unicode="&#x165;" horiz-adv-x="669" 
d="M223 1035v252h81v-252h277v-71h-277v-733q0 -92 44 -128t128 -36q82 0 118 6v-68q-42 -7 -105 -7q-151 0 -209 54t-57 193v719h-194v71h194zM499 1686h82l-26 -488h-56v488z" />
    <glyph glyph-name="Tbar" unicode="&#x166;" horiz-adv-x="1025" 
d="M820 691h-266v-691h-81v691h-268v68h268v526h-459v75h997v-75h-457v-526h266v-68z" />
    <glyph glyph-name="tbar" unicode="&#x167;" horiz-adv-x="664" 
d="M489 -2q-151 0 -209 54t-57 193v327h-152v68h152v324h-194v71h194v252h81v-252h277v-71h-277v-324h205v-68h-205v-341q0 -92 44 -128t128 -36q82 0 118 6v-68q-42 -7 -105 -7z" />
    <glyph glyph-name="Utilde" unicode="&#x168;" horiz-adv-x="1310" 
d="M518 1636q-88 0 -88 -129h-58q0 87 38 136t96 49q56 0 88 -20t65 -60t54 -54t57 -14t65 38q28 38 29 99h58q0 -81 -44 -135t-102 -55q-58 0 -90 17q-30 17 -64 55q-28 37 -51 55t-53 18zM250 1360v-891q0 -195 106 -309t300 -114q192 0 298 114t105 309v891h83v-891
q0 -229 -130 -365t-357 -135q-227 0 -357 136t-130 365v890h82z" />
    <glyph glyph-name="utilde" unicode="&#x169;" horiz-adv-x="1100" 
d="M394 1364q-99 0 -99 -147h-65q0 100 43 155t107 55q64 -1 100 -23t72 -67t61 -61t67 -15q42 -1 72 43q32 44 33 112h64q0 -92 -49 -154t-115 -62q-65 0 -101 20t-70 60q-34 42 -60 63q-27 21 -60 21zM933 1035v-1035h-81v192h-4q-30 -86 -116 -148t-232 -62t-244 90
q-99 90 -99 263v700h81v-685q0 -137 78 -215t218 -78q142 0 230 105t88 252v621h81z" />
    <glyph glyph-name="Umacron" unicode="&#x16a;" horiz-adv-x="1310" 
d="M924 1528h-538v56h538v-56zM250 1360v-891q0 -195 106 -309t300 -114q192 0 298 114t105 309v891h83v-891q0 -229 -130 -365t-357 -135q-227 0 -357 136t-130 365v890h82z" />
    <glyph glyph-name="umacron" unicode="&#x16b;" horiz-adv-x="1100" 
d="M821 1246h-554v58h554v-58zM933 1035v-1035h-81v192h-4q-30 -86 -116 -148t-232 -62t-244 90q-99 90 -99 263v700h81v-685q0 -137 78 -215t218 -78q142 0 230 105t88 252v621h81z" />
    <glyph glyph-name="Ubreve" unicode="&#x16c;" horiz-adv-x="1310" 
d="M380 1715h67q0 -76 56 -121t152 -45q97 1 149 45t52 121h68q0 -97 -68 -163t-202 -66q-132 0 -203 66t-71 163zM250 1360v-891q0 -195 106 -309t300 -114q192 0 298 114t105 309v891h83v-891q0 -229 -130 -365t-357 -135q-227 0 -357 136t-130 365v890h82z" />
    <glyph glyph-name="ubreve" unicode="&#x16d;" horiz-adv-x="1100" 
d="M276 1434h68q0 -80 54 -130t146 -51q94 0 144 50t51 131h67q0 -138 -115 -206q-61 -36 -146 -36q-127 0 -198 72t-71 170zM933 1035v-1035h-81v192h-4q-30 -86 -116 -148t-232 -62t-244 90q-99 90 -99 263v700h81v-685q0 -137 78 -215t218 -78q142 0 230 105t88 252v621
h81z" />
    <glyph glyph-name="Uring" unicode="&#x16e;" horiz-adv-x="1310" 
d="M537 1682q0 -48 35 -83q36 -35 84 -35t82 35t35 83q-1 48 -35 84q-34 34 -82 34t-84 -34q-35 -36 -35 -84zM654 1510q-72 0 -122 50t-51 122q1 72 51 121t122 49t122 -49t50 -121t-50 -122t-122 -50zM250 1360v-891q0 -195 106 -309t300 -114q192 0 298 114t105 309v891
h83v-891q0 -229 -130 -365t-357 -135q-227 0 -357 136t-130 365v890h82z" />
    <glyph glyph-name="uring" unicode="&#x16f;" horiz-adv-x="1100" 
d="M432 1358q0 -48 35 -84q35 -35 83 -35t84 35q34 36 34 84t-34 82t-84 35q-48 -1 -83 -35t-35 -82zM549 1185q-73 0 -123 50t-50 122t50 121t123 49q72 0 122 -49t50 -121t-50 -122t-122 -50zM933 1035v-1035h-81v192h-4q-30 -86 -116 -148t-232 -62t-244 90
q-99 90 -99 263v700h81v-685q0 -137 78 -215t218 -78q142 0 230 105t88 252v621h81z" />
    <glyph glyph-name="Uhungarumlaut" unicode="&#x170;" horiz-adv-x="1310" 
d="M715 1514l304 240h100l-315 -240h-89zM447 1514l303 240h100l-315 -240h-88zM250 1360v-891q0 -195 106 -309t300 -114q192 0 298 114t105 309v891h83v-891q0 -229 -130 -365t-357 -135q-227 0 -357 136t-130 365v890h82z" />
    <glyph glyph-name="uhungarumlaut" unicode="&#x171;" horiz-adv-x="1100" 
d="M933 1035v-1035h-81v192h-4q-30 -86 -116 -148t-232 -62t-244 90q-99 90 -99 263v700h81v-685q0 -137 78 -215t218 -78q142 0 230 105t88 252v621h81zM673 1211h-61l236 302h85zM455 1211h-61l237 302h84z" />
    <glyph glyph-name="Uogonek" unicode="&#x172;" horiz-adv-x="1310" 
d="M913 -374q-72 0 -126 45t-54 128q0 115 107 205l-2 4q-99 -39 -187 -39q-223 1 -353 137t-130 364v890h82v-891q0 -195 106 -309t300 -114q192 0 298 114t105 309v891h83v-891q0 -250 -173 -413q-125 -119 -149 -182q-12 -31 -11 -75q0 -45 36 -75q37 -30 89 -30t89 14
v-61q-38 -21 -110 -21z" />
    <glyph glyph-name="uogonek" unicode="&#x173;" horiz-adv-x="1100" 
d="M868 -359q-66 0 -116 42t-50 121t45 131t105 98v169h-5q-30 -88 -116 -154q-87 -66 -233 -66t-244 87t-97 258v708h81v-693q0 -134 76 -210t205 -77q77 1 141 31t106 80q86 105 86 243v626h81v-1026q-154 -88 -154 -193q-1 -50 29 -78t80 -28t83 12v-64q-37 -17 -103 -17
z" />
    <glyph glyph-name="Wcircumflex" unicode="&#x174;" horiz-adv-x="1672" 
d="M483 0h-87l-361 1360h92l313 -1233h4l348 1233h88l348 -1233h4l313 1233h92l-362 -1360h-86l-351 1226h-5zM544 1502l277 212h42l272 -212h-94l-197 153h-5l-198 -153h-97z" />
    <glyph glyph-name="wcircumflex" unicode="&#x175;" horiz-adv-x="1400" 
d="M1361 1035l-284 -1035h-82l-292 919h-4l-290 -919h-83l-288 1035h91l237 -919h5l289 919h82l290 -919h6l238 919h85zM440 1232l231 325h64l224 -325h-75l-180 270h-4l-186 -270h-74z" />
    <glyph glyph-name="Ycircumflex" unicode="&#x176;" horiz-adv-x="1060" 
d="M238 1502l277 212h42l272 -212h-94l-197 153h-5l-198 -153h-97zM571 0h-81v607l-470 753h96l411 -668h6l413 668h94l-469 -751v-609z" />
    <glyph glyph-name="ycircumflex" unicode="&#x177;" horiz-adv-x="921" 
d="M200 1232l231 325h64l224 -325h-75l-180 270h-4l-186 -270h-74zM196 -341q-47 0 -94 9v73q40 -9 104 -9q126 0 183 159l34 96l-387 1048h89l337 -951h5l332 951h86l-416 -1152q-44 -115 -104 -169t-169 -55z" />
    <glyph glyph-name="Ydieresis" unicode="&#x178;" horiz-adv-x="1060" 
d="M624 1572q0 24 17 40q17 17 41 17t40 -17q16 -16 17 -40q-1 -24 -17 -42t-40 -18t-41 18t-17 42zM335 1572q0 24 17 40q18 17 42 17t40 -17q16 -16 17 -40q-1 -24 -17 -42t-40 -18t-42 18q-17 18 -17 42zM571 0h-81v607l-470 753h96l411 -668h6l413 668h94l-469 -751
v-609z" />
    <glyph glyph-name="Zacute" unicode="&#x179;" horiz-adv-x="1152" 
d="M96 0v65l850 1217v4h-823v74h924v-65l-849 -1217v-5h853v-73h-955zM472 1512l299 237h104l-316 -237h-87z" />
    <glyph glyph-name="zacute" unicode="&#x17a;" horiz-adv-x="968" 
d="M126 0v62l623 898v5h-624v70h725v-65l-623 -895v-5h624v-70h-725zM495 1211h-65l230 293h90z" />
    <glyph glyph-name="Zdotaccent" unicode="&#x17b;" horiz-adv-x="1152" 
d="M505 1643q1 30 21 51t50 21q30 -1 51 -21t21 -50t-21 -51q-21 -20 -51 -20t-50 20t-21 50zM96 0v65l850 1217v4h-823v74h924v-65l-849 -1217v-5h853v-73h-955z" />
    <glyph glyph-name="zdotaccent" unicode="&#x17c;" horiz-adv-x="968" 
d="M126 0v62l623 898v5h-624v70h725v-65l-623 -895v-5h624v-70h-725zM413 1318q1 30 21 51t50 21t51 -20t21 -52q0 -30 -21 -50t-51 -20t-50 20t-21 50z" />
    <glyph glyph-name="Zcaron" unicode="&#x17d;" horiz-adv-x="1152" 
d="M283 1694h86l209 -164h5l208 164h84l-260 -207h-66zM96 0v65l850 1217v4h-823v74h924v-65l-849 -1217v-5h853v-73h-955z" />
    <glyph glyph-name="zcaron" unicode="&#x17e;" horiz-adv-x="968" 
d="M126 0v62l623 898v5h-624v70h725v-65l-623 -895v-5h624v-70h-725zM223 1538h73l186 -270h5l180 270h75l-224 -325h-64z" />
    <glyph glyph-name="florin" unicode="&#x192;" horiz-adv-x="1048" 
d="M713 1390q173 0 235 -138q16 -35 17 -71h-79q-4 59 -54 97t-122 39q-177 0 -217 -225l-35 -182h334l-15 -72h-331l-185 -1024h-83l185 1024h-256l13 72h256l37 199q23 131 101 206t199 75z" />
    <glyph glyph-name="Ohorn" unicode="&#x1a0;" horiz-adv-x="1299" 
d="M216 806v-256q0 -230 118 -368t320 -138t321 138q118 138 118 368v256q0 230 -119 370t-320 140q-202 0 -320 -140t-118 -370zM1174 556q0 -271 -138 -429t-382 -158q-245 0 -382 158t-137 429v244q0 271 138 431t382 160q86 -1 213 -37t196 -36t107 39t38 111v101h76
v-99q-1 -130 -77 -181t-199 -29l-3 -5q78 -75 123 -192t45 -265v-242z" />
    <glyph glyph-name="ohorn" unicode="&#x1a1;" horiz-adv-x="1084" 
d="M542 979q-150 0 -246 -103q-95 -103 -95 -290v-141q0 -185 94 -287t247 -102t247 101t94 288v141q1 185 -95 289t-246 104zM542 -18q-184 0 -304 118q-118 118 -118 334v163q0 215 118 335t304 120q50 0 114 -12t120 -13t98 41q44 42 44 111v118h76v-113q0 -104 -50 -160
t-139 -60l-1 -5q71 -56 116 -150t45 -212v-163q1 -216 -119 -334t-304 -118z" />
    <glyph glyph-name="Uhorn" unicode="&#x1af;" horiz-adv-x="1344" 
d="M655 -31q-227 0 -357 136t-130 365v890h82v-891q0 -195 106 -309t300 -114q192 0 298 114t105 309v891h82q75 0 117 40t41 112v103h75v-101q0 -104 -60 -164t-150 -60h-22v-821q0 -229 -130 -365t-357 -135z" />
    <glyph glyph-name="uhorn" unicode="&#x1b0;" horiz-adv-x="1164" 
d="M498 -18q-146 0 -244 87t-97 258v708h81v-693q0 -134 76 -210t205 -77q77 1 141 31t106 80q86 105 86 243v626h85q76 1 117 41t41 111v110h76v-108q0 -110 -61 -166t-163 -56h-14v-967h-81v202h-5q-30 -88 -116 -154q-87 -66 -233 -66z" />
    <glyph glyph-name="Acaron" unicode="&#x1cd;" horiz-adv-x="1149" 
d="M282 1694h86l209 -164h5l208 164h84l-260 -207h-66zM576 1259h-5l-258 -731h519zM129 0h-85l488 1360h85l488 -1360h-88l-160 458h-567z" />
    <glyph glyph-name="acaron" unicode="&#x1ce;" horiz-adv-x="1015" 
d="M246 1538h73l186 -270h5l180 270h75l-224 -325h-64zM461 55q125 0 218 83t93 212v157h-315q-134 0 -201 -58t-67 -162q-1 -104 73 -168t199 -64zM104 286q0 137 90 215t261 78h317v151q0 126 -72 187t-201 61t-195 -54t-75 -127h-80q6 107 98 181t256 74q163 0 257 -80
t94 -230v-742h-80v169h-4q-23 -57 -80 -103q-106 -84 -253 -84t-240 84t-93 220z" />
    <glyph glyph-name="Icaron" unicode="&#x1cf;" horiz-adv-x="493" 
d="M-47 1694h86l209 -164h5l208 164h84l-260 -207h-66zM287 0h-81v1360h81v-1360z" />
    <glyph glyph-name="icaron" unicode="&#x1d0;" horiz-adv-x="425" 
d="M172 0v1035h80v-1035h-80zM-49 1538h73l186 -270h5l180 270h75l-224 -325h-64z" />
    <glyph glyph-name="Ocaron" unicode="&#x1d1;" horiz-adv-x="1309" 
d="M135 556v244q0 271 138 431t382 160q243 -1 381 -161t138 -432v-242q0 -271 -138 -429t-382 -158q-245 0 -382 158t-137 429zM216 806v-256q0 -230 118 -368t320 -138t321 138q118 138 118 368v256q0 230 -119 370t-320 140q-202 0 -320 -140t-118 -370zM361 1694h86
l209 -164h5l208 164h84l-260 -207h-66z" />
    <glyph glyph-name="ocaron" unicode="&#x1d2;" horiz-adv-x="1085" 
d="M542 979q-156 -1 -248 -107t-93 -295v-123q0 -188 92 -293t249 -105t249 104t92 294v123q-1 188 -93 295t-248 107zM541 1052q190 0 307 -124t117 -340v-145q-1 -217 -117 -339t-306 -122t-306 122t-116 339v145q0 218 116 341t305 123zM281 1538h73l186 -270h5l180 270
h75l-224 -325h-64z" />
    <glyph glyph-name="Ucaron" unicode="&#x1d3;" horiz-adv-x="1310" 
d="M250 1360v-891q0 -195 106 -309t300 -114q192 0 298 114t105 309v891h83v-891q0 -229 -130 -365t-357 -135q-227 0 -357 136t-130 365v890h82zM362 1694h86l209 -164h5l208 164h84l-260 -207h-66z" />
    <glyph glyph-name="ucaron" unicode="&#x1d4;" horiz-adv-x="1100" 
d="M933 1035v-1035h-81v192h-4q-30 -86 -116 -148t-232 -62t-244 90q-99 90 -99 263v700h81v-685q0 -137 78 -215t218 -78q142 0 230 105t88 252v621h81zM289 1538h73l186 -270h5l180 270h75l-224 -325h-64z" />
    <glyph glyph-name="Udieresismacron" unicode="&#x1d5;" horiz-adv-x="1310" 
d="M924 1809h-538v56h538v-56zM250 1360v-891q0 -195 106 -309t300 -114q192 0 298 114t105 309v891h83v-891q0 -229 -130 -365t-357 -135q-227 0 -357 136t-130 365v890h82zM749 1572q0 24 17 40q17 17 41 17q25 0 41 -17q16 -16 16 -40t-16 -42t-41 -18q-24 0 -41 18
t-17 42zM460 1572q0 24 17 40q17 17 41 17t42 -17q16 -16 16 -40t-16 -42t-42 -18q-24 0 -41 18t-17 42z" />
    <glyph glyph-name="udieresismacron" unicode="&#x1d6;" horiz-adv-x="1100" 
d="M821 1524h-554v58h554v-58zM629 1292q0 28 20 48t48 20t48 -20t20 -48q0 -29 -20 -49t-48 -20q-28 1 -48 21t-20 48zM339 1292q0 28 20 48q19 20 47 20t48 -20t20 -48t-20 -49q-20 -20 -48 -20q-28 1 -47 21q-20 20 -20 48zM933 1035v-1035h-81v192h-4q-30 -86 -116 -148
t-232 -62t-244 90q-99 90 -99 263v700h81v-685q0 -137 78 -215t218 -78q142 0 230 105t88 252v621h81z" />
    <glyph glyph-name="Udieresisacute" unicode="&#x1d7;" horiz-adv-x="1310" 
d="M250 1360v-891q0 -195 106 -309t300 -114q192 0 298 114t105 309v891h83v-891q0 -229 -130 -365t-357 -135q-227 0 -357 136t-130 365v890h82zM749 1572q0 24 17 40q17 17 41 17q25 0 41 -17q16 -16 16 -40t-16 -42t-41 -18q-24 0 -41 18t-17 42zM460 1572q0 24 17 40
q17 17 41 17t42 -17q16 -16 16 -40t-16 -42t-42 -18q-24 0 -41 18t-17 42zM551 1708l299 237h104l-316 -237h-87z" />
    <glyph glyph-name="udieresisacute" unicode="&#x1d8;" horiz-adv-x="1100" 
d="M629 1292q0 28 20 48t48 20t48 -20t20 -48q0 -29 -20 -49t-48 -20q-28 1 -48 21t-20 48zM339 1292q0 28 20 48q19 20 47 20t48 -20t20 -48t-20 -49q-20 -20 -48 -20q-28 1 -47 21q-20 20 -20 48zM933 1035v-1035h-81v192h-4q-30 -86 -116 -148t-232 -62t-244 90
q-99 90 -99 263v700h81v-685q0 -137 78 -215t218 -78q142 0 230 105t88 252v621h81zM561 1451h-65l230 293h90z" />
    <glyph glyph-name="Udieresiscaron" unicode="&#x1d9;" horiz-adv-x="1310" 
d="M250 1360v-891q0 -195 106 -309t300 -114q192 0 298 114t105 309v891h83v-891q0 -229 -130 -365t-357 -135q-227 0 -357 136t-130 365v890h82zM362 1952h86l209 -164h5l208 164h84l-260 -207h-66zM749 1572q0 24 17 40q17 17 41 17q25 0 41 -17q16 -16 16 -40t-16 -42
t-41 -18q-24 0 -41 18t-17 42zM460 1572q0 24 17 40q17 17 41 17t42 -17q16 -16 16 -40t-16 -42t-42 -18q-24 0 -41 18t-17 42z" />
    <glyph glyph-name="udieresiscaron" unicode="&#x1da;" horiz-adv-x="1100" 
d="M629 1292q0 28 20 48t48 20t48 -20t20 -48q0 -29 -20 -49t-48 -20q-28 1 -48 21t-20 48zM339 1292q0 28 20 48q19 20 47 20t48 -20t20 -48t-20 -49q-20 -20 -48 -20q-28 1 -47 21q-20 20 -20 48zM933 1035v-1035h-81v192h-4q-30 -86 -116 -148t-232 -62t-244 90
q-99 90 -99 263v700h81v-685q0 -137 78 -215t218 -78q142 0 230 105t88 252v621h81zM289 1786h73l186 -270h5l180 270h75l-224 -325h-64z" />
    <glyph glyph-name="Udieresisgrave" unicode="&#x1db;" horiz-adv-x="1310" 
d="M250 1360v-891q0 -195 106 -309t300 -114q192 0 298 114t105 309v891h83v-891q0 -229 -130 -365t-357 -135q-227 0 -357 136t-130 365v890h82zM749 1572q0 24 17 40q17 17 41 17q25 0 41 -17q16 -16 16 -40t-16 -42t-41 -18q-24 0 -41 18t-17 42zM460 1572q0 24 17 40
q17 17 41 17t42 -17q16 -16 16 -40t-16 -42t-42 -18q-24 0 -41 18t-17 42zM754 1710h-88l-316 237h105z" />
    <glyph glyph-name="udieresisgrave" unicode="&#x1dc;" horiz-adv-x="1100" 
d="M629 1292q0 28 20 48t48 20t48 -20t20 -48q0 -29 -20 -49t-48 -20q-28 1 -48 21t-20 48zM339 1292q0 28 20 48q19 20 47 20t48 -20t20 -48t-20 -49q-20 -20 -48 -20q-28 1 -47 21q-20 20 -20 48zM933 1035v-1035h-81v192h-4q-30 -86 -116 -148t-232 -62t-244 90
q-99 90 -99 263v700h81v-685q0 -137 78 -215t218 -78q142 0 230 105t88 252v621h81zM646 1451h-64l-255 293h90z" />
    <glyph glyph-name="Adieresismacron" unicode="&#x1de;" horiz-adv-x="1149" 
d="M844 1809h-538v56h538v-56zM670 1572q0 24 17 40q17 17 41 17t40 -17q16 -16 17 -40q-1 -24 -17 -42t-40 -18t-41 18t-17 42zM381 1572q0 24 17 40q18 17 42 17t40 -17q16 -16 17 -40q-1 -24 -17 -42t-40 -18t-42 18q-17 18 -17 42zM576 1259h-5l-258 -731h519zM129 0
h-85l488 1360h85l488 -1360h-88l-160 458h-567z" />
    <glyph glyph-name="adieresismacron" unicode="&#x1df;" horiz-adv-x="1015" 
d="M778 1524h-554v58h554v-58zM586 1292q0 28 20 48t48 20t48 -20t20 -48q0 -29 -20 -49t-48 -20q-28 1 -48 21t-20 48zM296 1292q0 28 20 48t48 20t48 -20t19 -48q0 -28 -20 -49q-19 -20 -47 -20q-28 1 -48 21t-20 48zM461 55q125 0 218 83t93 212v157h-315
q-134 0 -201 -58t-67 -162q-1 -104 73 -168t199 -64zM104 286q0 137 90 215t261 78h317v151q0 126 -72 187t-201 61t-195 -54t-75 -127h-80q6 107 98 181t256 74q163 0 257 -80t94 -230v-742h-80v169h-4q-23 -57 -80 -103q-106 -84 -253 -84t-240 84t-93 220z" />
    <glyph glyph-name="Adotmacron" unicode="&#x1e0;" horiz-adv-x="1149" 
d="M844 1809h-538v56h538v-56zM504 1643q0 30 20 51t51 21q30 -1 51 -21t21 -50t-21 -51q-21 -20 -51 -20q-31 0 -51 20t-20 50zM576 1259h-5l-258 -731h519zM129 0h-85l488 1360h85l488 -1360h-88l-160 458h-567z" />
    <glyph glyph-name="adotmacron" unicode="&#x1e1;" horiz-adv-x="1015" 
d="M778 1524h-554v58h554v-58zM436 1318q0 30 20 51t51 21q30 0 51 -20t21 -52q0 -30 -21 -50t-51 -20q-31 0 -51 20t-20 50zM461 55q125 0 218 83t93 212v157h-315q-134 0 -201 -58t-67 -162q-1 -104 73 -168t199 -64zM104 286q0 137 90 215t261 78h317v151q0 126 -72 187
t-201 61t-195 -54t-75 -127h-80q6 107 98 181t256 74q163 0 257 -80t94 -230v-742h-80v169h-4q-23 -57 -80 -103q-106 -84 -253 -84t-240 84t-93 220z" />
    <glyph glyph-name="AEmacron" unicode="&#x1e2;" horiz-adv-x="1823" 
d="M1597 1528h-538v56h538v-56zM942 486h-543l-290 -486h-89l809 1360h886v-76h-691v-550h657v-75h-657v-584h691v-75h-773v486zM942 556v728h-68l-434 -728h502z" />
    <glyph glyph-name="aemacron" unicode="&#x1e3;" horiz-adv-x="1697" 
d="M1119 1246h-554v58h554v-58zM462 55q124 0 218 83t93 212v159h-315q-135 0 -204 -59t-69 -162t76 -168q77 -65 201 -65zM1176 979q-146 0 -234 -104t-88 -285v-13h637v10q0 185 -84 289q-85 104 -231 103zM1188 -18q-149 0 -247 72t-125 190h-7q-24 -110 -121 -186
t-248 -76q-152 0 -244 84t-92 224t92 216t261 75h316v146q-1 123 -81 187t-200 64t-186 -52t-78 -117h-80q8 103 101 173t252 70t257 -93q51 -48 71 -114h6q41 101 133 154t208 53q182 0 289 -124t107 -356v-63h-718v-66q0 -183 90 -285t232 -102t219 61q78 61 90 136h83
q-12 -95 -100 -177q-44 -42 -118 -68t-162 -26z" />
    <glyph glyph-name="Gcaron" unicode="&#x1e6;" horiz-adv-x="1263" 
d="M217 801v-228q0 -241 111 -385q112 -144 308 -144t305 94t109 259v186h-407v75h485v-261q0 -192 -128 -310t-349 -118q-260 0 -388 169t-128 435v228q0 270 139 430t373 160t353 -117t123 -267h-79q-4 114 -104 212q-100 97 -293 97t-311 -138t-119 -377zM343 1694h86
l209 -164h5l208 164h84l-260 -207h-66z" />
    <glyph glyph-name="gcaron" unicode="&#x1e7;" horiz-adv-x="1094" 
d="M526 979q-144 0 -236 -99q-94 -99 -94 -283v-117q0 -175 92 -275t234 -100q102 -1 179 53q151 105 151 316v126q0 162 -91 270t-235 109zM534 -287q146 1 232 77t86 203v255h-4q-29 -92 -121 -155q-92 -62 -214 -62q-173 1 -285 119t-113 315v150q0 211 118 324t284 113
q165 0 263 -104q48 -50 70 -109h4v196h78v-1039q0 -165 -109 -261t-299 -96q-264 -1 -352 179q-24 48 -26 98h83q7 -79 83 -141t222 -62zM286 1538h73l186 -270h5l180 270h75l-224 -325h-64z" />
    <glyph glyph-name="Kcaron" unicode="&#x1e8;" horiz-adv-x="1109" 
d="M256 1694h86l209 -164h5l208 164h84l-260 -207h-66zM272 0h-82v1360h82v-730h3l681 730h104l-558 -604l590 -756h-106l-544 700l-170 -179v-521z" />
    <glyph glyph-name="kcaron" unicode="&#x1e9;" horiz-adv-x="994" 
d="M251 0h-80v1435h80v-915h5l554 529h102l-457 -442l475 -607h-101l-434 554l-144 -131v-423zM-51 1939h73l186 -270h5l180 270h75l-224 -325h-64z" />
    <glyph glyph-name="Oogonek" unicode="&#x1ea;" horiz-adv-x="1309" 
d="M651 -31q-242 0 -379 158t-137 429v244q0 271 138 431t382 160q243 -1 381 -161t138 -432v-242q0 -315 -206 -499q-76 -70 -119 -128q-43 -57 -43 -115t36 -89t88 -31t90 14v-61q-36 -21 -109 -21t-127 45t-54 128q0 112 108 208l-1 2q-84 -40 -186 -40zM216 806v-256
q0 -230 118 -368t320 -138t321 138q118 138 118 368v256q0 230 -119 370t-320 140q-202 0 -320 -140t-118 -370z" />
    <glyph glyph-name="oogonek" unicode="&#x1eb;" horiz-adv-x="1085" 
d="M535 -18q-179 0 -297 118t-118 331v166q0 215 118 335t301 120q182 0 304 -119t122 -336v-163q0 -226 -151 -370q-49 -46 -75 -75q-71 -79 -71 -148q0 -68 36 -100t88 -32q51 0 91 14v-62q-35 -20 -109 -20t-128 45t-54 139t109 198l-4 5q-60 -46 -162 -46zM542 979
q-150 0 -246 -103q-95 -103 -95 -289v-142q0 -185 94 -287t247 -102t247 101t94 288v142q1 185 -95 289t-246 103z" />
    <glyph glyph-name="Oogonekmacron" unicode="&#x1ec;" horiz-adv-x="1309" 
d="M923 1528h-538v56h538v-56zM651 -31q-242 0 -379 158t-137 429v244q0 271 138 431t382 160q243 -1 381 -161t138 -432v-242q0 -315 -206 -499q-76 -70 -119 -128q-43 -57 -43 -115t36 -89t88 -31t90 14v-61q-36 -21 -109 -21t-127 45t-54 128q0 112 108 208l-1 2
q-84 -40 -186 -40zM216 806v-256q0 -230 118 -368t320 -138t321 138q118 138 118 368v256q0 230 -119 370t-320 140q-202 0 -320 -140t-118 -370z" />
    <glyph glyph-name="oogonekmacron" unicode="&#x1ed;" horiz-adv-x="1085" 
d="M813 1246h-554v58h554v-58zM535 -18q-179 0 -297 118t-118 331v166q0 215 118 335t301 120q182 0 304 -119t122 -336v-163q0 -226 -151 -370q-49 -46 -75 -75q-71 -79 -71 -148q0 -68 36 -100t88 -32q51 0 91 14v-62q-35 -20 -109 -20t-128 45t-54 139t109 198l-4 5
q-60 -46 -162 -46zM542 979q-150 0 -246 -103q-95 -103 -95 -289v-142q0 -185 94 -287t247 -102t247 101t94 288v142q1 185 -95 289t-246 103z" />
    <glyph glyph-name="Gacute" unicode="&#x1f4;" horiz-adv-x="1263" 
d="M217 801v-228q0 -241 111 -385q112 -144 308 -144t305 94t109 259v186h-407v75h485v-261q0 -192 -128 -310t-349 -118q-260 0 -388 169t-128 435v228q0 270 139 430t373 160t353 -117t123 -267h-79q-4 114 -104 212q-100 97 -293 97t-311 -138t-119 -377zM532 1512
l299 237h104l-316 -237h-87z" />
    <glyph glyph-name="gacute" unicode="&#x1f5;" horiz-adv-x="1094" 
d="M526 979q-144 0 -236 -99q-94 -99 -94 -283v-117q0 -175 92 -275t234 -100q102 -1 179 53q151 105 151 316v126q0 162 -91 270t-235 109zM534 -287q146 1 232 77t86 203v255h-4q-29 -92 -121 -155q-92 -62 -214 -62q-173 1 -285 119t-113 315v150q0 211 118 324t284 113
q165 0 263 -104q48 -50 70 -109h4v196h78v-1039q0 -165 -109 -261t-299 -96q-264 -1 -352 179q-24 48 -26 98h83q7 -79 83 -141t222 -62zM558 1211h-65l230 293h90z" />
    <glyph glyph-name="Ngrave" unicode="&#x1f8;" horiz-adv-x="1334" 
d="M272 0h-82v1360h85l782 -1216h4v1216h82v-1360h-84l-783 1216h-4v-1216zM766 1514h-88l-316 237h105z" />
    <glyph glyph-name="ngrave" unicode="&#x1f9;" horiz-adv-x="1101" 
d="M167 0v1035h80v-192h4q29 85 115 147t232 62t245 -98q100 -98 100 -270v-684h-81v664q0 141 -76 227t-221 86q-146 0 -232 -101t-86 -249v-627h-80zM646 1211h-64l-255 293h90z" />
    <glyph glyph-name="Aringacute" unicode="&#x1fa;" horiz-adv-x="1150" 
d="M401 1500q0 64 50 113t120 51l286 227h108l-317 -243q26 -12 48 -34q50 -50 49 -114t-33 -109t-84 -62l477 -1329h-88l-160 458h-567l-160 -458h-86l477 1329q-53 15 -87 61t-33 110zM833 528l-256 731h-6l-257 -731h519zM457 1494q-1 -48 35 -84q36 -35 84 -35t82 35
q34 36 35 84q-1 48 -35 83t-82 35t-84 -35q-35 -35 -35 -83z" />
    <glyph glyph-name="aringacute" unicode="&#x1fb;" horiz-adv-x="1015" 
d="M395 1358q0 -48 35 -84q36 -35 84 -35t82 35q34 36 35 84q-1 48 -35 82t-82 35q-48 -1 -84 -35q-35 -34 -35 -82zM684 1361q0 -76 -50 -126t-122 -50t-122 50t-51 122q1 72 51 121t123 49q36 0 66 -12l224 284h93l-272 -312q60 -50 60 -126zM461 55q125 0 218 83t93 212
v157h-315q-134 0 -201 -58t-67 -162q-1 -104 73 -168t199 -64zM104 286q0 137 90 215t261 78h317v151q0 126 -72 187t-201 61t-195 -54t-75 -127h-80q6 107 98 181t256 74q163 0 257 -80t94 -230v-742h-80v169h-4q-23 -57 -80 -103q-106 -84 -253 -84t-240 84t-93 220z" />
    <glyph glyph-name="AEacute" unicode="&#x1fc;" horiz-adv-x="1823" 
d="M942 486h-543l-290 -486h-89l809 1360h886v-76h-691v-550h657v-75h-657v-584h691v-75h-773v486zM942 556v728h-68l-434 -728h502zM1224 1512l299 237h104l-316 -237h-87z" />
    <glyph glyph-name="aeacute" unicode="&#x1fd;" horiz-adv-x="1697" 
d="M462 55q124 0 218 83t93 212v159h-315q-135 0 -204 -59t-69 -162t76 -168q77 -65 201 -65zM1176 979q-146 0 -234 -104t-88 -285v-13h637v10q0 185 -84 289q-85 104 -231 103zM1188 -18q-149 0 -247 72t-125 190h-7q-24 -110 -121 -186t-248 -76q-152 0 -244 84t-92 224
t92 216t261 75h316v146q-1 123 -81 187t-200 64t-186 -52t-78 -117h-80q8 103 101 173t252 70t257 -93q51 -48 71 -114h6q41 101 133 154t208 53q182 0 289 -124t107 -356v-63h-718v-66q0 -183 90 -285t232 -102t219 61q78 61 90 136h83q-12 -95 -100 -177q-44 -42 -118 -68
t-162 -26zM859 1211h-65l230 293h90z" />
    <glyph glyph-name="Oslashacute" unicode="&#x1fe;" horiz-adv-x="1309" 
d="M550 1512l299 237h104l-316 -237h-87zM654 44q204 0 322 137t117 369v256q0 161 -60 281l-732 -862q119 -181 353 -181zM216 550q0 -150 52 -265l731 860q-120 171 -333 171q-214 0 -332 -139t-118 -371v-256zM642 -31q-258 0 -395 192l-112 -133l-50 41l126 147
q-76 141 -76 341v242q-1 272 137 432t390 160t391 -181l118 139l52 -36l-133 -157q84 -147 84 -357v-242q0 -271 -138 -429q-136 -158 -394 -159z" />
    <glyph glyph-name="oslashacute" unicode="&#x1ff;" horiz-adv-x="1085" 
d="M553 1211h-65l230 293h90zM540 -18q-186 0 -300 123l-106 -125l-49 39l113 134q-78 115 -78 281v163q0 215 118 335t307 120q188 0 304 -134l126 145l48 -39l-133 -153q75 -115 75 -274v-163q1 -216 -119 -334t-306 -118zM200 437q0 -131 50 -220l551 643
q-93 120 -251 120t-254 -104t-96 -290v-149zM538 55q158 -1 252 101t94 289v149q0 124 -45 212l-550 -642q91 -109 249 -109z" />
    <glyph glyph-name="Adblgrave" unicode="&#x200;" horiz-adv-x="1149" 
d="M505 1514h-82l-322 240h100zM773 1514h-81l-322 240h100zM576 1259h-5l-258 -731h519zM129 0h-85l488 1360h85l488 -1360h-88l-160 458h-567z" />
    <glyph glyph-name="adblgrave" unicode="&#x201;" horiz-adv-x="1015" 
d="M596 1209l-260 302h85l236 -302h-61zM378 1209l-260 302h85l236 -302h-61zM461 55q125 0 218 83t93 212v157h-315q-134 0 -201 -58t-67 -162q-1 -104 73 -168t199 -64zM104 286q0 137 90 215t261 78h317v151q0 126 -72 187t-201 61t-195 -54t-75 -127h-80q6 107 98 181
t256 74q163 0 257 -80t94 -230v-742h-80v169h-4q-23 -57 -80 -103q-106 -84 -253 -84t-240 84t-93 220z" />
    <glyph glyph-name="Ainvertedbreve" unicode="&#x202;" horiz-adv-x="1149" 
d="M575 1688q-95 0 -151 -49t-57 -127h-67q0 98 72 168t202 70q132 0 201 -70t69 -168h-68q0 80 -53 128t-148 48zM576 1259h-5l-258 -731h519zM129 0h-85l488 1360h85l488 -1360h-88l-160 458h-567z" />
    <glyph glyph-name="ainvertedbreve" unicode="&#x203;" horiz-adv-x="1015" 
d="M239 1216q1 98 71 170t196 72t195 -72q68 -72 67 -170h-67q-1 80 -51 130t-144 50t-146 -50q-54 -50 -54 -130h-67zM461 55q125 0 218 83t93 212v157h-315q-134 0 -201 -58t-67 -162q-1 -104 73 -168t199 -64zM104 286q0 137 90 215t261 78h317v151q0 126 -72 187
t-201 61t-195 -54t-75 -127h-80q6 107 98 181t256 74q163 0 257 -80t94 -230v-742h-80v169h-4q-23 -57 -80 -103q-106 -84 -253 -84t-240 84t-93 220z" />
    <glyph glyph-name="Edblgrave" unicode="&#x204;" horiz-adv-x="1073" 
d="M966 75v-75h-776v1360h776v-76h-694v-550h660v-75h-660v-584h694zM506 1514h-82l-322 240h100zM774 1514h-81l-322 240h100z" />
    <glyph glyph-name="edblgrave" unicode="&#x205;" horiz-adv-x="1046" 
d="M612 1209l-260 302h85l236 -302h-61zM394 1209l-260 302h85l236 -302h-61zM203 581h643v4q0 184 -87 289t-235 105t-234 -105q-87 -105 -87 -289v-4zM122 457v105q0 234 108 362t294 128q188 0 296 -128t107 -361v-53h-724v-53q0 -189 88 -295t233 -106t220 63t85 142h83
q-10 -98 -102 -188q-92 -91 -281 -91q-191 0 -299 126t-108 349z" />
    <glyph glyph-name="Einvertedbreve" unicode="&#x206;" horiz-adv-x="1073" 
d="M576 1688q-96 0 -152 -49t-56 -127h-67q-1 98 71 168t204 70t200 -70q69 -70 69 -168h-68q0 80 -53 128t-148 48zM966 75v-75h-776v1360h776v-76h-694v-550h660v-75h-660v-584h694z" />
    <glyph glyph-name="einvertedbreve" unicode="&#x207;" horiz-adv-x="1046" 
d="M255 1216q1 98 71 170t196 72t195 -72q68 -72 67 -170h-67q-1 80 -51 130t-144 50t-146 -50q-54 -50 -54 -130h-67zM203 581h643v4q0 184 -87 289t-235 105t-234 -105q-87 -105 -87 -289v-4zM122 457v105q0 234 108 362t294 128q188 0 296 -128t107 -361v-53h-724v-53
q0 -189 88 -295t233 -106t220 63t85 142h83q-10 -98 -102 -188q-92 -91 -281 -91q-191 0 -299 126t-108 349z" />
    <glyph glyph-name="Idblgrave" unicode="&#x208;" horiz-adv-x="493" 
d="M176 1514h-82l-322 240h100zM444 1514h-81l-322 240h100zM287 0h-81v1360h81v-1360z" />
    <glyph glyph-name="idblgrave" unicode="&#x209;" horiz-adv-x="425" 
d="M301 1209l-260 302h85l236 -302h-61zM83 1209l-260 302h85l236 -302h-61zM172 0v1035h80v-1035h-80z" />
    <glyph glyph-name="Iinvertedbreve" unicode="&#x20a;" horiz-adv-x="493" 
d="M246 1688q-96 0 -152 -49t-56 -127h-67q-1 98 71 168t204 70t200 -70q69 -70 69 -168h-68q0 80 -53 128t-148 48zM287 0h-81v1360h81v-1360z" />
    <glyph glyph-name="iinvertedbreve" unicode="&#x20b;" horiz-adv-x="425" 
d="M-56 1216q0 98 70 170t198 72q126 0 194 -72t67 -170h-67q0 80 -50 130t-144 50t-148 -50t-53 -130h-67zM172 0v1035h80v-1035h-80z" />
    <glyph glyph-name="Odblgrave" unicode="&#x20c;" horiz-adv-x="1309" 
d="M135 556v244q0 271 138 431t382 160q243 -1 381 -161t138 -432v-242q0 -271 -138 -429t-382 -158q-245 0 -382 158t-137 429zM216 806v-256q0 -230 118 -368t320 -138t321 138q118 138 118 368v256q0 230 -119 370t-320 140q-202 0 -320 -140t-118 -370zM584 1514h-82
l-322 240h100zM852 1514h-81l-322 240h100z" />
    <glyph glyph-name="odblgrave" unicode="&#x20d;" horiz-adv-x="1085" 
d="M631 1209l-260 302h85l236 -302h-61zM413 1209l-260 302h85l236 -302h-61zM542 979q-156 -1 -248 -107t-93 -295v-123q0 -188 92 -293t249 -105t249 104t92 294v123q-1 188 -93 295t-248 107zM541 1052q190 0 307 -124t117 -340v-145q-1 -217 -117 -339t-306 -122
t-306 122t-116 339v145q0 218 116 341t305 123z" />
    <glyph glyph-name="Oinvertedbreve" unicode="&#x20e;" horiz-adv-x="1309" 
d="M135 556v244q0 271 138 431t382 160q243 -1 381 -161t138 -432v-242q0 -271 -138 -429t-382 -158q-245 0 -382 158t-137 429zM216 806v-256q0 -230 118 -368t320 -138t321 138q118 138 118 368v256q0 230 -119 370t-320 140q-202 0 -320 -140t-118 -370zM654 1688
q-96 0 -152 -49t-56 -127h-67q-1 98 71 168t204 70t200 -70q69 -70 69 -168h-68q0 80 -53 128t-148 48z" />
    <glyph glyph-name="oinvertedbreve" unicode="&#x20f;" horiz-adv-x="1085" 
d="M274 1216q0 98 70 170t198 72q126 0 194 -72t67 -170h-67q0 80 -50 130t-144 50t-148 -50t-53 -130h-67zM542 979q-156 -1 -248 -107t-93 -295v-123q0 -188 92 -293t249 -105t249 104t92 294v123q-1 188 -93 295t-248 107zM541 1052q190 0 307 -124t117 -340v-145
q-1 -217 -117 -339t-306 -122t-306 122t-116 339v145q0 218 116 341t305 123z" />
    <glyph glyph-name="Rdblgrave" unicode="&#x210;" horiz-adv-x="1187" 
d="M272 667h351q158 1 250 83t92 226q1 144 -91 227t-249 83h-353v-619zM637 1360q191 0 301 -106t110 -267t-80 -253t-209 -124l312 -610h-95l-302 594h-402v-594h-82v1360h447zM514 1514h-82l-322 240h100zM782 1514h-81l-322 240h100z" />
    <glyph glyph-name="rdblgrave" unicode="&#x211;" horiz-adv-x="667" 
d="M440 1209l-260 302h85l236 -302h-61zM222 1209l-260 302h85l236 -302h-61zM171 0v1035h81v-191h4q19 76 90 142q70 65 206 65q36 0 85 -7v-78q-36 9 -92 9q-129 -1 -211 -87t-82 -249v-639h-81z" />
    <glyph glyph-name="Rinvertedbreve" unicode="&#x212;" horiz-adv-x="1187" 
d="M584 1688q-96 0 -152 -49t-56 -127h-67q-1 98 71 168t204 70t200 -70q69 -70 69 -168h-68q0 80 -53 128t-148 48zM272 667h351q158 1 250 83t92 226q1 144 -91 227t-249 83h-353v-619zM637 1360q191 0 301 -106t110 -267t-80 -253t-209 -124l312 -610h-95l-302 594h-402
v-594h-82v1360h447z" />
    <glyph glyph-name="rinvertedbreve" unicode="&#x213;" horiz-adv-x="667" 
d="M83 1216q1 98 71 170t196 72t195 -72q68 -72 67 -170h-67q-1 80 -51 130t-144 50t-146 -50q-54 -50 -54 -130h-67zM171 0v1035h81v-191h4q19 76 90 142q70 65 206 65q36 0 85 -7v-78q-36 9 -92 9q-129 -1 -211 -87t-82 -249v-639h-81z" />
    <glyph glyph-name="Udblgrave" unicode="&#x214;" horiz-adv-x="1310" 
d="M250 1360v-891q0 -195 106 -309t300 -114q192 0 298 114t105 309v891h83v-891q0 -229 -130 -365t-357 -135q-227 0 -357 136t-130 365v890h82zM585 1514h-82l-322 240h100zM853 1514h-81l-322 240h100z" />
    <glyph glyph-name="udblgrave" unicode="&#x215;" horiz-adv-x="1100" 
d="M639 1209l-260 302h85l236 -302h-61zM421 1209l-260 302h85l236 -302h-61zM933 1035v-1035h-81v192h-4q-30 -86 -116 -148t-232 -62t-244 90q-99 90 -99 263v700h81v-685q0 -137 78 -215t218 -78q142 0 230 105t88 252v621h81z" />
    <glyph glyph-name="Uinvertedbreve" unicode="&#x216;" horiz-adv-x="1310" 
d="M655 1688q-95 0 -151 -49t-57 -127h-67q0 98 72 168t202 70q132 0 201 -70t69 -168h-68q0 80 -53 128t-148 48zM250 1360v-891q0 -195 106 -309t300 -114q192 0 298 114t105 309v891h83v-891q0 -229 -130 -365t-357 -135q-227 0 -357 136t-130 365v890h82z" />
    <glyph glyph-name="uinvertedbreve" unicode="&#x217;" horiz-adv-x="1100" 
d="M282 1216q0 98 70 170t198 72q126 0 194 -72t67 -170h-67q0 80 -50 130t-144 50t-148 -50t-53 -130h-67zM933 1035v-1035h-81v192h-4q-30 -86 -116 -148t-232 -62t-244 90q-99 90 -99 263v700h81v-685q0 -137 78 -215t218 -78q142 0 230 105t88 252v621h81z" />
    <glyph glyph-name="Scommaaccent" unicode="&#x218;" horiz-adv-x="1141" 
d="M502 -481h-60l85 335h89zM100 345h83q4 -105 89 -197q44 -46 122 -75t179 -29q169 0 273 84t105 208q0 126 -76 190t-241 107l-178 48q-311 83 -311 345q0 166 120 266t315 100q196 0 312 -98t118 -246h-84q-4 101 -87 185t-252 84t-263 -79q-94 -80 -95 -200
q0 -120 65 -183t199 -99l172 -47q184 -51 277 -127t93 -243q0 -166 -131 -268t-340 -102q-276 -1 -399 177q-65 94 -65 199z" />
    <glyph glyph-name="scommaaccent" unicode="&#x219;" horiz-adv-x="956" 
d="M416 -481h-60l85 335h89zM129 772q0 132 97 206t250 74q255 0 331 -184q19 -46 19 -93h-79q0 67 -62 136q-62 70 -193 70t-206 -53q-75 -54 -75 -146q1 -92 67 -138t223 -85t196 -61q86 -45 118 -95t32 -135q0 -86 -53 -154q-102 -132 -326 -132q-270 0 -352 184
q-22 48 -22 100h80q4 -75 72 -143q68 -69 210 -69q143 0 226 56t83 152t-63 138q-63 41 -129 59q-65 18 -119 31t-102 29q-113 38 -168 96t-55 157z" />
    <glyph glyph-name="Tcommaaccent" unicode="&#x21a;" horiz-adv-x="1025" 
d="M554 0h-81v1285h-459v75h997v-75h-457v-1285zM450 -481h-60l85 335h89z" />
    <glyph glyph-name="tcommaaccent" unicode="&#x21b;" horiz-adv-x="664" 
d="M223 1035v252h81v-252h277v-71h-277v-733q0 -92 44 -128t128 -36q82 0 118 6v-68q-42 -7 -105 -7q-151 0 -209 54t-57 193v719h-194v71h194zM332 -481h-60l85 335h89z" />
    <glyph glyph-name="Hcaron" unicode="&#x21e;" horiz-adv-x="1334" 
d="M374 1694h86l209 -164h5l208 164h84l-260 -207h-66zM1143 0h-82v676h-789v-676h-82v1360h82v-609h789v609h82v-1360z" />
    <glyph glyph-name="hcaron" unicode="&#x21f;" horiz-adv-x="1114" 
d="M-51 1939h73l186 -270h5l180 270h75l-224 -325h-64zM171 0v1435h80v-592h4q27 85 113 147t233 62q148 0 249 -102t101 -277v-673h-81v661q0 139 -77 227t-222 89t-233 -101t-87 -250v-626h-80z" />
    <glyph glyph-name="Adotaccent" unicode="&#x226;" horiz-adv-x="1149" 
d="M504 1643q0 30 20 51t51 21q30 -1 51 -21t21 -50t-21 -51q-21 -20 -51 -20q-31 0 -51 20t-20 50zM576 1259h-5l-258 -731h519zM129 0h-85l488 1360h85l488 -1360h-88l-160 458h-567z" />
    <glyph glyph-name="adotaccent" unicode="&#x227;" horiz-adv-x="1015" 
d="M436 1318q0 30 20 51t51 21q30 0 51 -20t21 -52q0 -30 -21 -50t-51 -20q-31 0 -51 20t-20 50zM461 55q125 0 218 83t93 212v157h-315q-134 0 -201 -58t-67 -162q-1 -104 73 -168t199 -64zM104 286q0 137 90 215t261 78h317v151q0 126 -72 187t-201 61t-195 -54t-75 -127
h-80q6 107 98 181t256 74q163 0 257 -80t94 -230v-742h-80v169h-4q-23 -57 -80 -103q-106 -84 -253 -84t-240 84t-93 220z" />
    <glyph glyph-name="Ecedilla" unicode="&#x228;" horiz-adv-x="1073" 
d="M529 -397q68 1 113 27t45 78q0 99 -153 99h-50v48l62 145h-356v1360h776v-76h-694v-550h660v-75h-660v-584h694v-75h-353l-56 -134q87 0 147 -38t60 -119t-66 -124t-148 -44t-135 15v63q46 -16 114 -16z" />
    <glyph glyph-name="ecedilla" unicode="&#x229;" horiz-adv-x="1046" 
d="M498 -401q70 1 114 27q45 26 45 77q0 99 -153 99h-50v48l57 133q-185 9 -287 133t-102 341v105q0 234 108 362t294 128q188 0 296 -128t107 -361v-53h-724v-53q0 -189 88 -295t233 -106t220 63t85 142h83q-10 -92 -92 -179t-241 -99l-52 -122q87 0 147 -38
q60 -39 60 -119t-66 -124t-148 -44q-82 -1 -135 15v63q43 -15 113 -15zM203 581h643v4q0 184 -87 289t-235 105t-234 -105q-87 -105 -87 -289v-4z" />
    <glyph glyph-name="Odieresismacron" unicode="&#x22a;" horiz-adv-x="1309" 
d="M923 1809h-538v56h538v-56zM135 556v244q0 271 138 431t382 160q243 -1 381 -161t138 -432v-242q0 -271 -138 -429t-382 -158q-245 0 -382 158t-137 429zM216 806v-256q0 -230 118 -368t320 -138t321 138q118 138 118 368v256q0 230 -119 370t-320 140q-202 0 -320 -140
t-118 -370zM749 1572q0 24 17 40q17 17 41 17q25 0 41 -17q16 -16 16 -40t-16 -42t-41 -18q-24 0 -41 18t-17 42zM460 1572q0 24 17 40q17 17 41 17t42 -17q16 -16 16 -40t-16 -42t-42 -18q-24 0 -41 18t-17 42z" />
    <glyph glyph-name="odieresismacron" unicode="&#x22b;" horiz-adv-x="1085" 
d="M813 1524h-554v58h554v-58zM542 979q-156 -1 -248 -107t-93 -295v-123q0 -188 92 -293t249 -105t249 104t92 294v123q-1 188 -93 295t-248 107zM541 1052q190 0 307 -124t117 -340v-145q-1 -217 -117 -339t-306 -122t-306 122t-116 339v145q0 218 116 341t305 123z
M621 1292q0 28 20 48t48 20t48 -20t20 -48q0 -29 -20 -49t-48 -20q-28 1 -48 21t-20 48zM331 1292q0 28 20 48q19 20 47 20t48 -20t20 -48t-20 -49q-20 -20 -48 -20q-28 1 -47 21q-20 20 -20 48z" />
    <glyph glyph-name="Otildemacron" unicode="&#x22c;" horiz-adv-x="1309" 
d="M923 1809h-538v56h538v-56zM517 1636q-88 0 -88 -129h-58q1 87 39 136t95 49t89 -20t64 -60q33 -40 54 -54q22 -14 58 -14t64 38t29 99h58q0 -81 -44 -135q-45 -54 -103 -55q-58 0 -88 17t-65 55q-28 37 -51 55t-53 18zM135 556v244q0 271 138 431t382 160
q243 -1 381 -161t138 -432v-242q0 -271 -138 -429t-382 -158q-245 0 -382 158t-137 429zM216 806v-256q0 -230 118 -368t320 -138t321 138q118 138 118 368v256q0 230 -119 370t-320 140q-202 0 -320 -140t-118 -370z" />
    <glyph glyph-name="otildemacron" unicode="&#x22d;" horiz-adv-x="1085" 
d="M542 979q-156 -1 -248 -107t-93 -295v-123q0 -188 92 -293t249 -105t249 104t92 294v123q-1 188 -93 295t-248 107zM541 1052q190 0 307 -124t117 -340v-145q-1 -217 -117 -339t-306 -122t-306 122t-116 339v145q0 218 116 341t305 123zM813 1524h-554v58h554v-58z
M386 1364q-99 0 -99 -147h-65q0 100 43 155t107 55q64 -1 100 -23t72 -67t61 -61t67 -15q42 -1 72 43q32 44 33 112h64q0 -92 -49 -154t-115 -62q-65 0 -101 20t-70 60q-34 42 -60 63q-27 21 -60 21z" />
    <glyph glyph-name="Odotaccent" unicode="&#x22e;" horiz-adv-x="1309" 
d="M135 556v244q0 271 138 431t382 160q243 -1 381 -161t138 -432v-242q0 -271 -138 -429t-382 -158q-245 0 -382 158t-137 429zM216 806v-256q0 -230 118 -368t320 -138t321 138q118 138 118 368v256q0 230 -119 370t-320 140q-202 0 -320 -140t-118 -370zM583 1643
q1 30 21 51t50 21q30 -1 51 -21t21 -50t-21 -51q-21 -20 -51 -20t-50 20t-21 50z" />
    <glyph glyph-name="odotaccent" unicode="&#x22f;" horiz-adv-x="1085" 
d="M542 979q-156 -1 -248 -107t-93 -295v-123q0 -188 92 -293t249 -105t249 104t92 294v123q-1 188 -93 295t-248 107zM541 1052q190 0 307 -124t117 -340v-145q-1 -217 -117 -339t-306 -122t-306 122t-116 339v145q0 218 116 341t305 123zM471 1318q1 30 21 51t50 21
t51 -20t21 -52q0 -30 -21 -50t-51 -20t-50 20t-21 50z" />
    <glyph glyph-name="Odotaccentmacron" unicode="&#x230;" horiz-adv-x="1309" 
d="M923 1809h-538v56h538v-56zM135 556v244q0 271 138 431t382 160q243 -1 381 -161t138 -432v-242q0 -271 -138 -429t-382 -158q-245 0 -382 158t-137 429zM216 806v-256q0 -230 118 -368t320 -138t321 138q118 138 118 368v256q0 230 -119 370t-320 140q-202 0 -320 -140
t-118 -370zM583 1643q1 30 21 51t50 21q30 -1 51 -21t21 -50t-21 -51q-21 -20 -51 -20t-50 20t-21 50z" />
    <glyph glyph-name="odotaccentmacron" unicode="&#x231;" horiz-adv-x="1085" 
d="M542 979q-156 -1 -248 -107t-93 -295v-123q0 -188 92 -293t249 -105t249 104t92 294v123q-1 188 -93 295t-248 107zM541 1052q190 0 307 -124t117 -340v-145q-1 -217 -117 -339t-306 -122t-306 122t-116 339v145q0 218 116 341t305 123zM813 1524h-554v58h554v-58z
M471 1318q1 30 21 51t50 21t51 -20t21 -52q0 -30 -21 -50t-51 -20t-50 20t-21 50z" />
    <glyph glyph-name="Ymacron" unicode="&#x232;" horiz-adv-x="1060" 
d="M799 1528h-538v56h538v-56zM571 0h-81v607l-470 753h96l411 -668h6l413 668h94l-469 -751v-609z" />
    <glyph glyph-name="ymacron" unicode="&#x233;" horiz-adv-x="921" 
d="M731 1246h-554v58h554v-58zM196 -341q-47 0 -94 9v73q40 -9 104 -9q126 0 183 159l34 96l-387 1048h89l337 -951h5l332 951h86l-416 -1152q-44 -115 -104 -169t-169 -55z" />
    <glyph glyph-name="circumflex" unicode="&#x2c6;" horiz-adv-x="805" 
d="M151 1219l231 325h64l224 -325h-75l-180 270h-4l-186 -270h-74z" />
    <glyph glyph-name="caron" unicode="&#x2c7;" horiz-adv-x="805" 
d="M135 1566h73l186 -270h5l180 270h75l-224 -325h-64z" />
    <glyph glyph-name="breve" unicode="&#x2d8;" horiz-adv-x="805" 
d="M137 1488h68q-1 -80 53 -130t148 -51q94 0 144 50t50 131h67q0 -138 -115 -206q-61 -36 -146 -36q-127 0 -198 72t-71 170z" />
    <glyph glyph-name="dotaccent" unicode="&#x2d9;" horiz-adv-x="805" 
d="M337 1380q0 32 22 54q21 22 53 23q32 -1 54 -23t23 -54q-1 -32 -23 -53q-22 -22 -54 -22t-53 22q-22 21 -22 53z" />
    <glyph glyph-name="ring" unicode="&#x2da;" horiz-adv-x="805" 
d="M293 1392q0 -48 35 -84q36 -35 84 -35t82 35q34 36 35 84q-1 48 -35 82t-82 35q-48 -1 -84 -35q-35 -34 -35 -82zM410 1219q-72 0 -122 50t-51 122q1 72 51 121t122 49t122 -49t50 -121t-50 -122t-122 -50z" />
    <glyph glyph-name="ogonek" unicode="&#x2db;" horiz-adv-x="805" 
d="M423 -359q-67 -1 -117 41t-49 131t111 194q10 9 41 38l69 -16q-145 -104 -145 -212q-1 -51 29 -79t78 -28t84 12v-64q-34 -17 -101 -17z" />
    <glyph glyph-name="tilde" unicode="&#x2dc;" horiz-adv-x="805" 
d="M242 1403q-99 0 -99 -147h-65q0 100 43 155t107 55t100 -22t72 -68q36 -44 61 -60t67 -16t72 44q32 44 33 111h64q0 -92 -49 -154t-115 -62q-65 -1 -101 19t-70 62t-60 62q-27 21 -60 21z" />
    <glyph glyph-name="hungarumlaut" unicode="&#x2dd;" horiz-adv-x="805" 
d="M412 1209h-61l236 302h85zM194 1209h-61l237 302h84z" />
    <glyph glyph-name="gravecmb" unicode="&#x300;" 
d="M96 1211h-64l-255 293h90z" />
    <glyph glyph-name="acutecmb" unicode="&#x301;" 
d="M11 1211h-65l230 293h90z" />
    <glyph glyph-name="circumflexcmb" unicode="&#x302;" 
d="M-260 1232l231 325h64l224 -325h-75l-180 270h-4l-186 -270h-74z" />
    <glyph glyph-name="tildecmb" unicode="&#x303;" 
d="M-156 1364q-99 0 -99 -147h-65q0 100 43 155t107 55q64 -1 100 -23t72 -67t61 -61t67 -15q42 -1 72 43q32 44 33 112h64q0 -92 -49 -154t-115 -62q-65 0 -101 20t-70 60q-34 42 -60 63q-27 21 -60 21z" />
    <glyph glyph-name="macroncmb" unicode="&#x304;" 
d="M271 1246h-554v58h554v-58z" />
    <glyph glyph-name="brevecmb" unicode="&#x306;" 
d="M-274 1434h68q0 -80 54 -130t146 -51q94 0 144 50t51 131h67q0 -138 -115 -206q-61 -36 -146 -36q-127 0 -198 72t-71 170z" />
    <glyph glyph-name="dotaccentcmb" unicode="&#x307;" 
d="M-71 1318q1 30 21 51t50 21t51 -20t21 -52q0 -30 -21 -50t-51 -20t-50 20t-21 50z" />
    <glyph glyph-name="dieresiscmb" unicode="&#x308;" 
d="M79 1292q0 28 20 48t48 20t48 -20t20 -48q0 -29 -20 -49t-48 -20q-28 1 -48 21t-20 48zM-211 1292q0 28 20 48q19 20 47 20t48 -20t20 -48t-20 -49q-20 -20 -48 -20q-28 1 -47 21q-20 20 -20 48z" />
    <glyph glyph-name="hookabovecmb" unicode="&#x309;" 
d="M-8 1504q74 0 123 -42t49 -120q0 -79 -110 -149l-41 49q82 51 82 109q0 41 -32 65q-31 24 -85 24t-95 -24v62q35 26 109 26z" />
    <glyph glyph-name="ringcmb" unicode="&#x30a;" 
d="M-118 1358q0 -48 35 -84q35 -35 83 -35t84 35q34 36 34 84t-34 82t-84 35q-48 -1 -83 -35t-35 -82zM-1 1185q-73 0 -123 50t-50 122t50 121t123 49q72 0 122 -49t50 -121t-50 -122t-122 -50z" />
    <glyph glyph-name="hungarumlautcmb" unicode="&#x30b;" 
d="M123 1211h-61l236 302h85zM-95 1211h-61l237 302h84z" />
    <glyph glyph-name="caroncmb" unicode="&#x30c;" 
d="M-261 1538h73l186 -270h5l180 270h75l-224 -325h-64z" />
    <glyph glyph-name="dblgravecmb" unicode="&#x30f;" 
d="M89 1209l-260 302h85l236 -302h-61zM-129 1209l-260 302h85l236 -302h-61z" />
    <glyph glyph-name="invertedbrevecmb" unicode="&#x311;" 
d="M-268 1216q0 98 70 170t198 72q126 0 194 -72t67 -170h-67q0 80 -50 130t-144 50t-148 -50t-53 -130h-67z" />
    <glyph glyph-name="horncmb" unicode="&#x31b;" 
d="M45 1040q76 0 117 40t41 112v118h76v-116q1 -112 -61 -170t-163 -58q-43 0 -55 8v76q10 -10 45 -10z" />
    <glyph glyph-name="dotbelowcmb" unicode="&#x323;" 
d="M-70 -288q0 30 20 51t52 21q30 0 51 -20t21 -52q0 -31 -21 -51t-51 -20q-30 1 -52 21q-20 20 -20 50z" />
    <glyph glyph-name="dieresisbelowcmb" unicode="&#x324;" 
d="M79 -265q0 28 20 48t48 20q28 1 48 -19t20 -49t-20 -49t-48 -20t-48 20t-20 49zM-211 -265q0 28 20 48q19 20 47 20q28 1 48 -19t20 -49t-20 -49t-48 -20t-47 20q-20 20 -20 49z" />
    <glyph glyph-name="ringbelowcmb" unicode="&#x325;" 
d="M-119 -310q0 -48 35 -83q36 -35 84 -35t82 35t35 83q-1 48 -35 84q-34 34 -82 34t-84 -34q-35 -36 -35 -84zM-2 -482q-72 0 -122 50t-51 122q1 72 51 121t122 49t122 -49t50 -121t-50 -122t-122 -50z" />
    <glyph glyph-name="commabelowcmb" unicode="&#x326;" 
d="M-62 -481h-60l85 335h89z" />
    <glyph glyph-name="cedillacmb" unicode="&#x327;" 
d="M-95 -198v48l65 152h67l-58 -141q88 0 147 -38q59 -39 59 -119t-66 -124q-65 -44 -147 -44q-82 -1 -136 15v63q46 -15 114 -15t113 26t45 78q0 99 -153 99h-50z" />
    <glyph glyph-name="ogonekcmb" unicode="&#x328;" 
d="M14 -359q-66 -1 -116 41t-50 131t110 194q10 9 42 38l69 -16q-145 -104 -145 -212q0 -51 30 -79t78 -28t83 12v-64q-34 -17 -101 -17z" />
    <glyph glyph-name="circumflexbelowcmb" unicode="&#x32d;" 
d="M-261 -421l231 324h64l224 -325h-75l-180 270h-5l-186 -269h-73z" />
    <glyph glyph-name="brevebelowcmb" unicode="&#x32e;" 
d="M-273 -144h70q0 -80 54 -130q55 -50 149 -50t145 50t51 130h68q0 -98 -68 -170t-197 -72t-201 72t-71 170z" />
    <glyph glyph-name="tildebelowcmb" unicode="&#x330;" 
d="M-144 -220q-98 0 -100 -148h-64q0 101 42 156t124 55q48 -1 84 -23t72 -68q37 -46 62 -60q25 -16 66 -16t72 44t32 112h65q1 -92 -49 -154t-116 -62t-102 20t-68 61q-34 43 -60 63t-60 20z" />
    <glyph glyph-name="macronbelowcmb" unicode="&#x331;" 
d="M270 -279h-554v58h554v-58z" />
    <glyph glyph-name="Delta" unicode="&#x394;" horiz-adv-x="1150" 
d="M571 1259l-415 -1184h835l-414 1184h-6zM44 0l488 1360h86l487 -1360h-1061z" />
    <glyph glyph-name="Omega" unicode="&#x3a9;" horiz-adv-x="1309" 
d="M765 0v118q147 39 237 176t91 326v207q0 229 -118 359t-321 130q-202 0 -320 -130t-118 -359v-207q0 -189 90 -325t235 -176v-119h-423v73h333v21q-124 41 -220 175q-96 135 -96 357v195q1 269 139 419t380 151q242 -1 381 -151q138 -150 138 -419v-195q0 -314 -203 -470
q-55 -42 -116 -62v-22h337v-72h-426z" />
    <glyph glyph-name="mu" unicode="&#x3bc;" horiz-adv-x="1157" 
d="M157 -332v1367h81v-693q0 -134 76 -210t205 -77q77 1 141 31t106 80q86 105 86 243v626h81v-850q0 -122 98 -122q22 0 62 9v-71q-44 -8 -102 -8q-57 0 -97 43t-41 122l-1 44h-5q-30 -88 -116 -154t-223 -66q-90 0 -164 36t-109 107h-6l13 -457h-85z" />
    <glyph glyph-name="pi" unicode="&#x3c0;" horiz-adv-x="1214" 
d="M978 -4q-149 0 -149 146v819h-448v-961h-82v961h-251v74h1111v-74h-249v-806q0 -88 86 -88q44 0 68 4v-70q-45 -5 -86 -5z" />
    <glyph glyph-name="Aringbelow" unicode="&#x1e00;" horiz-adv-x="1150" 
d="M459 -272q0 -48 35 -83q36 -35 84 -35t82 35t35 83q-1 48 -35 84q-34 34 -82 34t-84 -34q-35 -36 -35 -84zM576 -444q-72 0 -122 50t-51 122q1 72 51 121t122 49t122 -49t50 -121t-50 -122t-122 -50zM576 1259h-5l-258 -731h519zM129 0h-85l488 1360h85l488 -1360h-88
l-160 458h-567z" />
    <glyph glyph-name="aringbelow" unicode="&#x1e01;" horiz-adv-x="1015" 
d="M388 -310q0 -48 35 -83t83 -35t84 35q34 35 34 83t-34 84q-34 34 -84 34q-48 0 -83 -34q-35 -36 -35 -84zM505 -482q-73 0 -123 50t-50 122t50 121t123 49q72 0 122 -49t50 -121t-50 -122t-122 -50zM461 55q125 0 218 83t93 212v157h-315q-134 0 -201 -58t-67 -162
q-1 -104 73 -168t199 -64zM104 286q0 137 90 215t261 78h317v151q0 126 -72 187t-201 61t-195 -54t-75 -127h-80q6 107 98 181t256 74q163 0 257 -80t94 -230v-742h-80v169h-4q-23 -57 -80 -103q-106 -84 -253 -84t-240 84t-93 220z" />
    <glyph glyph-name="Bdotaccent" unicode="&#x1e02;" horiz-adv-x="1208" 
d="M522 1643q0 30 20 51t51 21q30 -1 51 -21t21 -50t-21 -51q-21 -20 -51 -20q-31 0 -51 20t-20 50zM272 661v-586h361q181 1 283 75t102 218t-101 218t-258 75h-387zM272 1285v-549h338q144 0 238 71t94 205t-86 204t-238 69h-346zM190 0v1360h441q183 0 289 -88t106 -245
q0 -194 -158 -284q-38 -22 -76 -31v-5q134 -14 222 -100t88 -248q0 -163 -118 -261t-330 -98h-464z" />
    <glyph glyph-name="bdotaccent" unicode="&#x1e03;" horiz-adv-x="1106" 
d="M576 56q144 0 238 98q92 98 92 285v158q0 179 -90 281t-240 101q-149 0 -237 -112t-88 -263v-170q1 -162 91 -270t234 -108zM249 199v-199h-79v1435h81v-599h4q55 150 216 199q56 17 122 17q175 0 285 -120t110 -321v-185q0 -216 -116 -330t-278 -114q-153 0 -234 70
t-107 147h-4zM139 1719q1 30 21 51t50 21q30 -1 51 -21t21 -50t-21 -51q-21 -20 -51 -20t-50 20t-21 50z" />
    <glyph glyph-name="Bdotbelow" unicode="&#x1e04;" horiz-adv-x="1208" 
d="M272 661v-586h361q181 1 283 75t102 218t-101 218t-258 75h-387zM272 1285v-549h338q144 0 238 71t94 205t-86 204t-238 69h-346zM190 0v1360h441q183 0 289 -88t106 -245q0 -194 -158 -284q-38 -22 -76 -31v-5q134 -14 222 -100t88 -248q0 -163 -118 -261t-330 -98h-464
zM523 -288q1 30 21 51t50 21t52 -20q21 -20 21 -52q0 -31 -21 -51q-22 -20 -52 -20q-30 1 -50 21t-21 50z" />
    <glyph glyph-name="bdotbelow" unicode="&#x1e05;" horiz-adv-x="1106" 
d="M576 56q144 0 238 98q92 98 92 285v158q0 179 -90 281t-240 101q-149 0 -237 -112t-88 -263v-170q1 -162 91 -270t234 -108zM249 199v-199h-79v1435h81v-599h4q55 150 216 199q56 17 122 17q175 0 285 -120t110 -321v-185q0 -216 -116 -330t-278 -114q-153 0 -234 70
t-107 147h-4zM483 -288q1 30 21 51t50 21t52 -20q21 -20 21 -52q0 -31 -21 -51q-22 -20 -52 -20q-30 1 -50 21t-21 50z" />
    <glyph glyph-name="Blinebelow" unicode="&#x1e06;" horiz-adv-x="1208" 
d="M863 -279h-554v58h554v-58zM272 661v-586h361q181 1 283 75t102 218t-101 218t-258 75h-387zM272 1285v-549h338q144 0 238 71t94 205t-86 204t-238 69h-346zM190 0v1360h441q183 0 289 -88t106 -245q0 -194 -158 -284q-38 -22 -76 -31v-5q134 -14 222 -100t88 -248
q0 -163 -118 -261t-330 -98h-464z" />
    <glyph glyph-name="blinebelow" unicode="&#x1e07;" horiz-adv-x="1106" 
d="M576 56q144 0 238 98q92 98 92 285v158q0 179 -90 281t-240 101q-149 0 -237 -112t-88 -263v-170q1 -162 91 -270t234 -108zM249 199v-199h-79v1435h81v-599h4q55 150 216 199q56 17 122 17q175 0 285 -120t110 -321v-185q0 -216 -116 -330t-278 -114q-153 0 -234 70
t-107 147h-4zM823 -279h-554v58h554v-58z" />
    <glyph glyph-name="Ccedillaacute" unicode="&#x1e08;" horiz-adv-x="1245" 
d="M612 -409q68 0 113 26t45 78q0 100 -152 100h-51v48l55 127q-250 8 -368 174q-119 166 -119 419v231q0 259 128 428t382 169q113 0 205 -38t149 -99q117 -127 117 -278v-3h-80q0 123 -100 229q-108 114 -298 114q-98 0 -182 -40q-82 -40 -134 -110q-104 -143 -105 -363
v-248q0 -220 106 -365q106 -146 327 -146q178 0 286 98t109 239h80v-3q1 -102 -49 -190t-151 -149t-236 -69l-48 -117q88 0 147 -38q59 -39 59 -119t-66 -123t-147 -45t-135 16v63q45 -16 113 -16zM540 1512l299 237h104l-316 -237h-87z" />
    <glyph glyph-name="ccedillaacute" unicode="&#x1e09;" horiz-adv-x="1019" 
d="M490 -396q70 0 115 26t45 78q0 99 -150 99h-51v48l57 128q-180 8 -283 128t-103 332v156q0 211 112 332t294 121t281 -98q98 -98 105 -216h-80q-12 97 -92 169t-221 72q-141 -1 -229 -105t-89 -288v-136q0 -186 89 -289t245 -103q197 0 272 142q20 38 28 79h79
q-8 -102 -91 -192q-83 -91 -249 -103l-51 -118q88 0 146 -38t58 -118t-66 -124q-67 -44 -151 -45t-132 16v62q42 -15 112 -15zM532 1211h-65l230 293h90z" />
    <glyph glyph-name="Ddotaccent" unicode="&#x1e0a;" horiz-adv-x="1294" 
d="M272 1285v-1210h284q268 1 396 159t129 446q0 385 -226 529q-119 76 -299 76h-284zM190 1360h366q460 0 574 -402q34 -122 34 -262t-20 -242q-43 -214 -186 -334t-402 -120h-366v1360zM564 1643q0 30 20 51t51 21q30 -1 51 -21t21 -50t-21 -51q-21 -20 -51 -20
q-31 0 -51 20t-20 50z" />
    <glyph glyph-name="ddotaccent" unicode="&#x1e0b;" horiz-adv-x="1107" 
d="M527 978q-145 0 -237 -100t-91 -286v-153q-1 -177 89 -280t239 -103t239 110t89 271v158q1 167 -91 275t-237 108zM855 839v596h80v-1435h-78v202h-4q-14 -50 -52 -93q-39 -43 -75 -68q-86 -59 -213 -59q-177 0 -286 120t-109 321v188q0 208 113 325t298 117t287 -145
q24 -34 35 -69h4zM825 1719q1 30 21 51t50 21q30 -1 51 -21t21 -50t-21 -51q-21 -20 -51 -20t-50 20t-21 50z" />
    <glyph glyph-name="Ddotbelow" unicode="&#x1e0c;" horiz-adv-x="1294" 
d="M272 1285v-1210h284q268 1 396 159t129 446q0 385 -226 529q-119 76 -299 76h-284zM190 1360h366q460 0 574 -402q34 -122 34 -262t-20 -242q-43 -214 -186 -334t-402 -120h-366v1360zM565 -288q1 30 21 51t50 21t52 -20q21 -20 21 -52q0 -31 -21 -51q-22 -20 -52 -20
q-30 1 -50 21t-21 50z" />
    <glyph glyph-name="ddotbelow" unicode="&#x1e0d;" horiz-adv-x="1107" 
d="M527 978q-145 0 -237 -100t-91 -286v-153q-1 -177 89 -280t239 -103t239 110t89 271v158q1 167 -91 275t-237 108zM855 839v596h80v-1435h-78v202h-4q-14 -50 -52 -93q-39 -43 -75 -68q-86 -59 -213 -59q-177 0 -286 120t-109 321v188q0 208 113 325t298 117t287 -145
q24 -34 35 -69h4zM483 -288q1 30 21 51t50 21t52 -20q21 -20 21 -52q0 -31 -21 -51q-22 -20 -52 -20q-30 1 -50 21t-21 50z" />
    <glyph glyph-name="Dlinebelow" unicode="&#x1e0e;" horiz-adv-x="1294" 
d="M272 1285v-1210h284q268 1 396 159t129 446q0 385 -226 529q-119 76 -299 76h-284zM190 1360h366q460 0 574 -402q34 -122 34 -262t-20 -242q-43 -214 -186 -334t-402 -120h-366v1360zM905 -279h-554v58h554v-58z" />
    <glyph glyph-name="dlinebelow" unicode="&#x1e0f;" horiz-adv-x="1107" 
d="M527 978q-145 0 -237 -100t-91 -286v-153q-1 -177 89 -280t239 -103t239 110t89 271v158q1 167 -91 275t-237 108zM855 839v596h80v-1435h-78v202h-4q-14 -50 -52 -93q-39 -43 -75 -68q-86 -59 -213 -59q-177 0 -286 120t-109 321v188q0 208 113 325t298 117t287 -145
q24 -34 35 -69h4zM823 -279h-554v58h554v-58z" />
    <glyph glyph-name="Dcommaaccent" unicode="&#x1e10;" horiz-adv-x="1294" 
d="M272 1285v-1210h284q268 1 396 159t129 446q0 385 -226 529q-119 76 -299 76h-284zM190 1360h366q460 0 574 -402q34 -122 34 -262t-20 -242q-43 -214 -186 -334t-402 -120h-366v1360zM573 -481h-60l85 335h89z" />
    <glyph glyph-name="dcommaaccent" unicode="&#x1e11;" horiz-adv-x="1107" 
d="M527 978q-145 0 -237 -100t-91 -286v-153q-1 -177 89 -280t239 -103t239 110t89 271v158q1 167 -91 275t-237 108zM855 839v596h80v-1435h-78v202h-4q-14 -50 -52 -93q-39 -43 -75 -68q-86 -59 -213 -59q-177 0 -286 120t-109 321v188q0 208 113 325t298 117t287 -145
q24 -34 35 -69h4zM491 -481h-60l85 335h89z" />
    <glyph glyph-name="Dcircumflexbelow" unicode="&#x1e12;" horiz-adv-x="1294" 
d="M374 -421l231 324h64l224 -325h-75l-180 270h-5l-186 -269h-73zM272 1285v-1210h284q268 1 396 159t129 446q0 385 -226 529q-119 76 -299 76h-284zM190 1360h366q460 0 574 -402q34 -122 34 -262t-20 -242q-43 -214 -186 -334t-402 -120h-366v1360z" />
    <glyph glyph-name="dcircumflexbelow" unicode="&#x1e13;" horiz-adv-x="1107" 
d="M292 -421l231 324h64l224 -325h-75l-180 270h-5l-186 -269h-73zM527 978q-145 0 -237 -100t-91 -286v-153q-1 -177 89 -280t239 -103t239 110t89 271v158q1 167 -91 275t-237 108zM855 839v596h80v-1435h-78v202h-4q-14 -50 -52 -93q-39 -43 -75 -68q-86 -59 -213 -59
q-177 0 -286 120t-109 321v188q0 208 113 325t298 117t287 -145q24 -34 35 -69h4z" />
    <glyph glyph-name="Emacrongrave" unicode="&#x1e14;" horiz-adv-x="1073" 
d="M845 1528h-538v56h538v-56zM966 75v-75h-776v1360h776v-76h-694v-550h660v-75h-660v-584h694zM675 1710h-88l-316 237h105z" />
    <glyph glyph-name="emacrongrave" unicode="&#x1e15;" horiz-adv-x="1046" 
d="M794 1246h-554v58h554v-58zM203 581h643v4q0 184 -87 289t-235 105t-234 -105q-87 -105 -87 -289v-4zM122 457v105q0 234 108 362t294 128q188 0 296 -128t107 -361v-53h-724v-53q0 -189 88 -295t233 -106t220 63t85 142h83q-10 -98 -102 -188q-92 -91 -281 -91
q-191 0 -299 126t-108 349zM619 1451h-64l-255 293h90z" />
    <glyph glyph-name="Emacronacute" unicode="&#x1e16;" horiz-adv-x="1073" 
d="M845 1528h-538v56h538v-56zM966 75v-75h-776v1360h776v-76h-694v-550h660v-75h-660v-584h694zM472 1708l299 237h104l-316 -237h-87z" />
    <glyph glyph-name="emacronacute" unicode="&#x1e17;" horiz-adv-x="1046" 
d="M794 1246h-554v58h554v-58zM203 581h643v4q0 184 -87 289t-235 105t-234 -105q-87 -105 -87 -289v-4zM122 457v105q0 234 108 362t294 128q188 0 296 -128t107 -361v-53h-724v-53q0 -189 88 -295t233 -106t220 63t85 142h83q-10 -98 -102 -188q-92 -91 -281 -91
q-191 0 -299 126t-108 349zM534 1451h-65l230 293h90z" />
    <glyph glyph-name="Ecircumflexbelow" unicode="&#x1e18;" horiz-adv-x="1073" 
d="M315 -421l231 324h64l224 -325h-75l-180 270h-5l-186 -269h-73zM966 75v-75h-776v1360h776v-76h-694v-550h660v-75h-660v-584h694z" />
    <glyph glyph-name="ecircumflexbelow" unicode="&#x1e19;" horiz-adv-x="1046" 
d="M271 -421l231 324h64l224 -325h-75l-180 270h-5l-186 -269h-73zM203 581h643v4q0 184 -87 289t-235 105t-234 -105q-87 -105 -87 -289v-4zM122 457v105q0 234 108 362t294 128q188 0 296 -128t107 -361v-53h-724v-53q0 -189 88 -295t233 -106t220 63t85 142h83
q-10 -98 -102 -188q-92 -91 -281 -91q-191 0 -299 126t-108 349z" />
    <glyph glyph-name="Etildebelow" unicode="&#x1e1a;" horiz-adv-x="1073" 
d="M966 75v-75h-776v1360h776v-76h-694v-550h660v-75h-660v-584h694zM432 -220q-98 0 -100 -148h-64q0 101 42 156t124 55q48 -1 84 -23t72 -68q37 -46 62 -60q25 -16 66 -16t72 44t32 112h65q1 -92 -49 -154t-116 -62t-102 20t-68 61q-34 43 -60 63t-60 20z" />
    <glyph glyph-name="etildebelow" unicode="&#x1e1b;" horiz-adv-x="1046" 
d="M203 581h643v4q0 184 -87 289t-235 105t-234 -105q-87 -105 -87 -289v-4zM122 457v105q0 234 108 362t294 128q188 0 296 -128t107 -361v-53h-724v-53q0 -189 88 -295t233 -106t220 63t85 142h83q-10 -98 -102 -188q-92 -91 -281 -91q-191 0 -299 126t-108 349zM388 -220
q-98 0 -100 -148h-64q0 101 42 156t124 55q48 -1 84 -23t72 -68q37 -46 62 -60q25 -16 66 -16t72 44t32 112h65q1 -92 -49 -154t-116 -62t-102 20t-68 61q-34 43 -60 63t-60 20z" />
    <glyph glyph-name="Ecedillabreve" unicode="&#x1e1c;" horiz-adv-x="1073" 
d="M301 1715h67q0 -76 56 -121t152 -45q96 1 148 45t53 121h68q-1 -97 -69 -163t-200 -66t-204 66q-71 66 -71 163zM529 -397q68 1 113 27t45 78q0 99 -153 99h-50v48l62 145h-356v1360h776v-76h-694v-550h660v-75h-660v-584h694v-75h-353l-56 -134q87 0 147 -38t60 -119
t-66 -124t-148 -44t-135 15v63q46 -16 114 -16z" />
    <glyph glyph-name="ecedillabreve" unicode="&#x1e1d;" horiz-adv-x="1046" 
d="M498 -401q70 1 114 27q45 26 45 77q0 99 -153 99h-50v48l57 133q-185 9 -287 133t-102 341v105q0 234 108 362t294 128q188 0 296 -128t107 -361v-53h-724v-53q0 -189 88 -295t233 -106t220 63t85 142h83q-10 -92 -92 -179t-241 -99l-52 -122q87 0 147 -38
q60 -39 60 -119t-66 -124t-148 -44q-82 -1 -135 15v63q43 -15 113 -15zM203 581h643v4q0 184 -87 289t-235 105t-234 -105q-87 -105 -87 -289v-4zM249 1434h68q-1 -80 53 -130t148 -51q94 0 144 50t50 131h67q0 -138 -115 -206q-61 -36 -146 -36q-127 0 -198 72t-71 170z
" />
    <glyph glyph-name="Fdotaccent" unicode="&#x1e1e;" horiz-adv-x="1004" 
d="M272 0h-82v1360h765v-76h-683v-563h627v-76h-627v-645zM445 1643q1 30 21 51t50 21q30 -1 51 -21t21 -50t-21 -51q-21 -20 -51 -20t-50 20t-21 50z" />
    <glyph glyph-name="fdotaccent" unicode="&#x1e1f;" horiz-adv-x="629" 
d="M219 0v964h-174v71h174v130q0 141 65 203t206 62q56 0 103 -10v-69q-35 7 -119 7t-128 -42q-46 -42 -46 -146v-135h281v-71h-281v-964h-81zM333 1713q1 30 21 51t50 21q30 -1 51 -21t21 -50t-21 -51q-21 -20 -51 -20t-50 20t-21 50z" />
    <glyph glyph-name="Gmacron" unicode="&#x1e20;" horiz-adv-x="1263" 
d="M905 1528h-538v56h538v-56zM217 801v-228q0 -241 111 -385q112 -144 308 -144t305 94t109 259v186h-407v75h485v-261q0 -192 -128 -310t-349 -118q-260 0 -388 169t-128 435v228q0 270 139 430t373 160t353 -117t123 -267h-79q-4 114 -104 212q-100 97 -293 97t-311 -138
t-119 -377z" />
    <glyph glyph-name="gmacron" unicode="&#x1e21;" horiz-adv-x="1094" 
d="M526 979q-144 0 -236 -99q-94 -99 -94 -283v-117q0 -175 92 -275t234 -100q102 -1 179 53q151 105 151 316v126q0 162 -91 270t-235 109zM534 -287q146 1 232 77t86 203v255h-4q-29 -92 -121 -155q-92 -62 -214 -62q-173 1 -285 119t-113 315v150q0 211 118 324t284 113
q165 0 263 -104q48 -50 70 -109h4v196h78v-1039q0 -165 -109 -261t-299 -96q-264 -1 -352 179q-24 48 -26 98h83q7 -79 83 -141t222 -62zM818 1246h-554v58h554v-58z" />
    <glyph glyph-name="Hdotaccent" unicode="&#x1e22;" horiz-adv-x="1334" 
d="M596 1643q0 30 20 51t51 21q30 -1 51 -21t21 -50t-21 -51q-21 -20 -51 -20q-31 0 -51 20t-20 50zM1143 0h-82v676h-789v-676h-82v1360h82v-609h789v609h82v-1360z" />
    <glyph glyph-name="hdotaccent" unicode="&#x1e23;" horiz-adv-x="1114" 
d="M139 1719q1 30 21 51t50 21q30 -1 51 -21t21 -50t-21 -51q-21 -20 -51 -20t-50 20t-21 50zM171 0v1435h80v-592h4q27 85 113 147t233 62q148 0 249 -102t101 -277v-673h-81v661q0 139 -77 227t-222 89t-233 -101t-87 -250v-626h-80z" />
    <glyph glyph-name="Hdotbelow" unicode="&#x1e24;" horiz-adv-x="1334" 
d="M597 -288q1 30 21 51t50 21t52 -20q21 -20 21 -52q0 -31 -21 -51q-22 -20 -52 -20q-30 1 -50 21t-21 50zM1143 0h-82v676h-789v-676h-82v1360h82v-609h789v609h82v-1360z" />
    <glyph glyph-name="hdotbelow" unicode="&#x1e25;" horiz-adv-x="1114" 
d="M485 -288q1 30 21 51t50 21t52 -20q21 -20 21 -52q0 -31 -21 -51q-22 -20 -52 -20q-30 1 -50 21t-21 50zM171 0v1435h80v-592h4q27 85 113 147t233 62q148 0 249 -102t101 -277v-673h-81v661q0 139 -77 227t-222 89t-233 -101t-87 -250v-626h-80z" />
    <glyph glyph-name="Hdieresis" unicode="&#x1e26;" horiz-adv-x="1334" 
d="M761 1572q0 24 17 40q17 17 41 17q25 0 41 -17q16 -16 16 -40t-16 -42t-41 -18q-24 0 -41 18t-17 42zM472 1572q0 24 17 40q17 17 41 17t42 -17q16 -16 16 -40t-16 -42t-42 -18q-24 0 -41 18t-17 42zM1143 0h-82v676h-789v-676h-82v1360h82v-609h789v609h82v-1360z" />
    <glyph glyph-name="hdieresis" unicode="&#x1e27;" horiz-adv-x="1114" 
d="M289 1693q0 28 20 48t48 20q28 1 48 -19t20 -49t-20 -49t-48 -20t-48 20t-20 49zM-1 1693q0 28 20 48q19 20 47 20q28 1 48 -19t20 -49t-20 -49t-48 -20t-47 20q-20 20 -20 49zM171 0v1435h80v-592h4q27 85 113 147t233 62q148 0 249 -102t101 -277v-673h-81v661
q0 139 -77 227t-222 89t-233 -101t-87 -250v-626h-80z" />
    <glyph glyph-name="Hcedilla" unicode="&#x1e28;" horiz-adv-x="1334" 
d="M188 -397q68 1 113 27t45 78q0 99 -152 99h-51v48l63 145h-16v1360h82v-609h789v609h82v-1360h-82v676h-789v-676l-55 -134q88 0 147 -38t59 -119t-66 -124q-67 -43 -149 -44t-133 15v63q45 -16 113 -16z" />
    <glyph glyph-name="hcedilla" unicode="&#x1e29;" horiz-adv-x="1114" 
d="M164 -401q68 1 114 27q45 26 45 77q0 99 -153 99h-50v48l64 150h-13v1435h80v-592h4q27 85 113 147t233 62q148 0 249 -102t101 -277v-673h-81v661q0 139 -77 227t-222 89t-233 -101t-87 -250v-626l-58 -139q87 0 147 -38q60 -39 60 -119t-66 -124t-148 -44
q-82 -1 -135 15v63q45 -15 113 -15z" />
    <glyph glyph-name="Hbrevebelow" unicode="&#x1e2a;" horiz-adv-x="1334" 
d="M1143 0h-82v676h-789v-676h-82v1360h82v-609h789v609h82v-1360zM394 -144h70q0 -80 54 -130t148 -50t146 50q51 50 51 130h68q0 -98 -68 -170t-197 -72q-128 0 -200 72t-72 170z" />
    <glyph glyph-name="hbrevebelow" unicode="&#x1e2b;" horiz-adv-x="1114" 
d="M171 0v1435h80v-592h4q27 85 113 147t233 62q148 0 249 -102t101 -277v-673h-81v661q0 139 -77 227t-222 89t-233 -101t-87 -250v-626h-80zM282 -144h70q0 -80 54 -130t148 -50t146 50q51 50 51 130h68q0 -98 -68 -170t-197 -72q-128 0 -200 72t-72 170z" />
    <glyph glyph-name="Itildebelow" unicode="&#x1e2c;" horiz-adv-x="493" 
d="M102 -220q-98 0 -100 -148h-64q0 101 42 156t124 55q48 -1 84 -23t72 -68q37 -46 62 -60q25 -16 66 -16t72 44t32 112h65q1 -92 -49 -154t-116 -62t-102 20t-68 61q-34 43 -60 63t-60 20zM287 0h-81v1360h81v-1360z" />
    <glyph glyph-name="itildebelow" unicode="&#x1e2d;" horiz-adv-x="458" 
d="M85 -220q-98 0 -100 -148h-64q1 101 43 156t123 55q47 -1 83 -23t73 -68t62 -60q25 -16 66 -16t72 44t32 112h65q0 -92 -50 -154t-115 -62t-101 20t-70 61q-34 43 -60 63t-59 20zM158 1322q0 30 20 52q20 20 51 20q30 0 51 -20t21 -52q0 -30 -21 -50t-51 -21
q-31 1 -51 21t-20 50zM189 0v1035h80v-1035h-80z" />
    <glyph glyph-name="Idieresisacute" unicode="&#x1e2e;" horiz-adv-x="493" 
d="M341 1572q0 24 17 40q17 17 41 17q25 0 41 -17q16 -16 16 -40t-16 -42t-41 -18q-24 0 -41 18t-17 42zM52 1572q0 24 17 40q17 17 41 17t42 -17q16 -16 16 -40t-16 -42t-42 -18q-24 0 -41 18t-17 42zM142 1708l299 237h104l-316 -237h-87zM287 0h-81v1360h81v-1360z" />
    <glyph glyph-name="idieresisacute" unicode="&#x1e2f;" horiz-adv-x="425" 
d="M291 1292q0 28 20 48t48 20t48 -20t20 -48q0 -29 -20 -49t-48 -20q-28 1 -48 21t-20 48zM1 1292q0 28 20 48q19 20 47 20t48 -20t20 -48t-20 -49q-20 -20 -48 -20q-28 1 -47 21q-20 20 -20 48zM172 0v1035h80v-1035h-80zM223 1451h-65l230 293h90z" />
    <glyph glyph-name="Kacute" unicode="&#x1e30;" horiz-adv-x="1109" 
d="M272 0h-82v1360h82v-730h3l681 730h104l-558 -604l590 -756h-106l-544 700l-170 -179v-521zM445 1512l299 237h104l-316 -237h-87z" />
    <glyph glyph-name="kacute" unicode="&#x1e31;" horiz-adv-x="994" 
d="M221 1612h-65l230 293h90zM251 0h-80v1435h80v-915h5l554 529h102l-457 -442l475 -607h-101l-434 554l-144 -131v-423z" />
    <glyph glyph-name="Kdotbelow" unicode="&#x1e32;" horiz-adv-x="1109" 
d="M272 0h-82v1360h82v-730h3l681 730h104l-558 -604l590 -756h-106l-544 700l-170 -179v-521zM485 -288q1 30 21 51t50 21t52 -20q21 -20 21 -52q0 -31 -21 -51q-22 -20 -52 -20q-30 1 -50 21t-21 50z" />
    <glyph glyph-name="kdotbelow" unicode="&#x1e33;" horiz-adv-x="994" 
d="M251 0h-80v1435h80v-915h5l554 529h102l-457 -442l475 -607h-101l-434 554l-144 -131v-423zM433 -288q1 30 21 51t50 21t52 -20q21 -20 21 -52q0 -31 -21 -51q-22 -20 -52 -20q-30 1 -50 21t-21 50z" />
    <glyph glyph-name="Klinebelow" unicode="&#x1e34;" horiz-adv-x="1109" 
d="M825 -279h-554v58h554v-58zM272 0h-82v1360h82v-730h3l681 730h104l-558 -604l590 -756h-106l-544 700l-170 -179v-521z" />
    <glyph glyph-name="klinebelow" unicode="&#x1e35;" horiz-adv-x="994" 
d="M773 -279h-554v58h554v-58zM251 0h-80v1435h80v-915h5l554 529h102l-457 -442l475 -607h-101l-434 554l-144 -131v-423z" />
    <glyph glyph-name="Ldotbelow" unicode="&#x1e36;" horiz-adv-x="1013" 
d="M955 75v-75h-765v1360h82v-1285h683zM453 -288q1 30 21 51t50 21t52 -20q21 -20 21 -52q0 -31 -21 -51q-22 -20 -52 -20q-30 1 -50 21t-21 50z" />
    <glyph glyph-name="ldotbelow" unicode="&#x1e37;" horiz-adv-x="447" 
d="M183 0v1435h81v-1435h-81zM154 -288q0 30 20 51t52 21q30 0 51 -20t21 -52q0 -31 -21 -51t-51 -20q-30 1 -52 21q-20 20 -20 50z" />
    <glyph glyph-name="Ldotbelowmacron" unicode="&#x1e38;" horiz-adv-x="1013" 
d="M500 1528h-538v56h538v-56zM955 75v-75h-765v1360h82v-1285h683zM453 -288q1 30 21 51t50 21t52 -20q21 -20 21 -52q0 -31 -21 -51q-22 -20 -52 -20q-30 1 -50 21t-21 50z" />
    <glyph glyph-name="ldotbelowmacron" unicode="&#x1e39;" horiz-adv-x="447" 
d="M495 1647h-554v58h554v-58zM183 0v1435h81v-1435h-81zM154 -288q0 30 20 51t52 21q30 0 51 -20t21 -52q0 -31 -21 -51t-51 -20q-30 1 -52 21q-20 20 -20 50z" />
    <glyph glyph-name="Llinebelow" unicode="&#x1e3a;" horiz-adv-x="1013" 
d="M955 75v-75h-765v1360h82v-1285h683zM793 -279h-554v58h554v-58z" />
    <glyph glyph-name="llinebelow" unicode="&#x1e3b;" horiz-adv-x="447" 
d="M183 0v1435h81v-1435h-81zM494 -279h-554v58h554v-58z" />
    <glyph glyph-name="Lcircumflexbelow" unicode="&#x1e3c;" horiz-adv-x="1013" 
d="M262 -421l231 324h64l224 -325h-75l-180 270h-5l-186 -269h-73zM955 75v-75h-765v1360h82v-1285h683z" />
    <glyph glyph-name="lcircumflexbelow" unicode="&#x1e3d;" horiz-adv-x="447" 
d="M-37 -421l231 324h64l224 -325h-75l-180 270h-5l-186 -269h-73zM183 0v1435h81v-1435h-81z" />
    <glyph glyph-name="Macute" unicode="&#x1e3e;" horiz-adv-x="1575" 
d="M267 0h-75v1360h81l512 -1160h4l514 1160h80v-1360h-75v1177h-4l-478 -1072h-77l-478 1072h-4v-1177zM683 1512l299 237h104l-316 -237h-87z" />
    <glyph glyph-name="macute" unicode="&#x1e3f;" horiz-adv-x="1665" 
d="M167 0v1035h80v-170h5q21 66 70 108q89 79 216 79q128 0 206 -60t102 -151h5q19 70 97 141q78 70 223 70q146 0 238 -90t92 -254v-708h-80v689q0 139 -72 213q-73 74 -199 75q-126 -1 -201 -89t-75 -212v-676h-80v682q0 141 -70 218t-199 77q-128 1 -203 -89t-75 -227
v-661h-80zM843 1211h-65l230 293h90z" />
    <glyph glyph-name="Mdotaccent" unicode="&#x1e40;" horiz-adv-x="1575" 
d="M267 0h-75v1360h81l512 -1160h4l514 1160h80v-1360h-75v1177h-4l-478 -1072h-77l-478 1072h-4v-1177zM716 1643q0 30 20 51t51 21q30 -1 51 -21t21 -50t-21 -51q-21 -20 -51 -20q-31 0 -51 20t-20 50z" />
    <glyph glyph-name="mdotaccent" unicode="&#x1e41;" horiz-adv-x="1665" 
d="M167 0v1035h80v-170h5q21 66 70 108q89 79 216 79q128 0 206 -60t102 -151h5q19 70 97 141q78 70 223 70q146 0 238 -90t92 -254v-708h-80v689q0 139 -72 213q-73 74 -199 75q-126 -1 -201 -89t-75 -212v-676h-80v682q0 141 -70 218t-199 77q-128 1 -203 -89t-75 -227
v-661h-80zM761 1318q1 30 21 51t50 21t51 -20t21 -52q0 -30 -21 -50t-51 -20t-50 20t-21 50z" />
    <glyph glyph-name="Mdotbelow" unicode="&#x1e42;" horiz-adv-x="1575" 
d="M267 0h-75v1360h81l512 -1160h4l514 1160h80v-1360h-75v1177h-4l-478 -1072h-77l-478 1072h-4v-1177zM717 -288q1 30 21 51t50 21t52 -20q21 -20 21 -52q0 -31 -21 -51q-22 -20 -52 -20q-30 1 -50 21t-21 50z" />
    <glyph glyph-name="mdotbelow" unicode="&#x1e43;" horiz-adv-x="1665" 
d="M167 0v1035h80v-170h5q21 66 70 108q89 79 216 79q128 0 206 -60t102 -151h5q19 70 97 141q78 70 223 70q146 0 238 -90t92 -254v-708h-80v689q0 139 -72 213q-73 74 -199 75q-126 -1 -201 -89t-75 -212v-676h-80v682q0 141 -70 218t-199 77q-128 1 -203 -89t-75 -227
v-661h-80zM762 -288q0 30 20 51t52 21q30 0 51 -20t21 -52q0 -31 -21 -51t-51 -20q-30 1 -52 21q-20 20 -20 50z" />
    <glyph glyph-name="Ndotaccent" unicode="&#x1e44;" horiz-adv-x="1334" 
d="M272 0h-82v1360h85l782 -1216h4v1216h82v-1360h-84l-783 1216h-4v-1216zM596 1643q0 30 20 51t51 21q30 -1 51 -21t21 -50t-21 -51q-21 -20 -51 -20q-31 0 -51 20t-20 50z" />
    <glyph glyph-name="ndotaccent" unicode="&#x1e45;" horiz-adv-x="1101" 
d="M167 0v1035h80v-192h4q29 85 115 147t232 62t245 -98q100 -98 100 -270v-684h-81v664q0 141 -76 227t-221 86q-146 0 -232 -101t-86 -249v-627h-80zM479 1318q1 30 21 51t50 21t51 -20t21 -52q0 -30 -21 -50t-51 -20t-50 20t-21 50z" />
    <glyph glyph-name="Ndotbelow" unicode="&#x1e46;" horiz-adv-x="1334" 
d="M272 0h-82v1360h85l782 -1216h4v1216h82v-1360h-84l-783 1216h-4v-1216zM597 -288q1 30 21 51t50 21t52 -20q21 -20 21 -52q0 -31 -21 -51q-22 -20 -52 -20q-30 1 -50 21t-21 50z" />
    <glyph glyph-name="ndotbelow" unicode="&#x1e47;" horiz-adv-x="1101" 
d="M167 0v1035h80v-192h4q29 85 115 147t232 62t245 -98q100 -98 100 -270v-684h-81v664q0 141 -76 227t-221 86q-146 0 -232 -101t-86 -249v-627h-80zM480 -288q0 30 20 51t52 21q30 0 51 -20t21 -52q0 -31 -21 -51t-51 -20q-30 1 -52 21q-20 20 -20 50z" />
    <glyph glyph-name="Nlinebelow" unicode="&#x1e48;" horiz-adv-x="1334" 
d="M272 0h-82v1360h85l782 -1216h4v1216h82v-1360h-84l-783 1216h-4v-1216zM937 -279h-554v58h554v-58z" />
    <glyph glyph-name="nlinebelow" unicode="&#x1e49;" horiz-adv-x="1101" 
d="M167 0v1035h80v-192h4q29 85 115 147t232 62t245 -98q100 -98 100 -270v-684h-81v664q0 141 -76 227t-221 86q-146 0 -232 -101t-86 -249v-627h-80zM820 -279h-554v58h554v-58z" />
    <glyph glyph-name="Ncircumflexbelow" unicode="&#x1e4a;" horiz-adv-x="1334" 
d="M406 -421l231 324h64l224 -325h-75l-180 270h-5l-186 -269h-73zM272 0h-82v1360h85l782 -1216h4v1216h82v-1360h-84l-783 1216h-4v-1216z" />
    <glyph glyph-name="ncircumflexbelow" unicode="&#x1e4b;" horiz-adv-x="1101" 
d="M289 -421l231 324h64l224 -325h-75l-180 270h-5l-186 -269h-73zM167 0v1035h80v-192h4q29 85 115 147t232 62t245 -98q100 -98 100 -270v-684h-81v664q0 141 -76 227t-221 86q-146 0 -232 -101t-86 -249v-627h-80z" />
    <glyph glyph-name="Otildeacute" unicode="&#x1e4c;" horiz-adv-x="1309" 
d="M517 1636q-88 0 -88 -129h-58q1 87 39 136t95 49t89 -20t64 -60q33 -40 54 -54q22 -14 58 -14t64 38t29 99h58q0 -81 -44 -135q-45 -54 -103 -55q-58 0 -88 17t-65 55q-28 37 -51 55t-53 18zM135 556v244q0 271 138 431t382 160q243 -1 381 -161t138 -432v-242
q0 -271 -138 -429t-382 -158q-245 0 -382 158t-137 429zM216 806v-256q0 -230 118 -368t320 -138t321 138q118 138 118 368v256q0 230 -119 370t-320 140q-202 0 -320 -140t-118 -370zM550 1708l299 237h104l-316 -237h-87z" />
    <glyph glyph-name="otildeacute" unicode="&#x1e4d;" horiz-adv-x="1085" 
d="M542 979q-156 -1 -248 -107t-93 -295v-123q0 -188 92 -293t249 -105t249 104t92 294v123q-1 188 -93 295t-248 107zM541 1052q190 0 307 -124t117 -340v-145q-1 -217 -117 -339t-306 -122t-306 122t-116 339v145q0 218 116 341t305 123zM386 1364q-99 0 -99 -147h-65
q0 100 43 155t107 55q64 -1 100 -23t72 -67t61 -61t67 -15q42 -1 72 43q32 44 33 112h64q0 -92 -49 -154t-115 -62q-65 0 -101 20t-70 60q-34 42 -60 63q-27 21 -60 21zM553 1451h-65l230 293h90z" />
    <glyph glyph-name="Otildedieresis" unicode="&#x1e4e;" horiz-adv-x="1309" 
d="M517 1636q-88 0 -88 -129h-58q1 87 39 136t95 49t89 -20t64 -60q33 -40 54 -54q22 -14 58 -14t64 38t29 99h58q0 -81 -44 -135q-45 -54 -103 -55q-58 0 -88 17t-65 55q-28 37 -51 55t-53 18zM135 556v244q0 271 138 431t382 160q243 -1 381 -161t138 -432v-242
q0 -271 -138 -429t-382 -158q-245 0 -382 158t-137 429zM216 806v-256q0 -230 118 -368t320 -138t321 138q118 138 118 368v256q0 230 -119 370t-320 140q-202 0 -320 -140t-118 -370zM742 1828q0 24 17 40q17 17 41 17t40 -17q16 -16 17 -40q-1 -24 -17 -42t-40 -18t-41 18
t-17 42zM453 1828q0 24 17 40q18 17 42 17t40 -17q16 -16 17 -40q-1 -24 -17 -42t-40 -18t-42 18q-17 18 -17 42z" />
    <glyph glyph-name="otildedieresis" unicode="&#x1e4f;" horiz-adv-x="1085" 
d="M542 979q-156 -1 -248 -107t-93 -295v-123q0 -188 92 -293t249 -105t249 104t92 294v123q-1 188 -93 295t-248 107zM541 1052q190 0 307 -124t117 -340v-145q-1 -217 -117 -339t-306 -122t-306 122t-116 339v145q0 218 116 341t305 123zM621 1566q0 28 20 48t48 20
t48 -20t20 -48q0 -29 -20 -49t-48 -20q-28 1 -48 21t-20 48zM331 1566q0 28 20 48q19 20 47 20t48 -20t20 -48t-20 -49q-20 -20 -48 -20q-28 1 -47 21q-20 20 -20 48zM386 1364q-99 0 -99 -147h-65q0 100 43 155t107 55q64 -1 100 -23t72 -67t61 -61t67 -15q42 -1 72 43
q32 44 33 112h64q0 -92 -49 -154t-115 -62q-65 0 -101 20t-70 60q-34 42 -60 63q-27 21 -60 21z" />
    <glyph glyph-name="Omacrongrave" unicode="&#x1e50;" horiz-adv-x="1309" 
d="M923 1528h-538v56h538v-56zM135 556v244q0 271 138 431t382 160q243 -1 381 -161t138 -432v-242q0 -271 -138 -429t-382 -158q-245 0 -382 158t-137 429zM216 806v-256q0 -230 118 -368t320 -138t321 138q118 138 118 368v256q0 230 -119 370t-320 140q-202 0 -320 -140
t-118 -370zM753 1710h-88l-316 237h105z" />
    <glyph glyph-name="omacrongrave" unicode="&#x1e51;" horiz-adv-x="1085" 
d="M542 979q-156 -1 -248 -107t-93 -295v-123q0 -188 92 -293t249 -105t249 104t92 294v123q-1 188 -93 295t-248 107zM541 1052q190 0 307 -124t117 -340v-145q-1 -217 -117 -339t-306 -122t-306 122t-116 339v145q0 218 116 341t305 123zM813 1246h-554v58h554v-58z
M638 1451h-64l-255 293h90z" />
    <glyph glyph-name="Omacronacute" unicode="&#x1e52;" horiz-adv-x="1309" 
d="M923 1528h-538v56h538v-56zM135 556v244q0 271 138 431t382 160q243 -1 381 -161t138 -432v-242q0 -271 -138 -429t-382 -158q-245 0 -382 158t-137 429zM216 806v-256q0 -230 118 -368t320 -138t321 138q118 138 118 368v256q0 230 -119 370t-320 140q-202 0 -320 -140
t-118 -370zM550 1708l299 237h104l-316 -237h-87z" />
    <glyph glyph-name="omacronacute" unicode="&#x1e53;" horiz-adv-x="1085" 
d="M542 979q-156 -1 -248 -107t-93 -295v-123q0 -188 92 -293t249 -105t249 104t92 294v123q-1 188 -93 295t-248 107zM541 1052q190 0 307 -124t117 -340v-145q-1 -217 -117 -339t-306 -122t-306 122t-116 339v145q0 218 116 341t305 123zM813 1246h-554v58h554v-58z
M553 1451h-65l230 293h90z" />
    <glyph glyph-name="Pacute" unicode="&#x1e54;" horiz-adv-x="1126" 
d="M272 1285v-651h327q177 0 273 82t96 240t-90 243q-90 86 -252 86h-354zM190 1360h439q199 0 311 -108t112 -293q0 -187 -111 -293t-312 -106h-357v-560h-82v1360zM451 1512l299 237h104l-316 -237h-87z" />
    <glyph glyph-name="pacute" unicode="&#x1e55;" horiz-adv-x="1103" 
d="M562 1211h-65l230 293h90zM902 440v159q0 178 -90 279t-238 101q-146 1 -236 -109t-90 -265v-169q0 -162 92 -271t232 -109t235 95t95 289zM248 195v-531h-81v1371h79v-199h4q19 63 75 116q106 100 272 100q167 0 277 -119t110 -320v-190q0 -209 -114 -325t-297 -116
t-285 144q-24 34 -36 69h-4z" />
    <glyph glyph-name="Pdotaccent" unicode="&#x1e56;" horiz-adv-x="1126" 
d="M484 1643q0 30 20 51t51 21q30 -1 51 -21t21 -50t-21 -51q-21 -20 -51 -20q-31 0 -51 20t-20 50zM272 1285v-651h327q177 0 273 82t96 240t-90 243q-90 86 -252 86h-354zM190 1360h439q199 0 311 -108t112 -293q0 -187 -111 -293t-312 -106h-357v-560h-82v1360z" />
    <glyph glyph-name="pdotaccent" unicode="&#x1e57;" horiz-adv-x="1103" 
d="M480 1318q0 30 20 51t51 21q30 0 51 -20t21 -52q0 -30 -21 -50t-51 -20q-31 0 -51 20t-20 50zM902 440v159q0 178 -90 279t-238 101q-146 1 -236 -109t-90 -265v-169q0 -162 92 -271t232 -109t235 95t95 289zM248 195v-531h-81v1371h79v-199h4q19 63 75 116
q106 100 272 100q167 0 277 -119t110 -320v-190q0 -209 -114 -325t-297 -116t-285 144q-24 34 -36 69h-4z" />
    <glyph glyph-name="Rdotaccent" unicode="&#x1e58;" horiz-adv-x="1187" 
d="M513 1643q1 30 21 51t50 21q30 -1 51 -21t21 -50t-21 -51q-21 -20 -51 -20t-50 20t-21 50zM272 667h351q158 1 250 83t92 226q1 144 -91 227t-249 83h-353v-619zM637 1360q191 0 301 -106t110 -267t-80 -253t-209 -124l312 -610h-95l-302 594h-402v-594h-82v1360h447z
" />
    <glyph glyph-name="rdotaccent" unicode="&#x1e59;" horiz-adv-x="667" 
d="M280 1318q0 30 20 51t51 21q30 0 51 -20t21 -52q0 -30 -21 -50t-51 -20q-31 0 -51 20t-20 50zM171 0v1035h81v-191h4q19 76 90 142q70 65 206 65q36 0 85 -7v-78q-36 9 -92 9q-129 -1 -211 -87t-82 -249v-639h-81z" />
    <glyph glyph-name="Rdotbelow" unicode="&#x1e5a;" horiz-adv-x="1187" 
d="M272 667h351q158 1 250 83t92 226q1 144 -91 227t-249 83h-353v-619zM637 1360q191 0 301 -106t110 -267t-80 -253t-209 -124l312 -610h-95l-302 594h-402v-594h-82v1360h447zM514 -288q0 30 20 51t52 21q30 0 51 -20t21 -52q0 -31 -21 -51t-51 -20q-30 1 -52 21
q-20 20 -20 50z" />
    <glyph glyph-name="rdotbelow" unicode="&#x1e5b;" horiz-adv-x="667" 
d="M171 0v1035h81v-191h4q19 76 90 142q70 65 206 65q36 0 85 -7v-78q-36 9 -92 9q-129 -1 -211 -87t-82 -249v-639h-81zM142 -288q0 30 20 51t52 21q30 0 51 -20t21 -52q0 -31 -21 -51t-51 -20q-30 1 -52 21q-20 20 -20 50z" />
    <glyph glyph-name="Rdotbelowmacron" unicode="&#x1e5c;" horiz-adv-x="1187" 
d="M853 1528h-538v56h538v-56zM272 667h351q158 1 250 83t92 226q1 144 -91 227t-249 83h-353v-619zM637 1360q191 0 301 -106t110 -267t-80 -253t-209 -124l312 -610h-95l-302 594h-402v-594h-82v1360h447zM514 -288q0 30 20 51t52 21q30 0 51 -20t21 -52q0 -31 -21 -51
t-51 -20q-30 1 -52 21q-20 20 -20 50z" />
    <glyph glyph-name="rdotbelowmacron" unicode="&#x1e5d;" horiz-adv-x="667" 
d="M622 1246h-554v58h554v-58zM171 0v1035h81v-191h4q19 76 90 142q70 65 206 65q36 0 85 -7v-78q-36 9 -92 9q-129 -1 -211 -87t-82 -249v-639h-81zM142 -288q0 30 20 51t52 21q30 0 51 -20t21 -52q0 -31 -21 -51t-51 -20q-30 1 -52 21q-20 20 -20 50z" />
    <glyph glyph-name="Rlinebelow" unicode="&#x1e5e;" horiz-adv-x="1187" 
d="M854 -279h-554v58h554v-58zM272 667h351q158 1 250 83t92 226q1 144 -91 227t-249 83h-353v-619zM637 1360q191 0 301 -106t110 -267t-80 -253t-209 -124l312 -610h-95l-302 594h-402v-594h-82v1360h447z" />
    <glyph glyph-name="rlinebelow" unicode="&#x1e5f;" horiz-adv-x="667" 
d="M482 -279h-554v58h554v-58zM171 0v1035h81v-191h4q19 76 90 142q70 65 206 65q36 0 85 -7v-78q-36 9 -92 9q-129 -1 -211 -87t-82 -249v-639h-81z" />
    <glyph glyph-name="Sdotaccent" unicode="&#x1e60;" horiz-adv-x="1141" 
d="M499 1643q1 30 21 51t50 21q30 -1 51 -21t21 -50t-21 -51q-21 -20 -51 -20t-50 20t-21 50zM100 345h83q4 -105 89 -197q44 -46 122 -75t179 -29q169 0 273 84t105 208q0 126 -76 190t-241 107l-178 48q-311 83 -311 345q0 166 120 266t315 100q196 0 312 -98t118 -246
h-84q-4 101 -87 185t-252 84t-263 -79q-94 -80 -95 -200q0 -120 65 -183t199 -99l172 -47q184 -51 277 -127t93 -243q0 -166 -131 -268t-340 -102q-276 -1 -399 177q-65 94 -65 199z" />
    <glyph glyph-name="sdotaccent" unicode="&#x1e61;" horiz-adv-x="956" 
d="M407 1318q1 30 21 51t50 21t51 -20t21 -52q0 -30 -21 -50t-51 -20t-50 20t-21 50zM129 772q0 132 97 206t250 74q255 0 331 -184q19 -46 19 -93h-79q0 67 -62 136q-62 70 -193 70t-206 -53q-75 -54 -75 -146q1 -92 67 -138t223 -85t196 -61q86 -45 118 -95t32 -135
q0 -86 -53 -154q-102 -132 -326 -132q-270 0 -352 184q-22 48 -22 100h80q4 -75 72 -143q68 -69 210 -69q143 0 226 56t83 152t-63 138q-63 41 -129 59q-65 18 -119 31t-102 29q-113 38 -168 96t-55 157z" />
    <glyph glyph-name="Sdotbelow" unicode="&#x1e62;" horiz-adv-x="1141" 
d="M100 345h83q4 -105 89 -197q44 -46 122 -75t179 -29q169 0 273 84t105 208q0 126 -76 190t-241 107l-178 48q-311 83 -311 345q0 166 120 266t315 100q196 0 312 -98t118 -246h-84q-4 101 -87 185t-252 84t-263 -79q-94 -80 -95 -200q0 -120 65 -183t199 -99l172 -47
q184 -51 277 -127t93 -243q0 -166 -131 -268t-340 -102q-276 -1 -399 177q-65 94 -65 199zM494 -288q0 30 20 51t52 21q30 0 51 -20t21 -52q0 -31 -21 -51t-51 -20q-30 1 -52 21q-20 20 -20 50z" />
    <glyph glyph-name="sdotbelow" unicode="&#x1e63;" horiz-adv-x="956" 
d="M129 772q0 132 97 206t250 74q255 0 331 -184q19 -46 19 -93h-79q0 67 -62 136q-62 70 -193 70t-206 -53q-75 -54 -75 -146q1 -92 67 -138t223 -85t196 -61q86 -45 118 -95t32 -135q0 -86 -53 -154q-102 -132 -326 -132q-270 0 -352 184q-22 48 -22 100h80q4 -75 72 -143
q68 -69 210 -69q143 0 226 56t83 152t-63 138q-63 41 -129 59q-65 18 -119 31t-102 29q-113 38 -168 96t-55 157zM408 -288q0 30 20 51t52 21q30 0 51 -20t21 -52q0 -31 -21 -51t-51 -20q-30 1 -52 21q-20 20 -20 50z" />
    <glyph glyph-name="Sacutedotaccent" unicode="&#x1e64;" horiz-adv-x="1141" 
d="M100 345h83q4 -105 89 -197q44 -46 122 -75t179 -29q169 0 273 84t105 208q0 126 -76 190t-241 107l-178 48q-311 83 -311 345q0 166 120 266t315 100q196 0 312 -98t118 -246h-84q-4 101 -87 185t-252 84t-263 -79q-94 -80 -95 -200q0 -120 65 -183t199 -99l172 -47
q184 -51 277 -127t93 -243q0 -166 -131 -268t-340 -102q-276 -1 -399 177q-65 94 -65 199zM574 1563l299 237h104l-316 -237h-87zM303 1727q-1 29 19 49t48 20t50 -20q20 -20 20 -49t-20 -48t-49 -19t-49 19t-19 48z" />
    <glyph glyph-name="sacutedotaccent" unicode="&#x1e65;" horiz-adv-x="956" 
d="M511 1211h-65l230 293h90zM129 772q0 132 97 206t250 74q255 0 331 -184q19 -46 19 -93h-79q0 67 -62 136q-62 70 -193 70t-206 -53q-75 -54 -75 -146q1 -92 67 -138t223 -85t196 -61q86 -45 118 -95t32 -135q0 -86 -53 -154q-102 -132 -326 -132q-270 0 -352 184
q-22 48 -22 100h80q4 -75 72 -143q68 -69 210 -69q143 0 226 56t83 152t-63 138q-63 41 -129 59q-65 18 -119 31t-102 29q-113 38 -168 96t-55 157zM251 1448q-1 30 19 48q20 20 49 20t49 -20t20 -48q0 -30 -20 -49t-49 -19t-49 19t-19 49z" />
    <glyph glyph-name="Scarondotaccent" unicode="&#x1e66;" horiz-adv-x="1141" 
d="M277 1694h86l209 -164h5l208 164h84l-260 -207h-66zM100 345h83q4 -105 89 -197q44 -46 122 -75t179 -29q169 0 273 84t105 208q0 126 -76 190t-241 107l-178 48q-311 83 -311 345q0 166 120 266t315 100q196 0 312 -98t118 -246h-84q-4 101 -87 185t-252 84t-263 -79
q-94 -80 -95 -200q0 -120 65 -183t199 -99l172 -47q184 -51 277 -127t93 -243q0 -166 -131 -268t-340 -102q-276 -1 -399 177q-65 94 -65 199zM503 1816q0 28 19 48t47 19q28 1 48 -19t20 -48t-20 -48q-20 -19 -48 -19t-47 19q-19 20 -19 48z" />
    <glyph glyph-name="scarondotaccent" unicode="&#x1e67;" horiz-adv-x="956" 
d="M129 772q0 132 97 206t250 74q255 0 331 -184q19 -46 19 -93h-79q0 67 -62 136q-62 70 -193 70t-206 -53q-75 -54 -75 -146q1 -92 67 -138t223 -85t196 -61q86 -45 118 -95t32 -135q0 -86 -53 -154q-102 -132 -326 -132q-270 0 -352 184q-22 48 -22 100h80q4 -75 72 -143
q68 -69 210 -69q143 0 226 56t83 152t-63 138q-63 41 -129 59q-65 18 -119 31t-102 29q-113 38 -168 96t-55 157zM230 1538h73l186 -270h5l180 270h75l-224 -325h-64zM420 1672q0 30 20 49q20 20 49 20t49 -20q20 -19 20 -49t-20 -50t-49 -19q-29 -1 -49 19t-20 50z" />
    <glyph glyph-name="Sdotbelowdotaccent" unicode="&#x1e68;" horiz-adv-x="1141" 
d="M499 1643q1 30 21 51t50 21q30 -1 51 -21t21 -50t-21 -51q-21 -20 -51 -20t-50 20t-21 50zM100 345h83q4 -105 89 -197q44 -46 122 -75t179 -29q169 0 273 84t105 208q0 126 -76 190t-241 107l-178 48q-311 83 -311 345q0 166 120 266t315 100q196 0 312 -98t118 -246
h-84q-4 101 -87 185t-252 84t-263 -79q-94 -80 -95 -200q0 -120 65 -183t199 -99l172 -47q184 -51 277 -127t93 -243q0 -166 -131 -268t-340 -102q-276 -1 -399 177q-65 94 -65 199zM494 -288q0 30 20 51t52 21q30 0 51 -20t21 -52q0 -31 -21 -51t-51 -20q-30 1 -52 21
q-20 20 -20 50z" />
    <glyph glyph-name="sdotbelowdotaccent" unicode="&#x1e69;" horiz-adv-x="956" 
d="M407 1318q1 30 21 51t50 21t51 -20t21 -52q0 -30 -21 -50t-51 -20t-50 20t-21 50zM129 772q0 132 97 206t250 74q255 0 331 -184q19 -46 19 -93h-79q0 67 -62 136q-62 70 -193 70t-206 -53q-75 -54 -75 -146q1 -92 67 -138t223 -85t196 -61q86 -45 118 -95t32 -135
q0 -86 -53 -154q-102 -132 -326 -132q-270 0 -352 184q-22 48 -22 100h80q4 -75 72 -143q68 -69 210 -69q143 0 226 56t83 152t-63 138q-63 41 -129 59q-65 18 -119 31t-102 29q-113 38 -168 96t-55 157zM408 -288q0 30 20 51t52 21q30 0 51 -20t21 -52q0 -31 -21 -51
t-51 -20q-30 1 -52 21q-20 20 -20 50z" />
    <glyph glyph-name="Tdotaccent" unicode="&#x1e6a;" horiz-adv-x="1025" 
d="M554 0h-81v1285h-459v75h997v-75h-457v-1285zM441 1643q1 30 21 51t50 21q30 -1 51 -21t21 -50t-21 -51q-21 -20 -51 -20t-50 20t-21 50z" />
    <glyph glyph-name="tdotaccent" unicode="&#x1e6b;" horiz-adv-x="664" 
d="M223 1035v252h81v-252h277v-71h-277v-733q0 -92 44 -128t128 -36q82 0 118 6v-68q-42 -7 -105 -7q-151 0 -209 54t-57 193v719h-194v71h194zM194 1567q0 30 20 51t51 21q30 -1 51 -21t21 -50t-21 -51q-21 -20 -51 -20q-31 0 -51 20t-20 50z" />
    <glyph glyph-name="Tdotbelow" unicode="&#x1e6c;" horiz-adv-x="1025" 
d="M554 0h-81v1285h-459v75h997v-75h-457v-1285zM442 -288q0 30 20 51t52 21q30 0 51 -20t21 -52q0 -31 -21 -51t-51 -20q-30 1 -52 21q-20 20 -20 50z" />
    <glyph glyph-name="tdotbelow" unicode="&#x1e6d;" horiz-adv-x="664" 
d="M223 1035v252h81v-252h277v-71h-277v-733q0 -92 44 -128t128 -36q82 0 118 6v-68q-42 -7 -105 -7q-151 0 -209 54t-57 193v719h-194v71h194zM324 -288q0 30 20 51t52 21q30 0 51 -20t21 -52q0 -31 -21 -51t-51 -20q-30 1 -52 21q-20 20 -20 50z" />
    <glyph glyph-name="Tlinebelow" unicode="&#x1e6e;" horiz-adv-x="1025" 
d="M554 0h-81v1285h-459v75h997v-75h-457v-1285zM782 -279h-554v58h554v-58z" />
    <glyph glyph-name="tlinebelow" unicode="&#x1e6f;" horiz-adv-x="664" 
d="M223 1035v252h81v-252h277v-71h-277v-733q0 -92 44 -128t128 -36q82 0 118 6v-68q-42 -7 -105 -7q-151 0 -209 54t-57 193v719h-194v71h194zM664 -279h-554v58h554v-58z" />
    <glyph glyph-name="Tcircumflexbelow" unicode="&#x1e70;" horiz-adv-x="1025" 
d="M251 -421l231 324h64l224 -325h-75l-180 270h-5l-186 -269h-73zM554 0h-81v1285h-459v75h997v-75h-457v-1285z" />
    <glyph glyph-name="tcircumflexbelow" unicode="&#x1e71;" horiz-adv-x="664" 
d="M133 -421l231 324h64l224 -325h-75l-180 270h-5l-186 -269h-73zM223 1035v252h81v-252h277v-71h-277v-733q0 -92 44 -128t128 -36q82 0 118 6v-68q-42 -7 -105 -7q-151 0 -209 54t-57 193v719h-194v71h194z" />
    <glyph glyph-name="Udieresisbelow" unicode="&#x1e72;" horiz-adv-x="1310" 
d="M734 -265q0 28 20 48t48 20q28 1 48 -19t20 -49t-20 -49t-48 -20t-48 20t-20 49zM444 -265q0 28 20 48t48 20q28 1 48 -19t19 -49q0 -29 -20 -49q-19 -20 -47 -20t-48 20t-20 49zM250 1360v-891q0 -195 106 -309t300 -114q192 0 298 114t105 309v891h83v-891
q0 -229 -130 -365t-357 -135q-227 0 -357 136t-130 365v890h82z" />
    <glyph glyph-name="udieresisbelow" unicode="&#x1e73;" horiz-adv-x="1100" 
d="M629 -265q0 28 20 48t48 20q28 1 48 -19t20 -49t-20 -49t-48 -20t-48 20t-20 49zM339 -265q0 28 20 48q19 20 47 20q28 1 48 -19t20 -49t-20 -49t-48 -20t-47 20q-20 20 -20 49zM933 1035v-1035h-81v192h-4q-30 -86 -116 -148t-232 -62t-244 90q-99 90 -99 263v700h81
v-685q0 -137 78 -215t218 -78q142 0 230 105t88 252v621h81z" />
    <glyph glyph-name="Utildebelow" unicode="&#x1e74;" horiz-adv-x="1310" 
d="M250 1360v-891q0 -195 106 -309t300 -114q192 0 298 114t105 309v891h83v-891q0 -229 -130 -365t-357 -135q-227 0 -357 136t-130 365v890h82zM511 -220q-98 0 -100 -148h-64q1 101 43 156t123 55q47 -1 83 -23t73 -68t62 -60q25 -16 66 -16t72 44t32 112h65
q0 -92 -50 -154t-115 -62t-101 20t-70 61q-34 43 -60 63t-59 20z" />
    <glyph glyph-name="utildebelow" unicode="&#x1e75;" horiz-adv-x="1100" 
d="M933 1035v-1035h-81v192h-4q-30 -86 -116 -148t-232 -62t-244 90q-99 90 -99 263v700h81v-685q0 -137 78 -215t218 -78q142 0 230 105t88 252v621h81zM406 -220q-98 0 -100 -148h-64q0 101 42 156t124 55q48 -1 84 -23t72 -68q37 -46 62 -60q25 -16 66 -16t72 44t32 112
h65q1 -92 -49 -154t-116 -62t-102 20t-68 61q-34 43 -60 63t-60 20z" />
    <glyph glyph-name="Ucircumflexbelow" unicode="&#x1e76;" horiz-adv-x="1310" 
d="M394 -421l231 324h64l224 -325h-75l-180 270h-5l-186 -269h-73zM250 1360v-891q0 -195 106 -309t300 -114q192 0 298 114t105 309v891h83v-891q0 -229 -130 -365t-357 -135q-227 0 -357 136t-130 365v890h82z" />
    <glyph glyph-name="ucircumflexbelow" unicode="&#x1e77;" horiz-adv-x="1100" 
d="M289 -421l231 324h64l224 -325h-75l-180 270h-5l-186 -269h-73zM933 1035v-1035h-81v192h-4q-30 -86 -116 -148t-232 -62t-244 90q-99 90 -99 263v700h81v-685q0 -137 78 -215t218 -78q142 0 230 105t88 252v621h81z" />
    <glyph glyph-name="Utildeacute" unicode="&#x1e78;" horiz-adv-x="1310" 
d="M518 1636q-88 0 -88 -129h-58q0 87 38 136t96 49q56 0 88 -20t65 -60t54 -54t57 -14t65 38q28 38 29 99h58q0 -81 -44 -135t-102 -55q-58 0 -90 17q-30 17 -64 55q-28 37 -51 55t-53 18zM250 1360v-891q0 -195 106 -309t300 -114q192 0 298 114t105 309v891h83v-891
q0 -229 -130 -365t-357 -135q-227 0 -357 136t-130 365v890h82zM551 1708l299 237h104l-316 -237h-87z" />
    <glyph glyph-name="utildeacute" unicode="&#x1e79;" horiz-adv-x="1100" 
d="M394 1364q-99 0 -99 -147h-65q0 100 43 155t107 55q64 -1 100 -23t72 -67t61 -61t67 -15q42 -1 72 43q32 44 33 112h64q0 -92 -49 -154t-115 -62q-65 0 -101 20t-70 60q-34 42 -60 63q-27 21 -60 21zM561 1451h-65l230 293h90zM933 1035v-1035h-81v192h-4
q-30 -86 -116 -148t-232 -62t-244 90q-99 90 -99 263v700h81v-685q0 -137 78 -215t218 -78q142 0 230 105t88 252v621h81z" />
    <glyph glyph-name="Umacrondieresis" unicode="&#x1e7a;" horiz-adv-x="1310" 
d="M924 1528h-538v56h538v-56zM250 1360v-891q0 -195 106 -309t300 -114q192 0 298 114t105 309v891h83v-891q0 -229 -130 -365t-357 -135q-227 0 -357 136t-130 365v890h82zM743 1828q0 24 17 40q17 17 41 17q25 0 41 -17q16 -16 16 -40t-16 -42t-41 -18q-24 0 -41 18
t-17 42zM454 1828q0 24 17 40q17 17 41 17t42 -17q16 -16 16 -40t-16 -42t-42 -18q-24 0 -41 18t-17 42z" />
    <glyph glyph-name="umacrondieresis" unicode="&#x1e7b;" horiz-adv-x="1100" 
d="M629 1566q0 28 20 48t48 20t48 -20t20 -48q0 -29 -20 -49t-48 -20q-28 1 -48 21t-20 48zM339 1566q0 28 20 48q19 20 47 20t48 -20t20 -48t-20 -49q-20 -20 -48 -20q-28 1 -47 21q-20 20 -20 48zM821 1246h-554v58h554v-58zM933 1035v-1035h-81v192h-4q-30 -86 -116 -148
t-232 -62t-244 90q-99 90 -99 263v700h81v-685q0 -137 78 -215t218 -78q142 0 230 105t88 252v621h81z" />
    <glyph glyph-name="Vtilde" unicode="&#x1e7c;" horiz-adv-x="1163" 
d="M622 0h-90l-494 1360h91l448 -1258h4l453 1258h90zM444 1636q-88 0 -88 -129h-58q0 87 38 136t96 49q56 0 88 -20t65 -60t54 -54t57 -14t65 38q28 38 29 99h58q0 -81 -44 -135t-102 -55q-58 0 -90 17q-30 17 -64 55q-28 37 -51 55t-53 18z" />
    <glyph glyph-name="vtilde" unicode="&#x1e7d;" horiz-adv-x="923" 
d="M419 0l-382 1035h90l331 -938h5l336 938h87l-384 -1035h-83zM305 1364q-99 0 -99 -147h-65q0 100 43 155q44 55 108 55q64 -1 100 -23t71 -67q36 -45 61 -61q24 -16 66 -15q42 -1 74 43t32 112h64q0 -92 -49 -154t-115 -62t-102 20t-68 60q-34 42 -61 63t-60 21z" />
    <glyph glyph-name="Vdotbelow" unicode="&#x1e7e;" horiz-adv-x="1163" 
d="M622 0h-90l-494 1360h91l448 -1258h4l453 1258h90zM511 -288q1 30 21 51t50 21t52 -20q21 -20 21 -52q0 -31 -21 -51q-22 -20 -52 -20q-30 1 -50 21t-21 50z" />
    <glyph glyph-name="vdotbelow" unicode="&#x1e7f;" horiz-adv-x="923" 
d="M419 0l-382 1035h90l331 -938h5l336 938h87l-384 -1035h-83zM391 -288q1 30 21 51t50 21t52 -20q21 -20 21 -52q0 -31 -21 -51q-22 -20 -52 -20q-30 1 -50 21t-21 50z" />
    <glyph glyph-name="Wgrave" unicode="&#x1e80;" horiz-adv-x="1672" 
d="M483 0h-87l-361 1360h92l313 -1233h4l348 1233h88l348 -1233h4l313 1233h92l-362 -1360h-86l-351 1226h-5zM935 1514h-88l-316 237h105z" />
    <glyph glyph-name="wgrave" unicode="&#x1e81;" horiz-adv-x="1400" 
d="M1361 1035l-284 -1035h-82l-292 919h-4l-290 -919h-83l-288 1035h91l237 -919h5l289 919h82l290 -919h6l238 919h85zM796 1211h-64l-255 293h90z" />
    <glyph glyph-name="Wacute" unicode="&#x1e82;" horiz-adv-x="1672" 
d="M483 0h-87l-361 1360h92l313 -1233h4l348 1233h88l348 -1233h4l313 1233h92l-362 -1360h-86l-351 1226h-5zM732 1512l299 237h104l-316 -237h-87z" />
    <glyph glyph-name="wacute" unicode="&#x1e83;" horiz-adv-x="1400" 
d="M1361 1035l-284 -1035h-82l-292 919h-4l-290 -919h-83l-288 1035h91l237 -919h5l289 919h82l290 -919h6l238 919h85zM711 1211h-65l230 293h90z" />
    <glyph glyph-name="Wdieresis" unicode="&#x1e84;" horiz-adv-x="1672" 
d="M483 0h-87l-361 1360h92l313 -1233h4l348 1233h88l348 -1233h4l313 1233h92l-362 -1360h-86l-351 1226h-5zM930 1572q0 24 17 40q17 17 41 17t40 -17q16 -16 17 -40q-1 -24 -17 -42t-40 -18t-41 18t-17 42zM641 1572q0 24 17 40q18 17 42 17t40 -17q16 -16 17 -40
q-1 -24 -17 -42t-40 -18t-42 18q-17 18 -17 42z" />
    <glyph glyph-name="wdieresis" unicode="&#x1e85;" horiz-adv-x="1400" 
d="M1361 1035l-284 -1035h-82l-292 919h-4l-290 -919h-83l-288 1035h91l237 -919h5l289 919h82l290 -919h6l238 919h85zM779 1292q0 28 20 48t48 20t48 -20t20 -48q0 -29 -20 -49t-48 -20q-28 1 -48 21t-20 48zM489 1292q0 28 20 48q19 20 47 20t48 -20t20 -48t-20 -49
q-20 -20 -48 -20q-28 1 -47 21q-20 20 -20 48z" />
    <glyph glyph-name="Wdotaccent" unicode="&#x1e86;" horiz-adv-x="1672" 
d="M483 0h-87l-361 1360h92l313 -1233h4l348 1233h88l348 -1233h4l313 1233h92l-362 -1360h-86l-351 1226h-5zM765 1643q1 30 21 51t50 21q30 -1 51 -21t21 -50t-21 -51q-21 -20 -51 -20t-50 20t-21 50z" />
    <glyph glyph-name="wdotaccent" unicode="&#x1e87;" horiz-adv-x="1400" 
d="M1361 1035l-284 -1035h-82l-292 919h-4l-290 -919h-83l-288 1035h91l237 -919h5l289 919h82l290 -919h6l238 919h85zM629 1318q1 30 21 51t50 21t51 -20t21 -52q0 -30 -21 -50t-51 -20t-50 20t-21 50z" />
    <glyph glyph-name="Wdotbelow" unicode="&#x1e88;" horiz-adv-x="1672" 
d="M483 0h-87l-361 1360h92l313 -1233h4l348 1233h88l348 -1233h4l313 1233h92l-362 -1360h-86l-351 1226h-5zM766 -288q0 30 20 51t52 21q30 0 51 -20t21 -52q0 -31 -21 -51t-51 -20q-30 1 -52 21q-20 20 -20 50z" />
    <glyph glyph-name="wdotbelow" unicode="&#x1e89;" horiz-adv-x="1400" 
d="M1361 1035l-284 -1035h-82l-292 919h-4l-290 -919h-83l-288 1035h91l237 -919h5l289 919h82l290 -919h6l238 919h85zM630 -288q0 30 20 51t52 21q30 0 51 -20t21 -52q0 -31 -21 -51t-51 -20q-30 1 -52 21q-20 20 -20 50z" />
    <glyph glyph-name="Xdotaccent" unicode="&#x1e8a;" horiz-adv-x="1122" 
d="M490 1643q0 30 20 51t51 21q30 -1 51 -21t21 -50t-21 -51q-21 -20 -51 -20q-31 0 -51 20t-20 50zM1079 1360l-469 -683l464 -677h-99l-414 611h-5l-415 -611h-95l465 680l-465 680h98l417 -613h5l417 613h96z" />
    <glyph glyph-name="xdotaccent" unicode="&#x1e8b;" horiz-adv-x="967" 
d="M412 1318q0 30 20 51t51 21q30 0 51 -20t21 -52q0 -30 -21 -50t-51 -20q-31 0 -51 20t-20 50zM796 0l-312 454h-5l-314 -454h-92l363 520l-356 515h97l304 -445h5l307 445h93l-357 -510l364 -525h-97z" />
    <glyph glyph-name="Xdieresis" unicode="&#x1e8c;" horiz-adv-x="1122" 
d="M656 1572q0 24 17 40q17 17 41 17t40 -17q16 -16 17 -40q-1 -24 -17 -42t-40 -18t-41 18t-17 42zM367 1572q0 24 17 40q18 17 42 17t40 -17q16 -16 17 -40q-1 -24 -17 -42t-40 -18t-42 18q-17 18 -17 42zM1079 1360l-469 -683l464 -677h-99l-414 611h-5l-415 -611h-95
l465 680l-465 680h98l417 -613h5l417 613h96z" />
    <glyph glyph-name="xdieresis" unicode="&#x1e8d;" horiz-adv-x="967" 
d="M562 1292q0 28 20 48t48 20t48 -20t20 -48q0 -29 -20 -49t-48 -20q-28 1 -48 21t-20 48zM272 1292q0 28 20 48t48 20t48 -20t19 -48q0 -28 -20 -49q-19 -20 -47 -20q-28 1 -48 21t-20 48zM796 0l-312 454h-5l-314 -454h-92l363 520l-356 515h97l304 -445h5l307 445h93
l-357 -510l364 -525h-97z" />
    <glyph glyph-name="Ydotaccent" unicode="&#x1e8e;" horiz-adv-x="1060" 
d="M459 1643q1 30 21 51t50 21q30 -1 51 -21t21 -50t-21 -51q-21 -20 -51 -20t-50 20t-21 50zM571 0h-81v607l-470 753h96l411 -668h6l413 668h94l-469 -751v-609z" />
    <glyph glyph-name="ydotaccent" unicode="&#x1e8f;" horiz-adv-x="921" 
d="M389 1318q1 30 21 51t50 21t51 -20t21 -52q0 -30 -21 -50t-51 -20t-50 20t-21 50zM196 -341q-47 0 -94 9v73q40 -9 104 -9q126 0 183 159l34 96l-387 1048h89l337 -951h5l332 951h86l-416 -1152q-44 -115 -104 -169t-169 -55z" />
    <glyph glyph-name="Zcircumflex" unicode="&#x1e90;" horiz-adv-x="1152" 
d="M284 1502l277 212h42l272 -212h-94l-197 153h-5l-198 -153h-97zM96 0v65l850 1217v4h-823v74h924v-65l-849 -1217v-5h853v-73h-955z" />
    <glyph glyph-name="zcircumflex" unicode="&#x1e91;" horiz-adv-x="968" 
d="M126 0v62l623 898v5h-624v70h725v-65l-623 -895v-5h624v-70h-725zM224 1232l231 325h64l224 -325h-75l-180 270h-4l-186 -270h-74z" />
    <glyph glyph-name="Zdotbelow" unicode="&#x1e92;" horiz-adv-x="1152" 
d="M96 0v65l850 1217v4h-823v74h924v-65l-849 -1217v-5h853v-73h-955zM506 -288q0 30 20 51t52 21q30 0 51 -20t21 -52q0 -31 -21 -51t-51 -20q-30 1 -52 21q-20 20 -20 50z" />
    <glyph glyph-name="zdotbelow" unicode="&#x1e93;" horiz-adv-x="968" 
d="M126 0v62l623 898v5h-624v70h725v-65l-623 -895v-5h624v-70h-725zM414 -288q0 30 20 51t52 21q30 0 51 -20t21 -52q0 -31 -21 -51t-51 -20q-30 1 -52 21q-20 20 -20 50z" />
    <glyph glyph-name="Zlinebelow" unicode="&#x1e94;" horiz-adv-x="1152" 
d="M846 -279h-554v58h554v-58zM96 0v65l850 1217v4h-823v74h924v-65l-849 -1217v-5h853v-73h-955z" />
    <glyph glyph-name="zlinebelow" unicode="&#x1e95;" horiz-adv-x="968" 
d="M126 0v62l623 898v5h-624v70h725v-65l-623 -895v-5h624v-70h-725zM754 -279h-554v58h554v-58z" />
    <glyph glyph-name="hlinebelow" unicode="&#x1e96;" horiz-adv-x="1114" 
d="M825 -279h-554v58h554v-58zM171 0v1435h80v-592h4q27 85 113 147t233 62q148 0 249 -102t101 -277v-673h-81v661q0 139 -77 227t-222 89t-233 -101t-87 -250v-626h-80z" />
    <glyph glyph-name="tdieresis" unicode="&#x1e97;" horiz-adv-x="664" 
d="M344 1541q0 28 20 48t48 20q28 1 48 -19t20 -49t-20 -49t-48 -20t-48 20t-20 49zM54 1541q0 28 20 48t48 20q28 1 48 -19t19 -49q0 -29 -20 -49q-19 -20 -47 -20t-48 20t-20 49zM223 1035v252h81v-252h277v-71h-277v-733q0 -92 44 -128t128 -36q82 0 118 6v-68
q-42 -7 -105 -7q-151 0 -209 54t-57 193v719h-194v71h194z" />
    <glyph glyph-name="wring" unicode="&#x1e98;" horiz-adv-x="1400" 
d="M582 1358q0 -48 35 -84q35 -35 83 -35t84 35q34 36 34 84t-34 82t-84 35q-48 -1 -83 -35t-35 -82zM699 1185q-73 0 -123 50t-50 122t50 121t123 49q72 0 122 -49t50 -121t-50 -122t-122 -50zM1361 1035l-284 -1035h-82l-292 919h-4l-290 -919h-83l-288 1035h91l237 -919
h5l289 919h82l290 -919h6l238 919h85z" />
    <glyph glyph-name="yring" unicode="&#x1e99;" horiz-adv-x="921" 
d="M342 1358q0 -48 35 -84q35 -35 83 -35t84 35q34 36 34 84t-34 82t-84 35q-48 -1 -83 -35t-35 -82zM459 1185q-73 0 -123 50t-50 122t50 121t123 49q72 0 122 -49t50 -121t-50 -122t-122 -50zM196 -341q-47 0 -94 9v73q40 -9 104 -9q126 0 183 159l34 96l-387 1048h89
l337 -951h5l332 951h86l-416 -1152q-44 -115 -104 -169t-169 -55z" />
    <glyph glyph-name="Adotbelow" unicode="&#x1ea0;" horiz-adv-x="1149" 
d="M505 -288q1 30 21 51t50 21t52 -20q21 -20 21 -52q0 -31 -21 -51q-22 -20 -52 -20q-30 1 -50 21t-21 50zM576 1259h-5l-258 -731h519zM129 0h-85l488 1360h85l488 -1360h-88l-160 458h-567z" />
    <glyph glyph-name="adotbelow" unicode="&#x1ea1;" horiz-adv-x="1015" 
d="M437 -288q1 30 21 51t50 21t52 -20q21 -20 21 -52q0 -31 -21 -51q-22 -20 -52 -20q-30 1 -50 21t-21 50zM461 55q125 0 218 83t93 212v157h-315q-134 0 -201 -58t-67 -162q-1 -104 73 -168t199 -64zM104 286q0 137 90 215t261 78h317v151q0 126 -72 187t-201 61t-195 -54
t-75 -127h-80q6 107 98 181t256 74q163 0 257 -80t94 -230v-742h-80v169h-4q-23 -57 -80 -103q-106 -84 -253 -84t-240 84t-93 220z" />
    <glyph glyph-name="Ahookabove" unicode="&#x1ea2;" horiz-adv-x="1149" 
d="M548 1755q74 0 120 -38t45 -100q0 -89 -107 -150l-36 47q76 41 76 89q0 93 -105 93q-47 0 -99 -23v59q32 23 106 23zM576 1259h-5l-258 -731h519zM129 0h-85l488 1360h85l488 -1360h-88l-160 458h-567z" />
    <glyph glyph-name="ahookabove" unicode="&#x1ea3;" horiz-adv-x="1015" 
d="M499 1504q74 0 123 -42t49 -120q0 -79 -110 -149l-41 49q82 51 82 109q0 41 -32 65t-86 24t-94 -24v62q35 26 109 26zM461 55q125 0 218 83t93 212v157h-315q-134 0 -201 -58t-67 -162q-1 -104 73 -168t199 -64zM104 286q0 137 90 215t261 78h317v151q0 126 -72 187
t-201 61t-195 -54t-75 -127h-80q6 107 98 181t256 74q163 0 257 -80t94 -230v-742h-80v169h-4q-23 -57 -80 -103q-106 -84 -253 -84t-240 84t-93 220z" />
    <glyph glyph-name="Acircumflexacute" unicode="&#x1ea4;" horiz-adv-x="1149" 
d="M746 1722l260 225h103l-307 -243zM281 1534l273 212h42l277 -212h-97l-198 153h-5l-198 -153h-94zM576 1259h-5l-258 -731h519zM129 0h-85l488 1360h85l488 -1360h-88l-160 458h-567z" />
    <glyph glyph-name="acircumflexacute" unicode="&#x1ea5;" horiz-adv-x="1015" 
d="M678 1397l260 225h103l-307 -243zM213 1209l273 212h42l277 -212h-97l-198 153h-5l-198 -153h-94zM461 55q125 0 218 83t93 212v157h-315q-134 0 -201 -58t-67 -162q-1 -104 73 -168t199 -64zM104 286q0 137 90 215t261 78h317v151q0 126 -72 187t-201 61t-195 -54
t-75 -127h-80q6 107 98 181t256 74q163 0 257 -80t94 -230v-742h-80v169h-4q-23 -57 -80 -103q-106 -84 -253 -84t-240 84t-93 220z" />
    <glyph glyph-name="Acircumflexgrave" unicode="&#x1ea6;" horiz-adv-x="1149" 
d="M873 1534h-97l-198 153h-5l-198 -153h-94l273 212h42zM992 1704h-80l-311 243h103zM576 1259h-5l-258 -731h519zM129 0h-85l488 1360h85l488 -1360h-88l-160 458h-567z" />
    <glyph glyph-name="acircumflexgrave" unicode="&#x1ea7;" horiz-adv-x="1015" 
d="M805 1209h-97l-198 153h-5l-198 -153h-94l273 212h42zM924 1379h-80l-311 243h103zM461 55q125 0 218 83t93 212v157h-315q-134 0 -201 -58t-67 -162q-1 -104 73 -168t199 -64zM104 286q0 137 90 215t261 78h317v151q0 126 -72 187t-201 61t-195 -54t-75 -127h-80
q6 107 98 181t256 74q163 0 257 -80t94 -230v-742h-80v169h-4q-23 -57 -80 -103q-106 -84 -253 -84t-240 84t-93 220z" />
    <glyph glyph-name="Acircumflexhookabove" unicode="&#x1ea8;" horiz-adv-x="1149" 
d="M784 1957q48 0 92 -31q43 -31 43 -83q1 -52 -29 -84t-77 -59l-40 34q83 45 83 98q0 33 -28 53t-68 20t-72 -9v51q48 10 96 10zM278 1531l277 208h42l273 -208h-94l-198 150h-5l-198 -150h-97zM576 1259h-5l-258 -731h519zM129 0h-85l488 1360h85l488 -1360h-88l-160 458
h-567z" />
    <glyph glyph-name="acircumflexhookabove" unicode="&#x1ea9;" horiz-adv-x="1015" 
d="M716 1632q48 0 92 -31q43 -31 43 -83q1 -52 -29 -84t-77 -59l-40 34q83 45 83 98q0 33 -28 53t-68 20t-72 -9v51q48 10 96 10zM210 1206l277 208h42l273 -208h-94l-198 150h-5l-198 -150h-97zM461 55q125 0 218 83t93 212v157h-315q-134 0 -201 -58t-67 -162
q-1 -104 73 -168t199 -64zM104 286q0 137 90 215t261 78h317v151q0 126 -72 187t-201 61t-195 -54t-75 -127h-80q6 107 98 181t256 74q163 0 257 -80t94 -230v-742h-80v169h-4q-23 -57 -80 -103q-106 -84 -253 -84t-240 84t-93 220z" />
    <glyph glyph-name="Acircumflextilde" unicode="&#x1eaa;" horiz-adv-x="1149" 
d="M358 1804h-63q0 83 39 130t97 47q58 1 90 -19t65 -58q32 -38 56 -50t61 -13t64 35t28 92h62q0 -76 -45 -128t-105 -52q-61 0 -93 16t-58 46t-50 53t-61 23q-87 0 -87 -122zM279 1524l277 212h42l273 -212h-95l-197 153h-5l-198 -153h-97zM576 1259h-5l-258 -731h519z
M129 0h-85l488 1360h85l488 -1360h-88l-160 458h-567z" />
    <glyph glyph-name="acircumflextilde" unicode="&#x1eab;" horiz-adv-x="1015" 
d="M290 1479h-63q0 83 39 130t97 47t90 -20t65 -57q32 -39 56 -51t61 -12t64 36t28 91h62q0 -77 -45 -129t-105 -51q-61 1 -93 17t-58 46t-50 52q-24 23 -61 23q-87 0 -87 -122zM211 1199l277 212h42l273 -212h-95l-197 153h-5l-198 -153h-97zM461 55q125 0 218 83t93 212
v157h-315q-134 0 -201 -58t-67 -162q-1 -104 73 -168t199 -64zM104 286q0 137 90 215t261 78h317v151q0 126 -72 187t-201 61t-195 -54t-75 -127h-80q6 107 98 181t256 74q163 0 257 -80t94 -230v-742h-80v169h-4q-23 -57 -80 -103q-106 -84 -253 -84t-240 84t-93 220z" />
    <glyph glyph-name="Acircumflexdotbelow" unicode="&#x1eac;" horiz-adv-x="1149" 
d="M283 1502l277 212h42l272 -212h-94l-197 153h-5l-198 -153h-97zM505 -288q1 30 21 51t50 21t52 -20q21 -20 21 -52q0 -31 -21 -51q-22 -20 -52 -20q-30 1 -50 21t-21 50zM576 1259h-5l-258 -731h519zM129 0h-85l488 1360h85l488 -1360h-88l-160 458h-567z" />
    <glyph glyph-name="acircumflexdotbelow" unicode="&#x1ead;" horiz-adv-x="1015" 
d="M437 -288q1 30 21 51t50 21t52 -20q21 -20 21 -52q0 -31 -21 -51q-22 -20 -52 -20q-30 1 -50 21t-21 50zM247 1232l231 325h64l224 -325h-75l-180 270h-4l-186 -270h-74zM461 55q125 0 218 83t93 212v157h-315q-134 0 -201 -58t-67 -162q-1 -104 73 -168t199 -64z
M104 286q0 137 90 215t261 78h317v151q0 126 -72 187t-201 61t-195 -54t-75 -127h-80q6 107 98 181t256 74q163 0 257 -80t94 -230v-742h-80v169h-4q-23 -57 -80 -103q-106 -84 -253 -84t-240 84t-93 220z" />
    <glyph glyph-name="Abreveacute" unicode="&#x1eae;" horiz-adv-x="1149" 
d="M486 1705l303 250h98l-314 -250h-87zM847 1712q0 -92 -78 -156t-194 -64t-191 64t-75 156h66q1 -69 57 -115t144 -46q88 1 147 47q60 46 60 114h64zM576 1259h-5l-258 -731h519zM129 0h-85l488 1360h85l488 -1360h-88l-160 458h-567z" />
    <glyph glyph-name="abreveacute" unicode="&#x1eaf;" horiz-adv-x="1015" 
d="M418 1380l303 250h98l-314 -250h-87zM779 1387q0 -91 -78 -155t-194 -65q-116 0 -191 64t-75 156h66q1 -69 57 -115t144 -46t147 46q60 46 60 115h64zM461 55q125 0 218 83t93 212v157h-315q-134 0 -201 -58t-67 -162q-1 -104 73 -168t199 -64zM104 286q0 137 90 215
t261 78h317v151q0 126 -72 187t-201 61t-195 -54t-75 -127h-80q6 107 98 181t256 74q163 0 257 -80t94 -230v-742h-80v169h-4q-23 -57 -80 -103q-106 -84 -253 -84t-240 84t-93 220z" />
    <glyph glyph-name="Abrevegrave" unicode="&#x1eb0;" horiz-adv-x="1149" 
d="M682 1705h-87l-314 250h98zM847 1712q0 -92 -78 -156t-194 -64t-191 64t-75 156h66q1 -69 57 -115t144 -46q88 1 147 47q60 46 60 114h64zM576 1259h-5l-258 -731h519zM129 0h-85l488 1360h85l488 -1360h-88l-160 458h-567z" />
    <glyph glyph-name="abrevegrave" unicode="&#x1eb1;" horiz-adv-x="1015" 
d="M614 1380h-87l-314 250h98zM779 1387q0 -91 -78 -155t-194 -65q-116 0 -191 64t-75 156h66q1 -69 57 -115t144 -46t147 46q60 46 60 115h64zM461 55q125 0 218 83t93 212v157h-315q-134 0 -201 -58t-67 -162q-1 -104 73 -168t199 -64zM104 286q0 137 90 215t261 78h317
v151q0 126 -72 187t-201 61t-195 -54t-75 -127h-80q6 107 98 181t256 74q163 0 257 -80t94 -230v-742h-80v169h-4q-23 -57 -80 -103q-106 -84 -253 -84t-240 84t-93 220z" />
    <glyph glyph-name="Abrevehookabove" unicode="&#x1eb2;" horiz-adv-x="1149" 
d="M564 1958q54 0 98 -32q46 -32 46 -92q0 -88 -120 -143l-38 43q46 22 69 44t23 52q0 32 -30 53t-70 21t-76 -10v53q44 11 98 11zM847 1712q0 -92 -78 -156t-194 -64t-191 64t-75 156h66q1 -69 57 -115t144 -46q88 1 147 47q60 46 60 114h64zM576 1259h-5l-258 -731h519z
M129 0h-85l488 1360h85l488 -1360h-88l-160 458h-567z" />
    <glyph glyph-name="abrevehookabove" unicode="&#x1eb3;" horiz-adv-x="1015" 
d="M496 1633q54 0 98 -32q46 -32 46 -92q0 -88 -120 -143l-38 43q46 21 69 43t23 54t-30 52q-30 21 -70 21t-76 -10v53q44 11 98 11zM779 1387q0 -91 -78 -155t-194 -65q-116 0 -191 64t-75 156h66q1 -69 57 -115t144 -46t147 46q60 46 60 115h64zM461 55q125 0 218 83
t93 212v157h-315q-134 0 -201 -58t-67 -162q-1 -104 73 -168t199 -64zM104 286q0 137 90 215t261 78h317v151q0 126 -72 187t-201 61t-195 -54t-75 -127h-80q6 107 98 181t256 74q163 0 257 -80t94 -230v-742h-80v169h-4q-23 -57 -80 -103q-106 -84 -253 -84t-240 84
t-93 220z" />
    <glyph glyph-name="Abrevetilde" unicode="&#x1eb4;" horiz-adv-x="1149" 
d="M361 1799h-64q0 83 40 131t97 48t88 -20q30 -20 64 -57q34 -39 56 -51t60 -12q37 0 64 36t28 91h62q0 -78 -45 -130t-105 -52q-60 1 -91 17q-33 16 -59 46t-36 41q-32 34 -73 34q-86 0 -86 -122zM847 1712q0 -92 -78 -156t-194 -64t-191 64t-75 156h66q1 -69 57 -115
t144 -46q88 1 147 47q60 46 60 114h64zM576 1259h-5l-258 -731h519zM129 0h-85l488 1360h85l488 -1360h-88l-160 458h-567z" />
    <glyph glyph-name="abrevetilde" unicode="&#x1eb5;" horiz-adv-x="1015" 
d="M379 1596q-86 0 -86 -122h-64q0 84 40 132t97 47q57 1 88 -19q30 -20 64 -58t56 -50t60 -13q37 -1 64 35t28 92h62q0 -78 -45 -130t-105 -52t-91 16q-33 16 -59 47q-26 30 -36 41q-32 34 -73 34zM779 1387q0 -91 -78 -155t-194 -65q-116 0 -191 64t-75 156h66
q1 -69 57 -115t144 -46t147 46q60 46 60 115h64zM461 55q125 0 218 83t93 212v157h-315q-134 0 -201 -58t-67 -162q-1 -104 73 -168t199 -64zM104 286q0 137 90 215t261 78h317v151q0 126 -72 187t-201 61t-195 -54t-75 -127h-80q6 107 98 181t256 74q163 0 257 -80t94 -230
v-742h-80v169h-4q-23 -57 -80 -103q-106 -84 -253 -84t-240 84t-93 220z" />
    <glyph glyph-name="Abrevedotbelow" unicode="&#x1eb6;" horiz-adv-x="1149" 
d="M300 1715h67q0 -76 56 -121t152 -45q97 1 149 45t52 121h68q0 -97 -68 -163t-202 -66q-132 0 -203 66t-71 163zM505 -288q1 30 21 51t50 21t52 -20q21 -20 21 -52q0 -31 -21 -51q-22 -20 -52 -20q-30 1 -50 21t-21 50zM576 1259h-5l-258 -731h519zM129 0h-85l488 1360h85
l488 -1360h-88l-160 458h-567z" />
    <glyph glyph-name="abrevedotbelow" unicode="&#x1eb7;" horiz-adv-x="1015" 
d="M233 1434h68q-1 -80 53 -130t148 -51q94 0 144 50t50 131h67q0 -138 -115 -206q-61 -36 -146 -36q-127 0 -198 72t-71 170zM437 -288q1 30 21 51t50 21t52 -20q21 -20 21 -52q0 -31 -21 -51q-22 -20 -52 -20q-30 1 -50 21t-21 50zM461 55q125 0 218 83t93 212v157h-315
q-134 0 -201 -58t-67 -162q-1 -104 73 -168t199 -64zM104 286q0 137 90 215t261 78h317v151q0 126 -72 187t-201 61t-195 -54t-75 -127h-80q6 107 98 181t256 74q163 0 257 -80t94 -230v-742h-80v169h-4q-23 -57 -80 -103q-106 -84 -253 -84t-240 84t-93 220z" />
    <glyph glyph-name="Edotbelow" unicode="&#x1eb8;" horiz-adv-x="1073" 
d="M966 75v-75h-776v1360h776v-76h-694v-550h660v-75h-660v-584h694zM506 -288q0 30 20 51t52 21q30 0 51 -20t21 -52q0 -31 -21 -51t-51 -20q-30 1 -52 21q-20 20 -20 50z" />
    <glyph glyph-name="edotbelow" unicode="&#x1eb9;" horiz-adv-x="1046" 
d="M203 581h643v4q0 184 -87 289t-235 105t-234 -105q-87 -105 -87 -289v-4zM122 457v105q0 234 108 362t294 128q188 0 296 -128t107 -361v-53h-724v-53q0 -189 88 -295t233 -106t220 63t85 142h83q-10 -98 -102 -188q-92 -91 -281 -91q-191 0 -299 126t-108 349zM462 -288
q0 30 20 51t52 21q30 0 51 -20t21 -52q0 -31 -21 -51t-51 -20q-30 1 -52 21q-20 20 -20 50z" />
    <glyph glyph-name="Ehookabove" unicode="&#x1eba;" horiz-adv-x="1073" 
d="M550 1755q74 0 118 -38q46 -38 46 -100q0 -89 -107 -150l-36 47q76 41 76 89q0 93 -105 93q-47 0 -99 -23v59q33 23 107 23zM966 75v-75h-776v1360h776v-76h-694v-550h660v-75h-660v-584h694z" />
    <glyph glyph-name="ehookabove" unicode="&#x1ebb;" horiz-adv-x="1046" 
d="M515 1504q74 0 123 -42t49 -120q0 -79 -110 -149l-41 49q82 51 82 109q0 41 -32 65t-86 24t-94 -24v62q35 26 109 26zM203 581h643v4q0 184 -87 289t-235 105t-234 -105q-87 -105 -87 -289v-4zM122 457v105q0 234 108 362t294 128q188 0 296 -128t107 -361v-53h-724v-53
q0 -189 88 -295t233 -106t220 63t85 142h83q-10 -98 -102 -188q-92 -91 -281 -91q-191 0 -299 126t-108 349z" />
    <glyph glyph-name="Etilde" unicode="&#x1ebc;" horiz-adv-x="1073" 
d="M439 1636q-88 0 -88 -129h-58q1 87 39 136t95 49t89 -20t64 -60q33 -40 54 -54q22 -14 58 -14t64 38t29 99h58q0 -81 -44 -135q-45 -54 -103 -55q-58 0 -88 17t-65 55q-28 37 -51 55t-53 18zM966 75v-75h-776v1360h776v-76h-694v-550h660v-75h-660v-584h694z" />
    <glyph glyph-name="etilde" unicode="&#x1ebd;" horiz-adv-x="1046" 
d="M367 1364q-99 0 -99 -147h-65q0 100 43 155q44 55 108 55q64 -1 100 -23t71 -67q36 -45 61 -61q24 -16 66 -15q42 -1 74 43t32 112h64q0 -92 -49 -154t-115 -62t-102 20t-68 60q-34 42 -61 63t-60 21zM203 581h643v4q0 184 -87 289t-235 105t-234 -105q-87 -105 -87 -289
v-4zM122 457v105q0 234 108 362t294 128q188 0 296 -128t107 -361v-53h-724v-53q0 -189 88 -295t233 -106t220 63t85 142h83q-10 -98 -102 -188q-92 -91 -281 -91q-191 0 -299 126t-108 349z" />
    <glyph glyph-name="Ecircumflexacute" unicode="&#x1ebe;" horiz-adv-x="1073" 
d="M966 75v-75h-776v1360h776v-76h-694v-550h660v-75h-660v-584h694zM747 1722l260 225h103l-307 -243zM282 1534l273 212h42l277 -212h-97l-198 153h-5l-198 -153h-94z" />
    <glyph glyph-name="ecircumflexacute" unicode="&#x1ebf;" horiz-adv-x="1046" 
d="M203 581h643v4q0 184 -87 289t-235 105t-234 -105q-87 -105 -87 -289v-4zM122 457v105q0 234 108 362t294 128q188 0 296 -128t107 -361v-53h-724v-53q0 -189 88 -295t233 -106t220 63t85 142h83q-10 -98 -102 -188q-92 -91 -281 -91q-191 0 -299 126t-108 349zM694 1397
l260 225h103l-307 -243zM229 1209l273 212h42l277 -212h-97l-198 153h-5l-198 -153h-94z" />
    <glyph glyph-name="Ecircumflexgrave" unicode="&#x1ec0;" horiz-adv-x="1073" 
d="M966 75v-75h-776v1360h776v-76h-694v-550h660v-75h-660v-584h694zM874 1534h-97l-198 153h-5l-198 -153h-94l273 212h42zM993 1704h-80l-311 243h103z" />
    <glyph glyph-name="ecircumflexgrave" unicode="&#x1ec1;" horiz-adv-x="1046" 
d="M203 581h643v4q0 184 -87 289t-235 105t-234 -105q-87 -105 -87 -289v-4zM122 457v105q0 234 108 362t294 128q188 0 296 -128t107 -361v-53h-724v-53q0 -189 88 -295t233 -106t220 63t85 142h83q-10 -98 -102 -188q-92 -91 -281 -91q-191 0 -299 126t-108 349zM821 1209
h-97l-198 153h-5l-198 -153h-94l273 212h42zM940 1379h-80l-311 243h103z" />
    <glyph glyph-name="Ecircumflexhookabove" unicode="&#x1ec2;" horiz-adv-x="1073" 
d="M966 75v-75h-776v1360h776v-76h-694v-550h660v-75h-660v-584h694zM785 1957q49 0 92 -31t43 -83t-30 -84t-76 -59l-40 34q83 45 83 98q1 33 -27 53t-69 20t-72 -9v51q47 10 96 10zM279 1531l277 208h42l273 -208h-94l-198 150h-5l-198 -150h-97z" />
    <glyph glyph-name="ecircumflexhookabove" unicode="&#x1ec3;" horiz-adv-x="1046" 
d="M203 581h643v4q0 184 -87 289t-235 105t-234 -105q-87 -105 -87 -289v-4zM122 457v105q0 234 108 362t294 128q188 0 296 -128t107 -361v-53h-724v-53q0 -189 88 -295t233 -106t220 63t85 142h83q-10 -98 -102 -188q-92 -91 -281 -91q-191 0 -299 126t-108 349zM732 1632
q49 0 92 -31t43 -83q1 -52 -29 -84t-77 -59l-40 34q83 45 83 98q0 33 -28 53t-68 20t-72 -9v51q47 10 96 10zM226 1206l277 208h42l273 -208h-94l-198 150h-5l-198 -150h-97z" />
    <glyph glyph-name="Ecircumflextilde" unicode="&#x1ec4;" horiz-adv-x="1073" 
d="M359 1804h-63q0 83 39 130t97 47q58 1 90 -19t65 -58t57 -50t60 -13q37 -1 64 35t28 92h62q0 -76 -45 -128t-105 -52t-92 16t-59 46q-26 30 -50 53t-61 23q-87 0 -87 -122zM280 1524l277 212h42l273 -212h-95l-197 153h-5l-198 -153h-97zM966 75v-75h-776v1360h776v-76
h-694v-550h660v-75h-660v-584h694z" />
    <glyph glyph-name="ecircumflextilde" unicode="&#x1ec5;" horiz-adv-x="1046" 
d="M306 1479h-63q0 83 39 130t97 47t90 -20t65 -57q32 -39 56 -51t61 -12t64 36t28 91h62q0 -77 -45 -129t-105 -51q-61 1 -93 17t-58 46t-50 52q-24 23 -61 23q-87 0 -87 -122zM227 1199l277 212h42l273 -212h-95l-197 153h-5l-198 -153h-97zM203 581h643v4q0 184 -87 289
t-235 105t-234 -105q-87 -105 -87 -289v-4zM122 457v105q0 234 108 362t294 128q188 0 296 -128t107 -361v-53h-724v-53q0 -189 88 -295t233 -106t220 63t85 142h83q-10 -98 -102 -188q-92 -91 -281 -91q-191 0 -299 126t-108 349z" />
    <glyph glyph-name="Ecircumflexdotbelow" unicode="&#x1ec6;" horiz-adv-x="1073" 
d="M966 75v-75h-776v1360h776v-76h-694v-550h660v-75h-660v-584h694zM284 1502l277 212h42l272 -212h-94l-197 153h-5l-198 -153h-97zM506 -288q0 30 20 51t52 21q30 0 51 -20t21 -52q0 -31 -21 -51t-51 -20q-30 1 -52 21q-20 20 -20 50z" />
    <glyph glyph-name="ecircumflexdotbelow" unicode="&#x1ec7;" horiz-adv-x="1046" 
d="M462 -288q0 30 20 51t52 21q30 0 51 -20t21 -52q0 -31 -21 -51t-51 -20q-30 1 -52 21q-20 20 -20 50zM203 581h643v4q0 184 -87 289t-235 105t-234 -105q-87 -105 -87 -289v-4zM122 457v105q0 234 108 362t294 128q188 0 296 -128t107 -361v-53h-724v-53q0 -189 88 -295
t233 -106t220 63t85 142h83q-10 -98 -102 -188q-92 -91 -281 -91q-191 0 -299 126t-108 349zM263 1232l231 325h64l224 -325h-75l-180 270h-4l-186 -270h-74z" />
    <glyph glyph-name="Ihookabove" unicode="&#x1ec8;" horiz-adv-x="493" 
d="M220 1755q74 0 118 -38q46 -38 46 -100q0 -89 -107 -150l-36 47q76 41 76 89q0 93 -105 93q-47 0 -99 -23v59q33 23 107 23zM287 0h-81v1360h81v-1360z" />
    <glyph glyph-name="ihookabove" unicode="&#x1ec9;" horiz-adv-x="425" 
d="M204 1504q74 0 123 -42t49 -120q0 -79 -110 -149l-41 49q82 51 82 109q0 41 -32 65q-31 24 -85 24t-95 -24v62q35 26 109 26zM172 0v1035h80v-1035h-80z" />
    <glyph glyph-name="Idotbelow" unicode="&#x1eca;" horiz-adv-x="493" 
d="M176 -288q0 30 20 51t52 21q30 0 51 -20t21 -52q0 -31 -21 -51t-51 -20q-30 1 -52 21q-20 20 -20 50zM287 0h-81v1360h81v-1360z" />
    <glyph glyph-name="idotbelow" unicode="&#x1ecb;" horiz-adv-x="458" 
d="M159 -288q1 30 21 51t50 21t52 -20q21 -20 21 -52q0 -31 -21 -51q-22 -20 -52 -20q-30 1 -50 21t-21 50zM158 1322q0 30 20 52q20 20 51 20q30 0 51 -20t21 -52q0 -30 -21 -50t-51 -21q-31 1 -51 21t-20 50zM189 0v1035h80v-1035h-80z" />
    <glyph glyph-name="Odotbelow" unicode="&#x1ecc;" horiz-adv-x="1309" 
d="M135 556v244q0 271 138 431t382 160q243 -1 381 -161t138 -432v-242q0 -271 -138 -429t-382 -158q-245 0 -382 158t-137 429zM216 806v-256q0 -230 118 -368t320 -138t321 138q118 138 118 368v256q0 230 -119 370t-320 140q-202 0 -320 -140t-118 -370zM584 -288
q0 30 20 51t52 21q30 0 51 -20t21 -52q0 -31 -21 -51t-51 -20q-30 1 -52 21q-20 20 -20 50z" />
    <glyph glyph-name="odotbelow" unicode="&#x1ecd;" horiz-adv-x="1085" 
d="M542 979q-156 -1 -248 -107t-93 -295v-123q0 -188 92 -293t249 -105t249 104t92 294v123q-1 188 -93 295t-248 107zM541 1052q190 0 307 -124t117 -340v-145q-1 -217 -117 -339t-306 -122t-306 122t-116 339v145q0 218 116 341t305 123zM472 -288q0 30 20 51t52 21
q30 0 51 -20t21 -52q0 -31 -21 -51t-51 -20q-30 1 -52 21q-20 20 -20 50z" />
    <glyph glyph-name="Ohookabove" unicode="&#x1ece;" horiz-adv-x="1309" 
d="M135 556v244q0 271 138 431t382 160q243 -1 381 -161t138 -432v-242q0 -271 -138 -429t-382 -158q-245 0 -382 158t-137 429zM216 806v-256q0 -230 118 -368t320 -138t321 138q118 138 118 368v256q0 230 -119 370t-320 140q-202 0 -320 -140t-118 -370zM628 1755
q74 0 118 -38q46 -38 46 -100q0 -89 -107 -150l-36 47q76 41 76 89q0 93 -105 93q-47 0 -99 -23v59q33 23 107 23z" />
    <glyph glyph-name="ohookabove" unicode="&#x1ecf;" horiz-adv-x="1085" 
d="M534 1504q74 0 123 -42t49 -120q0 -79 -110 -149l-41 49q82 51 82 109q0 41 -32 65q-31 24 -85 24t-95 -24v62q35 26 109 26zM542 979q-156 -1 -248 -107t-93 -295v-123q0 -188 92 -293t249 -105t249 104t92 294v123q-1 188 -93 295t-248 107zM541 1052q190 0 307 -124
t117 -340v-145q-1 -217 -117 -339t-306 -122t-306 122t-116 339v145q0 218 116 341t305 123z" />
    <glyph glyph-name="Ocircumflexacute" unicode="&#x1ed0;" horiz-adv-x="1309" 
d="M135 556v244q0 271 138 431t382 160q243 -1 381 -161t138 -432v-242q0 -271 -138 -429t-382 -158q-245 0 -382 158t-137 429zM216 806v-256q0 -230 118 -368t320 -138t321 138q118 138 118 368v256q0 230 -119 370t-320 140q-202 0 -320 -140t-118 -370zM825 1722
l260 225h103l-307 -243zM360 1534l273 212h42l277 -212h-97l-198 153h-5l-198 -153h-94z" />
    <glyph glyph-name="ocircumflexacute" unicode="&#x1ed1;" horiz-adv-x="1085" 
d="M542 979q-156 -1 -248 -107t-93 -295v-123q0 -188 92 -293t249 -105t249 104t92 294v123q-1 188 -93 295t-248 107zM541 1052q190 0 307 -124t117 -340v-145q-1 -217 -117 -339t-306 -122t-306 122t-116 339v145q0 218 116 341t305 123zM713 1397l260 225h103l-307 -243z
M248 1209l273 212h42l277 -212h-97l-198 153h-5l-198 -153h-94z" />
    <glyph glyph-name="Ocircumflexgrave" unicode="&#x1ed2;" horiz-adv-x="1309" 
d="M135 556v244q0 271 138 431t382 160q243 -1 381 -161t138 -432v-242q0 -271 -138 -429t-382 -158q-245 0 -382 158t-137 429zM216 806v-256q0 -230 118 -368t320 -138t321 138q118 138 118 368v256q0 230 -119 370t-320 140q-202 0 -320 -140t-118 -370zM952 1534h-97
l-198 153h-5l-198 -153h-94l273 212h42zM1071 1704h-80l-311 243h103z" />
    <glyph glyph-name="ocircumflexgrave" unicode="&#x1ed3;" horiz-adv-x="1085" 
d="M542 979q-156 -1 -248 -107t-93 -295v-123q0 -188 92 -293t249 -105t249 104t92 294v123q-1 188 -93 295t-248 107zM541 1052q190 0 307 -124t117 -340v-145q-1 -217 -117 -339t-306 -122t-306 122t-116 339v145q0 218 116 341t305 123zM840 1209h-97l-198 153h-5
l-198 -153h-94l273 212h42zM959 1379h-80l-311 243h103z" />
    <glyph glyph-name="Ocircumflexhookabove" unicode="&#x1ed4;" horiz-adv-x="1309" 
d="M135 556v244q0 271 138 431t382 160q243 -1 381 -161t138 -432v-242q0 -271 -138 -429t-382 -158q-245 0 -382 158t-137 429zM216 806v-256q0 -230 118 -368t320 -138t321 138q118 138 118 368v256q0 230 -119 370t-320 140q-202 0 -320 -140t-118 -370zM863 1957
q49 0 92 -31t43 -83t-30 -84t-76 -59l-40 34q83 45 83 98q1 33 -27 53t-69 20t-72 -9v51q47 10 96 10zM357 1531l277 208h42l273 -208h-94l-198 150h-5l-198 -150h-97z" />
    <glyph glyph-name="ocircumflexhookabove" unicode="&#x1ed5;" horiz-adv-x="1085" 
d="M542 979q-156 -1 -248 -107t-93 -295v-123q0 -188 92 -293t249 -105t249 104t92 294v123q-1 188 -93 295t-248 107zM541 1052q190 0 307 -124t117 -340v-145q-1 -217 -117 -339t-306 -122t-306 122t-116 339v145q0 218 116 341t305 123zM751 1632q49 0 92 -31t43 -83
t-30 -84t-76 -59l-40 34q83 45 83 98q1 33 -27 53t-69 20t-72 -9v51q47 10 96 10zM245 1206l277 208h42l273 -208h-94l-198 150h-5l-198 -150h-97z" />
    <glyph glyph-name="Ocircumflextilde" unicode="&#x1ed6;" horiz-adv-x="1309" 
d="M135 556v244q0 271 138 431t382 160q243 -1 381 -161t138 -432v-242q0 -271 -138 -429t-382 -158q-245 0 -382 158t-137 429zM216 806v-256q0 -230 118 -368t320 -138t321 138q118 138 118 368v256q0 230 -119 370t-320 140q-202 0 -320 -140t-118 -370zM437 1804h-63
q0 83 39 130t97 47q58 1 90 -19t65 -58t57 -50t60 -13q37 -1 64 35t28 92h62q0 -76 -45 -128t-105 -52t-92 16t-59 46q-26 30 -50 53t-61 23q-87 0 -87 -122zM358 1524l277 212h42l273 -212h-95l-197 153h-5l-198 -153h-97z" />
    <glyph glyph-name="ocircumflextilde" unicode="&#x1ed7;" horiz-adv-x="1085" 
d="M542 979q-156 -1 -248 -107t-93 -295v-123q0 -188 92 -293t249 -105t249 104t92 294v123q-1 188 -93 295t-248 107zM541 1052q190 0 307 -124t117 -340v-145q-1 -217 -117 -339t-306 -122t-306 122t-116 339v145q0 218 116 341t305 123zM325 1479h-63q0 83 39 130t97 47
t90 -20t65 -57q33 -39 57 -51t60 -12q37 0 64 36t28 91h62q0 -77 -45 -129t-105 -51t-92 17t-59 46q-26 30 -50 52q-24 23 -61 23q-87 0 -87 -122zM246 1199l277 212h42l273 -212h-95l-197 153h-5l-198 -153h-97z" />
    </font>
</defs>
</svg>
