<?xml version="1.0" standalone="no"?>
<!DOCTYPE svg PUBLIC "-//W3C//DTD SVG 1.1//EN" "http://www.w3.org/Graphics/SVG/1.1/DTD/svg11.dtd" >
<svg xmlns="http://www.w3.org/2000/svg">
<metadata>
Created by FontPrep 20130207 at Sat Jul  4 18:38:43 2015
 By Sammy C
(c) 2014 Apple Inc. All rights reserved.
</metadata>
<defs>
<font id="3d4f578d6b9f2f50f555d06a03b63db6" horiz-adv-x='1024' >
  <font-face 
    font-family="SanFranciscoDisplay-Medium"
    font-weight="500"
    font-stretch="normal"
    units-per-em="2048"
    panose-1="0 0 0 0 0 0 0 0 0 0"
    ascent="1638"
    descent="-410"
    x-height="1054"
    cap-height="1365"
    bbox="-521 -489 2048 1994"
    underline-thickness="50"
    underline-position="-25"
    unicode-range="U+0020-FB02"
  />
<missing-glyph horiz-adv-x="1293" 
d="M632 1018q56 0 88 -30q33 -30 33 -74q-1 -44 -21 -72t-86 -74t-91 -97q-26 -51 -22 -140h166v15q0 48 19 76t90 78t101 101q30 50 30 116q0 113 -81 181q-82 68 -220 69q-138 0 -220 -76t-79 -203h169q0 58 34 94t90 36zM501 314q-1 -48 33 -78t88 -30t88 30t33 78
q1 48 -33 78t-88 29q-54 0 -88 -30q-33 -29 -33 -77zM120 0v1365h1053v-1365h-1053z" />
    <glyph glyph-name=".notdef" horiz-adv-x="1293" 
d="M632 1018q56 0 88 -30q33 -30 33 -74q-1 -44 -21 -72t-86 -74t-91 -97q-26 -51 -22 -140h166v15q0 48 19 76t90 78t101 101q30 50 30 116q0 113 -81 181q-82 68 -220 69q-138 0 -220 -76t-79 -203h169q0 58 34 94t90 36zM501 314q-1 -48 33 -78t88 -30t88 30t33 78
q1 48 -33 78t-88 29q-54 0 -88 -30q-33 -29 -33 -77zM120 0v1365h1053v-1365h-1053z" />
    <glyph glyph-name=".null" 
 />
    <glyph glyph-name="nonmarkingreturn" 
 />
    <glyph glyph-name="space" unicode=" " horiz-adv-x="408" 
 />
    <glyph glyph-name="exclam" unicode="!" horiz-adv-x="529" 
d="M154 1365h226l-25 -956h-177zM134 104q0 54 36 87q36 34 95 34t95 -34q36 -33 36 -87t-37 -88t-94 -34t-94 34t-37 88z" />
    <glyph glyph-name="quotedbl" unicode="&#x22;" horiz-adv-x="850" 
d="M523 1365h223l-29 -516h-165zM104 1365h223l-29 -516h-165z" />
    <glyph glyph-name="numbersign" unicode="#" horiz-adv-x="1203" 
d="M501 847l-65 -317h283l65 317h-283zM1149 840h-215l-62 -302h204l-31 -156h-205l-77 -382h-158l77 382h-268l-78 -382h-158l76 382h-201l31 156h203l61 302h-192l30 154h194l74 371h160l-76 -371h270l74 371h158l-75 -371h214z" />
    <glyph glyph-name="dollar" unicode="$" horiz-adv-x="1114" 
d="M628 -129h-137v126q-207 17 -317 125t-112 258h184q6 -88 69 -148t177 -75v472l-77 20q-133 33 -226 117q-94 85 -94 238q-1 112 53 196q102 159 343 182v131h138v-131q171 -16 283 -116t116 -256h-180q-3 82 -62 141t-158 72v-444l80 -20q168 -42 256 -128
q88 -87 88 -251t-116 -264t-308 -117v-128zM868 367q0 87 -48 138t-162 86l-15 3t-15 4v-442q108 8 174 66t66 145zM279 1018q0 -147 213 -206v411q-96 -12 -154 -65t-59 -140z" />
    <glyph glyph-name="percent" unicode="%" horiz-adv-x="1394" 
d="M256 0h-167l534 695l510 670h167l-530 -690zM816 326v28q0 142 76 237t207 95t207 -95t76 -240v-27q0 -144 -77 -240t-208 -96t-206 96t-75 242zM956 344v-8q0 -100 38 -160t104 -61q67 -1 105 59t38 160v8q0 100 -37 159q-38 59 -106 59t-105 -60t-37 -156zM14 1018v28
q0 140 76 236t207 96t207 -95t76 -240v-28q0 -143 -77 -239t-208 -96t-206 96t-75 242zM155 1036v-8q0 -101 37 -161t104 -60q67 -1 105 59t38 159v9q0 100 -37 159q-38 59 -106 59t-104 -60t-37 -156z" />
    <glyph glyph-name="ampersand" unicode="&#x26;" horiz-adv-x="1316" 
d="M756 1061q0 77 -49 123t-125 46t-124 -48t-49 -110q1 -64 31 -116t108 -129q104 53 156 105t52 129zM272 372q0 -115 83 -178t183 -63q208 0 319 117l-361 397l-19 -9q-105 -52 -155 -116t-50 -148zM78 358q0 126 69 215t194 158q41 21 53 27q-80 85 -124 157t-44 156
q0 130 101 218t253 88t254 -85t102 -214t-81 -210t-205 -146l312 -339q59 111 59 343v49h178v-54q0 -300 -112 -467l241 -254h-241l-118 127q-175 -154 -429 -154q-202 1 -332 105t-130 280z" />
    <glyph glyph-name="quotesingle" unicode="'" horiz-adv-x="431" 
d="M104 1365h223l-29 -516h-165z" />
    <glyph glyph-name="parenleft" unicode="(" horiz-adv-x="635" 
d="M330 582q0 -138 18 -254q31 -208 87 -337q56 -128 128 -253h-182q-254 309 -254 828q0 422 189 696q30 44 75 101h174q-73 -83 -129 -223q-58 -140 -82 -280t-24 -278z" />
    <glyph glyph-name="parenright" unicode=")" horiz-adv-x="635" 
d="M426 54q-82 -201 -175 -316h-180q131 226 182 415q50 189 50 378q0 348 -82 550t-152 282h173q154 -196 210 -377t56 -456t-82 -476z" />
    <glyph glyph-name="asterisk" unicode="*" horiz-adv-x="748" 
d="M435 750h-122l16 236l-198 -132l-62 108l213 104l-213 104l62 109l198 -135l-16 239h122l-17 -239l200 135l61 -108l-214 -105l214 -104l-61 -108l-199 132z" />
    <glyph glyph-name="plus" unicode="+" horiz-adv-x="1114" 
d="M642 461v-439h-169v439h-403v168h403v418h169v-418h404v-168h-404z" />
    <glyph glyph-name="comma" unicode="," horiz-adv-x="437" 
d="M170 -236h-148l110 444h209z" />
    <glyph glyph-name="hyphen" unicode="-" horiz-adv-x="787" 
d="M708 470h-630v180h630v-180z" />
    <glyph glyph-name="period" unicode="." horiz-adv-x="499" 
d="M124 106q0 54 36 88t90 35q54 0 90 -35t37 -89q-1 -54 -37 -89t-90 -35t-90 35q-36 36 -36 90z" />
    <glyph glyph-name="slash" unicode="/" horiz-adv-x="689" 
d="M191 -302h-180l490 1739h180z" />
    <glyph glyph-name="zero" unicode="0" horiz-adv-x="1167" 
d="M91 630v103q-1 305 129 483t366 177q236 0 362 -177q128 -177 128 -483v-103q0 -302 -128 -480t-364 -178t-364 177t-129 481zM296 732v-100q0 -232 76 -358t212 -127q134 1 210 127t77 358v100q-1 232 -77 359t-210 127t-212 -127q-76 -127 -76 -359z" />
    <glyph glyph-name="one" unicode="1" horiz-adv-x="817" 
d="M632 1365v-1365h-204v1150h-5q-139 -76 -319 -200v208q154 110 334 207h194z" />
    <glyph glyph-name="two" unicode="2" horiz-adv-x="1118" 
d="M308 978h-199v9q0 162 114 284t319 122q206 -1 326 -107t120 -270q0 -86 -20 -129t-26 -57t-26 -42t-26 -40q-6 -10 -32 -42t-31 -38q-6 -6 -37 -42t-36 -42l-349 -405v-4h609v-175h-894v129l506 574q118 135 142 213q12 41 13 84q0 99 -66 160q-65 61 -171 61
q-106 -1 -172 -69t-65 -165q0 -1 1 -5v-4z" />
    <glyph glyph-name="three" unicode="3" horiz-adv-x="1140" 
d="M411 619v170h134q110 0 179 62q68 63 68 159t-66 155t-175 59q-110 0 -170 -63t-67 -147h-195q4 150 116 265q112 114 313 114q202 1 324 -99t126 -242t-76 -232t-171 -104v-5q131 -11 224 -122q70 -84 72 -209q3 -177 -140 -293t-360 -116t-335 111t-124 280h192
q12 -98 82 -159t198 -61t204 68t75 174q-1 107 -77 171t-209 64h-142z" />
    <glyph glyph-name="four" unicode="4" horiz-adv-x="1177" 
d="M282 448h465v748h-5q-274 -415 -460 -746v-2zM942 1365v-917h175v-175h-175v-273h-195v273h-662v173q118 214 221 379q102 165 198 317t141 223h297z" />
    <glyph glyph-name="five" unicode="5" horiz-adv-x="1194" 
d="M889 439q1 137 -81 219t-197 82t-185 -50t-103 -120h-177l71 797h776v-174h-606l-42 -404h5q32 41 112 79t192 38t214 -56t165 -160q62 -106 62 -240q0 -212 -143 -345t-356 -133t-335 109t-132 270h195q16 -99 90 -153t184 -55q110 0 200 79q91 79 91 217z" />
    <glyph glyph-name="six" unicode="6" horiz-adv-x="1145" 
d="M312 432q0 -136 82 -212t198 -76t196 75t80 215t-84 215q-84 74 -197 74q-115 0 -195 -78t-80 -213zM601 1220q-137 0 -224 -135t-93 -395h6q32 80 122 140t194 60t182 -30t142 -84q62 -54 100 -142q38 -86 38 -191q0 -216 -136 -343t-356 -127q-220 1 -354 169
q-135 168 -135 515t142 540t379 193q95 0 175 -31q79 -31 131 -81q108 -106 119 -237h-201q-6 67 -68 123t-163 56z" />
    <glyph glyph-name="seven" unicode="7" horiz-adv-x="1087" 
d="M89 1365h890v-181l-557 -1184h-216l574 1186v4h-691v175z" />
    <glyph glyph-name="eight" unicode="8" horiz-adv-x="1189" 
d="M591 -28q-220 0 -357 112t-137 287q0 176 131 276q67 51 149 71v4q-89 29 -157 107t-68 200q0 159 124 261t320 103q194 -1 318 -103t125 -269q0 -167 -149 -263q-37 -24 -77 -36v-4q99 -23 189 -107q89 -84 89 -249q0 -166 -140 -278t-360 -112zM596 790q106 0 175 62
t69 159t-69 157t-176 61q-107 -1 -176 -61t-69 -157t70 -159t176 -62zM595 134q127 0 211 70t83 180q1 110 -83 180t-211 70t-211 -70t-84 -180t84 -180t211 -70z" />
    <glyph glyph-name="nine" unicode="9" horiz-adv-x="1145" 
d="M847 934q-1 132 -79 210q-78 77 -196 77t-200 -76t-82 -215t78 -214t196 -75q116 1 200 81t83 212zM556 145q153 1 235 145t81 385h-9q-31 -84 -121 -142t-199 -58q-109 -1 -185 29t-136 85t-96 142t-36 194t39 197t104 147q137 122 326 122q243 -1 377 -167t134 -514
t-138 -542t-380 -193t-370 165q-72 92 -78 199h200q10 -76 76 -135t176 -59z" />
    <glyph glyph-name="colon" unicode=":" horiz-adv-x="537" 
d="M139 105q1 54 37 89t90 35t90 -35t36 -89t-36 -89t-90 -35t-90 35t-37 89zM139 812q1 54 37 89t90 35t90 -35t36 -89t-36 -89t-90 -35t-90 35t-37 89z" />
    <glyph glyph-name="semicolon" unicode=";" horiz-adv-x="537" 
d="M204 -254h-149l107 444h208zM141 812q0 54 36 90q36 34 90 34q55 0 91 -35t36 -89t-36 -89t-91 -35q-54 0 -90 35t-36 89z" />
    <glyph glyph-name="less" unicode="&#x3c;" horiz-adv-x="1114" 
d="M118 440v151l876 514v-209l-655 -369v-10l655 -351v-208z" />
    <glyph glyph-name="equal" unicode="=" horiz-adv-x="1114" 
d="M990 658h-866v163h866v-163zM990 274h-866v161h866v-161z" />
    <glyph glyph-name="greater" unicode="&#x3e;" horiz-adv-x="1114" 
d="M995 591v-151l-877 -482v208l657 351v10l-657 369v209z" />
    <glyph glyph-name="question" unicode="?" horiz-adv-x="956" 
d="M508 1396q86 0 178 -37t152 -118t59 -198q0 -117 -55 -185q-55 -69 -132 -128q-76 -60 -103 -85q-63 -58 -63 -159v-58h-191l-1 78q-2 68 26 128t64 98q38 38 90 78q83 64 121 108t38 129t-62 133q-63 48 -163 48t-158 -64t-59 -164h-190q-3 242 187 342q102 54 262 54z
M323 104q1 54 37 87q36 34 94 34t94 -34q36 -33 37 -87q0 -54 -37 -88t-94 -34t-94 34t-37 88z" />
    <glyph glyph-name="at" unicode="@" horiz-adv-x="1682" 
d="M684 483q0 -211 157 -211q71 0 113 49t42 153v81q0 94 -44 145t-114 51q-68 -1 -111 -53t-43 -154v-61zM1254 133q-98 0 -160 41t-75 99h-10q-15 -55 -77 -97t-145 -43q-125 0 -195 89t-71 239v97q1 145 73 234t200 89q82 1 134 -39t68 -92h8v116h154v-490q0 -55 32 -85
t85 -30q77 0 129 86t52 251v34q0 223 -152 383q-72 77 -186 121q-112 44 -248 44h-8q-268 0 -442 -172q-83 -82 -130 -204t-47 -267v-45q0 -155 49 -277t134 -197q173 -153 429 -153h8q203 0 314 49v-136q-99 -46 -317 -46h-9q-323 0 -537 189q-104 92 -163 237t-59 328v57
q0 173 58 318t160 243t245 154q142 55 307 55h8q172 0 314 -56t231 -151q188 -198 188 -469v-50q1 -204 -97 -329t-252 -125z" />
    <glyph glyph-name="A" unicode="A" horiz-adv-x="1218" 
d="M607 1141h-7l-193 -590h392zM230 0h-209l476 1365h223l476 -1365h-221l-127 391h-490z" />
    <glyph glyph-name="B" unicode="B" horiz-adv-x="1234" 
d="M363 621v-452h225q264 0 328 110q26 44 25 109q0 114 -73 174t-200 59h-305zM562 784q308 0 308 206q0 105 -60 156t-161 51h-286v-413h199zM158 0v1365h531q175 1 281 -89t106 -247q0 -120 -60 -196t-164 -105v-9q139 -17 219 -106t80 -230q1 -183 -131 -283t-345 -100
h-517z" />
    <glyph glyph-name="C" unicode="C" horiz-adv-x="1258" 
d="M310 764v-171q0 -222 92 -331t245 -109q154 -1 235 79t81 197h201v-11q0 -135 -81 -247q-144 -199 -434 -199q-256 0 -401 160t-145 460v174q1 300 147 464t400 163q121 0 221 -40q101 -40 163 -106q130 -138 130 -321v-10h-201q0 115 -81 206t-235 91q-153 0 -245 -114
t-92 -335z" />
    <glyph glyph-name="D" unicode="D" horiz-adv-x="1303" 
d="M364 1189v-1012h233q207 0 308 125t101 379q0 508 -409 508h-233zM158 1365h457q375 0 517 -269q86 -163 87 -412q0 -530 -370 -650q-103 -34 -234 -34h-457v1365z" />
    <glyph glyph-name="E" unicode="E" horiz-adv-x="1107" 
d="M996 177v-177h-838v1365h838v-177h-633v-408h597v-170h-597v-433h633z" />
    <glyph glyph-name="F" unicode="F" horiz-adv-x="1042" 
d="M364 0h-206v1365h827v-178h-621v-437h569v-176h-569v-574z" />
    <glyph glyph-name="G" unicode="G" horiz-adv-x="1283" 
d="M644 1213q-140 -1 -238 -109t-97 -327v-182q0 -207 88 -325t245 -118t248 80t91 202v116h-329v170h528v-279q0 -133 -72 -247q-138 -221 -452 -222q-272 0 -412 167t-141 456v183q0 287 151 451t408 164q118 0 216 -37q98 -36 160 -100q128 -130 139 -314h-203
q-16 133 -104 202q-86 69 -226 69z" />
    <glyph glyph-name="H" unicode="H" horiz-adv-x="1377" 
d="M1220 0h-206v615h-650v-615h-206v1365h206v-572h650v572h206v-1365z" />
    <glyph glyph-name="I" unicode="I" horiz-adv-x="521" 
d="M364 0h-206v1365h206v-1365z" />
    <glyph glyph-name="J" unicode="J" horiz-adv-x="997" 
d="M25 338h200q3 -84 59 -132t148 -48t150 58t57 180v969h207v-956q0 -215 -114 -326t-303 -111t-297 103t-107 263z" />
    <glyph glyph-name="K" unicode="K" horiz-adv-x="1209" 
d="M364 0h-206v1365h206v-644h9l568 644h236l-502 -583l527 -782h-256l-423 641l-159 -175v-466z" />
    <glyph glyph-name="L" unicode="L" horiz-adv-x="999" 
d="M976 181v-181h-818v1365h206v-1184h612z" />
    <glyph glyph-name="M" unicode="M" horiz-adv-x="1600" 
d="M347 0h-185v1365h204l432 -998h5l431 998h204v-1365h-186v963h-8l-366 -830h-157l-367 830h-7v-963z" />
    <glyph glyph-name="N" unicode="N" horiz-adv-x="1368" 
d="M357 0h-199v1365h187l659 -1014h6v1014h200v-1365h-187l-660 1016h-6v-1016z" />
    <glyph glyph-name="O" unicode="O" horiz-adv-x="1324" 
d="M103 580v192q0 289 151 455t409 166q258 1 408 -165t150 -456v-192q0 -288 -151 -448t-410 -160t-408 160t-149 448zM310 774v-194q0 -212 97 -320t255 -108t254 108q97 108 97 320v194q1 212 -97 326t-254 114t-254 -114t-98 -326z" />
    <glyph glyph-name="P" unicode="P" horiz-adv-x="1165" 
d="M363 1191v-522h192q266 -1 325 131q23 52 23 130q0 124 -68 192t-190 69h-282zM158 1365h513q201 0 322 -121q121 -120 121 -314t-121 -313t-323 -119h-307v-498h-205v1365z" />
    <glyph glyph-name="Q" unicode="Q" horiz-adv-x="1327" 
d="M308 777v-191q0 -214 98 -326t254 -115q70 0 123 23l-163 226h215l91 -122q92 115 92 314v191q0 213 -98 325t-258 112q-158 0 -256 -112t-98 -325zM104 587v190q0 288 151 452t407 164q256 -1 408 -165t152 -451v-190q0 -312 -178 -477l183 -258h-220l-118 164
q-104 -44 -227 -44q-256 0 -407 164t-151 451z" />
    <glyph glyph-name="R" unicode="R" horiz-adv-x="1228" 
d="M362 701h272q133 0 203 62t70 181t-72 184t-195 65h-278v-492zM668 1365q228 0 340 -121t112 -294q0 -218 -164 -334q-42 -30 -88 -47l277 -569h-233l-248 532h-302v-532h-204v1365h510z" />
    <glyph glyph-name="S" unicode="S" horiz-adv-x="1172" 
d="M578 147q140 0 219 60q79 59 79 151t-52 140t-167 76l-230 58q-137 34 -232 120q-96 86 -96 227q1 143 69 235q135 182 414 182t414 -178q69 -91 71 -216h-199q-8 97 -82 159t-202 62q-128 -1 -202 -57q-76 -56 -76 -155q0 -144 191 -190l228 -58q209 -51 293 -161
q66 -86 66 -215q0 -195 -144 -305t-376 -110q-301 0 -431 182q-69 97 -73 221h203q10 -99 93 -163q82 -64 222 -65z" />
    <glyph glyph-name="T" unicode="T" horiz-adv-x="1054" 
d="M629 0h-204v1186h-407v179h1018v-179h-407v-1186z" />
    <glyph glyph-name="U" unicode="U" horiz-adv-x="1341" 
d="M348 1365v-881q0 -153 87 -242t235 -89q148 -1 236 89t88 242v881h205v-891q1 -226 -145 -364t-384 -138t-382 139q-146 139 -146 366v888h206z" />
    <glyph glyph-name="V" unicode="V" horiz-adv-x="1214" 
d="M721 0h-227l-480 1365h236l357 -1114h8l354 1114h231z" />
    <glyph glyph-name="W" unicode="W" horiz-adv-x="1698" 
d="M569 0h-187l-371 1365h233l238 -1037h7l261 1037h198l260 -1037h8l238 1037h232l-371 -1365h-187l-276 1030h-7z" />
    <glyph glyph-name="X" unicode="X" horiz-adv-x="1144" 
d="M1144 1365l-447 -688l439 -677h-243l-324 521h-11l-326 -521h-229l439 688l-433 677h245l324 -525h11l320 525h235z" />
    <glyph glyph-name="Y" unicode="Y" horiz-adv-x="1108" 
d="M656 0h-205v565l-456 800h232l324 -597h7l327 597h228l-457 -797v-568z" />
    <glyph glyph-name="Z" unicode="Z" horiz-adv-x="1156" 
d="M83 0v141l708 1041v6h-685v177h937v-139l-703 -1042v-6h721v-178h-978z" />
    <glyph glyph-name="bracketleft" unicode="[" horiz-adv-x="668" 
d="M127 1365h463v-150h-270v-1293h283v-150h-476v1593z" />
    <glyph glyph-name="backslash" unicode="\" horiz-adv-x="689" 
d="M681 -302h-180l-490 1739h180z" />
    <glyph glyph-name="bracketright" unicode="]" horiz-adv-x="668" 
d="M78 1365h463v-1593h-475v150h283v1293h-271v150z" />
    <glyph glyph-name="asciicircum" unicode="^" horiz-adv-x="795" 
d="M751 795h-173l-177 408h-7l-179 -408h-171l262 570h185z" />
    <glyph glyph-name="underscore" unicode="_" horiz-adv-x="846" 
d="M873 -260h-901v157h901v-157z" />
    <glyph glyph-name="grave" unicode="`" horiz-adv-x="946" 
d="M588 1215h-164l-237 277h208z" />
    <glyph glyph-name="a" unicode="a" horiz-adv-x="1072" 
d="M500 143q94 -1 162 61t68 153v111h-243q-97 0 -146 -42t-49 -119t58 -121t150 -43zM432 -17q-154 0 -249 87q-95 86 -95 230t96 228t275 83h271v118q0 175 -196 175t-213 -158h-194q7 148 107 236t294 89q404 0 404 -344v-727h-192v138h-7q-41 -68 -117 -112t-184 -43z
" />
    <glyph glyph-name="b" unicode="b" horiz-adv-x="1166" 
d="M625 154q101 0 170 84t69 241v91q0 160 -67 246t-187 86t-190 -90t-70 -231v-111q0 -184 114 -270q60 -46 161 -46zM658 -16q-118 0 -198 49t-110 127h-7v-160h-195v1437h202v-531h6q89 164 295 164q207 0 313 -130t106 -353v-117q0 -230 -109 -358t-303 -128z" />
    <glyph glyph-name="c" unicode="c" horiz-adv-x="1040" 
d="M95 473v113q0 214 119 350q118 136 318 136t310 -100t113 -239h-193q-8 65 -65 118t-150 53q-123 0 -187 -90t-63 -233v-109q1 -139 67 -227t173 -88t162 42t70 108h193q-6 -137 -120 -231t-312 -94t-317 134q-118 134 -118 357z" />
    <glyph glyph-name="d" unicode="d" horiz-adv-x="1168" 
d="M553 901q-124 0 -188 -91t-64 -245v-74q0 -157 65 -247q66 -90 190 -91q124 0 192 88t68 248v82q0 153 -70 241t-193 89zM505 1071q117 -1 197 -47t108 -118h6v531h202v-1437h-195v160h-7q-21 -72 -105 -124t-206 -51q-197 0 -303 130t-106 349v127q0 217 107 349
t302 131z" />
    <glyph glyph-name="e" unicode="e" horiz-adv-x="1075" 
d="M296 628h490v3q0 123 -66 201t-179 77q-113 0 -179 -78t-66 -200v-3zM95 477v93q1 228 117 365t330 137t328 -136t115 -364v-92h-689v-30q0 -128 66 -214t176 -87q112 1 166 43t67 105h201q-16 -115 -115 -215t-312 -100t-331 134t-119 361z" />
    <glyph glyph-name="f" unicode="f" horiz-adv-x="701" 
d="M214 0v887h-151v163h151v105q0 153 80 225t250 71q33 0 90 -6v-156q-45 3 -58 3q-85 0 -124 -34t-39 -119v-89h205v-163h-202v-887h-202z" />
    <glyph glyph-name="g" unicode="g" horiz-adv-x="1134" 
d="M550 902q-118 0 -190 -87t-72 -235v-94q0 -146 74 -228t191 -83q118 0 184 86t66 215v105q1 139 -67 230t-186 91zM552 -230q118 0 185 66t67 187v153h-7q-32 -71 -113 -118t-188 -47q-180 0 -296 125t-116 336v132q0 210 116 338t299 128q121 0 195 -46t109 -118h6v148
h196v-1033q1 -310 -285 -391q-84 -24 -189 -24q-203 0 -310 90t-114 222h203q9 -64 67 -106q57 -42 175 -42z" />
    <glyph glyph-name="h" unicode="h" horiz-adv-x="1177" 
d="M149 0v1437h202v-526h8q27 63 101 111t192 49q174 0 280 -113t105 -297v-661h-202v617q0 128 -62 202q-63 74 -177 74t-180 -72t-65 -204v-617h-202z" />
    <glyph glyph-name="i" unicode="i" horiz-adv-x="541" 
d="M145 1312q-1 50 35 83t90 33t90 -32t36 -84q0 -51 -36 -84t-90 -33q-54 -1 -90 33t-35 84zM170 0v1054h201v-1054h-201z" />
    <glyph glyph-name="j" unicode="j" horiz-adv-x="541" 
d="M371 1054v-1080q0 -178 -80 -262t-226 -84q-66 0 -102 9v154q25 -5 63 -5q76 0 110 45t34 145v1078h201zM145 1312q-1 50 35 83t90 33t90 -32t36 -84q0 -51 -36 -84t-90 -33q-54 -1 -90 33t-35 84z" />
    <glyph glyph-name="k" unicode="k" horiz-adv-x="1041" 
d="M350 0h-202v1437h202v-848h9l406 465h231l-405 -457l432 -597h-239l-343 476l-91 -94v-382z" />
    <glyph glyph-name="l" unicode="l" horiz-adv-x="507" 
d="M153 0v1437h201v-1437h-201z" />
    <glyph glyph-name="m" unicode="m" horiz-adv-x="1749" 
d="M625 1071q238 0 301 -173h9q31 73 115 123t207 50q165 0 258 -95t93 -258v-718h-201v671q1 103 -55 163t-158 61q-102 0 -160 -65t-58 -173v-657h-198v657q0 116 -57 177t-155 61t-158 -62q-61 -62 -61 -174v-659h-201v1054h199v-136h10q29 62 99 108t171 45z" />
    <glyph glyph-name="n" unicode="n" horiz-adv-x="1171" 
d="M146 0v1054h199v-143h7q31 67 111 113t192 47q163 0 269 -98t106 -274v-699h-203v630q0 263 -237 263q-116 1 -180 -69t-63 -201v-623h-201z" />
    <glyph glyph-name="o" unicode="o" horiz-adv-x="1115" 
d="M558 150q258 0 258 349v57q0 266 -155 331q-45 19 -103 19t-104 -19q-158 -66 -157 -331v-57q-1 -267 157 -331q46 -18 104 -18zM558 1072q226 0 344 -136t118 -367v-81q0 -234 -117 -370t-345 -136t-346 136q-117 136 -117 370v80q1 224 119 364t344 140z" />
    <glyph glyph-name="p" unicode="p" horiz-adv-x="1164" 
d="M607 154q119 0 187 84t68 242v95q0 157 -68 242t-187 85q-120 0 -189 -86t-69 -226v-119q0 -137 70 -227t188 -90zM660 -16q-116 0 -192 44t-112 116h-7v-506h-202v1417h195v-149h7q33 76 115 120t202 44q180 0 290 -126t110 -349v-137q0 -222 -110 -348t-296 -126z" />
    <glyph glyph-name="q" unicode="q" horiz-adv-x="1163" 
d="M555 900q-123 0 -189 -85t-65 -239v-98q0 -154 68 -240q67 -86 189 -86t189 92t67 230v104q0 150 -68 236t-191 86zM504 1070q118 0 196 -44t114 -120h7v148h195v-1416h-202v506h-7q-33 -72 -113 -116t-193 -44q-189 0 -297 128t-108 347v140q0 215 111 343t297 128z" />
    <glyph glyph-name="r" unicode="r" horiz-adv-x="724" 
d="M369 924q65 146 243 146q50 0 83 -5v-181q-27 6 -90 6q-240 0 -240 -250v-640h-204v1054h201v-130h7z" />
    <glyph glyph-name="s" unicode="s" horiz-adv-x="998" 
d="M98 761q0 71 32 134t90 101q114 76 287 76t275 -88t101 -230h-184q-5 68 -54 118t-145 49t-152 -41q-55 -40 -55 -103t39 -96q39 -34 92 -45q78 -16 116 -22q219 -32 304 -118q67 -68 67 -181q1 -157 -115 -245t-306 -88t-300 82t-111 224h196q10 -70 66 -112
q55 -42 159 -41q104 -1 159 43t55 119t-90 113q-45 18 -143 38t-143 32q-44 12 -94 35t-79 53t-48 76t-19 117z" />
    <glyph glyph-name="t" unicode="t" horiz-adv-x="683" 
d="M202 1050v264h199v-264h207v-163h-207v-581q-1 -88 35 -120t130 -32q22 0 48 2v-157q-40 -7 -116 -7q-169 0 -233 72q-65 72 -65 232v591h-145v163h147z" />
    <glyph glyph-name="u" unicode="u" horiz-adv-x="1166" 
d="M1020 1054v-1054h-199v143h-9q-30 -69 -108 -115t-196 -45q-168 -1 -269 95t-101 274v702h203v-646q1 -133 65 -190t171 -57t173 66t67 184v643h203z" />
    <glyph glyph-name="v" unicode="v" horiz-adv-x="1002" 
d="M388 0l-366 1054h222l247 -853h8l267 853h214l-378 -1054h-214z" />
    <glyph glyph-name="w" unicode="w" horiz-adv-x="1493" 
d="M1465 1054l-279 -1054h-203l-229 792h-5l-224 -792h-205l-292 1054h221l177 -815h9l221 815h190l228 -815h8l182 815h201z" />
    <glyph glyph-name="x" unicode="x" horiz-adv-x="1034" 
d="M752 0l-236 382h-8l-237 -382h-222l346 522l-351 532h238l230 -380h9l237 380h227l-354 -517l355 -537h-234z" />
    <glyph glyph-name="y" unicode="y" horiz-adv-x="1052" 
d="M239 -382q-65 0 -123 9v157q27 -5 99 -5q143 0 183 160l14 50l-381 1065h224l264 -864h9l266 864h215q-365 -1044 -366 -1048l-27 -73q-68 -186 -159 -250q-91 -65 -218 -65z" />
    <glyph glyph-name="z" unicode="z" horiz-adv-x="977" 
d="M92 0v128l544 755v11h-544v160h792v-133l-537 -749v-10h545v-162h-800z" />
    <glyph glyph-name="braceleft" unicode="{" horiz-adv-x="737" 
d="M438 817q0 -205 -178 -221v-24q178 -17 178 -227v-297q0 -111 48 -159t167 -48h41v-154h-69q-187 1 -281 81t-95 261v254q-1 108 -35 154t-131 46v201q97 0 131 46t35 155v223q0 178 94 256t282 78h69v-154h-41q-119 0 -167 -48t-48 -159v-264z" />
    <glyph glyph-name="bar" unicode="|" horiz-adv-x="676" 
d="M426 -305h-175v1742h175v-1742z" />
    <glyph glyph-name="braceright" unicode="}" horiz-adv-x="737" 
d="M300 817v264q0 111 -48 159t-168 48h-41v154h69q188 0 282 -78t94 -256v-223q0 -109 34 -155t132 -46v-201q-98 0 -132 -46t-34 -154v-254q0 -181 -94 -261t-282 -81h-69v154h41q120 0 168 48t48 159v297q0 210 177 227v24q-177 17 -177 221z" />
    <glyph glyph-name="asciitilde" unicode="~" horiz-adv-x="1114" 
d="M756 487q-70 -1 -123 27q-54 28 -118 88t-93 78q-29 16 -56 16q-120 0 -130 -168h-167q0 145 69 244q69 100 225 100q116 0 230 -110q46 -48 81 -72t73 -24q121 0 130 167h166q0 -144 -67 -241q-34 -49 -92 -77t-128 -28z" />
    <glyph glyph-name="nonbreakingspace" unicode="&#xa0;" horiz-adv-x="408" 
 />
    <glyph glyph-name="exclamdown" unicode="&#xa1;" horiz-adv-x="529" 
d="M397 984q0 -54 -37 -88t-94 -34t-94 34t-37 88q0 53 37 87q36 34 94 34q58 1 94 -33t37 -88zM376 -276h-226l25 956h177z" />
    <glyph glyph-name="cent" unicode="&#xa2;" horiz-adv-x="1114" 
d="M641 -86h-159v226q-168 19 -270 140t-101 317v169q0 192 102 312t269 139v240h159v-240q153 -17 243 -112t94 -214h-191q-8 55 -44 94q-67 74 -185 74t-186 -81t-68 -216v-167q0 -133 70 -211t182 -78t168 42t69 107h192q-4 -119 -95 -209t-249 -106v-226z" />
    <glyph glyph-name="sterling" unicode="&#xa3;" horiz-adv-x="1114" 
d="M387 167h662v-167h-955v176q117 3 143 63q27 60 27 182v197h-189v150h189v280q0 164 110 254t284 90t277 -88q102 -88 106 -243h-189q-4 71 -56 117t-144 47q-92 -1 -142 -57t-50 -142v-258h296v-150h-296v-205q-2 -191 -73 -234v-12z" />
    <glyph glyph-name="currency" unicode="&#xa4;" horiz-adv-x="1114" 
d="M319 654q-1 -98 69 -168t168 -69q98 -1 169 69q70 70 70 168t-70 168q-71 70 -169 70t-168 -70t-69 -168zM554 270q-112 0 -206 63l-174 -175l-110 110l173 174q-65 98 -65 212t61 206l-169 169l111 111l167 -168q96 66 213 66t212 -63l165 165l110 -111l-164 -165
q63 -97 63 -213t-68 -214l169 -169l-109 -110l-172 171q-95 -59 -207 -59z" />
    <glyph glyph-name="yen" unicode="&#xa5;" horiz-adv-x="1114" 
d="M949 261h-289v-261h-205v261h-287v137h287v139h-287v137h227l-396 691h232l322 -597h10l325 597h229l-397 -691h229v-137h-289v-139h289v-137z" />
    <glyph glyph-name="brokenbar" unicode="&#xa6;" horiz-adv-x="463" 
d="M319 -305h-175v682h175v-682zM319 782h-175v655h175v-655z" />
    <glyph glyph-name="section" unicode="&#xa7;" horiz-adv-x="931" 
d="M679 568q0 124 -211 170q-31 7 -74 16q-46 -14 -86 -64t-39 -118q0 -68 56 -109t241 -83q48 20 80 71t33 117zM668 57q0 55 -16 83t-67 54q-50 25 -111 40q-60 16 -100 26q-113 29 -203 93q-89 64 -89 201q0 159 168 246v7q-162 92 -162 256q0 105 54 182
q105 149 330 149q167 0 270 -90t103 -226h-178q-3 58 -57 108t-140 50q-88 0 -140 -45t-51 -112q0 -67 40 -102t90 -51q49 -16 116 -31q67 -17 107 -29q235 -73 235 -253t-152 -279v-7q67 -42 107 -96t39 -140q1 -155 -111 -249t-286 -94t-285 85q-112 85 -113 229h183
q11 -72 65 -113t153 -41t150 47t51 102z" />
    <glyph glyph-name="dieresis" unicode="&#xa8;" horiz-adv-x="946" 
d="M542 1321q0 45 28 73t73 29q45 -1 73 -29t29 -73q0 -45 -29 -73t-73 -29q-45 1 -73 29t-28 73zM179 1320q1 44 29 74q28 29 72 29q44 -1 74 -29q28 -28 28 -73t-28 -73t-74 -29q-44 1 -72 29t-29 72z" />
    <glyph glyph-name="copyright" unicode="&#xa9;" horiz-adv-x="1640" 
d="M799 -64q-183 0 -348 92t-255 254t-91 362v103q0 142 54 268t148 218q94 91 229 145q136 54 290 54t289 -54t229 -146t147 -219q54 -126 54 -266v-103q0 -151 -53 -282q-52 -130 -146 -224t-229 -148t-318 -54zM231 641q-1 -169 73 -301t210 -207t311 -75q265 0 431 164
t166 419v106q0 116 -44 219q-44 102 -122 178t-189 120t-263 44t-288 -75t-211 -203q-74 -128 -74 -283v-106zM500 632v99q0 157 90 245t234 87q144 0 226 -76t85 -177h-138q-9 49 -47 88t-118 39q-191 0 -191 -212v-94q1 -101 51 -151t140 -51q146 0 170 109h138
q-4 -98 -84 -170t-228 -71q-148 -1 -238 87t-90 248z" />
    <glyph glyph-name="ordfeminine" unicode="&#xaa;" horiz-adv-x="641" 
d="M307 1035q-105 3 -105 -77q0 -38 30 -59t78 -21q47 0 82 28t35 73v56h-120zM325 1371q242 0 242 -197v-390h-133v74h-7q-47 -83 -151 -83t-157 47q-54 46 -54 128q1 82 55 128t160 47h147v51q0 87 -98 87t-109 -59h-132q6 76 64 122t173 45z" />
    <glyph glyph-name="guillemotleft" unicode="&#xab;" horiz-adv-x="1265" 
d="M105 565l344 404h212l-339 -403v-6l339 -405h-221l-335 402v8zM589 565l344 404h212l-339 -403v-6l339 -405h-221l-335 402v8z" />
    <glyph glyph-name="logicalnot" unicode="&#xac;" horiz-adv-x="1114" 
d="M1043 95h-176v367h-798v164h974v-531z" />
    <glyph glyph-name="registered" unicode="&#xae;" horiz-adv-x="1158" 
d="M503 683h-100v479h225q68 0 112 -42t43 -99q0 -57 -27 -96t-68 -51l110 -191h-117l-95 180h-83v-180zM503 1086v-148h78q98 0 98 74q1 36 -23 55t-63 19h-90zM580 513q170 -1 280 105t111 267v68q1 151 -111 255t-280 105q-168 0 -279 -104t-111 -256v-68
q0 -161 110 -267t280 -105zM581 414q-213 0 -352 134t-139 337v69q0 192 140 324t350 132q209 0 350 -133t141 -323v-69q-1 -203 -139 -337t-351 -134z" />
    <glyph glyph-name="macron" unicode="&#xaf;" horiz-adv-x="946" 
d="M746 1250h-558v118h558v-118z" />
    <glyph glyph-name="degree" unicode="&#xb0;" horiz-adv-x="543" 
d="M274 1042q46 0 78 34t33 80q-1 46 -33 79t-78 33t-80 -33t-34 -79t34 -80t80 -34zM272 925q-96 0 -162 67q-67 66 -67 162q1 96 67 163t162 67t163 -67t67 -163t-67 -162q-67 -67 -163 -67z" />
    <glyph glyph-name="plusminus" unicode="&#xb1;" horiz-adv-x="1114" 
d="M1036 104h-956v162h956v-162zM639 653v-277h-169v277h-392v159h392v262h169v-262h395v-159h-395z" />
    <glyph glyph-name="twosuperior" unicode="&#xb2;" horiz-adv-x="640" 
d="M213 1156h-138v11q-1 87 61 149t172 62t174 -55t64 -140q0 -43 -22 -87t-41 -68q-20 -23 -56 -60l-157 -153v-2h288v-121h-471v92l243 257q74 76 74 123t-27 71t-69 24t-69 -27q-26 -27 -26 -65v-11z" />
    <glyph glyph-name="threesuperior" unicode="&#xb3;" horiz-adv-x="649" 
d="M237 980v115h76q43 0 69 24q26 23 27 61q-1 38 -27 61t-69 23t-70 -24t-29 -58h-134q4 84 66 140t168 56t169 -49q64 -49 64 -117q-1 -68 -35 -110t-88 -56v-2q63 -11 104 -51t41 -120q-1 -81 -73 -137t-183 -56t-177 59t-68 140h133q3 -35 33 -59t80 -24q49 0 81 26
t32 67q-1 39 -31 65t-81 26h-78z" />
    <glyph glyph-name="acute" unicode="&#xb4;" horiz-adv-x="946" 
d="M384 1213h-163l190 279h208z" />
    <glyph glyph-name="paragraph" unicode="&#xb6;" horiz-adv-x="1291" 
d="M920 -210v1575h196v-1575h-196zM760 -210h-196v712h-20q-120 0 -232 61q-216 118 -215 380q-1 263 215 369q108 54 233 53h215v-1575z" />
    <glyph glyph-name="periodcentered" unicode="&#xb7;" horiz-adv-x="606" 
d="M151 726q0 54 36 90q36 34 90 34q55 0 91 -35t36 -89t-36 -89t-91 -35q-54 0 -90 35t-36 89z" />
    <glyph glyph-name="cedilla" unicode="&#xb8;" horiz-adv-x="946" 
d="M432 -373q116 0 116 73q0 62 -98 64q-16 0 -45 1h-53v86l59 157h131l-53 -140q95 0 151 -42t56 -128t-63 -132q-63 -47 -157 -51t-158 15v110q44 -13 114 -13z" />
    <glyph glyph-name="onesuperior" unicode="&#xb9;" horiz-adv-x="586" 
d="M422 692h-145v531h-6l-153 -113v135l159 120h145v-673z" />
    <glyph glyph-name="ordmasculine" unicode="&#xba;" horiz-adv-x="638" 
d="M320 1371q122 1 196 -71t75 -193v-68q0 -127 -74 -197t-198 -70q-123 0 -197 70t-74 197v68q0 119 76 191q74 72 196 73zM320 1261q-62 0 -97 -44q-34 -44 -34 -114v-62q0 -71 33 -115q34 -44 98 -43q64 -1 97 43t33 115v62q0 70 -34 114t-96 44z" />
    <glyph glyph-name="guillemotright" unicode="&#xbb;" horiz-adv-x="1265" 
d="M669 565v-8l-335 -402h-221l339 405v6l-339 403h212zM1153 565v-8l-335 -402h-221l339 405v6l-339 403h212z" />
    <glyph glyph-name="onequarter" unicode="&#xbc;" horiz-adv-x="1353" 
d="M224 0h-167l534 695l510 670h167l-530 -690zM335 692h-145v531h-6l-153 -113v135l159 120h145v-673zM1237 674v-444h80v-112h-80v-118h-129v118h-334v109q58 106 268 447h195zM910 230h198v329h-7q-72 -110 -191 -326v-3z" />
    <glyph glyph-name="onehalf" unicode="&#xbd;" horiz-adv-x="1368" 
d="M224 0h-167l534 695l510 670h167l-530 -690zM335 692h-145v531h-6l-153 -113v135l159 120h145v-673zM1012 452h-141v11q1 88 63 151t174 63t176 -56q66 -56 66 -133t-37 -128t-84 -99l-160 -155v-2h293v-123h-479v93l247 261q76 77 76 125t-28 72t-70 25q-44 1 -70 -27
t-26 -67v-11z" />
    <glyph glyph-name="threequarters" unicode="&#xbe;" horiz-adv-x="1402" 
d="M272 0h-167l534 695l510 670h167l-530 -690zM382 1025q147 -25 147 -173q0 -82 -73 -138q-74 -57 -186 -57q-112 -1 -179 59t-69 142h134q4 -36 34 -60t81 -24q50 0 82 27t32 67q-1 40 -31 67q-30 26 -82 26h-79v116h77q44 0 70 24q26 25 27 63q-1 38 -27 61t-70 23
t-71 -24t-29 -59h-136q3 85 66 141t170 57t172 -49t65 -119t-35 -111t-90 -57v-2zM1287 674v-442h79v-114h-79v-118h-131v118h-333v109q69 126 268 447h196zM959 232h197v327h-6q-73 -111 -191 -324v-3z" />
    <glyph glyph-name="questiondown" unicode="&#xbf;" horiz-adv-x="956" 
d="M58 26q0 120 55 189t124 122q69 54 91 73t52 57t31 120v58h192v-78q3 -69 -25 -129t-65 -98t-89 -77q-84 -63 -122 -108t-38 -130q0 -84 62 -132t164 -48q100 -1 158 63t58 165h191q3 -243 -189 -343q-102 -53 -246 -53q-158 0 -281 88t-123 261zM634 970q0 -54 -37 -88
t-95 -34t-94 34t-36 88t36 87q36 34 94 34t95 -34q37 -33 37 -87z" />
    <glyph glyph-name="Agrave" unicode="&#xc0;" horiz-adv-x="1218" 
d="M725 1510h-175l-292 203h215zM607 1141h-7l-193 -590h392zM230 0h-209l476 1365h223l476 -1365h-221l-127 391h-490z" />
    <glyph glyph-name="Aacute" unicode="&#xc1;" horiz-adv-x="1218" 
d="M493 1510l255 206h219l-296 -206h-178zM607 1141h-7l-193 -590h392zM230 0h-209l476 1365h223l476 -1365h-221l-127 391h-490z" />
    <glyph glyph-name="Acircumflex" unicode="&#xc2;" horiz-adv-x="1218" 
d="M277 1507l277 238h119l274 -238h-176l-155 140h-8l-155 -140h-176zM607 1141h-7l-193 -590h392zM230 0h-209l476 1365h223l476 -1365h-221l-127 391h-490z" />
    <glyph glyph-name="Atilde" unicode="&#xc3;" horiz-adv-x="1218" 
d="M327 1496q-1 82 43 140t124 59q80 0 163 -83q31 -32 61 -32t46 30t19 69h116q1 -78 -47 -139t-112 -61q-64 1 -94 15q-31 14 -55 38q-23 24 -25 26t-10 8q-8 7 -12 9t-13 7t-24 5q-60 0 -64 -91h-116zM607 1141h-7l-193 -590h392zM230 0h-209l476 1365h223l476 -1365
h-221l-127 391h-490z" />
    <glyph glyph-name="Adieresis" unicode="&#xc4;" horiz-adv-x="1218" 
d="M697 1584q0 40 25 64q24 26 64 26t65 -26t25 -64q0 -40 -25 -66t-65 -25q-40 -1 -64 25q-25 26 -25 66zM388 1584q0 38 26 64t64 26q40 0 65 -26t25 -64q0 -40 -26 -66t-64 -25q-38 0 -64 26t-26 65zM607 1141h-7l-193 -590h392zM230 0h-209l476 1365h223l476 -1365h-221
l-127 391h-490z" />
    <glyph glyph-name="Aring" unicode="&#xc5;" horiz-adv-x="1219" 
d="M389 1503q-1 89 63 151t154 63q90 -1 154 -63t63 -151q0 -53 -25 -97t-67 -71l466 -1335h-221l-127 391h-490l-129 -391h-208l465 1329q-45 27 -71 73t-27 101zM800 551l-191 590h-9l-192 -590h392zM499 1502q0 -44 32 -76t76 -31q43 -1 75 31t32 76t-32 76
q-32 31 -76 31t-76 -31q-32 -32 -31 -76z" />
    <glyph glyph-name="AE" unicode="&#xc6;" horiz-adv-x="1864" 
d="M922 405h-468l-212 -405h-230l719 1365h1021v-177h-626v-408h590v-170h-590v-433h626v-177h-830v405zM922 570v618h-71l-316 -618h387z" />
    <glyph glyph-name="Ccedilla" unicode="&#xc7;" horiz-adv-x="1258" 
d="M606 -373q116 0 116 73q0 62 -98 64q-16 0 -45 1h-53v86l47 125q-222 24 -346 182t-124 434v174q1 300 147 464t400 163q121 0 221 -40q101 -40 163 -106q130 -138 130 -321v-10h-201q0 115 -81 206t-235 91q-153 0 -245 -114t-92 -335v-171q0 -222 92 -331t245 -109
q154 -1 235 79t81 197h201v-11q0 -156 -112 -286q-56 -64 -146 -106t-203 -51l-40 -107q95 0 151 -42t56 -128t-63 -132q-63 -47 -157 -51t-159 15v110q44 -13 115 -13z" />
    <glyph glyph-name="Egrave" unicode="&#xc8;" horiz-adv-x="1107" 
d="M996 177v-177h-838v1365h838v-177h-633v-408h597v-170h-597v-433h633zM687 1510h-175l-292 203h215z" />
    <glyph glyph-name="Eacute" unicode="&#xc9;" horiz-adv-x="1107" 
d="M996 177v-177h-838v1365h838v-177h-633v-408h597v-170h-597v-433h633zM455 1510l255 206h219l-296 -206h-178z" />
    <glyph glyph-name="Ecircumflex" unicode="&#xca;" horiz-adv-x="1107" 
d="M996 177v-177h-838v1365h838v-177h-633v-408h597v-170h-597v-433h633zM239 1507l277 238h119l274 -238h-176l-155 140h-8l-155 -140h-176z" />
    <glyph glyph-name="Edieresis" unicode="&#xcb;" horiz-adv-x="1107" 
d="M996 177v-177h-838v1365h838v-177h-633v-408h597v-170h-597v-433h633zM659 1584q0 40 25 64q24 26 64 26t65 -26t25 -64q0 -40 -25 -66t-65 -25q-40 -1 -64 25q-25 26 -25 66zM350 1584q0 38 26 64t64 26q40 0 65 -26t25 -64q0 -40 -26 -66t-64 -25q-38 0 -64 26t-26 65z
" />
    <glyph glyph-name="Igrave" unicode="&#xcc;" horiz-adv-x="521" 
d="M376 1510h-175l-292 203h215zM364 0h-206v1365h206v-1365z" />
    <glyph glyph-name="Iacute" unicode="&#xcd;" horiz-adv-x="521" 
d="M144 1510l255 206h219l-296 -206h-178zM364 0h-206v1365h206v-1365z" />
    <glyph glyph-name="Icircumflex" unicode="&#xce;" horiz-adv-x="521" 
d="M-72 1507l277 238h119l274 -238h-176l-155 140h-8l-155 -140h-176zM364 0h-206v1365h206v-1365z" />
    <glyph glyph-name="Idieresis" unicode="&#xcf;" horiz-adv-x="521" 
d="M348 1584q0 40 25 64q25 26 65 26t64 -26q25 -26 25 -64q0 -40 -25 -66q-24 -26 -64 -25q-40 -1 -65 25t-25 66zM39 1584q-1 38 25 64t66 26t64 -26q25 -26 25 -64q1 -40 -25 -66t-65 -25q-39 0 -65 26t-25 65zM364 0h-206v1365h206v-1365z" />
    <glyph glyph-name="Eth" unicode="&#xd0;" horiz-adv-x="1384" 
d="M444 179h233q207 1 308 125t101 379q0 508 -409 508h-233v-405h288v-179h-288v-428zM696 0h-457v607h-162v179h162v579h457q376 0 518 -269q86 -163 86 -412q0 -530 -370 -650q-103 -34 -234 -34z" />
    <glyph glyph-name="Ntilde" unicode="&#xd1;" horiz-adv-x="1368" 
d="M357 0h-199v1365h187l659 -1014h6v1014h200v-1365h-187l-660 1016h-6v-1016zM581 1587q-60 0 -64 -91h-116q-1 82 43 140t124 59q80 0 163 -83q31 -32 61 -32t46 30t19 69h116q1 -78 -47 -139t-112 -61q-64 1 -94 15q-31 14 -55 38l-25 26q-14 14 -20 16q-6 3 -15 8
q-8 5 -24 5z" />
    <glyph glyph-name="Ograve" unicode="&#xd2;" horiz-adv-x="1324" 
d="M103 580v192q0 289 151 455t409 166q258 1 408 -165t150 -456v-192q0 -288 -151 -448t-410 -160t-408 160t-149 448zM310 774v-194q0 -212 97 -320t255 -108t254 108q97 108 97 320v194q1 212 -97 326t-254 114t-254 -114t-98 -326zM777 1510h-175l-292 203h215z" />
    <glyph glyph-name="Oacute" unicode="&#xd3;" horiz-adv-x="1324" 
d="M103 580v192q0 289 151 455t409 166q258 1 408 -165t150 -456v-192q0 -288 -151 -448t-410 -160t-408 160t-149 448zM310 774v-194q0 -212 97 -320t255 -108t254 108q97 108 97 320v194q1 212 -97 326t-254 114t-254 -114t-98 -326zM545 1510l255 206h219l-296 -206h-178
z" />
    <glyph glyph-name="Ocircumflex" unicode="&#xd4;" horiz-adv-x="1324" 
d="M103 580v192q0 289 151 455t409 166q258 1 408 -165t150 -456v-192q0 -288 -151 -448t-410 -160t-408 160t-149 448zM310 774v-194q0 -212 97 -320t255 -108t254 108q97 108 97 320v194q1 212 -97 326t-254 114t-254 -114t-98 -326zM329 1507l277 238h119l274 -238h-176
l-155 140h-8l-155 -140h-176z" />
    <glyph glyph-name="Otilde" unicode="&#xd5;" horiz-adv-x="1324" 
d="M559 1587q-60 0 -64 -91h-116q-1 82 43 140t124 59q80 0 163 -83q32 -32 61 -32q30 0 46 30t19 69h116q1 -78 -47 -139t-112 -61q-64 1 -94 15q-31 14 -55 38l-25 26q-14 14 -20 16q-6 3 -15 8t-24 5zM103 580v192q0 289 151 455t409 166q258 1 408 -165t150 -456v-192
q0 -288 -151 -448t-410 -160t-408 160t-149 448zM310 774v-194q0 -212 97 -320t255 -108t254 108q97 108 97 320v194q1 212 -97 326t-254 114t-254 -114t-98 -326z" />
    <glyph glyph-name="Odieresis" unicode="&#xd6;" horiz-adv-x="1324" 
d="M103 580v192q0 289 151 455t409 166q258 1 408 -165t150 -456v-192q0 -288 -151 -448t-410 -160t-408 160t-149 448zM310 774v-194q0 -212 97 -320t255 -108t254 108q97 108 97 320v194q1 212 -97 326t-254 114t-254 -114t-98 -326zM749 1584q0 40 25 64q24 26 64 26
t65 -26t25 -64q0 -40 -25 -66t-65 -25q-40 -1 -64 25q-25 26 -25 66zM440 1584q0 38 26 64t64 26q40 0 65 -26t25 -64q0 -40 -26 -66t-64 -25q-38 0 -64 26t-26 65z" />
    <glyph glyph-name="multiply" unicode="&#xd7;" horiz-adv-x="1114" 
d="M867 72l-310 310l-311 -310l-120 121l310 310l-310 310l120 120l311 -310l310 310l120 -120l-310 -310l310 -310z" />
    <glyph glyph-name="Oslash" unicode="&#xd8;" horiz-adv-x="1324" 
d="M658 149q162 0 260 109q97 109 97 321v195q0 117 -34 204l-578 -718q93 -111 255 -111zM308 579q0 -107 28 -186l576 714q-96 109 -252 109t-254 -114t-98 -328v-195zM672 -28q-248 0 -392 136l-100 -124l-105 86l116 145q-88 148 -88 365v192q0 289 151 455t394 166
t388 -133l95 118l109 -79l-116 -144q97 -154 97 -383v-192q0 -288 -151 -448q-150 -160 -398 -160z" />
    <glyph glyph-name="Ugrave" unicode="&#xd9;" horiz-adv-x="1341" 
d="M348 1365v-881q0 -153 87 -242t235 -89q148 -1 236 89t88 242v881h205v-891q1 -226 -145 -364t-384 -138t-382 139q-146 139 -146 366v888h206zM786 1510h-175l-292 203h215z" />
    <glyph glyph-name="Uacute" unicode="&#xda;" horiz-adv-x="1341" 
d="M348 1365v-881q0 -153 87 -242t235 -89q148 -1 236 89t88 242v881h205v-891q1 -226 -145 -364t-384 -138t-382 139q-146 139 -146 366v888h206zM554 1510l255 206h219l-296 -206h-178z" />
    <glyph glyph-name="Ucircumflex" unicode="&#xdb;" horiz-adv-x="1341" 
d="M348 1365v-881q0 -153 87 -242t235 -89q148 -1 236 89t88 242v881h205v-891q1 -226 -145 -364t-384 -138t-382 139q-146 139 -146 366v888h206zM338 1507l277 238h119l274 -238h-176l-155 140h-8l-155 -140h-176z" />
    <glyph glyph-name="Udieresis" unicode="&#xdc;" horiz-adv-x="1341" 
d="M348 1365v-881q0 -153 87 -242t235 -89q148 -1 236 89t88 242v881h205v-891q1 -226 -145 -364t-384 -138t-382 139q-146 139 -146 366v888h206zM758 1584q0 40 25 64q25 26 65 26t64 -26q25 -26 25 -64q0 -40 -25 -66q-24 -26 -64 -25q-40 -1 -65 25t-25 66zM449 1584
q-1 38 25 64t66 26t64 -26q25 -26 25 -64q1 -40 -25 -66t-65 -25q-39 0 -65 26t-25 65z" />
    <glyph glyph-name="Yacute" unicode="&#xdd;" horiz-adv-x="1108" 
d="M438 1510l255 206h219l-296 -206h-178zM656 0h-205v565l-456 800h232l324 -597h7l327 597h228l-457 -797v-568z" />
    <glyph glyph-name="Thorn" unicode="&#xde;" horiz-adv-x="1161" 
d="M363 939v-456h230q177 1 235 59t59 170q0 227 -258 227h-266zM158 1365h204v-252h292q206 0 325 -106t119 -296t-120 -295t-325 -105h-290v-311h-205v1365z" />
    <glyph glyph-name="germandbls" unicode="&#xdf;" horiz-adv-x="1252" 
d="M359 0h-203v1045q0 187 121 291t319 104t320 -98t121 -256q1 -74 -25 -136t-66 -101q-83 -79 -163 -87v-13q143 -1 259 -91q122 -96 123 -278q0 -92 -40 -170t-108 -128q-68 -48 -153 -74t-180 -25q-95 0 -156 19v164q50 -19 123 -19q131 0 220 56q88 56 88 180
q1 123 -89 189t-239 67h-77v188h47q89 0 163 66t73 164q0 98 -63 157t-172 59q-243 0 -243 -259v-1014z" />
    <glyph glyph-name="agrave" unicode="&#xe0;" horiz-adv-x="1072" 
d="M643 1217h-164l-237 277h208zM500 143q94 -1 162 61t68 153v111h-243q-97 0 -146 -42t-49 -119t58 -121t150 -43zM432 -17q-154 0 -249 87q-95 86 -95 230t96 228t275 83h271v118q0 175 -196 175t-213 -158h-194q7 148 107 236t294 89q404 0 404 -344v-727h-192v138h-7
q-41 -68 -117 -112t-184 -43z" />
    <glyph glyph-name="aacute" unicode="&#xe1;" horiz-adv-x="1072" 
d="M589 1215h-163l190 279h208zM500 143q94 -1 162 61t68 153v111h-243q-97 0 -146 -42t-49 -119t58 -121t150 -43zM432 -17q-154 0 -249 87q-95 86 -95 230t96 228t275 83h271v118q0 175 -196 175t-213 -158h-194q7 148 107 236t294 89q404 0 404 -344v-727h-192v138h-7
q-41 -68 -117 -112t-184 -43z" />
    <glyph glyph-name="acircumflex" unicode="&#xe2;" horiz-adv-x="1072" 
d="M255 1217l213 298h133l204 -300h-162l-108 187h-4l-116 -185h-160zM500 143q94 -1 162 61t68 153v111h-243q-97 0 -146 -42t-49 -119t58 -121t150 -43zM432 -17q-154 0 -249 87q-95 86 -95 230t96 228t275 83h271v118q0 175 -196 175t-213 -158h-194q7 148 107 236
t294 89q404 0 404 -344v-727h-192v138h-7q-41 -68 -117 -112t-184 -43z" />
    <glyph glyph-name="atilde" unicode="&#xe3;" horiz-adv-x="1072" 
d="M420 1277q-61 0 -68 -101h-124q0 98 46 165t133 67t169 -90q35 -38 67 -38q33 0 49 34t19 76h124q1 -92 -51 -162t-137 -70t-139 60q-55 60 -88 59zM500 143q94 -1 162 61t68 153v111h-243q-97 0 -146 -42t-49 -119t58 -121t150 -43zM432 -17q-154 0 -249 87
q-95 86 -95 230t96 228t275 83h271v118q0 175 -196 175t-213 -158h-194q7 148 107 236t294 89q404 0 404 -344v-727h-192v138h-7q-41 -68 -117 -112t-184 -43z" />
    <glyph glyph-name="adieresis" unicode="&#xe4;" horiz-adv-x="1072" 
d="M616 1264q0 46 28 74t73 28t73 -28t29 -74q0 -46 -29 -74t-73 -28q-45 0 -73 28t-28 74zM253 1264q1 44 29 73t72 29t74 -28q28 -28 28 -74t-28 -74t-74 -28q-44 0 -72 29t-29 73zM500 143q94 -1 162 61t68 153v111h-243q-97 0 -146 -42t-49 -119t58 -121t150 -43z
M432 -17q-154 0 -249 87q-95 86 -95 230t96 228t275 83h271v118q0 175 -196 175t-213 -158h-194q7 148 107 236t294 89q404 0 404 -344v-727h-192v138h-7q-41 -68 -117 -112t-184 -43z" />
    <glyph glyph-name="aring" unicode="&#xe5;" horiz-adv-x="1072" 
d="M434 1384q0 -42 28 -71t72 -29q42 0 70 29t28 71t-28 72q-28 28 -70 28t-72 -28q-28 -30 -28 -72zM534 1192q-84 0 -141 55t-57 137t57 138q57 55 141 55t140 -55q57 -56 57 -138t-57 -137q-56 -55 -140 -55zM500 143q94 -1 162 61t68 153v111h-243q-97 0 -146 -42
t-49 -119t58 -121t150 -43zM432 -17q-154 0 -249 87q-95 86 -95 230t96 228t275 83h271v118q0 175 -196 175t-213 -158h-194q7 148 107 236t294 89q404 0 404 -344v-727h-192v138h-7q-41 -68 -117 -112t-184 -43z" />
    <glyph glyph-name="ae" unicode="&#xe6;" horiz-adv-x="1714" 
d="M502 143q94 -1 162 61q69 62 69 153v117h-244q-99 0 -151 -44t-52 -120q0 -78 61 -122t155 -45zM1187 909q-107 0 -177 -74t-70 -188v-32h482v22q0 126 -64 199t-171 73zM733 719q0 185 -210 185q-174 0 -206 -120h-193q10 136 116 212t290 76q108 0 194 -35t129 -103h13
q44 66 130 102t188 36q196 0 316 -128t121 -341v-126h-681v-76q0 -110 70 -181t172 -71q100 0 156 35t68 87h202q-13 -101 -113 -195t-297 -94q-148 0 -247 58t-137 145h-14q-43 -87 -133 -145q-89 -58 -237 -58t-246 86t-99 234q0 147 99 231t280 84h269v102z" />
    <glyph glyph-name="ccedilla" unicode="&#xe7;" horiz-adv-x="1040" 
d="M566 -115q199 0 199 -169q0 -86 -63 -133q-64 -47 -160 -51t-156 15v111q47 -14 115 -14q115 0 115 73q0 46 -36 56t-98 10h-54v85l52 118q-184 20 -284 152t-101 335v113q0 214 119 350q118 136 318 136t310 -100t113 -239h-193q-8 65 -65 118t-150 53q-123 0 -187 -90
t-63 -233v-109q1 -139 67 -227t173 -88t162 42t70 108h193q-4 -122 -99 -213t-252 -108z" />
    <glyph glyph-name="egrave" unicode="&#xe8;" horiz-adv-x="1075" 
d="M296 628h490v3q0 123 -66 201t-179 77q-113 0 -179 -78t-66 -200v-3zM95 477v93q1 228 117 365t330 137t328 -136t115 -364v-92h-689v-30q0 -128 66 -214t176 -87q112 1 166 43t67 105h201q-16 -115 -115 -215t-312 -100t-331 134t-119 361zM645 1217h-164l-237 277h208z
" />
    <glyph glyph-name="eacute" unicode="&#xe9;" horiz-adv-x="1075" 
d="M296 628h490v3q0 123 -66 201t-179 77q-113 0 -179 -78t-66 -200v-3zM95 477v93q1 228 117 365t330 137t328 -136t115 -364v-92h-689v-30q0 -128 66 -214t176 -87q112 1 166 43t67 105h201q-16 -115 -115 -215t-312 -100t-331 134t-119 361zM591 1215h-163l190 279h208z
" />
    <glyph glyph-name="ecircumflex" unicode="&#xea;" horiz-adv-x="1075" 
d="M296 628h490v3q0 123 -66 201t-179 77q-113 0 -179 -78t-66 -200v-3zM95 477v93q1 228 117 365t330 137t328 -136t115 -364v-92h-689v-30q0 -128 66 -214t176 -87q112 1 166 43t67 105h201q-16 -115 -115 -215t-312 -100t-331 134t-119 361zM257 1217l213 298h133
l204 -300h-162l-108 187h-4l-116 -185h-160z" />
    <glyph glyph-name="edieresis" unicode="&#xeb;" horiz-adv-x="1075" 
d="M618 1264q0 46 28 74t73 28t73 -28t29 -74q0 -46 -29 -74t-73 -28q-45 0 -73 28t-28 74zM255 1264q1 44 29 73t72 29t74 -28q28 -28 28 -74t-28 -74t-74 -28q-44 0 -72 29t-29 73zM296 628h490v3q0 123 -66 201t-179 77q-113 0 -179 -78t-66 -200v-3zM95 477v93
q1 228 117 365t330 137t328 -136t115 -364v-92h-689v-30q0 -128 66 -214t176 -87q112 1 166 43t67 105h201q-16 -115 -115 -215t-312 -100t-331 134t-119 361z" />
    <glyph glyph-name="igrave" unicode="&#xec;" horiz-adv-x="540" 
d="M170 0v1054h205v-1054h-205zM379 1217h-164l-237 277h208z" />
    <glyph glyph-name="iacute" unicode="&#xed;" horiz-adv-x="540" 
d="M170 0v1054h205v-1054h-205zM325 1215h-163l190 279h208z" />
    <glyph glyph-name="icircumflex" unicode="&#xee;" horiz-adv-x="540" 
d="M170 0v1054h205v-1054h-205zM-9 1217l213 298h133l204 -300h-162l-108 187h-4l-116 -185h-160z" />
    <glyph glyph-name="idieresis" unicode="&#xef;" horiz-adv-x="540" 
d="M352 1264q0 46 28 74t73 28t73 -28t29 -74q0 -46 -29 -74t-73 -28q-45 0 -73 28t-28 74zM-11 1264q1 44 29 73t72 29t74 -28q28 -28 28 -74t-28 -74t-74 -28q-44 0 -72 29t-29 73zM170 0v1054h205v-1054h-205z" />
    <glyph glyph-name="eth" unicode="&#xf0;" horiz-adv-x="1115" 
d="M560 851q-120 0 -193 -86q-72 -86 -72 -229v-70q1 -146 71 -230t192 -84t192 84t69 230v81q1 147 -69 225t-190 79zM1020 749v-290q0 -221 -128 -349t-335 -128q-208 0 -335 125t-127 348v90q1 213 123 342t305 129t273 -113h10q0 8 -11 64q-24 123 -131 252l-282 -104
l-37 108l233 84q-82 76 -197 150l160 81q119 -60 218 -163l243 88l41 -102l-201 -74q178 -234 178 -538z" />
    <glyph glyph-name="ntilde" unicode="&#xf1;" horiz-adv-x="1171" 
d="M146 0v1054h199v-143h7q31 67 111 113t192 47q163 0 269 -98t106 -274v-699h-203v630q0 263 -237 263q-116 1 -180 -69t-63 -201v-623h-201zM278 1176q0 98 46 165t133 67t169 -90q35 -38 67 -38q33 0 49 34t19 76h124q1 -92 -51 -162t-137 -70t-139 60q-55 59 -88 59
q-61 0 -68 -101h-124z" />
    <glyph glyph-name="ograve" unicode="&#xf2;" horiz-adv-x="1115" 
d="M558 150q258 0 258 349v57q0 266 -155 331q-45 19 -103 19t-104 -19q-158 -66 -157 -331v-57q-1 -267 157 -331q46 -18 104 -18zM558 1072q226 0 344 -136t118 -367v-81q0 -234 -117 -370t-345 -136t-346 136q-117 136 -117 370v80q1 224 119 364t344 140zM665 1217h-164
l-237 277h208z" />
    <glyph glyph-name="oacute" unicode="&#xf3;" horiz-adv-x="1115" 
d="M558 150q258 0 258 349v57q0 266 -155 331q-45 19 -103 19t-104 -19q-158 -66 -157 -331v-57q-1 -267 157 -331q46 -18 104 -18zM558 1072q226 0 344 -136t118 -367v-81q0 -234 -117 -370t-345 -136t-346 136q-117 136 -117 370v80q1 224 119 364t344 140zM611 1215h-163
l190 279h208z" />
    <glyph glyph-name="ocircumflex" unicode="&#xf4;" horiz-adv-x="1115" 
d="M558 150q258 0 258 349v57q0 266 -155 331q-45 19 -103 19t-104 -19q-158 -66 -157 -331v-57q-1 -267 157 -331q46 -18 104 -18zM558 1072q226 0 344 -136t118 -367v-81q0 -234 -117 -370t-345 -136t-346 136q-117 136 -117 370v80q1 224 119 364t344 140zM277 1217
l213 298h133l204 -300h-162l-108 187h-4l-116 -185h-160z" />
    <glyph glyph-name="otilde" unicode="&#xf5;" horiz-adv-x="1115" 
d="M558 150q258 0 258 349v57q0 266 -155 331q-45 19 -103 19t-104 -19q-158 -66 -157 -331v-57q-1 -267 157 -331q46 -18 104 -18zM558 1072q226 0 344 -136t118 -367v-81q0 -234 -117 -370t-345 -136t-346 136q-117 136 -117 370v80q1 224 119 364t344 140zM250 1176
q0 98 46 165t133 67t169 -90q35 -38 67 -38q33 0 49 34t19 76h124q1 -92 -51 -162t-137 -70t-139 60q-55 59 -88 59q-61 0 -68 -101h-124z" />
    <glyph glyph-name="odieresis" unicode="&#xf6;" horiz-adv-x="1115" 
d="M558 150q258 0 258 349v57q0 266 -155 331q-45 19 -103 19t-104 -19q-158 -66 -157 -331v-57q-1 -267 157 -331q46 -18 104 -18zM558 1072q226 0 344 -136t118 -367v-81q0 -234 -117 -370t-345 -136t-346 136q-117 136 -117 370v80q1 224 119 364t344 140zM638 1264
q0 46 28 74t73 28t73 -28t29 -74q0 -46 -29 -74t-73 -28q-45 0 -73 28t-28 74zM275 1264q1 44 29 73t72 29t74 -28q28 -28 28 -74t-28 -74t-74 -28q-44 0 -72 29t-29 73z" />
    <glyph glyph-name="divide" unicode="&#xf7;" horiz-adv-x="1114" 
d="M422 168q0 60 40 98q40 40 99 40t100 -40t41 -99t-41 -97t-100 -39q-59 1 -99 39t-40 98zM417 952q-1 60 39 100t100 39q60 1 100 -39t40 -100t-40 -97q-40 -38 -100 -38t-100 38q-40 37 -39 97zM1035 477h-956v157h956v-157z" />
    <glyph glyph-name="oslash" unicode="&#xf8;" horiz-adv-x="1115" 
d="M558 -18q-154 0 -272 79l-101 -136l-99 75l108 146q-99 126 -99 309v146q-1 213 129 342t334 129q151 0 269 -80l101 135l99 -77l-107 -144q100 -125 100 -304v-146q0 -222 -128 -348t-334 -126zM292 442q0 -81 30 -141l402 553q-66 58 -176 58t-184 -90
q-72 -90 -72 -232v-148zM570 145q112 0 182 89t70 233v148q0 77 -30 137l-402 -551q67 -56 180 -56z" />
    <glyph glyph-name="ugrave" unicode="&#xf9;" horiz-adv-x="1166" 
d="M1020 1054v-1054h-199v143h-9q-30 -69 -108 -115t-196 -45q-168 -1 -269 95t-101 274v702h203v-646q1 -133 65 -190t171 -57t173 66t67 184v643h203zM690 1217h-164l-237 277h208z" />
    <glyph glyph-name="uacute" unicode="&#xfa;" horiz-adv-x="1166" 
d="M1020 1054v-1054h-199v143h-9q-30 -69 -108 -115t-196 -45q-168 -1 -269 95t-101 274v702h203v-646q1 -133 65 -190t171 -57t173 66t67 184v643h203zM636 1215h-163l190 279h208z" />
    <glyph glyph-name="ucircumflex" unicode="&#xfb;" horiz-adv-x="1166" 
d="M1020 1054v-1054h-199v143h-9q-30 -69 -108 -115t-196 -45q-168 -1 -269 95t-101 274v702h203v-646q1 -133 65 -190t171 -57t173 66t67 184v643h203zM302 1217l213 298h133l204 -300h-162l-108 187h-4l-116 -185h-160z" />
    <glyph glyph-name="udieresis" unicode="&#xfc;" horiz-adv-x="1166" 
d="M663 1264q0 46 28 74t73 28q46 0 74 -28t28 -74t-29 -74t-73 -28t-72 28t-29 74zM300 1264q0 44 28 73t74 29q44 0 72 -28t29 -74q-1 -46 -29 -74t-72 -28t-73 29t-29 73zM1020 1054v-1054h-199v143h-9q-30 -69 -108 -115t-196 -45q-168 -1 -269 95t-101 274v702h203
v-646q1 -133 65 -190t171 -57t173 66t67 184v643h203z" />
    <glyph glyph-name="yacute" unicode="&#xfd;" horiz-adv-x="1052" 
d="M579 1215h-163l190 279h208zM239 -382q-65 0 -123 9v157q27 -5 99 -5q143 0 183 160l14 50l-381 1065h224l264 -864h9l266 864h215q-365 -1044 -366 -1048l-27 -73q-68 -186 -159 -250q-91 -65 -218 -65z" />
    <glyph glyph-name="thorn" unicode="&#xfe;" horiz-adv-x="1164" 
d="M609 154q117 0 185 81t68 239v106q0 158 -68 240t-188 82t-188 -80t-69 -218v-171q0 -123 72 -201t188 -78zM660 -16q-120 0 -194 48t-107 125h-10v-519h-202l-2 1799h195l2 -550h10q30 79 112 131t202 52q184 0 292 -122t108 -334v-172q0 -214 -110 -336t-296 -122z" />
    <glyph glyph-name="ydieresis" unicode="&#xff;" horiz-adv-x="1052" 
d="M606 1264q0 46 28 74t73 28t73 -28t29 -74q0 -46 -29 -74t-73 -28q-45 0 -73 28t-28 74zM243 1264q1 44 29 73t72 29t74 -28q28 -28 28 -74t-28 -74t-74 -28q-44 0 -72 29t-29 73zM239 -382q-65 0 -123 9v157q27 -5 99 -5q143 0 183 160l14 50l-381 1065h224l264 -864h9
l266 864h215q-365 -1044 -366 -1048l-27 -73q-68 -186 -159 -250q-91 -65 -218 -65z" />
    <glyph glyph-name="Amacron" unicode="&#x100;" horiz-adv-x="1218" 
d="M888 1525h-558v110h558v-110zM607 1141h-7l-193 -590h392zM230 0h-209l476 1365h223l476 -1365h-221l-127 391h-490z" />
    <glyph glyph-name="amacron" unicode="&#x101;" horiz-adv-x="1072" 
d="M814 1214h-558v118h558v-118zM500 143q94 -1 162 61t68 153v111h-243q-97 0 -146 -42t-49 -119t58 -121t150 -43zM432 -17q-154 0 -249 87q-95 86 -95 230t96 228t275 83h271v118q0 175 -196 175t-213 -158h-194q7 148 107 236t294 89q404 0 404 -344v-727h-192v138h-7
q-41 -68 -117 -112t-184 -43z" />
    <glyph glyph-name="Abreve" unicode="&#x102;" horiz-adv-x="1218" 
d="M287 1756h132q0 -60 52 -101t138 -41t138 41t52 101h132q0 -107 -78 -187t-244 -80q-235 1 -303 169q-18 46 -19 98zM607 1141h-7l-193 -590h392zM230 0h-209l476 1365h223l476 -1365h-221l-127 391h-490z" />
    <glyph glyph-name="abreve" unicode="&#x103;" horiz-adv-x="1072" 
d="M234 1446h132q0 -68 42 -116t124 -48t124 48t42 116h131q0 -107 -75 -196q-75 -88 -222 -88q-213 0 -280 183q-18 49 -18 101zM500 143q94 -1 162 61t68 153v111h-243q-97 0 -146 -42t-49 -119t58 -121t150 -43zM432 -17q-154 0 -249 87q-95 86 -95 230t96 228t275 83
h271v118q0 175 -196 175t-213 -158h-194q7 148 107 236t294 89q404 0 404 -344v-727h-192v138h-7q-41 -68 -117 -112t-184 -43z" />
    <glyph glyph-name="Aogonek" unicode="&#x104;" horiz-adv-x="1219" 
d="M609 1141h-9l-192 -590h392zM1121 -250q50 0 85 8v-125q-42 -20 -134 -20t-161 50t-69 145q0 131 143 225v3h-21l-115 355h-490l-129 -391h-208l476 1365h223l469 -1344q-67 -21 -122 -63t-58 -98t29 -82q32 -28 82 -28z" />
    <glyph glyph-name="aogonek" unicode="&#x105;" horiz-adv-x="1072" 
d="M88 301q0 144 96 227t275 83h271v118q0 175 -196 175t-213 -158h-194q7 148 108 236t294 89q403 0 403 -344v-713q-72 -20 -125 -64t-53 -96q0 -99 112 -99q43 0 80 8v-128q-55 -22 -139 -22q-83 0 -149 49t-66 136q0 86 40 140t112 97v103h-8q-92 -155 -301 -155
q-155 0 -251 87t-96 231zM500 143q94 -1 162 61t68 153v111h-243q-97 0 -146 -42t-49 -119t58 -121t150 -43z" />
    <glyph glyph-name="Cacute" unicode="&#x106;" horiz-adv-x="1258" 
d="M310 764v-171q0 -222 92 -331t245 -109q154 -1 235 79t81 197h201v-11q0 -135 -81 -247q-144 -199 -434 -199q-256 0 -401 160t-145 460v174q1 300 147 464t400 163q121 0 221 -40q101 -40 163 -106q130 -138 130 -321v-10h-201q0 115 -81 206t-235 91q-153 0 -245 -114
t-92 -335zM530 1510l255 206h219l-296 -206h-178z" />
    <glyph glyph-name="cacute" unicode="&#x107;" horiz-adv-x="1040" 
d="M573 1215h-163l190 279h208zM95 473v113q0 214 119 350q118 136 318 136t310 -100t113 -239h-193q-8 65 -65 118t-150 53q-123 0 -187 -90t-63 -233v-109q1 -139 67 -227t173 -88t162 42t70 108h193q-6 -137 -120 -231t-312 -94t-317 134q-118 134 -118 357z" />
    <glyph glyph-name="Ccircumflex" unicode="&#x108;" horiz-adv-x="1258" 
d="M314 1507l277 238h119l274 -238h-176l-155 140h-8l-155 -140h-176zM310 764v-171q0 -222 92 -331t245 -109q154 -1 235 79t81 197h201v-11q0 -135 -81 -247q-144 -199 -434 -199q-256 0 -401 160t-145 460v174q1 300 147 464t400 163q121 0 221 -40q101 -40 163 -106
q130 -138 130 -321v-10h-201q0 115 -81 206t-235 91q-153 0 -245 -114t-92 -335z" />
    <glyph glyph-name="ccircumflex" unicode="&#x109;" horiz-adv-x="1040" 
d="M95 473v113q0 214 119 350q118 136 318 136t310 -100t113 -239h-193q-8 65 -65 118t-150 53q-123 0 -187 -90t-63 -233v-109q1 -139 67 -227t173 -88t162 42t70 108h193q-6 -137 -120 -231t-312 -94t-317 134q-118 134 -118 357zM239 1217l213 298h133l204 -300h-162
l-108 187h-4l-116 -185h-160z" />
    <glyph glyph-name="Cdotaccent" unicode="&#x10a;" horiz-adv-x="1258" 
d="M540 1606q0 46 31 78t77 31q46 1 78 -31t32 -78t-32 -78q-32 -30 -78 -30t-77 30q-31 32 -31 78zM310 764v-171q0 -222 92 -331t245 -109q154 -1 235 79t81 197h201v-11q0 -135 -81 -247q-144 -199 -434 -199q-256 0 -401 160t-145 460v174q1 300 147 464t400 163
q121 0 221 -40q101 -40 163 -106q130 -138 130 -321v-10h-201q0 115 -81 206t-235 91q-153 0 -245 -114t-92 -335z" />
    <glyph glyph-name="cdotaccent" unicode="&#x10b;" horiz-adv-x="1040" 
d="M413 1294q0 46 31 78t77 32t78 -32t32 -78t-32 -76t-78 -31q-46 1 -77 31t-31 76zM95 473v113q0 214 119 350q118 136 318 136t310 -100t113 -239h-193q-8 65 -65 118t-150 53q-123 0 -187 -90t-63 -233v-109q1 -139 67 -227t173 -88t162 42t70 108h193
q-6 -137 -120 -231t-312 -94t-317 134q-118 134 -118 357z" />
    <glyph glyph-name="Ccaron" unicode="&#x10c;" horiz-adv-x="1258" 
d="M312 1729h177l155 -127h8l154 127h177l-275 -221h-119zM310 764v-171q0 -222 92 -331t245 -109q154 -1 235 79t81 197h201v-11q0 -135 -81 -247q-144 -199 -434 -199q-256 0 -401 160t-145 460v174q1 300 147 464t400 163q121 0 221 -40q101 -40 163 -106
q130 -138 130 -321v-10h-201q0 115 -81 206t-235 91q-153 0 -245 -114t-92 -335z" />
    <glyph glyph-name="ccaron" unicode="&#x10d;" horiz-adv-x="1040" 
d="M95 473v113q0 214 119 350q118 136 318 136t310 -100t113 -239h-193q-8 65 -65 118t-150 53q-123 0 -187 -90t-63 -233v-109q1 -139 67 -227t173 -88t162 42t70 108h193q-6 -137 -120 -231t-312 -94t-317 134q-118 134 -118 357zM244 1497h159l117 -186h4l108 187h162
l-205 -299h-133z" />
    <glyph glyph-name="Dcaron" unicode="&#x10e;" horiz-adv-x="1303" 
d="M364 1189v-1012h233q207 0 308 125t101 379q0 508 -409 508h-233zM158 1365h457q375 0 517 -269q86 -163 87 -412q0 -530 -370 -650q-103 -34 -234 -34h-457v1365zM264 1729h177l155 -127h8l154 127h177l-275 -221h-119z" />
    <glyph glyph-name="dcaron" unicode="&#x10f;" horiz-adv-x="1356" 
d="M553 901q-124 0 -188 -91t-64 -245v-74q0 -157 65 -247q66 -90 190 -91q124 0 192 88t68 248v82q0 153 -70 241t-193 89zM505 1071q117 -1 197 -47t108 -118h6v531h202v-1437h-195v160h-7q-21 -72 -105 -124t-206 -51q-197 0 -303 130t-106 349v127q0 217 107 349
t302 131zM1209 1436h175l-45 -488h-130v488z" />
    <glyph glyph-name="Dcroat" unicode="&#x110;" horiz-adv-x="1384" 
d="M444 179h233q207 1 308 125t101 379q0 508 -409 508h-233v-405h288v-179h-288v-428zM696 0h-457v607h-162v179h162v579h457q376 0 518 -269q86 -163 86 -412q0 -530 -370 -650q-103 -34 -234 -34z" />
    <glyph glyph-name="dcroat" unicode="&#x111;" horiz-adv-x="1168" 
d="M499 -15q-183 0 -293 120t-109 326v193q0 204 110 326t296 121q120 1 198 -49t106 -124h10v267h-252v138h256v175h195v-175h131v-138h-128v-1165h-195v168h-10q-22 -74 -106 -128t-209 -55zM552 901q-116 -1 -184 -83t-67 -229v-123q1 -149 69 -231t187 -82t189 80
t71 218v171q-1 123 -75 201t-190 78z" />
    <glyph glyph-name="Emacron" unicode="&#x112;" horiz-adv-x="1107" 
d="M850 1525h-558v110h558v-110zM996 177v-177h-838v1365h838v-177h-633v-408h597v-170h-597v-433h633z" />
    <glyph glyph-name="emacron" unicode="&#x113;" horiz-adv-x="1075" 
d="M816 1214h-558v118h558v-118zM296 628h490v3q0 123 -66 201t-179 77q-113 0 -179 -78t-66 -200v-3zM95 477v93q1 228 117 365t330 137t328 -136t115 -364v-92h-689v-30q0 -128 66 -214t176 -87q112 1 166 43t67 105h201q-16 -115 -115 -215t-312 -100t-331 134t-119 361z
" />
    <glyph glyph-name="Ebreve" unicode="&#x114;" horiz-adv-x="1107" 
d="M249 1756h132q0 -60 52 -101t138 -41t138 41t52 101h132q0 -107 -78 -187t-244 -80q-235 1 -303 169q-18 46 -19 98zM996 177v-177h-838v1365h838v-177h-633v-408h597v-170h-597v-433h633z" />
    <glyph glyph-name="ebreve" unicode="&#x115;" horiz-adv-x="1075" 
d="M236 1446h132q0 -68 42 -116t124 -48t124 48t42 116h131q0 -107 -75 -196q-75 -88 -222 -88q-213 0 -280 183q-18 49 -18 101zM296 628h490v3q0 123 -66 201t-179 77q-113 0 -179 -78t-66 -200v-3zM95 477v93q1 228 117 365t330 137t328 -136t115 -364v-92h-689v-30
q0 -128 66 -214t176 -87q112 1 166 43t67 105h201q-16 -115 -115 -215t-312 -100t-331 134t-119 361z" />
    <glyph glyph-name="Edotaccent" unicode="&#x116;" horiz-adv-x="1107" 
d="M996 177v-177h-838v1365h838v-177h-633v-408h597v-170h-597v-433h633zM465 1606q0 46 31 78t77 31q46 1 78 -31t32 -78t-32 -78q-32 -30 -78 -30t-77 30q-31 32 -31 78z" />
    <glyph glyph-name="edotaccent" unicode="&#x117;" horiz-adv-x="1075" 
d="M296 628h490v3q0 123 -66 201t-179 77q-113 0 -179 -78t-66 -200v-3zM95 477v93q1 228 117 365t330 137t328 -136t115 -364v-92h-689v-30q0 -128 66 -214t176 -87q112 1 166 43t67 105h201q-16 -115 -115 -215t-312 -100t-331 134t-119 361zM431 1294q0 46 31 78t77 32
t78 -32t32 -78t-32 -76t-78 -31q-46 1 -77 31t-31 76z" />
    <glyph glyph-name="Eogonek" unicode="&#x118;" horiz-adv-x="1107" 
d="M858 -387q-82 0 -148 49q-66 48 -66 156t117 179v3h-603v1365h838v-177h-634v-408h598v-170h-597v-433h633v-151q-75 -16 -134 -62t-59 -104q0 -110 119 -110q46 0 75 8v-126q-57 -19 -139 -19z" />
    <glyph glyph-name="eogonek" unicode="&#x119;" horiz-adv-x="1075" 
d="M296 628h490v3q0 123 -66 201t-179 77q-113 0 -179 -78t-66 -200v-3zM541 -16q-213 0 -329 134t-117 359v93q1 228 117 365t330 137t328 -136t115 -364v-92h-689v-30q0 -128 66 -214t177 -87q112 1 165 43t67 105h200q-19 -128 -143 -248q-109 -101 -109 -189
q1 -49 35 -77t79 -28t79 9v-132q-51 -19 -136 -19q-84 -1 -150 51t-66 144q0 46 18 86t31 55q14 16 43 44l-5 10q-38 -19 -106 -19z" />
    <glyph glyph-name="Ecaron" unicode="&#x11a;" horiz-adv-x="1107" 
d="M996 177v-177h-838v1365h838v-177h-633v-408h597v-170h-597v-433h633zM237 1729h177l155 -127h8l154 127h177l-275 -221h-119z" />
    <glyph glyph-name="ecaron" unicode="&#x11b;" horiz-adv-x="1075" 
d="M296 628h490v3q0 123 -66 201t-179 77q-113 0 -179 -78t-66 -200v-3zM95 477v93q1 228 117 365t330 137t328 -136t115 -364v-92h-689v-30q0 -128 66 -214t176 -87q112 1 166 43t67 105h201q-16 -115 -115 -215t-312 -100t-331 134t-119 361zM262 1497h159l117 -186h4
l108 187h162l-205 -299h-133z" />
    <glyph glyph-name="Gcircumflex" unicode="&#x11c;" horiz-adv-x="1283" 
d="M644 1213q-140 -1 -238 -109t-97 -327v-182q0 -207 88 -325t245 -118t248 80t91 202v116h-329v170h528v-279q0 -133 -72 -247q-138 -221 -452 -222q-272 0 -412 167t-141 456v183q0 287 151 451t408 164q118 0 216 -37q98 -36 160 -100q128 -130 139 -314h-203
q-16 133 -104 202q-86 69 -226 69zM325 1507l277 238h119l274 -238h-176l-155 140h-8l-155 -140h-176z" />
    <glyph glyph-name="gcircumflex" unicode="&#x11d;" horiz-adv-x="1134" 
d="M550 902q-118 0 -190 -87t-72 -235v-94q0 -146 74 -228t191 -83q118 0 184 86t66 215v105q1 139 -67 230t-186 91zM552 -230q118 0 185 66t67 187v153h-7q-32 -71 -113 -118t-188 -47q-180 0 -296 125t-116 336v132q0 210 116 338t299 128q121 0 195 -46t109 -118h6v148
h196v-1033q1 -310 -285 -391q-84 -24 -189 -24q-203 0 -310 90t-114 222h203q9 -64 67 -106q57 -42 175 -42zM286 1217l213 298h133l204 -300h-162l-108 187h-4l-116 -185h-160z" />
    <glyph glyph-name="Gbreve" unicode="&#x11e;" horiz-adv-x="1283" 
d="M335 1756h132q0 -60 52 -101t138 -41t138 41t52 101h132q0 -107 -78 -187t-244 -80q-235 1 -303 169q-18 46 -19 98zM644 1213q-140 -1 -238 -109t-97 -327v-182q0 -207 88 -325t245 -118t248 80t91 202v116h-329v170h528v-279q0 -133 -72 -247q-138 -221 -452 -222
q-272 0 -412 167t-141 456v183q0 287 151 451t408 164q118 0 216 -37q98 -36 160 -100q128 -130 139 -314h-203q-16 133 -104 202q-86 69 -226 69z" />
    <glyph glyph-name="gbreve" unicode="&#x11f;" horiz-adv-x="1134" 
d="M550 902q-118 0 -190 -87t-72 -235v-94q0 -146 74 -228t191 -83q118 0 184 86t66 215v105q1 139 -67 230t-186 91zM552 -230q118 0 185 66t67 187v153h-7q-32 -71 -113 -118t-188 -47q-180 0 -296 125t-116 336v132q0 210 116 338t299 128q121 0 195 -46t109 -118h6v148
h196v-1033q1 -310 -285 -391q-84 -24 -189 -24q-203 0 -310 90t-114 222h203q9 -64 67 -106q57 -42 175 -42zM265 1446h132q0 -68 42 -116t124 -48t124 48t42 116h131q0 -107 -75 -196q-75 -88 -222 -88q-213 0 -280 183q-18 49 -18 101z" />
    <glyph glyph-name="Gdotaccent" unicode="&#x120;" horiz-adv-x="1283" 
d="M644 1213q-140 -1 -238 -109t-97 -327v-182q0 -207 88 -325t245 -118t248 80t91 202v116h-329v170h528v-279q0 -133 -72 -247q-138 -221 -452 -222q-272 0 -412 167t-141 456v183q0 287 151 451t408 164q118 0 216 -37q98 -36 160 -100q128 -130 139 -314h-203
q-16 133 -104 202q-86 69 -226 69zM551 1606q0 46 31 78t77 31q46 1 78 -31t32 -78t-32 -78q-32 -30 -78 -30t-77 30q-31 32 -31 78z" />
    <glyph glyph-name="gdotaccent" unicode="&#x121;" horiz-adv-x="1134" 
d="M550 902q-118 0 -190 -87t-72 -235v-94q0 -146 74 -228t191 -83q118 0 184 86t66 215v105q1 139 -67 230t-186 91zM552 -230q118 0 185 66t67 187v153h-7q-32 -71 -113 -118t-188 -47q-180 0 -296 125t-116 336v132q0 210 116 338t299 128q121 0 195 -46t109 -118h6v148
h196v-1033q1 -310 -285 -391q-84 -24 -189 -24q-203 0 -310 90t-114 222h203q9 -64 67 -106q57 -42 175 -42zM460 1294q0 46 31 78t77 32t78 -32t32 -78t-32 -76t-78 -31q-46 1 -77 31t-31 76z" />
    <glyph glyph-name="Gcommaaccent" unicode="&#x122;" horiz-adv-x="1283" 
d="M644 1213q-140 -1 -238 -109t-97 -327v-182q0 -207 88 -325t245 -118t248 80t91 202v116h-329v170h528v-279q0 -133 -72 -247q-138 -221 -452 -222q-272 0 -412 167t-141 456v183q0 287 151 451t408 164q118 0 216 -37q98 -36 160 -100q128 -130 139 -314h-203
q-16 133 -104 202q-86 69 -226 69zM643 -489h-149l85 335h178z" />
    <glyph glyph-name="gcommaaccent" unicode="&#x123;" horiz-adv-x="1134" 
d="M550 902q-118 0 -190 -87t-72 -235v-94q0 -146 74 -228t191 -83q118 0 184 86t66 215v105q1 139 -67 230t-186 91zM552 -230q118 0 185 66t67 187v153h-7q-32 -71 -113 -118t-188 -47q-180 0 -296 125t-116 336v132q0 210 116 338t299 128q121 0 195 -46t109 -118h6v148
h196v-1033q1 -310 -285 -391q-84 -24 -189 -24q-203 0 -310 90t-114 222h203q9 -64 67 -106q57 -42 175 -42zM549 1589h149l-85 -335h-178z" />
    <glyph glyph-name="Hcircumflex" unicode="&#x124;" horiz-adv-x="1377" 
d="M356 1507l277 238h119l274 -238h-176l-155 140h-8l-155 -140h-176zM1220 0h-206v615h-650v-615h-206v1365h206v-572h650v572h206v-1365z" />
    <glyph glyph-name="hcircumflex" unicode="&#x125;" horiz-adv-x="1177" 
d="M-33 1600l213 298h133l204 -300h-162l-108 187h-4l-116 -185h-160zM149 0v1437h202v-526h8q27 63 101 111t192 49q174 0 280 -113t105 -297v-661h-202v617q0 128 -62 202q-63 74 -177 74t-180 -72t-65 -204v-617h-202z" />
    <glyph glyph-name="Hbar" unicode="&#x126;" horiz-adv-x="1377" 
d="M364 590v-590h-206v999h-105v145h105v221h206v-221h650v221h206v-221h105v-145h-105v-999h-206v590h-650zM364 768h650v231h-650v-231z" />
    <glyph glyph-name="hbar" unicode="&#x127;" horiz-adv-x="1177" 
d="M351 589v-589h-202v1165h-119v138h123v134h194v-134h263v-138h-259v-301h10q26 93 114 150t228 57q141 1 237 -91t97 -266v-714h-202v656q0 120 -60 182t-173 62t-182 -87t-69 -224z" />
    <glyph glyph-name="Itilde" unicode="&#x128;" horiz-adv-x="521" 
d="M158 1587q-60 0 -64 -91h-116q0 82 44 140t123 59q80 0 163 -83q32 -32 61 -32q30 0 46 30t19 69h116q0 -78 -48 -139t-110 -61q-64 1 -95 15t-55 38l-26 26q-14 14 -19 16q-6 3 -15 8t-24 5zM364 0h-206v1365h206v-1365z" />
    <glyph glyph-name="itilde" unicode="&#x129;" horiz-adv-x="540" 
d="M156 1277q-61 0 -68 -101h-124q0 98 46 165t133 67t169 -90q35 -38 67 -38q33 0 49 34t19 76h124q1 -92 -51 -162t-137 -70t-139 60q-55 60 -88 59zM170 0v1054h205v-1054h-205z" />
    <glyph glyph-name="Imacron" unicode="&#x12a;" horiz-adv-x="521" 
d="M539 1525h-558v110h558v-110zM364 0h-206v1365h206v-1365z" />
    <glyph glyph-name="imacron" unicode="&#x12b;" horiz-adv-x="540" 
d="M550 1214h-558v118h558v-118zM170 0v1054h205v-1054h-205z" />
    <glyph glyph-name="Ibreve" unicode="&#x12c;" horiz-adv-x="521" 
d="M-62 1756h132q0 -60 52 -101t138 -41t138 41t52 101h132q0 -107 -78 -187t-244 -80q-236 1 -304 169q-18 46 -18 98zM364 0h-206v1365h206v-1365z" />
    <glyph glyph-name="ibreve" unicode="&#x12d;" horiz-adv-x="540" 
d="M-30 1446h132q0 -68 42 -116t124 -48t124 48t42 116h131q0 -107 -75 -196q-75 -88 -222 -88q-213 0 -280 183q-18 49 -18 101zM170 0v1054h205v-1054h-205z" />
    <glyph glyph-name="Iogonek" unicode="&#x12e;" horiz-adv-x="521" 
d="M251 -387q-95 -1 -157 51t-62 146q0 141 140 216v3h-14v1336h206v-1350q-170 -58 -170 -167q0 -48 31 -74t81 -25q50 0 82 9v-124q-42 -21 -137 -21z" />
    <glyph glyph-name="iogonek" unicode="&#x12f;" horiz-adv-x="541" 
d="M132 1376q0 56 39 93t99 37t100 -37q39 -37 39 -93t-39 -94q-40 -36 -100 -36t-99 36q-39 38 -39 94zM371 19q-177 -55 -177 -177q0 -40 32 -66t82 -26t84 8v-126q-48 -19 -141 -19t-159 51t-65 147q0 141 143 218v1025h201v-1035z" />
    <glyph glyph-name="Idotaccent" unicode="&#x130;" horiz-adv-x="521" 
d="M154 1606q0 46 31 78t77 31q46 1 78 -31t32 -78t-32 -78q-32 -30 -78 -30t-77 30q-31 32 -31 78zM364 0h-206v1365h206v-1365z" />
    <glyph glyph-name="dotlessi" unicode="&#x131;" horiz-adv-x="540" 
d="M170 0v1054h205v-1054h-205z" />
    <glyph glyph-name="Jcircumflex" unicode="&#x134;" horiz-adv-x="997" 
d="M409 1507l277 238h119l274 -238h-176l-155 140h-8l-155 -140h-176zM25 338h200q3 -84 59 -132t148 -48t150 58t57 180v969h207v-956q0 -215 -114 -326t-303 -111t-297 103t-107 263z" />
    <glyph glyph-name="jcircumflex" unicode="&#x135;" horiz-adv-x="541" 
d="M-2 1204l213 298h133l204 -300h-162l-108 187h-4l-116 -185h-160zM371 1054v-1080q0 -178 -80 -262t-226 -84q-66 0 -102 9v154q25 -5 63 -5q76 0 110 45t34 145v1078h201z" />
    <glyph glyph-name="Kcommaaccent" unicode="&#x136;" horiz-adv-x="1209" 
d="M590 -489h-149l85 335h178zM364 0h-206v1365h206v-644h9l568 644h236l-502 -583l527 -782h-256l-423 641l-159 -175v-466z" />
    <glyph glyph-name="kcommaaccent" unicode="&#x137;" horiz-adv-x="1041" 
d="M528 -489h-149l85 335h178zM350 0h-202v1437h202v-848h9l406 465h231l-405 -457l432 -597h-239l-343 476l-91 -94v-382z" />
    <glyph glyph-name="Lacute" unicode="&#x139;" horiz-adv-x="999" 
d="M976 181v-181h-818v1365h206v-1184h612zM143 1510l255 206h219l-296 -206h-178z" />
    <glyph glyph-name="lacute" unicode="&#x13a;" horiz-adv-x="507" 
d="M153 0v1437h201v-1437h-201zM307 1598h-163l190 279h208z" />
    <glyph glyph-name="Lcommaaccent" unicode="&#x13b;" horiz-adv-x="999" 
d="M976 181v-181h-818v1365h206v-1184h612zM493 -489h-149l85 335h178z" />
    <glyph glyph-name="lcommaaccent" unicode="&#x13c;" horiz-adv-x="507" 
d="M153 0v1437h201v-1437h-201zM239 -489h-149l85 335h178z" />
    <glyph glyph-name="Lcaron" unicode="&#x13d;" horiz-adv-x="999" 
d="M976 181v-181h-818v1365h206v-1184h612zM588 1437h183l-50 -488h-133v488z" />
    <glyph glyph-name="lcaron" unicode="&#x13e;" horiz-adv-x="671" 
d="M153 0v1437h201v-1437h-201zM526 1436h175l-45 -488h-130v488z" />
    <glyph glyph-name="Lslash" unicode="&#x141;" horiz-adv-x="1014" 
d="M992 0h-819v531l-127 -74v189l127 74v645h206v-528l359 210v-192l-359 -208v-466h613v-181z" />
    <glyph glyph-name="lslash" unicode="&#x142;" horiz-adv-x="581" 
d="M392 0h-202v601l-150 -101v185l150 102v650h202v-519l150 102v-190l-150 -101v-729z" />
    <glyph glyph-name="Nacute" unicode="&#x143;" horiz-adv-x="1368" 
d="M357 0h-199v1365h187l659 -1014h6v1014h200v-1365h-187l-660 1016h-6v-1016zM567 1510l255 206h219l-296 -206h-178z" />
    <glyph glyph-name="nacute" unicode="&#x144;" horiz-adv-x="1171" 
d="M146 0v1054h199v-143h7q31 67 111 113t192 47q163 0 269 -98t106 -274v-699h-203v630q0 263 -237 263q-116 1 -180 -69t-63 -201v-623h-201zM639 1215h-163l190 279h208z" />
    <glyph glyph-name="Ncommaaccent" unicode="&#x145;" horiz-adv-x="1368" 
d="M357 0h-199v1365h187l659 -1014h6v1014h200v-1365h-187l-660 1016h-6v-1016zM669 -489h-149l85 335h178z" />
    <glyph glyph-name="ncommaaccent" unicode="&#x146;" horiz-adv-x="1171" 
d="M146 0v1054h199v-143h7q31 67 111 113t192 47q163 0 269 -98t106 -274v-699h-203v630q0 263 -237 263q-116 1 -180 -69t-63 -201v-623h-201zM571 -489h-149l85 335h178z" />
    <glyph glyph-name="Ncaron" unicode="&#x147;" horiz-adv-x="1368" 
d="M357 0h-199v1365h187l659 -1014h6v1014h200v-1365h-187l-660 1016h-6v-1016zM349 1729h177l155 -127h8l154 127h177l-275 -221h-119z" />
    <glyph glyph-name="ncaron" unicode="&#x148;" horiz-adv-x="1171" 
d="M146 0v1054h199v-143h7q31 67 111 113t192 47q163 0 269 -98t106 -274v-699h-203v630q0 263 -237 263q-116 1 -180 -69t-63 -201v-623h-201zM310 1497h159l117 -186h4l108 187h162l-205 -299h-133z" />
    <glyph glyph-name="Omacron" unicode="&#x14c;" horiz-adv-x="1324" 
d="M940 1525h-558v110h558v-110zM103 580v192q0 289 151 455t409 166q258 1 408 -165t150 -456v-192q0 -288 -151 -448t-410 -160t-408 160t-149 448zM310 774v-194q0 -212 97 -320t255 -108t254 108q97 108 97 320v194q1 212 -97 326t-254 114t-254 -114t-98 -326z" />
    <glyph glyph-name="omacron" unicode="&#x14d;" horiz-adv-x="1115" 
d="M558 150q258 0 258 349v57q0 266 -155 331q-45 19 -103 19t-104 -19q-158 -66 -157 -331v-57q-1 -267 157 -331q46 -18 104 -18zM558 1072q226 0 344 -136t118 -367v-81q0 -234 -117 -370t-345 -136t-346 136q-117 136 -117 370v80q1 224 119 364t344 140zM836 1214h-558
v118h558v-118z" />
    <glyph glyph-name="Obreve" unicode="&#x14e;" horiz-adv-x="1324" 
d="M339 1756h132q0 -60 52 -101t138 -41t138 41t52 101h132q0 -107 -78 -187t-244 -80q-235 1 -303 169q-18 46 -19 98zM103 580v192q0 289 151 455t409 166q258 1 408 -165t150 -456v-192q0 -288 -151 -448t-410 -160t-408 160t-149 448zM310 774v-194q0 -212 97 -320
t255 -108t254 108q97 108 97 320v194q1 212 -97 326t-254 114t-254 -114t-98 -326z" />
    <glyph glyph-name="obreve" unicode="&#x14f;" horiz-adv-x="1115" 
d="M558 150q258 0 258 349v57q0 266 -155 331q-45 19 -103 19t-104 -19q-158 -66 -157 -331v-57q-1 -267 157 -331q46 -18 104 -18zM558 1072q226 0 344 -136t118 -367v-81q0 -234 -117 -370t-345 -136t-346 136q-117 136 -117 370v80q1 224 119 364t344 140zM256 1446h132
q0 -68 42 -116t124 -48t124 48t42 116h131q0 -107 -75 -196q-75 -88 -222 -88q-213 0 -280 183q-18 49 -18 101z" />
    <glyph glyph-name="Ohungarumlaut" unicode="&#x150;" horiz-adv-x="1324" 
d="M103 580v192q0 289 151 455t409 166q258 1 408 -165t150 -456v-192q0 -288 -151 -448t-410 -160t-408 160t-149 448zM310 774v-194q0 -212 97 -320t255 -108t254 108q97 108 97 320v194q1 212 -97 326t-254 114t-254 -114t-98 -326zM724 1510l272 218h188l-293 -218h-167
zM399 1510l271 218h188l-292 -218h-167z" />
    <glyph glyph-name="ohungarumlaut" unicode="&#x151;" horiz-adv-x="1115" 
d="M558 150q258 0 258 349v57q0 266 -155 331q-45 19 -103 19t-104 -19q-158 -66 -157 -331v-57q-1 -267 157 -331q46 -18 104 -18zM558 1072q226 0 344 -136t118 -367v-81q0 -234 -117 -370t-345 -136t-346 136q-117 136 -117 370v80q1 224 119 364t344 140zM740 1214h-130
l215 315h169zM448 1214h-129l214 315h169z" />
    <glyph glyph-name="OE" unicode="&#x152;" horiz-adv-x="1958" 
d="M644 -28q-250 0 -396 162t-145 447v191q1 292 149 456t396 165q120 -1 218 -43t150 -124h15v139h815v-177h-625v-408h589v-170h-589v-433h625v-177h-815v144h-14q-55 -82 -154 -127t-219 -45zM314 774v-195q0 -211 97 -319t255 -109q158 0 256 104t98 313v224
q0 210 -98 316t-256 106t-254 -114q-98 -114 -98 -326z" />
    <glyph glyph-name="oe" unicode="&#x153;" horiz-adv-x="1802" 
d="M1020 615h491v16q0 125 -67 201t-178 77q-110 -1 -178 -77t-68 -201v-16zM558 906q-120 0 -190 -88t-71 -229v-123q1 -144 69 -230t192 -86t191 86t67 230v123q0 141 -69 229t-189 88zM558 -18q-209 0 -336 124t-127 349v146q-1 213 129 342t334 129q116 0 208 -44
t146 -128h13q50 80 141 126t199 46q197 0 321 -128t123 -341v-126h-689v-51q0 -122 68 -200t172 -77q104 0 163 35t72 87h202q-13 -99 -116 -194t-311 -95q-108 0 -202 46t-143 125h-13q-52 -79 -148 -125t-206 -46z" />
    <glyph glyph-name="Racute" unicode="&#x154;" horiz-adv-x="1228" 
d="M362 701h272q133 0 203 62t70 181t-72 184t-195 65h-278v-492zM668 1365q228 0 340 -121t112 -294q0 -218 -164 -334q-42 -30 -88 -47l277 -569h-233l-248 532h-302v-532h-204v1365h510zM465 1510l255 206h219l-296 -206h-178z" />
    <glyph glyph-name="racute" unicode="&#x155;" horiz-adv-x="724" 
d="M369 924q65 146 243 146q50 0 83 -5v-181q-27 6 -90 6q-240 0 -240 -250v-640h-204v1054h201v-130h7zM474 1215h-163l190 279h208z" />
    <glyph glyph-name="Rcommaaccent" unicode="&#x156;" horiz-adv-x="1228" 
d="M567 -489h-149l85 335h178zM362 701h272q133 0 203 62t70 181t-72 184t-195 65h-278v-492zM668 1365q228 0 340 -121t112 -294q0 -218 -164 -334q-42 -30 -88 -47l277 -569h-233l-248 532h-302v-532h-204v1365h510z" />
    <glyph glyph-name="rcommaaccent" unicode="&#x157;" horiz-adv-x="724" 
d="M251 -489h-149l85 335h178zM369 924q65 146 243 146q50 0 83 -5v-181q-27 6 -90 6q-240 0 -240 -250v-640h-204v1054h201v-130h7z" />
    <glyph glyph-name="Rcaron" unicode="&#x158;" horiz-adv-x="1228" 
d="M247 1729h177l155 -127h8l154 127h177l-275 -221h-119zM362 701h272q133 0 203 62t70 181t-72 184t-195 65h-278v-492zM668 1365q228 0 340 -121t112 -294q0 -218 -164 -334q-42 -30 -88 -47l277 -569h-233l-248 532h-302v-532h-204v1365h510z" />
    <glyph glyph-name="rcaron" unicode="&#x159;" horiz-adv-x="724" 
d="M369 924q65 146 243 146q50 0 83 -5v-181q-27 6 -90 6q-240 0 -240 -250v-640h-204v1054h201v-130h7zM145 1497h159l117 -186h4l108 187h162l-205 -299h-133z" />
    <glyph glyph-name="Sacute" unicode="&#x15a;" horiz-adv-x="1172" 
d="M578 147q140 0 219 60q79 59 79 151t-52 140t-167 76l-230 58q-137 34 -232 120q-96 86 -96 227q1 143 69 235q135 182 414 182t414 -178q69 -91 71 -216h-199q-8 97 -82 159t-202 62q-128 -1 -202 -57q-76 -56 -76 -155q0 -144 191 -190l228 -58q209 -51 293 -161
q66 -86 66 -215q0 -195 -144 -305t-376 -110q-301 0 -431 182q-69 97 -73 221h203q10 -99 93 -163q82 -64 222 -65zM467 1510l255 206h219l-296 -206h-178z" />
    <glyph glyph-name="sacute" unicode="&#x15b;" horiz-adv-x="998" 
d="M552 1215h-163l190 279h208zM98 761q0 71 32 134t90 101q114 76 287 76t275 -88t101 -230h-184q-5 68 -54 118t-145 49t-152 -41q-55 -40 -55 -103t39 -96q39 -34 92 -45q78 -16 116 -22q219 -32 304 -118q67 -68 67 -181q1 -157 -115 -245t-306 -88t-300 82t-111 224
h196q10 -70 66 -112q55 -42 159 -41q104 -1 159 43t55 119t-90 113q-45 18 -143 38t-143 32q-44 12 -94 35t-79 53t-48 76t-19 117z" />
    <glyph glyph-name="Scircumflex" unicode="&#x15c;" horiz-adv-x="1172" 
d="M251 1507l277 238h119l274 -238h-176l-155 140h-8l-155 -140h-176zM578 147q140 0 219 60q79 59 79 151t-52 140t-167 76l-230 58q-137 34 -232 120q-96 86 -96 227q1 143 69 235q135 182 414 182t414 -178q69 -91 71 -216h-199q-8 97 -82 159t-202 62q-128 -1 -202 -57
q-76 -56 -76 -155q0 -144 191 -190l228 -58q209 -51 293 -161q66 -86 66 -215q0 -195 -144 -305t-376 -110q-301 0 -431 182q-69 97 -73 221h203q10 -99 93 -163q82 -64 222 -65z" />
    <glyph glyph-name="scircumflex" unicode="&#x15d;" horiz-adv-x="998" 
d="M98 761q0 71 32 134t90 101q114 76 287 76t275 -88t101 -230h-184q-5 68 -54 118t-145 49t-152 -41q-55 -40 -55 -103t39 -96q39 -34 92 -45q78 -16 116 -22q219 -32 304 -118q67 -68 67 -181q1 -157 -115 -245t-306 -88t-300 82t-111 224h196q10 -70 66 -112
q55 -42 159 -41q104 -1 159 43t55 119t-90 113q-45 18 -143 38t-143 32q-44 12 -94 35t-79 53t-48 76t-19 117zM218 1217l213 298h133l204 -300h-162l-108 187h-4l-116 -185h-160z" />
    <glyph glyph-name="Scedilla" unicode="&#x15e;" horiz-adv-x="1172" 
d="M614 -115q199 0 199 -169q0 -86 -63 -133t-159 -51t-156 15v111q47 -14 114 -14q116 0 116 73q0 46 -36 56t-100 10h-53v85l44 105q-275 14 -393 190q-63 93 -67 212h203q10 -99 93 -163q82 -64 222 -65q140 0 219 60q79 59 79 151t-52 140t-167 76l-230 58
q-137 34 -232 120q-96 86 -96 227q1 143 69 235q135 182 414 182t414 -178q69 -91 71 -216h-199q-8 97 -82 159t-202 62q-128 -1 -202 -57q-76 -56 -76 -155q0 -144 191 -190l228 -58q209 -51 293 -161q66 -86 66 -215q0 -176 -118 -283t-314 -127z" />
    <glyph glyph-name="scedilla" unicode="&#x15f;" horiz-adv-x="998" 
d="M458 -351q116 0 116 73q0 50 -60 60q-33 6 -83 6h-53v85l42 112q-157 15 -249 95t-92 208h196q10 -70 66 -112q55 -42 159 -41q104 -1 159 43t55 119t-90 113q-45 18 -143 38t-143 32q-240 67 -240 254q0 181 118 259q118 79 291 79t275 -88t101 -230h-184q-5 68 -54 118
t-145 49t-152 -41q-55 -40 -55 -103t39 -96q39 -34 92 -45q78 -16 116 -22q219 -32 304 -118q67 -68 67 -196q-1 -128 -97 -214t-263 -100l-36 -96q95 0 151 -42t56 -128t-63 -132q-63 -47 -157 -51t-158 15v111q47 -14 114 -14z" />
    <glyph glyph-name="Scaron" unicode="&#x160;" horiz-adv-x="1172" 
d="M249 1729h177l155 -127h8l154 127h177l-275 -221h-119zM578 147q140 0 219 60q79 59 79 151t-52 140t-167 76l-230 58q-137 34 -232 120q-96 86 -96 227q1 143 69 235q135 182 414 182t414 -178q69 -91 71 -216h-199q-8 97 -82 159t-202 62q-128 -1 -202 -57
q-76 -56 -76 -155q0 -144 191 -190l228 -58q209 -51 293 -161q66 -86 66 -215q0 -195 -144 -305t-376 -110q-301 0 -431 182q-69 97 -73 221h203q10 -99 93 -163q82 -64 222 -65z" />
    <glyph glyph-name="scaron" unicode="&#x161;" horiz-adv-x="998" 
d="M98 761q0 71 32 134t90 101q114 76 287 76t275 -88t101 -230h-184q-5 68 -54 118t-145 49t-152 -41q-55 -40 -55 -103t39 -96q39 -34 92 -45q78 -16 116 -22q219 -32 304 -118q67 -68 67 -181q1 -157 -115 -245t-306 -88t-300 82t-111 224h196q10 -70 66 -112
q55 -42 159 -41q104 -1 159 43t55 119t-90 113q-45 18 -143 38t-143 32q-44 12 -94 35t-79 53t-48 76t-19 117zM223 1497h159l117 -186h4l108 187h162l-205 -299h-133z" />
    <glyph glyph-name="Tcedilla" unicode="&#x162;" horiz-adv-x="1054" 
d="M504 -373q116 0 116 73q0 62 -98 64q-16 0 -45 1h-53v86l55 149h-54v1186h-407v179h1018v-179h-407v-1186h-19l-49 -132q95 0 151 -42t56 -128t-63 -132q-63 -47 -157 -51t-159 15v110q44 -13 115 -13z" />
    <glyph glyph-name="tcedilla" unicode="&#x163;" horiz-adv-x="700" 
d="M356 -353q116 0 116 74q0 63 -98 65h-45h-53v86l55 149q-73 30 -102 96t-29 179v591h-145v163h147v264h199v-264h207v-163h-207v-581q-1 -88 35 -120t130 -32q22 0 48 2v-157q-40 -7 -80 -7t-81 2l-40 -105q95 0 151 -42t56 -128t-63 -133q-63 -46 -157 -50t-158 15v110
q47 -14 114 -14z" />
    <glyph glyph-name="Tcaron" unicode="&#x164;" horiz-adv-x="1054" 
d="M629 0h-204v1186h-407v179h1018v-179h-407v-1186zM192 1729h177l155 -127h8l154 127h177l-275 -221h-119z" />
    <glyph glyph-name="tcaron" unicode="&#x165;" horiz-adv-x="722" 
d="M202 1050v264h199v-264h207v-163h-207v-581q-1 -88 35 -120t130 -32q22 0 48 2v-157q-40 -7 -116 -7q-169 0 -233 72q-65 72 -65 232v591h-145v163h147zM589 1698h175l-45 -488h-130v488z" />
    <glyph glyph-name="Tbar" unicode="&#x166;" horiz-adv-x="1054" 
d="M861 631h-232v-631h-204v631h-231v144h231v411h-406v179h1017v-179h-407v-411h232v-144z" />
    <glyph glyph-name="tbar" unicode="&#x167;" horiz-adv-x="683" 
d="M497 -8q-168 0 -232 72q-65 72 -65 232v229h-139v138h139v224h-145v163h147v264h199v-264h207v-163h-207v-224h204v-138h-204v-219q-1 -88 35 -120t130 -32q26 0 48 3v-158q-42 -7 -117 -7z" />
    <glyph glyph-name="Utilde" unicode="&#x168;" horiz-adv-x="1341" 
d="M568 1587q-60 0 -64 -91h-116q0 82 44 140t123 59q80 0 163 -83q32 -32 62 -32q29 0 45 30t19 69h116q0 -78 -48 -139t-110 -61q-64 1 -95 15t-55 38l-26 26q-14 14 -19 16q-6 3 -15 8t-24 5zM348 1365v-881q0 -153 87 -242t235 -89q148 -1 236 89t88 242v881h205v-891
q1 -226 -145 -364t-384 -138t-382 139q-146 139 -146 366v888h206z" />
    <glyph glyph-name="utilde" unicode="&#x169;" horiz-adv-x="1166" 
d="M275 1176q1 98 47 165t132 67t168 -90q35 -39 68 -38q32 0 48 34t20 76h124q0 -92 -52 -162t-136 -70q-85 0 -139 60q-55 60 -88 59q-61 0 -68 -101h-124zM1020 1054v-1054h-199v143h-9q-30 -69 -108 -115t-196 -45q-168 -1 -269 95t-101 274v702h203v-646
q1 -133 65 -190t171 -57t173 66t67 184v643h203z" />
    <glyph glyph-name="Umacron" unicode="&#x16a;" horiz-adv-x="1341" 
d="M949 1525h-558v110h558v-110zM348 1365v-881q0 -153 87 -242t235 -89q148 -1 236 89t88 242v881h205v-891q1 -226 -145 -364t-384 -138t-382 139q-146 139 -146 366v888h206z" />
    <glyph glyph-name="umacron" unicode="&#x16b;" horiz-adv-x="1166" 
d="M861 1214h-558v118h558v-118zM1020 1054v-1054h-199v143h-9q-30 -69 -108 -115t-196 -45q-168 -1 -269 95t-101 274v702h203v-646q1 -133 65 -190t171 -57t173 66t67 184v643h203z" />
    <glyph glyph-name="Ubreve" unicode="&#x16c;" horiz-adv-x="1341" 
d="M348 1756h132q0 -60 52 -101t138 -41t138 41t52 101h132q0 -107 -78 -187t-244 -80q-236 1 -304 169q-18 46 -18 98zM348 1365v-881q0 -153 87 -242t235 -89q148 -1 236 89t88 242v881h205v-891q1 -226 -145 -364t-384 -138t-382 139q-146 139 -146 366v888h206z" />
    <glyph glyph-name="ubreve" unicode="&#x16d;" horiz-adv-x="1166" 
d="M281 1446h132q0 -68 42 -116t124 -48t124 48t42 116h131q0 -107 -75 -196q-75 -88 -222 -88q-213 0 -280 183q-18 49 -18 101zM1020 1054v-1054h-199v143h-9q-30 -69 -108 -115t-196 -45q-168 -1 -269 95t-101 274v702h203v-646q1 -133 65 -190t171 -57t173 66t67 184
v643h203z" />
    <glyph glyph-name="Uring" unicode="&#x16e;" horiz-adv-x="1341" 
d="M569 1696q1 -42 29 -72q28 -29 70 -29t71 29q28 30 28 72t-28 70q-29 28 -71 29q-42 -1 -70 -29t-29 -70zM668 1503q-84 0 -140 55q-57 56 -57 138t57 137q56 55 140 55t141 -55t57 -137t-57 -138q-57 -55 -141 -55zM348 1365v-881q0 -153 87 -242t235 -89q148 -1 236 89
t88 242v881h205v-891q1 -226 -145 -364t-384 -138t-382 139q-146 139 -146 366v888h206z" />
    <glyph glyph-name="uring" unicode="&#x16f;" horiz-adv-x="1166" 
d="M481 1384q1 -42 29 -71t70 -29t71 29q28 29 28 71t-28 72q-29 28 -71 28t-70 -28q-28 -30 -29 -72zM580 1192q-84 0 -140 55q-57 55 -57 137t57 138q56 55 140 55t141 -55q57 -56 57 -138t-57 -137t-141 -55zM1020 1054v-1054h-199v143h-9q-30 -69 -108 -115t-196 -45
q-168 -1 -269 95t-101 274v702h203v-646q1 -133 65 -190t171 -57t173 66t67 184v643h203z" />
    <glyph glyph-name="Uhungarumlaut" unicode="&#x170;" horiz-adv-x="1341" 
d="M733 1510l272 218h188l-293 -218h-167zM408 1510l271 218h188l-292 -218h-167zM348 1365v-881q0 -153 87 -242t235 -89q148 -1 236 89t88 242v881h205v-891q1 -226 -145 -364t-384 -138t-382 139q-146 139 -146 366v888h206z" />
    <glyph glyph-name="uhungarumlaut" unicode="&#x171;" horiz-adv-x="1166" 
d="M1020 1054v-1054h-199v143h-9q-30 -69 -108 -115t-196 -45q-168 -1 -269 95t-101 274v702h203v-646q1 -133 65 -190t171 -57t173 66t67 184v643h203zM765 1214h-130l215 315h169zM473 1214h-129l214 315h169z" />
    <glyph glyph-name="Uogonek" unicode="&#x172;" horiz-adv-x="1341" 
d="M950 -387q-80 0 -146 51t-67 158q0 107 97 184l-4 8q-80 -42 -172 -42q-224 0 -370 140t-146 365v888h206v-881q0 -153 87 -242t235 -89q148 -1 236 89t88 242v881h205v-891q0 -231 -151 -391q-14 -15 -52 -55t-54 -58q-46 -55 -46 -111q0 -105 117 -105q37 0 76 10v-131
q-59 -20 -139 -20z" />
    <glyph glyph-name="uogonek" unicode="&#x173;" horiz-adv-x="1166" 
d="M894 -387q-88 -1 -154 49t-66 153t110 192q12 10 40 30v138h-11q-27 -76 -107 -134t-227 -58t-244 84t-97 260v727h203v-676q1 -120 61 -172t163 -52t177 70t75 171v659h203v-1047q-74 -23 -130 -65t-55 -91q0 -96 115 -96q45 0 80 8v-129q-48 -21 -136 -21z" />
    <glyph glyph-name="Wcircumflex" unicode="&#x174;" horiz-adv-x="1698" 
d="M569 0h-187l-371 1365h233l238 -1037h7l261 1037h198l260 -1037h8l238 1037h232l-371 -1365h-187l-276 1030h-7zM516 1507l277 238h119l274 -238h-176l-155 140h-8l-155 -140h-176z" />
    <glyph glyph-name="wcircumflex" unicode="&#x175;" horiz-adv-x="1493" 
d="M1465 1054l-279 -1054h-203l-229 792h-5l-224 -792h-205l-292 1054h221l177 -815h9l221 815h190l228 -815h8l182 815h201zM466 1217l213 298h133l204 -300h-162l-108 187h-4l-116 -185h-160z" />
    <glyph glyph-name="Ycircumflex" unicode="&#x176;" horiz-adv-x="1108" 
d="M222 1507l277 238h119l274 -238h-176l-155 140h-8l-155 -140h-176zM656 0h-205v565l-456 800h232l324 -597h7l327 597h228l-457 -797v-568z" />
    <glyph glyph-name="ycircumflex" unicode="&#x177;" horiz-adv-x="1052" 
d="M245 1217l213 298h133l204 -300h-162l-108 187h-4l-116 -185h-160zM239 -382q-65 0 -123 9v157q27 -5 99 -5q143 0 183 160l14 50l-381 1065h224l264 -864h9l266 864h215q-365 -1044 -366 -1048l-27 -73q-68 -186 -159 -250q-91 -65 -218 -65z" />
    <glyph glyph-name="Ydieresis" unicode="&#x178;" horiz-adv-x="1108" 
d="M642 1584q0 40 25 64q25 26 65 26t64 -26q25 -26 25 -64q0 -40 -25 -66q-24 -26 -64 -25q-40 -1 -65 25t-25 66zM333 1584q-1 38 25 64t66 26t64 -26q25 -26 25 -64q1 -40 -25 -66t-65 -25q-39 0 -65 26t-25 65zM656 0h-205v565l-456 800h232l324 -597h7l327 597h228
l-457 -797v-568z" />
    <glyph glyph-name="Zacute" unicode="&#x179;" horiz-adv-x="1156" 
d="M83 0v141l708 1041v6h-685v177h937v-139l-703 -1042v-6h721v-178h-978zM462 1510l255 206h219l-296 -206h-178z" />
    <glyph glyph-name="zacute" unicode="&#x17a;" horiz-adv-x="977" 
d="M92 0v128l544 755v11h-544v160h792v-133l-537 -749v-10h545v-162h-800zM542 1215h-163l190 279h208z" />
    <glyph glyph-name="Zdotaccent" unicode="&#x17b;" horiz-adv-x="1156" 
d="M472 1606q0 46 31 78t77 31q46 1 78 -31t32 -78t-32 -78q-32 -30 -78 -30t-77 30q-31 32 -31 78zM83 0v141l708 1041v6h-685v177h937v-139l-703 -1042v-6h721v-178h-978z" />
    <glyph glyph-name="zdotaccent" unicode="&#x17c;" horiz-adv-x="977" 
d="M92 0v128l544 755v11h-544v160h792v-133l-537 -749v-10h545v-162h-800zM382 1294q0 46 31 78t77 32t78 -32t32 -78t-32 -76t-78 -31q-46 1 -77 31t-31 76z" />
    <glyph glyph-name="Zcaron" unicode="&#x17d;" horiz-adv-x="1156" 
d="M244 1729h177l155 -127h8l154 127h177l-275 -221h-119zM83 0v141l708 1041v6h-685v177h937v-139l-703 -1042v-6h721v-178h-978z" />
    <glyph glyph-name="zcaron" unicode="&#x17e;" horiz-adv-x="977" 
d="M92 0v128l544 755v11h-544v160h792v-133l-537 -749v-10h545v-162h-800zM213 1497h159l117 -186h4l108 187h162l-205 -299h-133z" />
    <glyph glyph-name="florin" unicode="&#x192;" horiz-adv-x="1114" 
d="M748 1393q193 -1 266 -131q37 -67 33 -145h-187q2 53 -34 83t-90 31q-130 0 -159 -167l-28 -164h294l-29 -164h-294l-168 -922h-211l169 922h-208l28 164h209l30 179q55 314 379 314z" />
    <glyph glyph-name="Ohorn" unicode="&#x1a0;" horiz-adv-x="1335" 
d="M310 774v-195q0 -211 97 -319t255 -109q158 1 254 109q97 108 97 319v195q1 212 -97 326t-254 114t-254 -114t-98 -326zM1221 580q0 -288 -151 -448t-410 -160t-408 160t-149 448v192q0 289 151 455t409 166q125 1 229 -43q104 -43 179 -44q73 0 103 40t30 113v99h172
v-109q0 -135 -67 -208t-191 -73l-3 -6q43 -63 75 -170t31 -220v-192z" />
    <glyph glyph-name="ohorn" unicode="&#x1a1;" horiz-adv-x="1124" 
d="M558 906q-120 0 -190 -88t-71 -229v-123q1 -144 69 -230t192 -86t191 86t67 230v123q0 141 -69 229t-189 88zM556 -18q-208 0 -334 124q-127 124 -127 349v146q-1 213 129 342t334 129q61 0 141 -21q81 -21 143 -21q120 0 119 147v156h172v-157q0 -262 -206 -276v-8
q37 -52 65 -130t28 -160v-146q0 -222 -128 -348t-336 -126z" />
    <glyph glyph-name="Uhorn" unicode="&#x1af;" horiz-adv-x="1411" 
d="M670 -27q-238 0 -382 139q-146 139 -146 365v888h206v-880q0 -153 87 -243t235 -89q148 -1 236 89t88 243v880h207q71 -1 99 37t28 110v107h170v-117q0 -126 -64 -204t-188 -77h-47v-747q1 -226 -145 -364t-384 -137z" />
    <glyph glyph-name="uhorn" unicode="&#x1b0;" horiz-adv-x="1265" 
d="M138 327v727h203v-676q1 -120 61 -172t163 -52t177 70t75 171v659h182q70 0 97 38t27 109v132h171v-142q0 -125 -63 -202t-190 -77h-21v-912h-200v175h-11q-25 -70 -101 -131q-77 -61 -227 -61q-151 -1 -247 83t-96 261z" />
    <glyph glyph-name="Acaron" unicode="&#x1cd;" horiz-adv-x="1218" 
d="M275 1729h177l155 -127h8l154 127h177l-275 -221h-119zM607 1141h-7l-193 -590h392zM230 0h-209l476 1365h223l476 -1365h-221l-127 391h-490z" />
    <glyph glyph-name="acaron" unicode="&#x1ce;" horiz-adv-x="1072" 
d="M260 1497h159l117 -186h4l108 187h162l-205 -299h-133zM500 143q94 -1 162 61t68 153v111h-243q-97 0 -146 -42t-49 -119t58 -121t150 -43zM432 -17q-154 0 -249 87q-95 86 -95 230t96 228t275 83h271v118q0 175 -196 175t-213 -158h-194q7 148 107 236t294 89
q404 0 404 -344v-727h-192v138h-7q-41 -68 -117 -112t-184 -43z" />
    <glyph glyph-name="Icaron" unicode="&#x1cf;" horiz-adv-x="521" 
d="M-74 1729h177l155 -127h8l154 127h177l-275 -221h-119zM364 0h-206v1365h206v-1365z" />
    <glyph glyph-name="icaron" unicode="&#x1d0;" horiz-adv-x="540" 
d="M170 0v1054h205v-1054h-205zM-4 1497h159l117 -186h4l108 187h162l-205 -299h-133z" />
    <glyph glyph-name="Ocaron" unicode="&#x1d1;" horiz-adv-x="1324" 
d="M103 580v192q0 289 151 455t409 166q258 1 408 -165t150 -456v-192q0 -288 -151 -448t-410 -160t-408 160t-149 448zM310 774v-194q0 -212 97 -320t255 -108t254 108q97 108 97 320v194q1 212 -97 326t-254 114t-254 -114t-98 -326zM327 1729h177l155 -127h8l154 127h177
l-275 -221h-119z" />
    <glyph glyph-name="ocaron" unicode="&#x1d2;" horiz-adv-x="1115" 
d="M558 150q258 0 258 349v57q0 266 -155 331q-45 19 -103 19t-104 -19q-158 -66 -157 -331v-57q-1 -267 157 -331q46 -18 104 -18zM558 1072q226 0 344 -136t118 -367v-81q0 -234 -117 -370t-345 -136t-346 136q-117 136 -117 370v80q1 224 119 364t344 140zM282 1497h159
l117 -186h4l108 187h162l-205 -299h-133z" />
    <glyph glyph-name="Ucaron" unicode="&#x1d3;" horiz-adv-x="1341" 
d="M348 1365v-881q0 -153 87 -242t235 -89q148 -1 236 89t88 242v881h205v-891q1 -226 -145 -364t-384 -138t-382 139q-146 139 -146 366v888h206zM336 1729h177l155 -127h8l154 127h177l-275 -221h-119z" />
    <glyph glyph-name="ucaron" unicode="&#x1d4;" horiz-adv-x="1166" 
d="M1020 1054v-1054h-199v143h-9q-30 -69 -108 -115t-196 -45q-168 -1 -269 95t-101 274v702h203v-646q1 -133 65 -190t171 -57t173 66t67 184v643h203zM307 1497h159l117 -186h4l108 187h162l-205 -299h-133z" />
    <glyph glyph-name="Udieresismacron" unicode="&#x1d5;" horiz-adv-x="1341" 
d="M949 1795h-558v110h558v-110zM348 1365v-881q0 -153 87 -242t235 -89q148 -1 236 89t88 242v881h205v-891q1 -226 -145 -364t-384 -138t-382 139q-146 139 -146 366v888h206zM758 1584q0 40 25 64q25 26 65 26t64 -26q25 -26 25 -64q0 -40 -25 -66q-24 -26 -64 -25
q-40 -1 -65 25t-25 66zM449 1584q-1 38 25 64t66 26t64 -26q25 -26 25 -64q1 -40 -25 -66t-65 -25q-39 0 -65 26t-25 65z" />
    <glyph glyph-name="udieresismacron" unicode="&#x1d6;" horiz-adv-x="1166" 
d="M861 1520h-558v118h558v-118zM663 1264q0 46 28 74t73 28q46 0 74 -28t28 -74t-29 -74t-73 -28t-72 28t-29 74zM300 1264q0 44 28 73t74 29q44 0 72 -28t29 -74q-1 -46 -29 -74t-72 -28t-73 29t-29 73zM1020 1054v-1054h-199v143h-9q-30 -69 -108 -115t-196 -45
q-168 -1 -269 95t-101 274v702h203v-646q1 -133 65 -190t171 -57t173 66t67 184v643h203z" />
    <glyph glyph-name="Udieresisacute" unicode="&#x1d7;" horiz-adv-x="1341" 
d="M348 1365v-881q0 -153 87 -242t235 -89q148 -1 236 89t88 242v881h205v-891q1 -226 -145 -364t-384 -138t-382 139q-146 139 -146 366v888h206zM758 1584q0 40 25 64q25 26 65 26t64 -26q25 -26 25 -64q0 -40 -25 -66q-24 -26 -64 -25q-40 -1 -65 25t-25 66zM449 1584
q-1 38 25 64t66 26t64 -26q25 -26 25 -64q1 -40 -25 -66t-65 -25q-39 0 -65 26t-25 65zM554 1738l255 206h219l-296 -206h-178z" />
    <glyph glyph-name="udieresisacute" unicode="&#x1d8;" horiz-adv-x="1166" 
d="M663 1264q0 46 28 74t73 28q46 0 74 -28t28 -74t-29 -74t-73 -28t-72 28t-29 74zM300 1264q0 44 28 73t74 29q44 0 72 -28t29 -74q-1 -46 -29 -74t-72 -28t-73 29t-29 73zM1020 1054v-1054h-199v143h-9q-30 -69 -108 -115t-196 -45q-168 -1 -269 95t-101 274v702h203
v-646q1 -133 65 -190t171 -57t173 66t67 184v643h203zM636 1481h-163l190 279h208z" />
    <glyph glyph-name="Udieresiscaron" unicode="&#x1d9;" horiz-adv-x="1341" 
d="M348 1365v-881q0 -153 87 -242t235 -89q148 -1 236 89t88 242v881h205v-891q1 -226 -145 -364t-384 -138t-382 139q-146 139 -146 366v888h206zM336 1990h177l155 -127h8l154 127h177l-275 -221h-119zM758 1584q0 40 25 64q25 26 65 26t64 -26q25 -26 25 -64
q0 -40 -25 -66q-24 -26 -64 -25q-40 -1 -65 25t-25 66zM449 1584q-1 38 25 64t66 26t64 -26q25 -26 25 -64q1 -40 -25 -66t-65 -25q-39 0 -65 26t-25 65z" />
    <glyph glyph-name="udieresiscaron" unicode="&#x1da;" horiz-adv-x="1166" 
d="M663 1264q0 46 28 74t73 28q46 0 74 -28t28 -74t-29 -74t-73 -28t-72 28t-29 74zM300 1264q0 44 28 73t74 29q44 0 72 -28t29 -74q-1 -46 -29 -74t-72 -28t-73 29t-29 73zM1020 1054v-1054h-199v143h-9q-30 -69 -108 -115t-196 -45q-168 -1 -269 95t-101 274v702h203
v-646q1 -133 65 -190t171 -57t173 66t67 184v643h203zM307 1796h159l117 -186h4l108 187h162l-205 -299h-133z" />
    <glyph glyph-name="Udieresisgrave" unicode="&#x1db;" horiz-adv-x="1341" 
d="M348 1365v-881q0 -153 87 -242t235 -89q148 -1 236 89t88 242v881h205v-891q1 -226 -145 -364t-384 -138t-382 139q-146 139 -146 366v888h206zM758 1584q0 40 25 64q25 26 65 26t64 -26q25 -26 25 -64q0 -40 -25 -66q-24 -26 -64 -25q-40 -1 -65 25t-25 66zM449 1584
q-1 38 25 64t66 26t64 -26q25 -26 25 -64q1 -40 -25 -66t-65 -25q-39 0 -65 26t-25 65zM786 1738h-175l-292 203h215z" />
    <glyph glyph-name="udieresisgrave" unicode="&#x1dc;" horiz-adv-x="1166" 
d="M663 1264q0 46 28 74t73 28q46 0 74 -28t28 -74t-29 -74t-73 -28t-72 28t-29 74zM300 1264q0 44 28 73t74 29q44 0 72 -28t29 -74q-1 -46 -29 -74t-72 -28t-73 29t-29 73zM1020 1054v-1054h-199v143h-9q-30 -69 -108 -115t-196 -45q-168 -1 -269 95t-101 274v702h203
v-646q1 -133 65 -190t171 -57t173 66t67 184v643h203zM690 1482h-164l-237 277h208z" />
    <glyph glyph-name="Adieresismacron" unicode="&#x1de;" horiz-adv-x="1218" 
d="M888 1795h-558v110h558v-110zM697 1584q0 40 25 64q24 26 64 26t65 -26t25 -64q0 -40 -25 -66t-65 -25q-40 -1 -64 25q-25 26 -25 66zM388 1584q0 38 26 64t64 26q40 0 65 -26t25 -64q0 -40 -26 -66t-64 -25q-38 0 -64 26t-26 65zM607 1141h-7l-193 -590h392zM230 0h-209
l476 1365h223l476 -1365h-221l-127 391h-490z" />
    <glyph glyph-name="adieresismacron" unicode="&#x1df;" horiz-adv-x="1072" 
d="M814 1520h-558v118h558v-118zM616 1264q0 46 28 74t73 28t73 -28t29 -74q0 -46 -29 -74t-73 -28q-45 0 -73 28t-28 74zM253 1264q1 44 29 73t72 29t74 -28q28 -28 28 -74t-28 -74t-74 -28q-44 0 -72 29t-29 73zM500 143q94 -1 162 61t68 153v111h-243q-97 0 -146 -42
t-49 -119t58 -121t150 -43zM432 -17q-154 0 -249 87q-95 86 -95 230t96 228t275 83h271v118q0 175 -196 175t-213 -158h-194q7 148 107 236t294 89q404 0 404 -344v-727h-192v138h-7q-41 -68 -117 -112t-184 -43z" />
    <glyph glyph-name="Adotmacron" unicode="&#x1e0;" horiz-adv-x="1218" 
d="M888 1795h-558v110h558v-110zM503 1606q0 46 31 78t77 31q46 1 78 -31t32 -78t-32 -78q-32 -30 -78 -30t-77 30q-31 32 -31 78zM607 1141h-7l-193 -590h392zM230 0h-209l476 1365h223l476 -1365h-221l-127 391h-490z" />
    <glyph glyph-name="adotmacron" unicode="&#x1e1;" horiz-adv-x="1072" 
d="M814 1520h-558v118h558v-118zM429 1294q0 46 31 78t77 32t78 -32t32 -78t-32 -76t-78 -31q-46 1 -77 31t-31 76zM500 143q94 -1 162 61t68 153v111h-243q-97 0 -146 -42t-49 -119t58 -121t150 -43zM432 -17q-154 0 -249 87q-95 86 -95 230t96 228t275 83h271v118
q0 175 -196 175t-213 -158h-194q7 148 107 236t294 89q404 0 404 -344v-727h-192v138h-7q-41 -68 -117 -112t-184 -43z" />
    <glyph glyph-name="AEmacron" unicode="&#x1e2;" horiz-adv-x="1864" 
d="M1620 1525h-558v110h558v-110zM922 405h-468l-212 -405h-230l719 1365h1021v-177h-626v-408h590v-170h-590v-433h626v-177h-830v405zM922 570v618h-71l-316 -618h387z" />
    <glyph glyph-name="aemacron" unicode="&#x1e3;" horiz-adv-x="1714" 
d="M1135 1214h-558v118h558v-118zM502 143q94 -1 162 61q69 62 69 153v117h-244q-99 0 -151 -44t-52 -120q0 -78 61 -122t155 -45zM1187 909q-107 0 -177 -74t-70 -188v-32h482v22q0 126 -64 199t-171 73zM733 719q0 185 -210 185q-174 0 -206 -120h-193q10 136 116 212
t290 76q108 0 194 -35t129 -103h13q44 66 130 102t188 36q196 0 316 -128t121 -341v-126h-681v-76q0 -110 70 -181t172 -71q100 0 156 35t68 87h202q-13 -101 -113 -195t-297 -94q-148 0 -247 58t-137 145h-14q-43 -87 -133 -145q-89 -58 -237 -58t-246 86t-99 234
q0 147 99 231t280 84h269v102z" />
    <glyph glyph-name="Gcaron" unicode="&#x1e6;" horiz-adv-x="1283" 
d="M644 1213q-140 -1 -238 -109t-97 -327v-182q0 -207 88 -325t245 -118t248 80t91 202v116h-329v170h528v-279q0 -133 -72 -247q-138 -221 -452 -222q-272 0 -412 167t-141 456v183q0 287 151 451t408 164q118 0 216 -37q98 -36 160 -100q128 -130 139 -314h-203
q-16 133 -104 202q-86 69 -226 69zM323 1729h177l155 -127h8l154 127h177l-275 -221h-119z" />
    <glyph glyph-name="gcaron" unicode="&#x1e7;" horiz-adv-x="1134" 
d="M550 902q-118 0 -190 -87t-72 -235v-94q0 -146 74 -228t191 -83q118 0 184 86t66 215v105q1 139 -67 230t-186 91zM552 -230q118 0 185 66t67 187v153h-7q-32 -71 -113 -118t-188 -47q-180 0 -296 125t-116 336v132q0 210 116 338t299 128q121 0 195 -46t109 -118h6v148
h196v-1033q1 -310 -285 -391q-84 -24 -189 -24q-203 0 -310 90t-114 222h203q9 -64 67 -106q57 -42 175 -42zM291 1497h159l117 -186h4l108 187h162l-205 -299h-133z" />
    <glyph glyph-name="Kcaron" unicode="&#x1e8;" horiz-adv-x="1209" 
d="M250 1729h177l155 -127h8l154 127h177l-275 -221h-119zM364 0h-206v1365h206v-644h9l568 644h236l-502 -583l527 -782h-256l-423 641l-159 -175v-466z" />
    <glyph glyph-name="kcaron" unicode="&#x1e9;" horiz-adv-x="1041" 
d="M350 0h-202v1437h202v-848h9l406 465h231l-405 -457l432 -597h-239l-343 476l-91 -94v-382zM-29 1880h159l117 -186h4l108 187h162l-205 -299h-133z" />
    <glyph glyph-name="Oogonek" unicode="&#x1ea;" horiz-adv-x="1324" 
d="M884 -144q0 -100 119 -100q39 0 74 9v-133q-179 -50 -286 33q-67 51 -67 157t103 186l-6 10q-78 -45 -181 -45q-240 0 -388 163t-149 444v192q0 289 151 455t409 166q258 1 408 -165t150 -456v-192q0 -174 -48 -286t-128 -202q-18 -21 -57 -61q-40 -39 -56 -59
q-48 -58 -48 -116zM310 774v-194q0 -212 97 -320t255 -108t254 108q97 108 97 320v194q1 212 -97 326t-254 114t-254 -114t-98 -326z" />
    <glyph glyph-name="oogonek" unicode="&#x1eb;" horiz-adv-x="1115" 
d="M522 -15q-185 0 -306 125t-121 337v154q0 213 130 342q131 129 335 129t332 -126t128 -344v-146q0 -134 -41 -220t-113 -164q-118 -118 -132 -168q-6 -20 -5 -56q0 -36 33 -65q34 -28 82 -28t79 9v-132q-57 -19 -119 -19t-114 19q-50 19 -85 65t-35 112q0 117 106 199
l-8 10q-66 -33 -146 -33zM558 906q-120 0 -190 -88t-71 -228v-124q1 -144 69 -230t192 -86t191 86t67 230v124q0 140 -69 228t-189 88z" />
    <glyph glyph-name="Oogonekmacron" unicode="&#x1ec;" horiz-adv-x="1324" 
d="M940 1525h-558v110h558v-110zM884 -144q0 -100 119 -100q39 0 74 9v-133q-179 -50 -286 33q-67 51 -67 157t103 186l-6 10q-78 -45 -181 -45q-240 0 -388 163t-149 444v192q0 289 151 455t409 166q258 1 408 -165t150 -456v-192q0 -174 -48 -286t-128 -202
q-18 -21 -57 -61q-40 -39 -56 -59q-48 -58 -48 -116zM310 774v-194q0 -212 97 -320t255 -108t254 108q97 108 97 320v194q1 212 -97 326t-254 114t-254 -114t-98 -326z" />
    <glyph glyph-name="oogonekmacron" unicode="&#x1ed;" horiz-adv-x="1115" 
d="M836 1214h-558v118h558v-118zM522 -15q-185 0 -306 125t-121 337v154q0 213 130 342q131 129 335 129t332 -126t128 -344v-146q0 -134 -41 -220t-113 -164q-118 -118 -132 -168q-6 -20 -5 -56q0 -36 33 -65q34 -28 82 -28t79 9v-132q-57 -19 -119 -19t-114 19
q-50 19 -85 65t-35 112q0 117 106 199l-8 10q-66 -33 -146 -33zM558 906q-120 0 -190 -88t-71 -228v-124q1 -144 69 -230t192 -86t191 86t67 230v124q0 140 -69 228t-189 88z" />
    <glyph glyph-name="Gacute" unicode="&#x1f4;" horiz-adv-x="1283" 
d="M644 1213q-140 -1 -238 -109t-97 -327v-182q0 -207 88 -325t245 -118t248 80t91 202v116h-329v170h528v-279q0 -133 -72 -247q-138 -221 -452 -222q-272 0 -412 167t-141 456v183q0 287 151 451t408 164q118 0 216 -37q98 -36 160 -100q128 -130 139 -314h-203
q-16 133 -104 202q-86 69 -226 69zM541 1510l255 206h219l-296 -206h-178z" />
    <glyph glyph-name="gacute" unicode="&#x1f5;" horiz-adv-x="1134" 
d="M550 902q-118 0 -190 -87t-72 -235v-94q0 -146 74 -228t191 -83q118 0 184 86t66 215v105q1 139 -67 230t-186 91zM552 -230q118 0 185 66t67 187v153h-7q-32 -71 -113 -118t-188 -47q-180 0 -296 125t-116 336v132q0 210 116 338t299 128q121 0 195 -46t109 -118h6v148
h196v-1033q1 -310 -285 -391q-84 -24 -189 -24q-203 0 -310 90t-114 222h203q9 -64 67 -106q57 -42 175 -42zM620 1215h-163l190 279h208z" />
    <glyph glyph-name="Ngrave" unicode="&#x1f8;" horiz-adv-x="1368" 
d="M357 0h-199v1365h187l659 -1014h6v1014h200v-1365h-187l-660 1016h-6v-1016zM799 1510h-175l-292 203h215z" />
    <glyph glyph-name="ngrave" unicode="&#x1f9;" horiz-adv-x="1171" 
d="M146 0v1054h199v-143h7q31 67 111 113t192 47q163 0 269 -98t106 -274v-699h-203v630q0 263 -237 263q-116 1 -180 -69t-63 -201v-623h-201zM693 1217h-164l-237 277h208z" />
    <glyph glyph-name="Aringacute" unicode="&#x1fa;" horiz-adv-x="1219" 
d="M389 1503q-1 89 63 151t155 63q19 0 37 -3l224 180h228l-328 -248q55 -60 55 -128q0 -126 -92 -183l466 -1335h-221l-127 391h-490l-129 -391h-208l465 1329q-45 27 -71 73t-27 101zM800 551l-191 590h-9l-192 -590h392zM499 1502q0 -44 32 -76t76 -31q43 -1 75 31t32 76
t-32 76q-32 31 -76 31t-76 -31q-32 -32 -31 -76z" />
    <glyph glyph-name="aringacute" unicode="&#x1fb;" horiz-adv-x="1072" 
d="M442 1384q0 -42 28 -71t72 -29q42 0 70 29t28 71t-28 72q-28 28 -70 28t-72 -28q-28 -30 -28 -72zM542 1192q-84 0 -141 55t-57 137t57 138q57 55 141 55q19 0 36 -3l194 275h210l-290 -338q47 -52 47 -130q0 -79 -57 -134q-56 -55 -140 -55zM500 143q94 -1 162 61
t68 153v111h-243q-97 0 -146 -42t-49 -119t58 -121t150 -43zM432 -17q-154 0 -249 87q-95 86 -95 230t96 228t275 83h271v118q0 175 -196 175t-213 -158h-194q7 148 107 236t294 89q404 0 404 -344v-727h-192v138h-7q-41 -68 -117 -112t-184 -43z" />
    <glyph glyph-name="AEacute" unicode="&#x1fc;" horiz-adv-x="1864" 
d="M922 405h-468l-212 -405h-230l719 1365h1021v-177h-626v-408h590v-170h-590v-433h626v-177h-830v405zM922 570v618h-71l-316 -618h387zM1225 1510l255 206h219l-296 -206h-178z" />
    <glyph glyph-name="aeacute" unicode="&#x1fd;" horiz-adv-x="1714" 
d="M502 143q94 -1 162 61q69 62 69 153v117h-244q-99 0 -151 -44t-52 -120q0 -78 61 -122t155 -45zM1187 909q-107 0 -177 -74t-70 -188v-32h482v22q0 126 -64 199t-171 73zM733 719q0 185 -210 185q-174 0 -206 -120h-193q10 136 116 212t290 76q108 0 194 -35t129 -103h13
q44 66 130 102t188 36q196 0 316 -128t121 -341v-126h-681v-76q0 -110 70 -181t172 -71q100 0 156 35t68 87h202q-13 -101 -113 -195t-297 -94q-148 0 -247 58t-137 145h-14q-43 -87 -133 -145q-89 -58 -237 -58t-246 86t-99 234q0 147 99 231t280 84h269v102zM910 1215
h-163l190 279h208z" />
    <glyph glyph-name="Oslashacute" unicode="&#x1fe;" horiz-adv-x="1324" 
d="M545 1510l255 206h219l-296 -206h-178zM658 149q162 0 260 109q97 109 97 321v195q0 117 -34 204l-578 -718q93 -111 255 -111zM308 579q0 -107 28 -186l576 714q-96 109 -252 109t-254 -114t-98 -328v-195zM672 -28q-248 0 -392 136l-100 -124l-105 86l116 145
q-88 148 -88 365v192q0 289 151 455t394 166t388 -133l95 118l109 -79l-116 -144q97 -154 97 -383v-192q0 -288 -151 -448q-150 -160 -398 -160z" />
    <glyph glyph-name="oslashacute" unicode="&#x1ff;" horiz-adv-x="1115" 
d="M611 1215h-163l190 279h208zM558 -18q-154 0 -272 79l-101 -136l-99 75l108 146q-99 126 -99 309v146q-1 213 129 342t334 129q151 0 269 -80l101 135l99 -77l-107 -144q100 -125 100 -304v-146q0 -222 -128 -348t-334 -126zM292 442q0 -81 30 -141l402 553
q-66 58 -176 58t-184 -90q-72 -90 -72 -232v-148zM570 145q112 0 182 89t70 233v148q0 77 -30 137l-402 -551q67 -56 180 -56z" />
    <glyph glyph-name="Adblgrave" unicode="&#x200;" horiz-adv-x="1218" 
d="M547 1510h-167l-292 218h188zM872 1510h-166l-293 218h188zM607 1141h-7l-193 -590h392zM230 0h-209l476 1365h223l476 -1365h-221l-127 391h-490z" />
    <glyph glyph-name="adblgrave" unicode="&#x201;" horiz-adv-x="1072" 
d="M627 1214l-255 315h169l215 -315h-129zM334 1214l-254 315h170l215 -315h-131zM500 143q94 -1 162 61t68 153v111h-243q-97 0 -146 -42t-49 -119t58 -121t150 -43zM432 -17q-154 0 -249 87q-95 86 -95 230t96 228t275 83h271v118q0 175 -196 175t-213 -158h-194
q7 148 107 236t294 89q404 0 404 -344v-727h-192v138h-7q-41 -68 -117 -112t-184 -43z" />
    <glyph glyph-name="Ainvertedbreve" unicode="&#x202;" horiz-adv-x="1218" 
d="M609 1636q-85 0 -137 -41t-53 -100h-132q0 111 81 189t241 77q160 1 241 -77t81 -189h-132q-1 59 -53 100t-137 41zM607 1141h-7l-193 -590h392zM230 0h-209l476 1365h223l476 -1365h-221l-127 391h-490z" />
    <glyph glyph-name="ainvertedbreve" unicode="&#x203;" horiz-adv-x="1072" 
d="M237 1193q0 107 75 196q75 88 223 88q149 0 223 -88t74 -196h-131q0 69 -42 117t-124 47q-82 1 -124 -47t-42 -117h-132zM500 143q94 -1 162 61t68 153v111h-243q-97 0 -146 -42t-49 -119t58 -121t150 -43zM432 -17q-154 0 -249 87q-95 86 -95 230t96 228t275 83h271v118
q0 175 -196 175t-213 -158h-194q7 148 107 236t294 89q404 0 404 -344v-727h-192v138h-7q-41 -68 -117 -112t-184 -43z" />
    <glyph glyph-name="Edblgrave" unicode="&#x204;" horiz-adv-x="1107" 
d="M996 177v-177h-838v1365h838v-177h-633v-408h597v-170h-597v-433h633zM509 1510h-167l-292 218h188zM834 1510h-166l-293 218h188z" />
    <glyph glyph-name="edblgrave" unicode="&#x205;" horiz-adv-x="1075" 
d="M629 1214l-255 315h169l215 -315h-129zM336 1214l-254 315h170l215 -315h-131zM296 628h490v3q0 123 -66 201t-179 77q-113 0 -179 -78t-66 -200v-3zM95 477v93q1 228 117 365t330 137t328 -136t115 -364v-92h-689v-30q0 -128 66 -214t176 -87q112 1 166 43t67 105h201
q-16 -115 -115 -215t-312 -100t-331 134t-119 361z" />
    <glyph glyph-name="Einvertedbreve" unicode="&#x206;" horiz-adv-x="1107" 
d="M571 1636q-85 0 -137 -41t-53 -100h-132q0 111 81 189t241 77q160 1 241 -77t81 -189h-132q-1 59 -53 100t-137 41zM996 177v-177h-838v1365h838v-177h-633v-408h597v-170h-597v-433h633z" />
    <glyph glyph-name="einvertedbreve" unicode="&#x207;" horiz-adv-x="1075" 
d="M239 1193q0 107 75 196q75 88 223 88q149 0 223 -88t74 -196h-131q0 69 -42 117t-124 47q-82 1 -124 -47t-42 -117h-132zM296 628h490v3q0 123 -66 201t-179 77q-113 0 -179 -78t-66 -200v-3zM95 477v93q1 228 117 365t330 137t328 -136t115 -364v-92h-689v-30
q0 -128 66 -214t176 -87q112 1 166 43t67 105h201q-16 -115 -115 -215t-312 -100t-331 134t-119 361z" />
    <glyph glyph-name="Idblgrave" unicode="&#x208;" horiz-adv-x="521" 
d="M198 1510h-167l-292 218h188zM523 1510h-166l-293 218h188zM364 0h-206v1365h206v-1365z" />
    <glyph glyph-name="idblgrave" unicode="&#x209;" horiz-adv-x="540" 
d="M363 1214l-255 315h169l215 -315h-129zM70 1214l-254 315h170l215 -315h-131zM170 0v1054h205v-1054h-205z" />
    <glyph glyph-name="Iinvertedbreve" unicode="&#x20a;" horiz-adv-x="521" 
d="M260 1636q-86 0 -138 -41t-52 -100h-132q0 111 81 189t241 77q160 1 241 -77t81 -189h-132q0 59 -52 100t-138 41zM364 0h-206v1365h206v-1365z" />
    <glyph glyph-name="iinvertedbreve" unicode="&#x20b;" horiz-adv-x="540" 
d="M-27 1193q0 107 75 196q75 88 223 88q149 0 223 -88t74 -196h-131q0 69 -42 117t-124 47q-82 1 -124 -47t-42 -117h-132zM170 0v1054h205v-1054h-205z" />
    <glyph glyph-name="Odblgrave" unicode="&#x20c;" horiz-adv-x="1324" 
d="M103 580v192q0 289 151 455t409 166q258 1 408 -165t150 -456v-192q0 -288 -151 -448t-410 -160t-408 160t-149 448zM310 774v-194q0 -212 97 -320t255 -108t254 108q97 108 97 320v194q1 212 -97 326t-254 114t-254 -114t-98 -326zM599 1510h-167l-292 218h188z
M924 1510h-166l-293 218h188z" />
    <glyph glyph-name="odblgrave" unicode="&#x20d;" horiz-adv-x="1115" 
d="M649 1214l-255 315h169l215 -315h-129zM356 1214l-254 315h170l215 -315h-131zM558 150q258 0 258 349v57q0 266 -155 331q-45 19 -103 19t-104 -19q-158 -66 -157 -331v-57q-1 -267 157 -331q46 -18 104 -18zM558 1072q226 0 344 -136t118 -367v-81q0 -234 -117 -370
t-345 -136t-346 136q-117 136 -117 370v80q1 224 119 364t344 140z" />
    <glyph glyph-name="Oinvertedbreve" unicode="&#x20e;" horiz-adv-x="1324" 
d="M103 580v192q0 289 151 455t409 166q258 1 408 -165t150 -456v-192q0 -288 -151 -448t-410 -160t-408 160t-149 448zM310 774v-194q0 -212 97 -320t255 -108t254 108q97 108 97 320v194q1 212 -97 326t-254 114t-254 -114t-98 -326zM661 1636q-85 0 -137 -41t-53 -100
h-132q0 111 81 189t241 77q160 1 241 -77t81 -189h-132q-1 59 -53 100t-137 41z" />
    <glyph glyph-name="oinvertedbreve" unicode="&#x20f;" horiz-adv-x="1115" 
d="M259 1193q0 107 75 196q75 88 223 88q149 0 223 -88t74 -196h-131q0 69 -42 117t-124 47q-82 1 -124 -47t-42 -117h-132zM558 150q258 0 258 349v57q0 266 -155 331q-45 19 -103 19t-104 -19q-158 -66 -157 -331v-57q-1 -267 157 -331q46 -18 104 -18zM558 1072
q226 0 344 -136t118 -367v-81q0 -234 -117 -370t-345 -136t-346 136q-117 136 -117 370v80q1 224 119 364t344 140z" />
    <glyph glyph-name="Rdblgrave" unicode="&#x210;" horiz-adv-x="1228" 
d="M362 701h272q133 0 203 62t70 181t-72 184t-195 65h-278v-492zM668 1365q228 0 340 -121t112 -294q0 -218 -164 -334q-42 -30 -88 -47l277 -569h-233l-248 532h-302v-532h-204v1365h510zM519 1510h-167l-292 218h188zM844 1510h-166l-293 218h188z" />
    <glyph glyph-name="rdblgrave" unicode="&#x211;" horiz-adv-x="724" 
d="M512 1214l-255 315h169l215 -315h-129zM219 1214l-254 315h170l215 -315h-131zM369 924q65 146 243 146q50 0 83 -5v-181q-27 6 -90 6q-240 0 -240 -250v-640h-204v1054h201v-130h7z" />
    <glyph glyph-name="Rinvertedbreve" unicode="&#x212;" horiz-adv-x="1228" 
d="M581 1636q-85 0 -137 -41t-53 -100h-132q0 111 81 189t241 77q160 1 241 -77t81 -189h-132q-1 59 -53 100t-137 41zM362 701h272q133 0 203 62t70 181t-72 184t-195 65h-278v-492zM668 1365q228 0 340 -121t112 -294q0 -218 -164 -334q-42 -30 -88 -47l277 -569h-233
l-248 532h-302v-532h-204v1365h510z" />
    <glyph glyph-name="rinvertedbreve" unicode="&#x213;" horiz-adv-x="724" 
d="M122 1193q0 107 75 196q75 88 223 88q149 0 223 -88t74 -196h-131q0 69 -42 117t-124 47q-82 1 -124 -47t-42 -117h-132zM369 924q65 146 243 146q50 0 83 -5v-181q-27 6 -90 6q-240 0 -240 -250v-640h-204v1054h201v-130h7z" />
    <glyph glyph-name="Udblgrave" unicode="&#x214;" horiz-adv-x="1341" 
d="M348 1365v-881q0 -153 87 -242t235 -89q148 -1 236 89t88 242v881h205v-891q1 -226 -145 -364t-384 -138t-382 139q-146 139 -146 366v888h206zM608 1510h-167l-292 218h188zM933 1510h-166l-293 218h188z" />
    <glyph glyph-name="udblgrave" unicode="&#x215;" horiz-adv-x="1166" 
d="M674 1214l-255 315h169l215 -315h-129zM381 1214l-254 315h170l215 -315h-131zM1020 1054v-1054h-199v143h-9q-30 -69 -108 -115t-196 -45q-168 -1 -269 95t-101 274v702h203v-646q1 -133 65 -190t171 -57t173 66t67 184v643h203z" />
    <glyph glyph-name="Uinvertedbreve" unicode="&#x216;" horiz-adv-x="1341" 
d="M670 1636q-86 0 -138 -41t-52 -100h-132q0 111 81 189t241 77q160 1 241 -77t81 -189h-132q0 59 -52 100t-138 41zM348 1365v-881q0 -153 87 -242t235 -89q148 -1 236 89t88 242v881h205v-891q1 -226 -145 -364t-384 -138t-382 139q-146 139 -146 366v888h206z" />
    <glyph glyph-name="uinvertedbreve" unicode="&#x217;" horiz-adv-x="1166" 
d="M284 1193q0 107 75 196q75 88 223 88q149 0 223 -88t74 -196h-131q0 69 -42 117t-124 47q-82 1 -124 -47t-42 -117h-132zM1020 1054v-1054h-199v143h-9q-30 -69 -108 -115t-196 -45q-168 -1 -269 95t-101 274v702h203v-646q1 -133 65 -190t171 -57t173 66t67 184v643h203
z" />
    <glyph glyph-name="Scommaaccent" unicode="&#x218;" horiz-adv-x="1172" 
d="M550 -489h-149l85 335h178zM578 147q140 0 219 60q79 59 79 151t-52 140t-167 76l-230 58q-137 34 -232 120q-96 86 -96 227q1 143 69 235q135 182 414 182t414 -178q69 -91 71 -216h-199q-8 97 -82 159t-202 62q-128 -1 -202 -57q-76 -56 -76 -155q0 -144 191 -190
l228 -58q209 -51 293 -161q66 -86 66 -215q0 -195 -144 -305t-376 -110q-301 0 -431 182q-69 97 -73 221h203q10 -99 93 -163q82 -64 222 -65z" />
    <glyph glyph-name="scommaaccent" unicode="&#x219;" horiz-adv-x="998" 
d="M484 -489h-149l85 335h178zM98 761q0 71 32 134t90 101q114 76 287 76t275 -88t101 -230h-184q-5 68 -54 118t-145 49t-152 -41q-55 -40 -55 -103t39 -96q39 -34 92 -45q78 -16 116 -22q219 -32 304 -118q67 -68 67 -181q1 -157 -115 -245t-306 -88t-300 82t-111 224h196
q10 -70 66 -112q55 -42 159 -41q104 -1 159 43t55 119t-90 113q-45 18 -143 38t-143 32q-44 12 -94 35t-79 53t-48 76t-19 117z" />
    <glyph glyph-name="Tcommaaccent" unicode="&#x21a;" horiz-adv-x="1054" 
d="M629 0h-204v1186h-407v179h1018v-179h-407v-1186zM512 -489h-149l85 335h178z" />
    <glyph glyph-name="tcommaaccent" unicode="&#x21b;" horiz-adv-x="683" 
d="M202 1050v264h199v-264h207v-163h-207v-581q-1 -88 35 -120t130 -32q22 0 48 2v-157q-40 -7 -116 -7q-169 0 -233 72q-65 72 -65 232v591h-145v163h147zM402 -489h-149l85 335h178z" />
    <glyph glyph-name="Hcaron" unicode="&#x21e;" horiz-adv-x="1377" 
d="M354 1729h177l155 -127h8l154 127h177l-275 -221h-119zM1220 0h-206v615h-650v-615h-206v1365h206v-572h650v572h206v-1365z" />
    <glyph glyph-name="hcaron" unicode="&#x21f;" horiz-adv-x="1177" 
d="M-28 1880h159l117 -186h4l108 187h162l-205 -299h-133zM149 0v1437h202v-526h8q27 63 101 111t192 49q174 0 280 -113t105 -297v-661h-202v617q0 128 -62 202q-63 74 -177 74t-180 -72t-65 -204v-617h-202z" />
    <glyph glyph-name="Adotaccent" unicode="&#x226;" horiz-adv-x="1218" 
d="M503 1606q0 46 31 78t77 31q46 1 78 -31t32 -78t-32 -78q-32 -30 -78 -30t-77 30q-31 32 -31 78zM607 1141h-7l-193 -590h392zM230 0h-209l476 1365h223l476 -1365h-221l-127 391h-490z" />
    <glyph glyph-name="adotaccent" unicode="&#x227;" horiz-adv-x="1072" 
d="M429 1294q0 46 31 78t77 32t78 -32t32 -78t-32 -76t-78 -31q-46 1 -77 31t-31 76zM500 143q94 -1 162 61t68 153v111h-243q-97 0 -146 -42t-49 -119t58 -121t150 -43zM432 -17q-154 0 -249 87q-95 86 -95 230t96 228t275 83h271v118q0 175 -196 175t-213 -158h-194
q7 148 107 236t294 89q404 0 404 -344v-727h-192v138h-7q-41 -68 -117 -112t-184 -43z" />
    <glyph glyph-name="Ecedilla" unicode="&#x228;" horiz-adv-x="1107" 
d="M538 -357q116 0 116 73q0 46 -39 56t-104 10h-53v85l50 133h-350v1365h838v-177h-633v-408h597v-170h-597v-433h633v-177h-357l-44 -115q95 0 151 -42t56 -128t-63 -133q-63 -46 -155 -50t-160 14v111q47 -14 114 -14z" />
    <glyph glyph-name="ecedilla" unicode="&#x229;" horiz-adv-x="1075" 
d="M517 -373q115 0 115 73q0 62 -98 64q-16 0 -45 1h-53v86l51 135q-191 20 -291 150t-101 341v93q1 228 117 365t330 137t328 -136t115 -364v-92h-689v-30q0 -128 66 -214t176 -87q112 1 166 43t67 105h201q-14 -103 -98 -198t-256 -113l-44 -118q94 0 150 -42t56 -128
t-63 -132q-63 -47 -157 -51t-158 15v110q44 -13 115 -13zM296 628h490v3q0 123 -66 201t-179 77q-113 0 -179 -78t-66 -200v-3z" />
    <glyph glyph-name="Odieresismacron" unicode="&#x22a;" horiz-adv-x="1324" 
d="M940 1795h-558v110h558v-110zM103 580v192q0 289 151 455t409 166q258 1 408 -165t150 -456v-192q0 -288 -151 -448t-410 -160t-408 160t-149 448zM310 774v-194q0 -212 97 -320t255 -108t254 108q97 108 97 320v194q1 212 -97 326t-254 114t-254 -114t-98 -326z
M749 1584q0 40 25 64q24 26 64 26t65 -26t25 -64q0 -40 -25 -66t-65 -25q-40 -1 -64 25q-25 26 -25 66zM440 1584q0 38 26 64t64 26q40 0 65 -26t25 -64q0 -40 -26 -66t-64 -25q-38 0 -64 26t-26 65z" />
    <glyph glyph-name="odieresismacron" unicode="&#x22b;" horiz-adv-x="1115" 
d="M836 1520h-558v118h558v-118zM558 150q258 0 258 349v57q0 266 -155 331q-45 19 -103 19t-104 -19q-158 -66 -157 -331v-57q-1 -267 157 -331q46 -18 104 -18zM558 1072q226 0 344 -136t118 -367v-81q0 -234 -117 -370t-345 -136t-346 136q-117 136 -117 370v80
q1 224 119 364t344 140zM638 1264q0 46 28 74t73 28t73 -28t29 -74q0 -46 -29 -74t-73 -28q-45 0 -73 28t-28 74zM275 1264q1 44 29 73t72 29t74 -28q28 -28 28 -74t-28 -74t-74 -28q-44 0 -72 29t-29 73z" />
    <glyph glyph-name="Otildemacron" unicode="&#x22c;" horiz-adv-x="1324" 
d="M940 1795h-558v110h558v-110zM559 1587q-60 0 -64 -91h-116q-1 82 43 140t124 59q80 0 163 -83q32 -32 61 -32q30 0 46 30t19 69h116q1 -78 -47 -139t-112 -61q-64 1 -94 15q-31 14 -55 38l-25 26q-14 14 -20 16q-6 3 -15 8t-24 5zM103 580v192q0 289 151 455t409 166
q258 1 408 -165t150 -456v-192q0 -288 -151 -448t-410 -160t-408 160t-149 448zM310 774v-194q0 -212 97 -320t255 -108t254 108q97 108 97 320v194q1 212 -97 326t-254 114t-254 -114t-98 -326z" />
    <glyph glyph-name="otildemacron" unicode="&#x22d;" horiz-adv-x="1115" 
d="M558 150q258 0 258 349v57q0 266 -155 331q-45 19 -103 19t-104 -19q-158 -66 -157 -331v-57q-1 -267 157 -331q46 -18 104 -18zM558 1072q226 0 344 -136t118 -367v-81q0 -234 -117 -370t-345 -136t-346 136q-117 136 -117 370v80q1 224 119 364t344 140zM836 1520h-558
v118h558v-118zM250 1176q0 98 46 165t133 67t169 -90q35 -38 67 -38q33 0 49 34t19 76h124q1 -92 -51 -162t-137 -70t-139 60q-55 59 -88 59q-61 0 -68 -101h-124z" />
    <glyph glyph-name="Odotaccent" unicode="&#x22e;" horiz-adv-x="1324" 
d="M103 580v192q0 289 151 455t409 166q258 1 408 -165t150 -456v-192q0 -288 -151 -448t-410 -160t-408 160t-149 448zM310 774v-194q0 -212 97 -320t255 -108t254 108q97 108 97 320v194q1 212 -97 326t-254 114t-254 -114t-98 -326zM555 1606q0 46 31 78t77 31
q46 1 78 -31t32 -78t-32 -78q-32 -30 -78 -30t-77 30q-31 32 -31 78z" />
    <glyph glyph-name="odotaccent" unicode="&#x22f;" horiz-adv-x="1115" 
d="M558 150q258 0 258 349v57q0 266 -155 331q-45 19 -103 19t-104 -19q-158 -66 -157 -331v-57q-1 -267 157 -331q46 -18 104 -18zM558 1072q226 0 344 -136t118 -367v-81q0 -234 -117 -370t-345 -136t-346 136q-117 136 -117 370v80q1 224 119 364t344 140zM451 1294
q0 46 31 78t77 32t78 -32t32 -78t-32 -76t-78 -31q-46 1 -77 31t-31 76z" />
    <glyph glyph-name="Odotaccentmacron" unicode="&#x230;" horiz-adv-x="1324" 
d="M940 1795h-558v110h558v-110zM103 580v192q0 289 151 455t409 166q258 1 408 -165t150 -456v-192q0 -288 -151 -448t-410 -160t-408 160t-149 448zM310 774v-194q0 -212 97 -320t255 -108t254 108q97 108 97 320v194q1 212 -97 326t-254 114t-254 -114t-98 -326z
M555 1606q0 46 31 78t77 31q46 1 78 -31t32 -78t-32 -78q-32 -30 -78 -30t-77 30q-31 32 -31 78z" />
    <glyph glyph-name="odotaccentmacron" unicode="&#x231;" horiz-adv-x="1115" 
d="M558 150q258 0 258 349v57q0 266 -155 331q-45 19 -103 19t-104 -19q-158 -66 -157 -331v-57q-1 -267 157 -331q46 -18 104 -18zM558 1072q226 0 344 -136t118 -367v-81q0 -234 -117 -370t-345 -136t-346 136q-117 136 -117 370v80q1 224 119 364t344 140zM836 1520h-558
v118h558v-118zM451 1294q0 46 31 78t77 32t78 -32t32 -78t-32 -76t-78 -31q-46 1 -77 31t-31 76z" />
    <glyph glyph-name="Ymacron" unicode="&#x232;" horiz-adv-x="1108" 
d="M833 1525h-558v110h558v-110zM656 0h-205v565l-456 800h232l324 -597h7l327 597h228l-457 -797v-568z" />
    <glyph glyph-name="ymacron" unicode="&#x233;" horiz-adv-x="1052" 
d="M804 1214h-558v118h558v-118zM239 -382q-65 0 -123 9v157q27 -5 99 -5q143 0 183 160l14 50l-381 1065h224l264 -864h9l266 864h215q-365 -1044 -366 -1048l-27 -73q-68 -186 -159 -250q-91 -65 -218 -65z" />
    <glyph glyph-name="circumflex" unicode="&#x2c6;" horiz-adv-x="946" 
d="M222 1204l213 298h133l204 -300h-162l-108 187h-4l-116 -185h-160z" />
    <glyph glyph-name="caron" unicode="&#x2c7;" horiz-adv-x="946" 
d="M194 1525h159l117 -186h4l108 187h162l-205 -299h-133z" />
    <glyph glyph-name="breve" unicode="&#x2d8;" horiz-adv-x="946" 
d="M171 1534h132q0 -68 42 -116t124 -48t124 48t42 116h131q0 -107 -75 -196q-75 -88 -222 -88q-213 0 -280 183q-18 49 -18 101z" />
    <glyph glyph-name="dotaccent" unicode="&#x2d9;" horiz-adv-x="946" 
d="M366 1432q0 54 36 88t88 35q54 -1 90 -35t36 -88t-36 -87q-36 -34 -90 -34q-52 0 -88 34q-36 33 -36 87z" />
    <glyph glyph-name="ring" unicode="&#x2da;" horiz-adv-x="946" 
d="M382 1418q0 -42 28 -71t72 -29q42 0 70 29t28 71t-28 72q-28 28 -70 28t-72 -28q-28 -30 -28 -72zM482 1226q-84 0 -141 55t-57 137t57 138q57 55 141 55t140 -55q57 -56 57 -138t-57 -137q-56 -55 -140 -55z" />
    <glyph glyph-name="ogonek" unicode="&#x2db;" horiz-adv-x="946" 
d="M510 -387q-90 1 -150 49t-60 139q0 46 22 95t46 79q24 31 60 71t47 52h128q-104 -112 -125 -164t-21 -92q1 -40 31 -63q30 -24 76 -24t85 9v-129q-50 -22 -139 -22z" />
    <glyph glyph-name="tilde" unicode="&#x2dc;" horiz-adv-x="946" 
d="M310 1345q-61 0 -68 -101h-124q0 98 46 165t133 67t169 -90q35 -38 67 -38q33 0 49 34t19 76h124q1 -92 -51 -162t-137 -70t-139 60q-55 60 -88 59z" />
    <glyph glyph-name="hungarumlaut" unicode="&#x2dd;" horiz-adv-x="946" 
d="M544 1215h-130l215 315h169zM252 1215h-129l214 315h169z" />
    <glyph glyph-name="gravecmb" unicode="&#x300;" 
d="M108 1217h-164l-237 277h208z" />
    <glyph glyph-name="acutecmb" unicode="&#x301;" 
d="M54 1215h-163l190 279h208z" />
    <glyph glyph-name="circumflexcmb" unicode="&#x302;" 
d="M-280 1217l213 298h133l204 -300h-162l-108 187h-4l-116 -185h-160z" />
    <glyph glyph-name="tildecmb" unicode="&#x303;" 
d="M-115 1277q-61 0 -68 -101h-124q1 98 47 165t132 67t168 -90q35 -38 68 -38q32 0 48 34t20 76h124q0 -92 -52 -162t-136 -70q-85 0 -139 60q-55 60 -88 59z" />
    <glyph glyph-name="macroncmb" unicode="&#x304;" 
d="M279 1214h-558v118h558v-118z" />
    <glyph glyph-name="brevecmb" unicode="&#x306;" 
d="M-301 1446h132q0 -68 42 -116t124 -48t124 48t42 116h131q0 -107 -75 -196q-75 -88 -222 -88q-213 0 -280 183q-18 49 -18 101z" />
    <glyph glyph-name="dotaccentcmb" unicode="&#x307;" 
d="M-106 1294q0 46 31 78t77 32t78 -32t32 -78t-32 -76t-78 -31q-46 1 -77 31t-31 76z" />
    <glyph glyph-name="dieresiscmb" unicode="&#x308;" 
d="M81 1264q0 46 28 74t73 28q46 0 74 -28t28 -74t-29 -74t-73 -28t-72 28t-29 74zM-282 1264q0 44 28 73t74 29q44 0 72 -28t29 -74q-1 -46 -29 -74t-72 -28t-73 29t-29 73z" />
    <glyph glyph-name="hookabovecmb" unicode="&#x309;" 
d="M-6 1565q84 1 144 -49t60 -130t-42 -126t-120 -89l-68 90q54 30 76 55q22 24 22 58t-29 56t-79 23q-50 0 -92 -16v110q43 18 128 18z" />
    <glyph glyph-name="ringcmb" unicode="&#x30a;" 
d="M-101 1384q1 -42 29 -71t70 -29t71 29q28 29 28 71t-28 72q-29 28 -71 28t-70 -28q-28 -30 -29 -72zM-2 1192q-84 0 -140 55q-57 55 -57 137t57 138q56 55 140 55t141 -55q57 -56 57 -138t-57 -137t-141 -55z" />
    <glyph glyph-name="hungarumlautcmb" unicode="&#x30b;" 
d="M183 1214h-130l215 315h169zM-109 1214h-129l214 315h169z" />
    <glyph glyph-name="caroncmb" unicode="&#x30c;" 
d="M-275 1497h159l117 -186h4l108 187h162l-205 -299h-133z" />
    <glyph glyph-name="dblgravecmb" unicode="&#x30f;" 
d="M92 1214l-255 315h169l215 -315h-129zM-201 1214l-254 315h170l215 -315h-131z" />
    <glyph glyph-name="invertedbrevecmb" unicode="&#x311;" 
d="M-298 1193q0 107 75 196q75 88 223 88q149 0 223 -88t74 -196h-131q0 69 -42 117t-124 47q-82 1 -124 -47t-42 -117h-132z" />
    <glyph glyph-name="horncmb" unicode="&#x31b;" 
d="M126 1219v156h172v-166q0 -123 -59 -212t-190 -89q-93 0 -135 30v167q36 -33 98 -33q114 0 114 147z" />
    <glyph glyph-name="dotbelowcmb" unicode="&#x323;" 
d="M-110 -270q0 48 32 81t82 33q48 0 81 -33t33 -81t-33 -81q-33 -32 -81 -32t-82 32q-32 33 -32 81z" />
    <glyph glyph-name="dieresisbelowcmb" unicode="&#x324;" 
d="M78 -311q0 45 28 73t73 29q45 -1 73 -29t29 -73q0 -45 -29 -73t-73 -29q-45 1 -73 29t-28 73zM-285 -312q1 44 29 74q28 29 72 29q44 -1 74 -29q28 -28 28 -73t-28 -73t-74 -29q-44 1 -72 29t-29 72z" />
    <glyph glyph-name="ringbelowcmb" unicode="&#x325;" 
d="M-100 -284q0 -42 28 -72q28 -29 72 -29q42 0 70 29q28 30 28 72t-28 70t-70 29q-42 -1 -72 -29q-28 -28 -28 -70zM0 -477q-84 0 -141 55q-57 56 -57 138t57 137t141 55t140 -55q57 -55 57 -137t-57 -138q-56 -55 -140 -55z" />
    <glyph glyph-name="commabelowcmb" unicode="&#x326;" 
d="M-14 -489h-149l85 335h178z" />
    <glyph glyph-name="cedillacmb" unicode="&#x327;" 
d="M-37 -373q116 0 116 73q-1 62 -99 64q-16 0 -44 1h-53v86l59 157h131l-53 -140q96 0 152 -42t55 -128q0 -86 -63 -132q-63 -47 -157 -51t-158 15v110q44 -13 114 -13z" />
    <glyph glyph-name="ogonekcmb" unicode="&#x328;" 
d="M16 -387q-90 1 -150 49t-61 139q0 46 22 95t46 79q25 31 61 71t46 52h128q-104 -112 -125 -164t-21 -92t30 -63q30 -24 77 -24q46 0 85 9v-129q-48 -22 -138 -22z" />
    <glyph glyph-name="circumflexbelowcmb" unicode="&#x32d;" 
d="M-278 -403l212 291h133l205 -292h-162l-108 181h-5l-116 -180h-159z" />
    <glyph glyph-name="brevebelowcmb" unicode="&#x32e;" 
d="M-313 -137h139q0 -68 45 -116t129 -48t129 48t45 116h131q0 -108 -73 -196t-232 -88q-224 0 -294 181q-19 49 -19 103z" />
    <glyph glyph-name="tildebelowcmb" unicode="&#x330;" 
d="M105 -248q58 0 68 107h119q0 -83 -49 -149t-115 -66t-97 16q-32 16 -48 33q-64 68 -95 68q-60 0 -65 -98h-120q0 89 45 151t129 62q85 0 163 -86q36 -38 65 -38z" />
    <glyph glyph-name="macronbelowcmb" unicode="&#x331;" 
d="M279 -327h-558v118h558v-118z" />
    <glyph glyph-name="Delta" unicode="&#x394;" horiz-adv-x="1219" 
d="M600 1141l-313 -958h633l-311 958h-9zM22 0l476 1365h223l476 -1365h-1175z" />
    <glyph glyph-name="Omega" unicode="&#x3a9;" horiz-adv-x="1331" 
d="M764 0v204q108 34 180 158t73 293v157q1 206 -95 304t-257 98t-256 -98t-95 -304v-157q0 -165 68 -288t172 -159v-207h-468v175h236v19q-94 43 -154 171t-61 291v157q1 285 149 432t410 147t410 -147t148 -432v-157q0 -162 -64 -290t-161 -172v-22h247v-173h-482z" />
    <glyph glyph-name="mu" unicode="&#x3bc;" horiz-adv-x="1183" 
d="M138 -336v1390h203v-676q1 -120 61 -172t163 -52t177 70t75 171v659h203v-811q0 -96 93 -96q36 0 55 5v-153q-52 -13 -132 -13t-138 44t-64 123l-2 24h-11q-23 -77 -101 -135t-201 -58q-61 0 -117 19t-81 52h-10l16 -391h-189z" />
    <glyph glyph-name="pi" unicode="&#x3c0;" horiz-adv-x="1293" 
d="M1045 -12q-87 0 -149 55t-61 147v701h-360v-891h-203v891h-225v163h1200v-163h-210v-648q0 -43 23 -67t62 -25q39 0 63 6v-157q-53 -12 -140 -12z" />
    <glyph glyph-name="Aringbelow" unicode="&#x1e00;" horiz-adv-x="1219" 
d="M502 -262q0 -42 28 -72q28 -29 72 -29q42 0 70 29q28 30 28 72t-28 70t-70 29q-42 -1 -72 -29q-28 -28 -28 -70zM602 -455q-84 0 -141 55q-57 56 -57 138t57 137t141 55t140 -55q57 -55 57 -137t-57 -138q-56 -55 -140 -55zM607 1141h-7l-193 -590h392zM230 0h-209
l476 1365h223l476 -1365h-221l-127 391h-490z" />
    <glyph glyph-name="aringbelow" unicode="&#x1e01;" horiz-adv-x="1072" 
d="M435 -284q1 -42 29 -72q28 -29 70 -29t71 29q28 30 28 72t-28 70q-29 28 -71 29q-42 -1 -70 -29t-29 -70zM534 -477q-84 0 -140 55q-57 56 -57 138t57 137q56 55 140 55t141 -55t57 -137t-57 -138q-57 -55 -141 -55zM500 143q94 -1 162 61t68 153v111h-243
q-97 0 -146 -42t-49 -119t58 -121t150 -43zM432 -17q-154 0 -249 87q-95 86 -95 230t96 228t275 83h271v118q0 175 -196 175t-213 -158h-194q7 148 107 236t294 89q404 0 404 -344v-727h-192v138h-7q-41 -68 -117 -112t-184 -43z" />
    <glyph glyph-name="Bdotaccent" unicode="&#x1e02;" horiz-adv-x="1234" 
d="M474 1606q0 46 31 78t77 31q46 1 78 -31t32 -78t-32 -78q-32 -30 -78 -30t-77 30q-31 32 -31 78zM363 621v-452h225q264 0 328 110q26 44 25 109q0 114 -73 174t-200 59h-305zM562 784q308 0 308 206q0 105 -60 156t-161 51h-286v-413h199zM158 0v1365h531q175 1 281 -89
t106 -247q0 -120 -60 -196t-164 -105v-9q139 -17 219 -106t80 -230q1 -183 -131 -283t-345 -100h-517z" />
    <glyph glyph-name="bdotaccent" unicode="&#x1e03;" horiz-adv-x="1166" 
d="M625 154q101 0 170 84t69 241v91q0 160 -67 246t-187 86t-190 -90t-70 -231v-111q0 -184 114 -270q60 -46 161 -46zM658 -16q-118 0 -198 49t-110 127h-7v-160h-195v1437h202v-531h6q89 164 295 164q207 0 313 -130t106 -353v-117q0 -230 -109 -358t-303 -128zM140 1678
q0 46 31 78t77 31q46 1 78 -31t32 -78t-32 -78q-32 -30 -78 -30t-77 30q-31 32 -31 78z" />
    <glyph glyph-name="Bdotbelow" unicode="&#x1e04;" horiz-adv-x="1234" 
d="M363 621v-452h225q264 0 328 110q26 44 25 109q0 114 -73 174t-200 59h-305zM562 784q308 0 308 206q0 105 -60 156t-161 51h-286v-413h199zM158 0v1365h531q175 1 281 -89t106 -247q0 -120 -60 -196t-164 -105v-9q139 -17 219 -106t80 -230q1 -183 -131 -283t-345 -100
h-517zM470 -270q0 48 32 81t82 33q48 0 81 -33t33 -81t-33 -81q-33 -32 -81 -32t-82 32q-32 33 -32 81z" />
    <glyph glyph-name="bdotbelow" unicode="&#x1e05;" horiz-adv-x="1166" 
d="M625 154q101 0 170 84t69 241v91q0 160 -67 246t-187 86t-190 -90t-70 -231v-111q0 -184 114 -270q60 -46 161 -46zM658 -16q-118 0 -198 49t-110 127h-7v-160h-195v1437h202v-531h6q89 164 295 164q207 0 313 -130t106 -353v-117q0 -230 -109 -358t-303 -128zM472 -270
q0 48 32 81t82 33q48 0 81 -33t33 -81t-33 -81q-33 -32 -81 -32t-82 32q-32 33 -32 81z" />
    <glyph glyph-name="Blinebelow" unicode="&#x1e06;" horiz-adv-x="1234" 
d="M859 -327h-558v118h558v-118zM363 621v-452h225q264 0 328 110q26 44 25 109q0 114 -73 174t-200 59h-305zM562 784q308 0 308 206q0 105 -60 156t-161 51h-286v-413h199zM158 0v1365h531q175 1 281 -89t106 -247q0 -120 -60 -196t-164 -105v-9q139 -17 219 -106t80 -230
q1 -183 -131 -283t-345 -100h-517z" />
    <glyph glyph-name="blinebelow" unicode="&#x1e07;" horiz-adv-x="1166" 
d="M625 154q101 0 170 84t69 241v91q0 160 -67 246t-187 86t-190 -90t-70 -231v-111q0 -184 114 -270q60 -46 161 -46zM658 -16q-118 0 -198 49t-110 127h-7v-160h-195v1437h202v-531h6q89 164 295 164q207 0 313 -130t106 -353v-117q0 -230 -109 -358t-303 -128zM861 -327
h-558v118h558v-118z" />
    <glyph glyph-name="Ccedillaacute" unicode="&#x1e08;" horiz-adv-x="1258" 
d="M606 -373q116 0 116 73q0 62 -98 64q-16 0 -45 1h-53v86l47 125q-222 24 -346 182t-124 434v174q1 300 147 464t400 163q121 0 221 -40q101 -40 163 -106q130 -138 130 -321v-10h-201q0 115 -81 206t-235 91q-153 0 -245 -114t-92 -335v-171q0 -222 92 -331t245 -109
q154 -1 235 79t81 197h201v-11q0 -156 -112 -286q-56 -64 -146 -106t-203 -51l-40 -107q95 0 151 -42t56 -128t-63 -132q-63 -47 -157 -51t-159 15v110q44 -13 115 -13zM530 1510l255 206h219l-296 -206h-178z" />
    <glyph glyph-name="ccedillaacute" unicode="&#x1e09;" horiz-adv-x="1040" 
d="M566 -115q199 0 199 -169q0 -86 -63 -133q-64 -47 -160 -51t-156 15v111q47 -14 115 -14q115 0 115 73q0 46 -36 56t-98 10h-54v85l52 118q-184 20 -284 152t-101 335v113q0 214 119 350q118 136 318 136t310 -100t113 -239h-193q-8 65 -65 118t-150 53q-123 0 -187 -90
t-63 -233v-109q1 -139 67 -227t173 -88t162 42t70 108h193q-4 -122 -99 -213t-252 -108zM573 1215h-163l190 279h208z" />
    <glyph glyph-name="Ddotaccent" unicode="&#x1e0a;" horiz-adv-x="1303" 
d="M364 1189v-1012h233q207 0 308 125t101 379q0 508 -409 508h-233zM158 1365h457q375 0 517 -269q86 -163 87 -412q0 -530 -370 -650q-103 -34 -234 -34h-457v1365zM492 1606q0 46 31 78t77 31q46 1 78 -31t32 -78t-32 -78q-32 -30 -78 -30t-77 30q-31 32 -31 78z" />
    <glyph glyph-name="ddotaccent" unicode="&#x1e0b;" horiz-adv-x="1168" 
d="M553 901q-124 0 -188 -91t-64 -245v-74q0 -157 65 -247q66 -90 190 -91q124 0 192 88t68 248v82q0 153 -70 241t-193 89zM505 1071q117 -1 197 -47t108 -118h6v531h202v-1437h-195v160h-7q-21 -72 -105 -124t-206 -51q-197 0 -303 130t-106 349v127q0 217 107 349
t302 131zM812 1678q0 46 31 78t77 31q46 1 78 -31t32 -78t-32 -78q-32 -30 -78 -30t-77 30q-31 32 -31 78z" />
    <glyph glyph-name="Ddotbelow" unicode="&#x1e0c;" horiz-adv-x="1303" 
d="M364 1189v-1012h233q207 0 308 125t101 379q0 508 -409 508h-233zM158 1365h457q375 0 517 -269q86 -163 87 -412q0 -530 -370 -650q-103 -34 -234 -34h-457v1365zM488 -270q0 48 32 81t82 33q48 0 81 -33t33 -81t-33 -81q-33 -32 -81 -32t-82 32q-32 33 -32 81z" />
    <glyph glyph-name="ddotbelow" unicode="&#x1e0d;" horiz-adv-x="1168" 
d="M553 901q-124 0 -188 -91t-64 -245v-74q0 -157 65 -247q66 -90 190 -91q124 0 192 88t68 248v82q0 153 -70 241t-193 89zM505 1071q117 -1 197 -47t108 -118h6v531h202v-1437h-195v160h-7q-21 -72 -105 -124t-206 -51q-197 0 -303 130t-106 349v127q0 217 107 349
t302 131zM472 -270q0 48 32 81t82 33q48 0 81 -33t33 -81t-33 -81q-33 -32 -81 -32t-82 32q-32 33 -32 81z" />
    <glyph glyph-name="Dlinebelow" unicode="&#x1e0e;" horiz-adv-x="1303" 
d="M364 1189v-1012h233q207 0 308 125t101 379q0 508 -409 508h-233zM158 1365h457q375 0 517 -269q86 -163 87 -412q0 -530 -370 -650q-103 -34 -234 -34h-457v1365zM877 -327h-558v118h558v-118z" />
    <glyph glyph-name="dlinebelow" unicode="&#x1e0f;" horiz-adv-x="1168" 
d="M553 901q-124 0 -188 -91t-64 -245v-74q0 -157 65 -247q66 -90 190 -91q124 0 192 88t68 248v82q0 153 -70 241t-193 89zM505 1071q117 -1 197 -47t108 -118h6v531h202v-1437h-195v160h-7q-21 -72 -105 -124t-206 -51q-197 0 -303 130t-106 349v127q0 217 107 349
t302 131zM861 -327h-558v118h558v-118z" />
    <glyph glyph-name="Dcommaaccent" unicode="&#x1e10;" horiz-adv-x="1303" 
d="M364 1189v-1012h233q207 0 308 125t101 379q0 508 -409 508h-233zM158 1365h457q375 0 517 -269q86 -163 87 -412q0 -530 -370 -650q-103 -34 -234 -34h-457v1365zM584 -489h-149l85 335h178z" />
    <glyph glyph-name="dcommaaccent" unicode="&#x1e11;" horiz-adv-x="1168" 
d="M553 901q-124 0 -188 -91t-64 -245v-74q0 -157 65 -247q66 -90 190 -91q124 0 192 88t68 248v82q0 153 -70 241t-193 89zM505 1071q117 -1 197 -47t108 -118h6v531h202v-1437h-195v160h-7q-21 -72 -105 -124t-206 -51q-197 0 -303 130t-106 349v127q0 217 107 349
t302 131zM568 -489h-149l85 335h178z" />
    <glyph glyph-name="Dcircumflexbelow" unicode="&#x1e12;" horiz-adv-x="1303" 
d="M320 -403l212 291h133l205 -292h-162l-108 181h-5l-116 -180h-159zM364 1189v-1012h233q207 0 308 125t101 379q0 508 -409 508h-233zM158 1365h457q375 0 517 -269q86 -163 87 -412q0 -530 -370 -650q-103 -34 -234 -34h-457v1365z" />
    <glyph glyph-name="dcircumflexbelow" unicode="&#x1e13;" horiz-adv-x="1168" 
d="M304 -403l212 291h133l205 -292h-162l-108 181h-5l-116 -180h-159zM553 901q-124 0 -188 -91t-64 -245v-74q0 -157 65 -247q66 -90 190 -91q124 0 192 88t68 248v82q0 153 -70 241t-193 89zM505 1071q117 -1 197 -47t108 -118h6v531h202v-1437h-195v160h-7
q-21 -72 -105 -124t-206 -51q-197 0 -303 130t-106 349v127q0 217 107 349t302 131z" />
    <glyph glyph-name="Emacrongrave" unicode="&#x1e14;" horiz-adv-x="1107" 
d="M850 1525h-558v110h558v-110zM996 177v-177h-838v1365h838v-177h-633v-408h597v-170h-597v-433h633zM687 1738h-175l-292 203h215z" />
    <glyph glyph-name="emacrongrave" unicode="&#x1e15;" horiz-adv-x="1075" 
d="M816 1214h-558v118h558v-118zM296 628h490v3q0 123 -66 201t-179 77q-113 0 -179 -78t-66 -200v-3zM95 477v93q1 228 117 365t330 137t328 -136t115 -364v-92h-689v-30q0 -128 66 -214t176 -87q112 1 166 43t67 105h201q-16 -115 -115 -215t-312 -100t-331 134t-119 361z
M645 1482h-164l-237 277h208z" />
    <glyph glyph-name="Emacronacute" unicode="&#x1e16;" horiz-adv-x="1107" 
d="M850 1525h-558v110h558v-110zM996 177v-177h-838v1365h838v-177h-633v-408h597v-170h-597v-433h633zM455 1738l255 206h219l-296 -206h-178z" />
    <glyph glyph-name="emacronacute" unicode="&#x1e17;" horiz-adv-x="1075" 
d="M816 1214h-558v118h558v-118zM296 628h490v3q0 123 -66 201t-179 77q-113 0 -179 -78t-66 -200v-3zM95 477v93q1 228 117 365t330 137t328 -136t115 -364v-92h-689v-30q0 -128 66 -214t176 -87q112 1 166 43t67 105h201q-16 -115 -115 -215t-312 -100t-331 134t-119 361z
M591 1481h-163l190 279h208z" />
    <glyph glyph-name="Ecircumflexbelow" unicode="&#x1e18;" horiz-adv-x="1107" 
d="M293 -403l212 291h133l205 -292h-162l-108 181h-5l-116 -180h-159zM996 177v-177h-838v1365h838v-177h-633v-408h597v-170h-597v-433h633z" />
    <glyph glyph-name="ecircumflexbelow" unicode="&#x1e19;" horiz-adv-x="1075" 
d="M259 -403l212 291h133l205 -292h-162l-108 181h-5l-116 -180h-159zM296 628h490v3q0 123 -66 201t-179 77q-113 0 -179 -78t-66 -200v-3zM95 477v93q1 228 117 365t330 137t328 -136t115 -364v-92h-689v-30q0 -128 66 -214t176 -87q112 1 166 43t67 105h201
q-16 -115 -115 -215t-312 -100t-331 134t-119 361z" />
    <glyph glyph-name="Etildebelow" unicode="&#x1e1a;" horiz-adv-x="1107" 
d="M996 177v-177h-838v1365h838v-177h-633v-408h597v-170h-597v-433h633zM676 -248q58 0 68 107h119q0 -83 -49 -149q-48 -66 -114 -66t-98 16t-48 33q-64 68 -95 68q-60 0 -65 -98h-120q0 89 45 151t129 62t162 -86q36 -38 66 -38z" />
    <glyph glyph-name="etildebelow" unicode="&#x1e1b;" horiz-adv-x="1075" 
d="M296 628h490v3q0 123 -66 201t-179 77q-113 0 -179 -78t-66 -200v-3zM95 477v93q1 228 117 365t330 137t328 -136t115 -364v-92h-689v-30q0 -128 66 -214t176 -87q112 1 166 43t67 105h201q-16 -115 -115 -215t-312 -100t-331 134t-119 361zM829 -141q0 -83 -49 -149
q-48 -66 -114 -66t-98 16t-48 33q-64 68 -95 68q-60 0 -65 -98h-120q0 89 45 151t129 62t162 -86q35 -39 66 -38q58 0 68 107h119z" />
    <glyph glyph-name="Ecedillabreve" unicode="&#x1e1c;" horiz-adv-x="1107" 
d="M249 1756h132q0 -60 52 -101t138 -41t138 41t52 101h132q0 -107 -78 -187t-244 -80q-235 1 -303 169q-18 46 -19 98zM538 -357q116 0 116 73q0 46 -39 56t-104 10h-53v85l50 133h-350v1365h838v-177h-633v-408h597v-170h-597v-433h633v-177h-357l-44 -115q95 0 151 -42
t56 -128t-63 -133q-63 -46 -155 -50t-160 14v111q47 -14 114 -14z" />
    <glyph glyph-name="ecedillabreve" unicode="&#x1e1d;" horiz-adv-x="1075" 
d="M517 -373q115 0 115 73q0 62 -98 64q-16 0 -45 1h-53v86l51 135q-191 20 -291 150t-101 341v93q1 228 117 365t330 137t328 -136t115 -364v-92h-689v-30q0 -128 66 -214t176 -87q112 1 166 43t67 105h201q-14 -103 -98 -198t-256 -113l-44 -118q94 0 150 -42t56 -128
t-63 -132q-63 -47 -157 -51t-158 15v110q44 -13 115 -13zM296 628h490v3q0 123 -66 201t-179 77q-113 0 -179 -78t-66 -200v-3zM236 1446h132q0 -68 42 -116t124 -48t124 48t42 116h131q0 -107 -75 -196q-75 -88 -222 -88q-213 0 -280 183q-18 49 -18 101z" />
    <glyph glyph-name="Fdotaccent" unicode="&#x1e1e;" horiz-adv-x="1042" 
d="M364 0h-206v1365h827v-178h-621v-437h569v-176h-569v-574zM461 1606q0 46 31 78t77 31q46 1 78 -31t32 -78t-32 -78q-32 -30 -78 -30t-77 30q-31 32 -31 78z" />
    <glyph glyph-name="fdotaccent" unicode="&#x1e1f;" horiz-adv-x="701" 
d="M214 0v887h-151v163h151v105q0 153 80 225t250 71q33 0 90 -6v-156q-45 3 -58 3q-85 0 -124 -34t-39 -119v-89h205v-163h-202v-887h-202zM272 1692q0 46 31 78t77 31q46 1 78 -31t32 -78t-32 -78q-32 -30 -78 -30t-77 30q-31 32 -31 78z" />
    <glyph glyph-name="Gmacron" unicode="&#x1e20;" horiz-adv-x="1283" 
d="M936 1525h-558v110h558v-110zM644 1213q-140 -1 -238 -109t-97 -327v-182q0 -207 88 -325t245 -118t248 80t91 202v116h-329v170h528v-279q0 -133 -72 -247q-138 -221 -452 -222q-272 0 -412 167t-141 456v183q0 287 151 451t408 164q118 0 216 -37q98 -36 160 -100
q128 -130 139 -314h-203q-16 133 -104 202q-86 69 -226 69z" />
    <glyph glyph-name="gmacron" unicode="&#x1e21;" horiz-adv-x="1134" 
d="M550 902q-118 0 -190 -87t-72 -235v-94q0 -146 74 -228t191 -83q118 0 184 86t66 215v105q1 139 -67 230t-186 91zM552 -230q118 0 185 66t67 187v153h-7q-32 -71 -113 -118t-188 -47q-180 0 -296 125t-116 336v132q0 210 116 338t299 128q121 0 195 -46t109 -118h6v148
h196v-1033q1 -310 -285 -391q-84 -24 -189 -24q-203 0 -310 90t-114 222h203q9 -64 67 -106q57 -42 175 -42zM845 1214h-558v118h558v-118z" />
    <glyph glyph-name="Hdotaccent" unicode="&#x1e22;" horiz-adv-x="1377" 
d="M582 1606q0 46 31 78t77 31q46 1 78 -31t32 -78t-32 -78q-32 -30 -78 -30t-77 30q-31 32 -31 78zM1220 0h-206v615h-650v-615h-206v1365h206v-572h650v572h206v-1365z" />
    <glyph glyph-name="hdotaccent" unicode="&#x1e23;" horiz-adv-x="1177" 
d="M141 1678q0 46 31 78t77 31q46 1 78 -31t32 -78t-32 -78q-32 -30 -78 -30t-77 30q-31 32 -31 78zM149 0v1437h202v-526h8q27 63 101 111t192 49q174 0 280 -113t105 -297v-661h-202v617q0 128 -62 202q-63 74 -177 74t-180 -72t-65 -204v-617h-202z" />
    <glyph glyph-name="Hdotbelow" unicode="&#x1e24;" horiz-adv-x="1377" 
d="M578 -270q0 48 32 81t82 33q48 0 81 -33t33 -81t-33 -81q-33 -32 -81 -32t-82 32q-32 33 -32 81zM1220 0h-206v615h-650v-615h-206v1365h206v-572h650v572h206v-1365z" />
    <glyph glyph-name="hdotbelow" unicode="&#x1e25;" horiz-adv-x="1177" 
d="M472 -270q0 48 32 81t82 33q48 0 81 -33t33 -81t-33 -81q-33 -32 -81 -32t-82 32q-32 33 -32 81zM149 0v1437h202v-526h8q27 63 101 111t192 49q174 0 280 -113t105 -297v-661h-202v617q0 128 -62 202q-63 74 -177 74t-180 -72t-65 -204v-617h-202z" />
    <glyph glyph-name="Hdieresis" unicode="&#x1e26;" horiz-adv-x="1377" 
d="M776 1584q0 40 25 64q25 26 65 26t64 -26q25 -26 25 -64q0 -40 -25 -66q-24 -26 -64 -25q-40 -1 -65 25t-25 66zM467 1584q-1 38 25 64t66 26t64 -26q25 -26 25 -64q1 -40 -25 -66t-65 -25q-39 0 -65 26t-25 65zM1220 0h-206v615h-650v-615h-206v1365h206v-572h650v572
h206v-1365z" />
    <glyph glyph-name="hdieresis" unicode="&#x1e27;" horiz-adv-x="1177" 
d="M328 1647q0 45 28 73t73 29q45 -1 73 -29t29 -73q0 -45 -29 -73t-73 -29q-45 1 -73 29t-28 73zM-35 1646q1 44 29 74q28 29 72 29q44 -1 74 -29q28 -28 28 -73t-28 -73t-74 -29q-44 1 -72 29t-29 72zM149 0v1437h202v-526h8q27 63 101 111t192 49q174 0 280 -113
t105 -297v-661h-202v617q0 128 -62 202q-63 74 -177 74t-180 -72t-65 -204v-617h-202z" />
    <glyph glyph-name="Hcedilla" unicode="&#x1e28;" horiz-adv-x="1377" 
d="M265 -357q115 0 115 73q0 46 -39 56t-104 10h-53v85l50 133h-76v1365h206v-572h650v572h206v-1365h-206v615h-650v-615l-42 -115q95 0 151 -42t56 -128t-63 -133q-64 -46 -156 -50t-160 14v111q47 -14 115 -14z" />
    <glyph glyph-name="hcedilla" unicode="&#x1e29;" horiz-adv-x="1177" 
d="M245 -373q115 0 115 73q0 62 -98 64q-16 0 -45 1h-53v86l56 149h-71v1437h202v-526h8q27 63 101 111t192 49q174 0 280 -113t105 -297v-661h-202v617q0 128 -62 202q-63 74 -177 74t-180 -72t-65 -204v-617l-49 -132q95 0 151 -42t56 -128t-63 -132q-64 -47 -158 -51
t-158 15v110q44 -13 115 -13z" />
    <glyph glyph-name="Hbrevebelow" unicode="&#x1e2a;" horiz-adv-x="1377" 
d="M1220 0h-206v615h-650v-615h-206v1365h206v-572h650v572h206v-1365zM375 -137h139q0 -68 45 -116t129 -48t129 48t45 116h131q0 -108 -73 -196t-232 -88q-224 0 -294 181q-19 49 -19 103z" />
    <glyph glyph-name="hbrevebelow" unicode="&#x1e2b;" horiz-adv-x="1177" 
d="M149 0v1437h202v-526h8q27 63 101 111t192 49q174 0 280 -113t105 -297v-661h-202v617q0 128 -62 202q-63 74 -177 74t-180 -72t-65 -204v-617h-202zM269 -137h139q0 -68 45 -116t129 -48t129 48t45 116h131q0 -108 -73 -196t-232 -88q-224 0 -294 181q-19 49 -19 103z
" />
    <glyph glyph-name="Itildebelow" unicode="&#x1e2c;" horiz-adv-x="521" 
d="M365 -248q58 0 68 107h119q0 -83 -49 -149t-115 -66t-97 16q-32 16 -48 33q-64 68 -95 68q-60 0 -65 -98h-120q0 89 45 151t129 62q85 0 163 -86q36 -38 65 -38zM364 0h-206v1365h206v-1365z" />
    <glyph glyph-name="itildebelow" unicode="&#x1e2d;" horiz-adv-x="541" 
d="M562 -141q0 -83 -49 -149t-115 -66t-97 16q-32 16 -48 33q-64 68 -95 68q-60 0 -65 -98h-120q0 89 45 151t129 62q85 0 163 -86q35 -38 65 -38q58 0 68 107h119zM145 1312q-1 50 35 83t90 33t90 -32t36 -84q0 -51 -36 -84t-90 -33q-54 -1 -90 33t-35 84zM170 0v1054h201
v-1054h-201z" />
    <glyph glyph-name="Idieresisacute" unicode="&#x1e2e;" horiz-adv-x="521" 
d="M348 1584q0 40 25 64q25 26 65 26t64 -26q25 -26 25 -64q0 -40 -25 -66q-24 -26 -64 -25q-40 -1 -65 25t-25 66zM39 1584q-1 38 25 64t66 26t64 -26q25 -26 25 -64q1 -40 -25 -66t-65 -25q-39 0 -65 26t-25 65zM144 1738l255 206h219l-296 -206h-178zM364 0h-206v1365
h206v-1365z" />
    <glyph glyph-name="idieresisacute" unicode="&#x1e2f;" horiz-adv-x="540" 
d="M352 1264q0 46 28 74t73 28t73 -28t29 -74q0 -46 -29 -74t-73 -28q-45 0 -73 28t-28 74zM-11 1264q1 44 29 73t72 29t74 -28q28 -28 28 -74t-28 -74t-74 -28q-44 0 -72 29t-29 73zM170 0v1054h205v-1054h-205zM325 1481h-163l190 279h208z" />
    <glyph glyph-name="Kacute" unicode="&#x1e30;" horiz-adv-x="1209" 
d="M364 0h-206v1365h206v-644h9l568 644h236l-502 -583l527 -782h-256l-423 641l-159 -175v-466zM468 1510l255 206h219l-296 -206h-178z" />
    <glyph glyph-name="kacute" unicode="&#x1e31;" horiz-adv-x="1041" 
d="M300 1598h-163l190 279h208zM350 0h-202v1437h202v-848h9l406 465h231l-405 -457l432 -597h-239l-343 476l-91 -94v-382z" />
    <glyph glyph-name="Kdotbelow" unicode="&#x1e32;" horiz-adv-x="1209" 
d="M364 0h-206v1365h206v-644h9l568 644h236l-502 -583l527 -782h-256l-423 641l-159 -175v-466zM494 -270q0 48 32 81t82 33q48 0 81 -33t33 -81t-33 -81q-33 -32 -81 -32t-82 32q-32 33 -32 81z" />
    <glyph glyph-name="kdotbelow" unicode="&#x1e33;" horiz-adv-x="1041" 
d="M350 0h-202v1437h202v-848h9l406 465h231l-405 -457l432 -597h-239l-343 476l-91 -94v-382zM432 -270q0 48 32 81t82 33q48 0 81 -33t33 -81t-33 -81q-33 -32 -81 -32t-82 32q-32 33 -32 81z" />
    <glyph glyph-name="Klinebelow" unicode="&#x1e34;" horiz-adv-x="1209" 
d="M883 -327h-558v118h558v-118zM364 0h-206v1365h206v-644h9l568 644h236l-502 -583l527 -782h-256l-423 641l-159 -175v-466z" />
    <glyph glyph-name="klinebelow" unicode="&#x1e35;" horiz-adv-x="1041" 
d="M821 -327h-558v118h558v-118zM350 0h-202v1437h202v-848h9l406 465h231l-405 -457l432 -597h-239l-343 476l-91 -94v-382z" />
    <glyph glyph-name="Ldotbelow" unicode="&#x1e36;" horiz-adv-x="999" 
d="M976 181v-181h-818v1365h206v-1184h612zM397 -270q1 48 33 81t80 33t82 -33q33 -33 33 -81t-33 -81q-34 -32 -82 -32t-80 32q-32 33 -33 81z" />
    <glyph glyph-name="ldotbelow" unicode="&#x1e37;" horiz-adv-x="507" 
d="M153 0v1437h201v-1437h-201zM143 -270q1 48 33 81t80 33t82 -33q33 -33 33 -81t-33 -81q-34 -32 -82 -32t-80 32q-32 33 -33 81z" />
    <glyph glyph-name="Ldotbelowmacron" unicode="&#x1e38;" horiz-adv-x="999" 
d="M538 1525h-558v110h558v-110zM976 181v-181h-818v1365h206v-1184h612zM397 -270q1 48 33 81t80 33t82 -33q33 -33 33 -81t-33 -81q-34 -32 -82 -32t-80 32q-32 33 -33 81z" />
    <glyph glyph-name="ldotbelowmacron" unicode="&#x1e39;" horiz-adv-x="507" 
d="M532 1597h-558v118h558v-118zM153 0v1437h201v-1437h-201zM143 -270q1 48 33 81t80 33t82 -33q33 -33 33 -81t-33 -81q-34 -32 -82 -32t-80 32q-32 33 -33 81z" />
    <glyph glyph-name="Llinebelow" unicode="&#x1e3a;" horiz-adv-x="999" 
d="M976 181v-181h-818v1365h206v-1184h612zM786 -327h-558v118h558v-118z" />
    <glyph glyph-name="llinebelow" unicode="&#x1e3b;" horiz-adv-x="507" 
d="M153 0v1437h201v-1437h-201zM532 -327h-558v118h558v-118z" />
    <glyph glyph-name="Lcircumflexbelow" unicode="&#x1e3c;" horiz-adv-x="999" 
d="M229 -403l212 291h133l205 -292h-162l-108 181h-5l-116 -180h-159zM976 181v-181h-818v1365h206v-1184h612z" />
    <glyph glyph-name="lcircumflexbelow" unicode="&#x1e3d;" horiz-adv-x="507" 
d="M-25 -403l212 291h133l205 -292h-162l-108 181h-5l-116 -180h-159zM153 0v1437h201v-1437h-201z" />
    <glyph glyph-name="Macute" unicode="&#x1e3e;" horiz-adv-x="1600" 
d="M347 0h-185v1365h204l432 -998h5l431 998h204v-1365h-186v963h-8l-366 -830h-157l-367 830h-7v-963zM683 1510l255 206h219l-296 -206h-178z" />
    <glyph glyph-name="macute" unicode="&#x1e3f;" horiz-adv-x="1749" 
d="M625 1071q238 0 301 -173h9q31 73 115 123t207 50q165 0 258 -95t93 -258v-718h-201v671q1 103 -55 163t-158 61q-102 0 -160 -65t-58 -173v-657h-198v657q0 116 -57 177t-155 61t-158 -62q-61 -62 -61 -174v-659h-201v1054h199v-136h10q29 62 99 108t171 45zM928 1215
h-163l190 279h208z" />
    <glyph glyph-name="Mdotaccent" unicode="&#x1e40;" horiz-adv-x="1600" 
d="M347 0h-185v1365h204l432 -998h5l431 998h204v-1365h-186v963h-8l-366 -830h-157l-367 830h-7v-963zM693 1606q0 46 31 78t77 31q46 1 78 -31t32 -78t-32 -78q-32 -30 -78 -30t-77 30q-31 32 -31 78z" />
    <glyph glyph-name="mdotaccent" unicode="&#x1e41;" horiz-adv-x="1749" 
d="M625 1071q238 0 301 -173h9q31 73 115 123t207 50q165 0 258 -95t93 -258v-718h-201v671q1 103 -55 163t-158 61q-102 0 -160 -65t-58 -173v-657h-198v657q0 116 -57 177t-155 61t-158 -62q-61 -62 -61 -174v-659h-201v1054h199v-136h10q29 62 99 108t171 45zM768 1294
q0 46 31 78t77 32t78 -32t32 -78t-32 -76t-78 -31q-46 1 -77 31t-31 76z" />
    <glyph glyph-name="Mdotbelow" unicode="&#x1e42;" horiz-adv-x="1600" 
d="M347 0h-185v1365h204l432 -998h5l431 998h204v-1365h-186v963h-8l-366 -830h-157l-367 830h-7v-963zM689 -270q1 48 33 81t80 33t82 -33q33 -33 33 -81t-33 -81q-34 -32 -82 -32t-80 32q-32 33 -33 81z" />
    <glyph glyph-name="mdotbelow" unicode="&#x1e43;" horiz-adv-x="1749" 
d="M625 1071q238 0 301 -173h9q31 73 115 123t207 50q165 0 258 -95t93 -258v-718h-201v671q1 103 -55 163t-158 61q-102 0 -160 -65t-58 -173v-657h-198v657q0 116 -57 177t-155 61t-158 -62q-61 -62 -61 -174v-659h-201v1054h199v-136h10q29 62 99 108t171 45zM764 -270
q0 48 32 81t82 33q48 0 81 -33t33 -81t-33 -81q-33 -32 -81 -32t-82 32q-32 33 -32 81z" />
    <glyph glyph-name="Ndotaccent" unicode="&#x1e44;" horiz-adv-x="1368" 
d="M357 0h-199v1365h187l659 -1014h6v1014h200v-1365h-187l-660 1016h-6v-1016zM577 1606q0 46 31 78t77 31q46 1 78 -31t32 -78t-32 -78q-32 -30 -78 -30t-77 30q-31 32 -31 78z" />
    <glyph glyph-name="ndotaccent" unicode="&#x1e45;" horiz-adv-x="1171" 
d="M146 0v1054h199v-143h7q31 67 111 113t192 47q163 0 269 -98t106 -274v-699h-203v630q0 263 -237 263q-116 1 -180 -69t-63 -201v-623h-201zM479 1294q0 46 31 78t77 32t78 -32t32 -78t-32 -76t-78 -31q-46 1 -77 31t-31 76z" />
    <glyph glyph-name="Ndotbelow" unicode="&#x1e46;" horiz-adv-x="1368" 
d="M357 0h-199v1365h187l659 -1014h6v1014h200v-1365h-187l-660 1016h-6v-1016zM573 -270q1 48 33 81t80 33t82 -33q33 -33 33 -81t-33 -81q-34 -32 -82 -32t-80 32q-32 33 -33 81z" />
    <glyph glyph-name="ndotbelow" unicode="&#x1e47;" horiz-adv-x="1171" 
d="M146 0v1054h199v-143h7q31 67 111 113t192 47q163 0 269 -98t106 -274v-699h-203v630q0 263 -237 263q-116 1 -180 -69t-63 -201v-623h-201zM475 -270q1 48 33 81t80 33t82 -33q33 -33 33 -81t-33 -81q-34 -32 -82 -32t-80 32q-32 33 -33 81z" />
    <glyph glyph-name="Nlinebelow" unicode="&#x1e48;" horiz-adv-x="1368" 
d="M357 0h-199v1365h187l659 -1014h6v1014h200v-1365h-187l-660 1016h-6v-1016zM962 -327h-558v118h558v-118z" />
    <glyph glyph-name="nlinebelow" unicode="&#x1e49;" horiz-adv-x="1171" 
d="M146 0v1054h199v-143h7q31 67 111 113t192 47q163 0 269 -98t106 -274v-699h-203v630q0 263 -237 263q-116 1 -180 -69t-63 -201v-623h-201zM864 -327h-558v118h558v-118z" />
    <glyph glyph-name="Ncircumflexbelow" unicode="&#x1e4a;" horiz-adv-x="1368" 
d="M405 -403l212 291h133l205 -292h-162l-108 181h-5l-116 -180h-159zM357 0h-199v1365h187l659 -1014h6v1014h200v-1365h-187l-660 1016h-6v-1016z" />
    <glyph glyph-name="ncircumflexbelow" unicode="&#x1e4b;" horiz-adv-x="1171" 
d="M307 -403l212 291h133l205 -292h-162l-108 181h-5l-116 -180h-159zM146 0v1054h199v-143h7q31 67 111 113t192 47q163 0 269 -98t106 -274v-699h-203v630q0 263 -237 263q-116 1 -180 -69t-63 -201v-623h-201z" />
    <glyph glyph-name="Otildeacute" unicode="&#x1e4c;" horiz-adv-x="1324" 
d="M559 1587q-60 0 -64 -91h-116q-1 82 43 140t124 59q80 0 163 -83q32 -32 61 -32q30 0 46 30t19 69h116q1 -78 -47 -139t-112 -61q-64 1 -94 15q-31 14 -55 38l-25 26q-14 14 -20 16q-6 3 -15 8t-24 5zM103 580v192q0 289 151 455t409 166q258 1 408 -165t150 -456v-192
q0 -288 -151 -448t-410 -160t-408 160t-149 448zM310 774v-194q0 -212 97 -320t255 -108t254 108q97 108 97 320v194q1 212 -97 326t-254 114t-254 -114t-98 -326zM545 1738l255 206h219l-296 -206h-178z" />
    <glyph glyph-name="otildeacute" unicode="&#x1e4d;" horiz-adv-x="1115" 
d="M558 150q258 0 258 349v57q0 266 -155 331q-45 19 -103 19t-104 -19q-158 -66 -157 -331v-57q-1 -267 157 -331q46 -18 104 -18zM558 1072q226 0 344 -136t118 -367v-81q0 -234 -117 -370t-345 -136t-346 136q-117 136 -117 370v80q1 224 119 364t344 140zM250 1176
q0 98 46 165t133 67t169 -90q35 -38 67 -38q33 0 49 34t19 76h124q1 -92 -51 -162t-137 -70t-139 60q-55 59 -88 59q-61 0 -68 -101h-124zM611 1481h-163l190 279h208z" />
    <glyph glyph-name="Otildedieresis" unicode="&#x1e4e;" horiz-adv-x="1324" 
d="M559 1587q-60 0 -64 -91h-116q-1 82 43 140t124 59q80 0 163 -83q32 -32 61 -32q30 0 46 30t19 69h116q1 -78 -47 -139t-112 -61q-64 1 -94 15q-31 14 -55 38l-25 26q-14 14 -20 16q-6 3 -15 8t-24 5zM103 580v192q0 289 151 455t409 166q258 1 408 -165t150 -456v-192
q0 -288 -151 -448t-410 -160t-408 160t-149 448zM310 774v-194q0 -212 97 -320t255 -108t254 108q97 108 97 320v194q1 212 -97 326t-254 114t-254 -114t-98 -326zM727 1844q0 40 25 66q24 26 64 25q40 1 65 -25t25 -66t-25 -64q-25 -26 -65 -26t-64 26q-25 24 -25 64z
M418 1845q0 39 26 65t64 25q40 1 65 -25t25 -66t-26 -64q-26 -26 -64 -26t-64 26t-26 65z" />
    <glyph glyph-name="otildedieresis" unicode="&#x1e4f;" horiz-adv-x="1115" 
d="M558 150q258 0 258 349v57q0 266 -155 331q-45 19 -103 19t-104 -19q-158 -66 -157 -331v-57q-1 -267 157 -331q46 -18 104 -18zM558 1072q226 0 344 -136t118 -367v-81q0 -234 -117 -370t-345 -136t-346 136q-117 136 -117 370v80q1 224 119 364t344 140zM638 1548
q0 46 28 74t73 28t73 -28t29 -74q0 -46 -29 -74t-73 -28q-45 0 -73 28t-28 74zM275 1548q1 44 29 73t72 29t74 -28q28 -28 28 -74t-28 -74t-74 -28q-44 0 -72 29t-29 73zM250 1176q0 98 46 165t133 67t169 -90q35 -38 67 -38q33 0 49 34t19 76h124q1 -92 -51 -162t-137 -70
t-139 60q-55 59 -88 59q-61 0 -68 -101h-124z" />
    <glyph glyph-name="Omacrongrave" unicode="&#x1e50;" horiz-adv-x="1324" 
d="M940 1525h-558v110h558v-110zM103 580v192q0 289 151 455t409 166q258 1 408 -165t150 -456v-192q0 -288 -151 -448t-410 -160t-408 160t-149 448zM310 774v-194q0 -212 97 -320t255 -108t254 108q97 108 97 320v194q1 212 -97 326t-254 114t-254 -114t-98 -326z
M777 1738h-175l-292 203h215z" />
    <glyph glyph-name="omacrongrave" unicode="&#x1e51;" horiz-adv-x="1115" 
d="M558 150q258 0 258 349v57q0 266 -155 331q-45 19 -103 19t-104 -19q-158 -66 -157 -331v-57q-1 -267 157 -331q46 -18 104 -18zM558 1072q226 0 344 -136t118 -367v-81q0 -234 -117 -370t-345 -136t-346 136q-117 136 -117 370v80q1 224 119 364t344 140zM836 1214h-558
v118h558v-118zM665 1482h-164l-237 277h208z" />
    <glyph glyph-name="Omacronacute" unicode="&#x1e52;" horiz-adv-x="1324" 
d="M940 1525h-558v110h558v-110zM103 580v192q0 289 151 455t409 166q258 1 408 -165t150 -456v-192q0 -288 -151 -448t-410 -160t-408 160t-149 448zM310 774v-194q0 -212 97 -320t255 -108t254 108q97 108 97 320v194q1 212 -97 326t-254 114t-254 -114t-98 -326z
M545 1738l255 206h219l-296 -206h-178z" />
    <glyph glyph-name="omacronacute" unicode="&#x1e53;" horiz-adv-x="1115" 
d="M558 150q258 0 258 349v57q0 266 -155 331q-45 19 -103 19t-104 -19q-158 -66 -157 -331v-57q-1 -267 157 -331q46 -18 104 -18zM558 1072q226 0 344 -136t118 -367v-81q0 -234 -117 -370t-345 -136t-346 136q-117 136 -117 370v80q1 224 119 364t344 140zM836 1214h-558
v118h558v-118zM611 1481h-163l190 279h208z" />
    <glyph glyph-name="Pacute" unicode="&#x1e54;" horiz-adv-x="1165" 
d="M363 1191v-522h192q266 -1 325 131q23 52 23 130q0 124 -68 192t-190 69h-282zM158 1365h513q201 0 322 -121q121 -120 121 -314t-121 -313t-323 -119h-307v-498h-205v1365zM441 1510l255 206h219l-296 -206h-178z" />
    <glyph glyph-name="pacute" unicode="&#x1e55;" horiz-adv-x="1164" 
d="M635 1215h-163l190 279h208zM607 154q119 0 187 84t68 242v95q0 157 -68 242t-187 85q-120 0 -189 -86t-69 -226v-119q0 -137 70 -227t188 -90zM660 -16q-116 0 -192 44t-112 116h-7v-506h-202v1417h195v-149h7q33 76 115 120t202 44q180 0 290 -126t110 -349v-137
q0 -222 -110 -348t-296 -126z" />
    <glyph glyph-name="Pdotaccent" unicode="&#x1e56;" horiz-adv-x="1165" 
d="M451 1606q0 46 31 78t77 31q46 1 78 -31t32 -78t-32 -78q-32 -30 -78 -30t-77 30q-31 32 -31 78zM363 1191v-522h192q266 -1 325 131q23 52 23 130q0 124 -68 192t-190 69h-282zM158 1365h513q201 0 322 -121q121 -120 121 -314t-121 -313t-323 -119h-307v-498h-205v1365
z" />
    <glyph glyph-name="pdotaccent" unicode="&#x1e57;" horiz-adv-x="1164" 
d="M475 1294q0 46 31 78t77 32t78 -32t32 -78t-32 -76t-78 -31q-46 1 -77 31t-31 76zM607 154q119 0 187 84t68 242v95q0 157 -68 242t-187 85q-120 0 -189 -86t-69 -226v-119q0 -137 70 -227t188 -90zM660 -16q-116 0 -192 44t-112 116h-7v-506h-202v1417h195v-149h7
q33 76 115 120t202 44q180 0 290 -126t110 -349v-137q0 -222 -110 -348t-296 -126z" />
    <glyph glyph-name="Rdotaccent" unicode="&#x1e58;" horiz-adv-x="1228" 
d="M475 1606q0 46 31 78t77 31q46 1 78 -31t32 -78t-32 -78q-32 -30 -78 -30t-77 30q-31 32 -31 78zM362 701h272q133 0 203 62t70 181t-72 184t-195 65h-278v-492zM668 1365q228 0 340 -121t112 -294q0 -218 -164 -334q-42 -30 -88 -47l277 -569h-233l-248 532h-302v-532
h-204v1365h510z" />
    <glyph glyph-name="rdotaccent" unicode="&#x1e59;" horiz-adv-x="724" 
d="M314 1294q0 46 31 78t77 32t78 -32t32 -78t-32 -76t-78 -31q-46 1 -77 31t-31 76zM369 924q65 146 243 146q50 0 83 -5v-181q-27 6 -90 6q-240 0 -240 -250v-640h-204v1054h201v-130h7z" />
    <glyph glyph-name="Rdotbelow" unicode="&#x1e5a;" horiz-adv-x="1228" 
d="M362 701h272q133 0 203 62t70 181t-72 184t-195 65h-278v-492zM668 1365q228 0 340 -121t112 -294q0 -218 -164 -334q-42 -30 -88 -47l277 -569h-233l-248 532h-302v-532h-204v1365h510zM471 -270q1 48 33 81t80 33t82 -33q33 -33 33 -81t-33 -81q-34 -32 -82 -32t-80 32
q-32 33 -33 81z" />
    <glyph glyph-name="rdotbelow" unicode="&#x1e5b;" horiz-adv-x="724" 
d="M369 924q65 146 243 146q50 0 83 -5v-181q-27 6 -90 6q-240 0 -240 -250v-640h-204v1054h201v-130h7zM155 -270q1 48 33 81t80 33t82 -33q33 -33 33 -81t-33 -81q-34 -32 -82 -32t-80 32q-32 33 -33 81z" />
    <glyph glyph-name="Rdotbelowmacron" unicode="&#x1e5c;" horiz-adv-x="1228" 
d="M860 1525h-558v110h558v-110zM362 701h272q133 0 203 62t70 181t-72 184t-195 65h-278v-492zM668 1365q228 0 340 -121t112 -294q0 -218 -164 -334q-42 -30 -88 -47l277 -569h-233l-248 532h-302v-532h-204v1365h510zM471 -270q1 48 33 81t80 33t82 -33q33 -33 33 -81
t-33 -81q-34 -32 -82 -32t-80 32q-32 33 -33 81z" />
    <glyph glyph-name="rdotbelowmacron" unicode="&#x1e5d;" horiz-adv-x="724" 
d="M699 1214h-558v118h558v-118zM369 924q65 146 243 146q50 0 83 -5v-181q-27 6 -90 6q-240 0 -240 -250v-640h-204v1054h201v-130h7zM155 -270q1 48 33 81t80 33t82 -33q33 -33 33 -81t-33 -81q-34 -32 -82 -32t-80 32q-32 33 -33 81z" />
    <glyph glyph-name="Rlinebelow" unicode="&#x1e5e;" horiz-adv-x="1228" 
d="M860 -327h-558v118h558v-118zM362 701h272q133 0 203 62t70 181t-72 184t-195 65h-278v-492zM668 1365q228 0 340 -121t112 -294q0 -218 -164 -334q-42 -30 -88 -47l277 -569h-233l-248 532h-302v-532h-204v1365h510z" />
    <glyph glyph-name="rlinebelow" unicode="&#x1e5f;" horiz-adv-x="724" 
d="M544 -327h-558v118h558v-118zM369 924q65 146 243 146q50 0 83 -5v-181q-27 6 -90 6q-240 0 -240 -250v-640h-204v1054h201v-130h7z" />
    <glyph glyph-name="Sdotaccent" unicode="&#x1e60;" horiz-adv-x="1172" 
d="M477 1606q0 46 31 78t77 31q46 1 78 -31t32 -78t-32 -78q-32 -30 -78 -30t-77 30q-31 32 -31 78zM578 147q140 0 219 60q79 59 79 151t-52 140t-167 76l-230 58q-137 34 -232 120q-96 86 -96 227q1 143 69 235q135 182 414 182t414 -178q69 -91 71 -216h-199
q-8 97 -82 159t-202 62q-128 -1 -202 -57q-76 -56 -76 -155q0 -144 191 -190l228 -58q209 -51 293 -161q66 -86 66 -215q0 -195 -144 -305t-376 -110q-301 0 -431 182q-69 97 -73 221h203q10 -99 93 -163q82 -64 222 -65z" />
    <glyph glyph-name="sdotaccent" unicode="&#x1e61;" horiz-adv-x="998" 
d="M392 1294q0 46 31 78t77 32t78 -32t32 -78t-32 -76t-78 -31q-46 1 -77 31t-31 76zM98 761q0 71 32 134t90 101q114 76 287 76t275 -88t101 -230h-184q-5 68 -54 118t-145 49t-152 -41q-55 -40 -55 -103t39 -96q39 -34 92 -45q78 -16 116 -22q219 -32 304 -118
q67 -68 67 -181q1 -157 -115 -245t-306 -88t-300 82t-111 224h196q10 -70 66 -112q55 -42 159 -41q104 -1 159 43t55 119t-90 113q-45 18 -143 38t-143 32q-44 12 -94 35t-79 53t-48 76t-19 117z" />
    <glyph glyph-name="Sdotbelow" unicode="&#x1e62;" horiz-adv-x="1172" 
d="M578 147q140 0 219 60q79 59 79 151t-52 140t-167 76l-230 58q-137 34 -232 120q-96 86 -96 227q1 143 69 235q135 182 414 182t414 -178q69 -91 71 -216h-199q-8 97 -82 159t-202 62q-128 -1 -202 -57q-76 -56 -76 -155q0 -144 191 -190l228 -58q209 -51 293 -161
q66 -86 66 -215q0 -195 -144 -305t-376 -110q-301 0 -431 182q-69 97 -73 221h203q10 -99 93 -163q82 -64 222 -65zM454 -270q0 48 32 81t82 33q48 0 81 -33t33 -81t-33 -81q-33 -32 -81 -32t-82 32q-32 33 -32 81z" />
    <glyph glyph-name="sdotbelow" unicode="&#x1e63;" horiz-adv-x="998" 
d="M98 761q0 71 32 134t90 101q114 76 287 76t275 -88t101 -230h-184q-5 68 -54 118t-145 49t-152 -41q-55 -40 -55 -103t39 -96q39 -34 92 -45q78 -16 116 -22q219 -32 304 -118q67 -68 67 -181q1 -157 -115 -245t-306 -88t-300 82t-111 224h196q10 -70 66 -112
q55 -42 159 -41q104 -1 159 43t55 119t-90 113q-45 18 -143 38t-143 32q-44 12 -94 35t-79 53t-48 76t-19 117zM388 -270q0 48 32 81t82 33q48 0 81 -33t33 -81t-33 -81q-33 -32 -81 -32t-82 32q-32 33 -32 81z" />
    <glyph glyph-name="Sacutedotaccent" unicode="&#x1e64;" horiz-adv-x="1172" 
d="M578 147q140 0 219 60q79 59 79 151t-52 140t-167 76l-230 58q-137 34 -232 120q-96 86 -96 227q1 143 69 235q135 182 414 182t414 -178q69 -91 71 -216h-199q-8 97 -82 159t-202 62q-128 -1 -202 -57q-76 -56 -76 -155q0 -144 191 -190l228 -58q209 -51 293 -161
q66 -86 66 -215q0 -195 -144 -305t-376 -110q-301 0 -431 182q-69 97 -73 221h203q10 -99 93 -163q82 -64 222 -65zM561 1553l255 206h219l-296 -206h-178zM266 1678q0 42 28 70q28 29 70 29q42 -1 70 -29t28 -70t-28 -70t-70 -27q-42 -1 -70 27t-28 70z" />
    <glyph glyph-name="sacutedotaccent" unicode="&#x1e65;" horiz-adv-x="998" 
d="M629 1215h-163l190 279h208zM98 761q0 71 32 134t90 101q114 76 287 76t275 -88t101 -230h-184q-5 68 -54 118t-145 49t-152 -41q-55 -40 -55 -103t39 -96q39 -34 92 -45q78 -16 116 -22q219 -32 304 -118q67 -68 67 -181q1 -157 -115 -245t-306 -88t-300 82t-111 224
h196q10 -70 66 -112q55 -42 159 -41q104 -1 159 43t55 119t-90 113q-45 18 -143 38t-143 32q-44 12 -94 35t-79 53t-48 76t-19 117zM206 1404q0 44 29 72q29 30 73 30t74 -29t29 -73q1 -44 -29 -74q-30 -28 -74 -28t-73 29t-29 73z" />
    <glyph glyph-name="Scarondotaccent" unicode="&#x1e66;" horiz-adv-x="1172" 
d="M249 1729h177l155 -127h8l154 127h177l-275 -221h-119zM578 147q140 0 219 60q79 59 79 151t-52 140t-167 76l-230 58q-137 34 -232 120q-96 86 -96 227q1 143 69 235q135 182 414 182t414 -178q69 -91 71 -216h-199q-8 97 -82 159t-202 62q-128 -1 -202 -57
q-76 -56 -76 -155q0 -144 191 -190l228 -58q209 -51 293 -161q66 -86 66 -215q0 -195 -144 -305t-376 -110q-301 0 -431 182q-69 97 -73 221h203q10 -99 93 -163q82 -64 222 -65zM491 1870q1 41 27 69t66 28t68 -28t28 -69t-28 -67t-68 -26t-66 26t-27 67z" />
    <glyph glyph-name="scarondotaccent" unicode="&#x1e67;" horiz-adv-x="998" 
d="M98 761q0 71 32 134t90 101q114 76 287 76t275 -88t101 -230h-184q-5 68 -54 118t-145 49t-152 -41q-55 -40 -55 -103t39 -96q39 -34 92 -45q78 -16 116 -22q219 -32 304 -118q67 -68 67 -181q1 -157 -115 -245t-306 -88t-300 82t-111 224h196q10 -70 66 -112
q55 -42 159 -41q104 -1 159 43t55 119t-90 113q-45 18 -143 38t-143 32q-44 12 -94 35t-79 53t-48 76t-19 117zM223 1497h159l117 -186h4l108 187h162l-205 -299h-133zM390 1708q0 44 30 74t74 30t74 -30t31 -74q-1 -45 -31 -74t-74 -29t-74 29q-30 30 -30 74z" />
    <glyph glyph-name="Sdotbelowdotaccent" unicode="&#x1e68;" horiz-adv-x="1172" 
d="M477 1606q0 46 31 78t77 31q46 1 78 -31t32 -78t-32 -78q-32 -30 -78 -30t-77 30q-31 32 -31 78zM578 147q140 0 219 60q79 59 79 151t-52 140t-167 76l-230 58q-137 34 -232 120q-96 86 -96 227q1 143 69 235q135 182 414 182t414 -178q69 -91 71 -216h-199
q-8 97 -82 159t-202 62q-128 -1 -202 -57q-76 -56 -76 -155q0 -144 191 -190l228 -58q209 -51 293 -161q66 -86 66 -215q0 -195 -144 -305t-376 -110q-301 0 -431 182q-69 97 -73 221h203q10 -99 93 -163q82 -64 222 -65zM454 -270q0 48 32 81t82 33q48 0 81 -33t33 -81
t-33 -81q-33 -32 -81 -32t-82 32q-32 33 -32 81z" />
    <glyph glyph-name="sdotbelowdotaccent" unicode="&#x1e69;" horiz-adv-x="998" 
d="M392 1294q0 46 31 78t77 32t78 -32t32 -78t-32 -76t-78 -31q-46 1 -77 31t-31 76zM98 761q0 71 32 134t90 101q114 76 287 76t275 -88t101 -230h-184q-5 68 -54 118t-145 49t-152 -41q-55 -40 -55 -103t39 -96q39 -34 92 -45q78 -16 116 -22q219 -32 304 -118
q67 -68 67 -181q1 -157 -115 -245t-306 -88t-300 82t-111 224h196q10 -70 66 -112q55 -42 159 -41q104 -1 159 43t55 119t-90 113q-45 18 -143 38t-143 32q-44 12 -94 35t-79 53t-48 76t-19 117zM388 -270q0 48 32 81t82 33q48 0 81 -33t33 -81t-33 -81q-33 -32 -81 -32
t-82 32q-32 33 -32 81z" />
    <glyph glyph-name="Tdotaccent" unicode="&#x1e6a;" horiz-adv-x="1054" 
d="M629 0h-204v1186h-407v179h1018v-179h-407v-1186zM420 1606q0 46 31 78t77 31q46 1 78 -31t32 -78t-32 -78q-32 -30 -78 -30t-77 30q-31 32 -31 78z" />
    <glyph glyph-name="tdotaccent" unicode="&#x1e6b;" horiz-adv-x="683" 
d="M202 1050v264h199v-264h207v-163h-207v-581q-1 -88 35 -120t130 -32q22 0 48 2v-157q-40 -7 -116 -7q-169 0 -233 72q-65 72 -65 232v591h-145v163h147zM203 1544q0 46 31 78t77 32t78 -32t32 -78t-32 -76t-78 -31q-46 1 -77 31t-31 76z" />
    <glyph glyph-name="Tdotbelow" unicode="&#x1e6c;" horiz-adv-x="1054" 
d="M629 0h-204v1186h-407v179h1018v-179h-407v-1186zM416 -270q0 48 32 81t82 33q48 0 81 -33t33 -81t-33 -81q-33 -32 -81 -32t-82 32q-32 33 -32 81z" />
    <glyph glyph-name="tdotbelow" unicode="&#x1e6d;" horiz-adv-x="683" 
d="M202 1050v264h199v-264h207v-163h-207v-581q-1 -88 35 -120t130 -32q22 0 48 2v-157q-40 -7 -116 -7q-169 0 -233 72q-65 72 -65 232v591h-145v163h147zM306 -270q0 48 32 81t82 33q48 0 81 -33t33 -81t-33 -81q-33 -32 -81 -32t-82 32q-32 33 -32 81z" />
    <glyph glyph-name="Tlinebelow" unicode="&#x1e6e;" horiz-adv-x="1054" 
d="M629 0h-204v1186h-407v179h1018v-179h-407v-1186zM805 -327h-558v118h558v-118z" />
    <glyph glyph-name="tlinebelow" unicode="&#x1e6f;" horiz-adv-x="683" 
d="M202 1050v264h199v-264h207v-163h-207v-581q-1 -88 35 -120t130 -32q22 0 48 2v-157q-40 -7 -116 -7q-169 0 -233 72q-65 72 -65 232v591h-145v163h147zM695 -327h-558v118h558v-118z" />
    <glyph glyph-name="Tcircumflexbelow" unicode="&#x1e70;" horiz-adv-x="1054" 
d="M248 -403l212 291h133l205 -292h-162l-108 181h-5l-116 -180h-159zM629 0h-204v1186h-407v179h1018v-179h-407v-1186z" />
    <glyph glyph-name="tcircumflexbelow" unicode="&#x1e71;" horiz-adv-x="683" 
d="M138 -403l212 291h133l205 -292h-162l-108 181h-5l-116 -180h-159zM202 1050v264h199v-264h207v-163h-207v-581q-1 -88 35 -120t130 -32q22 0 48 2v-157q-40 -7 -116 -7q-169 0 -233 72q-65 72 -65 232v591h-145v163h147z" />
    <glyph glyph-name="Udieresisbelow" unicode="&#x1e72;" horiz-adv-x="1341" 
d="M748 -311q0 45 28 73t73 29q45 -1 73 -29t29 -73q0 -45 -29 -73t-73 -29q-45 1 -73 29t-28 73zM385 -312q1 44 29 74q28 29 72 29q44 -1 74 -29q28 -28 28 -73t-28 -73t-74 -29q-44 1 -72 29t-29 72zM348 1365v-881q0 -153 87 -242t235 -89q148 -1 236 89t88 242v881h205
v-891q1 -226 -145 -364t-384 -138t-382 139q-146 139 -146 366v888h206z" />
    <glyph glyph-name="udieresisbelow" unicode="&#x1e73;" horiz-adv-x="1166" 
d="M660 -311q0 45 28 73t73 29q45 -1 73 -29t29 -73q0 -45 -29 -73t-73 -29q-45 1 -73 29t-28 73zM297 -312q1 44 29 74q28 29 72 29q44 -1 74 -29q28 -28 28 -73t-28 -73t-74 -29q-44 1 -72 29t-29 72zM1020 1054v-1054h-199v143h-9q-30 -69 -108 -115t-196 -45
q-168 -1 -269 95t-101 274v702h203v-646q1 -133 65 -190t171 -57t173 66t67 184v643h203z" />
    <glyph glyph-name="Utildebelow" unicode="&#x1e74;" horiz-adv-x="1341" 
d="M348 1365v-881q0 -153 87 -242t235 -89q148 -1 236 89t88 242v881h205v-891q1 -226 -145 -364t-384 -138t-382 139q-146 139 -146 366v888h206zM962 -141q0 -83 -49 -149t-115 -66t-97 16q-32 16 -48 33q-64 68 -95 68q-60 0 -65 -98h-120q0 89 45 151t129 62
q85 0 163 -86q35 -39 65 -38q58 0 68 107h119z" />
    <glyph glyph-name="utildebelow" unicode="&#x1e75;" horiz-adv-x="1166" 
d="M1020 1054v-1054h-199v143h-9q-30 -69 -108 -115t-196 -45q-168 -1 -269 95t-101 274v702h203v-646q1 -133 65 -190t171 -57t173 66t67 184v643h203zM874 -141q0 -83 -49 -149t-115 -66t-97 16q-32 16 -48 33q-64 68 -95 68q-60 0 -65 -98h-120q0 89 45 151t129 62
q85 0 163 -86q35 -39 65 -38q58 0 68 107h119z" />
    <glyph glyph-name="Ucircumflexbelow" unicode="&#x1e76;" horiz-adv-x="1341" 
d="M392 -403l212 291h133l205 -292h-162l-108 181h-5l-116 -180h-159zM348 1365v-881q0 -153 87 -242t235 -89q148 -1 236 89t88 242v881h205v-891q1 -226 -145 -364t-384 -138t-382 139q-146 139 -146 366v888h206z" />
    <glyph glyph-name="ucircumflexbelow" unicode="&#x1e77;" horiz-adv-x="1166" 
d="M304 -403l212 291h133l205 -292h-162l-108 181h-5l-116 -180h-159zM1020 1054v-1054h-199v143h-9q-30 -69 -108 -115t-196 -45q-168 -1 -269 95t-101 274v702h203v-646q1 -133 65 -190t171 -57t173 66t67 184v643h203z" />
    <glyph glyph-name="Utildeacute" unicode="&#x1e78;" horiz-adv-x="1341" 
d="M568 1587q-60 0 -64 -91h-116q0 82 44 140t123 59q80 0 163 -83q32 -32 62 -32q29 0 45 30t19 69h116q0 -78 -48 -139t-110 -61q-64 1 -95 15t-55 38l-26 26q-14 14 -19 16q-6 3 -15 8t-24 5zM348 1365v-881q0 -153 87 -242t235 -89q148 -1 236 89t88 242v881h205v-891
q1 -226 -145 -364t-384 -138t-382 139q-146 139 -146 366v888h206zM554 1738l255 206h219l-296 -206h-178z" />
    <glyph glyph-name="utildeacute" unicode="&#x1e79;" horiz-adv-x="1166" 
d="M275 1176q1 98 47 165t132 67t168 -90q35 -39 68 -38q32 0 48 34t20 76h124q0 -92 -52 -162t-136 -70q-85 0 -139 60q-55 60 -88 59q-61 0 -68 -101h-124zM636 1481h-163l190 279h208zM1020 1054v-1054h-199v143h-9q-30 -69 -108 -115t-196 -45q-168 -1 -269 95t-101 274
v702h203v-646q1 -133 65 -190t171 -57t173 66t67 184v643h203z" />
    <glyph glyph-name="Umacrondieresis" unicode="&#x1e7a;" horiz-adv-x="1341" 
d="M949 1525h-558v110h558v-110zM348 1365v-881q0 -153 87 -242t235 -89q148 -1 236 89t88 242v881h205v-891q1 -226 -145 -364t-384 -138t-382 139q-146 139 -146 366v888h206zM736 1844q0 40 25 66t65 25q40 1 64 -25q25 -26 25 -66t-25 -64q-24 -26 -64 -26t-65 26
q-25 24 -25 64zM427 1845q-1 39 25 65t66 25q40 1 64 -25q25 -26 25 -66q1 -40 -25 -64q-26 -26 -65 -26t-65 26t-25 65z" />
    <glyph glyph-name="umacrondieresis" unicode="&#x1e7b;" horiz-adv-x="1166" 
d="M663 1548q0 46 28 74t73 28q46 0 74 -28t28 -74t-29 -74t-73 -28t-72 28t-29 74zM300 1548q0 44 28 73t74 29q44 0 72 -28t29 -74q-1 -46 -29 -74t-72 -28t-73 29t-29 73zM861 1214h-558v118h558v-118zM1020 1054v-1054h-199v143h-9q-30 -69 -108 -115t-196 -45
q-168 -1 -269 95t-101 274v702h203v-646q1 -133 65 -190t171 -57t173 66t67 184v643h203z" />
    <glyph glyph-name="Vtilde" unicode="&#x1e7c;" horiz-adv-x="1214" 
d="M721 0h-227l-480 1365h236l357 -1114h8l354 1114h231zM504 1587q-60 0 -64 -91h-116q0 82 44 140t123 59q80 0 163 -83q32 -32 62 -32q29 0 45 30t19 69h116q0 -78 -48 -139t-110 -61q-64 1 -95 15t-55 38l-26 26q-14 14 -19 16q-6 3 -15 8q-8 5 -24 5z" />
    <glyph glyph-name="vtilde" unicode="&#x1e7d;" horiz-adv-x="1002" 
d="M388 0l-366 1054h222l247 -853h8l267 853h214l-378 -1054h-214zM385 1277q-61 0 -68 -101h-124q1 98 47 165t132 67t168 -90q35 -38 68 -38q32 0 48 34t20 76h124q0 -92 -52 -162t-136 -70q-85 0 -139 60q-55 60 -88 59z" />
    <glyph glyph-name="Vdotbelow" unicode="&#x1e7e;" horiz-adv-x="1214" 
d="M721 0h-227l-480 1365h236l357 -1114h8l354 1114h231zM496 -270q0 48 32 81t82 33q48 0 81 -33t33 -81t-33 -81q-33 -32 -81 -32t-82 32q-32 33 -32 81z" />
    <glyph glyph-name="vdotbelow" unicode="&#x1e7f;" horiz-adv-x="1002" 
d="M388 0l-366 1054h222l247 -853h8l267 853h214l-378 -1054h-214zM390 -270q0 48 32 81t82 33q48 0 81 -33t33 -81t-33 -81q-33 -32 -81 -32t-82 32q-32 33 -32 81z" />
    <glyph glyph-name="Wgrave" unicode="&#x1e80;" horiz-adv-x="1698" 
d="M569 0h-187l-371 1365h233l238 -1037h7l261 1037h198l260 -1037h8l238 1037h232l-371 -1365h-187l-276 1030h-7zM964 1510h-175l-292 203h215z" />
    <glyph glyph-name="wgrave" unicode="&#x1e81;" horiz-adv-x="1493" 
d="M1465 1054l-279 -1054h-203l-229 792h-5l-224 -792h-205l-292 1054h221l177 -815h9l221 815h190l228 -815h8l182 815h201zM854 1217h-164l-237 277h208z" />
    <glyph glyph-name="Wacute" unicode="&#x1e82;" horiz-adv-x="1698" 
d="M569 0h-187l-371 1365h233l238 -1037h7l261 1037h198l260 -1037h8l238 1037h232l-371 -1365h-187l-276 1030h-7zM732 1510l255 206h219l-296 -206h-178z" />
    <glyph glyph-name="wacute" unicode="&#x1e83;" horiz-adv-x="1493" 
d="M1465 1054l-279 -1054h-203l-229 792h-5l-224 -792h-205l-292 1054h221l177 -815h9l221 815h190l228 -815h8l182 815h201zM800 1215h-163l190 279h208z" />
    <glyph glyph-name="Wdieresis" unicode="&#x1e84;" horiz-adv-x="1698" 
d="M569 0h-187l-371 1365h233l238 -1037h7l261 1037h198l260 -1037h8l238 1037h232l-371 -1365h-187l-276 1030h-7zM937 1584q0 40 25 64q24 26 64 26t65 -26t25 -64q0 -40 -25 -66t-65 -25q-40 -1 -64 25q-25 26 -25 66zM628 1584q0 38 26 64t64 26q40 0 65 -26t25 -64
q0 -40 -26 -66t-64 -25q-38 0 -64 26t-26 65z" />
    <glyph glyph-name="wdieresis" unicode="&#x1e85;" horiz-adv-x="1493" 
d="M1465 1054l-279 -1054h-203l-229 792h-5l-224 -792h-205l-292 1054h221l177 -815h9l221 815h190l228 -815h8l182 815h201zM827 1264q0 46 28 74t73 28q46 0 74 -28t28 -74t-29 -74t-73 -28t-72 28t-29 74zM464 1264q0 44 28 73t74 29q44 0 72 -28t29 -74q-1 -46 -29 -74
t-72 -28t-73 29t-29 73z" />
    <glyph glyph-name="Wdotaccent" unicode="&#x1e86;" horiz-adv-x="1698" 
d="M569 0h-187l-371 1365h233l238 -1037h7l261 1037h198l260 -1037h8l238 1037h232l-371 -1365h-187l-276 1030h-7zM742 1606q0 46 31 78t77 31q46 1 78 -31t32 -78t-32 -78q-32 -30 -78 -30t-77 30q-31 32 -31 78z" />
    <glyph glyph-name="wdotaccent" unicode="&#x1e87;" horiz-adv-x="1493" 
d="M1465 1054l-279 -1054h-203l-229 792h-5l-224 -792h-205l-292 1054h221l177 -815h9l221 815h190l228 -815h8l182 815h201zM640 1294q0 46 31 78t77 32t78 -32t32 -78t-32 -76t-78 -31q-46 1 -77 31t-31 76z" />
    <glyph glyph-name="Wdotbelow" unicode="&#x1e88;" horiz-adv-x="1698" 
d="M569 0h-187l-371 1365h233l238 -1037h7l261 1037h198l260 -1037h8l238 1037h232l-371 -1365h-187l-276 1030h-7zM738 -270q0 48 32 81t82 33q48 0 81 -33t33 -81t-33 -81q-33 -32 -81 -32t-82 32q-32 33 -32 81z" />
    <glyph glyph-name="wdotbelow" unicode="&#x1e89;" horiz-adv-x="1493" 
d="M1465 1054l-279 -1054h-203l-229 792h-5l-224 -792h-205l-292 1054h221l177 -815h9l221 815h190l228 -815h8l182 815h201zM636 -270q0 48 32 81t82 33q48 0 81 -33t33 -81t-33 -81q-33 -32 -81 -32t-82 32q-32 33 -32 81z" />
    <glyph glyph-name="Xdotaccent" unicode="&#x1e8a;" horiz-adv-x="1144" 
d="M465 1606q0 46 31 78t77 31q46 1 78 -31t32 -78t-32 -78q-32 -30 -78 -30t-77 30q-31 32 -31 78zM1144 1365l-447 -688l439 -677h-243l-324 521h-11l-326 -521h-229l439 688l-433 677h245l324 -525h11l320 525h235z" />
    <glyph glyph-name="xdotaccent" unicode="&#x1e8b;" horiz-adv-x="1034" 
d="M410 1294q0 46 31 78t77 32t78 -32t32 -78t-32 -76t-78 -31q-46 1 -77 31t-31 76zM752 0l-236 382h-8l-237 -382h-222l346 522l-351 532h238l230 -380h9l237 380h227l-354 -517l355 -537h-234z" />
    <glyph glyph-name="Xdieresis" unicode="&#x1e8c;" horiz-adv-x="1144" 
d="M659 1584q0 40 25 64q24 26 64 26t65 -26t25 -64q0 -40 -25 -66t-65 -25q-40 -1 -64 25q-25 26 -25 66zM350 1584q0 38 26 64t64 26q40 0 65 -26t25 -64q0 -40 -26 -66t-64 -25q-38 0 -64 26t-26 65zM1144 1365l-447 -688l439 -677h-243l-324 521h-11l-326 -521h-229
l439 688l-433 677h245l324 -525h11l320 525h235z" />
    <glyph glyph-name="xdieresis" unicode="&#x1e8d;" horiz-adv-x="1034" 
d="M597 1264q0 46 28 74t73 28q46 0 74 -28t28 -74t-29 -74t-73 -28t-72 28t-29 74zM234 1264q0 44 28 73t74 29q44 0 72 -28t29 -74q-1 -46 -29 -74t-72 -28t-73 29t-29 73zM752 0l-236 382h-8l-237 -382h-222l346 522l-351 532h238l230 -380h9l237 380h227l-354 -517
l355 -537h-234z" />
    <glyph glyph-name="Ydotaccent" unicode="&#x1e8e;" horiz-adv-x="1108" 
d="M448 1606q0 46 31 78t77 31q46 1 78 -31t32 -78t-32 -78q-32 -30 -78 -30t-77 30q-31 32 -31 78zM656 0h-205v565l-456 800h232l324 -597h7l327 597h228l-457 -797v-568z" />
    <glyph glyph-name="ydotaccent" unicode="&#x1e8f;" horiz-adv-x="1052" 
d="M419 1294q0 46 31 78t77 32t78 -32t32 -78t-32 -76t-78 -31q-46 1 -77 31t-31 76zM239 -382q-65 0 -123 9v157q27 -5 99 -5q143 0 183 160l14 50l-381 1065h224l264 -864h9l266 864h215q-365 -1044 -366 -1048l-27 -73q-68 -186 -159 -250q-91 -65 -218 -65z" />
    <glyph glyph-name="Zcircumflex" unicode="&#x1e90;" horiz-adv-x="1156" 
d="M246 1507l277 238h119l274 -238h-176l-155 140h-8l-155 -140h-176zM83 0v141l708 1041v6h-685v177h937v-139l-703 -1042v-6h721v-178h-978z" />
    <glyph glyph-name="zcircumflex" unicode="&#x1e91;" horiz-adv-x="977" 
d="M92 0v128l544 755v11h-544v160h792v-133l-537 -749v-10h545v-162h-800zM208 1217l213 298h133l204 -300h-162l-108 187h-4l-116 -185h-160z" />
    <glyph glyph-name="Zdotbelow" unicode="&#x1e92;" horiz-adv-x="1156" 
d="M83 0v141l708 1041v6h-685v177h937v-139l-703 -1042v-6h721v-178h-978zM467 -270q1 48 33 81t80 33t82 -33q33 -33 33 -81t-33 -81q-34 -32 -82 -32t-80 32q-32 33 -33 81z" />
    <glyph glyph-name="zdotbelow" unicode="&#x1e93;" horiz-adv-x="977" 
d="M92 0v128l544 755v11h-544v160h792v-133l-537 -749v-10h545v-162h-800zM378 -270q0 48 32 81t82 33q48 0 81 -33t33 -81t-33 -81q-33 -32 -81 -32t-82 32q-32 33 -32 81z" />
    <glyph glyph-name="Zlinebelow" unicode="&#x1e94;" horiz-adv-x="1156" 
d="M856 -327h-558v118h558v-118zM83 0v141l708 1041v6h-685v177h937v-139l-703 -1042v-6h721v-178h-978z" />
    <glyph glyph-name="zlinebelow" unicode="&#x1e95;" horiz-adv-x="977" 
d="M92 0v128l544 755v11h-544v160h792v-133l-537 -749v-10h545v-162h-800zM767 -327h-558v118h558v-118z" />
    <glyph glyph-name="hlinebelow" unicode="&#x1e96;" horiz-adv-x="1177" 
d="M861 -327h-558v118h558v-118zM149 0v1437h202v-526h8q27 63 101 111t192 49q174 0 280 -113t105 -297v-661h-202v617q0 128 -62 202q-63 74 -177 74t-180 -72t-65 -204v-617h-202z" />
    <glyph glyph-name="tdieresis" unicode="&#x1e97;" horiz-adv-x="683" 
d="M390 1514q0 46 28 74t73 28t73 -28t29 -74q0 -46 -29 -74t-73 -28q-45 0 -73 28t-28 74zM27 1514q1 44 29 73t72 29t74 -28q28 -28 28 -74t-28 -74t-74 -28q-44 0 -72 29t-29 73zM202 1050v264h199v-264h207v-163h-207v-581q-1 -88 35 -120t130 -32q22 0 48 2v-157
q-40 -7 -116 -7q-169 0 -233 72q-65 72 -65 232v591h-145v163h147z" />
    <glyph glyph-name="wring" unicode="&#x1e98;" horiz-adv-x="1493" 
d="M645 1384q1 -42 29 -71t70 -29t71 29q28 29 28 71t-28 72q-29 28 -71 28t-70 -28q-28 -30 -29 -72zM744 1192q-84 0 -140 55q-57 55 -57 137t57 138q56 55 140 55t141 -55q57 -56 57 -138t-57 -137t-141 -55zM1465 1054l-279 -1054h-203l-229 792h-5l-224 -792h-205
l-292 1054h221l177 -815h9l221 815h190l228 -815h8l182 815h201z" />
    <glyph glyph-name="yring" unicode="&#x1e99;" horiz-adv-x="1052" 
d="M424 1384q0 -42 28 -71t72 -29q42 0 70 29t28 71t-28 72q-28 28 -70 28t-72 -28q-28 -30 -28 -72zM524 1192q-84 0 -141 55t-57 137t57 138q57 55 141 55t140 -55q57 -56 57 -138t-57 -137q-56 -55 -140 -55zM239 -382q-65 0 -123 9v157q27 -5 99 -5q143 0 183 160l14 50
l-381 1065h224l264 -864h9l266 864h215q-365 -1044 -366 -1048l-27 -73q-68 -186 -159 -250q-91 -65 -218 -65z" />
    <glyph glyph-name="Adotbelow" unicode="&#x1ea0;" horiz-adv-x="1218" 
d="M499 -270q1 48 33 81t80 33t82 -33q33 -33 33 -81t-33 -81q-34 -32 -82 -32t-80 32q-32 33 -33 81zM607 1141h-7l-193 -590h392zM230 0h-209l476 1365h223l476 -1365h-221l-127 391h-490z" />
    <glyph glyph-name="adotbelow" unicode="&#x1ea1;" horiz-adv-x="1072" 
d="M425 -270q1 48 33 81t80 33t82 -33q33 -33 33 -81t-33 -81q-34 -32 -82 -32t-80 32q-32 33 -33 81zM500 143q94 -1 162 61t68 153v111h-243q-97 0 -146 -42t-49 -119t58 -121t150 -43zM432 -17q-154 0 -249 87q-95 86 -95 230t96 228t275 83h271v118q0 175 -196 175
t-213 -158h-194q7 148 107 236t294 89q404 0 404 -344v-727h-192v138h-7q-41 -68 -117 -112t-184 -43z" />
    <glyph glyph-name="Ahookabove" unicode="&#x1ea2;" horiz-adv-x="1218" 
d="M594 1773q76 -1 132 -41q57 -40 57 -113q0 -108 -145 -164l-69 84q35 9 61 28t27 44q0 59 -90 59q-53 0 -91 -11v99q42 15 118 15zM607 1141h-7l-193 -590h392zM230 0h-209l476 1365h223l476 -1365h-221l-127 391h-490z" />
    <glyph glyph-name="ahookabove" unicode="&#x1ea3;" horiz-adv-x="1072" 
d="M529 1565q85 1 145 -49t59 -130q0 -80 -42 -126t-120 -89l-68 90q54 30 76 55q22 24 22 58t-29 56t-79 23q-50 0 -92 -16v110q43 18 128 18zM500 143q94 -1 162 61t68 153v111h-243q-97 0 -146 -42t-49 -119t58 -121t150 -43zM432 -17q-154 0 -249 87q-95 86 -95 230
t96 228t275 83h271v118q0 175 -196 175t-213 -158h-194q7 148 107 236t294 89q404 0 404 -344v-727h-192v138h-7q-41 -68 -117 -112t-184 -43z" />
    <glyph glyph-name="Acircumflexacute" unicode="&#x1ea4;" horiz-adv-x="1218" 
d="M811 1699l184 212h186l-255 -231zM275 1517l274 237h120l276 -237h-176l-156 139h-8l-153 -139h-177zM607 1141h-7l-193 -590h392zM230 0h-209l476 1365h223l476 -1365h-221l-127 391h-490z" />
    <glyph glyph-name="acircumflexacute" unicode="&#x1ea5;" horiz-adv-x="1072" 
d="M737 1388l184 212h186l-255 -231zM201 1206l274 237h120l276 -237h-176l-156 139h-8l-153 -139h-177zM500 143q94 -1 162 61t68 153v111h-243q-97 0 -146 -42t-49 -119t58 -121t150 -43zM432 -17q-154 0 -249 87q-95 86 -95 230t96 228t275 83h271v118q0 175 -196 175
t-213 -158h-194q7 148 107 236t294 89q404 0 404 -344v-727h-192v138h-7q-41 -68 -117 -112t-184 -43z" />
    <glyph glyph-name="Acircumflexgrave" unicode="&#x1ea6;" horiz-adv-x="1218" 
d="M945 1517h-176l-156 139h-8l-153 -139h-177l274 237h120zM1072 1680h-136l-262 231h184zM607 1141h-7l-193 -590h392zM230 0h-209l476 1365h223l476 -1365h-221l-127 391h-490z" />
    <glyph glyph-name="acircumflexgrave" unicode="&#x1ea7;" horiz-adv-x="1072" 
d="M871 1206h-176l-156 139h-8l-153 -139h-177l274 237h120zM998 1369h-136l-262 231h184zM500 143q94 -1 162 61t68 153v111h-243q-97 0 -146 -42t-49 -119t58 -121t150 -43zM432 -17q-154 0 -249 87q-95 86 -95 230t96 228t275 83h271v118q0 175 -196 175t-213 -158h-194
q7 148 107 236t294 89q404 0 404 -344v-727h-192v138h-7q-41 -68 -117 -112t-184 -43z" />
    <glyph glyph-name="Acircumflexhookabove" unicode="&#x1ea8;" horiz-adv-x="1218" 
d="M846 1944q68 0 114 -36t46 -99q0 -90 -106 -150l-62 66q49 33 49 64q0 61 -80 61q-34 0 -59 -4v91q31 7 98 7zM274 1509l274 221h120l276 -221h-176l-156 127h-8l-153 -127h-177zM607 1141h-7l-193 -590h392zM230 0h-209l476 1365h223l476 -1365h-221l-127 391h-490z" />
    <glyph glyph-name="acircumflexhookabove" unicode="&#x1ea9;" horiz-adv-x="1072" 
d="M772 1633q66 1 114 -35q46 -36 46 -100q0 -90 -106 -150l-62 66q49 33 49 64q0 61 -80 61q-34 0 -59 -4v91q32 7 98 7zM200 1198l274 221h120l276 -221h-176l-156 127h-8l-153 -127h-177zM500 143q94 -1 162 61t68 153v111h-243q-97 0 -146 -42t-49 -119t58 -121t150 -43
zM432 -17q-154 0 -249 87q-95 86 -95 230t96 228t275 83h271v118q0 175 -196 175t-213 -158h-194q7 148 107 236t294 89q404 0 404 -344v-727h-192v138h-7q-41 -68 -117 -112t-184 -43z" />
    <glyph glyph-name="Acircumflextilde" unicode="&#x1eaa;" horiz-adv-x="1218" 
d="M725 1882q59 0 69 99h121q1 -81 -49 -139t-117 -57t-99 15t-56 36t-42 39q-18 16 -50 16q-61 0 -66 -90h-122q0 77 46 135t128 58q81 0 154 -64q43 -43 60 -46q16 -2 23 -2zM278 1505l274 232h119l277 -232h-177l-155 138h-9l-153 -138h-176zM607 1141h-7l-193 -590h392z
M230 0h-209l476 1365h223l476 -1365h-221l-127 391h-490z" />
    <glyph glyph-name="acircumflextilde" unicode="&#x1eab;" horiz-adv-x="1072" 
d="M651 1571q59 0 69 99h121q1 -80 -49 -138t-117 -58t-99 14t-56 38q-24 22 -42 38t-50 16q-61 0 -66 -90h-122q0 77 46 135t128 58q81 0 154 -64q43 -43 60 -46q16 -2 23 -2zM204 1194l274 232h119l277 -232h-177l-155 138h-9l-153 -138h-176zM500 143q94 -1 162 61
t68 153v111h-243q-97 0 -146 -42t-49 -119t58 -121t150 -43zM432 -17q-154 0 -249 87q-95 86 -95 230t96 228t275 83h271v118q0 175 -196 175t-213 -158h-194q7 148 107 236t294 89q404 0 404 -344v-727h-192v138h-7q-41 -68 -117 -112t-184 -43z" />
    <glyph glyph-name="Acircumflexdotbelow" unicode="&#x1eac;" horiz-adv-x="1218" 
d="M277 1507l277 238h119l274 -238h-176l-155 140h-8l-155 -140h-176zM499 -270q1 48 33 81t80 33t82 -33q33 -33 33 -81t-33 -81q-34 -32 -82 -32t-80 32q-32 33 -33 81zM607 1141h-7l-193 -590h392zM230 0h-209l476 1365h223l476 -1365h-221l-127 391h-490z" />
    <glyph glyph-name="acircumflexdotbelow" unicode="&#x1ead;" horiz-adv-x="1072" 
d="M425 -270q1 48 33 81t80 33t82 -33q33 -33 33 -81t-33 -81q-34 -32 -82 -32t-80 32q-32 33 -33 81zM255 1217l213 298h133l204 -300h-162l-108 187h-4l-116 -185h-160zM500 143q94 -1 162 61t68 153v111h-243q-97 0 -146 -42t-49 -119t58 -121t150 -43zM432 -17
q-154 0 -249 87q-95 86 -95 230t96 228t275 83h271v118q0 175 -196 175t-213 -158h-194q7 148 107 236t294 89q404 0 404 -344v-727h-192v138h-7q-41 -68 -117 -112t-184 -43z" />
    <glyph glyph-name="Abreveacute" unicode="&#x1eae;" horiz-adv-x="1218" 
d="M507 1723l249 242h180l-270 -242h-159zM895 1715q1 -97 -73 -167t-214 -69q-140 0 -214 69q-76 69 -76 167h128q1 -53 44 -88q44 -35 120 -35t120 34t44 89h121zM607 1141h-7l-193 -590h392zM230 0h-209l476 1365h223l476 -1365h-221l-127 391h-490z" />
    <glyph glyph-name="abreveacute" unicode="&#x1eaf;" horiz-adv-x="1072" 
d="M433 1412l249 242h180l-270 -242h-159zM821 1404q1 -96 -73 -166t-214 -70t-214 69q-76 69 -76 167h128q1 -53 44 -88q44 -35 120 -35q76 1 120 35t44 88h121zM500 143q94 -1 162 61t68 153v111h-243q-97 0 -146 -42t-49 -119t58 -121t150 -43zM432 -17q-154 0 -249 87
q-95 86 -95 230t96 228t275 83h271v118q0 175 -196 175t-213 -158h-194q7 148 107 236t294 89q404 0 404 -344v-727h-192v138h-7q-41 -68 -117 -112t-184 -43z" />
    <glyph glyph-name="Abrevegrave" unicode="&#x1eb0;" horiz-adv-x="1218" 
d="M726 1723h-160l-273 242h183zM894 1715q0 -97 -73 -167t-213 -69q-140 0 -215 69q-76 69 -76 167h129q0 -53 43 -88t120 -35t121 35t44 88h120zM607 1141h-7l-193 -590h392zM230 0h-209l476 1365h223l476 -1365h-221l-127 391h-490z" />
    <glyph glyph-name="abrevegrave" unicode="&#x1eb1;" horiz-adv-x="1072" 
d="M652 1412h-160l-273 242h183zM820 1404q0 -96 -73 -166t-213 -70t-215 69q-76 69 -76 167h129q0 -53 43 -88t120 -35t121 35t44 88h120zM500 143q94 -1 162 61t68 153v111h-243q-97 0 -146 -42t-49 -119t58 -121t150 -43zM432 -17q-154 0 -249 87q-95 86 -95 230t96 228
t275 83h271v118q0 175 -196 175t-213 -158h-194q7 148 107 236t294 89q404 0 404 -344v-727h-192v138h-7q-41 -68 -117 -112t-184 -43z" />
    <glyph glyph-name="Abrevehookabove" unicode="&#x1eb2;" horiz-adv-x="1218" 
d="M564 1977q72 0 126 -38q54 -39 55 -99t-41 -104t-85 -57l-75 74q26 7 48 25t22 44q0 24 -28 38t-67 15q-38 0 -67 -7v99q40 10 112 10zM894 1706q0 -96 -72 -162t-212 -66t-216 66t-76 163h128q0 -50 44 -85t119 -35q77 1 121 35t44 84h120zM607 1141h-7l-193 -590h392z
M230 0h-209l476 1365h223l476 -1365h-221l-127 391h-490z" />
    <glyph glyph-name="abrevehookabove" unicode="&#x1eb3;" horiz-adv-x="1072" 
d="M490 1666q72 0 126 -38t55 -98t-41 -106q-42 -44 -85 -56l-75 74q26 8 48 26t22 42t-28 40q-28 14 -67 14q-38 0 -67 -7v99q40 10 112 10zM820 1395q0 -95 -72 -161t-212 -67q-140 1 -216 67t-76 162h128q0 -50 44 -85t119 -35q77 0 121 34t44 85h120zM500 143
q94 -1 162 61t68 153v111h-243q-97 0 -146 -42t-49 -119t58 -121t150 -43zM432 -17q-154 0 -249 87q-95 86 -95 230t96 228t275 83h271v118q0 175 -196 175t-213 -158h-194q7 148 107 236t294 89q404 0 404 -344v-727h-192v138h-7q-41 -68 -117 -112t-184 -43z" />
    <glyph glyph-name="Abrevetilde" unicode="&#x1eb4;" horiz-adv-x="1218" 
d="M312 1786q0 80 49 138t130 59q75 -1 125 -47l26 -26t12 -10q2 -2 10 -8t11 -8l12 -6q8 -5 33 -5q24 0 40 30t20 67h122q0 -84 -50 -142t-114 -58q-66 0 -97 14t-53 37t-39 39t-48 15q-58 0 -65 -89h-124zM895 1700q0 -94 -75 -160q-76 -66 -212 -66t-213 66t-77 160h128
q0 -51 44 -85t120 -34q74 0 119 34t45 85h121zM607 1141h-7l-193 -590h392zM230 0h-209l476 1365h223l476 -1365h-221l-127 391h-490z" />
    <glyph glyph-name="abrevetilde" unicode="&#x1eb5;" horiz-adv-x="1072" 
d="M427 1564q-58 0 -65 -89h-124q0 81 49 139t130 58q75 0 125 -46l26 -26t12 -11q2 -3 10 -9t11 -8l12 -6t33 -4q24 0 40 30t20 67h122q0 -84 -50 -142t-114 -58q-66 0 -97 14t-53 37q-22 22 -39 38q-16 16 -48 16zM821 1389q0 -93 -75 -159q-76 -66 -212 -67
q-136 0 -213 66t-77 160h128q0 -51 44 -85t120 -34q74 0 119 34t45 85h121zM500 143q94 -1 162 61t68 153v111h-243q-97 0 -146 -42t-49 -119t58 -121t150 -43zM432 -17q-154 0 -249 87q-95 86 -95 230t96 228t275 83h271v118q0 175 -196 175t-213 -158h-194q7 148 107 236
t294 89q404 0 404 -344v-727h-192v138h-7q-41 -68 -117 -112t-184 -43z" />
    <glyph glyph-name="Abrevedotbelow" unicode="&#x1eb6;" horiz-adv-x="1218" 
d="M287 1756h132q0 -60 52 -101t138 -41t138 41t52 101h132q0 -107 -78 -187t-244 -80q-235 1 -303 169q-18 46 -19 98zM499 -270q1 48 33 81t80 33t82 -33q33 -33 33 -81t-33 -81q-34 -32 -82 -32t-80 32q-32 33 -33 81zM607 1141h-7l-193 -590h392zM230 0h-209l476 1365
h223l476 -1365h-221l-127 391h-490z" />
    <glyph glyph-name="abrevedotbelow" unicode="&#x1eb7;" horiz-adv-x="1072" 
d="M234 1446h132q0 -68 42 -116t124 -48t124 48t42 116h131q0 -107 -75 -196q-75 -88 -222 -88q-213 0 -280 183q-18 49 -18 101zM425 -270q1 48 33 81t80 33t82 -33q33 -33 33 -81t-33 -81q-34 -32 -82 -32t-80 32q-32 33 -33 81zM500 143q94 -1 162 61t68 153v111h-243
q-97 0 -146 -42t-49 -119t58 -121t150 -43zM432 -17q-154 0 -249 87q-95 86 -95 230t96 228t275 83h271v118q0 175 -196 175t-213 -158h-194q7 148 107 236t294 89q404 0 404 -344v-727h-192v138h-7q-41 -68 -117 -112t-184 -43z" />
    <glyph glyph-name="Edotbelow" unicode="&#x1eb8;" horiz-adv-x="1107" 
d="M996 177v-177h-838v1365h838v-177h-633v-408h597v-170h-597v-433h633zM461 -270q1 48 33 81t80 33t82 -33q33 -33 33 -81t-33 -81q-34 -32 -82 -32t-80 32q-32 33 -33 81z" />
    <glyph glyph-name="edotbelow" unicode="&#x1eb9;" horiz-adv-x="1075" 
d="M296 628h490v3q0 123 -66 201t-179 77q-113 0 -179 -78t-66 -200v-3zM95 477v93q1 228 117 365t330 137t328 -136t115 -364v-92h-689v-30q0 -128 66 -214t176 -87q112 1 166 43t67 105h201q-16 -115 -115 -215t-312 -100t-331 134t-119 361zM427 -270q1 48 33 81t80 33
t82 -33q33 -33 33 -81t-33 -81q-34 -32 -82 -32t-80 32q-32 33 -33 81z" />
    <glyph glyph-name="Ehookabove" unicode="&#x1eba;" horiz-adv-x="1107" 
d="M556 1773q76 -1 132 -41q57 -40 57 -113q0 -108 -145 -164l-69 84q35 9 61 28t27 44q0 59 -90 59q-53 0 -91 -11v99q42 15 118 15zM996 177v-177h-838v1365h838v-177h-633v-408h597v-170h-597v-433h633z" />
    <glyph glyph-name="ehookabove" unicode="&#x1ebb;" horiz-adv-x="1075" 
d="M531 1565q85 1 145 -49t59 -130q0 -80 -42 -126t-120 -89l-68 90q54 30 76 55q22 24 22 58t-29 56t-79 23q-50 0 -92 -16v110q43 18 128 18zM296 628h490v3q0 123 -66 201t-179 77q-113 0 -179 -78t-66 -200v-3zM95 477v93q1 228 117 365t330 137t328 -136t115 -364v-92
h-689v-30q0 -128 66 -214t176 -87q112 1 166 43t67 105h201q-16 -115 -115 -215t-312 -100t-331 134t-119 361z" />
    <glyph glyph-name="Etilde" unicode="&#x1ebc;" horiz-adv-x="1107" 
d="M469 1587q-60 0 -64 -91h-116q-1 82 43 140t124 59q80 0 163 -83q31 -32 61 -32t46 30t19 69h116q1 -78 -47 -139t-112 -61q-64 1 -94 15q-31 14 -55 38l-25 26q-14 14 -20 16q-6 3 -15 8q-8 5 -24 5zM996 177v-177h-838v1365h838v-177h-633v-408h597v-170h-597v-433h633
z" />
    <glyph glyph-name="etilde" unicode="&#x1ebd;" horiz-adv-x="1075" 
d="M422 1277q-61 0 -68 -101h-124q0 98 46 165t133 67t169 -90q35 -38 67 -38q33 0 49 34t19 76h124q1 -92 -51 -162t-137 -70t-139 60q-55 60 -88 59zM296 628h490v3q0 123 -66 201t-179 77q-113 0 -179 -78t-66 -200v-3zM95 477v93q1 228 117 365t330 137t328 -136
t115 -364v-92h-689v-30q0 -128 66 -214t176 -87q112 1 166 43t67 105h201q-16 -115 -115 -215t-312 -100t-331 134t-119 361z" />
    <glyph glyph-name="Ecircumflexacute" unicode="&#x1ebe;" horiz-adv-x="1107" 
d="M996 177v-177h-838v1365h838v-177h-633v-408h597v-170h-597v-433h633zM773 1699l184 212h186l-255 -231zM237 1517l274 237h120l276 -237h-176l-156 139h-8l-153 -139h-177z" />
    <glyph glyph-name="ecircumflexacute" unicode="&#x1ebf;" horiz-adv-x="1075" 
d="M296 628h490v3q0 123 -66 201t-179 77q-113 0 -179 -78t-66 -200v-3zM95 477v93q1 228 117 365t330 137t328 -136t115 -364v-92h-689v-30q0 -128 66 -214t176 -87q112 1 166 43t67 105h201q-16 -115 -115 -215t-312 -100t-331 134t-119 361zM739 1388l184 212h186
l-255 -231zM203 1206l274 237h120l276 -237h-176l-156 139h-8l-153 -139h-177z" />
    <glyph glyph-name="Ecircumflexgrave" unicode="&#x1ec0;" horiz-adv-x="1107" 
d="M996 177v-177h-838v1365h838v-177h-633v-408h597v-170h-597v-433h633zM907 1517h-176l-156 139h-8l-153 -139h-177l274 237h120zM1034 1680h-136l-262 231h184z" />
    <glyph glyph-name="ecircumflexgrave" unicode="&#x1ec1;" horiz-adv-x="1075" 
d="M296 628h490v3q0 123 -66 201t-179 77q-113 0 -179 -78t-66 -200v-3zM95 477v93q1 228 117 365t330 137t328 -136t115 -364v-92h-689v-30q0 -128 66 -214t176 -87q112 1 166 43t67 105h201q-16 -115 -115 -215t-312 -100t-331 134t-119 361zM873 1206h-176l-156 139h-8
l-153 -139h-177l274 237h120zM1000 1369h-136l-262 231h184z" />
    <glyph glyph-name="Ecircumflexhookabove" unicode="&#x1ec2;" horiz-adv-x="1107" 
d="M996 177v-177h-838v1365h838v-177h-633v-408h597v-170h-597v-433h633zM808 1944q66 0 114 -36q46 -36 46 -99q0 -90 -106 -150l-62 66q49 33 49 64q0 61 -80 61q-34 0 -59 -4v91q32 7 98 7zM236 1509l274 221h120l276 -221h-176l-156 127h-8l-153 -127h-177z" />
    <glyph glyph-name="ecircumflexhookabove" unicode="&#x1ec3;" horiz-adv-x="1075" 
d="M296 628h490v3q0 123 -66 201t-179 77q-113 0 -179 -78t-66 -200v-3zM95 477v93q1 228 117 365t330 137t328 -136t115 -364v-92h-689v-30q0 -128 66 -214t176 -87q112 1 166 43t67 105h201q-16 -115 -115 -215t-312 -100t-331 134t-119 361zM774 1633q68 1 114 -35
t46 -100q0 -90 -106 -150l-62 66q49 33 49 64q0 61 -80 61q-34 0 -59 -4v91q31 7 98 7zM202 1198l274 221h120l276 -221h-176l-156 127h-8l-153 -127h-177z" />
    <glyph glyph-name="Ecircumflextilde" unicode="&#x1ec4;" horiz-adv-x="1107" 
d="M687 1882q59 0 69 99h121q1 -81 -49 -139t-117 -57t-99 15t-56 36t-42 39q-18 16 -50 16q-61 0 -66 -90h-122q0 77 46 135t128 58q81 0 154 -64q43 -43 60 -46q16 -2 23 -2zM240 1505l274 232h119l277 -232h-177l-155 138h-9l-153 -138h-176zM996 177v-177h-838v1365h838
v-177h-633v-408h597v-170h-597v-433h633z" />
    <glyph glyph-name="ecircumflextilde" unicode="&#x1ec5;" horiz-adv-x="1075" 
d="M653 1571q59 0 69 99h121q1 -80 -49 -138t-117 -58t-99 14t-56 38q-24 22 -42 38t-50 16q-61 0 -66 -90h-122q0 77 46 135t128 58q81 0 154 -64q43 -43 60 -46q16 -2 23 -2zM206 1194l274 232h119l277 -232h-177l-155 138h-9l-153 -138h-176zM296 628h490v3
q0 123 -66 201t-179 77q-113 0 -179 -78t-66 -200v-3zM95 477v93q1 228 117 365t330 137t328 -136t115 -364v-92h-689v-30q0 -128 66 -214t176 -87q112 1 166 43t67 105h201q-16 -115 -115 -215t-312 -100t-331 134t-119 361z" />
    <glyph glyph-name="Ecircumflexdotbelow" unicode="&#x1ec6;" horiz-adv-x="1107" 
d="M996 177v-177h-838v1365h838v-177h-633v-408h597v-170h-597v-433h633zM239 1507l277 238h119l274 -238h-176l-155 140h-8l-155 -140h-176zM461 -270q1 48 33 81t80 33t82 -33q33 -33 33 -81t-33 -81q-34 -32 -82 -32t-80 32q-32 33 -33 81z" />
    <glyph glyph-name="ecircumflexdotbelow" unicode="&#x1ec7;" horiz-adv-x="1075" 
d="M427 -270q1 48 33 81t80 33t82 -33q33 -33 33 -81t-33 -81q-34 -32 -82 -32t-80 32q-32 33 -33 81zM296 628h490v3q0 123 -66 201t-179 77q-113 0 -179 -78t-66 -200v-3zM95 477v93q1 228 117 365t330 137t328 -136t115 -364v-92h-689v-30q0 -128 66 -214t176 -87
q112 1 166 43t67 105h201q-16 -115 -115 -215t-312 -100t-331 134t-119 361zM257 1217l213 298h133l204 -300h-162l-108 187h-4l-116 -185h-160z" />
    <glyph glyph-name="Ihookabove" unicode="&#x1ec8;" horiz-adv-x="521" 
d="M244 1773q76 -1 133 -41t57 -113q0 -108 -145 -164l-69 84q36 9 62 28t26 44q0 59 -90 59q-52 0 -91 -11v99q41 15 117 15zM364 0h-206v1365h206v-1365z" />
    <glyph glyph-name="ihookabove" unicode="&#x1ec9;" horiz-adv-x="540" 
d="M265 1565q85 1 145 -49t59 -130q0 -80 -42 -126t-120 -89l-68 90q54 30 76 55q22 24 22 58t-29 56t-79 23q-50 0 -92 -16v110q43 18 128 18zM170 0v1054h205v-1054h-205z" />
    <glyph glyph-name="Idotbelow" unicode="&#x1eca;" horiz-adv-x="521" 
d="M150 -270q0 48 32 81t82 33q48 0 81 -33t33 -81t-33 -81q-33 -32 -81 -32t-82 32q-32 33 -32 81zM364 0h-206v1365h206v-1365z" />
    <glyph glyph-name="idotbelow" unicode="&#x1ecb;" horiz-adv-x="541" 
d="M160 -270q0 48 32 81t82 33q48 0 81 -33t33 -81t-33 -81q-33 -32 -81 -32t-82 32q-32 33 -32 81zM145 1312q-1 50 35 83t90 33t90 -32t36 -84q0 -51 -36 -84t-90 -33q-54 -1 -90 33t-35 84zM170 0v1054h201v-1054h-201z" />
    <glyph glyph-name="Odotbelow" unicode="&#x1ecc;" horiz-adv-x="1324" 
d="M103 580v192q0 289 151 455t409 166q258 1 408 -165t150 -456v-192q0 -288 -151 -448t-410 -160t-408 160t-149 448zM310 774v-194q0 -212 97 -320t255 -108t254 108q97 108 97 320v194q1 212 -97 326t-254 114t-254 -114t-98 -326zM551 -270q1 48 33 81t80 33t82 -33
q33 -33 33 -81t-33 -81q-34 -32 -82 -32t-80 32q-32 33 -33 81z" />
    <glyph glyph-name="odotbelow" unicode="&#x1ecd;" horiz-adv-x="1115" 
d="M558 150q258 0 258 349v57q0 266 -155 331q-45 19 -103 19t-104 -19q-158 -66 -157 -331v-57q-1 -267 157 -331q46 -18 104 -18zM558 1072q226 0 344 -136t118 -367v-81q0 -234 -117 -370t-345 -136t-346 136q-117 136 -117 370v80q1 224 119 364t344 140zM447 -270
q1 48 33 81t80 33t82 -33q33 -33 33 -81t-33 -81q-34 -32 -82 -32t-80 32q-32 33 -33 81z" />
    <glyph glyph-name="Ohookabove" unicode="&#x1ece;" horiz-adv-x="1324" 
d="M103 580v192q0 289 151 455t409 166q258 1 408 -165t150 -456v-192q0 -288 -151 -448t-410 -160t-408 160t-149 448zM310 774v-194q0 -212 97 -320t255 -108t254 108q97 108 97 320v194q1 212 -97 326t-254 114t-254 -114t-98 -326zM646 1773q75 -1 132 -41t57 -113
q0 -108 -145 -164l-69 84q35 9 61 28t27 44q0 59 -90 59q-53 0 -91 -11v99q43 15 118 15z" />
    <glyph glyph-name="ohookabove" unicode="&#x1ecf;" horiz-adv-x="1115" 
d="M551 1565q85 1 145 -49t59 -130q0 -80 -42 -126t-120 -89l-68 90q54 30 76 55q22 24 22 58t-29 56t-79 23q-50 0 -92 -16v110q43 18 128 18zM558 150q258 0 258 349v57q0 266 -155 331q-45 19 -103 19t-104 -19q-158 -66 -157 -331v-57q-1 -267 157 -331q46 -18 104 -18z
M558 1072q226 0 344 -136t118 -367v-81q0 -234 -117 -370t-345 -136t-346 136q-117 136 -117 370v80q1 224 119 364t344 140z" />
    <glyph glyph-name="Ocircumflexacute" unicode="&#x1ed0;" horiz-adv-x="1324" 
d="M103 580v192q0 289 151 455t409 166q258 1 408 -165t150 -456v-192q0 -288 -151 -448t-410 -160t-408 160t-149 448zM310 774v-194q0 -212 97 -320t255 -108t254 108q97 108 97 320v194q1 212 -97 326t-254 114t-254 -114t-98 -326zM863 1699l184 212h186l-255 -231z
M327 1517l274 237h120l276 -237h-176l-156 139h-8l-153 -139h-177z" />
    <glyph glyph-name="ocircumflexacute" unicode="&#x1ed1;" horiz-adv-x="1115" 
d="M558 150q258 0 258 349v57q0 266 -155 331q-45 19 -103 19t-104 -19q-158 -66 -157 -331v-57q-1 -267 157 -331q46 -18 104 -18zM558 1072q226 0 344 -136t118 -367v-81q0 -234 -117 -370t-345 -136t-346 136q-117 136 -117 370v80q1 224 119 364t344 140zM759 1388
l184 212h186l-255 -231zM223 1206l274 237h120l276 -237h-176l-156 139h-8l-153 -139h-177z" />
    <glyph glyph-name="Ocircumflexgrave" unicode="&#x1ed2;" horiz-adv-x="1324" 
d="M103 580v192q0 289 151 455t409 166q258 1 408 -165t150 -456v-192q0 -288 -151 -448t-410 -160t-408 160t-149 448zM310 774v-194q0 -212 97 -320t255 -108t254 108q97 108 97 320v194q1 212 -97 326t-254 114t-254 -114t-98 -326zM997 1517h-176l-156 139h-8l-153 -139
h-177l274 237h120zM1124 1680h-136l-262 231h184z" />
    <glyph glyph-name="ocircumflexgrave" unicode="&#x1ed3;" horiz-adv-x="1115" 
d="M558 150q258 0 258 349v57q0 266 -155 331q-45 19 -103 19t-104 -19q-158 -66 -157 -331v-57q-1 -267 157 -331q46 -18 104 -18zM558 1072q226 0 344 -136t118 -367v-81q0 -234 -117 -370t-345 -136t-346 136q-117 136 -117 370v80q1 224 119 364t344 140zM893 1206h-176
l-156 139h-8l-153 -139h-177l274 237h120zM1020 1369h-136l-262 231h184z" />
    <glyph glyph-name="Ocircumflexhookabove" unicode="&#x1ed4;" horiz-adv-x="1324" 
d="M103 580v192q0 289 151 455t409 166q258 1 408 -165t150 -456v-192q0 -288 -151 -448t-410 -160t-408 160t-149 448zM310 774v-194q0 -212 97 -320t255 -108t254 108q97 108 97 320v194q1 212 -97 326t-254 114t-254 -114t-98 -326zM898 1944q66 0 114 -36q46 -36 46 -99
q0 -90 -106 -150l-62 66q49 33 49 64q0 61 -80 61q-34 0 -59 -4v91q32 7 98 7zM326 1509l274 221h120l276 -221h-176l-156 127h-8l-153 -127h-177z" />
    <glyph glyph-name="ocircumflexhookabove" unicode="&#x1ed5;" horiz-adv-x="1115" 
d="M558 150q258 0 258 349v57q0 266 -155 331q-45 19 -103 19t-104 -19q-158 -66 -157 -331v-57q-1 -267 157 -331q46 -18 104 -18zM558 1072q226 0 344 -136t118 -367v-81q0 -234 -117 -370t-345 -136t-346 136q-117 136 -117 370v80q1 224 119 364t344 140zM794 1633
q66 1 114 -35q46 -36 46 -100q0 -90 -106 -150l-62 66q49 33 49 64q0 61 -80 61q-34 0 -59 -4v91q32 7 98 7zM222 1198l274 221h120l276 -221h-176l-156 127h-8l-153 -127h-177z" />
    <glyph glyph-name="Ocircumflextilde" unicode="&#x1ed6;" horiz-adv-x="1324" 
d="M103 580v192q0 289 151 455t409 166q258 1 408 -165t150 -456v-192q0 -288 -151 -448t-410 -160t-408 160t-149 448zM310 774v-194q0 -212 97 -320t255 -108t254 108q97 108 97 320v194q1 212 -97 326t-254 114t-254 -114t-98 -326zM777 1882q59 0 69 99h121
q1 -81 -49 -139t-117 -57t-99 15t-56 36t-42 39q-18 16 -50 16q-61 0 -66 -90h-122q0 77 46 135t128 58q81 0 154 -64q43 -43 60 -46q16 -2 23 -2zM330 1505l274 232h119l277 -232h-177l-155 138h-9l-153 -138h-176z" />
    <glyph glyph-name="ocircumflextilde" unicode="&#x1ed7;" horiz-adv-x="1115" 
d="M558 150q258 0 258 349v57q0 266 -155 331q-45 19 -103 19t-104 -19q-158 -66 -157 -331v-57q-1 -267 157 -331q46 -18 104 -18zM558 1072q226 0 344 -136t118 -367v-81q0 -234 -117 -370t-345 -136t-346 136q-117 136 -117 370v80q1 224 119 364t344 140zM673 1571
q59 0 69 99h121q1 -80 -49 -138t-117 -58t-99 14t-56 38q-24 22 -42 38t-50 16q-61 0 -66 -90h-122q0 77 46 135t128 58q81 0 154 -64q43 -43 60 -46q16 -2 23 -2zM226 1194l274 232h119l277 -232h-177l-155 138h-9l-153 -138h-176z" />
    <glyph glyph-name="Ocircumflexdotbelow" unicode="&#x1ed8;" horiz-adv-x="1324" 
d="M103 580v192q0 289 151 455t409 166q258 1 408 -165t150 -456v-192q0 -288 -151 -448t-410 -160t-408 160t-149 448zM310 774v-194q0 -212 97 -320t255 -108t254 108q97 108 97 320v194q1 212 -97 326t-254 114t-254 -114t-98 -326zM329 1507l277 238h119l274 -238h-176
l-155 140h-8l-155 -140h-176zM551 -270q1 48 33 81t80 33t82 -33q33 -33 33 -81t-33 -81q-34 -32 -82 -32t-80 32q-32 33 -33 81z" />
    <glyph glyph-name="ocircumflexdotbelow" unicode="&#x1ed9;" horiz-adv-x="1115" 
d="M447 -270q1 48 33 81t80 33t82 -33q33 -33 33 -81t-33 -81q-34 -32 -82 -32t-80 32q-32 33 -33 81zM558 150q258 0 258 349v57q0 266 -155 331q-45 19 -103 19t-104 -19q-158 -66 -157 -331v-57q-1 -267 157 -331q46 -18 104 -18zM558 1072q226 0 344 -136t118 -367v-81
q0 -234 -117 -370t-345 -136t-346 136q-117 136 -117 370v80q1 224 119 364t344 140zM277 1217l213 298h133l204 -300h-162l-108 187h-4l-116 -185h-160z" />
    <glyph glyph-name="Ohornacute" unicode="&#x1eda;" horiz-adv-x="1335" 
d="M310 774v-195q0 -211 97 -319t255 -109q158 1 254 109q97 108 97 319v195q1 212 -97 326t-254 114t-254 -114t-98 -326zM1221 580q0 -288 -151 -448t-410 -160t-408 160t-149 448v192q0 289 151 455t409 166q125 1 229 -43q104 -43 179 -44q73 0 103 40t30 113v99h172
v-109q0 -135 -67 -208t-191 -73l-3 -6q43 -63 75 -170t31 -220v-192zM545 1510l255 206h219l-296 -206h-178z" />
    </font>
</defs>
</svg>
