<?xml version="1.0" standalone="no"?>
<!DOCTYPE svg PUBLIC "-//W3C//DTD SVG 1.1//EN" "http://www.w3.org/Graphics/SVG/1.1/DTD/svg11.dtd" >
<svg xmlns="http://www.w3.org/2000/svg">
<metadata>
Created by FontPrep 20130207 at Sat Jul  4 18:38:46 2015
 By Sammy C
(c) 2014 Apple Inc. All rights reserved.
</metadata>
<defs>
<font id="ec8f31502660e18fe770dc51e62a5981" horiz-adv-x='1024' >
  <font-face 
    font-family="SanFranciscoDisplay-Semibold"
    font-weight="600"
    font-stretch="normal"
    units-per-em="2048"
    panose-1="0 0 0 0 0 0 0 0 0 0"
    ascent="1638"
    descent="-410"
    x-height="1058"
    cap-height="1365"
    bbox="-547 -490 2052 1995.02"
    underline-thickness="50"
    underline-position="-25"
    unicode-range="U+0020-FB02"
  />
<missing-glyph horiz-adv-x="1293" 
d="M632 1018q56 0 88 -30q33 -30 33 -74q-1 -44 -21 -72t-86 -74t-91 -97q-26 -51 -22 -140h166v15q0 48 19 76t90 78t101 101q30 50 30 116q0 113 -81 181q-82 68 -220 69q-138 0 -220 -76t-79 -203h169q0 58 34 94t90 36zM501 314q-1 -48 33 -78t88 -30t88 30t33 78
q1 48 -33 78t-88 29q-54 0 -88 -30q-33 -29 -33 -77zM120 0v1365h1053v-1365h-1053z" />
    <glyph glyph-name=".notdef" horiz-adv-x="1293" 
d="M632 1018q56 0 88 -30q33 -30 33 -74q-1 -44 -21 -72t-86 -74t-91 -97q-26 -51 -22 -140h166v15q0 48 19 76t90 78t101 101q30 50 30 116q0 113 -81 181q-82 68 -220 69q-138 0 -220 -76t-79 -203h169q0 58 34 94t90 36zM501 314q-1 -48 33 -78t88 -30t88 30t33 78
q1 48 -33 78t-88 29q-54 0 -88 -30q-33 -29 -33 -77zM120 0v1365h1053v-1365h-1053z" />
    <glyph glyph-name=".null" 
 />
    <glyph glyph-name="nonmarkingreturn" 
 />
    <glyph glyph-name="space" unicode=" " horiz-adv-x="405" 
 />
    <glyph glyph-name="exclam" unicode="!" horiz-adv-x="544" 
d="M143 1365h262l-29 -953h-205zM125 112q1 58 41 96q40 36 106 36t108 -36q40 -36 40 -95t-40 -95t-107 -37q-66 1 -107 37t-41 94z" />
    <glyph glyph-name="quotedbl" unicode="&#x22;" horiz-adv-x="910" 
d="M552 1365h259l-32 -537h-195zM99 1365h259l-32 -537h-195z" />
    <glyph glyph-name="numbersign" unicode="#" horiz-adv-x="1218" 
d="M510 842l-62 -305h272l62 305h-272zM1159 828h-211l-56 -277h201l-35 -177h-202l-75 -374h-181l75 374h-247l-76 -374h-181l75 374h-199l35 177h200l56 277h-191l34 176h193l72 361h182l-73 -361h248l72 361h181l-72 -361h209z" />
    <glyph glyph-name="dollar" unicode="$" horiz-adv-x="1144" 
d="M648 -129h-144v126q-215 16 -325 126t-112 262h207q5 -84 65 -141t167 -71v444l-80 20q-134 32 -231 119t-97 249q0 163 113 261t294 117v130h144v-130q177 -17 289 -119t117 -260h-203q-4 78 -58 134t-147 69v-417l82 -20q168 -40 259 -127t91 -254q1 -167 -117 -271
t-314 -120v-127zM870 371q0 81 -50 135t-173 81v-415q103 10 163 64t60 135zM307 1016q0 -137 199 -194v386q-89 -11 -144 -61t-55 -131z" />
    <glyph glyph-name="percent" unicode="%" horiz-adv-x="1390" 
d="M261 0h-184l544 704l503 661h185l-538 -696zM808 323v29q0 144 79 238t211 94t210 -94t78 -240v-29q0 -141 -78 -237t-212 -97q-134 0 -211 95t-77 241zM965 343v-10q0 -95 35 -151q34 -56 96 -56t98 55t35 150v10q-1 95 -35 149t-97 55q-63 0 -97 -55t-35 -147zM7 1019
v29q1 142 79 236t210 95q132 0 210 -94t78 -239v-29q0 -143 -78 -239t-212 -96t-210 96q-77 96 -77 241zM163 1038v-9q-1 -96 35 -152t98 -56t96 55q36 55 36 151v9q0 96 -35 150t-97 55q-62 0 -98 -55q-35 -55 -35 -148z" />
    <glyph glyph-name="ampersand" unicode="&#x26;" horiz-adv-x="1336" 
d="M752 1054q0 72 -46 117q-46 44 -118 44t-118 -45q-46 -46 -45 -106q0 -60 29 -108t104 -123q96 49 145 99t49 122zM293 360q0 -92 78 -152q79 -60 173 -60q195 0 296 108l-340 372l-40 -20q-80 -44 -124 -100t-43 -148zM73 357q-1 124 67 212t190 156l57 30
q-82 86 -125 157t-43 155q0 133 105 221t260 89q156 -1 262 -85t106 -216t-78 -211t-203 -147l289 -315q54 99 54 311v58h200v-68q0 -284 -113 -446l246 -258h-269l-113 121q-168 -148 -425 -148q-207 1 -337 105t-130 279z" />
    <glyph glyph-name="quotesingle" unicode="'" horiz-adv-x="457" 
d="M99 1365h259l-32 -537h-195z" />
    <glyph glyph-name="parenleft" unicode="(" horiz-adv-x="657" 
d="M360 593q0 -129 10 -225t32 -178q48 -178 95 -273q46 -94 96 -179h-217q-92 112 -149 254q-106 261 -106 574q0 422 189 696q30 44 75 101h211q-75 -86 -131 -224q-55 -139 -80 -278t-25 -268z" />
    <glyph glyph-name="parenright" unicode=")" horiz-adv-x="657" 
d="M454 54q-82 -201 -175 -316h-216q131 226 182 415q50 189 50 378q0 348 -82 550t-152 282h209q154 -196 210 -377t56 -456t-82 -476z" />
    <glyph glyph-name="asterisk" unicode="*" horiz-adv-x="761" 
d="M449 736h-137l21 231l-192 -132l-69 119l211 99l-211 98l69 121l193 -136l-22 234h137l-21 -234l193 136l68 -120l-211 -99l211 -99l-68 -119l-192 132z" />
    <glyph glyph-name="plus" unicode="+" horiz-adv-x="1144" 
d="M673 449v-430h-200v430h-398v198h398v413h200v-413h400v-198h-400z" />
    <glyph glyph-name="comma" unicode="," horiz-adv-x="445" 
d="M192 -248h-176l104 485h237z" />
    <glyph glyph-name="hyphen" unicode="-" horiz-adv-x="787" 
d="M709 455h-630v210h630v-210z" />
    <glyph glyph-name="period" unicode="." horiz-adv-x="518" 
d="M117 120q1 62 41 100t101 38t102 -38t41 -100t-41 -100t-101 -39q-60 1 -102 39q-41 38 -41 100z" />
    <glyph glyph-name="slash" unicode="/" horiz-adv-x="687" 
d="M213 -296h-211l476 1733h211z" />
    <glyph glyph-name="zero" unicode="0" horiz-adv-x="1180" 
d="M84 633v98q0 303 134 482t375 179t372 -178t131 -483v-98q0 -408 -228 -575q-116 -85 -279 -85q-241 0 -373 178t-132 482zM326 730v-95q0 -223 70 -343t194 -119q123 0 194 120t71 342v95q0 222 -71 342t-194 119q-124 1 -194 -119t-70 -342z" />
    <glyph glyph-name="one" unicode="1" horiz-adv-x="830" 
d="M658 0h-239v1125h-8q-35 -19 -150 -93t-166 -109v233q55 38 167 110t165 99h231v-1365z" />
    <glyph glyph-name="two" unicode="2" horiz-adv-x="1131" 
d="M101 967v11q1 163 113 285q54 59 143 94t200 35q203 0 328 -108t125 -272q0 -104 -44 -182q-20 -34 -28 -50q-8 -15 -38 -53q-30 -39 -38 -47t-46 -52t-43 -49l-327 -373v-6h589v-200h-920v151l500 553q118 130 142 206q12 38 12 81q1 91 -61 147t-160 57q-98 0 -157 -63
q-60 -63 -60 -153l1 -12h-231z" />
    <glyph glyph-name="three" unicode="3" horiz-adv-x="1153" 
d="M416 608v191h137q103 0 167 58t64 146t-62 143t-164 55q-102 1 -160 -59t-63 -139h-227q4 165 125 277t326 112t333 -100t131 -253q3 -196 -163 -290q-42 -24 -84 -30v-8q103 -8 197 -91q94 -82 96 -238q1 -120 -67 -214t-185 -145t-247 -51q-246 0 -366 116t-124 284
h224q10 -90 78 -148t186 -58t189 63t70 161q-2 98 -72 158t-194 60h-145z" />
    <glyph glyph-name="four" unicode="4" horiz-adv-x="1192" 
d="M300 461h438v715h-8q-270 -420 -430 -713v-2zM966 1365v-904h170v-199h-170v-262h-228v262h-661v198q108 202 211 368q102 168 196 318t135 219h347z" />
    <glyph glyph-name="five" unicode="5" horiz-adv-x="1202" 
d="M606 168q106 0 187 76q82 76 82 201q-1 125 -77 201t-183 76t-173 -46t-94 -110h-211l68 800h808v-198h-613l-37 -375h7q32 43 110 80t176 37t180 -32t143 -90q63 -58 99 -144t36 -188q0 -216 -146 -350t-368 -133q-223 0 -348 113q-124 113 -132 274h225q13 -90 84 -141
t177 -51z" />
    <glyph glyph-name="six" unicode="6" horiz-adv-x="1159" 
d="M341 436q0 -124 75 -196t183 -72t181 70t73 198q-1 128 -75 198q-74 72 -182 72t-181 -73q-74 -73 -74 -197zM607 1196q-133 0 -213 -132t-83 -370h9q32 81 118 140t190 59t182 -30q78 -31 140 -85t98 -140q37 -86 37 -212q0 -125 -66 -234q-65 -110 -175 -164t-246 -54
q-240 0 -378 172t-138 516t144 536t387 192q99 0 183 -32t136 -84q110 -109 120 -241h-231q-7 61 -65 112t-149 51z" />
    <glyph glyph-name="seven" unicode="7" horiz-adv-x="1097" 
d="M81 1365h918v-206l-555 -1159h-255l574 1159v6h-682v200z" />
    <glyph glyph-name="eight" unicode="8" horiz-adv-x="1204" 
d="M600 -27q-230 0 -372 111q-140 111 -140 287t131 276q70 53 152 70v7q-95 28 -162 106t-67 200q0 158 128 260t333 102t333 -102t128 -260q0 -122 -68 -200t-162 -106v-7q103 -23 193 -106t90 -248q1 -166 -143 -278t-374 -112zM603 797q100 0 164 58q64 57 64 149
t-64 148t-164 57q-101 -1 -165 -57t-64 -148t64 -149q64 -58 165 -58zM602 154q118 0 198 66q78 66 78 169q0 105 -78 171t-197 66q-118 0 -197 -66t-79 -171q1 -103 79 -169t196 -66z" />
    <glyph glyph-name="nine" unicode="9" horiz-adv-x="1159" 
d="M829 932q-1 122 -73 193q-72 72 -181 72t-184 -71q-75 -70 -75 -198t72 -198t180 -71t184 75t77 198zM562 169q98 -1 167 67q132 129 128 435h-11q-28 -83 -116 -141t-196 -57q-108 -1 -185 29q-75 30 -135 84t-95 142q-35 86 -35 194t40 198t106 148q140 122 334 122
q248 0 385 -170t137 -514q0 -345 -140 -538t-391 -193q-107 0 -195 34q-88 35 -142 89q-110 111 -118 246h230q9 -70 71 -122q63 -52 161 -53z" />
    <glyph glyph-name="colon" unicode=":" horiz-adv-x="550" 
d="M130 120q0 62 40 100t102 38q61 0 102 -38t41 -100t-41 -100q-42 -38 -102 -39q-60 1 -101 39t-41 100zM130 814q0 62 40 100t102 38q61 0 102 -38t41 -100t-41 -100q-42 -38 -102 -39q-60 1 -101 39t-41 100z" />
    <glyph glyph-name="semicolon" unicode=";" horiz-adv-x="549" 
d="M234 -280h-178l100 486h236zM132 814q0 62 41 100t102 38t102 -38t41 -100t-41 -100t-102 -39q-61 1 -102 39t-41 100z" />
    <glyph glyph-name="less" unicode="&#x3c;" horiz-adv-x="1144" 
d="M120 439v164l901 513v-240l-634 -343v-11l634 -331v-236z" />
    <glyph glyph-name="equal" unicode="=" horiz-adv-x="1144" 
d="M1023 658h-901v188h901v-188zM1023 252h-901v187h901v-187z" />
    <glyph glyph-name="greater" unicode="&#x3e;" horiz-adv-x="1144" 
d="M1022 603v-164l-902 -484v236l636 331v11l-636 343v240z" />
    <glyph glyph-name="question" unicode="?" horiz-adv-x="967" 
d="M514 1394q92 0 186 -38q95 -38 156 -120t61 -199q0 -163 -139 -277q-22 -18 -66 -52q-83 -62 -117 -103t-34 -122v-55h-218l-1 69q-5 103 43 177t156 153q109 79 127 135q10 28 9 63q1 89 -57 133t-150 45q-92 -1 -146 -59t-54 -151h-220q-6 244 190 345q110 56 274 56z
M310 112q0 58 40 96q40 36 108 36q66 0 106 -36t41 -95q-1 -59 -41 -95t-106 -37q-66 1 -107 37t-41 94z" />
    <glyph glyph-name="at" unicode="@" horiz-adv-x="1697" 
d="M697 487q0 -203 149 -203t149 193v81q-1 90 -43 138t-108 48t-106 -50t-41 -149v-58zM1265 133q-95 1 -161 41t-80 101h-10q-16 -59 -79 -101t-146 -41q-127 0 -200 89t-73 240v103q0 145 74 233t204 89q86 -1 138 -41t68 -93h8v120h170v-493q0 -54 30 -82t80 -28
q72 0 122 84t49 247v32q-1 225 -153 381q-72 74 -183 119q-111 44 -245 44h-8q-270 1 -442 -171q-82 -82 -127 -202q-46 -120 -46 -265v-42q0 -155 49 -276q50 -121 134 -195q171 -150 422 -150h9q196 0 301 47v-145q-99 -45 -308 -45h-9q-328 0 -540 191q-103 92 -162 238
t-59 329v55q0 174 58 320t161 244q103 100 247 156t312 55h8q408 -1 616 -289q124 -171 124 -393v-50q0 -204 -97 -330t-256 -126z" />
    <glyph glyph-name="A" unicode="A" horiz-adv-x="1241" 
d="M618 1120h-9l-179 -568h366zM261 0h-244l466 1365h275l465 -1365h-259l-116 368h-471z" />
    <glyph glyph-name="B" unicode="B" horiz-adv-x="1247" 
d="M391 614v-426h211q241 0 300 106q23 42 23 101q-1 107 -69 163t-188 56h-277zM391 1178v-387h187q282 0 282 197q0 94 -58 142t-152 48h-259zM150 0v1365h553q179 1 287 -89t109 -247q0 -121 -63 -197t-166 -102v-11q134 -15 218 -103t84 -221t-63 -221
q-124 -174 -413 -174h-546z" />
    <glyph glyph-name="C" unicode="C" horiz-adv-x="1270" 
d="M340 761v-163q0 -210 85 -314t229 -103t218 77q76 76 76 191h234v-20q0 -178 -132 -312q-64 -65 -166 -105t-229 -39q-263 0 -411 163t-148 461v165q0 300 149 465t411 165q123 0 224 -39t166 -105q136 -139 136 -330v-19h-234q0 116 -78 201t-218 85t-226 -108t-86 -316
z" />
    <glyph glyph-name="D" unicode="D" horiz-adv-x="1317" 
d="M392 1164v-962h210q194 0 290 115t97 364q-1 354 -205 448q-76 35 -182 35h-210zM1238 701q0 -701 -607 -701h-481v1365h481q461 -1 573 -405q34 -122 34 -259z" />
    <glyph glyph-name="E" unicode="E" horiz-adv-x="1118" 
d="M1012 202v-202h-862v1365h862v-202h-621v-375h584v-191h-584v-395h621z" />
    <glyph glyph-name="F" unicode="F" horiz-adv-x="1057" 
d="M392 0h-242v1365h852v-203h-610v-406h557v-199h-557v-557z" />
    <glyph glyph-name="G" unicode="G" horiz-adv-x="1295" 
d="M651 1186q-132 0 -222 -103t-90 -309v-176q-1 -196 81 -308t231 -111t233 75t84 187v99h-302v188h533v-275q0 -137 -80 -266q-79 -129 -247 -183q-94 -30 -209 -31q-281 0 -424 169t-143 456v177q0 285 154 451t418 166q124 0 224 -38t165 -102q131 -132 139 -318h-236
q-15 120 -96 186t-213 66z" />
    <glyph glyph-name="H" unicode="H" horiz-adv-x="1392" 
d="M1242 0h-242v598h-608v-598h-242v1365h242v-563h608v563h242v-1365z" />
    <glyph glyph-name="I" unicode="I" horiz-adv-x="543" 
d="M392 0h-242v1365h242v-1365z" />
    <glyph glyph-name="J" unicode="J" horiz-adv-x="1034" 
d="M25 367h234q1 -82 55 -130t142 -48t140 55q53 55 53 170v951h242v-941q-1 -223 -119 -337t-320 -114q-202 -1 -314 111t-113 283z" />
    <glyph glyph-name="K" unicode="K" horiz-adv-x="1236" 
d="M392 0h-242v1365h242v-626h11l540 626h269l-493 -586l516 -779h-294l-400 616l-149 -165v-451z" />
    <glyph glyph-name="L" unicode="L" horiz-adv-x="1010" 
d="M986 208v-208h-836v1365h242v-1157h594z" />
    <glyph glyph-name="M" unicode="M" horiz-adv-x="1617" 
d="M371 0h-217v1365h244l408 -932h7l408 932h242v-1365h-218v929h-9l-344 -775h-168l-344 775h-9v-929z" />
    <glyph glyph-name="N" unicode="N" horiz-adv-x="1375" 
d="M381 0h-231v1365h209l627 -955h8v955h230v-1365h-207l-629 958h-7v-958z" />
    <glyph glyph-name="O" unicode="O" horiz-adv-x="1338" 
d="M96 586v182q0 290 154 457t420 167t419 -167t153 -457v-182q0 -288 -154 -450t-420 -163q-268 0 -420 162t-152 451zM340 770v-185q0 -199 90 -303t238 -104t239 104q90 104 90 303v185q-1 201 -91 309t-238 108t-238 -108t-90 -309z" />
    <glyph glyph-name="P" unicode="P" horiz-adv-x="1183" 
d="M392 1168v-498h175q162 0 242 54t80 184t-65 195t-182 65h-250zM150 1365h532q209 0 331 -125q122 -126 122 -322q-1 -196 -123 -319t-332 -123h-288v-476h-242v1365z" />
    <glyph glyph-name="Q" unicode="Q" horiz-adv-x="1342" 
d="M336 772v-182q0 -205 91 -313t238 -110q58 0 103 19l-153 216h235l75 -101q81 109 81 289v182q0 200 -93 308t-243 108t-242 -108t-92 -308zM98 592v180q0 288 155 454t418 166t418 -166t155 -454v-180q0 -311 -181 -478l177 -255h-247l-108 153q-98 -39 -215 -39
q-264 -1 -418 165t-154 454z" />
    <glyph glyph-name="R" unicode="R" horiz-adv-x="1246" 
d="M390 706h251q123 0 189 59t67 171q-1 112 -69 174q-68 61 -182 61h-256v-465zM680 1365q339 0 438 -259q29 -76 29 -160q0 -167 -80 -260t-170 -128l276 -558h-272l-243 519h-268v-519h-240v1365h530z" />
    <glyph glyph-name="S" unicode="S" horiz-adv-x="1191" 
d="M590 170q132 0 204 55t73 139t-51 128t-163 71l-219 53q-142 32 -241 120q-98 88 -98 233t69 239q136 186 430 187q138 0 250 -47q112 -48 178 -140t68 -214h-230q-7 89 -76 147t-188 58q-118 1 -188 -51t-70 -142q0 -133 188 -177l220 -53q268 -62 336 -229
q27 -66 27 -152q1 -198 -145 -310t-387 -112q-312 1 -444 185q-71 99 -73 224h235q8 -92 86 -152q77 -60 209 -60z" />
    <glyph glyph-name="T" unicode="T" horiz-adv-x="1067" 
d="M653 0h-240v1160h-396v205h1033v-205h-397v-1160z" />
    <glyph glyph-name="U" unicode="U" horiz-adv-x="1352" 
d="M377 1365v-873q1 -146 81 -228t218 -83q138 0 218 83q82 83 82 228v873h241v-892q-1 -226 -149 -363t-392 -137t-392 138t-149 365v889h242z" />
    <glyph glyph-name="V" unicode="V" horiz-adv-x="1234" 
d="M759 0h-282l-466 1365h279l329 -1084h9l326 1084h270z" />
    <glyph glyph-name="W" unicode="W" horiz-adv-x="1726" 
d="M595 0h-222l-364 1365h266l220 -1002h9l250 1002h219l249 -1002h10l219 1002h266l-365 -1365h-222l-263 983h-9z" />
    <glyph glyph-name="X" unicode="X" horiz-adv-x="1167" 
d="M1175 1365l-440 -686l433 -679h-281l-305 500h-12l-306 -500h-265l429 688l-425 677h286l302 -506h11l299 506h274z" />
    <glyph glyph-name="Y" unicode="Y" horiz-adv-x="1132" 
d="M687 0h-242v539l-456 826h270l305 -587h8l308 587h264l-457 -822v-543z" />
    <glyph glyph-name="Z" unicode="Z" horiz-adv-x="1167" 
d="M84 0v161l681 993v9h-661v202h955v-160l-678 -993v-9h697v-203h-994z" />
    <glyph glyph-name="bracketleft" unicode="[" horiz-adv-x="695" 
d="M121 1365h499v-174h-273v-1245h286v-174h-512v1593z" />
    <glyph glyph-name="backslash" unicode="\" horiz-adv-x="687" 
d="M689 -296h-211l-476 1733h211z" />
    <glyph glyph-name="bracketright" unicode="]" horiz-adv-x="695" 
d="M74 1365h500v-1593h-512v174h287v1245h-275v174z" />
    <glyph glyph-name="asciicircum" unicode="^" horiz-adv-x="838" 
d="M798 795h-204l-171 382h-8l-174 -382h-200l275 570h209z" />
    <glyph glyph-name="underscore" unicode="_" horiz-adv-x="850" 
d="M877 -285h-904v182h904v-182z" />
    <glyph glyph-name="grave" unicode="`" horiz-adv-x="947" 
d="M624 1221h-195l-248 283h240z" />
    <glyph glyph-name="a" unicode="a" horiz-adv-x="1086" 
d="M510 162q86 0 148 55t62 138v108h-220q-90 1 -136 -39t-47 -111q0 -71 54 -111t139 -40zM428 -16q-156 0 -252 86t-95 232q-1 146 97 230t278 84h264v112q0 160 -180 160t-195 -147h-225q8 144 106 239t304 95q425 0 425 -352v-723h-223v136h-10q-38 -68 -112 -110
t-182 -42z" />
    <glyph glyph-name="b" unicode="b" horiz-adv-x="1182" 
d="M612 178q112 0 176 80t64 226v85q0 150 -62 231t-173 81q-109 1 -175 -83t-66 -219v-103q0 -128 62 -213t174 -85zM687 -14q-117 0 -197 48t-110 128h-9v-162h-231v1437h236v-531h9q83 167 306 167q191 0 297 -130t105 -358v-110q0 -233 -107 -361t-299 -128z" />
    <glyph glyph-name="c" unicode="c" horiz-adv-x="1054" 
d="M88 480v105q0 219 122 355t329 136t321 -104t116 -254h-221q-8 66 -61 117t-152 51q-98 0 -158 -85t-60 -221v-100q0 -136 62 -219t161 -83q101 0 151 42t62 107h221q-4 -151 -123 -248q-118 -97 -322 -97t-326 134t-122 364z" />
    <glyph glyph-name="d" unicode="d" horiz-adv-x="1184" 
d="M564 881q-114 0 -174 -85t-60 -231v-71q0 -148 61 -232t175 -85q114 1 178 83t63 232v79q-1 144 -65 227t-178 83zM494 1073q118 -1 197 -47t107 -120h9v531h236v-1437h-231v162h-9q-22 -74 -105 -125t-204 -51q-192 0 -298 130t-107 354v120q0 221 106 352t299 131z" />
    <glyph glyph-name="e" unicode="e" horiz-adv-x="1089" 
d="M321 636h454v2q0 114 -61 185q-62 71 -166 71t-166 -72t-61 -184v-2zM88 482v89q0 233 122 369t339 136t337 -137t119 -367v-95h-684v-33q0 -117 62 -196t165 -79q102 0 154 40t64 101h228q-11 -95 -74 -177q-117 -151 -351 -151q-233 0 -357 134t-124 366z" />
    <glyph glyph-name="f" unicode="f" horiz-adv-x="726" 
d="M213 0v865h-155v185h155v106q1 156 83 227t261 71q60 0 104 -7v-173q-45 3 -61 3q-80 1 -118 -31t-38 -110v-86h204v-185h-201v-865h-234z" />
    <glyph glyph-name="g" unicode="g" horiz-adv-x="1155" 
d="M561 881q-109 1 -175 -81t-66 -222v-88q0 -139 68 -217t176 -78t170 81t61 206v97q-1 133 -63 217t-171 85zM563 -212q109 0 171 62t62 177v151h-9q-31 -72 -111 -118t-189 -47q-179 0 -293 126t-114 344v116q0 217 114 345t295 129q119 -1 194 -47t109 -120h9v152h230
v-1040q0 -309 -300 -389q-86 -23 -192 -23q-215 0 -324 95q-108 95 -112 222h232q11 -59 65 -97t163 -38z" />
    <glyph glyph-name="h" unicode="h" horiz-adv-x="1191" 
d="M141 0v1437h236v-528h10q26 65 101 115t193 51q173 0 277 -111t103 -297v-667h-237v614q0 122 -58 190t-162 67q-104 0 -166 -67t-61 -191v-613h-236z" />
    <glyph glyph-name="i" unicode="i" horiz-adv-x="554" 
d="M135 1320q-1 54 39 90t102 36t102 -36t40 -90t-39 -90t-102 -36t-103 36t-39 90zM159 0v1058h236v-1058h-236z" />
    <glyph glyph-name="j" unicode="j" horiz-adv-x="553" 
d="M394 1058v-1078q0 -178 -87 -263t-243 -85q-72 0 -106 8v174q25 -5 60 -5q74 -1 108 41t33 133v1075h235zM135 1320q-1 54 39 90t102 36t102 -36t40 -90t-39 -90t-102 -36t-103 36t-39 90z" />
    <glyph glyph-name="k" unicode="k" horiz-adv-x="1075" 
d="M376 0h-237v1437h237v-831h10l377 452h268l-395 -457l422 -601h-278l-322 463l-82 -88v-375z" />
    <glyph glyph-name="l" unicode="l" horiz-adv-x="525" 
d="M145 0v1437h236v-1437h-236z" />
    <glyph glyph-name="m" unicode="m" horiz-adv-x="1767" 
d="M137 0v1058h232v-145h12q26 65 97 113q72 48 184 49t187 -47t105 -132h10q30 75 114 127t209 52q163 1 255 -95t93 -258v-722h-236v660q-1 102 -53 158t-146 56t-146 -60q-53 -60 -53 -165v-649h-230v649q1 113 -53 169t-144 56t-145 -58q-56 -58 -56 -165v-651h-236z
" />
    <glyph glyph-name="n" unicode="n" horiz-adv-x="1185" 
d="M137 0v1058h232v-149h9q30 68 110 117t195 49q163 -1 267 -99t103 -277v-699h-237v625q0 246 -219 246q-105 0 -165 -65t-59 -188v-618h-236z" />
    <glyph glyph-name="o" unicode="o" horiz-adv-x="1126" 
d="M564 890q-133 0 -186 -96t-53 -234v-61q0 -232 124 -302q49 -27 115 -27q134 0 185 96t51 233v61q0 330 -236 330zM564 1076q232 0 354 -138t121 -369v-76q0 -239 -121 -375t-354 -136q-232 0 -354 136t-122 375v75q0 311 212 441q109 67 264 67z" />
    <glyph glyph-name="p" unicode="p" horiz-adv-x="1180" 
d="M614 178q108 0 172 78t63 229v89q0 148 -63 228q-64 80 -174 79t-174 -81t-64 -214v-108q0 -132 66 -216t174 -84zM688 -14q-116 0 -192 45t-112 118h-10v-506h-236v1416h231v-153h9q33 76 114 122t200 45q182 0 290 -127t108 -354v-127q0 -227 -108 -353t-294 -126z" />
    <glyph glyph-name="q" unicode="q" horiz-adv-x="1179" 
d="M566 880q-112 0 -174 -80t-62 -225v-92q0 -145 63 -226t175 -81t174 86t63 218v96q1 142 -63 223t-176 81zM493 1073q117 0 195 -45t113 -122h9v152h231v-1416h-236v507h-9q-32 -75 -112 -119t-193 -44q-188 0 -295 128t-107 352v130q-1 220 109 348t295 129z" />
    <glyph glyph-name="r" unicode="r" horiz-adv-x="752" 
d="M150 0v1058h236v-137h9q60 153 251 153q41 0 78 -7v-207q-25 8 -98 8q-236 0 -236 -246v-622h-240z" />
    <glyph glyph-name="s" unicode="s" horiz-adv-x="1014" 
d="M93 761q0 73 34 137q35 64 93 102q117 76 295 76q177 0 283 -88t106 -233h-211q-6 63 -51 109t-134 45q-89 1 -139 -37t-50 -90q1 -52 17 -70t26 -28t32 -18q21 -8 34 -13t40 -11q28 -6 40 -8t42 -8q30 -4 74 -12q119 -20 215 -84t96 -216q-1 -152 -119 -242t-318 -90
t-312 84q-113 84 -113 227h230q9 -64 61 -103t146 -39q95 -1 145 39t50 112t-99 106q-80 27 -164 37q-209 42 -279 115q-70 74 -70 201z" />
    <glyph glyph-name="t" unicode="t" horiz-adv-x="715" 
d="M203 1050v264h230v-264h206v-185h-206v-543q-1 -84 35 -114t100 -30t77 2v-179q-51 -8 -145 -8t-168 33q-74 34 -104 98t-29 174v567h-148v185h152z" />
    <glyph glyph-name="u" unicode="u" horiz-adv-x="1181" 
d="M1043 1058v-1058h-231v150h-10q-29 -70 -107 -118t-199 -48q-168 0 -267 96t-99 276v702h237v-638q1 -126 61 -180t158 -54t159 62q62 62 62 175v635h236z" />
    <glyph glyph-name="v" unicode="v" horiz-adv-x="1026" 
d="M376 0l-358 1058h258l226 -832h10l247 832h250l-375 -1058h-258z" />
    <glyph glyph-name="w" unicode="w" horiz-adv-x="1532" 
d="M1508 1058l-277 -1058h-242l-215 772h-7l-211 -772h-244l-288 1058h253l164 -797h10l208 797h222l214 -797h10l168 797h235z" />
    <glyph glyph-name="x" unicode="x" horiz-adv-x="1060" 
d="M748 0l-219 369h-10l-220 -369h-254l337 525l-346 533h276l214 -367h10l221 367h262l-350 -521l348 -537h-269z" />
    <glyph glyph-name="y" unicode="y" horiz-adv-x="1072" 
d="M250 -380q-82 0 -144 11v175q34 -6 105 -6q143 0 176 151l12 43l-373 1064h261l243 -848h9l247 848h250q-353 -1031 -356 -1039l-27 -72q-54 -146 -142 -236q-87 -91 -261 -91z" />
    <glyph glyph-name="z" unicode="z" horiz-adv-x="989" 
d="M88 0v140l524 723v12h-521v183h809v-151l-512 -711v-11h522v-185h-822z" />
    <glyph glyph-name="braceleft" unicode="{" horiz-adv-x="766" 
d="M470 817q0 -202 -186 -220v-26q186 -17 186 -230v-277q0 -110 46 -156t164 -45h41v-176h-82q-198 0 -295 82t-97 269v234q1 108 -33 154t-129 45v225q95 0 129 46t33 153v204q1 185 97 263t295 79h82v-175h-41q-118 0 -164 -46t-46 -155v-248z" />
    <glyph glyph-name="bar" unicode="|" horiz-adv-x="691" 
d="M450 -302h-209v1739h209v-1739z" />
    <glyph glyph-name="braceright" unicode="}" horiz-adv-x="766" 
d="M296 817v248q0 109 -46 155t-164 46h-41v175h83q198 -1 294 -79t96 -263v-204q0 -107 34 -153t130 -46v-225q-96 1 -130 -45t-34 -154v-234q0 -187 -96 -269t-294 -82h-83v176h41q118 -1 164 45t46 156v277q0 213 186 230v26q-186 18 -186 220z" />
    <glyph glyph-name="asciitilde" unicode="~" horiz-adv-x="1114" 
d="M746 483q-106 0 -222 106q-15 15 -28 25l-24 20t-16 14q-6 4 -16 11q-36 24 -70 24q-113 0 -123 -163h-183q0 156 70 260t227 104q115 0 219 -98t161 -99q114 0 124 162h183q0 -219 -128 -315q-68 -52 -174 -51z" />
    <glyph glyph-name="nonbreakingspace" unicode="&#xa0;" horiz-adv-x="405" 
 />
    <glyph glyph-name="exclamdown" unicode="&#xa1;" horiz-adv-x="544" 
d="M421 974q0 -58 -41 -94q-40 -36 -106 -37q-66 1 -108 37t-41 94q0 58 41 96q41 36 107 36t107 -36q41 -38 41 -96zM402 -277h-262l28 953h206z" />
    <glyph glyph-name="cent" unicode="&#xa2;" horiz-adv-x="1144" 
d="M666 -85h-182v225q-166 18 -270 140t-105 324v158q0 194 105 316t270 141v234h182v-235q152 -16 246 -116t97 -227h-218q-9 58 -44 96q-67 71 -178 71t-175 -78t-64 -204v-157q0 -129 66 -204t173 -75t161 43t67 108h217q-3 -131 -98 -225t-250 -110v-225z" />
    <glyph glyph-name="sterling" unicode="&#xa3;" horiz-adv-x="1144" 
d="M1079 193v-193h-986v202q45 3 71 11q26 7 50 31q45 44 45 190v169h-183v167h183v265q0 167 112 261q111 94 297 95q186 -1 293 -93t111 -260h-222q-4 70 -52 115t-134 45t-133 -53q-46 -53 -46 -136v-239h294v-167h-294l-1 -178q-2 -178 -77 -218v-14h672z" />
    <glyph glyph-name="currency" unicode="&#xa4;" horiz-adv-x="1144" 
d="M343 652q0 -96 67 -162q68 -66 162 -66t162 67t67 161q1 94 -67 162t-162 67q-94 0 -162 -67q-67 -67 -67 -162zM569 251q-115 0 -211 62l-169 -170l-123 124l168 169q-64 96 -64 214t61 213l-165 165l124 124l163 -164q99 66 217 66t217 -63l161 161l124 -124l-162 -161
q63 -97 63 -217t-67 -218l166 -165l-124 -124l-167 167q-97 -59 -212 -59z" />
    <glyph glyph-name="yen" unicode="&#xa5;" horiz-adv-x="1144" 
d="M982 232h-289v-232h-241v232h-286v153h286v130h-286v153h218l-389 697h270l304 -587h11l306 587h264l-390 -697h222v-153h-289v-130h289v-153z" />
    <glyph glyph-name="brokenbar" unicode="&#xa6;" horiz-adv-x="514" 
d="M361 -302h-208v681h208v-681zM361 781h-208v656h208v-656z" />
    <glyph glyph-name="section" unicode="&#xa7;" horiz-adv-x="931" 
d="M663 566q0 118 -194 162q-26 6 -69 14q-45 -15 -81 -62t-36 -110q1 -64 49 -100t143 -60q7 -2 82 -20q46 20 76 68q30 46 30 108zM650 72q0 82 -98 122q-45 18 -94 31t-54 15t-46 12q-107 28 -197 94q-89 66 -89 200q0 161 167 249v8q-160 90 -160 257q-1 106 55 183
q108 150 339 150q173 0 277 -90t104 -231h-200q-4 57 -54 102t-129 45t-127 -41t-48 -99t41 -94t80 -49q39 -12 85 -24t78 -20q30 -8 69 -20q106 -35 167 -98q60 -62 60 -176q0 -158 -153 -260v-8q67 -42 107 -96t39 -141q-1 -155 -113 -249t-290 -95q-178 0 -292 86
q-113 86 -114 232h206q10 -67 60 -105t140 -38t138 42q46 42 46 106z" />
    <glyph glyph-name="dieresis" unicode="&#xa8;" horiz-adv-x="947" 
d="M544 1326q0 48 30 79t81 31q50 0 81 -30t31 -80t-31 -80q-30 -30 -80 -30t-81 31t-31 79zM164 1326q0 48 30 79t80 31t81 -30t31 -80t-31 -80t-80 -30t-80 31t-31 79z" />
    <glyph glyph-name="copyright" unicode="&#xa9;" horiz-adv-x="1640" 
d="M800 -64q-183 0 -348 92q-166 92 -256 254t-90 362v103q0 142 54 268t148 218q94 91 229 145t289 54t290 -54q134 -54 228 -146t148 -219q54 -126 54 -266v-103q0 -151 -53 -282q-53 -130 -147 -224t-228 -148q-135 -54 -318 -54zM235 641q0 -167 73 -299
q74 -132 208 -206t309 -74q265 0 429 163t164 416v106q0 115 -44 217t-120 178q-76 75 -188 119t-241 44q-129 1 -240 -43t-187 -120q-162 -160 -163 -395v-106zM493 632v99q-1 156 93 244t239 88t231 -78t87 -182h-154q-5 47 -43 85t-113 37q-182 0 -182 -200v-94
q0 -95 49 -143t133 -47q142 0 160 105h154q-3 -103 -86 -176t-233 -73q-150 -1 -242 87q-93 88 -93 248z" />
    <glyph glyph-name="ordfeminine" unicode="&#xaa;" horiz-adv-x="649" 
d="M213 954q1 -36 29 -56t72 -20t77 26t33 66v54h-111q-100 2 -100 -70zM329 1368q255 0 255 -202v-392h-153v74h-7q-46 -83 -152 -83q-106 -1 -162 47t-56 131t56 129t168 47h146v51q0 79 -92 79t-102 -57h-151q5 80 65 128t185 48z" />
    <glyph glyph-name="guillemotleft" unicode="&#xab;" horiz-adv-x="1279" 
d="M99 565l344 404h233l-339 -403v-6l339 -405h-242l-335 402v8zM592 565l344 404h233l-339 -403v-6l339 -405h-242l-335 402v8z" />
    <glyph glyph-name="logicalnot" unicode="&#xac;" horiz-adv-x="1144" 
d="M1067 91h-205v358h-788v189h993v-547z" />
    <glyph glyph-name="registered" unicode="&#xae;" horiz-adv-x="1158" 
d="M504 689h-109v480h231q72 -1 117 -43t45 -101t-27 -97t-68 -51l110 -188h-123l-95 175h-81v-175zM504 1087v-142h77q94 0 94 72q-1 33 -23 51t-61 19h-87zM579 517q171 1 281 107t110 267v68q0 151 -112 256t-279 105q-168 0 -279 -104t-111 -257v-68q0 -161 110 -267
t280 -107zM580 414q-216 0 -356 136t-141 341v69q1 194 143 328t352 134t354 -134q143 -134 143 -328v-69q0 -205 -140 -341q-139 -136 -355 -136z" />
    <glyph glyph-name="macron" unicode="&#xaf;" horiz-adv-x="947" 
d="M755 1254h-571v129h571v-129z" />
    <glyph glyph-name="degree" unicode="&#xb0;" horiz-adv-x="551" 
d="M278 1036q46 0 76 32q32 32 32 79q0 46 -32 78t-76 32q-46 0 -78 -32q-32 -31 -33 -77q1 -46 33 -79t78 -33zM276 908q-100 0 -169 69t-69 169t69 170q69 68 169 68t170 -69t69 -169q1 -100 -69 -168q-70 -70 -170 -70z" />
    <glyph glyph-name="plusminus" unicode="&#xb1;" horiz-adv-x="1144" 
d="M1054 87h-961v186h961v-186zM670 648v-264h-201v264h-379v182h379v248h201v-248h382v-182h-382z" />
    <glyph glyph-name="twosuperior" unicode="&#xb2;" horiz-adv-x="643" 
d="M223 1153h-156v11q-1 87 63 151t180 64t182 -55q67 -55 67 -142q1 -45 -23 -91t-44 -67t-54 -56l-146 -138v-3h278v-133h-489v102l243 246q74 74 74 118t-25 66t-63 23q-38 -1 -63 -25q-24 -24 -24 -59v-12z" />
    <glyph glyph-name="threesuperior" unicode="&#xb3;" horiz-adv-x="654" 
d="M436 1044q146 -22 146 -170q0 -82 -76 -137t-192 -55t-184 60t-69 145h151q2 -34 30 -56t74 -22t76 24q30 25 29 61q0 36 -28 59t-76 23h-77v124h75q41 0 66 22t25 57q0 34 -25 55t-67 21q-42 -1 -66 -23t-26 -55h-151q5 90 69 146t176 56t178 -49t67 -118
q0 -69 -36 -110t-89 -54v-4z" />
    <glyph glyph-name="acute" unicode="&#xb4;" horiz-adv-x="947" 
d="M412 1218h-195l198 286h240z" />
    <glyph glyph-name="paragraph" unicode="&#xb6;" horiz-adv-x="1348" 
d="M959 -210v1575h226v-1575h-226zM798 -210h-227v685h-20q-127 0 -241 66q-214 124 -215 388q0 263 215 377q112 58 242 59h246v-1575z" />
    <glyph glyph-name="periodcentered" unicode="&#xb7;" horiz-adv-x="607" 
d="M140 741q0 62 40 100t102 38q61 -1 102 -39t41 -100t-41 -100q-42 -38 -102 -38t-101 38t-41 101z" />
    <glyph glyph-name="cedilla" unicode="&#xb8;" horiz-adv-x="947" 
d="M353 -235v94l56 148h144l-50 -132q92 1 146 -43t54 -131q-1 -87 -65 -135t-160 -50q-96 -3 -160 15v117q44 -13 113 -13q113 0 113 67q0 41 -37 52t-100 11h-54z" />
    <glyph glyph-name="onesuperior" unicode="&#xb9;" horiz-adv-x="575" 
d="M427 694h-165v517h-8l-154 -110v147l162 117h165v-671z" />
    <glyph glyph-name="ordmasculine" unicode="&#xba;" horiz-adv-x="653" 
d="M328 1368q128 0 204 -74q77 -74 77 -198v-61q0 -130 -76 -202t-206 -72q-131 -1 -207 71t-76 202v62q0 122 78 197t206 75zM327 1246q-59 0 -91 -42t-32 -109v-60q0 -68 30 -110t92 -42t92 42t31 110v60q0 67 -31 109t-91 42z" />
    <glyph glyph-name="guillemotright" unicode="&#xbb;" horiz-adv-x="1279" 
d="M683 565v-8l-335 -402h-242l339 405v6l-339 403h233zM1176 565v-8l-335 -402h-242l339 405v6l-339 403h233z" />
    <glyph glyph-name="onequarter" unicode="&#xbc;" horiz-adv-x="1370" 
d="M237 0h-184l544 704l503 661h185l-538 -696zM348 694h-165v517h-8l-154 -110v147l162 117h165v-671zM1263 670v-435h81v-122h-81v-113h-147v113h-333v120q71 130 258 437h222zM931 235h185v312h-7q-76 -121 -178 -310v-2z" />
    <glyph glyph-name="onehalf" unicode="&#xbd;" horiz-adv-x="1383" 
d="M237 0h-184l544 704l503 661h185l-538 -696zM348 694h-165v517h-8l-154 -110v147l162 117h165v-671zM1031 449h-158v11q1 88 65 153t181 65t185 -56t68 -136t-40 -132q-40 -53 -83 -93l-148 -139v-3h282v-135h-496v103l246 249q75 75 75 120q0 46 -25 68t-64 22t-63 -25
t-25 -60v-12z" />
    <glyph glyph-name="threequarters" unicode="&#xbe;" horiz-adv-x="1420" 
d="M287 0h-184l544 704l503 661h185l-538 -696zM394 1028q148 -22 148 -172q0 -82 -76 -138q-76 -55 -194 -55t-186 61t-70 146h152q2 -34 30 -56t75 -23q47 0 77 24t29 61q0 36 -28 60t-77 24h-78v125h76q42 1 67 23t25 56t-25 56q-25 21 -67 21q-42 -1 -67 -23t-27 -55
h-152q4 91 70 147t178 57q113 1 180 -49t67 -120q-1 -70 -37 -111q-36 -42 -90 -55v-4zM1314 670v-434h80v-123h-80v-113h-148v113h-333v120q63 117 258 437h223zM981 236h185v311h-7q-71 -110 -178 -308v-3z" />
    <glyph glyph-name="questiondown" unicode="&#xbf;" horiz-adv-x="967" 
d="M177 -229q-127 90 -127 260q0 171 138 284l66 51q85 64 119 105q33 40 33 121v55h218l1 -69q5 -103 -43 -177t-155 -151q-107 -76 -127 -136q-10 -28 -10 -64q0 -89 58 -134t149 -45t145 59t55 152h219q6 -244 -190 -345q-108 -56 -265 -56t-284 90zM658 962
q0 -59 -41 -95t-107 -36q-66 1 -107 37t-41 94t41 96q41 36 107 36t107 -36t41 -96z" />
    <glyph glyph-name="Agrave" unicode="&#xc0;" horiz-adv-x="1241" 
d="M747 1507h-200l-298 208h242zM618 1120h-9l-179 -568h366zM261 0h-244l466 1365h275l465 -1365h-259l-116 368h-471z" />
    <glyph glyph-name="Aacute" unicode="&#xc1;" horiz-adv-x="1241" 
d="M484 1507l262 213h249l-304 -213h-207zM618 1120h-9l-179 -568h366zM261 0h-244l466 1365h275l465 -1365h-259l-116 368h-471z" />
    <glyph glyph-name="Acircumflex" unicode="&#xc2;" horiz-adv-x="1241" 
d="M277 1502l273 240h149l269 -240h-194l-145 134h-11l-147 -134h-194zM618 1120h-9l-179 -568h366zM261 0h-244l466 1365h275l465 -1365h-259l-116 368h-471z" />
    <glyph glyph-name="Atilde" unicode="&#xc3;" horiz-adv-x="1241" 
d="M730 1584q58 0 66 99h128q0 -84 -50 -147t-118 -63q-66 1 -96 15t-46 30t-28 26q-38 36 -67 36q-60 0 -64 -88h-128q-1 84 45 146t130 61t168 -83q32 -32 60 -32zM618 1120h-9l-179 -568h366zM261 0h-244l466 1365h275l465 -1365h-259l-116 368h-471z" />
    <glyph glyph-name="Adieresis" unicode="&#xc4;" horiz-adv-x="1241" 
d="M705 1582q-1 44 27 72t72 27q44 1 72 -27t28 -72t-28 -70q-28 -28 -72 -28t-72 28q-28 26 -27 70zM376 1582q0 44 28 72t71 27q44 1 72 -27t28 -72q1 -44 -27 -70q-28 -28 -72 -28t-72 28q-28 26 -28 70zM618 1120h-9l-179 -568h366zM261 0h-244l466 1365h275l465 -1365
h-259l-116 368h-471z" />
    <glyph glyph-name="Aring" unicode="&#xc5;" horiz-adv-x="1241" 
d="M376 1481q0 107 70 175t170 69q100 -1 171 -69q70 -68 70 -171t-84 -165l450 -1320h-259l-115 368h-471l-117 -368h-243l449 1312q-91 62 -91 169zM797 552l-177 568h-11l-178 -568h366zM507 1488q1 -46 33 -78t78 -31q46 -1 77 31q32 32 32 78t-32 76q-31 32 -77 32
t-78 -32q-32 -30 -33 -76z" />
    <glyph glyph-name="AE" unicode="&#xc6;" horiz-adv-x="1879" 
d="M917 376h-448l-191 -376h-268l692 1365h1070v-201h-615v-376h579v-191h-579v-395h615v-202h-855v376zM917 566v598h-69l-292 -598h361z" />
    <glyph glyph-name="Ccedilla" unicode="&#xc7;" horiz-adv-x="1270" 
d="M610 -365q112 0 112 67q0 41 -37 52t-99 11h-54v94l44 118q-228 25 -354 185t-126 435v165q0 300 149 465t411 165q123 0 224 -39t166 -105q136 -139 136 -330v-19h-234q0 116 -78 201t-218 85t-226 -108t-86 -316v-163q0 -210 85 -314t229 -103t218 77q76 76 76 191h234
v-20q0 -165 -115 -295q-56 -64 -146 -106q-90 -43 -201 -52l-39 -101q93 1 147 -43t54 -131t-65 -135t-159 -50t-162 15v117q44 -13 114 -13z" />
    <glyph glyph-name="Egrave" unicode="&#xc8;" horiz-adv-x="1118" 
d="M1012 202v-202h-862v1365h862v-202h-621v-375h584v-191h-584v-395h621zM701 1507h-200l-298 208h242z" />
    <glyph glyph-name="Eacute" unicode="&#xc9;" horiz-adv-x="1118" 
d="M1012 202v-202h-862v1365h862v-202h-621v-375h584v-191h-584v-395h621zM438 1507l262 213h249l-304 -213h-207z" />
    <glyph glyph-name="Ecircumflex" unicode="&#xca;" horiz-adv-x="1118" 
d="M1012 202v-202h-862v1365h862v-202h-621v-375h584v-191h-584v-395h621zM231 1502l273 240h149l269 -240h-194l-145 134h-11l-147 -134h-194z" />
    <glyph glyph-name="Edieresis" unicode="&#xcb;" horiz-adv-x="1118" 
d="M1012 202v-202h-862v1365h862v-202h-621v-375h584v-191h-584v-395h621zM658 1582q0 44 28 72t72 27q44 1 72 -27t27 -72q1 -44 -27 -70q-28 -28 -72 -28t-72 28q-28 26 -28 70zM329 1582q-1 44 27 72t72 27q44 1 72 -27t28 -72t-28 -70q-28 -28 -72 -28t-72 28
q-28 26 -27 70z" />
    <glyph glyph-name="Igrave" unicode="&#xcc;" horiz-adv-x="543" 
d="M398 1507h-200l-298 208h242zM392 0h-242v1365h242v-1365z" />
    <glyph glyph-name="Iacute" unicode="&#xcd;" horiz-adv-x="543" 
d="M135 1507l262 213h249l-304 -213h-207zM392 0h-242v1365h242v-1365z" />
    <glyph glyph-name="Icircumflex" unicode="&#xce;" horiz-adv-x="543" 
d="M-72 1502l273 240h149l269 -240h-194l-145 134h-11l-147 -134h-194zM392 0h-242v1365h242v-1365z" />
    <glyph glyph-name="Idieresis" unicode="&#xcf;" horiz-adv-x="543" 
d="M356 1582q0 44 28 72t72 27q44 1 72 -27t27 -72q1 -44 -27 -70q-28 -28 -72 -28t-72 28q-28 26 -28 70zM27 1582q-1 44 27 72t72 27q44 1 72 -27t28 -72t-28 -70q-28 -28 -72 -28t-72 28q-28 26 -27 70zM392 0h-242v1365h242v-1365z" />
    <glyph glyph-name="Eth" unicode="&#xd0;" horiz-adv-x="1402" 
d="M477 205h209q194 -1 290 115t97 365q-1 354 -205 448q-76 35 -182 35h-209v-368h265v-210h-265v-385zM1323 701q0 -701 -607 -701h-481v590h-163v210h163v565h481q462 -1 574 -405q34 -122 33 -259z" />
    <glyph glyph-name="Ntilde" unicode="&#xd1;" horiz-adv-x="1375" 
d="M381 0h-231v1365h209l627 -955h8v955h230v-1365h-207l-629 958h-7v-958zM797 1584q58 0 66 99h128q-1 -84 -51 -147t-116 -63q-66 1 -98 15q-30 14 -46 30l-26 26q-38 36 -68 36q-60 0 -64 -88h-128q0 84 46 146t130 61t166 -83q32 -32 61 -32z" />
    <glyph glyph-name="Ograve" unicode="&#xd2;" horiz-adv-x="1338" 
d="M96 586v182q0 290 154 457t420 167t419 -167t153 -457v-182q0 -288 -154 -450t-420 -163q-268 0 -420 162t-152 451zM340 770v-185q0 -199 90 -303t238 -104t239 104q90 104 90 303v185q-1 201 -91 309t-238 108t-238 -108t-90 -309zM795 1507h-200l-298 208h242z" />
    <glyph glyph-name="Oacute" unicode="&#xd3;" horiz-adv-x="1338" 
d="M96 586v182q0 290 154 457t420 167t419 -167t153 -457v-182q0 -288 -154 -450t-420 -163q-268 0 -420 162t-152 451zM340 770v-185q0 -199 90 -303t238 -104t239 104q90 104 90 303v185q-1 201 -91 309t-238 108t-238 -108t-90 -309zM532 1507l262 213h249l-304 -213
h-207z" />
    <glyph glyph-name="Ocircumflex" unicode="&#xd4;" horiz-adv-x="1338" 
d="M96 586v182q0 290 154 457t420 167t419 -167t153 -457v-182q0 -288 -154 -450t-420 -163q-268 0 -420 162t-152 451zM340 770v-185q0 -199 90 -303t238 -104t239 104q90 104 90 303v185q-1 201 -91 309t-238 108t-238 -108t-90 -309zM325 1502l273 240h149l269 -240h-194
l-145 134h-11l-147 -134h-194z" />
    <glyph glyph-name="Otilde" unicode="&#xd5;" horiz-adv-x="1338" 
d="M778 1584q58 0 66 99h128q0 -84 -50 -147t-118 -63q-66 1 -96 15t-46 30t-28 26q-38 36 -67 36q-60 0 -64 -88h-128q-1 84 45 146t130 61t168 -83q32 -32 60 -32zM96 586v182q0 290 154 457t420 167t419 -167t153 -457v-182q0 -288 -154 -450t-420 -163q-268 0 -420 162
t-152 451zM340 770v-185q0 -199 90 -303t238 -104t239 104q90 104 90 303v185q-1 201 -91 309t-238 108t-238 -108t-90 -309z" />
    <glyph glyph-name="Odieresis" unicode="&#xd6;" horiz-adv-x="1338" 
d="M96 586v182q0 290 154 457t420 167t419 -167t153 -457v-182q0 -288 -154 -450t-420 -163q-268 0 -420 162t-152 451zM340 770v-185q0 -199 90 -303t238 -104t239 104q90 104 90 303v185q-1 201 -91 309t-238 108t-238 -108t-90 -309zM753 1582q-1 44 27 72t72 27
q44 1 72 -27t28 -72t-28 -70q-28 -28 -72 -28t-72 28q-28 26 -27 70zM424 1582q0 44 28 72t71 27q44 1 72 -27t28 -72q1 -44 -27 -70q-28 -28 -72 -28t-72 28q-28 26 -28 70z" />
    <glyph glyph-name="multiply" unicode="&#xd7;" horiz-adv-x="1144" 
d="M879 67l-307 307l-307 -307l-143 143l307 307l-307 307l143 143l307 -307l307 307l143 -143l-307 -307l307 -307z" />
    <glyph glyph-name="Oslash" unicode="&#xd8;" horiz-adv-x="1338" 
d="M668 173q150 1 242 105t91 305v187q0 102 -28 178l-544 -674q89 -101 239 -101zM336 583q0 -93 23 -162l541 671q-89 98 -235 98q-145 0 -237 -109t-92 -311v-187zM684 -27q-250 0 -395 128l-99 -123l-115 93l115 142q-94 151 -94 373v182q0 290 154 457t420 167
q226 0 372 -126l92 114l119 -86l-112 -138q101 -155 101 -388v-182q0 -288 -154 -450t-404 -163z" />
    <glyph glyph-name="Ugrave" unicode="&#xd9;" horiz-adv-x="1352" 
d="M377 1365v-873q1 -146 81 -228t218 -83q138 0 218 83q82 83 82 228v873h241v-892q-1 -226 -149 -363t-392 -137t-392 138t-149 365v889h242zM802 1507h-200l-298 208h242z" />
    <glyph glyph-name="Uacute" unicode="&#xda;" horiz-adv-x="1352" 
d="M377 1365v-873q1 -146 81 -228t218 -83q138 0 218 83q82 83 82 228v873h241v-892q-1 -226 -149 -363t-392 -137t-392 138t-149 365v889h242zM539 1507l262 213h249l-304 -213h-207z" />
    <glyph glyph-name="Ucircumflex" unicode="&#xdb;" horiz-adv-x="1352" 
d="M377 1365v-873q1 -146 81 -228t218 -83q138 0 218 83q82 83 82 228v873h241v-892q-1 -226 -149 -363t-392 -137t-392 138t-149 365v889h242zM332 1502l273 240h149l269 -240h-194l-145 134h-11l-147 -134h-194z" />
    <glyph glyph-name="Udieresis" unicode="&#xdc;" horiz-adv-x="1352" 
d="M377 1365v-873q1 -146 81 -228t218 -83q138 0 218 83q82 83 82 228v873h241v-892q-1 -226 -149 -363t-392 -137t-392 138t-149 365v889h242zM760 1582q0 44 28 72t72 27q44 1 72 -27t27 -72q1 -44 -27 -70q-28 -28 -72 -28t-72 28q-28 26 -28 70zM431 1582q-1 44 27 72
t72 27q44 1 72 -27t28 -72t-28 -70q-28 -28 -72 -28t-72 28q-28 26 -27 70z" />
    <glyph glyph-name="Yacute" unicode="&#xdd;" horiz-adv-x="1132" 
d="M430 1507l262 213h249l-304 -213h-207zM687 0h-242v539l-456 826h270l305 -587h8l308 587h264l-457 -822v-543z" />
    <glyph glyph-name="Thorn" unicode="&#xde;" horiz-adv-x="1180" 
d="M392 928v-444h206q206 0 256 110q20 46 21 113q0 221 -247 221h-236zM150 1365h241v-240h277q212 0 333 -113t121 -306q0 -192 -122 -304t-333 -112h-275v-290h-242v1365z" />
    <glyph glyph-name="germandbls" unicode="&#xdf;" horiz-adv-x="1283" 
d="M385 0h-238v1047q0 187 129 291q128 104 336 105t335 -99t127 -251t-81 -234q-80 -83 -166 -96v-14q144 -2 259 -94q114 -92 114 -267q0 -99 -40 -178q-40 -80 -108 -128q-140 -99 -338 -99q-103 0 -166 19v189q52 -20 132 -20t138 21q60 21 100 73t41 130
q-1 107 -85 169t-223 62h-77v207h46q84 -1 152 61t68 154t-60 146q-60 56 -164 56q-231 0 -231 -246v-1004z" />
    <glyph glyph-name="agrave" unicode="&#xe0;" horiz-adv-x="1086" 
d="M675 1222h-195l-248 283h240zM510 162q86 0 148 55t62 138v108h-220q-90 1 -136 -39t-47 -111q0 -71 54 -111t139 -40zM428 -16q-156 0 -252 86t-95 232q-1 146 97 230t278 84h264v112q0 160 -180 160t-195 -147h-225q8 144 106 239t304 95q425 0 425 -352v-723h-223v136
h-10q-38 -68 -112 -110t-182 -42z" />
    <glyph glyph-name="aacute" unicode="&#xe1;" horiz-adv-x="1086" 
d="M620 1219h-195l198 286h240zM510 162q86 0 148 55t62 138v108h-220q-90 1 -136 -39t-47 -111q0 -71 54 -111t139 -40zM428 -16q-156 0 -252 86t-95 232q-1 146 97 230t278 84h264v112q0 160 -180 160t-195 -147h-225q8 144 106 239t304 95q425 0 425 -352v-723h-223v136
h-10q-38 -68 -112 -110t-182 -42z" />
    <glyph glyph-name="acircumflex" unicode="&#xe2;" horiz-adv-x="1086" 
d="M238 1221l221 302h162l211 -303h-185l-105 182h-7l-115 -181h-182zM510 162q86 0 148 55t62 138v108h-220q-90 1 -136 -39t-47 -111q0 -71 54 -111t139 -40zM428 -16q-156 0 -252 86t-95 232q-1 146 97 230t278 84h264v112q0 160 -180 160t-195 -147h-225q8 144 106 239
t304 95q425 0 425 -352v-723h-223v136h-10q-38 -68 -112 -110t-182 -42z" />
    <glyph glyph-name="atilde" unicode="&#xe3;" horiz-adv-x="1086" 
d="M860 1416q0 -100 -56 -176t-142 -76t-167 81q-9 9 -13 12t-10 7t-8 6q-21 10 -38 11q-66 0 -70 -99h-140q0 106 50 179t141 73q90 0 174 -88q38 -40 70 -41q62 0 70 111h139zM510 162q86 0 148 55t62 138v108h-220q-90 1 -136 -39t-47 -111q0 -71 54 -111t139 -40z
M428 -16q-156 0 -252 86t-95 232q-1 146 97 230t278 84h264v112q0 160 -180 160t-195 -147h-225q8 144 106 239t304 95q425 0 425 -352v-723h-223v136h-10q-38 -68 -112 -110t-182 -42z" />
    <glyph glyph-name="adieresis" unicode="&#xe4;" horiz-adv-x="1086" 
d="M623 1278q1 48 31 79t80 31t81 -30t31 -80t-31 -80t-81 -30t-80 31t-31 79zM243 1278q1 48 31 79t80 31t80 -30q31 -30 31 -80t-31 -80q-30 -30 -80 -30t-80 31t-31 79zM510 162q86 0 148 55t62 138v108h-220q-90 1 -136 -39t-47 -111q0 -71 54 -111t139 -40zM428 -16
q-156 0 -252 86t-95 232q-1 146 97 230t278 84h264v112q0 160 -180 160t-195 -147h-225q8 144 106 239t304 95q425 0 425 -352v-723h-223v136h-10q-38 -68 -112 -110t-182 -42z" />
    <glyph glyph-name="aring" unicode="&#xe5;" horiz-adv-x="1086" 
d="M443 1389q0 -41 28 -69q29 -28 69 -29q40 1 68 29t27 69q1 41 -27 69t-68 28t-69 -28q-28 -28 -28 -69zM540 1188q-88 0 -148 58t-59 143q-1 86 59 143t148 57t147 -57q59 -58 59 -144t-59 -143t-147 -57zM510 162q86 0 148 55t62 138v108h-220q-90 1 -136 -39t-47 -111
q0 -71 54 -111t139 -40zM428 -16q-156 0 -252 86t-95 232q-1 146 97 230t278 84h264v112q0 160 -180 160t-195 -147h-225q8 144 106 239t304 95q425 0 425 -352v-723h-223v136h-10q-38 -68 -112 -110t-182 -42z" />
    <glyph glyph-name="ae" unicode="&#xe6;" horiz-adv-x="1730" 
d="M510 162q86 0 149 55t63 138v114h-219q-92 -1 -141 -41t-49 -112t56 -112q55 -42 141 -42zM1196 894q-100 0 -164 -68t-65 -175v-26h447v18q0 115 -59 183t-159 68zM428 -18q-150 0 -250 86t-99 236q-1 148 99 232t282 85h262v98q0 85 -50 127t-141 42q-162 0 -189 -115
h-224q10 139 116 221t303 82q107 0 195 -35t131 -98h14q43 61 129 97t187 36q203 0 327 -130t124 -348v-123h-677v-72q0 -103 66 -169t160 -65q93 -1 147 33t65 86h228q-9 -86 -73 -162q-120 -144 -354 -144q-148 0 -247 56t-140 143h-14q-45 -85 -137 -142
q-90 -57 -240 -57z" />
    <glyph glyph-name="ccedilla" unicode="&#xe7;" horiz-adv-x="1054" 
d="M581 -111q193 -1 193 -173q0 -88 -64 -134q-64 -48 -162 -52q-97 -4 -159 16v117q47 -14 113 -14q113 0 113 68q-1 39 -31 51t-99 11h-54v94l48 113q-185 21 -288 153t-103 341v105q0 219 122 355t329 136t321 -104t116 -254h-221q-8 66 -61 117t-152 51q-98 0 -158 -85
t-60 -221v-100q0 -136 62 -219t161 -83q101 0 151 42t62 107h221q-5 -134 -101 -228t-256 -113z" />
    <glyph glyph-name="egrave" unicode="&#xe8;" horiz-adv-x="1089" 
d="M321 636h454v2q0 114 -61 185q-62 71 -166 71t-166 -72t-61 -184v-2zM88 482v89q0 233 122 369t339 136t337 -137t119 -367v-95h-684v-33q0 -117 62 -196t165 -79q102 0 154 40t64 101h228q-11 -95 -74 -177q-117 -151 -351 -151q-233 0 -357 134t-124 366zM677 1222
h-195l-248 283h240z" />
    <glyph glyph-name="eacute" unicode="&#xe9;" horiz-adv-x="1089" 
d="M321 636h454v2q0 114 -61 185q-62 71 -166 71t-166 -72t-61 -184v-2zM88 482v89q0 233 122 369t339 136t337 -137t119 -367v-95h-684v-33q0 -117 62 -196t165 -79q102 0 154 40t64 101h228q-11 -95 -74 -177q-117 -151 -351 -151q-233 0 -357 134t-124 366zM622 1219
h-195l198 286h240z" />
    <glyph glyph-name="ecircumflex" unicode="&#xea;" horiz-adv-x="1089" 
d="M321 636h454v2q0 114 -61 185q-62 71 -166 71t-166 -72t-61 -184v-2zM88 482v89q0 233 122 369t339 136t337 -137t119 -367v-95h-684v-33q0 -117 62 -196t165 -79q102 0 154 40t64 101h228q-11 -95 -74 -177q-117 -151 -351 -151q-233 0 -357 134t-124 366zM240 1221
l221 302h162l211 -303h-185l-105 182h-7l-115 -181h-182z" />
    <glyph glyph-name="edieresis" unicode="&#xeb;" horiz-adv-x="1089" 
d="M625 1278q1 48 31 79t80 31t81 -30t31 -80t-31 -80t-81 -30t-80 31t-31 79zM245 1278q1 48 31 79t80 31t80 -30q31 -30 31 -80t-31 -80q-30 -30 -80 -30t-80 31t-31 79zM321 636h454v2q0 114 -61 185q-62 71 -166 71t-166 -72t-61 -184v-2zM88 482v89q0 233 122 369
t339 136t337 -137t119 -367v-95h-684v-33q0 -117 62 -196t165 -79q102 0 154 40t64 101h228q-11 -95 -74 -177q-117 -151 -351 -151q-233 0 -357 134t-124 366z" />
    <glyph glyph-name="igrave" unicode="&#xec;" horiz-adv-x="553" 
d="M161 0v1058h240v-1058h-240zM412 1222h-195l-248 283h240z" />
    <glyph glyph-name="iacute" unicode="&#xed;" horiz-adv-x="553" 
d="M161 0v1058h240v-1058h-240zM357 1219h-195l198 286h240z" />
    <glyph glyph-name="icircumflex" unicode="&#xee;" horiz-adv-x="553" 
d="M161 0v1058h240v-1058h-240zM-25 1221l221 302h162l211 -303h-185l-105 182h-7l-115 -181h-182z" />
    <glyph glyph-name="idieresis" unicode="&#xef;" horiz-adv-x="553" 
d="M360 1278q0 48 30 79t81 31q50 0 81 -30t31 -80t-31 -80q-30 -30 -80 -30t-81 31t-31 79zM-20 1278q0 48 30 79t80 31t81 -30t31 -80t-31 -80t-80 -30t-80 31t-31 79zM161 0v1058h240v-1058h-240z" />
    <glyph glyph-name="eth" unicode="&#xf0;" horiz-adv-x="1126" 
d="M565 837q-111 -1 -177 -81t-67 -216v-69q0 -141 65 -219q66 -78 178 -78t176 78t65 219v77q-1 140 -65 214t-175 75zM563 -18q-215 0 -345 128t-130 356v76q0 218 120 350t298 131q179 0 265 -104h12l-5 27q-6 28 -7 31q-27 120 -131 241l-279 -105l-44 118l228 84
q-84 78 -205 158l211 68q107 -54 198 -146l241 90l47 -114l-192 -72q92 -115 143 -262t51 -306v-259q0 -230 -130 -360t-346 -130z" />
    <glyph glyph-name="ntilde" unicode="&#xf1;" horiz-adv-x="1185" 
d="M137 0v1058h232v-149h9q30 68 110 117t195 49q163 -1 267 -99t103 -277v-699h-237v625q0 246 -219 246q-105 0 -165 -65t-59 -188v-618h-236zM910 1416q0 -100 -56 -176t-142 -76t-167 81q-9 9 -13 12t-10 7t-8 6q-21 10 -38 11q-66 0 -70 -99h-140q0 106 50 179t141 73
q90 0 174 -88q38 -40 70 -41q62 0 70 111h139z" />
    <glyph glyph-name="ograve" unicode="&#xf2;" horiz-adv-x="1126" 
d="M564 890q-133 0 -186 -96t-53 -234v-61q0 -232 124 -302q49 -27 115 -27q134 0 185 96t51 233v61q0 330 -236 330zM564 1076q232 0 354 -138t121 -369v-76q0 -239 -121 -375t-354 -136q-232 0 -354 136t-122 375v75q0 311 212 441q109 67 264 67zM696 1222h-195l-248 283
h240z" />
    <glyph glyph-name="oacute" unicode="&#xf3;" horiz-adv-x="1126" 
d="M564 890q-133 0 -186 -96t-53 -234v-61q0 -232 124 -302q49 -27 115 -27q134 0 185 96t51 233v61q0 330 -236 330zM564 1076q232 0 354 -138t121 -369v-76q0 -239 -121 -375t-354 -136q-232 0 -354 136t-122 375v75q0 311 212 441q109 67 264 67zM641 1219h-195l198 286
h240z" />
    <glyph glyph-name="ocircumflex" unicode="&#xf4;" horiz-adv-x="1126" 
d="M564 890q-133 0 -186 -96t-53 -234v-61q0 -232 124 -302q49 -27 115 -27q134 0 185 96t51 233v61q0 330 -236 330zM564 1076q232 0 354 -138t121 -369v-76q0 -239 -121 -375t-354 -136q-232 0 -354 136t-122 375v75q0 311 212 441q109 67 264 67zM259 1221l221 302h162
l211 -303h-185l-105 182h-7l-115 -181h-182z" />
    <glyph glyph-name="otilde" unicode="&#xf5;" horiz-adv-x="1126" 
d="M564 890q-133 0 -186 -96t-53 -234v-61q0 -232 124 -302q49 -27 115 -27q134 0 185 96t51 233v61q0 330 -236 330zM564 1076q232 0 354 -138t121 -369v-76q0 -239 -121 -375t-354 -136q-232 0 -354 136t-122 375v75q0 311 212 441q109 67 264 67zM672 1305q62 0 70 111
h139q-1 -100 -57 -176t-142 -76t-166 81q-9 9 -13 12q-3 3 -9 7l-9 6q-21 10 -38 11q-66 0 -70 -99h-140q1 106 51 179t140 73t174 -88q38 -40 70 -41z" />
    <glyph glyph-name="odieresis" unicode="&#xf6;" horiz-adv-x="1126" 
d="M564 890q-133 0 -186 -96t-53 -234v-61q0 -232 124 -302q49 -27 115 -27q134 0 185 96t51 233v61q0 330 -236 330zM564 1076q232 0 354 -138t121 -369v-76q0 -239 -121 -375t-354 -136q-232 0 -354 136t-122 375v75q0 311 212 441q109 67 264 67zM644 1278q0 48 30 79
t81 31q50 0 81 -30t31 -80t-31 -80q-30 -30 -80 -30t-81 31t-31 79zM264 1278q0 48 30 79t80 31t81 -30t31 -80t-31 -80t-80 -30t-80 31t-31 79z" />
    <glyph glyph-name="divide" unicode="&#xf7;" horiz-adv-x="1144" 
d="M426 166q0 64 42 106t106 41q64 1 107 -41t43 -106t-43 -103q-43 -40 -107 -40t-106 40q-42 39 -42 103zM420 968q0 64 43 105t106 41t107 -42t43 -104q1 -64 -43 -104t-107 -40t-106 40t-43 104zM1053 476h-961v178h961v-178z" />
    <glyph glyph-name="oslash" unicode="&#xf8;" horiz-adv-x="1126" 
d="M564 -18q-163 0 -283 80l-103 -132l-102 81l109 141q-97 127 -97 314v130q0 216 132 348t344 132q159 0 279 -81l101 130l104 -83l-108 -139q99 -129 99 -306v-131q0 -228 -130 -356t-345 -128zM319 452q0 -71 25 -121l377 505q-63 61 -167 61t-170 -87t-65 -221v-137z
M574 165q106 0 169 86t63 221v138q0 64 -24 117l-377 -502q63 -60 169 -60z" />
    <glyph glyph-name="ugrave" unicode="&#xf9;" horiz-adv-x="1181" 
d="M1043 1058v-1058h-231v150h-10q-29 -70 -107 -118t-199 -48q-168 0 -267 96t-99 276v702h237v-638q1 -126 61 -180t158 -54t159 62q62 62 62 175v635h236zM723 1222h-195l-248 283h240z" />
    <glyph glyph-name="uacute" unicode="&#xfa;" horiz-adv-x="1181" 
d="M1043 1058v-1058h-231v150h-10q-29 -70 -107 -118t-199 -48q-168 0 -267 96t-99 276v702h237v-638q1 -126 61 -180t158 -54t159 62q62 62 62 175v635h236zM668 1219h-195l198 286h240z" />
    <glyph glyph-name="ucircumflex" unicode="&#xfb;" horiz-adv-x="1181" 
d="M1043 1058v-1058h-231v150h-10q-29 -70 -107 -118t-199 -48q-168 0 -267 96t-99 276v702h237v-638q1 -126 61 -180t158 -54t159 62q62 62 62 175v635h236zM286 1221l221 302h162l211 -303h-185l-105 182h-7l-115 -181h-182z" />
    <glyph glyph-name="udieresis" unicode="&#xfc;" horiz-adv-x="1181" 
d="M671 1278q1 48 31 79t80 31t81 -30t31 -80t-31 -80t-81 -30t-80 31t-31 79zM291 1278q1 48 31 79t80 31t80 -30q31 -30 31 -80t-31 -80q-30 -30 -80 -30t-80 31t-31 79zM1043 1058v-1058h-231v150h-10q-29 -70 -107 -118t-199 -48q-168 0 -267 96t-99 276v702h237v-638
q1 -126 61 -180t158 -54t159 62q62 62 62 175v635h236z" />
    <glyph glyph-name="yacute" unicode="&#xfd;" horiz-adv-x="1072" 
d="M613 1219h-195l198 286h240zM250 -380q-82 0 -144 11v175q34 -6 105 -6q143 0 176 151l12 43l-373 1064h261l243 -848h9l247 848h250q-353 -1031 -356 -1039l-27 -72q-54 -146 -142 -236q-87 -91 -261 -91z" />
    <glyph glyph-name="thorn" unicode="&#xfe;" horiz-adv-x="1180" 
d="M616 178q108 0 170 76q63 76 63 226v98q0 148 -63 226t-174 77q-110 0 -174 -75t-64 -208v-152q0 -120 67 -194t175 -74zM688 -14q-118 0 -194 48t-108 126h-12v-517h-236l-1 1794h231l1 -546h12q31 80 111 131t200 51q182 0 290 -123t108 -342v-156q0 -222 -108 -344
t-294 -122z" />
    <glyph glyph-name="ydieresis" unicode="&#xff;" horiz-adv-x="1072" 
d="M616 1278q0 48 30 79t81 31q50 0 81 -30t31 -80t-31 -80q-30 -30 -80 -30t-81 31t-31 79zM236 1278q0 48 30 79t80 31t81 -30t31 -80t-31 -80t-80 -30t-80 31t-31 79zM250 -380q-82 0 -144 11v175q34 -6 105 -6q143 0 176 151l12 43l-373 1064h261l243 -848h9l247 848
h250q-353 -1031 -356 -1039l-27 -72q-54 -146 -142 -236q-87 -91 -261 -91z" />
    <glyph glyph-name="Amacron" unicode="&#x100;" horiz-adv-x="1241" 
d="M906 1516h-572v123h572v-123zM618 1120h-9l-179 -568h366zM261 0h-244l466 1365h275l465 -1365h-259l-116 368h-471z" />
    <glyph glyph-name="amacron" unicode="&#x101;" horiz-adv-x="1086" 
d="M829 1220h-571v129h571v-129zM510 162q86 0 148 55t62 138v108h-220q-90 1 -136 -39t-47 -111q0 -71 54 -111t139 -40zM428 -16q-156 0 -252 86t-95 232q-1 146 97 230t278 84h264v112q0 160 -180 160t-195 -147h-225q8 144 106 239t304 95q425 0 425 -352v-723h-223v136
h-10q-38 -68 -112 -110t-182 -42z" />
    <glyph glyph-name="Abreve" unicode="&#x102;" horiz-adv-x="1241" 
d="M291 1760h146q-1 -60 49 -100t134 -41q84 1 134 41t49 100h144q-1 -119 -83 -198t-244 -79t-246 79t-83 198zM618 1120h-9l-179 -568h366zM261 0h-244l466 1365h275l465 -1365h-259l-116 368h-471z" />
    <glyph glyph-name="abreve" unicode="&#x103;" horiz-adv-x="1086" 
d="M373 1461q-1 -69 41 -117t122 -47q80 -1 122 47t41 117h144q0 -113 -77 -205t-230 -92q-99 0 -171 44q-139 86 -137 253h145zM510 162q86 0 148 55t62 138v108h-220q-90 1 -136 -39t-47 -111q0 -71 54 -111t139 -40zM428 -16q-156 0 -252 86t-95 232q-1 146 97 230
t278 84h264v112q0 160 -180 160t-195 -147h-225q8 144 106 239t304 95q425 0 425 -352v-723h-223v136h-10q-38 -68 -112 -110t-182 -42z" />
    <glyph glyph-name="Aogonek" unicode="&#x104;" horiz-adv-x="1241" 
d="M620 1120h-11l-178 -568h366zM1156 -238q52 0 82 8v-138q-44 -20 -140 -20t-166 50t-71 147q0 125 131 215v6h-38l-105 338h-471l-117 -368h-243l466 1365h275l455 -1336q-68 -23 -118 -65t-52 -95q-2 -51 29 -79t83 -28z" />
    <glyph glyph-name="aogonek" unicode="&#x105;" horiz-adv-x="1086" 
d="M820 -388q-84 0 -152 50t-68 136t36 138q36 51 104 92v108h-11q-39 -68 -113 -110t-184 -42q-156 0 -254 87t-97 232q-1 145 97 229t278 84h264v112q0 160 -180 160t-195 -147h-225q7 150 110 242t304 92q421 0 421 -352v-699q-73 -20 -125 -64t-52 -95t32 -75t78 -24
t80 8v-140q-64 -22 -148 -22zM510 162q86 0 148 55t62 138v108h-220q-90 1 -136 -39t-47 -111q0 -71 54 -111t139 -40z" />
    <glyph glyph-name="Cacute" unicode="&#x106;" horiz-adv-x="1270" 
d="M340 761v-163q0 -210 85 -314t229 -103t218 77q76 76 76 191h234v-20q0 -178 -132 -312q-64 -65 -166 -105t-229 -39q-263 0 -411 163t-148 461v165q0 300 149 465t411 165q123 0 224 -39t166 -105q136 -139 136 -330v-19h-234q0 116 -78 201t-218 85t-226 -108t-86 -316
zM513 1507l262 213h249l-304 -213h-207z" />
    <glyph glyph-name="cacute" unicode="&#x107;" horiz-adv-x="1054" 
d="M604 1219h-195l198 286h240zM88 480v105q0 219 122 355t329 136t321 -104t116 -254h-221q-8 66 -61 117t-152 51q-98 0 -158 -85t-60 -221v-100q0 -136 62 -219t161 -83q101 0 151 42t62 107h221q-4 -151 -123 -248q-118 -97 -322 -97t-326 134t-122 364z" />
    <glyph glyph-name="Ccircumflex" unicode="&#x108;" horiz-adv-x="1270" 
d="M306 1502l273 240h149l269 -240h-194l-145 134h-11l-147 -134h-194zM340 761v-163q0 -210 85 -314t229 -103t218 77q76 76 76 191h234v-20q0 -178 -132 -312q-64 -65 -166 -105t-229 -39q-263 0 -411 163t-148 461v165q0 300 149 465t411 165q123 0 224 -39t166 -105
q136 -139 136 -330v-19h-234q0 116 -78 201t-218 85t-226 -108t-86 -316z" />
    <glyph glyph-name="ccircumflex" unicode="&#x109;" horiz-adv-x="1054" 
d="M88 480v105q0 219 122 355t329 136t321 -104t116 -254h-221q-8 66 -61 117t-152 51q-98 0 -158 -85t-60 -221v-100q0 -136 62 -219t161 -83q101 0 151 42t62 107h221q-4 -151 -123 -248q-118 -97 -322 -97t-326 134t-122 364zM222 1221l221 302h162l211 -303h-185
l-105 182h-7l-115 -181h-182z" />
    <glyph glyph-name="Cdotaccent" unicode="&#x10a;" horiz-adv-x="1270" 
d="M535 1606q1 50 33 84t82 33q50 1 86 -33q34 -34 34 -84t-34 -84q-34 -32 -86 -32q-50 0 -82 32q-32 34 -33 84zM340 761v-163q0 -210 85 -314t229 -103t218 77q76 76 76 191h234v-20q0 -178 -132 -312q-64 -65 -166 -105t-229 -39q-263 0 -411 163t-148 461v165
q0 300 149 465t411 165q123 0 224 -39t166 -105q136 -139 136 -330v-19h-234q0 116 -78 201t-218 85t-226 -108t-86 -316z" />
    <glyph glyph-name="cdotaccent" unicode="&#x10b;" horiz-adv-x="1054" 
d="M412 1298q0 50 32 84t84 34q50 0 84 -34t35 -84q-1 -50 -35 -82t-84 -33q-50 1 -84 33q-32 32 -32 82zM88 480v105q0 219 122 355t329 136t321 -104t116 -254h-221q-8 66 -61 117t-152 51q-98 0 -158 -85t-60 -221v-100q0 -136 62 -219t161 -83q101 0 151 42t62 107h221
q-4 -151 -123 -248q-118 -97 -322 -97t-326 134t-122 364z" />
    <glyph glyph-name="Ccaron" unicode="&#x10c;" horiz-adv-x="1270" 
d="M304 1731h195l146 -124h11l145 124h195l-269 -227h-149zM340 761v-163q0 -210 85 -314t229 -103t218 77q76 76 76 191h234v-20q0 -178 -132 -312q-64 -65 -166 -105t-229 -39q-263 0 -411 163t-148 461v165q0 300 149 465t411 165q123 0 224 -39t166 -105
q136 -139 136 -330v-19h-234q0 116 -78 201t-218 85t-226 -108t-86 -316z" />
    <glyph glyph-name="ccaron" unicode="&#x10d;" horiz-adv-x="1054" 
d="M88 480v105q0 219 122 355t329 136t321 -104t116 -254h-221q-8 66 -61 117t-152 51q-98 0 -158 -85t-60 -221v-100q0 -136 62 -219t161 -83q101 0 151 42t62 107h221q-4 -151 -123 -248q-118 -97 -322 -97t-326 134t-122 364zM231 1501h182l114 -181h7l105 182h185
l-211 -303h-162z" />
    <glyph glyph-name="Dcaron" unicode="&#x10e;" horiz-adv-x="1317" 
d="M392 1164v-962h210q194 0 290 115t97 364q-1 354 -205 448q-76 35 -182 35h-210zM1238 701q0 -701 -607 -701h-481v1365h481q461 -1 573 -405q34 -122 34 -259zM258 1731h195l146 -124h11l145 124h195l-269 -227h-149z" />
    <glyph glyph-name="dcaron" unicode="&#x10f;" horiz-adv-x="1396" 
d="M564 881q-114 0 -174 -85t-60 -231v-71q0 -148 61 -232t175 -85q114 1 178 83t63 232v79q-1 144 -65 227t-178 83zM494 1073q118 -1 197 -47t107 -120h9v531h236v-1437h-231v162h-9q-22 -74 -105 -125t-204 -51q-192 0 -298 130t-107 354v120q0 221 106 352t299 131z
M1228 1436h196l-46 -488h-150v488z" />
    <glyph glyph-name="Dcroat" unicode="&#x110;" horiz-adv-x="1402" 
d="M477 205h209q194 -1 290 115t97 365q-1 354 -205 448q-76 35 -182 35h-209v-368h265v-210h-265v-385zM1323 701q0 -701 -607 -701h-481v590h-163v210h163v565h481q462 -1 574 -405q34 -122 33 -259z" />
    <glyph glyph-name="dcroat" unicode="&#x111;" horiz-adv-x="1184" 
d="M489 -14q-183 0 -291 122t-108 335v174q0 210 109 333t293 123q120 0 198 -49t106 -125h11v258h-240v148h247v166h224v-166h129v-148h-123v-1157h-231v169h-12q-23 -75 -106 -129t-206 -54zM563 881q-108 1 -170 -77t-62 -218v-112q0 -143 63 -220t173 -77t175 76t65 208
v152q0 120 -68 194t-176 74z" />
    <glyph glyph-name="Emacron" unicode="&#x112;" horiz-adv-x="1118" 
d="M860 1516h-572v123h572v-123zM1012 202v-202h-862v1365h862v-202h-621v-375h584v-191h-584v-395h621z" />
    <glyph glyph-name="emacron" unicode="&#x113;" horiz-adv-x="1089" 
d="M831 1220h-571v129h571v-129zM321 636h454v2q0 114 -61 185q-62 71 -166 71t-166 -72t-61 -184v-2zM88 482v89q0 233 122 369t339 136t337 -137t119 -367v-95h-684v-33q0 -117 62 -196t165 -79q102 0 154 40t64 101h228q-11 -95 -74 -177q-117 -151 -351 -151
q-233 0 -357 134t-124 366z" />
    <glyph glyph-name="Ebreve" unicode="&#x114;" horiz-adv-x="1118" 
d="M245 1760h146q-1 -60 49 -100t134 -41q84 1 134 41t49 100h144q-1 -119 -83 -198t-244 -79t-246 79t-83 198zM1012 202v-202h-862v1365h862v-202h-621v-375h584v-191h-584v-395h621z" />
    <glyph glyph-name="ebreve" unicode="&#x115;" horiz-adv-x="1089" 
d="M375 1461q-1 -69 41 -117t122 -47q80 -1 122 47t41 117h144q0 -113 -77 -205t-230 -92q-99 0 -171 44q-139 86 -137 253h145zM321 636h454v2q0 114 -61 185q-62 71 -166 71t-166 -72t-61 -184v-2zM88 482v89q0 233 122 369t339 136t337 -137t119 -367v-95h-684v-33
q0 -117 62 -196t165 -79q102 0 154 40t64 101h228q-11 -95 -74 -177q-117 -151 -351 -151q-233 0 -357 134t-124 366z" />
    <glyph glyph-name="Edotaccent" unicode="&#x116;" horiz-adv-x="1118" 
d="M1012 202v-202h-862v1365h862v-202h-621v-375h584v-191h-584v-395h621zM460 1606q0 50 32 84t84 33q50 1 84 -33t35 -84q-1 -50 -35 -84q-34 -32 -84 -32t-84 32q-32 34 -32 84z" />
    <glyph glyph-name="edotaccent" unicode="&#x117;" horiz-adv-x="1089" 
d="M321 636h454v2q0 114 -61 185q-62 71 -166 71t-166 -72t-61 -184v-2zM88 482v89q0 233 122 369t339 136t337 -137t119 -367v-95h-684v-33q0 -117 62 -196t165 -79q102 0 154 40t64 101h228q-11 -95 -74 -177q-117 -151 -351 -151q-233 0 -357 134t-124 366zM430 1298
q0 50 32 84t84 34q50 0 84 -34t35 -84q-1 -50 -35 -82t-84 -33q-50 1 -84 33q-32 32 -32 82z" />
    <glyph glyph-name="Eogonek" unicode="&#x118;" horiz-adv-x="1118" 
d="M866 -388q-88 0 -154 50q-68 50 -68 156t110 176v6h-604v1365h862v-202h-622v-375h585v-191h-584v-395h621v-168q-76 -17 -134 -62t-58 -102q0 -108 119 -108q46 0 73 8v-138q-58 -20 -146 -20z" />
    <glyph glyph-name="eogonek" unicode="&#x119;" horiz-adv-x="1089" 
d="M321 636h454v2q0 114 -61 185q-62 71 -166 71t-166 -72t-61 -184v-2zM539 -15q-211 0 -331 133t-120 364v89q0 233 122 369t339 136t337 -137t119 -367v-95h-684v-33q0 -118 62 -196t165 -79q102 1 154 41t64 100h226q-16 -130 -136 -248q-58 -56 -86 -99t-28 -93t34 -77
t80 -27t78 8v-142q-46 -20 -140 -20t-162 52t-67 144q-1 45 17 85q18 41 32 57t43 43l-6 11q-40 -19 -112 -19z" />
    <glyph glyph-name="Ecaron" unicode="&#x11a;" horiz-adv-x="1118" 
d="M1012 202v-202h-862v1365h862v-202h-621v-375h584v-191h-584v-395h621zM229 1731h195l146 -124h11l145 124h195l-269 -227h-149z" />
    <glyph glyph-name="ecaron" unicode="&#x11b;" horiz-adv-x="1089" 
d="M321 636h454v2q0 114 -61 185q-62 71 -166 71t-166 -72t-61 -184v-2zM88 482v89q0 233 122 369t339 136t337 -137t119 -367v-95h-684v-33q0 -117 62 -196t165 -79q102 0 154 40t64 101h228q-11 -95 -74 -177q-117 -151 -351 -151q-233 0 -357 134t-124 366zM249 1501h182
l114 -181h7l105 182h185l-211 -303h-162z" />
    <glyph glyph-name="Gcircumflex" unicode="&#x11c;" horiz-adv-x="1295" 
d="M651 1186q-132 0 -222 -103t-90 -309v-176q-1 -196 81 -308t231 -111t233 75t84 187v99h-302v188h533v-275q0 -137 -80 -266q-79 -129 -247 -183q-94 -30 -209 -31q-281 0 -424 169t-143 456v177q0 285 154 451t418 166q124 0 224 -38t165 -102q131 -132 139 -318h-236
q-15 120 -96 186t-213 66zM317 1502l273 240h149l269 -240h-194l-145 134h-11l-147 -134h-194z" />
    <glyph glyph-name="gcircumflex" unicode="&#x11d;" horiz-adv-x="1155" 
d="M561 881q-109 1 -175 -81t-66 -222v-88q0 -139 68 -217t176 -78t170 81t61 206v97q-1 133 -63 217t-171 85zM563 -212q109 0 171 62t62 177v151h-9q-31 -72 -111 -118t-189 -47q-179 0 -293 126t-114 344v116q0 217 114 345t295 129q119 -1 194 -47t109 -120h9v152h230
v-1040q0 -309 -300 -389q-86 -23 -192 -23q-215 0 -324 95q-108 95 -112 222h232q11 -59 65 -97t163 -38zM273 1221l221 302h162l211 -303h-185l-105 182h-7l-115 -181h-182z" />
    <glyph glyph-name="Gbreve" unicode="&#x11e;" horiz-adv-x="1295" 
d="M331 1760h146q-1 -60 49 -100t134 -41q84 1 134 41t49 100h144q-1 -119 -83 -198t-244 -79t-246 79t-83 198zM651 1186q-132 0 -222 -103t-90 -309v-176q-1 -196 81 -308t231 -111t233 75t84 187v99h-302v188h533v-275q0 -137 -80 -266q-79 -129 -247 -183
q-94 -30 -209 -31q-281 0 -424 169t-143 456v177q0 285 154 451t418 166q124 0 224 -38t165 -102q131 -132 139 -318h-236q-15 120 -96 186t-213 66z" />
    <glyph glyph-name="gbreve" unicode="&#x11f;" horiz-adv-x="1155" 
d="M561 881q-109 1 -175 -81t-66 -222v-88q0 -139 68 -217t176 -78t170 81t61 206v97q-1 133 -63 217t-171 85zM563 -212q109 0 171 62t62 177v151h-9q-31 -72 -111 -118t-189 -47q-179 0 -293 126t-114 344v116q0 217 114 345t295 129q119 -1 194 -47t109 -120h9v152h230
v-1040q0 -309 -300 -389q-86 -23 -192 -23q-215 0 -324 95q-108 95 -112 222h232q11 -59 65 -97t163 -38zM408 1461q0 -69 42 -117t121 -47q79 -1 121 47t42 117h144q0 -113 -77 -205t-230 -92q-99 0 -171 44q-139 86 -137 253h145z" />
    <glyph glyph-name="Gdotaccent" unicode="&#x120;" horiz-adv-x="1295" 
d="M651 1186q-132 0 -222 -103t-90 -309v-176q-1 -196 81 -308t231 -111t233 75t84 187v99h-302v188h533v-275q0 -137 -80 -266q-79 -129 -247 -183q-94 -30 -209 -31q-281 0 -424 169t-143 456v177q0 285 154 451t418 166q124 0 224 -38t165 -102q131 -132 139 -318h-236
q-15 120 -96 186t-213 66zM546 1606q0 50 32 84t84 33q50 1 84 -33t35 -84q-1 -50 -35 -84q-34 -32 -84 -32t-84 32q-32 34 -32 84z" />
    <glyph glyph-name="gdotaccent" unicode="&#x121;" horiz-adv-x="1155" 
d="M561 881q-109 1 -175 -81t-66 -222v-88q0 -139 68 -217t176 -78t170 81t61 206v97q-1 133 -63 217t-171 85zM563 -212q109 0 171 62t62 177v151h-9q-31 -72 -111 -118t-189 -47q-179 0 -293 126t-114 344v116q0 217 114 345t295 129q119 -1 194 -47t109 -120h9v152h230
v-1040q0 -309 -300 -389q-86 -23 -192 -23q-215 0 -324 95q-108 95 -112 222h232q11 -59 65 -97t163 -38zM463 1298q1 50 33 84t82 34t86 -34q34 -34 34 -84t-34 -82t-86 -33q-50 1 -82 33t-33 82z" />
    <glyph glyph-name="Gcommaaccent" unicode="&#x122;" horiz-adv-x="1295" 
d="M651 1186q-132 0 -222 -103t-90 -309v-176q-1 -196 81 -308t231 -111t233 75t84 187v99h-302v188h533v-275q0 -137 -80 -266q-79 -129 -247 -183q-94 -30 -209 -31q-281 0 -424 169t-143 456v177q0 285 154 451t418 166q124 0 224 -38t165 -102q131 -132 139 -318h-236
q-15 120 -96 186t-213 66zM653 -489h-166l85 335h195z" />
    <glyph glyph-name="gcommaaccent" unicode="&#x123;" horiz-adv-x="1155" 
d="M561 881q-109 1 -175 -81t-66 -222v-88q0 -139 68 -217t176 -78t170 81t61 206v97q-1 133 -63 217t-171 85zM563 -212q109 0 171 62t62 177v151h-9q-31 -72 -111 -118t-189 -47q-179 0 -293 126t-114 344v116q0 217 114 345t295 129q119 -1 194 -47t109 -120h9v152h230
v-1040q0 -309 -300 -389q-86 -23 -192 -23q-215 0 -324 95q-108 95 -112 222h232q11 -59 65 -97t163 -38zM555 1590h166l-85 -335h-195z" />
    <glyph glyph-name="Hcircumflex" unicode="&#x124;" horiz-adv-x="1392" 
d="M352 1502l273 240h149l269 -240h-194l-145 134h-11l-147 -134h-194zM1242 0h-242v598h-608v-598h-242v1365h242v-563h608v563h242v-1365z" />
    <glyph glyph-name="hcircumflex" unicode="&#x125;" horiz-adv-x="1191" 
d="M-47 1600l221 302h162l211 -303h-185l-105 182h-7l-115 -181h-182zM141 0v1437h236v-528h10q26 65 101 115t193 51q173 0 277 -111t103 -297v-667h-237v614q0 122 -58 190t-162 67q-104 0 -166 -67t-61 -191v-613h-236z" />
    <glyph glyph-name="Hbar" unicode="&#x126;" horiz-adv-x="1392" 
d="M392 578v-578h-242v998h-98v158h98v209h242v-209h608v209h242v-209h98v-158h-98v-998h-242v578h-608zM392 782h608v216h-608v-216z" />
    <glyph glyph-name="hbar" unicode="&#x127;" horiz-adv-x="1191" 
d="M377 590v-590h-236v1157h-116v148h123v132h223v-132h251v-148h-245v-287h12q19 67 95 136t230 69q154 1 250 -93t97 -270v-712h-237v646q0 115 -56 173t-160 58q-103 1 -167 -79t-64 -208z" />
    <glyph glyph-name="Itilde" unicode="&#x128;" horiz-adv-x="543" 
d="M381 1584q58 0 66 99h128q-1 -84 -51 -147t-116 -63q-66 1 -98 15q-30 14 -46 30l-26 26q-38 36 -68 36q-60 0 -64 -88h-128q0 84 46 146t130 61t166 -83q32 -32 61 -32zM392 0h-242v1365h242v-1365z" />
    <glyph glyph-name="itilde" unicode="&#x129;" horiz-adv-x="553" 
d="M388 1305q62 0 70 111h139q-1 -100 -57 -176t-142 -76t-166 81q-9 9 -13 12q-3 3 -9 7l-9 6q-21 10 -38 11q-66 0 -70 -99h-140q1 106 51 179t140 73t174 -88q38 -40 70 -41zM161 0v1058h240v-1058h-240z" />
    <glyph glyph-name="Imacron" unicode="&#x12a;" horiz-adv-x="543" 
d="M557 1516h-572v123h572v-123zM392 0h-242v1365h242v-1365z" />
    <glyph glyph-name="imacron" unicode="&#x12b;" horiz-adv-x="553" 
d="M566 1220h-571v129h571v-129zM161 0v1058h240v-1058h-240z" />
    <glyph glyph-name="Ibreve" unicode="&#x12c;" horiz-adv-x="543" 
d="M-58 1760h146q0 -60 50 -100t133 -41q83 1 133 41t50 100h144q0 -119 -82 -198t-245 -79q-161 0 -245 79t-84 198zM392 0h-242v1365h242v-1365z" />
    <glyph glyph-name="ibreve" unicode="&#x12d;" horiz-adv-x="553" 
d="M110 1461q0 -69 42 -117t121 -47q79 -1 121 47t42 117h144q0 -113 -77 -205t-230 -92q-99 0 -171 44q-139 86 -137 253h145zM161 0v1058h240v-1058h-240z" />
    <glyph glyph-name="Iogonek" unicode="&#x12e;" horiz-adv-x="543" 
d="M270 -388q-100 0 -162 53q-64 53 -64 147q0 133 132 207v5h-26v1341h242v-1338q-168 -63 -168 -169q0 -47 32 -72t81 -25q50 0 79 9v-136q-46 -22 -146 -22z" />
    <glyph glyph-name="iogonek" unicode="&#x12f;" horiz-adv-x="554" 
d="M123 1376q1 60 43 99t110 39t112 -39q42 -39 42 -100t-42 -99t-112 -39q-68 0 -110 39q-42 40 -43 100zM262 -388q-100 0 -169 52t-69 150q0 136 135 210v1034h236v-1024q-102 -34 -142 -82q-40 -49 -40 -94q1 -44 33 -70t83 -26t83 8v-139q-50 -19 -150 -19z" />
    <glyph glyph-name="Idotaccent" unicode="&#x130;" horiz-adv-x="543" 
d="M157 1606q1 50 33 84t82 33q50 1 86 -33q34 -34 34 -84t-34 -84q-34 -32 -86 -32q-50 0 -82 32q-32 34 -33 84zM392 0h-242v1365h242v-1365z" />
    <glyph glyph-name="dotlessi" unicode="&#x131;" horiz-adv-x="553" 
d="M161 0v1058h240v-1058h-240z" />
    <glyph glyph-name="Jcircumflex" unicode="&#x134;" horiz-adv-x="1034" 
d="M426 1502l273 240h149l269 -240h-194l-145 134h-11l-147 -134h-194zM25 367h234q1 -82 55 -130t142 -48t140 55q53 55 53 170v951h242v-941q-1 -223 -119 -337t-320 -114q-202 -1 -314 111t-113 283z" />
    <glyph glyph-name="jcircumflex" unicode="&#x135;" horiz-adv-x="553" 
d="M-17 1208l221 302h162l211 -303h-185l-105 182h-7l-115 -181h-182zM394 1058v-1078q0 -178 -87 -263t-243 -85q-72 0 -106 8v174q25 -5 60 -5q74 -1 108 41t33 133v1075h235z" />
    <glyph glyph-name="Kcommaaccent" unicode="&#x136;" horiz-adv-x="1236" 
d="M610 -489h-166l85 335h195zM392 0h-242v1365h242v-626h11l540 626h269l-493 -586l516 -779h-294l-400 616l-149 -165v-451z" />
    <glyph glyph-name="kcommaaccent" unicode="&#x137;" horiz-adv-x="1075" 
d="M549 -489h-166l85 335h195zM376 0h-237v1437h237v-831h10l377 452h268l-395 -457l422 -601h-278l-322 463l-82 -88v-375z" />
    <glyph glyph-name="Lacute" unicode="&#x139;" horiz-adv-x="1010" 
d="M986 208v-208h-836v1365h242v-1157h594zM134 1507l262 213h249l-304 -213h-207z" />
    <glyph glyph-name="lacute" unicode="&#x13a;" horiz-adv-x="525" 
d="M145 0v1437h236v-1437h-236zM340 1598h-195l198 286h240z" />
    <glyph glyph-name="Lcommaaccent" unicode="&#x13b;" horiz-adv-x="1010" 
d="M986 208v-208h-836v1365h242v-1157h594zM505 -489h-166l85 335h195z" />
    <glyph glyph-name="lcommaaccent" unicode="&#x13c;" horiz-adv-x="525" 
d="M145 0v1437h236v-1437h-236zM255 -489h-166l85 335h195z" />
    <glyph glyph-name="Lcaron" unicode="&#x13d;" horiz-adv-x="1010" 
d="M986 208v-208h-836v1365h242v-1157h594zM607 1436h204l-50 -488h-154v488z" />
    <glyph glyph-name="lcaron" unicode="&#x13e;" horiz-adv-x="709" 
d="M145 0v1437h236v-1437h-236zM545 1436h196l-46 -488h-150v488z" />
    <glyph glyph-name="Lslash" unicode="&#x141;" horiz-adv-x="1030" 
d="M1007 0h-836v522l-123 -72v213l123 71v631h242v-495l337 197v-215l-337 -195v-449h594v-208z" />
    <glyph glyph-name="lslash" unicode="&#x142;" horiz-adv-x="610" 
d="M424 0h-236v582l-146 -95v204l146 96v650h236v-503l144 95v-213l-144 -94v-722z" />
    <glyph glyph-name="Nacute" unicode="&#x143;" horiz-adv-x="1375" 
d="M381 0h-231v1365h209l627 -955h8v955h230v-1365h-207l-629 958h-7v-958zM551 1507l262 213h249l-304 -213h-207z" />
    <glyph glyph-name="nacute" unicode="&#x144;" horiz-adv-x="1185" 
d="M137 0v1058h232v-149h9q30 68 110 117t195 49q163 -1 267 -99t103 -277v-699h-237v625q0 246 -219 246q-105 0 -165 -65t-59 -188v-618h-236zM670 1219h-195l198 286h240z" />
    <glyph glyph-name="Ncommaaccent" unicode="&#x145;" horiz-adv-x="1375" 
d="M381 0h-231v1365h209l627 -955h8v955h230v-1365h-207l-629 958h-7v-958zM680 -489h-166l85 335h195z" />
    <glyph glyph-name="ncommaaccent" unicode="&#x146;" horiz-adv-x="1185" 
d="M137 0v1058h232v-149h9q30 68 110 117t195 49q163 -1 267 -99t103 -277v-699h-237v625q0 246 -219 246q-105 0 -165 -65t-59 -188v-618h-236zM585 -489h-166l85 335h195z" />
    <glyph glyph-name="Ncaron" unicode="&#x147;" horiz-adv-x="1375" 
d="M381 0h-231v1365h209l627 -955h8v955h230v-1365h-207l-629 958h-7v-958zM342 1731h195l146 -124h11l145 124h195l-269 -227h-149z" />
    <glyph glyph-name="ncaron" unicode="&#x148;" horiz-adv-x="1185" 
d="M137 0v1058h232v-149h9q30 68 110 117t195 49q163 -1 267 -99t103 -277v-699h-237v625q0 246 -219 246q-105 0 -165 -65t-59 -188v-618h-236zM297 1501h182l114 -181h7l105 182h185l-211 -303h-162z" />
    <glyph glyph-name="Omacron" unicode="&#x14c;" horiz-adv-x="1338" 
d="M954 1516h-572v123h572v-123zM96 586v182q0 290 154 457t420 167t419 -167t153 -457v-182q0 -288 -154 -450t-420 -163q-268 0 -420 162t-152 451zM340 770v-185q0 -199 90 -303t238 -104t239 104q90 104 90 303v185q-1 201 -91 309t-238 108t-238 -108t-90 -309z" />
    <glyph glyph-name="omacron" unicode="&#x14d;" horiz-adv-x="1126" 
d="M564 890q-133 0 -186 -96t-53 -234v-61q0 -232 124 -302q49 -27 115 -27q134 0 185 96t51 233v61q0 330 -236 330zM564 1076q232 0 354 -138t121 -369v-76q0 -239 -121 -375t-354 -136q-232 0 -354 136t-122 375v75q0 311 212 441q109 67 264 67zM850 1220h-571v129h571
v-129z" />
    <glyph glyph-name="Obreve" unicode="&#x14e;" horiz-adv-x="1338" 
d="M339 1760h146q-1 -60 49 -100t134 -41q84 1 134 41t49 100h144q-1 -119 -83 -198t-244 -79t-246 79t-83 198zM96 586v182q0 290 154 457t420 167t419 -167t153 -457v-182q0 -288 -154 -450t-420 -163q-268 0 -420 162t-152 451zM340 770v-185q0 -199 90 -303t238 -104
t239 104q90 104 90 303v185q-1 201 -91 309t-238 108t-238 -108t-90 -309z" />
    <glyph glyph-name="obreve" unicode="&#x14f;" horiz-adv-x="1126" 
d="M564 890q-133 0 -186 -96t-53 -234v-61q0 -232 124 -302q49 -27 115 -27q134 0 185 96t51 233v61q0 330 -236 330zM564 1076q232 0 354 -138t121 -369v-76q0 -239 -121 -375t-354 -136q-232 0 -354 136t-122 375v75q0 311 212 441q109 67 264 67zM394 1461q0 -69 42 -117
t121 -47q79 -1 121 47t42 117h144q0 -113 -77 -205t-230 -92q-99 0 -171 44q-139 86 -137 253h145z" />
    <glyph glyph-name="Ohungarumlaut" unicode="&#x150;" horiz-adv-x="1338" 
d="M96 586v182q0 290 154 457t420 167t419 -167t153 -457v-182q0 -288 -154 -450t-420 -163q-268 0 -420 162t-152 451zM340 770v-185q0 -199 90 -303t238 -104t239 104q90 104 90 303v185q-1 201 -91 309t-238 108t-238 -108t-90 -309zM733 1507l275 223h209l-302 -223
h-182zM385 1507l275 223h209l-302 -223h-182z" />
    <glyph glyph-name="ohungarumlaut" unicode="&#x151;" horiz-adv-x="1126" 
d="M564 890q-133 0 -186 -96t-53 -234v-61q0 -232 124 -302q49 -27 115 -27q134 0 185 96t51 233v61q0 330 -236 330zM564 1076q232 0 354 -138t121 -369v-76q0 -239 -121 -375t-354 -136q-232 0 -354 136t-122 375v75q0 311 212 441q109 67 264 67zM764 1219h-147l221 321
h188zM449 1219h-146l221 321h188z" />
    <glyph glyph-name="OE" unicode="&#x152;" horiz-adv-x="1961" 
d="M640 -27q-252 0 -398 164t-146 450v181q0 294 150 459t397 165q121 0 218 -42t149 -125h16v140h828v-202h-613v-375h577v-191h-577v-395h613v-202h-828v144h-16q-52 -81 -150 -126t-220 -45zM347 770v-186q0 -200 90 -304q89 -104 239 -103q150 -1 240 99t90 299v210
q0 199 -90 301t-240 101q-148 0 -238 -108t-91 -309z" />
    <glyph glyph-name="oe" unicode="&#x153;" horiz-adv-x="1809" 
d="M1039 625h454v13q0 116 -62 186q-63 70 -165 70t-164 -70t-63 -186v-13zM564 890q-112 0 -176 -85t-63 -217v-116q-1 -134 61 -218t177 -84t176 84t61 218v116q0 134 -62 218t-174 84zM564 -18q-218 0 -347 128t-129 356v130q0 216 132 348t344 132q114 0 206 -42
t143 -120h15q50 74 140 118t197 44q204 0 331 -130t127 -348v-123h-684v-51q0 -113 64 -184q65 -71 161 -71t152 34t67 85h229q-8 -86 -74 -162q-124 -144 -374 -144q-100 0 -194 44t-141 116h-16q-51 -72 -145 -116t-204 -44z" />
    <glyph glyph-name="Racute" unicode="&#x154;" horiz-adv-x="1246" 
d="M390 706h251q123 0 189 59t67 171q-1 112 -69 174q-68 61 -182 61h-256v-465zM680 1365q339 0 438 -259q29 -76 29 -160q0 -167 -80 -260t-170 -128l276 -558h-272l-243 519h-268v-519h-240v1365h530zM459 1507l262 213h249l-304 -213h-207z" />
    <glyph glyph-name="racute" unicode="&#x155;" horiz-adv-x="752" 
d="M150 0v1058h236v-137h9q60 153 251 153q41 0 78 -7v-207q-25 8 -98 8q-236 0 -236 -246v-622h-240zM502 1219h-195l198 286h240z" />
    <glyph glyph-name="Rcommaaccent" unicode="&#x156;" horiz-adv-x="1246" 
d="M588 -489h-166l85 335h195zM390 706h251q123 0 189 59t67 171q-1 112 -69 174q-68 61 -182 61h-256v-465zM680 1365q339 0 438 -259q29 -76 29 -160q0 -167 -80 -260t-170 -128l276 -558h-272l-243 519h-268v-519h-240v1365h530z" />
    <glyph glyph-name="rcommaaccent" unicode="&#x157;" horiz-adv-x="752" 
d="M265 -489h-166l85 335h195zM150 0v1058h236v-137h9q60 153 251 153q41 0 78 -7v-207q-25 8 -98 8q-236 0 -236 -246v-622h-240z" />
    <glyph glyph-name="Rcaron" unicode="&#x158;" horiz-adv-x="1246" 
d="M250 1731h195l146 -124h11l145 124h195l-269 -227h-149zM390 706h251q123 0 189 59t67 171q-1 112 -69 174q-68 61 -182 61h-256v-465zM680 1365q339 0 438 -259q29 -76 29 -160q0 -167 -80 -260t-170 -128l276 -558h-272l-243 519h-268v-519h-240v1365h530z" />
    <glyph glyph-name="rcaron" unicode="&#x159;" horiz-adv-x="752" 
d="M150 0v1058h236v-137h9q60 153 251 153q41 0 78 -7v-207q-25 8 -98 8q-236 0 -236 -246v-622h-240zM129 1501h182l114 -181h7l105 182h185l-211 -303h-162z" />
    <glyph glyph-name="Sacute" unicode="&#x15a;" horiz-adv-x="1191" 
d="M590 170q132 0 204 55t73 139t-51 128t-163 71l-219 53q-142 32 -241 120q-98 88 -98 233t69 239q136 186 430 187q138 0 250 -47q112 -48 178 -140t68 -214h-230q-7 89 -76 147t-188 58q-118 1 -188 -51t-70 -142q0 -133 188 -177l220 -53q268 -62 336 -229
q27 -66 27 -152q1 -198 -145 -310t-387 -112q-312 1 -444 185q-71 99 -73 224h235q8 -92 86 -152q77 -60 209 -60zM457 1507l262 213h249l-304 -213h-207z" />
    <glyph glyph-name="sacute" unicode="&#x15b;" horiz-adv-x="1014" 
d="M585 1219h-195l198 286h240zM93 761q0 73 34 137q35 64 93 102q117 76 295 76q177 0 283 -88t106 -233h-211q-6 63 -51 109t-134 45q-89 1 -139 -37t-50 -90q1 -52 17 -70t26 -28t32 -18q21 -8 34 -13t40 -11q28 -6 40 -8t42 -8q30 -4 74 -12q119 -20 215 -84t96 -216
q-1 -152 -119 -242t-318 -90t-312 84q-113 84 -113 227h230q9 -64 61 -103t146 -39q95 -1 145 39t50 112t-99 106q-80 27 -164 37q-209 42 -279 115q-70 74 -70 201z" />
    <glyph glyph-name="Scircumflex" unicode="&#x15c;" horiz-adv-x="1191" 
d="M250 1502l273 240h149l269 -240h-194l-145 134h-11l-147 -134h-194zM590 170q132 0 204 55t73 139t-51 128t-163 71l-219 53q-142 32 -241 120q-98 88 -98 233t69 239q136 186 430 187q138 0 250 -47q112 -48 178 -140t68 -214h-230q-7 89 -76 147t-188 58
q-118 1 -188 -51t-70 -142q0 -133 188 -177l220 -53q268 -62 336 -229q27 -66 27 -152q1 -198 -145 -310t-387 -112q-312 1 -444 185q-71 99 -73 224h235q8 -92 86 -152q77 -60 209 -60z" />
    <glyph glyph-name="scircumflex" unicode="&#x15d;" horiz-adv-x="1014" 
d="M93 761q0 73 34 137q35 64 93 102q117 76 295 76q177 0 283 -88t106 -233h-211q-6 63 -51 109t-134 45q-89 1 -139 -37t-50 -90q1 -52 17 -70t26 -28t32 -18q21 -8 34 -13t40 -11q28 -6 40 -8t42 -8q30 -4 74 -12q119 -20 215 -84t96 -216q-1 -152 -119 -242t-318 -90
t-312 84q-113 84 -113 227h230q9 -64 61 -103t146 -39q95 -1 145 39t50 112t-99 106q-80 27 -164 37q-209 42 -279 115q-70 74 -70 201zM203 1221l221 302h162l211 -303h-185l-105 182h-7l-115 -181h-182z" />
    <glyph glyph-name="Scedilla" unicode="&#x15e;" horiz-adv-x="1191" 
d="M637 -111q194 0 194 -172q-1 -87 -65 -135t-161 -52t-159 16v117q47 -14 113 -14q113 0 113 68q0 39 -31 51t-100 11h-54v94l42 101q-125 6 -219 46t-146 99q-100 115 -104 263h235q8 -92 86 -152q77 -60 209 -60t204 55t73 139t-51 128t-163 71l-219 53
q-142 32 -241 120q-98 88 -98 233t69 239q136 186 430 187q138 0 250 -47q112 -48 178 -140t68 -214h-230q-7 89 -76 147t-188 58q-118 1 -188 -51t-70 -142q0 -133 188 -177l220 -53q268 -62 336 -229q27 -66 27 -152q1 -177 -117 -286t-318 -131z" />
    <glyph glyph-name="scedilla" unicode="&#x15f;" horiz-adv-x="1014" 
d="M466 -347q112 0 112 68q0 39 -33 51t-104 11h-53v94l40 107q-165 14 -260 97t-95 212h230q9 -64 61 -103t146 -39q95 -1 145 39t50 112t-99 106q-80 27 -164 37q-209 42 -279 115q-70 74 -70 173q0 184 122 264q122 79 300 79q177 0 283 -88t106 -233h-211q-6 63 -51 109
t-134 45q-89 1 -139 -37t-50 -90q1 -52 17 -70t26 -28t32 -18q21 -8 34 -13t40 -11q28 -6 40 -8t42 -8q30 -4 74 -12q119 -20 215 -84t96 -208t-96 -231q-96 -88 -266 -105l-36 -93q93 0 147 -43q54 -44 54 -130t-65 -134t-164 -51t-157 15v117q47 -14 114 -14z" />
    <glyph glyph-name="Scaron" unicode="&#x160;" horiz-adv-x="1191" 
d="M248 1731h195l146 -124h11l145 124h195l-269 -227h-149zM590 170q132 0 204 55t73 139t-51 128t-163 71l-219 53q-142 32 -241 120q-98 88 -98 233t69 239q136 186 430 187q138 0 250 -47q112 -48 178 -140t68 -214h-230q-7 89 -76 147t-188 58q-118 1 -188 -51t-70 -142
q0 -133 188 -177l220 -53q268 -62 336 -229q27 -66 27 -152q1 -198 -145 -310t-387 -112q-312 1 -444 185q-71 99 -73 224h235q8 -92 86 -152q77 -60 209 -60z" />
    <glyph glyph-name="scaron" unicode="&#x161;" horiz-adv-x="1014" 
d="M93 761q0 73 34 137q35 64 93 102q117 76 295 76q177 0 283 -88t106 -233h-211q-6 63 -51 109t-134 45q-89 1 -139 -37t-50 -90q1 -52 17 -70t26 -28t32 -18q21 -8 34 -13t40 -11q28 -6 40 -8t42 -8q30 -4 74 -12q119 -20 215 -84t96 -216q-1 -152 -119 -242t-318 -90
t-312 84q-113 84 -113 227h230q9 -64 61 -103t146 -39q95 -1 145 39t50 112t-99 106q-80 27 -164 37q-209 42 -279 115q-70 74 -70 201zM212 1501h182l114 -181h7l105 182h185l-211 -303h-162z" />
    <glyph glyph-name="Tcedilla" unicode="&#x162;" horiz-adv-x="1067" 
d="M501 -365q113 0 113 67q0 41 -37 52t-100 11h-54v94l53 141h-63v1160h-396v205h1033v-205h-397v-1160h-32l-48 -125q92 1 146 -43t54 -131q-1 -87 -65 -135t-160 -50q-96 -3 -160 15v117q44 -13 113 -13z" />
    <glyph glyph-name="tcedilla" unicode="&#x163;" horiz-adv-x="730" 
d="M369 -344q113 0 113 67q0 41 -37 52t-100 11h-54v94l52 141q-78 31 -111 97t-33 180v567h-148v185h152v264h230v-264h206v-185h-206v-543q-1 -84 35 -114t100 -30t77 2v-179q-51 -8 -91 -8t-75 2l-38 -99q92 0 146 -44t54 -130q-1 -86 -65 -134t-160 -51t-160 15v117
q44 -13 113 -13z" />
    <glyph glyph-name="Tcaron" unicode="&#x164;" horiz-adv-x="1067" 
d="M653 0h-240v1160h-396v205h1033v-205h-397v-1160zM188 1731h195l146 -124h11l145 124h195l-269 -227h-149z" />
    <glyph glyph-name="tcaron" unicode="&#x165;" horiz-adv-x="769" 
d="M203 1050v264h230v-264h206v-185h-206v-543q-1 -84 35 -114t100 -30t77 2v-179q-51 -8 -145 -8t-168 33q-74 34 -104 98t-29 174v567h-148v185h152zM610 1690h196l-46 -488h-150v488z" />
    <glyph glyph-name="Tbar" unicode="&#x166;" horiz-adv-x="1067" 
d="M884 613h-230v-613h-241v613h-230v158h230v389h-396v205h1033v-205h-396v-389h230v-158z" />
    <glyph glyph-name="tbar" unicode="&#x167;" horiz-adv-x="715" 
d="M504 -7q-98 0 -172 33q-74 34 -104 98t-29 174v213h-138v148h138v206h-148v185h152v264h230v-264h206v-185h-206v-206h202v-148h-202v-189q-1 -84 35 -114t98 -30t79 2v-179q-43 -8 -141 -8z" />
    <glyph glyph-name="Utilde" unicode="&#x168;" horiz-adv-x="1352" 
d="M785 1584q58 0 66 99h128q-1 -84 -51 -147t-116 -63q-66 1 -98 15q-30 14 -46 30l-26 26q-38 36 -68 36q-60 0 -64 -88h-128q0 84 46 146t130 61t166 -83q32 -32 61 -32zM377 1365v-873q1 -146 81 -228t218 -83q138 0 218 83q82 83 82 228v873h241v-892
q-1 -226 -149 -363t-392 -137t-392 138t-149 365v889h242z" />
    <glyph glyph-name="utilde" unicode="&#x169;" horiz-adv-x="1181" 
d="M699 1305q62 0 70 111h139q0 -100 -56 -176t-142 -76t-167 81q-9 9 -13 12t-10 7t-8 6q-21 10 -38 11q-66 0 -70 -99h-140q0 106 50 179t141 73q90 0 174 -88q38 -40 70 -41zM1043 1058v-1058h-231v150h-10q-29 -70 -107 -118t-199 -48q-168 0 -267 96t-99 276v702h237
v-638q1 -126 61 -180t158 -54t159 62q62 62 62 175v635h236z" />
    <glyph glyph-name="Umacron" unicode="&#x16a;" horiz-adv-x="1352" 
d="M961 1516h-572v123h572v-123zM377 1365v-873q1 -146 81 -228t218 -83q138 0 218 83q82 83 82 228v873h241v-892q-1 -226 -149 -363t-392 -137t-392 138t-149 365v889h242z" />
    <glyph glyph-name="umacron" unicode="&#x16b;" horiz-adv-x="1181" 
d="M877 1220h-571v129h571v-129zM1043 1058v-1058h-231v150h-10q-29 -70 -107 -118t-199 -48q-168 0 -267 96t-99 276v702h237v-638q1 -126 61 -180t158 -54t159 62q62 62 62 175v635h236z" />
    <glyph glyph-name="Ubreve" unicode="&#x16c;" horiz-adv-x="1352" 
d="M346 1760h146q0 -60 50 -100t133 -41q83 1 133 41t50 100h144q0 -119 -82 -198t-245 -79q-161 0 -245 79t-84 198zM377 1365v-873q1 -146 81 -228t218 -83q138 0 218 83q82 83 82 228v873h241v-892q-1 -226 -149 -363t-392 -137t-392 138t-149 365v889h242z" />
    <glyph glyph-name="ubreve" unicode="&#x16d;" horiz-adv-x="1181" 
d="M421 1461q-1 -69 41 -117t122 -47q80 -1 122 47t41 117h144q0 -113 -77 -205t-230 -92q-99 0 -171 44q-139 86 -137 253h145zM1043 1058v-1058h-231v150h-10q-29 -70 -107 -118t-199 -48q-168 0 -267 96t-99 276v702h237v-638q1 -126 61 -180t158 -54t159 62
q62 62 62 175v635h236z" />
    <glyph glyph-name="Uring" unicode="&#x16e;" horiz-adv-x="1352" 
d="M576 1696q0 -42 28 -70t68 -28t68 28t28 70q0 41 -28 69t-68 28t-68 -28t-28 -69zM673 1495q-87 -1 -147 57t-60 144t60 143t147 57q88 0 147 -57t59 -143t-59 -144q-59 -57 -147 -57zM377 1365v-873q1 -146 81 -228t218 -83q138 0 218 83q82 83 82 228v873h241v-892
q-1 -226 -149 -363t-392 -137t-392 138t-149 365v889h242z" />
    <glyph glyph-name="uring" unicode="&#x16f;" horiz-adv-x="1181" 
d="M491 1389q0 -41 28 -69q29 -28 69 -29q40 1 68 29t27 69q1 41 -27 69t-68 28t-69 -28q-28 -28 -28 -69zM588 1188q-88 0 -148 58t-59 143q-1 86 59 143t148 57t147 -57q59 -58 59 -144t-59 -143t-147 -57zM1043 1058v-1058h-231v150h-10q-29 -70 -107 -118t-199 -48
q-168 0 -267 96t-99 276v702h237v-638q1 -126 61 -180t158 -54t159 62q62 62 62 175v635h236z" />
    <glyph glyph-name="Uhungarumlaut" unicode="&#x170;" horiz-adv-x="1352" 
d="M740 1507l275 223h209l-302 -223h-182zM392 1507l275 223h209l-302 -223h-182zM377 1365v-873q1 -146 81 -228t218 -83q138 0 218 83q82 83 82 228v873h241v-892q-1 -226 -149 -363t-392 -137t-392 138t-149 365v889h242z" />
    <glyph glyph-name="uhungarumlaut" unicode="&#x171;" horiz-adv-x="1181" 
d="M1043 1058v-1058h-231v150h-10q-29 -70 -107 -118t-199 -48q-168 0 -267 96t-99 276v702h237v-638q1 -126 61 -180t158 -54t159 62q62 62 62 175v635h236zM791 1219h-147l221 321h188zM476 1219h-146l221 321h188z" />
    <glyph glyph-name="Uogonek" unicode="&#x172;" horiz-adv-x="1352" 
d="M962 -388q-90 0 -156 53q-67 53 -67 157t89 180l-4 6q-79 -35 -158 -35q-235 0 -383 139t-148 364v889h242v-873q1 -146 81 -228t218 -83q138 0 218 83q82 83 82 228v873h241v-892q0 -228 -150 -383q-15 -16 -53 -54t-54 -56q-48 -57 -47 -111q0 -104 118 -104
q37 0 76 10v-142q-55 -21 -145 -21z" />
    <glyph glyph-name="uogonek" unicode="&#x173;" horiz-adv-x="1181" 
d="M908 -388q-92 0 -161 50t-69 159t140 210v145h-12q-26 -76 -107 -134t-228 -58t-244 86t-97 266v722h237v-663q1 -115 57 -165t151 -49q95 -1 163 65t69 164v648h236v-1052q-105 -28 -146 -70q-41 -40 -41 -82t32 -65t82 -23t82 8v-142q-52 -20 -144 -20z" />
    <glyph glyph-name="Wcircumflex" unicode="&#x174;" horiz-adv-x="1726" 
d="M595 0h-222l-364 1365h266l220 -1002h9l250 1002h219l249 -1002h10l219 1002h266l-365 -1365h-222l-263 983h-9zM520 1502l273 240h149l269 -240h-194l-145 134h-11l-147 -134h-194z" />
    <glyph glyph-name="wcircumflex" unicode="&#x175;" horiz-adv-x="1532" 
d="M1508 1058l-277 -1058h-242l-215 772h-7l-211 -772h-244l-288 1058h253l164 -797h10l208 797h222l214 -797h10l168 797h235zM461 1221l221 302h162l211 -303h-185l-105 182h-7l-115 -181h-182z" />
    <glyph glyph-name="Ycircumflex" unicode="&#x176;" horiz-adv-x="1132" 
d="M223 1502l273 240h149l269 -240h-194l-145 134h-11l-147 -134h-194zM687 0h-242v539l-456 826h270l305 -587h8l308 587h264l-457 -822v-543z" />
    <glyph glyph-name="ycircumflex" unicode="&#x177;" horiz-adv-x="1072" 
d="M231 1221l221 302h162l211 -303h-185l-105 182h-7l-115 -181h-182zM250 -380q-82 0 -144 11v175q34 -6 105 -6q143 0 176 151l12 43l-373 1064h261l243 -848h9l247 848h250q-353 -1031 -356 -1039l-27 -72q-54 -146 -142 -236q-87 -91 -261 -91z" />
    <glyph glyph-name="Ydieresis" unicode="&#x178;" horiz-adv-x="1132" 
d="M650 1582q0 44 28 72t72 27q44 1 72 -27t27 -72q1 -44 -27 -70q-28 -28 -72 -28t-72 28q-28 26 -28 70zM321 1582q-1 44 27 72t72 27q44 1 72 -27t28 -72t-28 -70q-28 -28 -72 -28t-72 28q-28 26 -27 70zM687 0h-242v539l-456 826h270l305 -587h8l308 587h264l-457 -822
v-543z" />
    <glyph glyph-name="Zacute" unicode="&#x179;" horiz-adv-x="1167" 
d="M84 0v161l681 993v9h-661v202h955v-160l-678 -993v-9h697v-203h-994zM447 1507l262 213h249l-304 -213h-207z" />
    <glyph glyph-name="zacute" unicode="&#x17a;" horiz-adv-x="989" 
d="M88 0v140l524 723v12h-521v183h809v-151l-512 -711v-11h522v-185h-822zM572 1219h-195l198 286h240z" />
    <glyph glyph-name="Zdotaccent" unicode="&#x17b;" horiz-adv-x="1167" 
d="M469 1606q1 50 33 84t82 33q50 1 86 -33q34 -34 34 -84t-34 -84q-34 -32 -86 -32q-50 0 -82 32q-32 34 -33 84zM84 0v161l681 993v9h-661v202h955v-160l-678 -993v-9h697v-203h-994z" />
    <glyph glyph-name="zdotaccent" unicode="&#x17c;" horiz-adv-x="989" 
d="M88 0v140l524 723v12h-521v183h809v-151l-512 -711v-11h522v-185h-822zM380 1298q0 50 32 84t84 34q50 0 84 -34t35 -84q-1 -50 -35 -82t-84 -33q-50 1 -84 33q-32 32 -32 82z" />
    <glyph glyph-name="Zcaron" unicode="&#x17d;" horiz-adv-x="1167" 
d="M238 1731h195l146 -124h11l145 124h195l-269 -227h-149zM84 0v161l681 993v9h-661v202h955v-160l-678 -993v-9h697v-203h-994z" />
    <glyph glyph-name="zcaron" unicode="&#x17e;" horiz-adv-x="989" 
d="M88 0v140l524 723v12h-521v183h809v-151l-512 -711v-11h522v-185h-822zM199 1501h182l114 -181h7l105 182h185l-211 -303h-162z" />
    <glyph glyph-name="florin" unicode="&#x192;" horiz-adv-x="1144" 
d="M762 1392q212 0 288 -138q40 -72 34 -162h-217q2 52 -30 84t-85 31q-123 0 -149 -157l-27 -157h294l-34 -191h-294l-162 -888h-251l163 888h-200l33 191h200l29 169q29 170 130 250t278 80z" />
    <glyph glyph-name="Ohorn" unicode="&#x1a0;" horiz-adv-x="1357" 
d="M340 770v-186q0 -200 90 -304t238 -103q148 -1 240 103q90 104 90 304v186q0 201 -91 309t-239 108t-238 -108t-90 -309zM1242 586q0 -288 -154 -450t-420 -163q-268 0 -420 162t-152 451v182q0 290 154 457t420 167q80 0 156 -20t139 -40t127 -20q121 0 121 145v110h194
v-129q-1 -134 -69 -209t-193 -75l-4 -5q43 -63 72 -167t29 -214v-182z" />
    <glyph glyph-name="ohorn" unicode="&#x1a1;" horiz-adv-x="1145" 
d="M564 890q-112 0 -176 -85t-63 -217v-116q-1 -134 61 -218t177 -84t176 84t61 218v116q0 134 -62 218t-174 84zM1039 597v-131q0 -228 -130 -356q-131 -128 -347 -128t-345 128t-129 356v130q0 216 132 348t344 132q62 0 141 -19t139 -19t84 33q26 33 26 103v157h194v-169
q0 -251 -198 -274v-9q89 -130 89 -282z" />
    <glyph glyph-name="Uhorn" unicode="&#x1af;" horiz-adv-x="1437" 
d="M676 -26q-244 0 -392 138t-149 365v888h242v-872q1 -147 81 -229t218 -82t218 83q82 83 82 228v872h243q67 1 93 35t26 102v116h193v-136q0 -126 -66 -205t-192 -79h-56v-724q-1 -226 -149 -363t-392 -137z" />
    <glyph glyph-name="uhorn" unicode="&#x1b0;" horiz-adv-x="1304" 
d="M468 -16q-146 0 -242 86t-96 266v722h237v-663q1 -115 57 -165t151 -49q95 -1 163 65t69 164v648h211q65 0 89 34t24 103v136h194v-156q0 -125 -66 -204t-193 -79h-23v-892h-232v176h-12q-25 -76 -105 -134t-226 -58z" />
    <glyph glyph-name="Acaron" unicode="&#x1cd;" horiz-adv-x="1241" 
d="M275 1731h195l146 -124h11l145 124h195l-269 -227h-149zM618 1120h-9l-179 -568h366zM261 0h-244l466 1365h275l465 -1365h-259l-116 368h-471z" />
    <glyph glyph-name="acaron" unicode="&#x1ce;" horiz-adv-x="1086" 
d="M247 1501h182l114 -181h7l105 182h185l-211 -303h-162zM510 162q86 0 148 55t62 138v108h-220q-90 1 -136 -39t-47 -111q0 -71 54 -111t139 -40zM428 -16q-156 0 -252 86t-95 232q-1 146 97 230t278 84h264v112q0 160 -180 160t-195 -147h-225q8 144 106 239t304 95
q425 0 425 -352v-723h-223v136h-10q-38 -68 -112 -110t-182 -42z" />
    <glyph glyph-name="Icaron" unicode="&#x1cf;" horiz-adv-x="543" 
d="M-74 1731h195l146 -124h11l145 124h195l-269 -227h-149zM392 0h-242v1365h242v-1365z" />
    <glyph glyph-name="icaron" unicode="&#x1d0;" horiz-adv-x="553" 
d="M161 0v1058h240v-1058h-240zM-16 1501h182l114 -181h7l105 182h185l-211 -303h-162z" />
    <glyph glyph-name="Ocaron" unicode="&#x1d1;" horiz-adv-x="1338" 
d="M96 586v182q0 290 154 457t420 167t419 -167t153 -457v-182q0 -288 -154 -450t-420 -163q-268 0 -420 162t-152 451zM340 770v-185q0 -199 90 -303t238 -104t239 104q90 104 90 303v185q-1 201 -91 309t-238 108t-238 -108t-90 -309zM323 1731h195l146 -124h11l145 124
h195l-269 -227h-149z" />
    <glyph glyph-name="ocaron" unicode="&#x1d2;" horiz-adv-x="1126" 
d="M564 890q-133 0 -186 -96t-53 -234v-61q0 -232 124 -302q49 -27 115 -27q134 0 185 96t51 233v61q0 330 -236 330zM564 1076q232 0 354 -138t121 -369v-76q0 -239 -121 -375t-354 -136q-232 0 -354 136t-122 375v75q0 311 212 441q109 67 264 67zM268 1501h182l114 -181
h7l105 182h185l-211 -303h-162z" />
    <glyph glyph-name="Ucaron" unicode="&#x1d3;" horiz-adv-x="1352" 
d="M377 1365v-873q1 -146 81 -228t218 -83q138 0 218 83q82 83 82 228v873h241v-892q-1 -226 -149 -363t-392 -137t-392 138t-149 365v889h242zM330 1731h195l146 -124h11l145 124h195l-269 -227h-149z" />
    <glyph glyph-name="ucaron" unicode="&#x1d4;" horiz-adv-x="1181" 
d="M1043 1058v-1058h-231v150h-10q-29 -70 -107 -118t-199 -48q-168 0 -267 96t-99 276v702h237v-638q1 -126 61 -180t158 -54t159 62q62 62 62 175v635h236zM295 1501h182l114 -181h7l105 182h185l-211 -303h-162z" />
    <glyph glyph-name="Udieresismacron" unicode="&#x1d5;" horiz-adv-x="1352" 
d="M961 1793h-572v123h572v-123zM377 1365v-873q1 -146 81 -228t218 -83q138 0 218 83q82 83 82 228v873h241v-892q-1 -226 -149 -363t-392 -137t-392 138t-149 365v889h242zM760 1582q0 44 28 72t72 27q44 1 72 -27t27 -72q1 -44 -27 -70q-28 -28 -72 -28t-72 28
q-28 26 -28 70zM431 1582q-1 44 27 72t72 27q44 1 72 -27t28 -72t-28 -70q-28 -28 -72 -28t-72 28q-28 26 -27 70z" />
    <glyph glyph-name="udieresismacron" unicode="&#x1d6;" horiz-adv-x="1181" 
d="M877 1539h-571v129h571v-129zM671 1278q1 48 31 79t80 31t81 -30t31 -80t-31 -80t-81 -30t-80 31t-31 79zM291 1278q1 48 31 79t80 31t80 -30q31 -30 31 -80t-31 -80q-30 -30 -80 -30t-80 31t-31 79zM1043 1058v-1058h-231v150h-10q-29 -70 -107 -118t-199 -48
q-168 0 -267 96t-99 276v702h237v-638q1 -126 61 -180t158 -54t159 62q62 62 62 175v635h236z" />
    <glyph glyph-name="Udieresisacute" unicode="&#x1d7;" horiz-adv-x="1352" 
d="M377 1365v-873q1 -146 81 -228t218 -83q138 0 218 83q82 83 82 228v873h241v-892q-1 -226 -149 -363t-392 -137t-392 138t-149 365v889h242zM760 1582q0 44 28 72t72 27q44 1 72 -27t27 -72q1 -44 -27 -70q-28 -28 -72 -28t-72 28q-28 26 -28 70zM431 1582q-1 44 27 72
t72 27q44 1 72 -27t28 -72t-28 -70q-28 -28 -72 -28t-72 28q-28 26 -27 70zM539 1741l262 213h249l-304 -213h-207z" />
    <glyph glyph-name="udieresisacute" unicode="&#x1d8;" horiz-adv-x="1181" 
d="M671 1278q1 48 31 79t80 31t81 -30t31 -80t-31 -80t-81 -30t-80 31t-31 79zM291 1278q1 48 31 79t80 31t80 -30q31 -30 31 -80t-31 -80q-30 -30 -80 -30t-80 31t-31 79zM1043 1058v-1058h-231v150h-10q-29 -70 -107 -118t-199 -48q-168 0 -267 96t-99 276v702h237v-638
q1 -126 61 -180t158 -54t159 62q62 62 62 175v635h236zM668 1495h-195l198 286h240z" />
    <glyph glyph-name="Udieresiscaron" unicode="&#x1d9;" horiz-adv-x="1352" 
d="M377 1365v-873q1 -146 81 -228t218 -83q138 0 218 83q82 83 82 228v873h241v-892q-1 -226 -149 -363t-392 -137t-392 138t-149 365v889h242zM330 1992h195l146 -124h11l145 124h195l-269 -227h-149zM760 1582q0 44 28 72t72 27q44 1 72 -27t27 -72q1 -44 -27 -70
q-28 -28 -72 -28t-72 28q-28 26 -28 70zM431 1582q-1 44 27 72t72 27q44 1 72 -27t28 -72t-28 -70q-28 -28 -72 -28t-72 28q-28 26 -27 70z" />
    <glyph glyph-name="udieresiscaron" unicode="&#x1da;" horiz-adv-x="1181" 
d="M671 1278q1 48 31 79t80 31t81 -30t31 -80t-31 -80t-81 -30t-80 31t-31 79zM291 1278q1 48 31 79t80 31t80 -30q31 -30 31 -80t-31 -80q-30 -30 -80 -30t-80 31t-31 79zM1043 1058v-1058h-231v150h-10q-29 -70 -107 -118t-199 -48q-168 0 -267 96t-99 276v702h237v-638
q1 -126 61 -180t158 -54t159 62q62 62 62 175v635h236zM295 1807h182l114 -181h7l105 182h185l-211 -303h-162z" />
    <glyph glyph-name="Udieresisgrave" unicode="&#x1db;" horiz-adv-x="1352" 
d="M377 1365v-873q1 -146 81 -228t218 -83q138 0 218 83q82 83 82 228v873h241v-892q-1 -226 -149 -363t-392 -137t-392 138t-149 365v889h242zM760 1582q0 44 28 72t72 27q44 1 72 -27t27 -72q1 -44 -27 -70q-28 -28 -72 -28t-72 28q-28 26 -28 70zM431 1582q-1 44 27 72
t72 27q44 1 72 -27t28 -72t-28 -70q-28 -28 -72 -28t-72 28q-28 26 -27 70zM802 1741h-200l-298 208h242z" />
    <glyph glyph-name="udieresisgrave" unicode="&#x1dc;" horiz-adv-x="1181" 
d="M671 1278q1 48 31 79t80 31t81 -30t31 -80t-31 -80t-81 -30t-80 31t-31 79zM291 1278q1 48 31 79t80 31t80 -30q31 -30 31 -80t-31 -80q-30 -30 -80 -30t-80 31t-31 79zM1043 1058v-1058h-231v150h-10q-29 -70 -107 -118t-199 -48q-168 0 -267 96t-99 276v702h237v-638
q1 -126 61 -180t158 -54t159 62q62 62 62 175v635h236zM723 1495h-195l-248 283h240z" />
    <glyph glyph-name="Adieresismacron" unicode="&#x1de;" horiz-adv-x="1241" 
d="M906 1793h-572v123h572v-123zM705 1582q-1 44 27 72t72 27q44 1 72 -27t28 -72t-28 -70q-28 -28 -72 -28t-72 28q-28 26 -27 70zM376 1582q0 44 28 72t71 27q44 1 72 -27t28 -72q1 -44 -27 -70q-28 -28 -72 -28t-72 28q-28 26 -28 70zM618 1120h-9l-179 -568h366zM261 0
h-244l466 1365h275l465 -1365h-259l-116 368h-471z" />
    <glyph glyph-name="adieresismacron" unicode="&#x1df;" horiz-adv-x="1086" 
d="M829 1539h-571v129h571v-129zM623 1278q1 48 31 79t80 31t81 -30t31 -80t-31 -80t-81 -30t-80 31t-31 79zM243 1278q1 48 31 79t80 31t80 -30q31 -30 31 -80t-31 -80q-30 -30 -80 -30t-80 31t-31 79zM510 162q86 0 148 55t62 138v108h-220q-90 1 -136 -39t-47 -111
q0 -71 54 -111t139 -40zM428 -16q-156 0 -252 86t-95 232q-1 146 97 230t278 84h264v112q0 160 -180 160t-195 -147h-225q8 144 106 239t304 95q425 0 425 -352v-723h-223v136h-10q-38 -68 -112 -110t-182 -42z" />
    <glyph glyph-name="Adotmacron" unicode="&#x1e0;" horiz-adv-x="1241" 
d="M906 1793h-572v123h572v-123zM506 1606q0 50 32 84t84 33q50 1 84 -33t35 -84q-1 -50 -35 -84q-34 -32 -84 -32t-84 32q-32 34 -32 84zM618 1120h-9l-179 -568h366zM261 0h-244l466 1365h275l465 -1365h-259l-116 368h-471z" />
    <glyph glyph-name="adotmacron" unicode="&#x1e1;" horiz-adv-x="1086" 
d="M829 1539h-571v129h571v-129zM428 1298q0 50 32 84t84 34q50 0 84 -34t35 -84q-1 -50 -35 -82t-84 -33q-50 1 -84 33q-32 32 -32 82zM510 162q86 0 148 55t62 138v108h-220q-90 1 -136 -39t-47 -111q0 -71 54 -111t139 -40zM428 -16q-156 0 -252 86t-95 232
q-1 146 97 230t278 84h264v112q0 160 -180 160t-195 -147h-225q8 144 106 239t304 95q425 0 425 -352v-723h-223v136h-10q-38 -68 -112 -110t-182 -42z" />
    <glyph glyph-name="AEmacron" unicode="&#x1e2;" horiz-adv-x="1879" 
d="M1630 1516h-572v123h572v-123zM917 376h-448l-191 -376h-268l692 1365h1070v-201h-615v-376h579v-191h-579v-395h615v-202h-855v376zM917 566v598h-69l-292 -598h361z" />
    <glyph glyph-name="aemacron" unicode="&#x1e3;" horiz-adv-x="1730" 
d="M1151 1220h-571v129h571v-129zM510 162q86 0 149 55t63 138v114h-219q-92 -1 -141 -41t-49 -112t56 -112q55 -42 141 -42zM1196 894q-100 0 -164 -68t-65 -175v-26h447v18q0 115 -59 183t-159 68zM428 -18q-150 0 -250 86t-99 236q-1 148 99 232t282 85h262v98
q0 85 -50 127t-141 42q-162 0 -189 -115h-224q10 139 116 221t303 82q107 0 195 -35t131 -98h14q43 61 129 97t187 36q203 0 327 -130t124 -348v-123h-677v-72q0 -103 66 -169t160 -65q93 -1 147 33t65 86h228q-9 -86 -73 -162q-120 -144 -354 -144q-148 0 -247 56t-140 143
h-14q-45 -85 -137 -142q-90 -57 -240 -57z" />
    <glyph glyph-name="Gcaron" unicode="&#x1e6;" horiz-adv-x="1295" 
d="M651 1186q-132 0 -222 -103t-90 -309v-176q-1 -196 81 -308t231 -111t233 75t84 187v99h-302v188h533v-275q0 -137 -80 -266q-79 -129 -247 -183q-94 -30 -209 -31q-281 0 -424 169t-143 456v177q0 285 154 451t418 166q124 0 224 -38t165 -102q131 -132 139 -318h-236
q-15 120 -96 186t-213 66zM315 1731h195l146 -124h11l145 124h195l-269 -227h-149z" />
    <glyph glyph-name="gcaron" unicode="&#x1e7;" horiz-adv-x="1155" 
d="M561 881q-109 1 -175 -81t-66 -222v-88q0 -139 68 -217t176 -78t170 81t61 206v97q-1 133 -63 217t-171 85zM563 -212q109 0 171 62t62 177v151h-9q-31 -72 -111 -118t-189 -47q-179 0 -293 126t-114 344v116q0 217 114 345t295 129q119 -1 194 -47t109 -120h9v152h230
v-1040q0 -309 -300 -389q-86 -23 -192 -23q-215 0 -324 95q-108 95 -112 222h232q11 -59 65 -97t163 -38zM282 1501h182l114 -181h7l105 182h185l-211 -303h-162z" />
    <glyph glyph-name="Kcaron" unicode="&#x1e8;" horiz-adv-x="1236" 
d="M256 1731h195l146 -124h11l145 124h195l-269 -227h-149zM392 0h-242v1365h242v-626h11l540 626h269l-493 -586l516 -779h-294l-400 616l-149 -165v-451z" />
    <glyph glyph-name="kcaron" unicode="&#x1e9;" horiz-adv-x="1075" 
d="M376 0h-237v1437h237v-831h10l377 452h268l-395 -457l422 -601h-278l-322 463l-82 -88v-375zM-40 1880h182l114 -181h7l105 182h185l-211 -303h-162z" />
    <glyph glyph-name="Oogonek" unicode="&#x1ea;" horiz-adv-x="1338" 
d="M902 -133q0 -99 119 -99q43 0 74 9v-145q-63 -20 -149 -20t-153 53q-67 52 -68 155t98 185l-6 11q-74 -41 -176 -41q-243 -1 -394 165t-151 446v182q0 290 154 457t420 167t419 -167t153 -457v-182q0 -240 -117 -406q-42 -60 -101 -121q-59 -60 -75 -79q-47 -56 -47 -113
zM340 770v-185q0 -199 90 -303t238 -104t239 104q90 104 90 303v185q-1 201 -91 309t-238 108t-238 -108t-90 -309z" />
    <glyph glyph-name="oogonek" unicode="&#x1eb;" horiz-adv-x="1126" 
d="M520 -14q-188 0 -310 128t-122 345v137q0 216 132 348t344 132t344 -129q131 -129 131 -350v-131q0 -228 -162 -394q-96 -96 -113 -131q-17 -36 -17 -78q-1 -41 33 -69t82 -28t79 8v-142q-57 -20 -143 -20t-156 49q-71 49 -71 157t103 187l-8 11q-70 -30 -146 -30z
M564 890q-112 0 -176 -85t-63 -217v-116q-1 -134 61 -218t178 -84t176 84t60 218v116q0 134 -62 218t-174 84z" />
    <glyph glyph-name="Oogonekmacron" unicode="&#x1ec;" horiz-adv-x="1338" 
d="M954 1516h-572v123h572v-123zM902 -133q0 -99 119 -99q43 0 74 9v-145q-63 -20 -149 -20t-153 53q-67 52 -68 155t98 185l-6 11q-74 -41 -176 -41q-243 -1 -394 165t-151 446v182q0 290 154 457t420 167t419 -167t153 -457v-182q0 -240 -117 -406q-42 -60 -101 -121
q-59 -60 -75 -79q-47 -56 -47 -113zM340 770v-185q0 -199 90 -303t238 -104t239 104q90 104 90 303v185q-1 201 -91 309t-238 108t-238 -108t-90 -309z" />
    <glyph glyph-name="oogonekmacron" unicode="&#x1ed;" horiz-adv-x="1126" 
d="M850 1220h-571v129h571v-129zM520 -14q-188 0 -310 128t-122 345v137q0 216 132 348t344 132t344 -129q131 -129 131 -350v-131q0 -228 -162 -394q-96 -96 -113 -131q-17 -36 -17 -78q-1 -41 33 -69t82 -28t79 8v-142q-57 -20 -143 -20t-156 49q-71 49 -71 157t103 187
l-8 11q-70 -30 -146 -30zM564 890q-112 0 -176 -85t-63 -217v-116q-1 -134 61 -218t178 -84t176 84t60 218v116q0 134 -62 218t-174 84z" />
    <glyph glyph-name="Gacute" unicode="&#x1f4;" horiz-adv-x="1295" 
d="M651 1186q-132 0 -222 -103t-90 -309v-176q-1 -196 81 -308t231 -111t233 75t84 187v99h-302v188h533v-275q0 -137 -80 -266q-79 -129 -247 -183q-94 -30 -209 -31q-281 0 -424 169t-143 456v177q0 285 154 451t418 166q124 0 224 -38t165 -102q131 -132 139 -318h-236
q-15 120 -96 186t-213 66zM524 1507l262 213h249l-304 -213h-207z" />
    <glyph glyph-name="gacute" unicode="&#x1f5;" horiz-adv-x="1155" 
d="M561 881q-109 1 -175 -81t-66 -222v-88q0 -139 68 -217t176 -78t170 81t61 206v97q-1 133 -63 217t-171 85zM563 -212q109 0 171 62t62 177v151h-9q-31 -72 -111 -118t-189 -47q-179 0 -293 126t-114 344v116q0 217 114 345t295 129q119 -1 194 -47t109 -120h9v152h230
v-1040q0 -309 -300 -389q-86 -23 -192 -23q-215 0 -324 95q-108 95 -112 222h232q11 -59 65 -97t163 -38zM655 1219h-195l198 286h240z" />
    <glyph glyph-name="Ngrave" unicode="&#x1f8;" horiz-adv-x="1375" 
d="M381 0h-231v1365h209l627 -955h8v955h230v-1365h-207l-629 958h-7v-958zM814 1507h-200l-298 208h242z" />
    <glyph glyph-name="ngrave" unicode="&#x1f9;" horiz-adv-x="1185" 
d="M137 0v1058h232v-149h9q30 68 110 117t195 49q163 -1 267 -99t103 -277v-699h-237v625q0 246 -219 246q-105 0 -165 -65t-59 -188v-618h-236zM725 1222h-195l-248 283h240z" />
    <glyph glyph-name="Aringacute" unicode="&#x1fa;" horiz-adv-x="1241" 
d="M376 1481q0 107 70 175t171 69q20 0 39 -3l213 173h257l-330 -248q61 -66 61 -165t-84 -162l450 -1320h-259l-115 368h-471l-117 -368h-243l449 1312q-91 62 -91 169zM797 552l-177 568h-11l-178 -568h366zM507 1488q1 -46 33 -78t78 -31q46 -1 77 31q32 32 32 78t-32 76
q-31 32 -77 32t-78 -32q-32 -30 -33 -76z" />
    <glyph glyph-name="aringacute" unicode="&#x1fb;" horiz-adv-x="1086" 
d="M451 1389q0 -41 28 -69q29 -28 69 -29q40 1 68 29t27 69q1 41 -27 69t-68 28t-69 -28q-28 -28 -28 -69zM548 1188q-88 0 -148 58t-59 143q-1 86 59 143t148 57q15 0 30 -2l181 255h232l-282 -325q45 -53 45 -134t-59 -138t-147 -57zM510 162q86 0 148 55t62 138v108h-220
q-90 1 -136 -39t-47 -111q0 -71 54 -111t139 -40zM428 -16q-156 0 -252 86t-95 232q-1 146 97 230t278 84h264v112q0 160 -180 160t-195 -147h-225q8 144 106 239t304 95q425 0 425 -352v-723h-223v136h-10q-38 -68 -112 -110t-182 -42z" />
    <glyph glyph-name="AEacute" unicode="&#x1fc;" horiz-adv-x="1879" 
d="M917 376h-448l-191 -376h-268l692 1365h1070v-201h-615v-376h579v-191h-579v-395h615v-202h-855v376zM917 566v598h-69l-292 -598h361zM1208 1507l262 213h249l-304 -213h-207z" />
    <glyph glyph-name="aeacute" unicode="&#x1fd;" horiz-adv-x="1730" 
d="M510 162q86 0 149 55t63 138v114h-219q-92 -1 -141 -41t-49 -112t56 -112q55 -42 141 -42zM1196 894q-100 0 -164 -68t-65 -175v-26h447v18q0 115 -59 183t-159 68zM428 -18q-150 0 -250 86t-99 236q-1 148 99 232t282 85h262v98q0 85 -50 127t-141 42q-162 0 -189 -115
h-224q10 139 116 221t303 82q107 0 195 -35t131 -98h14q43 61 129 97t187 36q203 0 327 -130t124 -348v-123h-677v-72q0 -103 66 -169t160 -65q93 -1 147 33t65 86h228q-9 -86 -73 -162q-120 -144 -354 -144q-148 0 -247 56t-140 143h-14q-45 -85 -137 -142
q-90 -57 -240 -57zM942 1219h-195l198 286h240z" />
    <glyph glyph-name="Oslashacute" unicode="&#x1fe;" horiz-adv-x="1338" 
d="M532 1507l262 213h249l-304 -213h-207zM668 173q150 1 242 105t91 305v187q0 102 -28 178l-544 -674q89 -101 239 -101zM336 583q0 -93 23 -162l541 671q-89 98 -235 98q-145 0 -237 -109t-92 -311v-187zM684 -27q-250 0 -395 128l-99 -123l-115 93l115 142
q-94 151 -94 373v182q0 290 154 457t420 167q226 0 372 -126l92 114l119 -86l-112 -138q101 -155 101 -388v-182q0 -288 -154 -450t-404 -163z" />
    <glyph glyph-name="oslashacute" unicode="&#x1ff;" horiz-adv-x="1126" 
d="M641 1219h-195l198 286h240zM564 -18q-163 0 -283 80l-103 -132l-102 81l109 141q-97 127 -97 314v130q0 216 132 348t344 132q159 0 279 -81l101 130l104 -83l-108 -139q99 -129 99 -306v-131q0 -228 -130 -356t-345 -128zM319 452q0 -71 25 -121l377 505
q-63 61 -167 61t-170 -87t-65 -221v-137zM574 165q106 0 169 86t63 221v138q0 64 -24 117l-377 -502q63 -60 169 -60z" />
    <glyph glyph-name="Adblgrave" unicode="&#x200;" horiz-adv-x="1241" 
d="M557 1508h-183l-301 222h208zM904 1508h-182l-301 222h208zM618 1120h-9l-179 -568h366zM261 0h-244l466 1365h275l465 -1365h-259l-116 368h-471z" />
    <glyph glyph-name="adblgrave" unicode="&#x201;" horiz-adv-x="1086" 
d="M639 1219l-263 321h188l220 -321h-145zM324 1219l-262 321h188l221 -321h-147zM510 162q86 0 148 55t62 138v108h-220q-90 1 -136 -39t-47 -111q0 -71 54 -111t139 -40zM428 -16q-156 0 -252 86t-95 232q-1 146 97 230t278 84h264v112q0 160 -180 160t-195 -147h-225
q8 144 106 239t304 95q425 0 425 -352v-723h-223v136h-10q-38 -68 -112 -110t-182 -42z" />
    <glyph glyph-name="Ainvertedbreve" unicode="&#x202;" horiz-adv-x="1241" 
d="M620 1628q-83 0 -133 -40t-50 -99h-146q1 118 85 197t244 79t244 -79t83 -197h-144q0 59 -50 99t-133 40zM618 1120h-9l-179 -568h366zM261 0h-244l466 1365h275l465 -1365h-259l-116 368h-471z" />
    <glyph glyph-name="ainvertedbreve" unicode="&#x203;" horiz-adv-x="1086" 
d="M234 1197q0 169 137 253q72 44 159 44q165 0 242 -91t77 -206h-144q1 69 -41 117t-122 47q-80 1 -122 -47t-41 -117h-145zM510 162q86 0 148 55t62 138v108h-220q-90 1 -136 -39t-47 -111q0 -71 54 -111t139 -40zM428 -16q-156 0 -252 86t-95 232q-1 146 97 230t278 84
h264v112q0 160 -180 160t-195 -147h-225q8 144 106 239t304 95q425 0 425 -352v-723h-223v136h-10q-38 -68 -112 -110t-182 -42z" />
    <glyph glyph-name="Edblgrave" unicode="&#x204;" horiz-adv-x="1118" 
d="M1012 202v-202h-862v1365h862v-202h-621v-375h584v-191h-584v-395h621zM511 1508h-183l-301 222h208zM858 1508h-182l-301 222h208z" />
    <glyph glyph-name="edblgrave" unicode="&#x205;" horiz-adv-x="1089" 
d="M641 1219l-263 321h188l220 -321h-145zM326 1219l-262 321h188l221 -321h-147zM321 636h454v2q0 114 -61 185q-62 71 -166 71t-166 -72t-61 -184v-2zM88 482v89q0 233 122 369t339 136t337 -137t119 -367v-95h-684v-33q0 -117 62 -196t165 -79q102 0 154 40t64 101h228
q-11 -95 -74 -177q-117 -151 -351 -151q-233 0 -357 134t-124 366z" />
    <glyph glyph-name="Einvertedbreve" unicode="&#x206;" horiz-adv-x="1118" 
d="M574 1628q-83 0 -133 -40t-50 -99h-146q1 118 85 197t244 79t244 -79t83 -197h-144q0 59 -50 99t-133 40zM1012 202v-202h-862v1365h862v-202h-621v-375h584v-191h-584v-395h621z" />
    <glyph glyph-name="einvertedbreve" unicode="&#x207;" horiz-adv-x="1089" 
d="M236 1197q0 169 137 253q72 44 159 44q165 0 242 -91t77 -206h-144q1 69 -41 117t-122 47q-80 1 -122 -47t-41 -117h-145zM321 636h454v2q0 114 -61 185q-62 71 -166 71t-166 -72t-61 -184v-2zM88 482v89q0 233 122 369t339 136t337 -137t119 -367v-95h-684v-33
q0 -117 62 -196t165 -79q102 0 154 40t64 101h228q-11 -95 -74 -177q-117 -151 -351 -151q-233 0 -357 134t-124 366z" />
    <glyph glyph-name="Idblgrave" unicode="&#x208;" horiz-adv-x="543" 
d="M208 1508h-183l-301 222h208zM555 1508h-182l-301 222h208zM392 0h-242v1365h242v-1365z" />
    <glyph glyph-name="idblgrave" unicode="&#x209;" horiz-adv-x="553" 
d="M376 1219l-263 321h188l220 -321h-145zM61 1219l-262 321h188l221 -321h-147zM161 0v1058h240v-1058h-240z" />
    <glyph glyph-name="Iinvertedbreve" unicode="&#x20a;" horiz-adv-x="543" 
d="M271 1628q-83 0 -133 -40t-50 -99h-146q0 118 84 197t245 79q159 0 243 -79t84 -197h-144q0 59 -50 99t-133 40zM392 0h-242v1365h242v-1365z" />
    <glyph glyph-name="iinvertedbreve" unicode="&#x20b;" horiz-adv-x="553" 
d="M-29 1197q0 169 137 253q72 44 159 44q165 0 242 -91t77 -206h-144q0 69 -42 117t-121 47q-79 1 -121 -47t-42 -117h-145zM161 0v1058h240v-1058h-240z" />
    <glyph glyph-name="Odblgrave" unicode="&#x20c;" horiz-adv-x="1338" 
d="M96 586v182q0 290 154 457t420 167t419 -167t153 -457v-182q0 -288 -154 -450t-420 -163q-268 0 -420 162t-152 451zM340 770v-185q0 -199 90 -303t238 -104t239 104q90 104 90 303v185q-1 201 -91 309t-238 108t-238 -108t-90 -309zM605 1508h-183l-301 222h208z
M952 1508h-182l-301 222h208z" />
    <glyph glyph-name="odblgrave" unicode="&#x20d;" horiz-adv-x="1126" 
d="M660 1219l-263 321h188l220 -321h-145zM345 1219l-262 321h188l221 -321h-147zM564 890q-133 0 -186 -96t-53 -234v-61q0 -232 124 -302q49 -27 115 -27q134 0 185 96t51 233v61q0 330 -236 330zM564 1076q232 0 354 -138t121 -369v-76q0 -239 -121 -375t-354 -136
q-232 0 -354 136t-122 375v75q0 311 212 441q109 67 264 67z" />
    <glyph glyph-name="Oinvertedbreve" unicode="&#x20e;" horiz-adv-x="1338" 
d="M96 586v182q0 290 154 457t420 167t419 -167t153 -457v-182q0 -288 -154 -450t-420 -163q-268 0 -420 162t-152 451zM340 770v-185q0 -199 90 -303t238 -104t239 104q90 104 90 303v185q-1 201 -91 309t-238 108t-238 -108t-90 -309zM668 1628q-83 0 -133 -40t-50 -99
h-146q1 118 85 197t244 79t244 -79t83 -197h-144q0 59 -50 99t-133 40z" />
    <glyph glyph-name="oinvertedbreve" unicode="&#x20f;" horiz-adv-x="1126" 
d="M255 1197q0 169 137 253q72 44 159 44q165 0 242 -91t77 -206h-144q0 69 -42 117t-121 47q-79 1 -121 -47t-42 -117h-145zM564 890q-133 0 -186 -96t-53 -234v-61q0 -232 124 -302q49 -27 115 -27q134 0 185 96t51 233v61q0 330 -236 330zM564 1076q232 0 354 -138
t121 -369v-76q0 -239 -121 -375t-354 -136q-232 0 -354 136t-122 375v75q0 311 212 441q109 67 264 67z" />
    <glyph glyph-name="Rdblgrave" unicode="&#x210;" horiz-adv-x="1246" 
d="M390 706h251q123 0 189 59t67 171q-1 112 -69 174q-68 61 -182 61h-256v-465zM680 1365q339 0 438 -259q29 -76 29 -160q0 -167 -80 -260t-170 -128l276 -558h-272l-243 519h-268v-519h-240v1365h530zM532 1508h-183l-301 222h208zM879 1508h-182l-301 222h208z" />
    <glyph glyph-name="rdblgrave" unicode="&#x211;" horiz-adv-x="752" 
d="M521 1219l-263 321h188l220 -321h-145zM206 1219l-262 321h188l221 -321h-147zM150 0v1058h236v-137h9q60 153 251 153q41 0 78 -7v-207q-25 8 -98 8q-236 0 -236 -246v-622h-240z" />
    <glyph glyph-name="Rinvertedbreve" unicode="&#x212;" horiz-adv-x="1246" 
d="M595 1628q-83 0 -133 -40t-50 -99h-146q0 118 84 197t245 79q159 0 243 -79t84 -197h-144q0 59 -50 99t-133 40zM390 706h251q123 0 189 59t67 171q-1 112 -69 174q-68 61 -182 61h-256v-465zM680 1365q339 0 438 -259q29 -76 29 -160q0 -167 -80 -260t-170 -128
l276 -558h-272l-243 519h-268v-519h-240v1365h530z" />
    <glyph glyph-name="rinvertedbreve" unicode="&#x213;" horiz-adv-x="752" 
d="M116 1197q0 169 137 253q72 44 159 44q165 0 242 -91t77 -206h-144q1 69 -41 117t-122 47q-80 1 -122 -47t-41 -117h-145zM150 0v1058h236v-137h9q60 153 251 153q41 0 78 -7v-207q-25 8 -98 8q-236 0 -236 -246v-622h-240z" />
    <glyph glyph-name="Udblgrave" unicode="&#x214;" horiz-adv-x="1352" 
d="M377 1365v-873q1 -146 81 -228t218 -83q138 0 218 83q82 83 82 228v873h241v-892q-1 -226 -149 -363t-392 -137t-392 138t-149 365v889h242zM612 1508h-183l-301 222h208zM959 1508h-182l-301 222h208z" />
    <glyph glyph-name="udblgrave" unicode="&#x215;" horiz-adv-x="1181" 
d="M687 1219l-263 321h188l220 -321h-145zM372 1219l-262 321h188l221 -321h-147zM1043 1058v-1058h-231v150h-10q-29 -70 -107 -118t-199 -48q-168 0 -267 96t-99 276v702h237v-638q1 -126 61 -180t158 -54t159 62q62 62 62 175v635h236z" />
    <glyph glyph-name="Uinvertedbreve" unicode="&#x216;" horiz-adv-x="1352" 
d="M675 1628q-83 0 -133 -40t-50 -99h-146q0 118 84 197t245 79q159 0 243 -79t84 -197h-144q0 59 -50 99t-133 40zM377 1365v-873q1 -146 81 -228t218 -83q138 0 218 83q82 83 82 228v873h241v-892q-1 -226 -149 -363t-392 -137t-392 138t-149 365v889h242z" />
    <glyph glyph-name="uinvertedbreve" unicode="&#x217;" horiz-adv-x="1181" 
d="M282 1197q0 169 137 253q72 44 159 44q165 0 242 -91t77 -206h-144q1 69 -41 117t-122 47q-80 1 -122 -47t-41 -117h-145zM1043 1058v-1058h-231v150h-10q-29 -70 -107 -118t-199 -48q-168 0 -267 96t-99 276v702h237v-638q1 -126 61 -180t158 -54t159 62q62 62 62 175
v635h236z" />
    <glyph glyph-name="Scommaaccent" unicode="&#x218;" horiz-adv-x="1191" 
d="M570 -489h-166l85 335h195zM590 170q132 0 204 55t73 139t-51 128t-163 71l-219 53q-142 32 -241 120q-98 88 -98 233t69 239q136 186 430 187q138 0 250 -47q112 -48 178 -140t68 -214h-230q-7 89 -76 147t-188 58q-118 1 -188 -51t-70 -142q0 -133 188 -177l220 -53
q268 -62 336 -229q27 -66 27 -152q1 -198 -145 -310t-387 -112q-312 1 -444 185q-71 99 -73 224h235q8 -92 86 -152q77 -60 209 -60z" />
    <glyph glyph-name="scommaaccent" unicode="&#x219;" horiz-adv-x="1014" 
d="M500 -489h-166l85 335h195zM93 761q0 73 34 137q35 64 93 102q117 76 295 76q177 0 283 -88t106 -233h-211q-6 63 -51 109t-134 45q-89 1 -139 -37t-50 -90q1 -52 17 -70t26 -28t32 -18q21 -8 34 -13t40 -11q28 -6 40 -8t42 -8q30 -4 74 -12q119 -20 215 -84t96 -216
q-1 -152 -119 -242t-318 -90t-312 84q-113 84 -113 227h230q9 -64 61 -103t146 -39q95 -1 145 39t50 112t-99 106q-80 27 -164 37q-209 42 -279 115q-70 74 -70 201z" />
    <glyph glyph-name="Tcommaaccent" unicode="&#x21a;" horiz-adv-x="1067" 
d="M653 0h-240v1160h-396v205h1033v-205h-397v-1160zM526 -489h-166l85 335h195z" />
    <glyph glyph-name="tcommaaccent" unicode="&#x21b;" horiz-adv-x="715" 
d="M203 1050v264h230v-264h206v-185h-206v-543q-1 -84 35 -114t100 -30t77 2v-179q-51 -8 -145 -8t-168 33q-74 34 -104 98t-29 174v567h-148v185h152zM422 -489h-166l85 335h195z" />
    <glyph glyph-name="Hcaron" unicode="&#x21e;" horiz-adv-x="1392" 
d="M350 1731h195l146 -124h11l145 124h195l-269 -227h-149zM1242 0h-242v598h-608v-598h-242v1365h242v-563h608v563h242v-1365z" />
    <glyph glyph-name="hcaron" unicode="&#x21f;" horiz-adv-x="1191" 
d="M-38 1880h182l114 -181h7l105 182h185l-211 -303h-162zM141 0v1437h236v-528h10q26 65 101 115t193 51q173 0 277 -111t103 -297v-667h-237v614q0 122 -58 190t-162 67q-104 0 -166 -67t-61 -191v-613h-236z" />
    <glyph glyph-name="Adotaccent" unicode="&#x226;" horiz-adv-x="1241" 
d="M506 1606q0 50 32 84t84 33q50 1 84 -33t35 -84q-1 -50 -35 -84q-34 -32 -84 -32t-84 32q-32 34 -32 84zM618 1120h-9l-179 -568h366zM261 0h-244l466 1365h275l465 -1365h-259l-116 368h-471z" />
    <glyph glyph-name="adotaccent" unicode="&#x227;" horiz-adv-x="1086" 
d="M428 1298q0 50 32 84t84 34q50 0 84 -34t35 -84q-1 -50 -35 -82t-84 -33q-50 1 -84 33q-32 32 -32 82zM510 162q86 0 148 55t62 138v108h-220q-90 1 -136 -39t-47 -111q0 -71 54 -111t139 -40zM428 -16q-156 0 -252 86t-95 232q-1 146 97 230t278 84h264v112
q0 160 -180 160t-195 -147h-225q8 144 106 239t304 95q425 0 425 -352v-723h-223v136h-10q-38 -68 -112 -110t-182 -42z" />
    <glyph glyph-name="Ecedilla" unicode="&#x228;" horiz-adv-x="1118" 
d="M540 -352q113 0 113 68q1 39 -33 51t-104 12h-54v93l48 128h-360v1365h862v-202h-621v-375h584v-191h-584v-395h621v-202h-357l-43 -112q92 0 146 -43t54 -130t-64 -135t-164 -50q-99 -3 -157 15v117q47 -14 113 -14z" />
    <glyph glyph-name="ecedilla" unicode="&#x229;" horiz-adv-x="1089" 
d="M520 -365q113 0 113 67q0 41 -37 52t-100 11h-54v94l48 126q-194 21 -298 152t-104 345v89q0 233 122 369t339 136t337 -137t119 -367v-95h-684v-33q0 -117 62 -196t165 -79q102 0 154 40t64 101h228q-18 -142 -132 -236q-88 -73 -228 -88l-42 -111q92 1 146 -43t54 -131
t-64 -135t-160 -50q-96 -3 -161 15v117q44 -13 113 -13zM321 636h454v2q0 114 -61 185q-62 71 -166 71t-166 -72t-61 -184v-2z" />
    <glyph glyph-name="Odieresismacron" unicode="&#x22a;" horiz-adv-x="1338" 
d="M954 1793h-572v123h572v-123zM96 586v182q0 290 154 457t420 167t419 -167t153 -457v-182q0 -288 -154 -450t-420 -163q-268 0 -420 162t-152 451zM340 770v-185q0 -199 90 -303t238 -104t239 104q90 104 90 303v185q-1 201 -91 309t-238 108t-238 -108t-90 -309z
M753 1582q-1 44 27 72t72 27q44 1 72 -27t28 -72t-28 -70q-28 -28 -72 -28t-72 28q-28 26 -27 70zM424 1582q0 44 28 72t71 27q44 1 72 -27t28 -72q1 -44 -27 -70q-28 -28 -72 -28t-72 28q-28 26 -28 70z" />
    <glyph glyph-name="odieresismacron" unicode="&#x22b;" horiz-adv-x="1126" 
d="M850 1539h-571v129h571v-129zM564 890q-133 0 -186 -96t-53 -234v-61q0 -232 124 -302q49 -27 115 -27q134 0 185 96t51 233v61q0 330 -236 330zM564 1076q232 0 354 -138t121 -369v-76q0 -239 -121 -375t-354 -136q-232 0 -354 136t-122 375v75q0 311 212 441
q109 67 264 67zM644 1278q0 48 30 79t81 31q50 0 81 -30t31 -80t-31 -80q-30 -30 -80 -30t-81 31t-31 79zM264 1278q0 48 30 79t80 31t81 -30t31 -80t-31 -80t-80 -30t-80 31t-31 79z" />
    <glyph glyph-name="Otildemacron" unicode="&#x22c;" horiz-adv-x="1338" 
d="M954 1793h-572v123h572v-123zM778 1584q58 0 66 99h128q0 -84 -50 -147t-118 -63q-66 1 -96 15t-46 30t-28 26q-38 36 -67 36q-60 0 -64 -88h-128q-1 84 45 146t130 61t168 -83q32 -32 60 -32zM96 586v182q0 290 154 457t420 167t419 -167t153 -457v-182
q0 -288 -154 -450t-420 -163q-268 0 -420 162t-152 451zM340 770v-185q0 -199 90 -303t238 -104t239 104q90 104 90 303v185q-1 201 -91 309t-238 108t-238 -108t-90 -309z" />
    <glyph glyph-name="otildemacron" unicode="&#x22d;" horiz-adv-x="1126" 
d="M564 890q-133 0 -186 -96t-53 -234v-61q0 -232 124 -302q49 -27 115 -27q134 0 185 96t51 233v61q0 330 -236 330zM564 1076q232 0 354 -138t121 -369v-76q0 -239 -121 -375t-354 -136q-232 0 -354 136t-122 375v75q0 311 212 441q109 67 264 67zM850 1539h-571v129h571
v-129zM672 1305q62 0 70 111h139q-1 -100 -57 -176t-142 -76t-166 81q-9 9 -13 12q-3 3 -9 7l-9 6q-21 10 -38 11q-66 0 -70 -99h-140q1 106 51 179t140 73t174 -88q38 -40 70 -41z" />
    <glyph glyph-name="Odotaccent" unicode="&#x22e;" horiz-adv-x="1338" 
d="M96 586v182q0 290 154 457t420 167t419 -167t153 -457v-182q0 -288 -154 -450t-420 -163q-268 0 -420 162t-152 451zM340 770v-185q0 -199 90 -303t238 -104t239 104q90 104 90 303v185q-1 201 -91 309t-238 108t-238 -108t-90 -309zM554 1606q0 50 32 84t84 33
q50 1 84 -33t35 -84q-1 -50 -35 -84q-34 -32 -84 -32t-84 32q-32 34 -32 84z" />
    <glyph glyph-name="odotaccent" unicode="&#x22f;" horiz-adv-x="1126" 
d="M564 890q-133 0 -186 -96t-53 -234v-61q0 -232 124 -302q49 -27 115 -27q134 0 185 96t51 233v61q0 330 -236 330zM564 1076q232 0 354 -138t121 -369v-76q0 -239 -121 -375t-354 -136q-232 0 -354 136t-122 375v75q0 311 212 441q109 67 264 67zM449 1298q1 50 33 84
t82 34t86 -34q34 -34 34 -84t-34 -82t-86 -33q-50 1 -82 33t-33 82z" />
    <glyph glyph-name="Odotaccentmacron" unicode="&#x230;" horiz-adv-x="1338" 
d="M954 1793h-572v123h572v-123zM96 586v182q0 290 154 457t420 167t419 -167t153 -457v-182q0 -288 -154 -450t-420 -163q-268 0 -420 162t-152 451zM340 770v-185q0 -199 90 -303t238 -104t239 104q90 104 90 303v185q-1 201 -91 309t-238 108t-238 -108t-90 -309z
M554 1606q0 50 32 84t84 33q50 1 84 -33t35 -84q-1 -50 -35 -84q-34 -32 -84 -32t-84 32q-32 34 -32 84z" />
    <glyph glyph-name="odotaccentmacron" unicode="&#x231;" horiz-adv-x="1126" 
d="M564 890q-133 0 -186 -96t-53 -234v-61q0 -232 124 -302q49 -27 115 -27q134 0 185 96t51 233v61q0 330 -236 330zM564 1076q232 0 354 -138t121 -369v-76q0 -239 -121 -375t-354 -136q-232 0 -354 136t-122 375v75q0 311 212 441q109 67 264 67zM850 1539h-571v129h571
v-129zM449 1298q1 50 33 84t82 34t86 -34q34 -34 34 -84t-34 -82t-86 -33q-50 1 -82 33t-33 82z" />
    <glyph glyph-name="Ymacron" unicode="&#x232;" horiz-adv-x="1132" 
d="M852 1516h-572v123h572v-123zM687 0h-242v539l-456 826h270l305 -587h8l308 587h264l-457 -822v-543z" />
    <glyph glyph-name="ymacron" unicode="&#x233;" horiz-adv-x="1072" 
d="M822 1220h-571v129h571v-129zM250 -380q-82 0 -144 11v175q34 -6 105 -6q143 0 176 151l12 43l-373 1064h261l243 -848h9l247 848h250q-353 -1031 -356 -1039l-27 -72q-54 -146 -142 -236q-87 -91 -261 -91z" />
    <glyph glyph-name="circumflex" unicode="&#x2c6;" horiz-adv-x="947" 
d="M200 1208l221 302h162l211 -303h-185l-105 182h-7l-115 -181h-182z" />
    <glyph glyph-name="caron" unicode="&#x2c7;" horiz-adv-x="947" 
d="M175 1529h182l114 -181h7l105 182h185l-211 -303h-162z" />
    <glyph glyph-name="breve" unicode="&#x2d8;" horiz-adv-x="947" 
d="M308 1541q0 -69 42 -117t121 -47q79 -1 121 47t42 117h144q0 -113 -77 -205t-230 -92q-99 0 -171 44q-139 86 -137 253h145z" />
    <glyph glyph-name="dotaccent" unicode="&#x2d9;" horiz-adv-x="947" 
d="M345 1446q1 62 41 100t101 38t102 -39t41 -100t-41 -99t-102 -38t-101 38t-41 100z" />
    <glyph glyph-name="ring" unicode="&#x2da;" horiz-adv-x="947" 
d="M381 1423q0 -41 28 -69q29 -28 69 -29q40 1 68 29t27 69q1 41 -27 69t-68 28t-69 -28q-28 -28 -28 -69zM478 1222q-88 0 -148 58t-59 143q-1 86 59 143t148 57t147 -57q59 -58 59 -144t-59 -143t-147 -57z" />
    <glyph glyph-name="ogonek" unicode="&#x2db;" horiz-adv-x="947" 
d="M516 -388q-97 0 -159 50t-62 142q0 116 146 264q29 30 34 35h141q-148 -145 -148 -242q0 -47 32 -71t74 -25q44 0 87 10v-140q-48 -23 -145 -23z" />
    <glyph glyph-name="tilde" unicode="&#x2dc;" horiz-adv-x="947" 
d="M544 1366q62 0 70 111h139q-1 -100 -57 -176t-142 -76t-166 81q-9 9 -13 12q-3 4 -9 8l-9 6q-21 10 -38 10q-66 0 -70 -99h-140q1 106 51 179t140 73q90 -1 174 -89q38 -40 70 -40z" />
    <glyph glyph-name="hungarumlaut" unicode="&#x2dd;" horiz-adv-x="947" 
d="M565 1221h-147l221 321h188zM250 1221h-146l221 321h188z" />
    <glyph glyph-name="gravecmb" unicode="&#x300;" 
d="M133 1222h-195l-248 283h240z" />
    <glyph glyph-name="acutecmb" unicode="&#x301;" 
d="M78 1219h-195l198 286h240z" />
    <glyph glyph-name="circumflexcmb" unicode="&#x302;" 
d="M-304 1221l221 302h162l211 -303h-185l-105 182h-7l-115 -181h-182z" />
    <glyph glyph-name="tildecmb" unicode="&#x303;" 
d="M109 1305q62 0 70 111h139q0 -100 -56 -176t-142 -76t-167 81q-9 9 -13 12t-10 7t-8 6q-21 10 -38 11q-66 0 -70 -99h-140q0 106 50 179t141 73q90 0 174 -88q38 -40 70 -41z" />
    <glyph glyph-name="macroncmb" unicode="&#x304;" 
d="M287 1220h-571v129h571v-129z" />
    <glyph glyph-name="brevecmb" unicode="&#x306;" 
d="M-169 1461q-1 -69 41 -117t122 -47q80 -1 122 47t41 117h144q0 -113 -77 -205t-230 -92q-99 0 -171 44q-139 86 -137 253h145z" />
    <glyph glyph-name="dotaccentcmb" unicode="&#x307;" 
d="M-114 1298q0 50 32 84t84 34q50 0 84 -34t35 -84q-1 -50 -35 -82t-84 -33q-50 1 -84 33q-32 32 -32 82z" />
    <glyph glyph-name="dieresiscmb" unicode="&#x308;" 
d="M81 1278q1 48 31 79t80 31t81 -30t31 -80t-31 -80t-81 -30t-80 31t-31 79zM-299 1278q1 48 31 79t80 31t80 -30q31 -30 31 -80t-31 -80q-30 -30 -80 -30t-80 31t-31 79z" />
    <glyph glyph-name="hookabovecmb" unicode="&#x309;" 
d="M56 1372q0 34 -28 56t-78 22t-88 -14v115q43 18 129 18t146 -50t60 -131q-1 -82 -43 -128t-121 -88l-72 93q95 54 95 107z" />
    <glyph glyph-name="ringcmb" unicode="&#x30a;" 
d="M-99 1389q0 -41 28 -69q29 -28 69 -29q40 1 68 29t27 69q1 41 -27 69t-68 28t-69 -28q-28 -28 -28 -69zM-2 1188q-88 0 -148 58t-59 143q-1 86 59 143t148 57t147 -57q59 -58 59 -144t-59 -143t-147 -57z" />
    <glyph glyph-name="hungarumlautcmb" unicode="&#x30b;" 
d="M201 1219h-147l221 321h188zM-114 1219h-146l221 321h188z" />
    <glyph glyph-name="caroncmb" unicode="&#x30c;" 
d="M-295 1501h182l114 -181h7l105 182h185l-211 -303h-162z" />
    <glyph glyph-name="dblgravecmb" unicode="&#x30f;" 
d="M97 1219l-263 321h188l220 -321h-145zM-218 1219l-262 321h188l221 -321h-147z" />
    <glyph glyph-name="invertedbrevecmb" unicode="&#x311;" 
d="M-308 1197q0 169 137 253q72 44 159 44q165 0 242 -91t77 -206h-144q1 69 -41 117t-122 47q-80 1 -122 -47t-41 -117h-145z" />
    <glyph glyph-name="horncmb" unicode="&#x31b;" 
d="M37 1209v157h194v-176q0 -129 -62 -215t-188 -86q-94 0 -135 27v185q34 -31 88 -29q102 2 103 137z" />
    <glyph glyph-name="dotbelowcmb" unicode="&#x323;" 
d="M-119 -266q0 52 35 88t87 35q52 1 88 -35t36 -88t-36 -88q-36 -34 -88 -34t-87 35t-35 87z" />
    <glyph glyph-name="dieresisbelowcmb" unicode="&#x324;" 
d="M79 -310q1 48 31 79t80 31t81 -30t31 -80t-31 -80t-81 -30t-80 31t-31 79zM-301 -310q1 48 31 79t80 31t80 -30q31 -30 31 -80t-31 -80q-30 -30 -80 -30t-80 31t-31 79z" />
    <glyph glyph-name="ringbelowcmb" unicode="&#x325;" 
d="M-97 -289q0 -41 28 -69q29 -28 69 -29q40 1 68 29t27 69q1 41 -27 69t-68 28t-69 -28q-28 -28 -28 -69zM0 -490q-88 0 -148 58t-59 143q-1 86 59 143t148 57t147 -57q59 -58 59 -144t-59 -143t-147 -57z" />
    <glyph glyph-name="commabelowcmb" unicode="&#x326;" 
d="M-7 -489h-166l85 335h195z" />
    <glyph glyph-name="cedillacmb" unicode="&#x327;" 
d="M-120 -235v94l56 148h144l-50 -132q92 1 146 -43t54 -131t-64 -135t-160 -50q-96 -3 -161 15v117q44 -13 113 -13q113 0 113 67q0 41 -37 52t-100 11h-54z" />
    <glyph glyph-name="ogonekcmb" unicode="&#x328;" 
d="M16 -388q-97 0 -159 50t-62 142q0 116 146 264q29 30 34 35h141q-148 -145 -148 -242q0 -47 32 -71t74 -25q44 0 87 10v-140q-48 -23 -145 -23z" />
    <glyph glyph-name="circumflexbelowcmb" unicode="&#x32d;" 
d="M-300 -401l220 289h162l211 -291h-185l-105 173h-7l-115 -171h-181z" />
    <glyph glyph-name="brevebelowcmb" unicode="&#x32e;" 
d="M-321 -133h152q0 -69 43 -117t126 -47q83 -1 126 47t43 117h145q0 -116 -78 -206t-237 -90q-158 0 -239 90q-81 89 -81 206z" />
    <glyph glyph-name="tildebelowcmb" unicode="&#x330;" 
d="M-306 -340q0 89 47 154t131 65t154 -69q39 -39 54 -46t27 -7q33 0 49 32t18 73h131q1 -89 -51 -156t-120 -67q-100 0 -147 48l-28 28q-39 39 -68 39q-60 0 -66 -94h-131z" />
    <glyph glyph-name="macronbelowcmb" unicode="&#x331;" 
d="M287 -326h-571v129h571v-129z" />
    <glyph glyph-name="Delta" unicode="&#x394;" horiz-adv-x="1241" 
d="M609 1120l-287 -907h582l-284 907h-11zM18 0l466 1365h275l464 -1365h-1205z" />
    <glyph glyph-name="Omega" unicode="&#x3a9;" horiz-adv-x="1350" 
d="M770 0v242q100 32 166 147t67 275v143q-1 195 -89 287t-239 93q-151 -1 -240 -93t-89 -287v-143q0 -156 63 -270t159 -148v-245h-491v203h237v19q-92 44 -152 168t-60 277v143q0 285 152 433t422 148q272 0 422 -148t150 -433v-143q0 -152 -63 -276t-157 -169v-22h246
v-201h-504z" />
    <glyph glyph-name="mu" unicode="&#x3bc;" horiz-adv-x="1211" 
d="M130 -336v1394h237v-663q1 -115 57 -165t151 -49q95 -1 163 65t69 164v648h236v-790q0 -101 97 -101q29 0 54 5v-173q-58 -14 -144 -14t-149 45t-68 149h-13q-20 -76 -97 -135t-197 -59q-58 0 -110 18t-75 47h-11l13 -386h-213z" />
    <glyph glyph-name="pi" unicode="&#x3c0;" horiz-adv-x="1325" 
d="M1064 -13q-98 1 -162 59t-64 157v670h-335v-873h-236v873h-222v185h1234v-185h-205v-605q0 -43 22 -68t63 -25q40 0 64 6v-181q-61 -13 -159 -13z" />
    <glyph glyph-name="Aringbelow" unicode="&#x1e00;" horiz-adv-x="1241" 
d="M514 -271q0 -41 28 -69t68 -29q40 1 68 29t28 69t-28 69t-68 28t-68 -28t-28 -69zM611 -472q-87 0 -147 58t-60 143q0 86 60 143t147 57q88 0 147 -57q59 -58 59 -144t-59 -143t-147 -57zM618 1120h-9l-179 -568h366zM261 0h-244l466 1365h275l465 -1365h-259l-116 368
h-471z" />
    <glyph glyph-name="aringbelow" unicode="&#x1e01;" horiz-adv-x="1086" 
d="M445 -289q0 -41 28 -69q29 -28 69 -29q40 1 68 29t27 69q1 41 -27 69t-68 28t-69 -28q-28 -28 -28 -69zM542 -490q-88 0 -148 58t-59 143q-1 86 59 143t148 57t147 -57q59 -58 59 -144t-59 -143t-147 -57zM510 162q86 0 148 55t62 138v108h-220q-90 1 -136 -39t-47 -111
q0 -71 54 -111t139 -40zM428 -16q-156 0 -252 86t-95 232q-1 146 97 230t278 84h264v112q0 160 -180 160t-195 -147h-225q8 144 106 239t304 95q425 0 425 -352v-723h-223v136h-10q-38 -68 -112 -110t-182 -42z" />
    <glyph glyph-name="Bdotaccent" unicode="&#x1e02;" horiz-adv-x="1247" 
d="M479 1606q1 50 33 84t82 33q50 1 86 -33q34 -34 34 -84t-34 -84q-34 -32 -86 -32q-50 0 -82 32q-32 34 -33 84zM391 614v-426h211q241 0 300 106q23 42 23 101q-1 107 -69 163t-188 56h-277zM391 1178v-387h187q282 0 282 197q0 94 -58 142t-152 48h-259zM150 0v1365h553
q179 1 287 -89t109 -247q0 -121 -63 -197t-166 -102v-11q134 -15 218 -103t84 -221t-63 -221q-124 -174 -413 -174h-546z" />
    <glyph glyph-name="bdotaccent" unicode="&#x1e03;" horiz-adv-x="1182" 
d="M612 178q112 0 176 80t64 226v85q0 150 -62 231t-173 81q-109 1 -175 -83t-66 -219v-103q0 -128 62 -213t174 -85zM687 -14q-117 0 -197 48t-110 128h-9v-162h-231v1437h236v-531h9q83 167 306 167q191 0 297 -130t105 -358v-110q0 -233 -107 -361t-299 -128zM141 1678
q1 50 33 84t82 33q50 1 86 -33q34 -34 34 -84t-34 -84q-34 -32 -86 -32q-50 0 -82 32q-32 34 -33 84z" />
    <glyph glyph-name="Bdotbelow" unicode="&#x1e04;" horiz-adv-x="1247" 
d="M391 614v-426h211q241 0 300 106q23 42 23 101q-1 107 -69 163t-188 56h-277zM391 1178v-387h187q282 0 282 197q0 94 -58 142t-152 48h-259zM150 0v1365h553q179 1 287 -89t109 -247q0 -121 -63 -197t-166 -102v-11q134 -15 218 -103t84 -221t-63 -221
q-124 -174 -413 -174h-546zM474 -266q0 52 35 88t87 35q52 1 88 -35t36 -88t-36 -88q-36 -34 -88 -34t-87 35t-35 87z" />
    <glyph glyph-name="bdotbelow" unicode="&#x1e05;" horiz-adv-x="1182" 
d="M612 178q112 0 176 80t64 226v85q0 150 -62 231t-173 81q-109 1 -175 -83t-66 -219v-103q0 -128 62 -213t174 -85zM687 -14q-117 0 -197 48t-110 128h-9v-162h-231v1437h236v-531h9q83 167 306 167q191 0 297 -130t105 -358v-110q0 -233 -107 -361t-299 -128zM472 -266
q0 52 35 88t87 35q52 1 88 -35t36 -88t-36 -88q-36 -34 -88 -34t-87 35t-35 87z" />
    <glyph glyph-name="Blinebelow" unicode="&#x1e06;" horiz-adv-x="1247" 
d="M880 -326h-571v129h571v-129zM391 614v-426h211q241 0 300 106q23 42 23 101q-1 107 -69 163t-188 56h-277zM391 1178v-387h187q282 0 282 197q0 94 -58 142t-152 48h-259zM150 0v1365h553q179 1 287 -89t109 -247q0 -121 -63 -197t-166 -102v-11q134 -15 218 -103
t84 -221t-63 -221q-124 -174 -413 -174h-546z" />
    <glyph glyph-name="blinebelow" unicode="&#x1e07;" horiz-adv-x="1182" 
d="M612 178q112 0 176 80t64 226v85q0 150 -62 231t-173 81q-109 1 -175 -83t-66 -219v-103q0 -128 62 -213t174 -85zM687 -14q-117 0 -197 48t-110 128h-9v-162h-231v1437h236v-531h9q83 167 306 167q191 0 297 -130t105 -358v-110q0 -233 -107 -361t-299 -128zM878 -326
h-571v129h571v-129z" />
    <glyph glyph-name="Ccedillaacute" unicode="&#x1e08;" horiz-adv-x="1270" 
d="M610 -365q112 0 112 67q0 41 -37 52t-99 11h-54v94l44 118q-228 25 -354 185t-126 435v165q0 300 149 465t411 165q123 0 224 -39t166 -105q136 -139 136 -330v-19h-234q0 116 -78 201t-218 85t-226 -108t-86 -316v-163q0 -210 85 -314t229 -103t218 77q76 76 76 191h234
v-20q0 -165 -115 -295q-56 -64 -146 -106q-90 -43 -201 -52l-39 -101q93 1 147 -43t54 -131t-65 -135t-159 -50t-162 15v117q44 -13 114 -13zM513 1507l262 213h249l-304 -213h-207z" />
    <glyph glyph-name="ccedillaacute" unicode="&#x1e09;" horiz-adv-x="1054" 
d="M581 -111q193 -1 193 -173q0 -88 -64 -134q-64 -48 -162 -52q-97 -4 -159 16v117q47 -14 113 -14q113 0 113 68q-1 39 -31 51t-99 11h-54v94l48 113q-185 21 -288 153t-103 341v105q0 219 122 355t329 136t321 -104t116 -254h-221q-8 66 -61 117t-152 51q-98 0 -158 -85
t-60 -221v-100q0 -136 62 -219t161 -83q101 0 151 42t62 107h221q-5 -134 -101 -228t-256 -113zM604 1219h-195l198 286h240z" />
    <glyph glyph-name="Ddotaccent" unicode="&#x1e0a;" horiz-adv-x="1317" 
d="M392 1164v-962h210q194 0 290 115t97 364q-1 354 -205 448q-76 35 -182 35h-210zM1238 701q0 -701 -607 -701h-481v1365h481q461 -1 573 -405q34 -122 34 -259zM489 1606q1 50 33 84t82 33q50 1 86 -33q34 -34 34 -84t-34 -84q-34 -32 -86 -32q-50 0 -82 32
q-32 34 -33 84z" />
    <glyph glyph-name="ddotaccent" unicode="&#x1e0b;" horiz-adv-x="1184" 
d="M564 881q-114 0 -174 -85t-60 -231v-71q0 -148 61 -232t175 -85q114 1 178 83t63 232v79q-1 144 -65 227t-178 83zM494 1073q118 -1 197 -47t107 -120h9v531h236v-1437h-231v162h-9q-22 -74 -105 -125t-204 -51q-192 0 -298 130t-107 354v120q0 221 106 352t299 131z
M812 1678q0 50 32 84t84 33q50 1 84 -33t35 -84q-1 -50 -35 -84q-34 -32 -84 -32t-84 32q-32 34 -32 84z" />
    <glyph glyph-name="Ddotbelow" unicode="&#x1e0c;" horiz-adv-x="1317" 
d="M392 1164v-962h210q194 0 290 115t97 364q-1 354 -205 448q-76 35 -182 35h-210zM1238 701q0 -701 -607 -701h-481v1365h481q461 -1 573 -405q34 -122 34 -259zM484 -266q0 52 35 88t87 35q52 1 88 -35t36 -88t-36 -88q-36 -34 -88 -34t-87 35t-35 87z" />
    <glyph glyph-name="ddotbelow" unicode="&#x1e0d;" horiz-adv-x="1184" 
d="M564 881q-114 0 -174 -85t-60 -231v-71q0 -148 61 -232t175 -85q114 1 178 83t63 232v79q-1 144 -65 227t-178 83zM494 1073q118 -1 197 -47t107 -120h9v531h236v-1437h-231v162h-9q-22 -74 -105 -125t-204 -51q-192 0 -298 130t-107 354v120q0 221 106 352t299 131z
M472 -266q0 52 35 88t87 35q52 1 88 -35t36 -88t-36 -88q-36 -34 -88 -34t-87 35t-35 87z" />
    <glyph glyph-name="Dlinebelow" unicode="&#x1e0e;" horiz-adv-x="1317" 
d="M392 1164v-962h210q194 0 290 115t97 364q-1 354 -205 448q-76 35 -182 35h-210zM1238 701q0 -701 -607 -701h-481v1365h481q461 -1 573 -405q34 -122 34 -259zM890 -326h-571v129h571v-129z" />
    <glyph glyph-name="dlinebelow" unicode="&#x1e0f;" horiz-adv-x="1184" 
d="M564 881q-114 0 -174 -85t-60 -231v-71q0 -148 61 -232t175 -85q114 1 178 83t63 232v79q-1 144 -65 227t-178 83zM494 1073q118 -1 197 -47t107 -120h9v531h236v-1437h-231v162h-9q-22 -74 -105 -125t-204 -51q-192 0 -298 130t-107 354v120q0 221 106 352t299 131z
M878 -326h-571v129h571v-129z" />
    <glyph glyph-name="Dcommaaccent" unicode="&#x1e10;" horiz-adv-x="1317" 
d="M392 1164v-962h210q194 0 290 115t97 364q-1 354 -205 448q-76 35 -182 35h-210zM1238 701q0 -701 -607 -701h-481v1365h481q461 -1 573 -405q34 -122 34 -259zM596 -489h-166l85 335h195z" />
    <glyph glyph-name="dcommaaccent" unicode="&#x1e11;" horiz-adv-x="1184" 
d="M564 881q-114 0 -174 -85t-60 -231v-71q0 -148 61 -232t175 -85q114 1 178 83t63 232v79q-1 144 -65 227t-178 83zM494 1073q118 -1 197 -47t107 -120h9v531h236v-1437h-231v162h-9q-22 -74 -105 -125t-204 -51q-192 0 -298 130t-107 354v120q0 221 106 352t299 131z
M584 -489h-166l85 335h195z" />
    <glyph glyph-name="Dcircumflexbelow" unicode="&#x1e12;" horiz-adv-x="1317" 
d="M303 -401l220 289h162l211 -291h-185l-105 173h-7l-115 -171h-181zM392 1164v-962h210q194 0 290 115t97 364q-1 354 -205 448q-76 35 -182 35h-210zM1238 701q0 -701 -607 -701h-481v1365h481q461 -1 573 -405q34 -122 34 -259z" />
    <glyph glyph-name="dcircumflexbelow" unicode="&#x1e13;" horiz-adv-x="1184" 
d="M291 -401l220 289h162l211 -291h-185l-105 173h-7l-115 -171h-181zM564 881q-114 0 -174 -85t-60 -231v-71q0 -148 61 -232t175 -85q114 1 178 83t63 232v79q-1 144 -65 227t-178 83zM494 1073q118 -1 197 -47t107 -120h9v531h236v-1437h-231v162h-9q-22 -74 -105 -125
t-204 -51q-192 0 -298 130t-107 354v120q0 221 106 352t299 131z" />
    <glyph glyph-name="Emacrongrave" unicode="&#x1e14;" horiz-adv-x="1118" 
d="M860 1516h-572v123h572v-123zM1012 202v-202h-862v1365h862v-202h-621v-375h584v-191h-584v-395h621zM701 1741h-200l-298 208h242z" />
    <glyph glyph-name="emacrongrave" unicode="&#x1e15;" horiz-adv-x="1089" 
d="M831 1220h-571v129h571v-129zM321 636h454v2q0 114 -61 185q-62 71 -166 71t-166 -72t-61 -184v-2zM88 482v89q0 233 122 369t339 136t337 -137t119 -367v-95h-684v-33q0 -117 62 -196t165 -79q102 0 154 40t64 101h228q-11 -95 -74 -177q-117 -151 -351 -151
q-233 0 -357 134t-124 366zM677 1495h-195l-248 283h240z" />
    <glyph glyph-name="Emacronacute" unicode="&#x1e16;" horiz-adv-x="1118" 
d="M860 1516h-572v123h572v-123zM1012 202v-202h-862v1365h862v-202h-621v-375h584v-191h-584v-395h621zM438 1741l262 213h249l-304 -213h-207z" />
    <glyph glyph-name="emacronacute" unicode="&#x1e17;" horiz-adv-x="1089" 
d="M831 1220h-571v129h571v-129zM321 636h454v2q0 114 -61 185q-62 71 -166 71t-166 -72t-61 -184v-2zM88 482v89q0 233 122 369t339 136t337 -137t119 -367v-95h-684v-33q0 -117 62 -196t165 -79q102 0 154 40t64 101h228q-11 -95 -74 -177q-117 -151 -351 -151
q-233 0 -357 134t-124 366zM622 1495h-195l198 286h240z" />
    <glyph glyph-name="Ecircumflexbelow" unicode="&#x1e18;" horiz-adv-x="1118" 
d="M274 -401l220 289h162l211 -291h-185l-105 173h-7l-115 -171h-181zM1012 202v-202h-862v1365h862v-202h-621v-375h584v-191h-584v-395h621z" />
    <glyph glyph-name="ecircumflexbelow" unicode="&#x1e19;" horiz-adv-x="1089" 
d="M244 -401l220 289h162l211 -291h-185l-105 173h-7l-115 -171h-181zM321 636h454v2q0 114 -61 185q-62 71 -166 71t-166 -72t-61 -184v-2zM88 482v89q0 233 122 369t339 136t337 -137t119 -367v-95h-684v-33q0 -117 62 -196t165 -79q102 0 154 40t64 101h228
q-11 -95 -74 -177q-117 -151 -351 -151q-233 0 -357 134t-124 366z" />
    <glyph glyph-name="Etildebelow" unicode="&#x1e1a;" horiz-adv-x="1118" 
d="M1012 202v-202h-862v1365h862v-202h-621v-375h584v-191h-584v-395h621zM465 -246q-60 0 -66 -94h-131q0 89 47 154t131 65t154 -69q39 -39 54 -46t27 -7q33 0 49 32t18 73h131q1 -89 -51 -156t-120 -67q-100 0 -147 48l-28 28q-39 39 -68 39z" />
    <glyph glyph-name="etildebelow" unicode="&#x1e1b;" horiz-adv-x="1089" 
d="M321 636h454v2q0 114 -61 185q-62 71 -166 71t-166 -72t-61 -184v-2zM88 482v89q0 233 122 369t339 136t337 -137t119 -367v-95h-684v-33q0 -117 62 -196t165 -79q102 0 154 40t64 101h228q-11 -95 -74 -177q-117 -151 -351 -151q-233 0 -357 134t-124 366zM238 -340
q0 89 47 154t131 65t154 -69q39 -39 54 -46t27 -7q33 0 49 32t18 73h131q1 -89 -51 -156t-120 -67q-100 0 -147 48l-28 28q-39 39 -68 39q-60 0 -66 -94h-131z" />
    <glyph glyph-name="Ecedillabreve" unicode="&#x1e1c;" horiz-adv-x="1118" 
d="M245 1760h146q-1 -60 49 -100t134 -41q84 1 134 41t49 100h144q-1 -119 -83 -198t-244 -79t-246 79t-83 198zM540 -352q113 0 113 68q1 39 -33 51t-104 12h-54v93l48 128h-360v1365h862v-202h-621v-375h584v-191h-584v-395h621v-202h-357l-43 -112q92 0 146 -43t54 -130
t-64 -135t-164 -50q-99 -3 -157 15v117q47 -14 113 -14z" />
    <glyph glyph-name="ecedillabreve" unicode="&#x1e1d;" horiz-adv-x="1089" 
d="M520 -365q113 0 113 67q0 41 -37 52t-100 11h-54v94l48 126q-194 21 -298 152t-104 345v89q0 233 122 369t339 136t337 -137t119 -367v-95h-684v-33q0 -117 62 -196t165 -79q102 0 154 40t64 101h228q-18 -142 -132 -236q-88 -73 -228 -88l-42 -111q92 1 146 -43t54 -131
t-64 -135t-160 -50q-96 -3 -161 15v117q44 -13 113 -13zM321 636h454v2q0 114 -61 185q-62 71 -166 71t-166 -72t-61 -184v-2zM375 1461q-1 -69 41 -117t122 -47q80 -1 122 47t41 117h144q0 -113 -77 -205t-230 -92q-99 0 -171 44q-139 86 -137 253h145z" />
    <glyph glyph-name="Fdotaccent" unicode="&#x1e1e;" horiz-adv-x="1057" 
d="M392 0h-242v1365h852v-203h-610v-406h557v-199h-557v-557zM453 1606q1 50 33 84t82 33q50 1 86 -33q34 -34 34 -84t-34 -84q-34 -32 -86 -32q-50 0 -82 32q-32 34 -33 84z" />
    <glyph glyph-name="fdotaccent" unicode="&#x1e1f;" horiz-adv-x="726" 
d="M213 0v865h-155v185h155v106q1 156 83 227t261 71q60 0 104 -7v-173q-45 3 -61 3q-80 1 -118 -31t-38 -110v-86h204v-185h-201v-865h-234zM273 1694q1 50 33 84t82 33q50 1 86 -33q34 -34 34 -84t-34 -84q-34 -32 -86 -32q-50 0 -82 32q-32 34 -33 84z" />
    <glyph glyph-name="Gmacron" unicode="&#x1e20;" horiz-adv-x="1295" 
d="M946 1516h-572v123h572v-123zM651 1186q-132 0 -222 -103t-90 -309v-176q-1 -196 81 -308t231 -111t233 75t84 187v99h-302v188h533v-275q0 -137 -80 -266q-79 -129 -247 -183q-94 -30 -209 -31q-281 0 -424 169t-143 456v177q0 285 154 451t418 166q124 0 224 -38
t165 -102q131 -132 139 -318h-236q-15 120 -96 186t-213 66z" />
    <glyph glyph-name="gmacron" unicode="&#x1e21;" horiz-adv-x="1155" 
d="M561 881q-109 1 -175 -81t-66 -222v-88q0 -139 68 -217t176 -78t170 81t61 206v97q-1 133 -63 217t-171 85zM563 -212q109 0 171 62t62 177v151h-9q-31 -72 -111 -118t-189 -47q-179 0 -293 126t-114 344v116q0 217 114 345t295 129q119 -1 194 -47t109 -120h9v152h230
v-1040q0 -309 -300 -389q-86 -23 -192 -23q-215 0 -324 95q-108 95 -112 222h232q11 -59 65 -97t163 -38zM864 1220h-571v129h571v-129z" />
    <glyph glyph-name="Hdotaccent" unicode="&#x1e22;" horiz-adv-x="1392" 
d="M581 1606q1 50 33 84t82 33q50 1 86 -33q34 -34 34 -84t-34 -84q-34 -32 -86 -32q-50 0 -82 32q-32 34 -33 84zM1242 0h-242v598h-608v-598h-242v1365h242v-563h608v563h242v-1365z" />
    <glyph glyph-name="hdotaccent" unicode="&#x1e23;" horiz-adv-x="1191" 
d="M143 1678q1 50 33 84t82 33q50 1 86 -33q34 -34 34 -84t-34 -84q-34 -32 -86 -32q-50 0 -82 32q-32 34 -33 84zM141 0v1437h236v-528h10q26 65 101 115t193 51q173 0 277 -111t103 -297v-667h-237v614q0 122 -58 190t-162 67q-104 0 -166 -67t-61 -191v-613h-236z" />
    <glyph glyph-name="Hdotbelow" unicode="&#x1e24;" horiz-adv-x="1392" 
d="M576 -266q0 52 35 88t87 35q52 1 88 -35t36 -88t-36 -88q-36 -34 -88 -34t-87 35t-35 87zM1242 0h-242v598h-608v-598h-242v1365h242v-563h608v563h242v-1365z" />
    <glyph glyph-name="hdotbelow" unicode="&#x1e25;" horiz-adv-x="1191" 
d="M471 -266q0 52 35 88t87 35q52 1 88 -35t36 -88t-36 -88q-36 -34 -88 -34t-87 35t-35 87zM141 0v1437h236v-528h10q26 65 101 115t193 51q173 0 277 -111t103 -297v-667h-237v614q0 122 -58 190t-162 67q-104 0 -166 -67t-61 -191v-613h-236z" />
    <glyph glyph-name="Hdieresis" unicode="&#x1e26;" horiz-adv-x="1392" 
d="M780 1582q0 44 28 72t72 27q44 1 72 -27t27 -72q1 -44 -27 -70q-28 -28 -72 -28t-72 28q-28 26 -28 70zM451 1582q-1 44 27 72t72 27q44 1 72 -27t28 -72t-28 -70q-28 -28 -72 -28t-72 28q-28 26 -27 70zM1242 0h-242v598h-608v-598h-242v1365h242v-563h608v563h242
v-1365z" />
    <glyph glyph-name="hdieresis" unicode="&#x1e27;" horiz-adv-x="1191" 
d="M338 1656q0 48 30 80q30 31 81 31q50 -1 81 -31t31 -79t-31 -79q-30 -30 -80 -31q-50 1 -81 31t-31 78zM-42 1656q0 48 30 80q30 31 80 31q50 -1 81 -31t31 -79t-31 -79t-80 -31q-49 1 -80 31t-31 78zM141 0v1437h236v-528h10q26 65 101 115t193 51q173 0 277 -111
t103 -297v-667h-237v614q0 122 -58 190t-162 67q-104 0 -166 -67t-61 -191v-613h-236z" />
    <glyph glyph-name="Hcedilla" unicode="&#x1e28;" horiz-adv-x="1392" 
d="M279 -352q113 0 113 68q0 39 -34 51t-103 12h-54v93l49 128h-100v1365h242v-563h608v563h242v-1365h-242v598h-608v-598l-41 -112q92 0 146 -43t54 -130q-1 -87 -65 -135t-163 -50q-99 -3 -157 15v117q47 -14 113 -14z" />
    <glyph glyph-name="hcedilla" unicode="&#x1e29;" horiz-adv-x="1191" 
d="M258 -365q112 0 112 67q0 41 -37 52t-99 11h-54v94l53 141h-92v1437h236v-528h10q26 65 101 115t193 51q173 0 277 -111t103 -297v-667h-237v614q0 122 -58 190t-162 67q-104 0 -166 -67t-61 -191v-613l-48 -125q93 1 147 -43t54 -131t-65 -135t-159 -50t-162 15v117
q44 -13 114 -13z" />
    <glyph glyph-name="Hbrevebelow" unicode="&#x1e2a;" horiz-adv-x="1392" 
d="M1242 0h-242v598h-608v-598h-242v1365h242v-563h608v563h242v-1365zM374 -133h152q0 -69 43 -117t126 -47q83 -1 126 47t43 117h145q0 -116 -78 -206t-237 -90q-158 0 -239 90q-81 89 -81 206z" />
    <glyph glyph-name="hbrevebelow" unicode="&#x1e2b;" horiz-adv-x="1191" 
d="M141 0v1437h236v-528h10q26 65 101 115t193 51q173 0 277 -111t103 -297v-667h-237v614q0 122 -58 190t-162 67q-104 0 -166 -67t-61 -191v-613h-236zM269 -133h152q0 -69 43 -117t126 -47q83 -1 126 47t43 117h145q0 -116 -78 -206t-237 -90q-158 0 -239 90
q-81 89 -81 206z" />
    <glyph glyph-name="Itildebelow" unicode="&#x1e2c;" horiz-adv-x="543" 
d="M162 -246q-60 0 -66 -94h-131q0 89 47 154q48 65 132 65t153 -69q39 -39 54 -46t27 -7q33 0 49 32t18 73h131q0 -89 -52 -156t-118 -67q-100 0 -148 48l-28 28q-39 39 -68 39zM392 0h-242v1365h242v-1365z" />
    <glyph glyph-name="itildebelow" unicode="&#x1e2d;" horiz-adv-x="554" 
d="M167 -246q-60 0 -66 -94h-131q0 89 47 154t131 65t154 -69q39 -39 54 -46t27 -7q33 0 49 32t18 73h131q1 -89 -51 -156t-120 -67q-100 0 -147 48l-28 28q-39 39 -68 39zM135 1320q-1 54 39 90t102 36t102 -36t40 -90t-39 -90t-102 -36t-103 36t-39 90zM159 0v1058h236
v-1058h-236z" />
    <glyph glyph-name="Idieresisacute" unicode="&#x1e2e;" horiz-adv-x="543" 
d="M356 1582q0 44 28 72t72 27q44 1 72 -27t27 -72q1 -44 -27 -70q-28 -28 -72 -28t-72 28q-28 26 -28 70zM27 1582q-1 44 27 72t72 27q44 1 72 -27t28 -72t-28 -70q-28 -28 -72 -28t-72 28q-28 26 -27 70zM135 1741l262 213h249l-304 -213h-207zM392 0h-242v1365h242v-1365
z" />
    <glyph glyph-name="idieresisacute" unicode="&#x1e2f;" horiz-adv-x="553" 
d="M360 1278q0 48 30 79t81 31q50 0 81 -30t31 -80t-31 -80q-30 -30 -80 -30t-81 31t-31 79zM-20 1278q0 48 30 79t80 31t81 -30t31 -80t-31 -80t-80 -30t-80 31t-31 79zM161 0v1058h240v-1058h-240zM357 1495h-195l198 286h240z" />
    <glyph glyph-name="Kacute" unicode="&#x1e30;" horiz-adv-x="1236" 
d="M392 0h-242v1365h242v-626h11l540 626h269l-493 -586l516 -779h-294l-400 616l-149 -165v-451zM465 1507l262 213h249l-304 -213h-207z" />
    <glyph glyph-name="kacute" unicode="&#x1e31;" horiz-adv-x="1075" 
d="M333 1598h-195l198 286h240zM376 0h-237v1437h237v-831h10l377 452h268l-395 -457l422 -601h-278l-322 463l-82 -88v-375z" />
    <glyph glyph-name="Kdotbelow" unicode="&#x1e32;" horiz-adv-x="1236" 
d="M392 0h-242v1365h242v-626h11l540 626h269l-493 -586l516 -779h-294l-400 616l-149 -165v-451zM498 -266q0 52 35 88t87 35q52 1 88 -35t36 -88t-36 -88q-36 -34 -88 -34t-87 35t-35 87z" />
    <glyph glyph-name="kdotbelow" unicode="&#x1e33;" horiz-adv-x="1075" 
d="M376 0h-237v1437h237v-831h10l377 452h268l-395 -457l422 -601h-278l-322 463l-82 -88v-375zM437 -266q0 52 35 88t87 35q52 1 88 -35t36 -88t-36 -88q-36 -34 -88 -34t-87 35t-35 87z" />
    <glyph glyph-name="Klinebelow" unicode="&#x1e34;" horiz-adv-x="1236" 
d="M904 -326h-571v129h571v-129zM392 0h-242v1365h242v-626h11l540 626h269l-493 -586l516 -779h-294l-400 616l-149 -165v-451z" />
    <glyph glyph-name="klinebelow" unicode="&#x1e35;" horiz-adv-x="1075" 
d="M843 -326h-571v129h571v-129zM376 0h-237v1437h237v-831h10l377 452h268l-395 -457l422 -601h-278l-322 463l-82 -88v-375z" />
    <glyph glyph-name="Ldotbelow" unicode="&#x1e36;" horiz-adv-x="1010" 
d="M986 208v-208h-836v1365h242v-1157h594zM393 -266q0 52 35 88t87 35q52 1 88 -35t36 -88t-36 -88q-36 -34 -88 -34t-87 35t-35 87z" />
    <glyph glyph-name="ldotbelow" unicode="&#x1e37;" horiz-adv-x="525" 
d="M145 0v1437h236v-1437h-236zM143 -266q0 52 35 88t87 35q52 1 88 -35t36 -88t-36 -88q-36 -34 -88 -34t-87 35t-35 87z" />
    <glyph glyph-name="Ldotbelowmacron" unicode="&#x1e38;" horiz-adv-x="1010" 
d="M556 1516h-572v123h572v-123zM986 208v-208h-836v1365h242v-1157h594zM393 -266q0 52 35 88t87 35q52 1 88 -35t36 -88t-36 -88q-36 -34 -88 -34t-87 35t-35 87z" />
    <glyph glyph-name="ldotbelowmacron" unicode="&#x1e39;" horiz-adv-x="525" 
d="M549 1599h-571v129h571v-129zM145 0v1437h236v-1437h-236zM143 -266q0 52 35 88t87 35q52 1 88 -35t36 -88t-36 -88q-36 -34 -88 -34t-87 35t-35 87z" />
    <glyph glyph-name="Llinebelow" unicode="&#x1e3a;" horiz-adv-x="1010" 
d="M986 208v-208h-836v1365h242v-1157h594zM799 -326h-571v129h571v-129z" />
    <glyph glyph-name="llinebelow" unicode="&#x1e3b;" horiz-adv-x="525" 
d="M145 0v1437h236v-1437h-236zM549 -326h-571v129h571v-129z" />
    <glyph glyph-name="Lcircumflexbelow" unicode="&#x1e3c;" horiz-adv-x="1010" 
d="M212 -401l220 289h162l211 -291h-185l-105 173h-7l-115 -171h-181zM986 208v-208h-836v1365h242v-1157h594z" />
    <glyph glyph-name="lcircumflexbelow" unicode="&#x1e3d;" horiz-adv-x="525" 
d="M-38 -401l220 289h162l211 -291h-185l-105 173h-7l-115 -171h-181zM145 0v1437h236v-1437h-236z" />
    <glyph glyph-name="Macute" unicode="&#x1e3e;" horiz-adv-x="1617" 
d="M371 0h-217v1365h244l408 -932h7l408 932h242v-1365h-218v929h-9l-344 -775h-168l-344 775h-9v-929zM672 1507l262 213h249l-304 -213h-207z" />
    <glyph glyph-name="macute" unicode="&#x1e3f;" horiz-adv-x="1767" 
d="M137 0v1058h232v-145h12q26 65 97 113q72 48 184 49t187 -47t105 -132h10q30 75 114 127t209 52q163 1 255 -95t93 -258v-722h-236v660q-1 102 -53 158t-146 56t-146 -60q-53 -60 -53 -165v-649h-230v649q1 113 -53 169t-144 56t-145 -58q-56 -58 -56 -165v-651h-236z
M961 1219h-195l198 286h240z" />
    <glyph glyph-name="Mdotaccent" unicode="&#x1e40;" horiz-adv-x="1617" 
d="M371 0h-217v1365h244l408 -932h7l408 932h242v-1365h-218v929h-9l-344 -775h-168l-344 775h-9v-929zM694 1606q0 50 32 84t84 33q50 1 84 -33t35 -84q-1 -50 -35 -84q-34 -32 -84 -32t-84 32q-32 34 -32 84z" />
    <glyph glyph-name="mdotaccent" unicode="&#x1e41;" horiz-adv-x="1767" 
d="M137 0v1058h232v-145h12q26 65 97 113q72 48 184 49t187 -47t105 -132h10q30 75 114 127t209 52q163 1 255 -95t93 -258v-722h-236v660q-1 102 -53 158t-146 56t-146 -60q-53 -60 -53 -165v-649h-230v649q1 113 -53 169t-144 56t-145 -58q-56 -58 -56 -165v-651h-236z
M769 1298q1 50 33 84t82 34t86 -34q34 -34 34 -84t-34 -82t-86 -33q-50 1 -82 33t-33 82z" />
    <glyph glyph-name="Mdotbelow" unicode="&#x1e42;" horiz-adv-x="1617" 
d="M371 0h-217v1365h244l408 -932h7l408 932h242v-1365h-218v929h-9l-344 -775h-168l-344 775h-9v-929zM689 -266q0 52 35 88t87 35q52 1 88 -35t36 -88t-36 -88q-36 -34 -88 -34t-87 35t-35 87z" />
    <glyph glyph-name="mdotbelow" unicode="&#x1e43;" horiz-adv-x="1767" 
d="M137 0v1058h232v-145h12q26 65 97 113q72 48 184 49t187 -47t105 -132h10q30 75 114 127t209 52q163 1 255 -95t93 -258v-722h-236v660q-1 102 -53 158t-146 56t-146 -60q-53 -60 -53 -165v-649h-230v649q1 113 -53 169t-144 56t-145 -58q-56 -58 -56 -165v-651h-236z
M764 -266q0 52 35 88t87 35q52 1 88 -35t36 -88t-36 -88q-36 -34 -88 -34t-87 35t-35 87z" />
    <glyph glyph-name="Ndotaccent" unicode="&#x1e44;" horiz-adv-x="1375" 
d="M381 0h-231v1365h209l627 -955h8v955h230v-1365h-207l-629 958h-7v-958zM573 1606q1 50 33 84t82 33q50 1 86 -33q34 -34 34 -84t-34 -84q-34 -32 -86 -32q-50 0 -82 32q-32 34 -33 84z" />
    <glyph glyph-name="ndotaccent" unicode="&#x1e45;" horiz-adv-x="1185" 
d="M137 0v1058h232v-149h9q30 68 110 117t195 49q163 -1 267 -99t103 -277v-699h-237v625q0 246 -219 246q-105 0 -165 -65t-59 -188v-618h-236zM478 1298q0 50 32 84t84 34q50 0 84 -34t35 -84q-1 -50 -35 -82t-84 -33q-50 1 -84 33q-32 32 -32 82z" />
    <glyph glyph-name="Ndotbelow" unicode="&#x1e46;" horiz-adv-x="1375" 
d="M381 0h-231v1365h209l627 -955h8v955h230v-1365h-207l-629 958h-7v-958zM568 -266q0 52 35 88t87 35q52 1 88 -35t36 -88t-36 -88q-36 -34 -88 -34t-87 35t-35 87z" />
    <glyph glyph-name="ndotbelow" unicode="&#x1e47;" horiz-adv-x="1185" 
d="M137 0v1058h232v-149h9q30 68 110 117t195 49q163 -1 267 -99t103 -277v-699h-237v625q0 246 -219 246q-105 0 -165 -65t-59 -188v-618h-236zM473 -266q0 52 35 88t87 35q52 1 88 -35t36 -88t-36 -88q-36 -34 -88 -34t-87 35t-35 87z" />
    <glyph glyph-name="Nlinebelow" unicode="&#x1e48;" horiz-adv-x="1375" 
d="M381 0h-231v1365h209l627 -955h8v955h230v-1365h-207l-629 958h-7v-958zM974 -326h-571v129h571v-129z" />
    <glyph glyph-name="nlinebelow" unicode="&#x1e49;" horiz-adv-x="1185" 
d="M137 0v1058h232v-149h9q30 68 110 117t195 49q163 -1 267 -99t103 -277v-699h-237v625q0 246 -219 246q-105 0 -165 -65t-59 -188v-618h-236zM879 -326h-571v129h571v-129z" />
    <glyph glyph-name="Ncircumflexbelow" unicode="&#x1e4a;" horiz-adv-x="1375" 
d="M387 -401l220 289h162l211 -291h-185l-105 173h-7l-115 -171h-181zM381 0h-231v1365h209l627 -955h8v955h230v-1365h-207l-629 958h-7v-958z" />
    <glyph glyph-name="ncircumflexbelow" unicode="&#x1e4b;" horiz-adv-x="1185" 
d="M292 -401l220 289h162l211 -291h-185l-105 173h-7l-115 -171h-181zM137 0v1058h232v-149h9q30 68 110 117t195 49q163 -1 267 -99t103 -277v-699h-237v625q0 246 -219 246q-105 0 -165 -65t-59 -188v-618h-236z" />
    <glyph glyph-name="Otildeacute" unicode="&#x1e4c;" horiz-adv-x="1338" 
d="M778 1584q58 0 66 99h128q0 -84 -50 -147t-118 -63q-66 1 -96 15t-46 30t-28 26q-38 36 -67 36q-60 0 -64 -88h-128q-1 84 45 146t130 61t168 -83q32 -32 60 -32zM96 586v182q0 290 154 457t420 167t419 -167t153 -457v-182q0 -288 -154 -450t-420 -163q-268 0 -420 162
t-152 451zM340 770v-185q0 -199 90 -303t238 -104t239 104q90 104 90 303v185q-1 201 -91 309t-238 108t-238 -108t-90 -309zM532 1741l262 213h249l-304 -213h-207z" />
    <glyph glyph-name="otildeacute" unicode="&#x1e4d;" horiz-adv-x="1126" 
d="M564 890q-133 0 -186 -96t-53 -234v-61q0 -232 124 -302q49 -27 115 -27q134 0 185 96t51 233v61q0 330 -236 330zM564 1076q232 0 354 -138t121 -369v-76q0 -239 -121 -375t-354 -136q-232 0 -354 136t-122 375v75q0 311 212 441q109 67 264 67zM672 1305q62 0 70 111
h139q-1 -100 -57 -176t-142 -76t-166 81q-9 9 -13 12q-3 3 -9 7l-9 6q-21 10 -38 11q-66 0 -70 -99h-140q1 106 51 179t140 73t174 -88q38 -40 70 -41zM641 1495h-195l198 286h240z" />
    <glyph glyph-name="Otildedieresis" unicode="&#x1e4e;" horiz-adv-x="1338" 
d="M778 1584q58 0 66 99h128q0 -84 -50 -147t-118 -63q-66 1 -96 15t-46 30t-28 26q-38 36 -67 36q-60 0 -64 -88h-128q-1 84 45 146t130 61t168 -83q32 -32 60 -32zM96 586v182q0 290 154 457t420 167t419 -167t153 -457v-182q0 -288 -154 -450t-420 -163q-268 0 -420 162
t-152 451zM340 770v-185q0 -199 90 -303t238 -104t239 104q90 104 90 303v185q-1 201 -91 309t-238 108t-238 -108t-90 -309zM734 1852q0 44 28 72t72 27q44 1 72 -27t27 -72q1 -44 -27 -70q-28 -28 -72 -28t-72 28q-28 26 -28 70zM405 1852q-1 44 27 72t72 27q44 1 72 -27
t28 -72t-28 -70q-28 -28 -72 -28t-72 28q-28 26 -27 70z" />
    <glyph glyph-name="otildedieresis" unicode="&#x1e4f;" horiz-adv-x="1126" 
d="M564 890q-133 0 -186 -96t-53 -234v-61q0 -232 124 -302q49 -27 115 -27q134 0 185 96t51 233v61q0 330 -236 330zM564 1076q232 0 354 -138t121 -369v-76q0 -239 -121 -375t-354 -136q-232 0 -354 136t-122 375v75q0 311 212 441q109 67 264 67zM644 1574q0 48 30 79
t81 31q50 0 81 -30t31 -80t-31 -80q-30 -30 -80 -30t-81 31t-31 79zM264 1574q0 48 30 79t80 31t81 -30t31 -80t-31 -80t-80 -30t-80 31t-31 79zM672 1305q62 0 70 111h139q-1 -100 -57 -176t-142 -76t-166 81q-9 9 -13 12q-3 3 -9 7l-9 6q-21 10 -38 11q-66 0 -70 -99h-140
q1 106 51 179t140 73t174 -88q38 -40 70 -41z" />
    <glyph glyph-name="Omacrongrave" unicode="&#x1e50;" horiz-adv-x="1338" 
d="M954 1516h-572v123h572v-123zM96 586v182q0 290 154 457t420 167t419 -167t153 -457v-182q0 -288 -154 -450t-420 -163q-268 0 -420 162t-152 451zM340 770v-185q0 -199 90 -303t238 -104t239 104q90 104 90 303v185q-1 201 -91 309t-238 108t-238 -108t-90 -309z
M795 1741h-200l-298 208h242z" />
    <glyph glyph-name="omacrongrave" unicode="&#x1e51;" horiz-adv-x="1126" 
d="M564 890q-133 0 -186 -96t-53 -234v-61q0 -232 124 -302q49 -27 115 -27q134 0 185 96t51 233v61q0 330 -236 330zM564 1076q232 0 354 -138t121 -369v-76q0 -239 -121 -375t-354 -136q-232 0 -354 136t-122 375v75q0 311 212 441q109 67 264 67zM850 1220h-571v129h571
v-129zM696 1495h-195l-248 283h240z" />
    <glyph glyph-name="Omacronacute" unicode="&#x1e52;" horiz-adv-x="1338" 
d="M954 1516h-572v123h572v-123zM96 586v182q0 290 154 457t420 167t419 -167t153 -457v-182q0 -288 -154 -450t-420 -163q-268 0 -420 162t-152 451zM340 770v-185q0 -199 90 -303t238 -104t239 104q90 104 90 303v185q-1 201 -91 309t-238 108t-238 -108t-90 -309z
M532 1741l262 213h249l-304 -213h-207z" />
    <glyph glyph-name="omacronacute" unicode="&#x1e53;" horiz-adv-x="1126" 
d="M564 890q-133 0 -186 -96t-53 -234v-61q0 -232 124 -302q49 -27 115 -27q134 0 185 96t51 233v61q0 330 -236 330zM564 1076q232 0 354 -138t121 -369v-76q0 -239 -121 -375t-354 -136q-232 0 -354 136t-122 375v75q0 311 212 441q109 67 264 67zM850 1220h-571v129h571
v-129zM641 1495h-195l198 286h240z" />
    <glyph glyph-name="Pacute" unicode="&#x1e54;" horiz-adv-x="1183" 
d="M392 1168v-498h175q162 0 242 54t80 184t-65 195t-182 65h-250zM150 1365h532q209 0 331 -125q122 -126 122 -322q-1 -196 -123 -319t-332 -123h-288v-476h-242v1365zM435 1507l262 213h249l-304 -213h-207z" />
    <glyph glyph-name="pacute" unicode="&#x1e55;" horiz-adv-x="1180" 
d="M667 1219h-195l198 286h240zM614 178q108 0 172 78t63 229v89q0 148 -63 228q-64 80 -174 79t-174 -81t-64 -214v-108q0 -132 66 -216t174 -84zM688 -14q-116 0 -192 45t-112 118h-10v-506h-236v1416h231v-153h9q33 76 114 122t200 45q182 0 290 -127t108 -354v-127
q0 -227 -108 -353t-294 -126z" />
    <glyph glyph-name="Pdotaccent" unicode="&#x1e56;" horiz-adv-x="1183" 
d="M457 1606q1 50 33 84t82 33q50 1 86 -33q34 -34 34 -84t-34 -84q-34 -32 -86 -32q-50 0 -82 32q-32 34 -33 84zM392 1168v-498h175q162 0 242 54t80 184t-65 195t-182 65h-250zM150 1365h532q209 0 331 -125q122 -126 122 -322q-1 -196 -123 -319t-332 -123h-288v-476
h-242v1365z" />
    <glyph glyph-name="pdotaccent" unicode="&#x1e57;" horiz-adv-x="1180" 
d="M475 1298q1 50 33 84t82 34t86 -34q34 -34 34 -84t-34 -82t-86 -33q-50 1 -82 33t-33 82zM614 178q108 0 172 78t63 229v89q0 148 -63 228q-64 80 -174 79t-174 -81t-64 -214v-108q0 -132 66 -216t174 -84zM688 -14q-116 0 -192 45t-112 118h-10v-506h-236v1416h231v-153
h9q33 76 114 122t200 45q182 0 290 -127t108 -354v-127q0 -227 -108 -353t-294 -126z" />
    <glyph glyph-name="Rdotaccent" unicode="&#x1e58;" horiz-adv-x="1246" 
d="M481 1606q1 50 33 84t82 33q50 1 86 -33q34 -34 34 -84t-34 -84q-34 -32 -86 -32q-50 0 -82 32q-32 34 -33 84zM390 706h251q123 0 189 59t67 171q-1 112 -69 174q-68 61 -182 61h-256v-465zM680 1365q339 0 438 -259q29 -76 29 -160q0 -167 -80 -260t-170 -128l276 -558
h-272l-243 519h-268v-519h-240v1365h530z" />
    <glyph glyph-name="rdotaccent" unicode="&#x1e59;" horiz-adv-x="752" 
d="M310 1298q0 50 32 84t84 34q50 0 84 -34t35 -84q-1 -50 -35 -82t-84 -33q-50 1 -84 33q-32 32 -32 82zM150 0v1058h236v-137h9q60 153 251 153q41 0 78 -7v-207q-25 8 -98 8q-236 0 -236 -246v-622h-240z" />
    <glyph glyph-name="Rdotbelow" unicode="&#x1e5a;" horiz-adv-x="1246" 
d="M390 706h251q123 0 189 59t67 171q-1 112 -69 174q-68 61 -182 61h-256v-465zM680 1365q339 0 438 -259q29 -76 29 -160q0 -167 -80 -260t-170 -128l276 -558h-272l-243 519h-268v-519h-240v1365h530zM476 -266q0 52 35 88t87 35q52 1 88 -35t36 -88t-36 -88
q-36 -34 -88 -34t-87 35t-35 87z" />
    <glyph glyph-name="rdotbelow" unicode="&#x1e5b;" horiz-adv-x="752" 
d="M150 0v1058h236v-137h9q60 153 251 153q41 0 78 -7v-207q-25 8 -98 8q-236 0 -236 -246v-622h-240zM153 -266q0 52 35 88t87 35q52 1 88 -35t36 -88t-36 -88q-36 -34 -88 -34t-87 35t-35 87z" />
    <glyph glyph-name="Rdotbelowmacron" unicode="&#x1e5c;" horiz-adv-x="1246" 
d="M881 1516h-572v123h572v-123zM390 706h251q123 0 189 59t67 171q-1 112 -69 174q-68 61 -182 61h-256v-465zM680 1365q339 0 438 -259q29 -76 29 -160q0 -167 -80 -260t-170 -128l276 -558h-272l-243 519h-268v-519h-240v1365h530zM476 -266q0 52 35 88t87 35
q52 1 88 -35t36 -88t-36 -88q-36 -34 -88 -34t-87 35t-35 87z" />
    <glyph glyph-name="rdotbelowmacron" unicode="&#x1e5d;" horiz-adv-x="752" 
d="M711 1220h-571v129h571v-129zM150 0v1058h236v-137h9q60 153 251 153q41 0 78 -7v-207q-25 8 -98 8q-236 0 -236 -246v-622h-240zM153 -266q0 52 35 88t87 35q52 1 88 -35t36 -88t-36 -88q-36 -34 -88 -34t-87 35t-35 87z" />
    <glyph glyph-name="Rlinebelow" unicode="&#x1e5e;" horiz-adv-x="1246" 
d="M882 -326h-571v129h571v-129zM390 706h251q123 0 189 59t67 171q-1 112 -69 174q-68 61 -182 61h-256v-465zM680 1365q339 0 438 -259q29 -76 29 -160q0 -167 -80 -260t-170 -128l276 -558h-272l-243 519h-268v-519h-240v1365h530z" />
    <glyph glyph-name="rlinebelow" unicode="&#x1e5f;" horiz-adv-x="752" 
d="M559 -326h-571v129h571v-129zM150 0v1058h236v-137h9q60 153 251 153q41 0 78 -7v-207q-25 8 -98 8q-236 0 -236 -246v-622h-240z" />
    <glyph glyph-name="Sdotaccent" unicode="&#x1e60;" horiz-adv-x="1191" 
d="M479 1606q1 50 33 84t82 33q50 1 86 -33q34 -34 34 -84t-34 -84q-34 -32 -86 -32q-50 0 -82 32q-32 34 -33 84zM590 170q132 0 204 55t73 139t-51 128t-163 71l-219 53q-142 32 -241 120q-98 88 -98 233t69 239q136 186 430 187q138 0 250 -47q112 -48 178 -140t68 -214
h-230q-7 89 -76 147t-188 58q-118 1 -188 -51t-70 -142q0 -133 188 -177l220 -53q268 -62 336 -229q27 -66 27 -152q1 -198 -145 -310t-387 -112q-312 1 -444 185q-71 99 -73 224h235q8 -92 86 -152q77 -60 209 -60z" />
    <glyph glyph-name="sdotaccent" unicode="&#x1e61;" horiz-adv-x="1014" 
d="M393 1298q1 50 33 84t82 34t86 -34q34 -34 34 -84t-34 -82t-86 -33q-50 1 -82 33t-33 82zM93 761q0 73 34 137q35 64 93 102q117 76 295 76q177 0 283 -88t106 -233h-211q-6 63 -51 109t-134 45q-89 1 -139 -37t-50 -90q1 -52 17 -70t26 -28t32 -18q21 -8 34 -13t40 -11
q28 -6 40 -8t42 -8q30 -4 74 -12q119 -20 215 -84t96 -216q-1 -152 -119 -242t-318 -90t-312 84q-113 84 -113 227h230q9 -64 61 -103t146 -39q95 -1 145 39t50 112t-99 106q-80 27 -164 37q-209 42 -279 115q-70 74 -70 201z" />
    <glyph glyph-name="Sdotbelow" unicode="&#x1e62;" horiz-adv-x="1191" 
d="M590 170q132 0 204 55t73 139t-51 128t-163 71l-219 53q-142 32 -241 120q-98 88 -98 233t69 239q136 186 430 187q138 0 250 -47q112 -48 178 -140t68 -214h-230q-7 89 -76 147t-188 58q-118 1 -188 -51t-70 -142q0 -133 188 -177l220 -53q268 -62 336 -229
q27 -66 27 -152q1 -198 -145 -310t-387 -112q-312 1 -444 185q-71 99 -73 224h235q8 -92 86 -152q77 -60 209 -60zM458 -266q0 52 35 88t87 35q52 1 88 -35t36 -88t-36 -88q-36 -34 -88 -34t-87 35t-35 87z" />
    <glyph glyph-name="sdotbelow" unicode="&#x1e63;" horiz-adv-x="1014" 
d="M93 761q0 73 34 137q35 64 93 102q117 76 295 76q177 0 283 -88t106 -233h-211q-6 63 -51 109t-134 45q-89 1 -139 -37t-50 -90q1 -52 17 -70t26 -28t32 -18q21 -8 34 -13t40 -11q28 -6 40 -8t42 -8q30 -4 74 -12q119 -20 215 -84t96 -216q-1 -152 -119 -242t-318 -90
t-312 84q-113 84 -113 227h230q9 -64 61 -103t146 -39q95 -1 145 39t50 112t-99 106q-80 27 -164 37q-209 42 -279 115q-70 74 -70 201zM388 -266q0 52 35 88t87 35q52 1 88 -35t36 -88t-36 -88q-36 -34 -88 -34t-87 35t-35 87z" />
    <glyph glyph-name="Sacutedotaccent" unicode="&#x1e64;" horiz-adv-x="1191" 
d="M590 170q132 0 204 55t73 139t-51 128t-163 71l-219 53q-142 32 -241 120q-98 88 -98 233t69 239q136 186 430 187q138 0 250 -47q112 -48 178 -140t68 -214h-230q-7 89 -76 147t-188 58q-118 1 -188 -51t-70 -142q0 -133 188 -177l220 -53q268 -62 336 -229
q27 -66 27 -152q1 -198 -145 -310t-387 -112q-312 1 -444 185q-71 99 -73 224h235q8 -92 86 -152q77 -60 209 -60zM567 1547l262 213h249l-304 -213h-207zM250 1671q0 47 30 77t76 30t76 -30q31 -30 31 -77q0 -46 -31 -76q-30 -30 -76 -30t-76 30t-30 76z" />
    <glyph glyph-name="sacutedotaccent" unicode="&#x1e65;" horiz-adv-x="1014" 
d="M659 1219h-195l198 286h240zM93 761q0 73 34 137q35 64 93 102q117 76 295 76q177 0 283 -88t106 -233h-211q-6 63 -51 109t-134 45q-89 1 -139 -37t-50 -90q1 -52 17 -70t26 -28t32 -18q21 -8 34 -13t40 -11q28 -6 40 -8t42 -8q30 -4 74 -12q119 -20 215 -84t96 -216
q-1 -152 -119 -242t-318 -90t-312 84q-113 84 -113 227h230q9 -64 61 -103t146 -39q95 -1 145 39t50 112t-99 106q-80 27 -164 37q-209 42 -279 115q-70 74 -70 201zM190 1406q0 50 32 82t80 32t82 -32q33 -32 33 -82q0 -48 -33 -80q-34 -32 -82 -32t-80 32t-32 80z" />
    <glyph glyph-name="Scarondotaccent" unicode="&#x1e66;" horiz-adv-x="1191" 
d="M248 1731h195l146 -124h11l145 124h195l-269 -227h-149zM590 170q132 0 204 55t73 139t-51 128t-163 71l-219 53q-142 32 -241 120q-98 88 -98 233t69 239q136 186 430 187q138 0 250 -47q112 -48 178 -140t68 -214h-230q-7 89 -76 147t-188 58q-118 1 -188 -51t-70 -142
q0 -133 188 -177l220 -53q268 -62 336 -229q27 -66 27 -152q1 -198 -145 -310t-387 -112q-312 1 -444 185q-71 99 -73 224h235q8 -92 86 -152q77 -60 209 -60zM491 1874q0 46 29 77q28 31 74 31t76 -31t31 -77q0 -46 -30 -74t-76 -29q-46 1 -75 29t-29 74z" />
    <glyph glyph-name="scarondotaccent" unicode="&#x1e67;" horiz-adv-x="1014" 
d="M93 761q0 73 34 137q35 64 93 102q117 76 295 76q177 0 283 -88t106 -233h-211q-6 63 -51 109t-134 45q-89 1 -139 -37t-50 -90q1 -52 17 -70t26 -28t32 -18q21 -8 34 -13t40 -11q28 -6 40 -8t42 -8q30 -4 74 -12q119 -20 215 -84t96 -216q-1 -152 -119 -242t-318 -90
t-312 84q-113 84 -113 227h230q9 -64 61 -103t146 -39q95 -1 145 39t50 112t-99 106q-80 27 -164 37q-209 42 -279 115q-70 74 -70 201zM209 1501h182l114 -181h7l105 182h185l-211 -303h-162zM387 1714q1 49 33 82t81 33q49 -1 83 -33t33 -82q1 -50 -33 -81
q-34 -32 -83 -32t-81 32t-33 81z" />
    <glyph glyph-name="Sdotbelowdotaccent" unicode="&#x1e68;" horiz-adv-x="1191" 
d="M479 1606q1 50 33 84t82 33q50 1 86 -33q34 -34 34 -84t-34 -84q-34 -32 -86 -32q-50 0 -82 32q-32 34 -33 84zM590 170q132 0 204 55t73 139t-51 128t-163 71l-219 53q-142 32 -241 120q-98 88 -98 233t69 239q136 186 430 187q138 0 250 -47q112 -48 178 -140t68 -214
h-230q-7 89 -76 147t-188 58q-118 1 -188 -51t-70 -142q0 -133 188 -177l220 -53q268 -62 336 -229q27 -66 27 -152q1 -198 -145 -310t-387 -112q-312 1 -444 185q-71 99 -73 224h235q8 -92 86 -152q77 -60 209 -60zM458 -266q0 52 35 88t87 35q52 1 88 -35t36 -88t-36 -88
q-36 -34 -88 -34t-87 35t-35 87z" />
    <glyph glyph-name="sdotbelowdotaccent" unicode="&#x1e69;" horiz-adv-x="1014" 
d="M393 1298q1 50 33 84t82 34t86 -34q34 -34 34 -84t-34 -82t-86 -33q-50 1 -82 33t-33 82zM93 761q0 73 34 137q35 64 93 102q117 76 295 76q177 0 283 -88t106 -233h-211q-6 63 -51 109t-134 45q-89 1 -139 -37t-50 -90q1 -52 17 -70t26 -28t32 -18q21 -8 34 -13t40 -11
q28 -6 40 -8t42 -8q30 -4 74 -12q119 -20 215 -84t96 -216q-1 -152 -119 -242t-318 -90t-312 84q-113 84 -113 227h230q9 -64 61 -103t146 -39q95 -1 145 39t50 112t-99 106q-80 27 -164 37q-209 42 -279 115q-70 74 -70 201zM388 -266q0 52 35 88t87 35q52 1 88 -35t36 -88
t-36 -88q-36 -34 -88 -34t-87 35t-35 87z" />
    <glyph glyph-name="Tdotaccent" unicode="&#x1e6a;" horiz-adv-x="1067" 
d="M653 0h-240v1160h-396v205h1033v-205h-397v-1160zM419 1606q1 50 33 84t82 33q50 1 86 -33q34 -34 34 -84t-34 -84q-34 -32 -86 -32q-50 0 -82 32q-32 34 -33 84z" />
    <glyph glyph-name="tdotaccent" unicode="&#x1e6b;" horiz-adv-x="715" 
d="M203 1050v264h230v-264h206v-185h-206v-543q-1 -84 35 -114t100 -30t77 2v-179q-51 -8 -145 -8t-168 33q-74 34 -104 98t-29 174v567h-148v185h152zM212 1546q0 50 32 84t84 34q50 0 84 -34t35 -84q-1 -50 -35 -82t-84 -33q-50 1 -84 33q-32 32 -32 82z" />
    <glyph glyph-name="Tdotbelow" unicode="&#x1e6c;" horiz-adv-x="1067" 
d="M653 0h-240v1160h-396v205h1033v-205h-397v-1160zM414 -266q0 52 35 88t87 35q52 1 88 -35t36 -88t-36 -88q-36 -34 -88 -34t-87 35t-35 87z" />
    <glyph glyph-name="tdotbelow" unicode="&#x1e6d;" horiz-adv-x="715" 
d="M203 1050v264h230v-264h206v-185h-206v-543q-1 -84 35 -114t100 -30t77 2v-179q-51 -8 -145 -8t-168 33q-74 34 -104 98t-29 174v567h-148v185h152zM310 -266q0 52 35 88t87 35q52 1 88 -35t36 -88t-36 -88q-36 -34 -88 -34t-87 35t-35 87z" />
    <glyph glyph-name="Tlinebelow" unicode="&#x1e6e;" horiz-adv-x="1067" 
d="M653 0h-240v1160h-396v205h1033v-205h-397v-1160zM820 -326h-571v129h571v-129z" />
    <glyph glyph-name="tlinebelow" unicode="&#x1e6f;" horiz-adv-x="715" 
d="M203 1050v264h230v-264h206v-185h-206v-543q-1 -84 35 -114t100 -30t77 2v-179q-51 -8 -145 -8t-168 33q-74 34 -104 98t-29 174v567h-148v185h152zM716 -326h-571v129h571v-129z" />
    <glyph glyph-name="Tcircumflexbelow" unicode="&#x1e70;" horiz-adv-x="1067" 
d="M233 -401l220 289h162l211 -291h-185l-105 173h-7l-115 -171h-181zM653 0h-240v1160h-396v205h1033v-205h-397v-1160z" />
    <glyph glyph-name="tcircumflexbelow" unicode="&#x1e71;" horiz-adv-x="715" 
d="M129 -401l220 289h162l211 -291h-185l-105 173h-7l-115 -171h-181zM203 1050v264h230v-264h206v-185h-206v-543q-1 -84 35 -114t100 -30t77 2v-179q-51 -8 -145 -8t-168 33q-74 34 -104 98t-29 174v567h-148v185h152z" />
    <glyph glyph-name="Udieresisbelow" unicode="&#x1e72;" horiz-adv-x="1352" 
d="M754 -310q0 48 30 79t81 31q50 0 81 -30t31 -80t-31 -80q-30 -30 -80 -30t-81 31t-31 79zM374 -310q0 48 30 79t80 31t81 -30t31 -80t-31 -80t-80 -30t-80 31t-31 79zM377 1365v-873q1 -146 81 -228t218 -83q138 0 218 83q82 83 82 228v873h241v-892q-1 -226 -149 -363
t-392 -137t-392 138t-149 365v889h242z" />
    <glyph glyph-name="udieresisbelow" unicode="&#x1e73;" horiz-adv-x="1181" 
d="M669 -310q1 48 31 79t80 31t81 -30t31 -80t-31 -80t-81 -30t-80 31t-31 79zM289 -310q1 48 31 79t80 31t80 -30q31 -30 31 -80t-31 -80q-30 -30 -80 -30t-80 31t-31 79zM1043 1058v-1058h-231v150h-10q-29 -70 -107 -118t-199 -48q-168 0 -267 96t-99 276v702h237v-638
q1 -126 61 -180t158 -54t159 62q62 62 62 175v635h236z" />
    <glyph glyph-name="Utildebelow" unicode="&#x1e74;" horiz-adv-x="1352" 
d="M377 1365v-873q1 -146 81 -228t218 -83q138 0 218 83q82 83 82 228v873h241v-892q-1 -226 -149 -363t-392 -137t-392 138t-149 365v889h242zM369 -340q0 89 47 154q48 65 132 65t153 -69q39 -39 54 -46t27 -7q33 0 49 32t18 73h131q0 -89 -52 -156t-118 -67
q-100 0 -148 48l-28 28q-39 39 -68 39q-60 0 -66 -94h-131z" />
    <glyph glyph-name="utildebelow" unicode="&#x1e75;" horiz-adv-x="1181" 
d="M1043 1058v-1058h-231v150h-10q-29 -70 -107 -118t-199 -48q-168 0 -267 96t-99 276v702h237v-638q1 -126 61 -180t158 -54t159 62q62 62 62 175v635h236zM284 -340q0 89 47 154t131 65t154 -69q39 -39 54 -46t27 -7q33 0 49 32t18 73h131q1 -89 -51 -156t-120 -67
q-100 0 -147 48l-28 28q-39 39 -68 39q-60 0 -66 -94h-131z" />
    <glyph glyph-name="Ucircumflexbelow" unicode="&#x1e76;" horiz-adv-x="1352" 
d="M375 -401l220 289h162l211 -291h-185l-105 173h-7l-115 -171h-181zM377 1365v-873q1 -146 81 -228t218 -83q138 0 218 83q82 83 82 228v873h241v-892q-1 -226 -149 -363t-392 -137t-392 138t-149 365v889h242z" />
    <glyph glyph-name="ucircumflexbelow" unicode="&#x1e77;" horiz-adv-x="1181" 
d="M290 -401l220 289h162l211 -291h-185l-105 173h-7l-115 -171h-181zM1043 1058v-1058h-231v150h-10q-29 -70 -107 -118t-199 -48q-168 0 -267 96t-99 276v702h237v-638q1 -126 61 -180t158 -54t159 62q62 62 62 175v635h236z" />
    <glyph glyph-name="Utildeacute" unicode="&#x1e78;" horiz-adv-x="1352" 
d="M785 1584q58 0 66 99h128q-1 -84 -51 -147t-116 -63q-66 1 -98 15q-30 14 -46 30l-26 26q-38 36 -68 36q-60 0 -64 -88h-128q0 84 46 146t130 61t166 -83q32 -32 61 -32zM377 1365v-873q1 -146 81 -228t218 -83q138 0 218 83q82 83 82 228v873h241v-892
q-1 -226 -149 -363t-392 -137t-392 138t-149 365v889h242zM539 1741l262 213h249l-304 -213h-207z" />
    <glyph glyph-name="utildeacute" unicode="&#x1e79;" horiz-adv-x="1181" 
d="M699 1305q62 0 70 111h139q0 -100 -56 -176t-142 -76t-167 81q-9 9 -13 12t-10 7t-8 6q-21 10 -38 11q-66 0 -70 -99h-140q0 106 50 179t141 73q90 0 174 -88q38 -40 70 -41zM668 1495h-195l198 286h240zM1043 1058v-1058h-231v150h-10q-29 -70 -107 -118t-199 -48
q-168 0 -267 96t-99 276v702h237v-638q1 -126 61 -180t158 -54t159 62q62 62 62 175v635h236z" />
    <glyph glyph-name="Umacrondieresis" unicode="&#x1e7a;" horiz-adv-x="1352" 
d="M961 1516h-572v123h572v-123zM377 1365v-873q1 -146 81 -228t218 -83q138 0 218 83q82 83 82 228v873h241v-892q-1 -226 -149 -363t-392 -137t-392 138t-149 365v889h242zM741 1852q-1 44 27 72t72 27q44 1 72 -27t28 -72t-28 -70q-28 -28 -72 -28t-72 28q-28 26 -27 70z
M412 1852q0 44 28 72t71 27q44 1 72 -27t28 -72q1 -44 -27 -70q-28 -28 -72 -28t-72 28q-28 26 -28 70z" />
    <glyph glyph-name="umacrondieresis" unicode="&#x1e7b;" horiz-adv-x="1181" 
d="M671 1574q1 48 31 79t80 31t81 -30t31 -80t-31 -80t-81 -30t-80 31t-31 79zM291 1574q1 48 31 79t80 31t80 -30q31 -30 31 -80t-31 -80q-30 -30 -80 -30t-80 31t-31 79zM877 1220h-571v129h571v-129zM1043 1058v-1058h-231v150h-10q-29 -70 -107 -118t-199 -48
q-168 0 -267 96t-99 276v702h237v-638q1 -126 61 -180t158 -54t159 62q62 62 62 175v635h236z" />
    <glyph glyph-name="Vtilde" unicode="&#x1e7c;" horiz-adv-x="1234" 
d="M759 0h-282l-466 1365h279l329 -1084h9l326 1084h270zM921 1683q-1 -84 -51 -147t-116 -63q-66 1 -98 15q-30 14 -46 30l-26 26q-38 36 -68 36q-60 0 -64 -88h-128q0 84 46 146t130 61t166 -83q33 -33 61 -32q58 0 66 99h128z" />
    <glyph glyph-name="vtilde" unicode="&#x1e7d;" horiz-adv-x="1026" 
d="M376 0l-358 1058h258l226 -832h10l247 832h250l-375 -1058h-258zM830 1416q0 -100 -56 -176t-142 -76t-167 81q-9 9 -13 12t-10 7t-8 6q-21 10 -38 11q-66 0 -70 -99h-140q0 106 50 179t141 73q90 0 174 -88q38 -41 70 -41q62 0 70 111h139z" />
    <glyph glyph-name="Vdotbelow" unicode="&#x1e7e;" horiz-adv-x="1234" 
d="M759 0h-282l-466 1365h279l329 -1084h9l326 1084h270zM498 -266q0 52 35 88t87 35q52 1 88 -35t36 -88t-36 -88q-36 -34 -88 -34t-87 35t-35 87z" />
    <glyph glyph-name="vdotbelow" unicode="&#x1e7f;" horiz-adv-x="1026" 
d="M376 0l-358 1058h258l226 -832h10l247 832h250l-375 -1058h-258zM393 -266q0 52 35 88t87 35q52 1 88 -35t36 -88t-36 -88q-36 -34 -88 -34t-87 35t-35 87z" />
    <glyph glyph-name="Wgrave" unicode="&#x1e80;" horiz-adv-x="1726" 
d="M595 0h-222l-364 1365h266l220 -1002h9l250 1002h219l249 -1002h10l219 1002h266l-365 -1365h-222l-263 983h-9zM990 1507h-200l-298 208h242z" />
    <glyph glyph-name="wgrave" unicode="&#x1e81;" horiz-adv-x="1532" 
d="M1508 1058l-277 -1058h-242l-215 772h-7l-211 -772h-244l-288 1058h253l164 -797h10l208 797h222l214 -797h10l168 797h235zM898 1222h-195l-248 283h240z" />
    <glyph glyph-name="Wacute" unicode="&#x1e82;" horiz-adv-x="1726" 
d="M595 0h-222l-364 1365h266l220 -1002h9l250 1002h219l249 -1002h10l219 1002h266l-365 -1365h-222l-263 983h-9zM727 1507l262 213h249l-304 -213h-207z" />
    <glyph glyph-name="wacute" unicode="&#x1e83;" horiz-adv-x="1532" 
d="M1508 1058l-277 -1058h-242l-215 772h-7l-211 -772h-244l-288 1058h253l164 -797h10l208 797h222l214 -797h10l168 797h235zM843 1219h-195l198 286h240z" />
    <glyph glyph-name="Wdieresis" unicode="&#x1e84;" horiz-adv-x="1726" 
d="M595 0h-222l-364 1365h266l220 -1002h9l250 1002h219l249 -1002h10l219 1002h266l-365 -1365h-222l-263 983h-9zM947 1582q-1 44 27 72t72 27q44 1 72 -27t28 -72t-28 -70q-28 -28 -72 -28t-72 28q-28 26 -27 70zM618 1582q0 44 28 72t71 27q44 1 72 -27t28 -72
q1 -44 -27 -70q-28 -28 -72 -28t-72 28q-28 26 -28 70z" />
    <glyph glyph-name="wdieresis" unicode="&#x1e85;" horiz-adv-x="1532" 
d="M1508 1058l-277 -1058h-242l-215 772h-7l-211 -772h-244l-288 1058h253l164 -797h10l208 797h222l214 -797h10l168 797h235zM846 1278q0 48 30 79t81 31q50 0 81 -30t31 -80t-31 -80q-30 -30 -80 -30t-81 31t-31 79zM466 1278q0 48 30 79t80 31t81 -30t31 -80t-31 -80
t-80 -30t-80 31t-31 79z" />
    <glyph glyph-name="Wdotaccent" unicode="&#x1e86;" horiz-adv-x="1726" 
d="M595 0h-222l-364 1365h266l220 -1002h9l250 1002h219l249 -1002h10l219 1002h266l-365 -1365h-222l-263 983h-9zM749 1606q1 50 33 84t82 33q50 1 86 -33q34 -34 34 -84t-34 -84q-34 -32 -86 -32q-50 0 -82 32q-32 34 -33 84z" />
    <glyph glyph-name="wdotaccent" unicode="&#x1e87;" horiz-adv-x="1532" 
d="M1508 1058l-277 -1058h-242l-215 772h-7l-211 -772h-244l-288 1058h253l164 -797h10l208 797h222l214 -797h10l168 797h235zM651 1298q1 50 33 84t82 34t86 -34q34 -34 34 -84t-34 -82t-86 -33q-50 1 -82 33t-33 82z" />
    <glyph glyph-name="Wdotbelow" unicode="&#x1e88;" horiz-adv-x="1726" 
d="M595 0h-222l-364 1365h266l220 -1002h9l250 1002h219l249 -1002h10l219 1002h266l-365 -1365h-222l-263 983h-9zM743 -266q0 52 35 88t87 35q52 1 88 -35t36 -88t-36 -88q-36 -34 -88 -34t-87 35t-35 87z" />
    <glyph glyph-name="wdotbelow" unicode="&#x1e89;" horiz-adv-x="1532" 
d="M1508 1058l-277 -1058h-242l-215 772h-7l-211 -772h-244l-288 1058h253l164 -797h10l208 797h222l214 -797h10l168 797h235zM646 -266q0 52 35 88t87 35q52 1 88 -35t36 -88t-36 -88q-36 -34 -88 -34t-87 35t-35 87z" />
    <glyph glyph-name="Xdotaccent" unicode="&#x1e8a;" horiz-adv-x="1167" 
d="M469 1606q1 50 33 84t82 33q50 1 86 -33q34 -34 34 -84t-34 -84q-34 -32 -86 -32q-50 0 -82 32q-32 34 -33 84zM1175 1365l-440 -686l433 -679h-281l-305 500h-12l-306 -500h-265l429 688l-425 677h286l302 -506h11l299 506h274z" />
    <glyph glyph-name="xdotaccent" unicode="&#x1e8b;" horiz-adv-x="1060" 
d="M415 1298q1 50 33 84t82 34t86 -34q34 -34 34 -84t-34 -82t-86 -33q-50 1 -82 33t-33 82zM748 0l-219 369h-10l-220 -369h-254l337 525l-346 533h276l214 -367h10l221 367h262l-350 -521l348 -537h-269z" />
    <glyph glyph-name="Xdieresis" unicode="&#x1e8c;" horiz-adv-x="1167" 
d="M667 1582q-1 44 27 72t72 27q44 1 72 -27t28 -72t-28 -70q-28 -28 -72 -28t-72 28q-28 26 -27 70zM338 1582q0 44 28 72t71 27q44 1 72 -27t28 -72q1 -44 -27 -70q-28 -28 -72 -28t-72 28q-28 26 -28 70zM1175 1365l-440 -686l433 -679h-281l-305 500h-12l-306 -500h-265
l429 688l-425 677h286l302 -506h11l299 506h274z" />
    <glyph glyph-name="xdieresis" unicode="&#x1e8d;" horiz-adv-x="1060" 
d="M610 1278q0 48 30 79t81 31q50 0 81 -30t31 -80t-31 -80q-30 -30 -80 -30t-81 31t-31 79zM230 1278q0 48 30 79t80 31t81 -30t31 -80t-31 -80t-80 -30t-80 31t-31 79zM748 0l-219 369h-10l-220 -369h-254l337 525l-346 533h276l214 -367h10l221 367h262l-350 -521
l348 -537h-269z" />
    <glyph glyph-name="Ydotaccent" unicode="&#x1e8e;" horiz-adv-x="1132" 
d="M452 1606q0 50 32 84t84 33q50 1 84 -33t35 -84q-1 -50 -35 -84q-34 -32 -84 -32t-84 32q-32 34 -32 84zM687 0h-242v539l-456 826h270l305 -587h8l308 587h264l-457 -822v-543z" />
    <glyph glyph-name="ydotaccent" unicode="&#x1e8f;" horiz-adv-x="1072" 
d="M421 1298q1 50 33 84t82 34t86 -34q34 -34 34 -84t-34 -82t-86 -33q-50 1 -82 33t-33 82zM250 -380q-82 0 -144 11v175q34 -6 105 -6q143 0 176 151l12 43l-373 1064h261l243 -848h9l247 848h250q-353 -1031 -356 -1039l-27 -72q-54 -146 -142 -236q-87 -91 -261 -91z
" />
    <glyph glyph-name="Zcircumflex" unicode="&#x1e90;" horiz-adv-x="1167" 
d="M240 1502l273 240h149l269 -240h-194l-145 134h-11l-147 -134h-194zM84 0v161l681 993v9h-661v202h955v-160l-678 -993v-9h697v-203h-994z" />
    <glyph glyph-name="zcircumflex" unicode="&#x1e91;" horiz-adv-x="989" 
d="M88 0v140l524 723v12h-521v183h809v-151l-512 -711v-11h522v-185h-822zM190 1221l221 302h162l211 -303h-185l-105 182h-7l-115 -181h-182z" />
    <glyph glyph-name="Zdotbelow" unicode="&#x1e92;" horiz-adv-x="1167" 
d="M84 0v161l681 993v9h-661v202h955v-160l-678 -993v-9h697v-203h-994zM464 -266q0 52 35 88t87 35q52 1 88 -35t36 -88t-36 -88q-36 -34 -88 -34t-87 35t-35 87z" />
    <glyph glyph-name="zdotbelow" unicode="&#x1e93;" horiz-adv-x="989" 
d="M88 0v140l524 723v12h-521v183h809v-151l-512 -711v-11h522v-185h-822zM375 -266q0 52 35 88t87 35q52 1 88 -35t36 -88t-36 -88q-36 -34 -88 -34t-87 35t-35 87z" />
    <glyph glyph-name="Zlinebelow" unicode="&#x1e94;" horiz-adv-x="1167" 
d="M870 -326h-571v129h571v-129zM84 0v161l681 993v9h-661v202h955v-160l-678 -993v-9h697v-203h-994z" />
    <glyph glyph-name="zlinebelow" unicode="&#x1e95;" horiz-adv-x="989" 
d="M88 0v140l524 723v12h-521v183h809v-151l-512 -711v-11h522v-185h-822zM781 -326h-571v129h571v-129z" />
    <glyph glyph-name="hlinebelow" unicode="&#x1e96;" horiz-adv-x="1191" 
d="M877 -326h-571v129h571v-129zM141 0v1437h236v-528h10q26 65 101 115t193 51q173 0 277 -111t103 -297v-667h-237v614q0 122 -58 190t-162 67q-104 0 -166 -67t-61 -191v-613h-236z" />
    <glyph glyph-name="tdieresis" unicode="&#x1e97;" horiz-adv-x="715" 
d="M407 1526q1 48 31 79t80 31t81 -30t31 -80t-31 -80t-81 -30t-80 31t-31 79zM27 1526q1 48 31 79t80 31t80 -30q31 -30 31 -80t-31 -80q-30 -30 -80 -30t-80 31t-31 79zM203 1050v264h230v-264h206v-185h-206v-543q-1 -84 35 -114t100 -30t77 2v-179q-51 -8 -145 -8
t-168 33q-74 34 -104 98t-29 174v567h-148v185h152z" />
    <glyph glyph-name="wring" unicode="&#x1e98;" horiz-adv-x="1532" 
d="M666 1389q0 -41 28 -69t68 -29q40 1 68 29t28 69t-28 69t-68 28t-68 -28t-28 -69zM763 1188q-87 0 -147 58t-60 143q0 86 60 143t147 57q88 0 147 -57q59 -58 59 -144t-59 -143t-147 -57zM1508 1058l-277 -1058h-242l-215 772h-7l-211 -772h-244l-288 1058h253l164 -797
h10l208 797h222l214 -797h10l168 797h235z" />
    <glyph glyph-name="yring" unicode="&#x1e99;" horiz-adv-x="1072" 
d="M436 1389q0 -41 28 -69t68 -29q40 1 68 29t28 69t-28 69t-68 28t-68 -28t-28 -69zM533 1188q-87 0 -147 58t-60 143q0 86 60 143t147 57q88 0 147 -57q59 -58 59 -144t-59 -143t-147 -57zM250 -380q-82 0 -144 11v175q34 -6 105 -6q143 0 176 151l12 43l-373 1064h261
l243 -848h9l247 848h250q-353 -1031 -356 -1039l-27 -72q-54 -146 -142 -236q-87 -91 -261 -91z" />
    <glyph glyph-name="Adotbelow" unicode="&#x1ea0;" horiz-adv-x="1241" 
d="M501 -266q0 52 35 88t87 35q52 1 88 -35t36 -88t-36 -88q-36 -34 -88 -34t-87 35t-35 87zM618 1120h-9l-179 -568h366zM261 0h-244l466 1365h275l465 -1365h-259l-116 368h-471z" />
    <glyph glyph-name="adotbelow" unicode="&#x1ea1;" horiz-adv-x="1086" 
d="M423 -266q0 52 35 88t87 35q52 1 88 -35t36 -88t-36 -88q-36 -34 -88 -34t-87 35t-35 87zM510 162q86 0 148 55t62 138v108h-220q-90 1 -136 -39t-47 -111q0 -71 54 -111t139 -40zM428 -16q-156 0 -252 86t-95 232q-1 146 97 230t278 84h264v112q0 160 -180 160
t-195 -147h-225q8 144 106 239t304 95q425 0 425 -352v-723h-223v136h-10q-38 -68 -112 -110t-182 -42z" />
    <glyph glyph-name="Ahookabove" unicode="&#x1ea2;" horiz-adv-x="1241" 
d="M660 1615q0 60 -92 60q-50 0 -90 -11v106q44 17 123 17q79 -1 137 -43t58 -120q0 -111 -146 -170l-74 88q84 25 84 73zM618 1120h-9l-179 -568h366zM261 0h-244l466 1365h275l465 -1365h-259l-116 368h-471z" />
    <glyph glyph-name="ahookabove" unicode="&#x1ea3;" horiz-adv-x="1086" 
d="M598 1372q0 34 -28 56t-78 22t-88 -14v115q43 18 129 18t146 -50t60 -131q-1 -82 -43 -128t-121 -88l-72 93q95 54 95 107zM510 162q86 0 148 55t62 138v108h-220q-90 1 -136 -39t-47 -111q0 -71 54 -111t139 -40zM428 -16q-156 0 -252 86t-95 232q-1 146 97 230t278 84
h264v112q0 160 -180 160t-195 -147h-225q8 144 106 239t304 95q425 0 425 -352v-723h-223v136h-10q-38 -68 -112 -110t-182 -42z" />
    <glyph glyph-name="Acircumflexacute" unicode="&#x1ea4;" horiz-adv-x="1241" 
d="M827 1709l179 200h198l-263 -235zM276 1511l268 240h150l273 -240h-194l-148 134h-10l-145 -134h-194zM618 1120h-9l-179 -568h366zM261 0h-244l466 1365h275l465 -1365h-259l-116 368h-471z" />
    <glyph glyph-name="acircumflexacute" unicode="&#x1ea5;" horiz-adv-x="1086" 
d="M749 1402l179 200h198l-263 -235zM198 1204l268 240h150l273 -240h-194l-148 134h-10l-145 -134h-194zM510 162q86 0 148 55t62 138v108h-220q-90 1 -136 -39t-47 -111q0 -71 54 -111t139 -40zM428 -16q-156 0 -252 86t-95 232q-1 146 97 230t278 84h264v112
q0 160 -180 160t-195 -147h-225q8 144 106 239t304 95q425 0 425 -352v-723h-223v136h-10q-38 -68 -112 -110t-182 -42z" />
    <glyph glyph-name="Acircumflexgrave" unicode="&#x1ea6;" horiz-adv-x="1241" 
d="M967 1511h-194l-148 134h-10l-145 -134h-194l268 240h150zM1106 1675h-152l-260 234h195zM618 1120h-9l-179 -568h366zM261 0h-244l466 1365h275l465 -1365h-259l-116 368h-471z" />
    <glyph glyph-name="acircumflexgrave" unicode="&#x1ea7;" horiz-adv-x="1086" 
d="M889 1204h-194l-148 134h-10l-145 -134h-194l268 240h150zM1028 1368h-152l-260 234h195zM510 162q86 0 148 55t62 138v108h-220q-90 1 -136 -39t-47 -111q0 -71 54 -111t139 -40zM428 -16q-156 0 -252 86t-95 232q-1 146 97 230t278 84h264v112q0 160 -180 160
t-195 -147h-225q8 144 106 239t304 95q425 0 425 -352v-723h-223v136h-10q-38 -68 -112 -110t-182 -42z" />
    <glyph glyph-name="Acircumflexhookabove" unicode="&#x1ea8;" horiz-adv-x="1241" 
d="M908 1798q0 58 -82 58q-35 0 -63 -4v102q45 7 111 7q66 1 118 -37t51 -98q0 -106 -115 -172l-70 74q50 33 50 70zM275 1504l269 227h149l273 -227h-194l-147 124h-11l-145 -124h-194zM618 1120h-9l-179 -568h366zM261 0h-244l466 1365h275l465 -1365h-259l-116 368h-471z
" />
    <glyph glyph-name="acircumflexhookabove" unicode="&#x1ea9;" horiz-adv-x="1086" 
d="M830 1491q0 58 -82 58q-35 0 -63 -4v102q45 7 111 7t118 -38t51 -98q0 -106 -115 -171l-70 74q50 33 50 70zM197 1197l269 227h149l273 -227h-194l-147 124h-11l-145 -124h-194zM510 162q86 0 148 55t62 138v108h-220q-90 1 -136 -39t-47 -111q0 -71 54 -111t139 -40z
M428 -16q-156 0 -252 86t-95 232q-1 146 97 230t278 84h264v112q0 160 -180 160t-195 -147h-225q8 144 106 239t304 95q425 0 425 -352v-723h-223v136h-10q-38 -68 -112 -110t-182 -42z" />
    <glyph glyph-name="Acircumflextilde" unicode="&#x1eaa;" horiz-adv-x="1241" 
d="M316 1792q0 80 48 142t137 61q79 1 135 -49q21 -18 32 -29q38 -35 70 -35t48 30t18 69h133q0 -86 -52 -146q-51 -60 -121 -60t-102 14t-47 29q-16 16 -23 22q-8 6 -10 8l-8 8t-11 8t-11 6q-16 10 -36 10q-63 0 -67 -88h-133zM278 1498l268 231h150l273 -231h-194
l-148 131h-10l-145 -131h-194zM618 1120h-9l-179 -568h366zM261 0h-244l466 1365h275l465 -1365h-259l-116 368h-471z" />
    <glyph glyph-name="acircumflextilde" unicode="&#x1eab;" horiz-adv-x="1086" 
d="M238 1485q0 79 48 141t137 62q79 0 135 -50q21 -18 32 -28q39 -35 70 -35q32 1 48 31t18 68h133q0 -86 -52 -146q-51 -60 -121 -60t-102 14t-47 29q-16 15 -23 21q-8 6 -10 9l-8 8t-11 8t-11 6q-16 10 -36 10q-63 0 -67 -88h-133zM200 1191l268 231h150l273 -231h-194
l-148 131h-10l-145 -131h-194zM510 162q86 0 148 55t62 138v108h-220q-90 1 -136 -39t-47 -111q0 -71 54 -111t139 -40zM428 -16q-156 0 -252 86t-95 232q-1 146 97 230t278 84h264v112q0 160 -180 160t-195 -147h-225q8 144 106 239t304 95q425 0 425 -352v-723h-223v136
h-10q-38 -68 -112 -110t-182 -42z" />
    <glyph glyph-name="Acircumflexdotbelow" unicode="&#x1eac;" horiz-adv-x="1241" 
d="M277 1502l273 240h149l269 -240h-194l-145 134h-11l-147 -134h-194zM501 -266q0 52 35 88t87 35q52 1 88 -35t36 -88t-36 -88q-36 -34 -88 -34t-87 35t-35 87zM618 1120h-9l-179 -568h366zM261 0h-244l466 1365h275l465 -1365h-259l-116 368h-471z" />
    <glyph glyph-name="acircumflexdotbelow" unicode="&#x1ead;" horiz-adv-x="1086" 
d="M423 -266q0 52 35 88t87 35q52 1 88 -35t36 -88t-36 -88q-36 -34 -88 -34t-87 35t-35 87zM238 1221l221 302h162l211 -303h-185l-105 182h-7l-115 -181h-182zM510 162q86 0 148 55t62 138v108h-220q-90 1 -136 -39t-47 -111q0 -71 54 -111t139 -40zM428 -16
q-156 0 -252 86t-95 232q-1 146 97 230t278 84h264v112q0 160 -180 160t-195 -147h-225q8 144 106 239t304 95q425 0 425 -352v-723h-223v136h-10q-38 -68 -112 -110t-182 -42z" />
    <glyph glyph-name="Abreveacute" unicode="&#x1eae;" horiz-adv-x="1241" 
d="M512 1732l238 237h201l-265 -237h-174zM918 1728q0 -108 -77 -180t-221 -72t-223 72t-79 180h141q2 -55 44 -90t118 -35q77 1 119 35t42 90h136zM618 1120h-9l-179 -568h366zM261 0h-244l466 1365h275l465 -1365h-259l-116 368h-471z" />
    <glyph glyph-name="abreveacute" unicode="&#x1eaf;" horiz-adv-x="1086" 
d="M434 1425l238 237h201l-265 -237h-174zM840 1421q0 -107 -77 -179t-221 -73q-144 0 -223 72t-79 180h141q2 -55 44 -90t118 -35q77 0 119 34t42 91h136zM510 162q86 0 148 55t62 138v108h-220q-90 1 -136 -39t-47 -111q0 -71 54 -111t139 -40zM428 -16q-156 0 -252 86
t-95 232q-1 146 97 230t278 84h264v112q0 160 -180 160t-195 -147h-225q8 144 106 239t304 95q425 0 425 -352v-723h-223v136h-10q-38 -68 -112 -110t-182 -42z" />
    <glyph glyph-name="Abrevegrave" unicode="&#x1eb0;" horiz-adv-x="1241" 
d="M740 1732h-174l-271 237h207zM917 1728q0 -108 -77 -180q-76 -72 -220 -72t-224 72t-80 180h143q0 -55 42 -90q43 -35 119 -35t118 35t44 90h135zM618 1120h-9l-179 -568h366zM261 0h-244l466 1365h275l465 -1365h-259l-116 368h-471z" />
    <glyph glyph-name="abrevegrave" unicode="&#x1eb1;" horiz-adv-x="1086" 
d="M662 1425h-174l-271 237h207zM839 1421q0 -107 -77 -179q-76 -72 -220 -73q-144 0 -224 72t-80 180h143q0 -55 42 -90q43 -35 119 -35t118 35t44 90h135zM510 162q86 0 148 55t62 138v108h-220q-90 1 -136 -39t-47 -111q0 -71 54 -111t139 -40zM428 -16q-156 0 -252 86
t-95 232q-1 146 97 230t278 84h264v112q0 160 -180 160t-195 -147h-225q8 144 106 239t304 95q425 0 425 -352v-723h-223v136h-10q-38 -68 -112 -110t-182 -42z" />
    <glyph glyph-name="Abrevehookabove" unicode="&#x1eb2;" horiz-adv-x="1241" 
d="M568 1988q74 0 130 -40t56 -102t-42 -108t-87 -58l-79 79q24 7 44 24t21 41t-27 38t-66 14t-68 -7v106q44 13 118 13zM917 1711q-1 -103 -77 -170t-219 -67t-223 68t-80 171h141q0 -49 43 -84t118 -35q74 0 118 34t44 83h135zM618 1120h-9l-179 -568h366zM261 0h-244
l466 1365h275l465 -1365h-259l-116 368h-471z" />
    <glyph glyph-name="abrevehookabove" unicode="&#x1eb3;" horiz-adv-x="1086" 
d="M490 1681q74 1 130 -39t56 -102t-42 -108t-87 -59l-79 79q24 7 44 24t21 41t-27 38t-66 14t-68 -7v106q44 13 118 13zM839 1404q-1 -103 -77 -170t-219 -67q-143 -1 -223 67t-80 172h141q0 -49 43 -84t118 -35q74 1 118 35t44 82h135zM510 162q86 0 148 55t62 138v108
h-220q-90 1 -136 -39t-47 -111q0 -71 54 -111t139 -40zM428 -16q-156 0 -252 86t-95 232q-1 146 97 230t278 84h264v112q0 160 -180 160t-195 -147h-225q8 144 106 239t304 95q425 0 425 -352v-723h-223v136h-10q-38 -68 -112 -110t-182 -42z" />
    <glyph glyph-name="Abrevetilde" unicode="&#x1eb4;" horiz-adv-x="1241" 
d="M515 1867q-60 0 -66 -87h-135q0 82 50 144t135 61q77 -1 129 -47q20 -18 29 -27q10 -11 13 -13q29 -24 59 -24q29 0 45 30t19 68h133q0 -90 -52 -150t-120 -60q-102 0 -144 42l-24 24q-18 18 -24 22q-5 3 -11 7q-15 10 -36 10zM918 1700q0 -100 -80 -166t-218 -67
q-138 1 -220 67t-82 166h141q1 -52 45 -84t116 -32t117 32t45 84h136zM618 1120h-9l-179 -568h366zM261 0h-244l466 1365h275l465 -1365h-259l-116 368h-471z" />
    <glyph glyph-name="abrevetilde" unicode="&#x1eb5;" horiz-adv-x="1086" 
d="M437 1560q-60 0 -66 -87h-135q0 81 50 143t135 62q77 0 129 -46q20 -18 29 -28q10 -10 13 -12q29 -24 59 -25q29 0 45 30t19 68h133q0 -89 -52 -149t-120 -61q-102 0 -144 42l-24 24q-18 18 -24 22q-5 3 -11 7q-15 10 -36 10zM840 1393q0 -101 -80 -167t-218 -66t-220 66
t-82 167h141q1 -51 45 -83t116 -33q72 1 117 33t45 83h136zM510 162q86 0 148 55t62 138v108h-220q-90 1 -136 -39t-47 -111q0 -71 54 -111t139 -40zM428 -16q-156 0 -252 86t-95 232q-1 146 97 230t278 84h264v112q0 160 -180 160t-195 -147h-225q8 144 106 239t304 95
q425 0 425 -352v-723h-223v136h-10q-38 -68 -112 -110t-182 -42z" />
    <glyph glyph-name="Abrevedotbelow" unicode="&#x1eb6;" horiz-adv-x="1241" 
d="M291 1760h146q-1 -60 49 -100t134 -41q84 1 134 41t49 100h144q-1 -119 -83 -198t-244 -79t-246 79t-83 198zM501 -266q0 52 35 88t87 35q52 1 88 -35t36 -88t-36 -88q-36 -34 -88 -34t-87 35t-35 87zM618 1120h-9l-179 -568h366zM261 0h-244l466 1365h275l465 -1365
h-259l-116 368h-471z" />
    <glyph glyph-name="abrevedotbelow" unicode="&#x1eb7;" horiz-adv-x="1086" 
d="M373 1461q-1 -69 41 -117t122 -47q80 -1 122 47t41 117h144q0 -113 -77 -205t-230 -92q-99 0 -171 44q-139 86 -137 253h145zM423 -266q0 52 35 88t87 35q52 1 88 -35t36 -88t-36 -88q-36 -34 -88 -34t-87 35t-35 87zM510 162q86 0 148 55t62 138v108h-220
q-90 1 -136 -39t-47 -111q0 -71 54 -111t139 -40zM428 -16q-156 0 -252 86t-95 232q-1 146 97 230t278 84h264v112q0 160 -180 160t-195 -147h-225q8 144 106 239t304 95q425 0 425 -352v-723h-223v136h-10q-38 -68 -112 -110t-182 -42z" />
    <glyph glyph-name="Edotbelow" unicode="&#x1eb8;" horiz-adv-x="1118" 
d="M1012 202v-202h-862v1365h862v-202h-621v-375h584v-191h-584v-395h621zM455 -266q0 52 35 88t87 35q52 1 88 -35t36 -88t-36 -88q-36 -34 -88 -34t-87 35t-35 87z" />
    <glyph glyph-name="edotbelow" unicode="&#x1eb9;" horiz-adv-x="1089" 
d="M321 636h454v2q0 114 -61 185q-62 71 -166 71t-166 -72t-61 -184v-2zM88 482v89q0 233 122 369t339 136t337 -137t119 -367v-95h-684v-33q0 -117 62 -196t165 -79q102 0 154 40t64 101h228q-11 -95 -74 -177q-117 -151 -351 -151q-233 0 -357 134t-124 366zM425 -266
q0 52 35 88t87 35q52 1 88 -35t36 -88t-36 -88q-36 -34 -88 -34t-87 35t-35 87z" />
    <glyph glyph-name="Ehookabove" unicode="&#x1eba;" horiz-adv-x="1118" 
d="M614 1615q0 60 -92 60q-50 0 -90 -11v106q44 17 123 17q79 -1 137 -43t58 -120q0 -111 -146 -170l-74 88q84 25 84 73zM1012 202v-202h-862v1365h862v-202h-621v-375h584v-191h-584v-395h621z" />
    <glyph glyph-name="ehookabove" unicode="&#x1ebb;" horiz-adv-x="1089" 
d="M600 1372q0 34 -28 56t-78 22t-88 -14v115q43 18 129 18t146 -50t60 -131q-1 -82 -43 -128t-121 -88l-72 93q95 54 95 107zM321 636h454v2q0 114 -61 185q-62 71 -166 71t-166 -72t-61 -184v-2zM88 482v89q0 233 122 369t339 136t337 -137t119 -367v-95h-684v-33
q0 -117 62 -196t165 -79q102 0 154 40t64 101h228q-11 -95 -74 -177q-117 -151 -351 -151q-233 0 -357 134t-124 366z" />
    <glyph glyph-name="Etilde" unicode="&#x1ebc;" horiz-adv-x="1118" 
d="M684 1584q58 0 66 99h128q0 -84 -50 -147t-118 -63q-66 1 -96 15t-46 30t-28 26q-38 36 -67 36q-60 0 -64 -88h-128q-1 84 45 146t130 61t168 -83q32 -32 60 -32zM1012 202v-202h-862v1365h862v-202h-621v-375h584v-191h-584v-395h621z" />
    <glyph glyph-name="etilde" unicode="&#x1ebd;" horiz-adv-x="1089" 
d="M653 1305q62 0 70 111h139q0 -100 -56 -176t-142 -76t-167 81q-9 9 -13 12t-10 7t-8 6q-21 10 -38 11q-66 0 -70 -99h-140q0 106 50 179t141 73q90 0 174 -88q38 -40 70 -41zM321 636h454v2q0 114 -61 185q-62 71 -166 71t-166 -72t-61 -184v-2zM88 482v89q0 233 122 369
t339 136t337 -137t119 -367v-95h-684v-33q0 -117 62 -196t165 -79q102 0 154 40t64 101h228q-11 -95 -74 -177q-117 -151 -351 -151q-233 0 -357 134t-124 366z" />
    <glyph glyph-name="Ecircumflexacute" unicode="&#x1ebe;" horiz-adv-x="1118" 
d="M1012 202v-202h-862v1365h862v-202h-621v-375h584v-191h-584v-395h621zM781 1709l179 200h198l-263 -235zM230 1511l268 240h150l273 -240h-194l-148 134h-10l-145 -134h-194z" />
    <glyph glyph-name="ecircumflexacute" unicode="&#x1ebf;" horiz-adv-x="1089" 
d="M321 636h454v2q0 114 -61 185q-62 71 -166 71t-166 -72t-61 -184v-2zM88 482v89q0 233 122 369t339 136t337 -137t119 -367v-95h-684v-33q0 -117 62 -196t165 -79q102 0 154 40t64 101h228q-11 -95 -74 -177q-117 -151 -351 -151q-233 0 -357 134t-124 366zM751 1402
l179 200h198l-263 -235zM200 1204l268 240h150l273 -240h-194l-148 134h-10l-145 -134h-194z" />
    <glyph glyph-name="Ecircumflexgrave" unicode="&#x1ec0;" horiz-adv-x="1118" 
d="M1012 202v-202h-862v1365h862v-202h-621v-375h584v-191h-584v-395h621zM921 1511h-194l-148 134h-10l-145 -134h-194l268 240h150zM1060 1675h-152l-260 234h195z" />
    <glyph glyph-name="ecircumflexgrave" unicode="&#x1ec1;" horiz-adv-x="1089" 
d="M321 636h454v2q0 114 -61 185q-62 71 -166 71t-166 -72t-61 -184v-2zM88 482v89q0 233 122 369t339 136t337 -137t119 -367v-95h-684v-33q0 -117 62 -196t165 -79q102 0 154 40t64 101h228q-11 -95 -74 -177q-117 -151 -351 -151q-233 0 -357 134t-124 366zM891 1204
h-194l-148 134h-10l-145 -134h-194l268 240h150zM1030 1368h-152l-260 234h195z" />
    <glyph glyph-name="Ecircumflexhookabove" unicode="&#x1ec2;" horiz-adv-x="1118" 
d="M1012 202v-202h-862v1365h862v-202h-621v-375h584v-191h-584v-395h621zM862 1798q0 58 -82 58q-35 0 -63 -4v102q45 7 111 7q66 1 118 -37t51 -98q0 -106 -115 -172l-70 74q50 33 50 70zM229 1504l269 227h149l273 -227h-194l-147 124h-11l-145 -124h-194z" />
    <glyph glyph-name="ecircumflexhookabove" unicode="&#x1ec3;" horiz-adv-x="1089" 
d="M321 636h454v2q0 114 -61 185q-62 71 -166 71t-166 -72t-61 -184v-2zM88 482v89q0 233 122 369t339 136t337 -137t119 -367v-95h-684v-33q0 -117 62 -196t165 -79q102 0 154 40t64 101h228q-11 -95 -74 -177q-117 -151 -351 -151q-233 0 -357 134t-124 366zM832 1491
q0 58 -82 58q-35 0 -63 -4v102q45 7 111 7t118 -38t51 -98q0 -106 -115 -171l-70 74q50 33 50 70zM199 1197l269 227h149l273 -227h-194l-147 124h-11l-145 -124h-194z" />
    <glyph glyph-name="Ecircumflextilde" unicode="&#x1ec4;" horiz-adv-x="1118" 
d="M270 1792q0 80 48 142t137 61q79 1 135 -49q21 -18 32 -29q38 -35 70 -35t48 30t18 69h133q0 -86 -52 -146q-51 -60 -121 -60t-102 14t-47 29q-16 16 -23 22q-8 6 -10 8l-8 8t-11 8t-11 6q-16 10 -36 10q-63 0 -67 -88h-133zM232 1498l268 231h150l273 -231h-194
l-148 131h-10l-145 -131h-194zM1012 202v-202h-862v1365h862v-202h-621v-375h584v-191h-584v-395h621z" />
    <glyph glyph-name="ecircumflextilde" unicode="&#x1ec5;" horiz-adv-x="1089" 
d="M240 1485q0 79 48 141t137 62q79 0 135 -50q21 -18 32 -28q38 -35 70 -35q32 1 48 31t18 68h133q0 -86 -52 -146q-51 -60 -121 -60t-102 14t-47 29q-16 15 -23 21q-8 6 -10 9l-8 8t-11 8t-11 6q-16 10 -36 10q-63 0 -67 -88h-133zM202 1191l268 231h150l273 -231h-194
l-148 131h-10l-145 -131h-194zM321 636h454v2q0 114 -61 185q-62 71 -166 71t-166 -72t-61 -184v-2zM88 482v89q0 233 122 369t339 136t337 -137t119 -367v-95h-684v-33q0 -117 62 -196t165 -79q102 0 154 40t64 101h228q-11 -95 -74 -177q-117 -151 -351 -151
q-233 0 -357 134t-124 366z" />
    <glyph glyph-name="Ecircumflexdotbelow" unicode="&#x1ec6;" horiz-adv-x="1118" 
d="M1012 202v-202h-862v1365h862v-202h-621v-375h584v-191h-584v-395h621zM231 1502l273 240h149l269 -240h-194l-145 134h-11l-147 -134h-194zM455 -266q0 52 35 88t87 35q52 1 88 -35t36 -88t-36 -88q-36 -34 -88 -34t-87 35t-35 87z" />
    <glyph glyph-name="ecircumflexdotbelow" unicode="&#x1ec7;" horiz-adv-x="1089" 
d="M425 -266q0 52 35 88t87 35q52 1 88 -35t36 -88t-36 -88q-36 -34 -88 -34t-87 35t-35 87zM321 636h454v2q0 114 -61 185q-62 71 -166 71t-166 -72t-61 -184v-2zM88 482v89q0 233 122 369t339 136t337 -137t119 -367v-95h-684v-33q0 -117 62 -196t165 -79q102 0 154 40
t64 101h228q-11 -95 -74 -177q-117 -151 -351 -151q-233 0 -357 134t-124 366zM240 1221l221 302h162l211 -303h-185l-105 182h-7l-115 -181h-182z" />
    <glyph glyph-name="Ihookabove" unicode="&#x1ec8;" horiz-adv-x="543" 
d="M311 1615q0 60 -92 60q-50 0 -90 -11v106q44 17 123 17q79 -1 137 -43t58 -120q0 -111 -146 -170l-74 88q84 25 84 73zM392 0h-242v1365h242v-1365z" />
    <glyph glyph-name="ihookabove" unicode="&#x1ec9;" horiz-adv-x="553" 
d="M335 1372q0 34 -28 56q-29 22 -79 22t-87 -14v115q43 18 129 18t146 -50t60 -131q0 -82 -42 -128t-122 -88l-72 93q95 54 95 107zM161 0v1058h240v-1058h-240z" />
    <glyph glyph-name="Idotbelow" unicode="&#x1eca;" horiz-adv-x="543" 
d="M152 -266q0 52 35 88t87 35q52 1 88 -35t36 -88t-36 -88q-36 -34 -88 -34t-87 35t-35 87zM392 0h-242v1365h242v-1365z" />
    <glyph glyph-name="idotbelow" unicode="&#x1ecb;" horiz-adv-x="554" 
d="M157 -266q0 52 35 88t87 35q52 1 88 -35t36 -88t-36 -88q-36 -34 -88 -34t-87 35t-35 87zM135 1320q-1 54 39 90t102 36t102 -36t40 -90t-39 -90t-102 -36t-103 36t-39 90zM159 0v1058h236v-1058h-236z" />
    <glyph glyph-name="Odotbelow" unicode="&#x1ecc;" horiz-adv-x="1338" 
d="M96 586v182q0 290 154 457t420 167t419 -167t153 -457v-182q0 -288 -154 -450t-420 -163q-268 0 -420 162t-152 451zM340 770v-185q0 -199 90 -303t238 -104t239 104q90 104 90 303v185q-1 201 -91 309t-238 108t-238 -108t-90 -309zM549 -266q0 52 35 88t87 35
q52 1 88 -35t36 -88t-36 -88q-36 -34 -88 -34t-87 35t-35 87z" />
    <glyph glyph-name="odotbelow" unicode="&#x1ecd;" horiz-adv-x="1126" 
d="M564 890q-133 0 -186 -96t-53 -234v-61q0 -232 124 -302q49 -27 115 -27q134 0 185 96t51 233v61q0 330 -236 330zM564 1076q232 0 354 -138t121 -369v-76q0 -239 -121 -375t-354 -136q-232 0 -354 136t-122 375v75q0 311 212 441q109 67 264 67zM444 -266q0 52 35 88
t87 35q52 1 88 -35t36 -88t-36 -88q-36 -34 -88 -34t-87 35t-35 87z" />
    <glyph glyph-name="Ohookabove" unicode="&#x1ece;" horiz-adv-x="1338" 
d="M96 586v182q0 290 154 457t420 167t419 -167t153 -457v-182q0 -288 -154 -450t-420 -163q-268 0 -420 162t-152 451zM340 770v-185q0 -199 90 -303t238 -104t239 104q90 104 90 303v185q-1 201 -91 309t-238 108t-238 -108t-90 -309zM708 1615q0 60 -92 60q-50 0 -90 -11
v106q44 17 123 17q79 -1 137 -43t58 -120q0 -111 -146 -170l-74 88q84 25 84 73z" />
    <glyph glyph-name="ohookabove" unicode="&#x1ecf;" horiz-adv-x="1126" 
d="M619 1372q0 34 -28 56q-29 22 -79 22t-87 -14v115q43 18 129 18t146 -50t60 -131q0 -82 -42 -128t-122 -88l-72 93q95 54 95 107zM564 890q-133 0 -186 -96t-53 -234v-61q0 -232 124 -302q49 -27 115 -27q134 0 185 96t51 233v61q0 330 -236 330zM564 1076
q232 0 354 -138t121 -369v-76q0 -239 -121 -375t-354 -136q-232 0 -354 136t-122 375v75q0 311 212 441q109 67 264 67z" />
    <glyph glyph-name="Ocircumflexacute" unicode="&#x1ed0;" horiz-adv-x="1338" 
d="M96 586v182q0 290 154 457t420 167t419 -167t153 -457v-182q0 -288 -154 -450t-420 -163q-268 0 -420 162t-152 451zM340 770v-185q0 -199 90 -303t238 -104t239 104q90 104 90 303v185q-1 201 -91 309t-238 108t-238 -108t-90 -309zM875 1709l179 200h198l-263 -235z
M324 1511l268 240h150l273 -240h-194l-148 134h-10l-145 -134h-194z" />
    <glyph glyph-name="ocircumflexacute" unicode="&#x1ed1;" horiz-adv-x="1126" 
d="M564 890q-133 0 -186 -96t-53 -234v-61q0 -232 124 -302q49 -27 115 -27q134 0 185 96t51 233v61q0 330 -236 330zM564 1076q232 0 354 -138t121 -369v-76q0 -239 -121 -375t-354 -136q-232 0 -354 136t-122 375v75q0 311 212 441q109 67 264 67zM770 1402l179 200h198
l-263 -235zM219 1204l268 240h150l273 -240h-194l-148 134h-10l-145 -134h-194z" />
    <glyph glyph-name="Ocircumflexgrave" unicode="&#x1ed2;" horiz-adv-x="1338" 
d="M96 586v182q0 290 154 457t420 167t419 -167t153 -457v-182q0 -288 -154 -450t-420 -163q-268 0 -420 162t-152 451zM340 770v-185q0 -199 90 -303t238 -104t239 104q90 104 90 303v185q-1 201 -91 309t-238 108t-238 -108t-90 -309zM1015 1511h-194l-148 134h-10
l-145 -134h-194l268 240h150zM1154 1675h-152l-260 234h195z" />
    <glyph glyph-name="ocircumflexgrave" unicode="&#x1ed3;" horiz-adv-x="1126" 
d="M564 890q-133 0 -186 -96t-53 -234v-61q0 -232 124 -302q49 -27 115 -27q134 0 185 96t51 233v61q0 330 -236 330zM564 1076q232 0 354 -138t121 -369v-76q0 -239 -121 -375t-354 -136q-232 0 -354 136t-122 375v75q0 311 212 441q109 67 264 67zM910 1204h-194l-148 134
h-10l-145 -134h-194l268 240h150zM1049 1368h-152l-260 234h195z" />
    <glyph glyph-name="Ocircumflexhookabove" unicode="&#x1ed4;" horiz-adv-x="1338" 
d="M96 586v182q0 290 154 457t420 167t419 -167t153 -457v-182q0 -288 -154 -450t-420 -163q-268 0 -420 162t-152 451zM340 770v-185q0 -199 90 -303t238 -104t239 104q90 104 90 303v185q-1 201 -91 309t-238 108t-238 -108t-90 -309zM956 1798q0 58 -82 58q-35 0 -63 -4
v102q45 7 111 7q66 1 118 -37t51 -98q0 -106 -115 -172l-70 74q50 33 50 70zM323 1504l269 227h149l273 -227h-194l-147 124h-11l-145 -124h-194z" />
    <glyph glyph-name="ocircumflexhookabove" unicode="&#x1ed5;" horiz-adv-x="1126" 
d="M564 890q-133 0 -186 -96t-53 -234v-61q0 -232 124 -302q49 -27 115 -27q134 0 185 96t51 233v61q0 330 -236 330zM564 1076q232 0 354 -138t121 -369v-76q0 -239 -121 -375t-354 -136q-232 0 -354 136t-122 375v75q0 311 212 441q109 67 264 67zM851 1491q0 58 -82 58
q-35 0 -63 -4v102q44 7 110 7t118 -38t52 -98q0 -106 -115 -171l-70 74q50 33 50 70zM218 1197l269 227h149l273 -227h-194l-147 124h-11l-145 -124h-194z" />
    <glyph glyph-name="Ocircumflextilde" unicode="&#x1ed6;" horiz-adv-x="1338" 
d="M96 586v182q0 290 154 457t420 167t419 -167t153 -457v-182q0 -288 -154 -450t-420 -163q-268 0 -420 162t-152 451zM340 770v-185q0 -199 90 -303t238 -104t239 104q90 104 90 303v185q-1 201 -91 309t-238 108t-238 -108t-90 -309zM364 1792q0 80 48 142t137 61
q79 1 135 -49q21 -18 32 -29q38 -35 70 -35t48 30t18 69h133q0 -86 -52 -146q-51 -60 -121 -60t-102 14t-47 29q-16 16 -23 22q-8 6 -10 8l-8 8t-11 8t-11 6q-16 10 -36 10q-63 0 -67 -88h-133zM326 1498l268 231h150l273 -231h-194l-148 131h-10l-145 -131h-194z" />
    <glyph glyph-name="ocircumflextilde" unicode="&#x1ed7;" horiz-adv-x="1126" 
d="M564 890q-133 0 -186 -96t-53 -234v-61q0 -232 124 -302q49 -27 115 -27q134 0 185 96t51 233v61q0 330 -236 330zM564 1076q232 0 354 -138t121 -369v-76q0 -239 -121 -375t-354 -136q-232 0 -354 136t-122 375v75q0 311 212 441q109 67 264 67zM259 1485q1 79 49 141
t136 62q79 0 135 -50q21 -18 32 -28q39 -35 70 -35q32 1 48 31t18 68h133q0 -86 -52 -146t-122 -60t-100 14q-32 14 -48 29t-23 21t-9 9q-2 2 -10 8q-6 6 -10 8t-10 6q-16 10 -37 10q-63 0 -67 -88h-133zM221 1191l268 231h150l273 -231h-194l-148 131h-10l-145 -131h-194z
" />
    <glyph glyph-name="Ocircumflexdotbelow" unicode="&#x1ed8;" horiz-adv-x="1338" 
d="M96 586v182q0 290 154 457t420 167t419 -167t153 -457v-182q0 -288 -154 -450t-420 -163q-268 0 -420 162t-152 451zM340 770v-185q0 -199 90 -303t238 -104t239 104q90 104 90 303v185q-1 201 -91 309t-238 108t-238 -108t-90 -309zM325 1502l273 240h149l269 -240h-194
l-145 134h-11l-147 -134h-194zM549 -266q0 52 35 88t87 35q52 1 88 -35t36 -88t-36 -88q-36 -34 -88 -34t-87 35t-35 87z" />
    </font>
</defs>
</svg>
